<?xml version="1.0" encoding="utf-8"?>
<!-- Generator: Adobe Illustrator 17.1.0, SVG Export Plug-In . SVG Version: 6.00 Build 0)  -->
<!DOCTYPE svg PUBLIC "-//W3C//DTD SVG 1.1//EN" "http://www.w3.org/Graphics/SVG/1.1/DTD/svg11.dtd">
<svg version="1.1" id="Layer_1" xmlns="http://www.w3.org/2000/svg" xmlns:xlink="http://www.w3.org/1999/xlink" x="0px" y="0px"
	 viewBox="0 0 663 258" enable-background="new 0 0 663 258" xml:space="preserve">
<g>
	<defs>
		<rect id="SVGID_1_" width="663" height="258"/>
	</defs>
	<clipPath id="SVGID_2_">
		<use xlink:href="#SVGID_1_"  overflow="visible"/>
	</clipPath>
	<rect opacity="0" clip-path="url(#SVGID_2_)" fill-rule="evenodd" clip-rule="evenodd" fill="#FFFFFF" width="663" height="258"/>
	<polygon clip-path="url(#SVGID_2_)" fill-rule="evenodd" clip-rule="evenodd" fill="#CD665F" points="1.284,98.752 121.811,98.752 
		151.943,128.884 121.811,159.016 1.284,159.016 	"/>
	
		<polygon clip-path="url(#SVGID_2_)" fill="none" stroke="#FFFFFF" stroke-width="2" stroke-linejoin="round" stroke-miterlimit="10" points="
		1.284,98.752 121.811,98.752 151.943,128.884 121.811,159.016 1.284,159.016 	"/>
	<g clip-path="url(#SVGID_2_)">
		<path fill="#FFFFFF" d="M26.972,134.834v-12.169h3.943c1.494,0,2.468,0.061,2.922,0.183c0.697,0.183,1.281,0.58,1.751,1.191
			s0.706,1.401,0.706,2.369c0,0.748-0.136,1.376-0.407,1.885s-0.616,0.909-1.034,1.199c-0.417,0.291-0.842,0.483-1.274,0.577
			c-0.586,0.116-1.436,0.175-2.548,0.175h-1.602v4.59H26.972z M29.429,124.724v3.453h1.345c0.968,0,1.616-0.063,1.942-0.19
			c0.327-0.128,0.583-0.327,0.768-0.598c0.185-0.271,0.278-0.587,0.278-0.947c0-0.442-0.13-0.808-0.39-1.096
			c-0.26-0.287-0.589-0.467-0.988-0.539c-0.293-0.056-0.883-0.083-1.768-0.083H29.429z"/>
		<path fill="#FFFFFF" d="M37.755,130.302c0-0.774,0.191-1.524,0.573-2.249c0.382-0.726,0.923-1.279,1.623-1.66
			c0.7-0.383,1.482-0.573,2.345-0.573c1.333,0,2.427,0.433,3.279,1.299s1.278,1.961,1.278,3.283c0,1.334-0.43,2.439-1.291,3.316
			c-0.86,0.877-1.943,1.315-3.25,1.315c-0.808,0-1.579-0.183-2.312-0.548c-0.733-0.365-1.291-0.9-1.672-1.606
			C37.946,132.174,37.755,131.314,37.755,130.302z M40.146,130.426c0,0.875,0.208,1.545,0.623,2.01s0.927,0.697,1.536,0.697
			s1.119-0.232,1.531-0.697c0.413-0.465,0.619-1.141,0.619-2.025c0-0.863-0.206-1.527-0.619-1.992
			c-0.412-0.465-0.922-0.697-1.531-0.697s-1.121,0.232-1.536,0.697S40.146,129.552,40.146,130.426z"/>
		<path fill="#FFFFFF" d="M47.857,132.318l2.341-0.356c0.1,0.454,0.302,0.798,0.606,1.033s0.73,0.353,1.278,0.353
			c0.603,0,1.057-0.11,1.361-0.332c0.205-0.154,0.307-0.362,0.307-0.622c0-0.177-0.055-0.323-0.166-0.44
			c-0.116-0.11-0.376-0.213-0.78-0.307c-1.881-0.415-3.074-0.794-3.578-1.137c-0.697-0.477-1.046-1.138-1.046-1.984
			c0-0.764,0.302-1.405,0.905-1.926s1.539-0.78,2.806-0.78c1.207,0,2.103,0.196,2.689,0.589c0.586,0.394,0.991,0.975,1.212,1.744
			l-2.2,0.406c-0.094-0.343-0.272-0.605-0.536-0.789c-0.263-0.182-0.638-0.273-1.125-0.273c-0.614,0-1.054,0.086-1.32,0.258
			c-0.177,0.121-0.266,0.279-0.266,0.473c0,0.166,0.078,0.307,0.232,0.424c0.21,0.154,0.937,0.373,2.179,0.655
			c1.243,0.282,2.11,0.628,2.603,1.038c0.487,0.414,0.73,0.993,0.73,1.734c0,0.808-0.337,1.502-1.013,2.084
			c-0.675,0.58-1.674,0.871-2.997,0.871c-1.201,0-2.151-0.243-2.851-0.73C48.531,133.815,48.073,133.154,47.857,132.318z"/>
		<path fill="#FFFFFF" d="M58.133,124.823v-2.158h2.333v2.158H58.133z M58.133,134.834v-8.815h2.333v8.815H58.133z"/>
		<path fill="#FFFFFF" d="M66.899,126.019v1.859h-1.594v3.553c0,0.72,0.015,1.139,0.046,1.258c0.03,0.119,0.1,0.217,0.207,0.294
			c0.108,0.078,0.24,0.117,0.395,0.117c0.216,0,0.528-0.075,0.938-0.225l0.199,1.81c-0.542,0.232-1.157,0.349-1.843,0.349
			c-0.42,0-0.8-0.07-1.137-0.212c-0.337-0.141-0.585-0.323-0.743-0.548c-0.157-0.224-0.267-0.527-0.328-0.908
			c-0.05-0.271-0.075-0.819-0.075-1.645v-3.843h-1.071v-1.859h1.071v-1.751l2.341-1.361v3.112H66.899z"/>
		<path fill="#FFFFFF" d="M68.518,124.823v-2.158h2.333v2.158H68.518z M68.518,134.834v-8.815h2.333v8.815H68.518z"/>
		<path fill="#FFFFFF" d="M72.701,130.302c0-0.774,0.191-1.524,0.573-2.249c0.382-0.726,0.923-1.279,1.623-1.66
			c0.7-0.383,1.482-0.573,2.345-0.573c1.333,0,2.427,0.433,3.279,1.299s1.278,1.961,1.278,3.283c0,1.334-0.43,2.439-1.291,3.316
			c-0.86,0.877-1.943,1.315-3.25,1.315c-0.808,0-1.579-0.183-2.312-0.548c-0.733-0.365-1.291-0.9-1.672-1.606
			C72.892,132.174,72.701,131.314,72.701,130.302z M75.092,130.426c0,0.875,0.208,1.545,0.623,2.01s0.927,0.697,1.536,0.697
			s1.119-0.232,1.531-0.697c0.413-0.465,0.619-1.141,0.619-2.025c0-0.863-0.206-1.527-0.619-1.992
			c-0.412-0.465-0.922-0.697-1.531-0.697s-1.121,0.232-1.536,0.697S75.092,129.552,75.092,130.426z"/>
		<path fill="#FFFFFF" d="M91.644,134.834h-2.333v-4.499c0-0.952-0.05-1.567-0.149-1.847s-0.262-0.497-0.485-0.652
			c-0.225-0.154-0.494-0.232-0.81-0.232c-0.404,0-0.767,0.111-1.087,0.332c-0.321,0.222-0.541,0.516-0.66,0.881
			c-0.119,0.365-0.179,1.04-0.179,2.025v3.992h-2.333v-8.815h2.167v1.295c0.769-0.996,1.738-1.494,2.905-1.494
			c0.515,0,0.985,0.093,1.411,0.278s0.749,0.422,0.967,0.709c0.219,0.288,0.371,0.615,0.457,0.98
			c0.085,0.365,0.128,0.888,0.128,1.568V134.834z"/>
		<path fill="#FFFFFF" d="M94.009,124.823v-2.158h2.333v2.158H94.009z M94.009,134.834v-8.815h2.333v8.815H94.009z"/>
		<path fill="#FFFFFF" d="M106.751,134.834h-2.333v-4.499c0-0.952-0.05-1.567-0.149-1.847s-0.262-0.497-0.485-0.652
			c-0.225-0.154-0.494-0.232-0.81-0.232c-0.404,0-0.767,0.111-1.087,0.332c-0.321,0.222-0.541,0.516-0.66,0.881
			c-0.119,0.365-0.179,1.04-0.179,2.025v3.992h-2.333v-8.815h2.167v1.295c0.769-0.996,1.738-1.494,2.905-1.494
			c0.515,0,0.985,0.093,1.411,0.278s0.749,0.422,0.967,0.709c0.219,0.288,0.371,0.615,0.457,0.98
			c0.085,0.365,0.128,0.888,0.128,1.568V134.834z"/>
		<path fill="#FFFFFF" d="M108.901,135.415l2.665,0.323c0.044,0.311,0.146,0.523,0.307,0.64c0.221,0.166,0.57,0.249,1.046,0.249
			c0.609,0,1.065-0.092,1.37-0.273c0.205-0.122,0.36-0.318,0.465-0.59c0.072-0.193,0.108-0.551,0.108-1.07v-1.287
			c-0.697,0.952-1.577,1.428-2.64,1.428c-1.184,0-2.122-0.501-2.814-1.502c-0.542-0.792-0.813-1.777-0.813-2.955
			c0-1.479,0.355-2.607,1.066-3.387c0.711-0.781,1.595-1.171,2.652-1.171c1.09,0,1.989,0.479,2.698,1.437v-1.237h2.183v7.911
			c0,1.04-0.086,1.817-0.257,2.332s-0.412,0.919-0.722,1.212s-0.724,0.522-1.241,0.688c-0.517,0.166-1.171,0.25-1.963,0.25
			c-1.494,0-2.554-0.257-3.179-0.769s-0.938-1.16-0.938-1.946C108.893,135.62,108.896,135.525,108.901,135.415z M110.984,130.244
			c0,0.935,0.181,1.619,0.544,2.054c0.362,0.435,0.809,0.651,1.34,0.651c0.57,0,1.051-0.223,1.444-0.668s0.589-1.105,0.589-1.979
			c0-0.913-0.188-1.591-0.564-2.034c-0.376-0.442-0.852-0.664-1.428-0.664c-0.559,0-1.02,0.218-1.382,0.652
			C111.166,128.69,110.984,129.353,110.984,130.244z"/>
	</g>
	<polygon clip-path="url(#SVGID_2_)" fill-rule="evenodd" clip-rule="evenodd" fill="#AAC46C" points="121.811,98.752 
		242.339,98.752 272.47,128.884 242.339,159.016 121.811,159.016 151.943,128.884 	"/>
	<polygon clip-path="url(#SVGID_2_)" fill="none" stroke="#FFFFFF" stroke-width="2" stroke-miterlimit="8" points="121.811,98.752 
		242.339,98.752 272.47,128.884 242.339,159.016 121.811,159.016 151.943,128.884 	"/>
	<g clip-path="url(#SVGID_2_)">
		<path fill="#FFFFFF" d="M159.743,134.834v-12.169h3.677l2.208,8.301l2.184-8.301h3.686v12.169h-2.283v-9.579l-2.415,9.579h-2.366
			l-2.407-9.579v9.579H159.743z"/>
		<path fill="#FFFFFF" d="M179.025,132.028l2.324,0.39c-0.299,0.853-0.771,1.502-1.415,1.947s-1.451,0.668-2.42,0.668
			c-1.532,0-2.667-0.501-3.403-1.502c-0.581-0.803-0.871-1.815-0.871-3.039c0-1.461,0.382-2.604,1.146-3.432
			s1.729-1.241,2.896-1.241c1.312,0,2.347,0.433,3.104,1.299c0.759,0.866,1.121,2.193,1.088,3.98h-5.844
			c0.017,0.691,0.204,1.229,0.564,1.614c0.359,0.385,0.808,0.577,1.345,0.577c0.365,0,0.672-0.1,0.921-0.299
			S178.898,132.471,179.025,132.028z M179.158,129.671c-0.017-0.675-0.19-1.188-0.522-1.54s-0.736-0.527-1.212-0.527
			c-0.51,0-0.93,0.186-1.262,0.557s-0.495,0.874-0.49,1.511H179.158z"/>
		<path fill="#FFFFFF" d="M182.554,132.318l2.341-0.356c0.1,0.454,0.302,0.798,0.605,1.033c0.305,0.235,0.73,0.353,1.278,0.353
			c0.604,0,1.058-0.11,1.361-0.332c0.205-0.154,0.308-0.362,0.308-0.622c0-0.177-0.056-0.323-0.166-0.44
			c-0.116-0.11-0.377-0.213-0.78-0.307c-1.882-0.415-3.074-0.794-3.578-1.137c-0.697-0.477-1.046-1.138-1.046-1.984
			c0-0.764,0.302-1.405,0.905-1.926c0.603-0.521,1.538-0.78,2.806-0.78c1.206,0,2.103,0.196,2.689,0.589
			c0.586,0.394,0.99,0.975,1.212,1.744l-2.2,0.406c-0.094-0.343-0.272-0.605-0.535-0.789c-0.263-0.182-0.638-0.273-1.125-0.273
			c-0.614,0-1.054,0.086-1.319,0.258c-0.178,0.121-0.266,0.279-0.266,0.473c0,0.166,0.077,0.307,0.232,0.424
			c0.21,0.154,0.937,0.373,2.179,0.655s2.109,0.628,2.603,1.038c0.486,0.414,0.73,0.993,0.73,1.734c0,0.808-0.338,1.502-1.013,2.084
			c-0.676,0.58-1.674,0.871-2.997,0.871c-1.2,0-2.151-0.243-2.851-0.73C183.228,133.815,182.77,133.154,182.554,132.318z"/>
		<path fill="#FFFFFF" d="M192.008,132.318l2.341-0.356c0.1,0.454,0.302,0.798,0.606,1.033c0.304,0.235,0.73,0.353,1.278,0.353
			c0.603,0,1.057-0.11,1.361-0.332c0.204-0.154,0.307-0.362,0.307-0.622c0-0.177-0.055-0.323-0.166-0.44
			c-0.116-0.11-0.376-0.213-0.78-0.307c-1.881-0.415-3.074-0.794-3.577-1.137c-0.697-0.477-1.046-1.138-1.046-1.984
			c0-0.764,0.302-1.405,0.904-1.926c0.604-0.521,1.539-0.78,2.806-0.78c1.207,0,2.104,0.196,2.689,0.589
			c0.587,0.394,0.991,0.975,1.212,1.744l-2.199,0.406c-0.095-0.343-0.272-0.605-0.536-0.789c-0.263-0.182-0.638-0.273-1.124-0.273
			c-0.614,0-1.055,0.086-1.32,0.258c-0.177,0.121-0.266,0.279-0.266,0.473c0,0.166,0.078,0.307,0.232,0.424
			c0.211,0.154,0.937,0.373,2.179,0.655c1.243,0.282,2.11,0.628,2.603,1.038c0.487,0.414,0.73,0.993,0.73,1.734
			c0,0.808-0.337,1.502-1.013,2.084c-0.675,0.58-1.674,0.871-2.996,0.871c-1.201,0-2.151-0.243-2.852-0.73
			S192.224,133.154,192.008,132.318z"/>
		<path fill="#FFFFFF" d="M204.027,128.708l-2.116-0.382c0.237-0.853,0.647-1.483,1.229-1.893s1.444-0.614,2.59-0.614
			c1.04,0,1.814,0.123,2.324,0.369c0.509,0.246,0.867,0.56,1.075,0.938c0.207,0.379,0.311,1.074,0.311,2.088l-0.024,2.723
			c0,0.774,0.037,1.346,0.112,1.714c0.074,0.368,0.214,0.762,0.419,1.183h-2.308c-0.062-0.155-0.136-0.385-0.225-0.689
			c-0.038-0.138-0.066-0.229-0.083-0.273c-0.398,0.388-0.824,0.678-1.278,0.871c-0.453,0.194-0.938,0.291-1.452,0.291
			c-0.908,0-1.623-0.246-2.146-0.738c-0.523-0.493-0.785-1.115-0.785-1.868c0-0.498,0.119-0.942,0.357-1.332
			c0.237-0.391,0.571-0.689,1-0.896c0.429-0.208,1.047-0.389,1.855-0.544c1.09-0.205,1.846-0.396,2.266-0.572v-0.232
			c0-0.449-0.11-0.769-0.332-0.959c-0.221-0.191-0.639-0.287-1.253-0.287c-0.415,0-0.739,0.082-0.972,0.245
			S204.172,128.299,204.027,128.708z M207.148,130.601c-0.299,0.1-0.771,0.219-1.419,0.356c-0.647,0.139-1.071,0.274-1.271,0.407
			c-0.304,0.216-0.456,0.489-0.456,0.821c0,0.327,0.121,0.609,0.365,0.848c0.243,0.237,0.553,0.356,0.93,0.356
			c0.42,0,0.821-0.139,1.203-0.415c0.282-0.21,0.468-0.468,0.557-0.771c0.061-0.199,0.091-0.579,0.091-1.138V130.601z"/>
		<path fill="#FFFFFF" d="M211.523,135.415l2.664,0.323c0.045,0.311,0.146,0.523,0.308,0.64c0.221,0.166,0.569,0.249,1.046,0.249
			c0.608,0,1.065-0.092,1.369-0.273c0.205-0.122,0.36-0.318,0.465-0.59c0.072-0.193,0.108-0.551,0.108-1.07v-1.287
			c-0.697,0.952-1.577,1.428-2.64,1.428c-1.185,0-2.122-0.501-2.814-1.502c-0.542-0.792-0.813-1.777-0.813-2.955
			c0-1.479,0.355-2.607,1.066-3.387c0.712-0.781,1.596-1.171,2.652-1.171c1.091,0,1.989,0.479,2.698,1.437v-1.237h2.183v7.911
			c0,1.04-0.086,1.817-0.257,2.332c-0.172,0.515-0.412,0.919-0.723,1.212c-0.31,0.293-0.724,0.522-1.241,0.688
			c-0.517,0.166-1.171,0.25-1.963,0.25c-1.494,0-2.554-0.257-3.179-0.769c-0.626-0.512-0.938-1.16-0.938-1.946
			C211.515,135.62,211.518,135.525,211.523,135.415z M213.606,130.244c0,0.935,0.182,1.619,0.544,2.054s0.81,0.651,1.341,0.651
			c0.569,0,1.051-0.223,1.444-0.668c0.393-0.445,0.589-1.105,0.589-1.979c0-0.913-0.188-1.591-0.564-2.034
			c-0.376-0.442-0.852-0.664-1.428-0.664c-0.559,0-1.02,0.218-1.382,0.652S213.606,129.353,213.606,130.244z"/>
		<path fill="#FFFFFF" d="M227.229,132.028l2.324,0.39c-0.299,0.853-0.771,1.502-1.415,1.947c-0.646,0.445-1.452,0.668-2.42,0.668
			c-1.533,0-2.668-0.501-3.403-1.502c-0.581-0.803-0.872-1.815-0.872-3.039c0-1.461,0.382-2.604,1.146-3.432
			s1.729-1.241,2.897-1.241c1.312,0,2.346,0.433,3.104,1.299c0.758,0.866,1.12,2.193,1.087,3.98h-5.844
			c0.017,0.691,0.205,1.229,0.564,1.614c0.36,0.385,0.809,0.577,1.345,0.577c0.365,0,0.673-0.1,0.922-0.299
			S227.101,132.471,227.229,132.028z M227.361,129.671c-0.017-0.675-0.191-1.188-0.523-1.54s-0.735-0.527-1.212-0.527
			c-0.509,0-0.93,0.186-1.262,0.557s-0.495,0.874-0.489,1.511H227.361z"/>
		<path fill="#FFFFFF" d="M230.756,132.318l2.341-0.356c0.1,0.454,0.302,0.798,0.606,1.033c0.304,0.235,0.73,0.353,1.278,0.353
			c0.603,0,1.057-0.11,1.361-0.332c0.204-0.154,0.307-0.362,0.307-0.622c0-0.177-0.055-0.323-0.166-0.44
			c-0.116-0.11-0.376-0.213-0.78-0.307c-1.881-0.415-3.074-0.794-3.577-1.137c-0.697-0.477-1.046-1.138-1.046-1.984
			c0-0.764,0.302-1.405,0.904-1.926c0.604-0.521,1.539-0.78,2.806-0.78c1.207,0,2.104,0.196,2.689,0.589
			c0.587,0.394,0.991,0.975,1.212,1.744l-2.199,0.406c-0.095-0.343-0.272-0.605-0.536-0.789c-0.263-0.182-0.638-0.273-1.124-0.273
			c-0.614,0-1.055,0.086-1.32,0.258c-0.177,0.121-0.266,0.279-0.266,0.473c0,0.166,0.078,0.307,0.232,0.424
			c0.211,0.154,0.937,0.373,2.179,0.655c1.243,0.282,2.11,0.628,2.603,1.038c0.487,0.414,0.73,0.993,0.73,1.734
			c0,0.808-0.337,1.502-1.013,2.084c-0.675,0.58-1.674,0.871-2.996,0.871c-1.201,0-2.151-0.243-2.852-0.73
			S230.972,133.154,230.756,132.318z"/>
	</g>
	<polygon clip-path="url(#SVGID_2_)" fill-rule="evenodd" clip-rule="evenodd" fill="#937AB1" points="242.339,98.752 
		362.866,98.752 392.998,128.884 362.866,159.016 242.339,159.016 272.47,128.884 	"/>
	<polygon clip-path="url(#SVGID_2_)" fill="none" stroke="#FFFFFF" stroke-width="2" stroke-miterlimit="8" points="242.339,98.752 
		362.866,98.752 392.998,128.884 362.866,159.016 242.339,159.016 272.471,128.884 	"/>
	<g clip-path="url(#SVGID_2_)">
		<path fill="#FFFFFF" d="M296.391,113.485h4.864c0.963,0,1.681,0.04,2.154,0.12c0.473,0.08,0.896,0.248,1.27,0.502
			c0.374,0.255,0.685,0.594,0.934,1.018c0.249,0.423,0.374,0.897,0.374,1.424c0,0.569-0.153,1.093-0.461,1.568
			c-0.307,0.476-0.723,0.833-1.249,1.07c0.742,0.217,1.312,0.584,1.71,1.104s0.598,1.132,0.598,1.835
			c0,0.553-0.129,1.091-0.386,1.614c-0.258,0.522-0.609,0.94-1.055,1.253c-0.445,0.312-0.995,0.505-1.647,0.577
			c-0.41,0.044-1.397,0.072-2.963,0.083h-4.142V113.485z M298.848,115.51v2.813h1.61c0.958,0,1.552-0.014,1.785-0.041
			c0.42-0.05,0.751-0.195,0.992-0.436c0.241-0.241,0.361-0.558,0.361-0.951c0-0.376-0.104-0.682-0.312-0.917
			c-0.207-0.235-0.516-0.378-0.925-0.427c-0.244-0.028-0.943-0.042-2.1-0.042H298.848z M298.848,120.349v3.254h2.274
			c0.885,0,1.447-0.024,1.685-0.074c0.365-0.066,0.663-0.229,0.892-0.485c0.23-0.258,0.345-0.603,0.345-1.034
			c0-0.365-0.088-0.675-0.266-0.93c-0.177-0.254-0.433-0.439-0.768-0.556c-0.335-0.116-1.062-0.175-2.179-0.175H298.848z"/>
		<path fill="#FFFFFF" d="M310.875,125.654h-2.333v-8.815h2.167v1.253c0.371-0.592,0.704-0.981,1-1.17
			c0.296-0.188,0.632-0.282,1.009-0.282c0.531,0,1.043,0.146,1.536,0.44l-0.722,2.033c-0.393-0.255-0.758-0.382-1.096-0.382
			c-0.327,0-0.603,0.09-0.83,0.27s-0.405,0.505-0.535,0.976c-0.13,0.471-0.195,1.455-0.195,2.955V125.654z"/>
		<path fill="#FFFFFF" d="M317.001,119.528l-2.117-0.382c0.238-0.853,0.647-1.483,1.229-1.893s1.444-0.614,2.59-0.614
			c1.041,0,1.815,0.123,2.324,0.369s0.867,0.56,1.075,0.938c0.207,0.379,0.311,1.074,0.311,2.088l-0.025,2.723
			c0,0.774,0.037,1.346,0.112,1.714c0.074,0.368,0.214,0.762,0.419,1.183h-2.308c-0.061-0.155-0.136-0.385-0.224-0.689
			c-0.039-0.138-0.066-0.229-0.083-0.273c-0.398,0.388-0.825,0.678-1.278,0.871c-0.454,0.194-0.938,0.291-1.453,0.291
			c-0.908,0-1.623-0.246-2.146-0.738c-0.523-0.493-0.785-1.115-0.785-1.868c0-0.498,0.119-0.942,0.357-1.332
			c0.238-0.391,0.571-0.689,1-0.896c0.429-0.208,1.047-0.389,1.855-0.544c1.09-0.205,1.846-0.396,2.266-0.572v-0.232
			c0-0.449-0.111-0.769-0.332-0.959c-0.221-0.191-0.639-0.287-1.253-0.287c-0.415,0-0.739,0.082-0.971,0.245
			S317.146,119.119,317.001,119.528z M320.123,121.42c-0.299,0.1-0.772,0.219-1.419,0.356c-0.647,0.139-1.071,0.274-1.27,0.407
			c-0.304,0.216-0.457,0.489-0.457,0.821c0,0.327,0.122,0.609,0.365,0.848c0.244,0.237,0.553,0.356,0.93,0.356
			c0.42,0,0.822-0.139,1.204-0.415c0.282-0.21,0.468-0.468,0.556-0.771c0.061-0.199,0.091-0.579,0.091-1.138V121.42z"/>
		<path fill="#FFFFFF" d="M332.731,125.654h-2.333v-4.499c0-0.952-0.05-1.567-0.149-1.847s-0.262-0.497-0.485-0.652
			c-0.225-0.154-0.494-0.232-0.81-0.232c-0.404,0-0.767,0.111-1.087,0.332c-0.321,0.222-0.541,0.516-0.66,0.881
			c-0.119,0.365-0.179,1.04-0.179,2.025v3.992h-2.333v-8.815h2.167v1.295c0.769-0.996,1.738-1.494,2.905-1.494
			c0.515,0,0.985,0.093,1.411,0.278c0.427,0.186,0.749,0.422,0.967,0.709c0.219,0.288,0.371,0.615,0.457,0.98
			s0.129,0.888,0.129,1.568V125.654z"/>
		<path fill="#FFFFFF" d="M343.182,125.654h-2.166v-1.295c-0.36,0.504-0.784,0.879-1.274,1.125
			c-0.489,0.246-0.983,0.369-1.481,0.369c-1.013,0-1.88-0.408-2.603-1.225c-0.722-0.816-1.083-1.955-1.083-3.416
			c0-1.494,0.352-2.63,1.054-3.407c0.703-0.777,1.591-1.166,2.665-1.166c0.984,0,1.837,0.409,2.557,1.229v-4.383h2.332V125.654z
			 M336.956,121.055c0,0.94,0.13,1.621,0.391,2.042c0.376,0.608,0.901,0.913,1.577,0.913c0.536,0,0.993-0.229,1.369-0.685
			c0.377-0.457,0.564-1.139,0.564-2.047c0-1.012-0.183-1.741-0.548-2.187s-0.833-0.669-1.402-0.669c-0.554,0-1.017,0.221-1.391,0.66
			C337.144,119.524,336.956,120.181,336.956,121.055z"/>
	</g>
	<g clip-path="url(#SVGID_2_)">
		<path fill="#FFFFFF" d="M286.305,139.695l2.391-0.232c0.144,0.802,0.436,1.392,0.876,1.768c0.439,0.376,1.033,0.564,1.78,0.564
			c0.792,0,1.388-0.167,1.789-0.502c0.401-0.335,0.602-0.727,0.602-1.175c0-0.288-0.084-0.532-0.253-0.734
			c-0.169-0.202-0.464-0.378-0.884-0.527c-0.288-0.1-0.943-0.276-1.967-0.531c-1.317-0.326-2.241-0.728-2.772-1.204
			c-0.747-0.669-1.121-1.485-1.121-2.448c0-0.62,0.176-1.199,0.527-1.739c0.352-0.539,0.858-0.95,1.52-1.232
			c0.661-0.282,1.459-0.424,2.395-0.424c1.527,0,2.677,0.335,3.449,1.005c0.771,0.67,1.177,1.563,1.216,2.681l-2.457,0.108
			c-0.105-0.625-0.331-1.075-0.677-1.349c-0.346-0.274-0.864-0.411-1.556-0.411c-0.714,0-1.273,0.146-1.677,0.44
			c-0.26,0.188-0.39,0.439-0.39,0.755c0,0.288,0.122,0.534,0.365,0.739c0.31,0.26,1.062,0.531,2.258,0.812
			c1.195,0.283,2.079,0.574,2.652,0.876c0.572,0.302,1.021,0.714,1.345,1.237c0.323,0.522,0.485,1.169,0.485,1.938
			c0,0.697-0.194,1.351-0.581,1.959c-0.387,0.609-0.935,1.062-1.644,1.357s-1.591,0.444-2.648,0.444
			c-1.539,0-2.72-0.355-3.544-1.066S286.466,141.057,286.305,139.695z"/>
		<path fill="#FFFFFF" d="M302.292,134.839v1.859h-1.594v3.553c0,0.72,0.015,1.139,0.046,1.258c0.03,0.119,0.1,0.217,0.207,0.294
			c0.108,0.078,0.24,0.117,0.395,0.117c0.216,0,0.528-0.075,0.938-0.225l0.199,1.81c-0.542,0.232-1.157,0.349-1.843,0.349
			c-0.42,0-0.8-0.07-1.137-0.212c-0.337-0.141-0.585-0.323-0.743-0.548c-0.157-0.224-0.267-0.527-0.328-0.908
			c-0.05-0.271-0.075-0.819-0.075-1.645v-3.843h-1.071v-1.859h1.071v-1.751l2.341-1.361v3.112H302.292z"/>
		<path fill="#FFFFFF" d="M306.144,143.654h-2.333v-8.815h2.167v1.253c0.371-0.592,0.704-0.981,1-1.17
			c0.296-0.188,0.632-0.282,1.009-0.282c0.531,0,1.043,0.146,1.536,0.44l-0.722,2.033c-0.393-0.255-0.758-0.382-1.096-0.382
			c-0.327,0-0.603,0.09-0.83,0.27s-0.405,0.505-0.535,0.976c-0.13,0.471-0.195,1.455-0.195,2.955V143.654z"/>
		<path fill="#FFFFFF" d="M312.27,137.528l-2.117-0.382c0.238-0.853,0.647-1.483,1.229-1.893s1.444-0.614,2.59-0.614
			c1.041,0,1.815,0.123,2.324,0.369s0.867,0.56,1.075,0.938c0.207,0.379,0.311,1.074,0.311,2.088l-0.025,2.723
			c0,0.774,0.037,1.346,0.112,1.714c0.074,0.368,0.214,0.762,0.419,1.183h-2.308c-0.061-0.155-0.136-0.385-0.224-0.689
			c-0.039-0.138-0.066-0.229-0.083-0.273c-0.398,0.388-0.825,0.678-1.278,0.871c-0.454,0.194-0.938,0.291-1.453,0.291
			c-0.908,0-1.623-0.246-2.146-0.738c-0.523-0.493-0.785-1.115-0.785-1.868c0-0.498,0.119-0.942,0.357-1.332
			c0.238-0.391,0.571-0.689,1-0.896c0.429-0.208,1.047-0.389,1.855-0.544c1.09-0.205,1.846-0.396,2.266-0.572v-0.232
			c0-0.449-0.111-0.769-0.332-0.959c-0.221-0.191-0.639-0.287-1.253-0.287c-0.415,0-0.739,0.082-0.971,0.245
			S312.414,137.119,312.27,137.528z M315.391,139.421c-0.299,0.1-0.772,0.219-1.419,0.356c-0.647,0.139-1.071,0.274-1.27,0.407
			c-0.304,0.216-0.457,0.489-0.457,0.821c0,0.327,0.122,0.609,0.365,0.848c0.244,0.237,0.553,0.356,0.93,0.356
			c0.42,0,0.822-0.139,1.204-0.415c0.282-0.21,0.468-0.468,0.556-0.771c0.061-0.199,0.091-0.579,0.091-1.138V139.421z"/>
		<path fill="#FFFFFF" d="M324.024,134.839v1.859h-1.594v3.553c0,0.72,0.015,1.139,0.046,1.258c0.03,0.119,0.1,0.217,0.207,0.294
			c0.108,0.078,0.24,0.117,0.395,0.117c0.216,0,0.528-0.075,0.938-0.225l0.199,1.81c-0.542,0.232-1.157,0.349-1.843,0.349
			c-0.42,0-0.8-0.07-1.137-0.212c-0.337-0.141-0.585-0.323-0.743-0.548c-0.157-0.224-0.267-0.527-0.328-0.908
			c-0.05-0.271-0.075-0.819-0.075-1.645v-3.843h-1.071v-1.859h1.071v-1.751l2.341-1.361v3.112H324.024z"/>
		<path fill="#FFFFFF" d="M330.748,140.849l2.324,0.39c-0.299,0.853-0.771,1.502-1.415,1.947s-1.451,0.668-2.419,0.668
			c-1.533,0-2.667-0.501-3.403-1.502c-0.581-0.803-0.872-1.815-0.872-3.039c0-1.461,0.382-2.604,1.146-3.432
			s1.729-1.241,2.897-1.241c1.312,0,2.346,0.433,3.104,1.299c0.759,0.866,1.121,2.193,1.088,3.98h-5.844
			c0.017,0.691,0.205,1.229,0.564,1.614s0.808,0.577,1.345,0.577c0.365,0,0.672-0.1,0.921-0.299S330.62,141.291,330.748,140.849z
			 M330.88,138.491c-0.017-0.675-0.191-1.188-0.523-1.54s-0.736-0.527-1.212-0.527c-0.509,0-0.93,0.186-1.262,0.557
			s-0.495,0.874-0.49,1.511H330.88z"/>
		<path fill="#FFFFFF" d="M334.881,144.235l2.665,0.323c0.044,0.311,0.146,0.523,0.307,0.64c0.222,0.166,0.57,0.249,1.046,0.249
			c0.609,0,1.065-0.092,1.37-0.273c0.204-0.122,0.359-0.318,0.465-0.59c0.071-0.193,0.107-0.551,0.107-1.07v-1.287
			c-0.697,0.952-1.577,1.428-2.64,1.428c-1.184,0-2.122-0.501-2.813-1.502c-0.543-0.792-0.813-1.777-0.813-2.955
			c0-1.479,0.355-2.607,1.066-3.387c0.711-0.781,1.595-1.171,2.652-1.171c1.09,0,1.989,0.479,2.697,1.437v-1.237h2.184v7.911
			c0,1.04-0.086,1.817-0.258,2.332c-0.171,0.515-0.412,0.919-0.722,1.212c-0.311,0.293-0.724,0.522-1.241,0.688
			s-1.172,0.25-1.963,0.25c-1.494,0-2.554-0.257-3.18-0.769c-0.625-0.512-0.938-1.16-0.938-1.946
			C334.873,144.44,334.876,144.346,334.881,144.235z M336.965,139.064c0,0.935,0.181,1.619,0.544,2.054
			c0.362,0.435,0.809,0.651,1.34,0.651c0.57,0,1.052-0.223,1.444-0.668c0.394-0.445,0.59-1.105,0.59-1.979
			c0-0.913-0.188-1.591-0.564-2.034c-0.377-0.442-0.853-0.664-1.428-0.664c-0.56,0-1.02,0.218-1.382,0.652
			C337.146,137.511,336.965,138.173,336.965,139.064z"/>
		<path fill="#FFFFFF" d="M344.377,134.839h2.482l2.108,6.259l2.059-6.259h2.415l-3.112,8.483l-0.557,1.535
			c-0.204,0.516-0.399,0.908-0.585,1.18c-0.186,0.271-0.398,0.49-0.64,0.659c-0.24,0.169-0.536,0.301-0.888,0.395
			s-0.748,0.142-1.191,0.142c-0.448,0-0.888-0.048-1.319-0.142l-0.208-1.826c0.365,0.072,0.694,0.108,0.988,0.108
			c0.542,0,0.943-0.159,1.203-0.478c0.261-0.318,0.46-0.724,0.598-1.216L344.377,134.839z"/>
	</g>
	<polygon clip-path="url(#SVGID_2_)" fill-rule="evenodd" clip-rule="evenodd" fill="#59BAD1" points="362.866,98.752 
		510.415,98.752 540.547,128.884 510.415,159.016 362.866,159.016 392.998,128.884 	"/>
	<polygon clip-path="url(#SVGID_2_)" fill="none" stroke="#FFFFFF" stroke-width="2" stroke-miterlimit="8" points="362.866,98.752 
		510.415,98.752 540.547,128.884 510.415,159.016 362.866,159.016 392.998,128.884 	"/>
	<g clip-path="url(#SVGID_2_)">
		<path fill="#FFFFFF" d="M410.092,134.834v-12.169h9.023v2.059h-6.566v2.698h6.109v2.05h-6.109v3.312h6.799v2.051H410.092z"/>
		<path fill="#FFFFFF" d="M429.101,128.625l-2.299,0.415c-0.078-0.459-0.253-0.806-0.527-1.038c-0.273-0.232-0.63-0.348-1.066-0.348
			c-0.581,0-1.045,0.2-1.391,0.602s-0.519,1.072-0.519,2.013c0,1.046,0.176,1.784,0.527,2.216c0.351,0.432,0.822,0.648,1.415,0.648
			c0.442,0,0.805-0.126,1.087-0.378s0.481-0.685,0.598-1.3l2.291,0.391c-0.237,1.052-0.694,1.846-1.369,2.383
			c-0.676,0.536-1.58,0.805-2.715,0.805c-1.289,0-2.317-0.406-3.083-1.221c-0.767-0.812-1.15-1.939-1.15-3.378
			c0-1.455,0.385-2.589,1.154-3.399c0.769-0.811,1.81-1.216,3.121-1.216c1.073,0,1.927,0.231,2.561,0.693
			S428.824,127.679,429.101,128.625z"/>
		<path fill="#FFFFFF" d="M430.329,130.302c0-0.774,0.191-1.524,0.573-2.249c0.382-0.726,0.923-1.279,1.622-1.66
			c0.7-0.383,1.482-0.573,2.346-0.573c1.333,0,2.427,0.433,3.278,1.299c0.853,0.866,1.278,1.961,1.278,3.283
			c0,1.334-0.43,2.439-1.291,3.316c-0.86,0.877-1.943,1.315-3.249,1.315c-0.809,0-1.579-0.183-2.312-0.548
			c-0.732-0.365-1.29-0.9-1.672-1.606C430.521,132.174,430.329,131.314,430.329,130.302z M432.72,130.426
			c0,0.875,0.208,1.545,0.623,2.01s0.927,0.697,1.535,0.697c0.609,0,1.119-0.232,1.531-0.697c0.413-0.465,0.619-1.141,0.619-2.025
			c0-0.863-0.206-1.527-0.619-1.992c-0.412-0.465-0.922-0.697-1.531-0.697c-0.608,0-1.12,0.232-1.535,0.697
			S432.72,129.552,432.72,130.426z"/>
		<path fill="#FFFFFF" d="M440.432,132.318l2.341-0.356c0.1,0.454,0.302,0.798,0.605,1.033c0.305,0.235,0.73,0.353,1.278,0.353
			c0.604,0,1.058-0.11,1.361-0.332c0.205-0.154,0.308-0.362,0.308-0.622c0-0.177-0.056-0.323-0.166-0.44
			c-0.116-0.11-0.377-0.213-0.78-0.307c-1.882-0.415-3.074-0.794-3.578-1.137c-0.697-0.477-1.046-1.138-1.046-1.984
			c0-0.764,0.302-1.405,0.905-1.926c0.603-0.521,1.538-0.78,2.806-0.78c1.206,0,2.103,0.196,2.689,0.589
			c0.586,0.394,0.99,0.975,1.212,1.744l-2.2,0.406c-0.094-0.343-0.272-0.605-0.535-0.789c-0.263-0.182-0.638-0.273-1.125-0.273
			c-0.614,0-1.054,0.086-1.319,0.258c-0.178,0.121-0.266,0.279-0.266,0.473c0,0.166,0.077,0.307,0.232,0.424
			c0.21,0.154,0.937,0.373,2.179,0.655s2.109,0.628,2.603,1.038c0.486,0.414,0.73,0.993,0.73,1.734c0,0.808-0.338,1.502-1.013,2.084
			c-0.676,0.58-1.674,0.871-2.997,0.871c-1.2,0-2.151-0.243-2.851-0.73C441.105,133.815,440.647,133.154,440.432,132.318z"/>
		<path fill="#FFFFFF" d="M449.604,126.019h2.482l2.108,6.259l2.059-6.259h2.415l-3.112,8.483l-0.557,1.535
			c-0.204,0.516-0.399,0.908-0.585,1.18c-0.186,0.271-0.398,0.49-0.64,0.659c-0.24,0.169-0.536,0.301-0.888,0.395
			s-0.748,0.142-1.191,0.142c-0.448,0-0.888-0.048-1.319-0.142l-0.208-1.826c0.365,0.072,0.694,0.108,0.988,0.108
			c0.542,0,0.943-0.159,1.203-0.478c0.261-0.318,0.46-0.724,0.598-1.216L449.604,126.019z"/>
		<path fill="#FFFFFF" d="M459.341,132.318l2.341-0.356c0.1,0.454,0.302,0.798,0.605,1.033c0.305,0.235,0.73,0.353,1.278,0.353
			c0.604,0,1.058-0.11,1.361-0.332c0.205-0.154,0.308-0.362,0.308-0.622c0-0.177-0.056-0.323-0.166-0.44
			c-0.116-0.11-0.377-0.213-0.78-0.307c-1.882-0.415-3.074-0.794-3.578-1.137c-0.697-0.477-1.046-1.138-1.046-1.984
			c0-0.764,0.302-1.405,0.905-1.926c0.603-0.521,1.538-0.78,2.806-0.78c1.206,0,2.103,0.196,2.689,0.589
			c0.586,0.394,0.99,0.975,1.212,1.744l-2.2,0.406c-0.094-0.343-0.272-0.605-0.535-0.789c-0.263-0.182-0.638-0.273-1.125-0.273
			c-0.614,0-1.054,0.086-1.319,0.258c-0.178,0.121-0.266,0.279-0.266,0.473c0,0.166,0.077,0.307,0.232,0.424
			c0.21,0.154,0.937,0.373,2.179,0.655s2.109,0.628,2.603,1.038c0.486,0.414,0.73,0.993,0.73,1.734c0,0.808-0.338,1.502-1.013,2.084
			c-0.676,0.58-1.674,0.871-2.997,0.871c-1.2,0-2.151-0.243-2.851-0.73C460.015,133.815,459.557,133.154,459.341,132.318z"/>
		<path fill="#FFFFFF" d="M473.659,126.019v1.859h-1.594v3.553c0,0.72,0.016,1.139,0.046,1.258s0.1,0.217,0.207,0.294
			c0.108,0.078,0.24,0.117,0.395,0.117c0.216,0,0.528-0.075,0.938-0.225l0.199,1.81c-0.543,0.232-1.157,0.349-1.843,0.349
			c-0.421,0-0.8-0.07-1.138-0.212c-0.337-0.141-0.585-0.323-0.743-0.548c-0.157-0.224-0.267-0.527-0.327-0.908
			c-0.05-0.271-0.075-0.819-0.075-1.645v-3.843h-1.07v-1.859h1.07v-1.751l2.341-1.361v3.112H473.659z"/>
		<path fill="#FFFFFF" d="M480.383,132.028l2.324,0.39c-0.299,0.853-0.771,1.502-1.415,1.947s-1.451,0.668-2.42,0.668
			c-1.532,0-2.667-0.501-3.403-1.502c-0.581-0.803-0.871-1.815-0.871-3.039c0-1.461,0.382-2.604,1.146-3.432
			s1.729-1.241,2.896-1.241c1.312,0,2.347,0.433,3.104,1.299c0.759,0.866,1.121,2.193,1.088,3.98h-5.844
			c0.017,0.691,0.204,1.229,0.564,1.614c0.359,0.385,0.808,0.577,1.345,0.577c0.365,0,0.672-0.1,0.921-0.299
			S480.256,132.471,480.383,132.028z M480.516,129.671c-0.017-0.675-0.19-1.188-0.522-1.54s-0.736-0.527-1.212-0.527
			c-0.51,0-0.93,0.186-1.262,0.557s-0.495,0.874-0.49,1.511H480.516z"/>
		<path fill="#FFFFFF" d="M484.559,126.019h2.149v1.204c0.77-0.936,1.686-1.403,2.748-1.403c0.564,0,1.054,0.116,1.469,0.349
			s0.756,0.584,1.021,1.055c0.387-0.471,0.805-0.822,1.253-1.055s0.927-0.349,1.437-0.349c0.647,0,1.195,0.132,1.644,0.395
			s0.783,0.648,1.004,1.157c0.161,0.377,0.241,0.985,0.241,1.826v5.637h-2.333v-5.039c0-0.874-0.08-1.438-0.24-1.693
			c-0.216-0.332-0.548-0.498-0.996-0.498c-0.327,0-0.634,0.1-0.922,0.299c-0.287,0.199-0.495,0.491-0.622,0.876
			c-0.128,0.385-0.191,0.992-0.191,1.822v4.233h-2.332v-4.831c0-0.857-0.042-1.411-0.125-1.66s-0.211-0.435-0.386-0.556
			c-0.174-0.122-0.411-0.184-0.71-0.184c-0.359,0-0.684,0.098-0.971,0.291c-0.288,0.193-0.494,0.473-0.618,0.838
			c-0.125,0.365-0.188,0.972-0.188,1.818v4.283h-2.332V126.019z"/>
	</g>
	<polygon clip-path="url(#SVGID_2_)" fill-rule="evenodd" clip-rule="evenodd" fill="#FAA757" points="510.415,98.752 
		630.943,98.752 661.075,128.884 630.943,159.016 510.415,159.016 540.547,128.884 	"/>
	<polygon clip-path="url(#SVGID_2_)" fill="none" stroke="#FFFFFF" stroke-width="2" stroke-miterlimit="8" points="510.415,98.752 
		630.943,98.752 661.075,128.884 630.943,159.016 510.415,159.016 540.547,128.884 	"/>
	<g clip-path="url(#SVGID_2_)">
		<path fill="#FFFFFF" d="M568.821,134.834h-2.673l-1.062-2.764h-4.864l-1.005,2.764h-2.606l4.74-12.169h2.598L568.821,134.834z
			 M564.297,130.02l-1.677-4.516l-1.644,4.516H564.297z"/>
		<path fill="#FFFFFF" d="M577.794,128.625l-2.299,0.415c-0.078-0.459-0.253-0.806-0.527-1.038c-0.273-0.232-0.63-0.348-1.066-0.348
			c-0.581,0-1.045,0.2-1.391,0.602s-0.519,1.072-0.519,2.013c0,1.046,0.176,1.784,0.527,2.216c0.351,0.432,0.822,0.648,1.415,0.648
			c0.442,0,0.805-0.126,1.087-0.378s0.481-0.685,0.598-1.3l2.291,0.391c-0.237,1.052-0.694,1.846-1.369,2.383
			c-0.676,0.536-1.58,0.805-2.715,0.805c-1.289,0-2.317-0.406-3.083-1.221c-0.767-0.812-1.15-1.939-1.15-3.378
			c0-1.455,0.385-2.589,1.154-3.399c0.769-0.811,1.81-1.216,3.121-1.216c1.073,0,1.927,0.231,2.561,0.693
			S577.518,127.679,577.794,128.625z"/>
		<path fill="#FFFFFF" d="M583.604,126.019v1.859h-1.594v3.553c0,0.72,0.016,1.139,0.046,1.258s0.1,0.217,0.207,0.294
			c0.108,0.078,0.24,0.117,0.395,0.117c0.216,0,0.528-0.075,0.938-0.225l0.199,1.81c-0.543,0.232-1.157,0.349-1.843,0.349
			c-0.421,0-0.8-0.07-1.138-0.212c-0.337-0.141-0.585-0.323-0.743-0.548c-0.157-0.224-0.267-0.527-0.327-0.908
			c-0.05-0.271-0.075-0.819-0.075-1.645v-3.843h-1.07v-1.859h1.07v-1.751l2.341-1.361v3.112H583.604z"/>
		<path fill="#FFFFFF" d="M585.224,124.823v-2.158h2.332v2.158H585.224z M585.224,134.834v-8.815h2.332v8.815H585.224z"/>
		<path fill="#FFFFFF" d="M589.407,130.302c0-0.774,0.19-1.524,0.572-2.249c0.382-0.726,0.923-1.279,1.623-1.66
			c0.7-0.383,1.481-0.573,2.345-0.573c1.334,0,2.427,0.433,3.279,1.299c0.852,0.866,1.278,1.961,1.278,3.283
			c0,1.334-0.431,2.439-1.291,3.316s-1.943,1.315-3.25,1.315c-0.808,0-1.578-0.183-2.312-0.548s-1.291-0.9-1.673-1.606
			C589.598,132.174,589.407,131.314,589.407,130.302z M591.798,130.426c0,0.875,0.207,1.545,0.622,2.01s0.927,0.697,1.536,0.697
			c0.608,0,1.119-0.232,1.531-0.697s0.618-1.141,0.618-2.025c0-0.863-0.206-1.527-0.618-1.992s-0.923-0.697-1.531-0.697
			c-0.609,0-1.121,0.232-1.536,0.697S591.798,129.552,591.798,130.426z"/>
		<path fill="#FFFFFF" d="M608.35,134.834h-2.333v-4.499c0-0.952-0.05-1.567-0.149-1.847s-0.262-0.497-0.485-0.652
			c-0.225-0.154-0.494-0.232-0.81-0.232c-0.403,0-0.767,0.111-1.087,0.332c-0.321,0.222-0.541,0.516-0.66,0.881
			s-0.179,1.04-0.179,2.025v3.992h-2.332v-8.815h2.166v1.295c0.77-0.996,1.738-1.494,2.905-1.494c0.515,0,0.985,0.093,1.411,0.278
			c0.427,0.186,0.749,0.422,0.967,0.709c0.219,0.288,0.371,0.615,0.457,0.98s0.129,0.888,0.129,1.568V134.834z"/>
		<path fill="#FFFFFF" d="M609.894,132.318l2.341-0.356c0.1,0.454,0.302,0.798,0.605,1.033c0.305,0.235,0.73,0.353,1.278,0.353
			c0.604,0,1.058-0.11,1.361-0.332c0.205-0.154,0.308-0.362,0.308-0.622c0-0.177-0.056-0.323-0.166-0.44
			c-0.116-0.11-0.377-0.213-0.78-0.307c-1.882-0.415-3.074-0.794-3.578-1.137c-0.697-0.477-1.046-1.138-1.046-1.984
			c0-0.764,0.302-1.405,0.905-1.926c0.603-0.521,1.538-0.78,2.806-0.78c1.206,0,2.103,0.196,2.689,0.589
			c0.586,0.394,0.99,0.975,1.212,1.744l-2.2,0.406c-0.094-0.343-0.272-0.605-0.535-0.789c-0.263-0.182-0.638-0.273-1.125-0.273
			c-0.614,0-1.054,0.086-1.319,0.258c-0.178,0.121-0.266,0.279-0.266,0.473c0,0.166,0.077,0.307,0.232,0.424
			c0.21,0.154,0.937,0.373,2.179,0.655s2.109,0.628,2.603,1.038c0.486,0.414,0.73,0.993,0.73,1.734c0,0.808-0.338,1.502-1.013,2.084
			c-0.676,0.58-1.674,0.871-2.997,0.871c-1.2,0-2.151-0.243-2.851-0.73C610.567,133.815,610.109,133.154,609.894,132.318z"/>
	</g>
</g>
</svg>
