<?xml version="1.0" encoding="UTF-8"?>
<!-- Generator: Adobe Illustrator 15.0.2, SVG Export Plug-In . SVG Version: 6.00 Build 0)  -->
<!DOCTYPE svg PUBLIC "-//W3C//DTD SVG 1.1//EN" "http://www.w3.org/Graphics/SVG/1.1/DTD/svg11.dtd">
<svg xmlns="http://www.w3.org/2000/svg" xmlns:xlink="http://www.w3.org/1999/xlink" version="1.1" id="Layer_1" x="0px" y="0px" viewBox="0 0 1024 1024" enable-background="new 0 0 1024 1024" xml:space="preserve">
<g>
	<path d="M734.6,98.4V74.8H616.2C605.6,32,567.2,0,521,0s-84.4,32-95.2,74.8H307.4v23.6H160.6V1024h720.8V98.4H734.6z M521,47.6   c19.2,0,35.6,11.2,44.2,27.2H476.6C485.2,58.8,501.4,47.6,521,47.6z M802,948H240V174.4h67.4v46.8H734.6v-46.8H802V948z" fill="#000000"/>
	<polygon points="395.8,593.8 501.8,487.8 607.8,593.8 666.8,534.8 560.8,428.8 666.8,322.8 607.8,263.8 501.8,369.8 395.8,263.8    336.6,322.8 442.6,428.8 336.6,534.8  "/>
	<polygon points="477.4,757 407.4,680.6 330,758.2 475.8,904.2 722.2,657.8 666,600.4  "/>
</g>
</svg>
