<?xml version="1.0" encoding="utf-8"?>
<!-- Generator: Adobe Illustrator 17.1.0, SVG Export Plug-In . SVG Version: 6.00 Build 0)  -->
<!DOCTYPE svg PUBLIC "-//W3C//DTD SVG 1.1//EN" "http://www.w3.org/Graphics/SVG/1.1/DTD/svg11.dtd">
<svg version="1.1" id="Layer_1" xmlns="http://www.w3.org/2000/svg" xmlns:xlink="http://www.w3.org/1999/xlink" x="0px" y="0px"
	 viewBox="0 0 15 14.999" enable-background="new 0 0 15 14.999" xml:space="preserve">
<g id="New_Symbol_83">
	<g>
		<g>
			<path d="M14.164,6.04h-2.089c-0.125-0.4-0.299-0.779-0.512-1.13l1.386-1.39c0.327-0.323,0.327-0.852,0-1.178l-0.588-0.587
				c-0.326-0.325-0.853-0.323-1.178,0l-1.41,1.408C9.392,2.946,8.979,2.778,8.54,2.665V0.834C8.54,0.375,8.169,0,7.707,0H6.874
				C6.415,0,6.042,0.375,6.042,0.834v1.831c-0.479,0.121-0.928,0.312-1.34,0.562L3.523,2.048c-0.325-0.323-0.854-0.325-1.179,0
				L1.753,2.637c-0.325,0.324-0.321,0.854,0.003,1.18l1.201,1.201C2.702,5.461,2.512,5.945,2.403,6.458H0.834
				C0.373,6.458,0,6.83,0,7.291v0.833c0,0.459,0.373,0.832,0.835,0.832H2.51c0.151,0.502,0.381,0.966,0.674,1.387l-1.133,1.133
				c-0.326,0.327-0.326,0.855-0.002,1.18l0.588,0.588c0.327,0.323,0.856,0.323,1.18-0.001l1.266-1.265
				c0.427,0.212,0.889,0.365,1.376,0.444v1.742c0,0.46,0.373,0.833,0.833,0.835h0.833c0.459-0.002,0.833-0.375,0.833-0.835v-1.957
				c0.42-0.149,0.818-0.347,1.178-0.6l1.341,1.342c0.326,0.325,0.852,0.325,1.179,0l0.588-0.589
				c0.327-0.325,0.327-0.852-0.002-1.179l-1.47-1.473c0.181-0.366,0.321-0.756,0.408-1.168h1.984c0.462,0,0.834-0.371,0.835-0.834
				V6.874C14.998,6.415,14.626,6.04,14.164,6.04z M7.292,9.582c-1.15,0-2.082-0.93-2.082-2.083c0-1.151,0.933-2.081,2.082-2.081
				c1.151,0,2.084,0.93,2.084,2.081C9.376,8.652,8.444,9.582,7.292,9.582z"/>
		</g>
	</g>
</g>
<g>
</g>
<g>
</g>
<g>
</g>
<g>
</g>
<g>
</g>
<g>
</g>
<g>
</g>
</svg>
