<?xml version="1.0" encoding="utf-8"?>
<!-- Generator: Adobe Illustrator 17.1.0, SVG Export Plug-In . SVG Version: 6.00 Build 0)  -->
<!DOCTYPE svg PUBLIC "-//W3C//DTD SVG 1.1//EN" "http://www.w3.org/Graphics/SVG/1.1/DTD/svg11.dtd">
<svg version="1.1" id="Layer_1" xmlns="http://www.w3.org/2000/svg" xmlns:xlink="http://www.w3.org/1999/xlink" x="0px" y="0px"
	 viewBox="0 0 124.75 151.046" enable-background="new 0 0 124.75 151.046" xml:space="preserve">
<polygon fill="#FFFFFF" points="124.75,151.046 61.875,151.046 0,151.046 0,76.023 0,0 61.875,0 87.36,0 124.75,37.084 "/>
<g>
	<defs>
		<polyline id="SVGID_1_" points="119.033,43.546 119.033,145.528 6.75,145.546 5.25,85.046 6.742,6.418 30.042,5.046 50.628,4.755 
			72.344,4.546 82.424,6.536 86.705,10.947 90.987,15.358 95.268,19.769 99.549,24.18 103.83,28.591 108.112,33.002 112.393,37.413 
			116.674,41.824 		"/>
	</defs>
	<clipPath id="SVGID_2_">
		<use xlink:href="#SVGID_1_"  overflow="visible"/>
	</clipPath>
	<path clip-path="url(#SVGID_2_)" fill="#FFFFFF" stroke="#5865AE" stroke-width="12" stroke-miterlimit="10" d="M113.576,127.866
		c0,6.627-5.373,12-12,12H23.25c-6.627,0-12-5.373-12-12V22.796c0-6.627,5.373-12,12-12h78.326c6.627,0,12,5.373,12,12V127.866z"/>
	<path clip-path="url(#SVGID_2_)" fill="none" stroke="#5865AE" stroke-width="12" stroke-miterlimit="10" d="M111.125,40.764
		c0,2.816-0.376,7.114-0.376,7.114l-30.7,0.793c-2.394,0-4.334-2.283-4.334-5.099l0.34-30.026c0-2.816-0.859-2.75,1.535-2.75
		l22.866,6.432c2.394,0,4.334,2.283,4.334,5.099L111.125,40.764z"/>
</g>
<line fill="none" stroke="#5865AE" stroke-width="12" stroke-linecap="round" stroke-miterlimit="10" x1="82.395" y1="13.63" x2="110.375" y2="42.546"/>
<path fill="#ED1C24" d="M67.737,96.102c-2.544,3.433-7.371,4.147-10.8,1.616c-3.424-2.528-4.139-7.35-1.609-10.788
	c2.527-3.419,7.341-4.136,10.776-1.612C69.524,87.853,70.253,92.681,67.737,96.102"/>
<path fill="none" stroke="#F47D20" stroke-width="8" d="M75.605,101.927c-5.721,7.777-16.727,9.435-24.501,3.685
	c-7.793-5.745-9.409-16.729-3.67-24.511c5.758-7.784,16.731-9.434,24.5-3.684C79.706,83.167,81.364,94.144,75.605,101.927z"/>
<path fill="none" stroke="#E93A25" stroke-width="8" d="M85.753,109.419c-9.889,13.4-28.761,16.228-42.147,6.34
	c-13.39-9.881-16.229-28.779-6.332-42.159c9.903-13.385,28.78-16.213,42.16-6.334C92.834,77.168,95.659,96.043,85.753,109.419z"/>
<g>
</g>
<g>
</g>
<g>
</g>
<g>
</g>
<g>
</g>
<g>
</g>
</svg>
