<?xml version="1.0" encoding="utf-8"?>
<!-- Generator: Adobe Illustrator 17.1.0, SVG Export Plug-In . SVG Version: 6.00 Build 0)  -->
<!DOCTYPE svg PUBLIC "-//W3C//DTD SVG 1.1//EN" "http://www.w3.org/Graphics/SVG/1.1/DTD/svg11.dtd">
<svg version="1.1" id="Layer_1" xmlns="http://www.w3.org/2000/svg" xmlns:xlink="http://www.w3.org/1999/xlink" x="0px" y="0px"
	 viewBox="0 0 15.386 15.385" enable-background="new 0 0 15.386 15.385" xml:space="preserve">
<g id="New_Symbol_211">
	<g>
		<path fill="white" d="M8.743,9.102c0,0.25-0.042,0.292-0.292,0.292H7.434c-0.25,0-0.292-0.041-0.292-0.292V7.36c0-0.334,0.501-0.39,0.989-0.557
			C8.632,6.622,9.12,6.343,9.12,5.591c0-0.641-0.404-0.989-1.157-0.989c-0.863,0-1.602,0.46-1.741,0.46
			c-0.07,0-0.139-0.069-0.153-0.139L5.706,3.975C5.679,3.919,5.679,3.878,5.679,3.821C5.679,3.459,7.337,3,8.27,3
			C9.955,3,11,4.086,11,5.605c0,1.797-1.435,2.271-2.257,2.55V9.102z M7.991,13.017c-0.669,0-1.184-0.544-1.184-1.17
			c0-0.669,0.516-1.184,1.184-1.184c0.655,0,1.17,0.529,1.17,1.184C9.161,12.473,8.632,13.017,7.991,13.017z"/>
	</g>
	<g>
		<path fill="white" d="M7.693,0C3.445,0,0,3.443,0,7.692c0,4.249,3.444,7.693,7.693,7.693s7.693-3.444,7.693-7.693
			C15.386,3.443,11.942,0,7.693,0z M7.693,14.261c-3.622,0-6.568-2.946-6.568-6.567s2.947-6.568,6.568-6.568
			s6.568,2.946,6.568,6.568S11.315,14.261,7.693,14.261z"/>
	</g>
</g>
</svg>
