<?xml version="1.0" encoding="utf-8"?>
<!-- Generator: Adobe Illustrator 17.1.0, SVG Export Plug-In . SVG Version: 6.00 Build 0)  -->
<!DOCTYPE svg PUBLIC "-//W3C//DTD SVG 1.1//EN" "http://www.w3.org/Graphics/SVG/1.1/DTD/svg11.dtd">
<svg version="1.1" id="Layer_1" xmlns="http://www.w3.org/2000/svg" xmlns:xlink="http://www.w3.org/1999/xlink" x="0px" y="0px"
	 viewBox="0 0 15.386 15.385" enable-background="new 0 0 15.386 15.385" xml:space="preserve">
<g id="New_Symbol_213">
	<g>
		<path d="M9.707,11.219c0,0.131-0.024,0.167-0.166,0.167h-3.02c-0.142,0-0.166-0.035-0.166-0.167v-0.77
			c0-0.13,0.024-0.166,0.166-0.166h0.758V6.636H6.51c-0.142,0-0.166-0.035-0.166-0.165v-0.77c0-0.129,0.024-0.166,0.166-0.166h2.107
			c0.142,0,0.166,0.036,0.166,0.166v4.582h0.758c0.142,0,0.166,0.036,0.166,0.166V11.219z M8.025,4.766
			c-0.545,0-0.983-0.438-0.983-0.982c0-0.545,0.438-0.971,0.983-0.971c0.533,0,0.971,0.426,0.971,0.971
			C8.996,4.328,8.558,4.766,8.025,4.766z"/>
	</g>
	<g>
		<path d="M7.693,0C3.444,0,0,3.443,0,7.692c0,4.249,3.444,7.693,7.693,7.693s7.693-3.444,7.693-7.693
			C15.386,3.443,11.941,0,7.693,0z M7.693,14.261c-3.622,0-6.568-2.946-6.568-6.567s2.947-6.568,6.568-6.568
			s6.568,2.946,6.568,6.568S11.315,14.261,7.693,14.261z"/>
	</g>
</g>
<g>
</g>
<g>
</g>
<g>
</g>
<g>
</g>
<g>
</g>
<g>
</g>
<g>
</g>
<g>
</g>
</svg>
