<?xml version="1.0" encoding="utf-8"?>
<!-- Generator: Adobe Illustrator 17.1.0, SVG Export Plug-In . SVG Version: 6.00 Build 0)  -->
<!DOCTYPE svg PUBLIC "-//W3C//DTD SVG 1.1//EN" "http://www.w3.org/Graphics/SVG/1.1/DTD/svg11.dtd">
<svg version="1.1" id="Layer_1" xmlns="http://www.w3.org/2000/svg" xmlns:xlink="http://www.w3.org/1999/xlink" x="0px" y="0px"
	 viewBox="0 0 612 792" enable-background="new 0 0 612 792" xml:space="preserve">
<g id="New_Symbol_213">
	<g>
		<path fill="#FFFFFF" d="M386.11,536.272c0,5.211-0.955,6.643-6.603,6.643H259.382c-5.648,0-6.603-1.392-6.603-6.643v-30.628
			c0-5.171,0.955-6.603,6.603-6.603h30.151V353.976h-30.588c-5.648,0-6.603-1.392-6.603-6.563v-30.628
			c0-5.131,0.955-6.603,6.603-6.603h83.809c5.648,0,6.603,1.432,6.603,6.603v182.256h30.151c5.648,0,6.603,1.432,6.603,6.603
			L386.11,536.272L386.11,536.272z M319.206,279.594c-21.678,0-39.1-17.422-39.1-39.06c0-21.678,17.422-38.623,39.1-38.623
			c21.201,0,38.623,16.945,38.623,38.623C357.829,262.172,340.407,279.594,319.206,279.594z"/>
	</g>
	<g>
		<path fill="#FFFFFF" d="M306,90.02C136.99,90.02,0,226.97,0,395.98s136.99,306,306,306s306-136.99,306-306S474.97,90.02,306,90.02
			z M306,657.271c-144.07,0-261.252-117.181-261.252-261.212S161.97,134.808,306,134.808S567.252,251.989,567.252,396.06
			S450.07,657.271,306,657.271z"/>
	</g>
</g>
</svg>
