<?xml version="1.0" encoding="utf-8"?>
<!-- Generator: Adobe Illustrator 17.1.0, SVG Export Plug-In . SVG Version: 6.00 Build 0)  -->
<!DOCTYPE svg PUBLIC "-//W3C//DTD SVG 1.1//EN" "http://www.w3.org/Graphics/SVG/1.1/DTD/svg11.dtd">
<svg version="1.1" id="Layer_1" xmlns="http://www.w3.org/2000/svg" xmlns:xlink="http://www.w3.org/1999/xlink" x="0px" y="0px"
	 viewBox="0 0 15.083 14.987" enable-background="new 0 0 15.083 14.987" xml:space="preserve">
<g id="New_Symbol_85">
	<g id="New_Symbol">
		<polygon points="0,14.987 0.348,12.536 0.699,10.083 2.803,12.187 4.906,14.289 2.454,14.64 		"/>
		<polygon points="11.909,5.86 5.599,12.172 4.899,11.472 11.208,5.16 9.805,3.758 3.494,10.067 2.792,9.367 9.104,3.056 
			8.403,2.355 1.392,9.367 5.599,13.574 12.609,6.561 		"/>
		<path d="M14.813,4.475c0.371-0.369,0.358-0.987-0.028-1.374l-2.803-2.805C11.597-0.088,10.977-0.1,10.61,0.269
			c-0.03,0.03-0.044,0.069-0.069,0.102l-0.016-0.018L9.178,1.699l4.207,4.207L14.73,4.56l-0.018-0.018
			C14.746,4.516,14.784,4.505,14.813,4.475z"/>
	</g>
</g>
<g>
</g>
<g>
</g>
<g>
</g>
<g>
</g>
<g>
</g>
<g>
</g>
<g>
</g>
<g>
</g>
</svg>
