<?xml version="1.0" encoding="utf-8"?>
<!-- Generator: Adobe Illustrator 17.1.0, SVG Export Plug-In . SVG Version: 6.00 Build 0)  -->
<!DOCTYPE svg PUBLIC "-//W3C//DTD SVG 1.1//EN" "http://www.w3.org/Graphics/SVG/1.1/DTD/svg11.dtd">
<svg version="1.1" id="icons" xmlns="http://www.w3.org/2000/svg" xmlns:xlink="http://www.w3.org/1999/xlink" x="0px" y="0px"
	 viewBox="0 0 78.33 99.845" enable-background="new 0 0 78.33 99.845" xml:space="preserve">
<g>
	<path d="M78.33,10c0-5.5-4.5-10-10-10H10C4.5,0,0,4.5,0,10v79.845c0,5.5,4.5,10,10,10h38.987l0.009-0.01
		c0.457-0.009,1.008-0.295,1.603-0.89L77.424,72.12c0.594-0.594,0.879-1.145,0.889-1.601l0.017-0.018V10z M51.771,91.845V73.292
		H70.33v0.266L52.043,91.845H51.771z M8,89.845V10c0-1.084,0.916-2,2-2h58.33c1.084,0,2,0.916,2,2v59.292H51.771c-2.2,0-4,1.8-4,4
		v18.553H10C8.916,91.845,8,90.929,8,89.845z"/>
	<path d="M56.102,50.608c0.55,0,1-0.45,1-1v-4c0-0.55-0.45-1-1-1H21.975c-0.551,0-1,0.45-1,1v4c0,0.55,0.449,1,1,1H56.102z"/>
	<path d="M21.975,38.108h34.128c0.55,0,1-0.45,1-1v-4c0-0.55-0.45-1-1-1H21.975c-0.551,0-1,0.45-1,1v4
		C20.975,37.658,21.424,38.108,21.975,38.108z"/>
	<path d="M21.975,25.608h34.128c0.55,0,1-0.45,1-1v-4c0-0.55-0.45-1-1-1H21.975c-0.551,0-1,0.45-1,1v4
		C20.975,25.158,21.424,25.608,21.975,25.608z"/>
</g>
<g>
</g>
<g>
</g>
<g>
</g>
<g>
</g>
<g>
</g>
<g>
</g>
</svg>
