<?xml version="1.0" encoding="utf-8"?>
<!-- Generator: Adobe Illustrator 17.1.0, SVG Export Plug-In . SVG Version: 6.00 Build 0)  -->
<!DOCTYPE svg PUBLIC "-//W3C//DTD SVG 1.1//EN" "http://www.w3.org/Graphics/SVG/1.1/DTD/svg11.dtd">
<svg version="1.1" id="Layer_1" xmlns="http://www.w3.org/2000/svg" xmlns:xlink="http://www.w3.org/1999/xlink" x="0px" y="0px"
	 viewBox="0 0 15.426 15.472" enable-background="new 0 0 15.426 15.472" xml:space="preserve">
<g id="New_Symbol_85">
	<path d="M15.136,2.746l-1.906,1.895l-2.108-0.457l-0.445-2.11l1.911-1.9c-0.298-0.082-0.607-0.139-0.932-0.14
		c-2-0.006-3.625,1.609-3.631,3.609c-0.002,0.665,0.188,1.28,0.499,1.817l-3.078,3.06C4.91,8.205,4.296,8.011,3.631,8.009
		c-2-0.006-3.625,1.61-3.631,3.61c-0.002,0.319,0.052,0.624,0.128,0.92l1.907-1.895L4.143,11.1l0.444,2.111L2.677,15.11
		c0.299,0.082,0.608,0.14,0.932,0.141c2,0.004,3.625-1.61,3.632-3.61c0.002-0.597-0.155-1.153-0.409-1.649l3.155-3.136
		c0.496,0.258,1.051,0.418,1.648,0.419c2,0.006,3.625-1.61,3.631-3.61C15.266,3.347,15.213,3.042,15.136,2.746z"/>
	<g>
		<path d="M0.335,0.298L0.637,0l1.859,1.026l0.96,0.965l0.717,1.203l6.742,6.786c0,0,0.542-0.54,0.753-0.75
			c0.212-0.208,0.391-0.028,0.391-0.028s0.121,0.12,0.3,0.302c0.18,0.18-0.003,0.96-0.003,0.96l0.478,0.483
			c0,0,2.257,2.27,2.452,2.466c0.195,0.195,0.177,0.781-0.003,0.962c-0.18,0.181-0.482,0.479-0.482,0.479s-0.302,0.3-0.483,0.479
			c-0.181,0.18-0.766,0.193-0.962-0.003c-0.194-0.194-2.45-2.465-2.45-2.465l-0.48-0.483c0,0-0.781,0.179-0.961-0.003
			c-0.18-0.182-0.3-0.301-0.3-0.301s-0.179-0.182,0.032-0.391c0.211-0.21,0.753-0.749,0.753-0.749L3.208,4.154l-1.2-0.724
			L1.05,2.464L0.033,0.599L0.335,0.298z"/>
	</g>
</g>
<g>
</g>
<g>
</g>
<g>
</g>
<g>
</g>
<g>
</g>
<g>
</g>
<g>
</g>
</svg>
