<?xml version="1.0" encoding="utf-8"?>
<!-- Generator: Adobe Illustrator 17.1.0, SVG Export Plug-In . SVG Version: 6.00 Build 0)  -->
<!DOCTYPE svg PUBLIC "-//W3C//DTD SVG 1.1//EN" "http://www.w3.org/Graphics/SVG/1.1/DTD/svg11.dtd">
<svg version="1.1" id="Layer_1" xmlns="http://www.w3.org/2000/svg" xmlns:xlink="http://www.w3.org/1999/xlink" x="0px" y="0px"
	 viewBox="0 0 15.569 15.958" enable-background="new 0 0 15.569 15.958" xml:space="preserve">
<g id="New_Symbol_36">
	<path d="M15.259,12.169c-0.467-0.728-2.037-1.182-3.59-1.829c-1.553-0.647-1.922-0.872-1.922-0.872l-0.014-1.49
		c0,0,0.582-0.447,0.763-1.85c0.364,0.106,0.746-0.543,0.767-0.885c0.02-0.329-0.05-1.242-0.494-1.15
		c0.09-0.687,0.156-1.306,0.125-1.633C10.776,1.263,9.597,0,7.785,0C5.972,0,4.793,1.263,4.678,2.46
		C4.646,2.787,4.712,3.406,4.802,4.093c-0.444-0.092-0.514,0.822-0.494,1.15c0.021,0.342,0.402,0.99,0.767,0.885
		c0.18,1.402,0.763,1.85,0.763,1.85l-0.015,1.49c0,0-0.369,0.225-1.922,0.872c-1.554,0.648-3.123,1.101-3.59,1.829
		c-0.419,0.653-0.293,3.789-0.293,3.789h7.767h7.767C15.552,15.958,15.678,12.822,15.259,12.169z"/>
</g>
<g>
</g>
<g>
</g>
<g>
</g>
<g>
</g>
<g>
</g>
<g>
</g>
<g>
</g>
</svg>
