<?xml version="1.0" encoding="utf-8"?>
<!-- Generator: Adobe Illustrator 15.1.0, SVG Export Plug-In . SVG Version: 6.00 Build 0)  -->
<!DOCTYPE svg PUBLIC "-//W3C//DTD SVG 1.1//EN" "http://www.w3.org/Graphics/SVG/1.1/DTD/svg11.dtd">
<svg version="1.1" id="Layer_1" xmlns="http://www.w3.org/2000/svg" xmlns:xlink="http://www.w3.org/1999/xlink" x="0px" y="0px"
	 width="521.36px" height="289.322px" viewBox="0 0 521.36 289.322" enable-background="new 0 0 521.36 289.322"
	 xml:space="preserve">
<line fill="none" stroke="#FAAA24" stroke-miterlimit="10" x1="315.95" y1="287.294" x2="159.808" y2="16.849"/>
<polygon fill="#FAAA24" points="318.689,280.15 317.272,279.825 315.673,286.81 308.822,284.704 308.396,286.095 316.739,288.657 
	"/>
<polygon fill="#FFFFFF" points="190.568,92.256 207.991,78.316 281.169,211.895 262.584,223.509 "/>
<line fill="none" stroke="#FAAA24" stroke-miterlimit="10" x1="518.622" y1="18.214" x2="362.24" y2="289.072"/>
<polygon fill="#FAAA24" points="511.066,19.412 511.493,20.803 518.343,18.696 519.942,25.682 521.36,25.356 519.409,16.848 "/>
<polygon fill="#FFFFFF" points="499.657,77.399 482.234,63.461 386.988,229.563 405.573,241.177 "/>
<polygon fill="#F79421" points="338.366,280.106 361.092,240.745 315.64,240.745 "/>
<polygon fill="#C7C8CA" points="407.28,160.745 269.452,160.745 292.546,200.744 384.187,200.744 "/>
<polygon fill="#C7C8CA" points="453.469,80.745 223.264,80.745 246.358,120.745 430.374,120.745 "/>
<polygon fill="#C7C8CA" points="499.657,0.745 177.076,0.745 200.169,40.745 476.563,40.745 "/>
<polygon fill="#E4E5E6" points="292.546,200.744 315.64,240.744 361.092,240.744 384.187,200.744 "/>
<polygon fill="#E4E5E6" points="430.374,120.745 246.358,120.745 269.452,160.745 407.28,160.745 "/>
<polygon fill="#E4E5E6" points="476.563,40.745 200.169,40.745 223.264,80.745 453.469,80.745 "/>
<g>
	<path d="M208.518,89.398l1.921,3.328c0.288,0.499,0.485,0.992,0.591,1.479s0.122,0.945,0.05,1.377
		c-0.073,0.43-0.238,0.825-0.494,1.182c-0.257,0.357-0.605,0.664-1.045,0.917l-0.025,0.015c-0.483,0.279-0.958,0.428-1.426,0.449
		c-0.468,0.021-0.916-0.056-1.344-0.23c-0.429-0.176-0.827-0.44-1.195-0.793c-0.367-0.352-0.688-0.766-0.961-1.24l-1.247-2.159
		l-3.137,1.811l-0.579-1.003L208.518,89.398z M205.518,95.407c0.21,0.364,0.449,0.67,0.717,0.919
		c0.268,0.247,0.551,0.428,0.85,0.544c0.299,0.115,0.601,0.162,0.905,0.14c0.304-0.023,0.604-0.12,0.902-0.292l0.025-0.015
		c0.637-0.368,0.994-0.865,1.068-1.491c0.074-0.627-0.097-1.301-0.513-2.022l-1.302-2.255l-3.925,2.266L205.518,95.407z"/>
	<path d="M205.529,105.078c-0.176-0.305-0.307-0.629-0.394-0.975c-0.086-0.345-0.109-0.683-0.067-1.011
		c0.042-0.329,0.149-0.637,0.323-0.923c0.173-0.288,0.429-0.528,0.768-0.724l0.025-0.015c0.355-0.205,0.706-0.316,1.051-0.336
		c0.345-0.018,0.679,0.046,1.001,0.194c0.322,0.146,0.628,0.364,0.919,0.654c0.291,0.289,0.556,0.64,0.796,1.056
		c0.245,0.424,0.431,0.805,0.558,1.143s0.234,0.68,0.321,1.025l0.202-0.116c0.58-0.335,0.922-0.758,1.025-1.271
		c0.104-0.51-0.023-1.075-0.38-1.693c-0.225-0.391-0.471-0.718-0.739-0.987s-0.562-0.514-0.882-0.736l0.636-0.757
		c0.381,0.265,0.732,0.554,1.05,0.867c0.318,0.313,0.617,0.711,0.895,1.194c0.538,0.932,0.705,1.778,0.5,2.539
		c-0.193,0.721-0.705,1.321-1.534,1.8l-4.014,2.317l-0.557-0.965l0.978-0.565c-0.428-0.057-0.866-0.213-1.313-0.47
		C206.251,106.07,205.862,105.654,205.529,105.078z M206.443,104.814c0.176,0.304,0.381,0.563,0.616,0.774
		c0.235,0.213,0.488,0.375,0.759,0.483c0.271,0.109,0.546,0.157,0.827,0.147c0.28-0.01,0.552-0.091,0.813-0.242l0.607-0.35
		c-0.074-0.284-0.172-0.599-0.293-0.945c-0.121-0.346-0.299-0.722-0.533-1.126c-0.351-0.608-0.742-1.01-1.176-1.205
		c-0.433-0.194-0.847-0.178-1.243,0.051l-0.025,0.015c-0.202,0.117-0.359,0.268-0.473,0.452c-0.114,0.183-0.181,0.382-0.203,0.597
		c-0.021,0.216-0.005,0.439,0.05,0.671C206.226,104.37,206.317,104.595,206.443,104.814z"/>
	<path d="M210.087,112.914c-0.152-0.264-0.26-0.528-0.324-0.796c-0.065-0.268-0.07-0.526-0.017-0.778
		c0.053-0.25,0.171-0.491,0.354-0.721c0.183-0.229,0.44-0.44,0.77-0.631l3.963-2.288l-0.528-0.914l0.864-0.499l0.528,0.914
		l1.981-1.144l0.564,0.979l-1.981,1.144l1.203,2.083l-0.864,0.499l-1.203-2.083l-3.826,2.209c-0.405,0.234-0.63,0.499-0.673,0.794
		c-0.043,0.296,0.031,0.61,0.221,0.939c0.098,0.17,0.206,0.319,0.323,0.449s0.266,0.256,0.443,0.379l-0.838,0.484
		c-0.191-0.116-0.365-0.254-0.521-0.419C210.371,113.351,210.224,113.15,210.087,112.914z"/>
	<path d="M221.351,110.746l0.564,0.979l-3.849,2.222c0.483,0.015,0.952,0.128,1.407,0.339c0.455,0.211,0.846,0.6,1.174,1.167
		c0.229,0.398,0.371,0.789,0.422,1.17c0.052,0.383,0.023,0.75-0.085,1.101c-0.108,0.349-0.291,0.674-0.546,0.974
		c-0.256,0.3-0.578,0.563-0.968,0.788l-4.077,2.354l-0.564-0.978l3.828-2.21c0.608-0.351,0.999-0.787,1.173-1.305
		c0.173-0.519,0.092-1.069-0.245-1.653c-0.161-0.279-0.36-0.512-0.597-0.698c-0.236-0.184-0.497-0.313-0.781-0.387
		c-0.284-0.073-0.581-0.085-0.891-0.036c-0.31,0.05-0.617,0.162-0.921,0.337l-3.751,2.166l-0.564-0.979L221.351,110.746z"/>
	<path d="M220.74,131.454c-0.284-0.491-0.454-0.997-0.512-1.517c-0.058-0.52-0.02-1.021,0.113-1.505
		c0.133-0.482,0.356-0.927,0.669-1.334c0.313-0.406,0.702-0.744,1.168-1.013l0.025-0.015c0.466-0.269,0.955-0.438,1.468-0.509
		c0.513-0.069,1.014-0.042,1.503,0.081c0.489,0.125,0.946,0.344,1.37,0.658c0.424,0.314,0.78,0.72,1.068,1.22
		c0.284,0.491,0.456,0.999,0.516,1.524c0.06,0.523,0.023,1.027-0.109,1.511c-0.134,0.482-0.356,0.927-0.669,1.334
		c-0.313,0.406-0.702,0.744-1.169,1.013l-0.024,0.015c-0.466,0.269-0.957,0.437-1.472,0.502c-0.516,0.067-1.018,0.037-1.506-0.086
		c-0.49-0.125-0.948-0.345-1.375-0.664C221.379,132.35,221.024,131.945,220.74,131.454z M221.631,130.973
		c0.206,0.356,0.461,0.643,0.768,0.86c0.308,0.218,0.636,0.367,0.987,0.447c0.351,0.08,0.712,0.091,1.085,0.033
		c0.374-0.058,0.734-0.186,1.082-0.386l0.025-0.015c0.355-0.205,0.652-0.459,0.891-0.76c0.238-0.301,0.41-0.628,0.516-0.984
		c0.105-0.355,0.141-0.719,0.104-1.094c-0.035-0.374-0.153-0.736-0.354-1.083c-0.206-0.356-0.462-0.642-0.768-0.86
		c-0.308-0.219-0.635-0.366-0.982-0.441c-0.349-0.076-0.712-0.083-1.089-0.023c-0.378,0.06-0.74,0.189-1.088,0.39l-0.025,0.015
		c-0.355,0.206-0.652,0.46-0.891,0.76c-0.238,0.302-0.409,0.626-0.513,0.975c-0.104,0.348-0.139,0.708-0.103,1.084
		C221.313,130.265,221.431,130.625,221.631,130.973z"/>
	<path d="M229.998,133.967l-0.52-0.901l0.851-0.491l0.521,0.901l0.571-0.33c0.745-0.431,1.419-0.565,2.02-0.403
		c0.534,0.143,0.975,0.515,1.322,1.117c0.132,0.228,0.232,0.432,0.303,0.612c0.07,0.181,0.122,0.367,0.155,0.563l-0.851,0.492
		c-0.053-0.207-0.104-0.392-0.158-0.552s-0.13-0.326-0.228-0.496c-0.439-0.762-1.125-0.874-2.057-0.336l-0.533,0.308l1.202,2.083
		l-0.838,0.484l-1.195-2.07l-5.703,3.292l-0.565-0.979L229.998,133.967z"/>
	<path d="M238.327,141.03l2.207,3.822c0.317,0.551,0.521,1.085,0.612,1.604c0.09,0.518,0.076,0.998-0.042,1.438
		c-0.093,0.347-0.253,0.666-0.481,0.956c-0.229,0.29-0.52,0.537-0.875,0.742l-0.025,0.015c-0.373,0.215-0.739,0.349-1.1,0.398
		c-0.361,0.05-0.712,0.03-1.052-0.061c-0.341-0.092-0.667-0.245-0.978-0.46c-0.311-0.216-0.596-0.48-0.855-0.793l-2.057,4.829
		l-0.711-1.232l1.966-4.573l-0.015-0.025l-1.452-2.516l-3.454,1.995l-0.58-1.003L238.327,141.03z M235.953,147.39
		c0.19,0.331,0.409,0.611,0.655,0.843c0.247,0.232,0.507,0.404,0.782,0.518c0.273,0.113,0.557,0.163,0.847,0.146
		c0.29-0.015,0.58-0.104,0.868-0.271l0.025-0.015c0.55-0.318,0.864-0.765,0.943-1.343c0.078-0.578-0.09-1.227-0.507-1.948
		l-1.588-2.751l-3.607,2.083L235.953,147.39z"/>
	<path d="M237.973,154.292c-0.327,0.233-0.587,0.498-0.779,0.789c-0.193,0.292-0.322,0.597-0.386,0.917
		c-0.064,0.319-0.069,0.638-0.015,0.957c0.054,0.319,0.164,0.622,0.33,0.91c0.265,0.458,0.575,0.801,0.933,1.028
		c0.357,0.229,0.754,0.397,1.19,0.507l-0.194,0.926c-0.563-0.116-1.079-0.319-1.548-0.614c-0.47-0.294-0.885-0.754-1.246-1.381
		c-0.26-0.448-0.422-0.919-0.485-1.413c-0.065-0.494-0.032-0.975,0.097-1.445c0.13-0.469,0.355-0.914,0.68-1.332
		c0.322-0.417,0.738-0.773,1.246-1.066c0.475-0.273,0.966-0.455,1.476-0.539c0.51-0.086,1-0.077,1.47,0.023
		c0.471,0.101,0.906,0.293,1.307,0.575c0.4,0.283,0.732,0.653,0.996,1.11c0.278,0.482,0.438,0.968,0.476,1.454
		c0.037,0.486-0.024,0.95-0.187,1.394c-0.162,0.443-0.415,0.855-0.76,1.235c-0.346,0.379-0.76,0.709-1.242,0.988
		c-0.042,0.024-0.091,0.053-0.146,0.084c-0.055,0.032-0.123,0.065-0.203,0.101L237.973,154.292z M241.216,158.061
		c0.28-0.196,0.523-0.421,0.729-0.676c0.206-0.255,0.36-0.527,0.463-0.818c0.102-0.29,0.14-0.594,0.113-0.912
		c-0.026-0.318-0.133-0.637-0.318-0.959c-0.162-0.279-0.368-0.51-0.619-0.693c-0.251-0.182-0.529-0.31-0.835-0.382
		s-0.628-0.091-0.969-0.059c-0.34,0.033-0.676,0.122-1.007,0.269L241.216,158.061z"/>
	<path d="M245.193,160.284l-0.521-0.901l0.852-0.491l0.521,0.901l0.571-0.33c0.745-0.431,1.418-0.565,2.02-0.403
		c0.534,0.143,0.975,0.515,1.322,1.117c0.132,0.228,0.232,0.432,0.303,0.612c0.07,0.181,0.121,0.367,0.155,0.563l-0.851,0.492
		c-0.053-0.207-0.105-0.392-0.158-0.552c-0.054-0.161-0.129-0.326-0.227-0.496c-0.44-0.762-1.126-0.874-2.058-0.336l-0.533,0.308
		l1.202,2.083l-0.838,0.484l-1.195-2.07l-5.703,3.292l-0.564-0.979L245.193,160.284z"/>
	<path d="M245.299,166.98c-0.328,0.233-0.588,0.498-0.78,0.789c-0.193,0.292-0.321,0.597-0.386,0.917
		c-0.063,0.319-0.068,0.638-0.014,0.957c0.054,0.319,0.163,0.622,0.33,0.91c0.264,0.458,0.574,0.801,0.932,1.028
		c0.357,0.229,0.755,0.397,1.191,0.507l-0.195,0.926c-0.563-0.116-1.079-0.319-1.548-0.614s-0.884-0.754-1.245-1.381
		c-0.26-0.448-0.422-0.919-0.486-1.413c-0.064-0.494-0.032-0.975,0.098-1.445c0.129-0.469,0.355-0.914,0.679-1.332
		c0.323-0.417,0.738-0.773,1.247-1.066c0.474-0.273,0.966-0.455,1.476-0.539c0.51-0.086,0.999-0.077,1.47,0.023
		c0.471,0.101,0.906,0.293,1.306,0.575c0.401,0.283,0.732,0.653,0.997,1.11c0.278,0.482,0.437,0.968,0.475,1.454
		c0.038,0.486-0.024,0.95-0.186,1.394c-0.162,0.443-0.415,0.855-0.761,1.235c-0.345,0.379-0.759,0.709-1.241,0.988
		c-0.043,0.024-0.092,0.053-0.146,0.084s-0.123,0.065-0.204,0.101L245.299,166.98z M248.541,170.748
		c0.28-0.195,0.523-0.42,0.729-0.675c0.207-0.255,0.361-0.527,0.463-0.818c0.103-0.29,0.14-0.594,0.113-0.912
		c-0.026-0.318-0.132-0.637-0.317-0.959c-0.162-0.279-0.368-0.51-0.619-0.693c-0.252-0.182-0.529-0.31-0.836-0.382
		c-0.305-0.072-0.628-0.091-0.969-0.059c-0.34,0.033-0.676,0.122-1.006,0.269L248.541,170.748z"/>
	<path d="M253.162,172.094l0.564,0.978l-1.715,0.99c0.34-0.038,0.675-0.034,1.007,0.012c0.331,0.046,0.646,0.135,0.942,0.27
		c0.297,0.133,0.566,0.31,0.808,0.532c0.24,0.222,0.447,0.492,0.62,0.81l-1.055,0.609l-0.043-0.076
		c-0.206-0.355-0.464-0.656-0.774-0.9s-0.661-0.412-1.052-0.502c-0.391-0.09-0.814-0.095-1.27-0.012
		c-0.455,0.082-0.928,0.265-1.419,0.548l-2.616,1.511l-0.564-0.978L253.162,172.094z"/>
	<path d="M252.809,179.986c-0.328,0.234-0.588,0.498-0.781,0.79c-0.192,0.292-0.321,0.597-0.385,0.917
		c-0.064,0.32-0.069,0.638-0.015,0.958c0.054,0.318,0.164,0.622,0.33,0.91c0.265,0.457,0.575,0.8,0.933,1.028
		c0.357,0.228,0.754,0.397,1.19,0.507l-0.194,0.925c-0.563-0.115-1.079-0.319-1.549-0.613c-0.469-0.294-0.883-0.754-1.245-1.381
		c-0.259-0.449-0.421-0.92-0.485-1.414c-0.065-0.494-0.033-0.975,0.097-1.445c0.13-0.469,0.355-0.914,0.679-1.331
		c0.324-0.418,0.739-0.774,1.247-1.067c0.475-0.273,0.966-0.454,1.476-0.538c0.51-0.086,1-0.077,1.471,0.022
		c0.47,0.102,0.905,0.293,1.306,0.575c0.4,0.283,0.732,0.654,0.996,1.111c0.278,0.482,0.438,0.967,0.476,1.454
		c0.037,0.486-0.024,0.95-0.187,1.394c-0.161,0.442-0.415,0.855-0.76,1.234c-0.346,0.38-0.759,0.709-1.242,0.988
		c-0.042,0.024-0.091,0.053-0.146,0.084c-0.056,0.032-0.123,0.066-0.205,0.101L252.809,179.986z M256.051,183.755
		c0.279-0.196,0.523-0.421,0.729-0.676c0.206-0.255,0.36-0.527,0.462-0.817c0.103-0.291,0.141-0.594,0.113-0.913
		c-0.025-0.317-0.132-0.637-0.317-0.958c-0.161-0.28-0.368-0.51-0.619-0.693c-0.251-0.182-0.529-0.31-0.835-0.382
		s-0.629-0.091-0.969-0.059c-0.34,0.032-0.676,0.122-1.007,0.268L256.051,183.755z"/>
	<path d="M260.68,185.112l0.564,0.978l-1.144,0.66c0.482,0.016,0.951,0.129,1.406,0.34c0.456,0.211,0.847,0.6,1.174,1.167
		c0.23,0.398,0.371,0.789,0.422,1.17c0.052,0.383,0.023,0.75-0.085,1.1c-0.107,0.35-0.29,0.675-0.546,0.975
		c-0.256,0.3-0.578,0.563-0.968,0.788l-4.077,2.354l-0.564-0.978l3.827-2.21c0.608-0.351,1-0.787,1.174-1.305
		c0.174-0.519,0.092-1.069-0.245-1.653c-0.161-0.279-0.36-0.512-0.597-0.698c-0.236-0.185-0.497-0.313-0.781-0.387
		c-0.284-0.073-0.582-0.085-0.891-0.036c-0.311,0.05-0.617,0.161-0.921,0.336l-3.752,2.166l-0.564-0.978L260.68,185.112z"/>
	<path d="M260.369,200.093c-0.279-0.483-0.445-0.982-0.501-1.499c-0.055-0.515-0.015-1.013,0.121-1.492
		c0.136-0.479,0.362-0.922,0.679-1.332c0.317-0.408,0.704-0.745,1.162-1.009l0.025-0.015c0.465-0.269,0.954-0.438,1.467-0.509
		c0.514-0.069,1.013-0.045,1.5,0.075c0.486,0.119,0.939,0.333,1.358,0.637c0.42,0.306,0.769,0.7,1.047,1.183
		c0.181,0.313,0.315,0.614,0.403,0.902c0.087,0.289,0.139,0.569,0.155,0.841c0.016,0.273,0.004,0.541-0.038,0.801
		c-0.041,0.261-0.098,0.514-0.17,0.759l-1.061-0.251c0.119-0.42,0.187-0.84,0.203-1.261c0.016-0.422-0.104-0.856-0.363-1.306
		c-0.191-0.331-0.436-0.602-0.732-0.813c-0.298-0.213-0.622-0.358-0.973-0.439c-0.352-0.079-0.715-0.089-1.093-0.029
		c-0.378,0.06-0.744,0.192-1.101,0.397l-0.024,0.015c-0.356,0.206-0.653,0.459-0.892,0.76c-0.238,0.301-0.41,0.627-0.519,0.977
		c-0.108,0.351-0.144,0.71-0.106,1.078c0.037,0.368,0.156,0.725,0.356,1.073c0.245,0.424,0.554,0.744,0.929,0.962
		c0.374,0.218,0.777,0.379,1.208,0.479l-0.225,0.96c-0.563-0.115-1.085-0.314-1.563-0.597
		C261.144,201.161,260.727,200.712,260.369,200.093z"/>
	<path d="M266.294,203.345c-0.328,0.234-0.587,0.498-0.78,0.79c-0.193,0.291-0.321,0.597-0.385,0.917
		c-0.064,0.319-0.07,0.638-0.016,0.956c0.055,0.319,0.164,0.622,0.331,0.911c0.264,0.457,0.575,0.799,0.933,1.027
		c0.356,0.228,0.754,0.396,1.189,0.507l-0.193,0.925c-0.564-0.115-1.08-0.319-1.549-0.613c-0.469-0.295-0.884-0.754-1.246-1.38
		c-0.259-0.449-0.421-0.921-0.485-1.414s-0.032-0.975,0.097-1.445c0.13-0.47,0.356-0.913,0.68-1.331s0.738-0.773,1.247-1.067
		c0.474-0.273,0.966-0.453,1.476-0.538c0.51-0.086,0.999-0.078,1.47,0.022c0.471,0.102,0.906,0.293,1.306,0.575
		c0.4,0.283,0.732,0.653,0.997,1.111c0.278,0.481,0.437,0.966,0.475,1.453c0.038,0.485-0.024,0.949-0.186,1.394
		c-0.162,0.443-0.415,0.855-0.761,1.235c-0.345,0.38-0.759,0.709-1.241,0.987c-0.043,0.024-0.092,0.053-0.146,0.085
		c-0.056,0.031-0.123,0.065-0.204,0.101L266.294,203.345z M269.537,207.113c0.279-0.195,0.522-0.421,0.729-0.677
		c0.207-0.254,0.361-0.527,0.463-0.816c0.102-0.291,0.14-0.595,0.113-0.913c-0.026-0.317-0.133-0.637-0.318-0.958
		c-0.161-0.28-0.367-0.511-0.619-0.693c-0.251-0.182-0.529-0.31-0.834-0.383c-0.306-0.071-0.629-0.092-0.969-0.058
		c-0.341,0.032-0.677,0.122-1.008,0.268L269.537,207.113z"/>
</g>
<g>
	<path d="M393.62,224.621l1.921-3.327c0.289-0.5,0.618-0.917,0.986-1.252c0.367-0.335,0.757-0.579,1.168-0.731
		c0.408-0.153,0.833-0.208,1.271-0.164s0.877,0.193,1.317,0.447l0.025,0.015c0.482,0.279,0.85,0.615,1.102,1.009
		c0.252,0.395,0.41,0.821,0.473,1.28s0.032,0.937-0.089,1.431c-0.122,0.494-0.32,0.979-0.594,1.452l-1.247,2.159l3.138,1.812
		l-0.579,1.004L393.62,224.621z M400.324,224.216c0.211-0.365,0.356-0.726,0.437-1.081c0.081-0.354,0.097-0.69,0.048-1.008
		c-0.05-0.317-0.16-0.603-0.332-0.854s-0.406-0.464-0.703-0.635l-0.025-0.015c-0.637-0.368-1.246-0.428-1.825-0.18
		c-0.579,0.249-1.077,0.733-1.494,1.455l-1.302,2.255l3.925,2.266L400.324,224.216z"/>
	<path d="M408.693,219.369c-0.176,0.305-0.391,0.581-0.647,0.828c-0.256,0.248-0.536,0.436-0.842,0.564
		c-0.305,0.128-0.625,0.188-0.96,0.183c-0.336-0.008-0.672-0.109-1.011-0.305l-0.025-0.015c-0.355-0.205-0.628-0.452-0.816-0.742
		c-0.188-0.289-0.3-0.61-0.333-0.963s0.003-0.727,0.107-1.124c0.104-0.396,0.276-0.802,0.517-1.217
		c0.244-0.424,0.481-0.775,0.71-1.055c0.229-0.28,0.472-0.544,0.728-0.791l-0.202-0.117c-0.58-0.335-1.117-0.419-1.612-0.253
		c-0.493,0.167-0.919,0.559-1.276,1.177c-0.225,0.39-0.386,0.768-0.485,1.134c-0.099,0.366-0.163,0.743-0.196,1.132l-0.973-0.173
		c0.038-0.463,0.113-0.911,0.226-1.343c0.111-0.433,0.307-0.89,0.585-1.373c0.538-0.931,1.188-1.498,1.949-1.703
		c0.722-0.192,1.497-0.05,2.327,0.43l4.014,2.317l-0.558,0.965l-0.978-0.564c0.164,0.399,0.247,0.857,0.249,1.372
		S409.026,218.793,408.693,219.369z M408.008,218.709c0.176-0.304,0.296-0.61,0.364-0.921c0.065-0.311,0.079-0.609,0.038-0.897
		c-0.043-0.289-0.138-0.552-0.286-0.79c-0.149-0.238-0.354-0.433-0.615-0.583l-0.607-0.351c-0.209,0.206-0.433,0.448-0.672,0.727
		c-0.24,0.277-0.477,0.619-0.71,1.024c-0.352,0.608-0.503,1.147-0.455,1.62c0.048,0.472,0.27,0.822,0.666,1.051l0.025,0.015
		c0.202,0.117,0.411,0.178,0.627,0.185c0.215,0.006,0.422-0.035,0.618-0.124c0.197-0.089,0.384-0.215,0.557-0.38
		C407.73,219.12,407.882,218.929,408.008,218.709z"/>
	<path d="M413.2,211.505c-0.151,0.263-0.327,0.488-0.526,0.678s-0.422,0.324-0.666,0.404c-0.242,0.079-0.511,0.098-0.801,0.054
		c-0.291-0.044-0.602-0.161-0.932-0.353l-3.963-2.287l-0.528,0.914l-0.864-0.499l0.528-0.914l-1.981-1.144l0.564-0.979l1.981,1.145
		l1.202-2.084l0.865,0.5l-1.203,2.082l3.826,2.209c0.405,0.234,0.747,0.296,1.024,0.186s0.513-0.331,0.703-0.661
		c0.098-0.169,0.173-0.337,0.227-0.504s0.089-0.358,0.108-0.573l0.838,0.483c-0.006,0.224-0.039,0.444-0.103,0.661
		S413.337,211.268,413.2,211.505z"/>
	<path d="M405.691,202.834l0.564-0.979l3.849,2.223c-0.229-0.425-0.365-0.888-0.41-1.389c-0.043-0.499,0.097-1.033,0.425-1.601
		c0.229-0.397,0.497-0.715,0.803-0.951c0.307-0.235,0.638-0.394,0.996-0.475c0.356-0.082,0.729-0.087,1.116-0.016
		c0.389,0.071,0.777,0.22,1.167,0.444l4.077,2.354l-0.565,0.979l-3.828-2.211c-0.607-0.351-1.18-0.473-1.715-0.363
		c-0.537,0.107-0.973,0.454-1.31,1.038c-0.161,0.28-0.263,0.568-0.306,0.866c-0.042,0.297-0.023,0.588,0.055,0.869
		c0.079,0.283,0.219,0.547,0.415,0.79c0.198,0.244,0.448,0.454,0.752,0.629l3.752,2.166l-0.565,0.979L405.691,202.834z"/>
	<path d="M423.931,193.008c-0.284,0.491-0.637,0.892-1.059,1.201c-0.421,0.311-0.874,0.528-1.359,0.654
		c-0.484,0.127-0.982,0.156-1.49,0.089c-0.509-0.068-0.996-0.236-1.462-0.505l-0.025-0.015c-0.465-0.269-0.856-0.608-1.175-1.017
		c-0.316-0.408-0.543-0.856-0.681-1.342c-0.138-0.485-0.177-0.991-0.116-1.515c0.061-0.524,0.233-1.036,0.522-1.536
		c0.283-0.491,0.638-0.894,1.062-1.208c0.424-0.314,0.879-0.534,1.363-0.661c0.485-0.126,0.981-0.156,1.491-0.088
		c0.508,0.067,0.996,0.236,1.461,0.505l0.025,0.015c0.466,0.269,0.855,0.61,1.171,1.023c0.314,0.414,0.54,0.863,0.678,1.349
		c0.137,0.485,0.175,0.993,0.112,1.521C424.387,192.007,424.214,192.517,423.931,193.008z M423.069,192.477
		c0.205-0.355,0.325-0.721,0.361-1.095c0.035-0.375-0.001-0.734-0.107-1.078c-0.106-0.343-0.277-0.663-0.514-0.957
		c-0.237-0.295-0.528-0.542-0.876-0.743l-0.025-0.015c-0.355-0.205-0.723-0.335-1.104-0.392c-0.379-0.055-0.748-0.04-1.109,0.045
		c-0.359,0.086-0.693,0.237-1,0.456c-0.306,0.218-0.56,0.5-0.76,0.848c-0.206,0.356-0.325,0.721-0.362,1.096
		c-0.035,0.374,0.001,0.731,0.111,1.071c0.108,0.339,0.282,0.658,0.522,0.955c0.241,0.297,0.535,0.546,0.882,0.746l0.025,0.015
		c0.356,0.205,0.725,0.336,1.104,0.392c0.381,0.056,0.747,0.042,1.101-0.042c0.353-0.084,0.684-0.235,0.99-0.453
		C422.614,193.106,422.868,192.824,423.069,192.477z"/>
	<path d="M421.478,183.734l-0.521,0.902l-0.852-0.492l0.521-0.902l-0.57-0.33c-0.745-0.43-1.198-0.946-1.36-1.547
		c-0.143-0.533-0.041-1.102,0.306-1.703c0.133-0.229,0.259-0.418,0.38-0.568c0.12-0.151,0.258-0.289,0.41-0.416l0.851,0.491
		c-0.153,0.148-0.288,0.286-0.4,0.413c-0.112,0.127-0.217,0.275-0.315,0.445c-0.439,0.762-0.194,1.412,0.738,1.95l0.532,0.308
		l1.202-2.083l0.839,0.484l-1.195,2.07l5.703,3.293l-0.564,0.978L421.478,183.734z"/>
	<path d="M434.82,174.146c-0.372,0.644-0.832,1.168-1.383,1.573c-0.549,0.406-1.145,0.688-1.785,0.849
		c-0.641,0.161-1.305,0.192-1.994,0.094c-0.688-0.099-1.35-0.331-1.984-0.697l-0.026-0.015c-0.626-0.361-1.154-0.816-1.583-1.363
		c-0.43-0.547-0.738-1.141-0.929-1.781c-0.188-0.64-0.245-1.304-0.169-1.994c0.075-0.69,0.304-1.36,0.68-2.013
		c0.235-0.406,0.479-0.753,0.735-1.04c0.257-0.287,0.527-0.534,0.811-0.743c0.284-0.208,0.581-0.381,0.892-0.519
		c0.311-0.136,0.636-0.253,0.974-0.352l0.341,1.111c-0.575,0.175-1.104,0.416-1.584,0.72c-0.48,0.304-0.896,0.761-1.248,1.37
		c-0.284,0.491-0.454,1-0.51,1.527c-0.055,0.527-0.008,1.041,0.146,1.54c0.15,0.5,0.398,0.964,0.744,1.395
		c0.343,0.43,0.771,0.792,1.277,1.085l0.025,0.015c0.517,0.298,1.047,0.489,1.593,0.572c0.544,0.083,1.071,0.065,1.58-0.053
		c0.508-0.118,0.979-0.332,1.412-0.641c0.432-0.31,0.79-0.709,1.074-1.2c0.352-0.61,0.542-1.2,0.572-1.77
		c0.029-0.57-0.037-1.184-0.198-1.842l1.028-0.287c0.105,0.365,0.182,0.728,0.228,1.087c0.046,0.36,0.055,0.724,0.023,1.09
		c-0.03,0.366-0.104,0.736-0.218,1.11C435.229,173.35,435.055,173.74,434.82,174.146z"/>
	<path d="M439.623,165.827c-0.283,0.491-0.636,0.892-1.058,1.201c-0.422,0.31-0.874,0.528-1.36,0.654
		c-0.484,0.126-0.981,0.156-1.489,0.088c-0.509-0.067-0.996-0.236-1.462-0.505l-0.025-0.015c-0.465-0.269-0.856-0.607-1.175-1.017
		c-0.316-0.409-0.544-0.856-0.681-1.342c-0.138-0.486-0.177-0.991-0.117-1.515c0.061-0.524,0.234-1.037,0.522-1.536
		c0.284-0.491,0.639-0.894,1.062-1.208c0.424-0.314,0.879-0.534,1.364-0.661c0.485-0.126,0.981-0.155,1.49-0.087
		c0.508,0.068,0.996,0.236,1.461,0.505l0.025,0.015c0.466,0.269,0.856,0.61,1.171,1.023c0.315,0.414,0.54,0.862,0.679,1.349
		c0.137,0.485,0.175,0.993,0.111,1.521C440.08,164.826,439.906,165.336,439.623,165.827z M438.762,165.296
		c0.205-0.356,0.325-0.721,0.361-1.096c0.036-0.374,0-0.734-0.106-1.077c-0.106-0.344-0.277-0.663-0.514-0.958
		c-0.237-0.294-0.528-0.542-0.876-0.743l-0.025-0.015c-0.355-0.205-0.723-0.335-1.104-0.392c-0.379-0.055-0.749-0.04-1.109,0.045
		c-0.359,0.086-0.693,0.238-1,0.456c-0.306,0.219-0.561,0.501-0.761,0.848c-0.205,0.355-0.325,0.722-0.361,1.096
		c-0.035,0.375,0.001,0.731,0.11,1.071s0.283,0.658,0.523,0.954c0.241,0.298,0.535,0.546,0.882,0.747l0.025,0.015
		c0.356,0.206,0.724,0.336,1.104,0.391c0.38,0.057,0.747,0.042,1.1-0.042c0.354-0.084,0.684-0.234,0.991-0.453
		C438.308,165.926,438.562,165.643,438.762,165.296z"/>
	<path d="M436.094,156.422l0.564-0.978l1.105,0.638c-0.097-0.203-0.185-0.414-0.261-0.633s-0.124-0.447-0.14-0.682
		c-0.017-0.235,0.002-0.478,0.057-0.729s0.162-0.516,0.323-0.796c0.308-0.533,0.688-0.901,1.138-1.104
		c0.45-0.202,0.914-0.285,1.389-0.248c-0.109-0.221-0.201-0.452-0.277-0.694c-0.075-0.241-0.118-0.489-0.129-0.744
		c-0.011-0.254,0.017-0.518,0.082-0.79c0.067-0.272,0.184-0.552,0.35-0.84c0.44-0.762,1.021-1.224,1.74-1.384
		c0.719-0.161,1.489-0.004,2.311,0.471l4.064,2.347l-0.564,0.978l-3.828-2.21c-0.633-0.365-1.208-0.497-1.724-0.394
		c-0.517,0.103-0.928,0.421-1.235,0.954c-0.143,0.246-0.232,0.504-0.271,0.776c-0.039,0.271-0.018,0.54,0.059,0.804
		c0.078,0.266,0.216,0.52,0.413,0.764c0.197,0.244,0.457,0.458,0.777,0.644l3.777,2.181l-0.558,0.965l-3.854-2.225
		c-0.616-0.356-1.183-0.482-1.698-0.379c-0.516,0.104-0.925,0.417-1.229,0.942c-0.151,0.262-0.24,0.534-0.267,0.812
		c-0.025,0.278,0.008,0.554,0.099,0.827c0.091,0.272,0.233,0.527,0.43,0.764c0.193,0.237,0.444,0.444,0.748,0.619l3.739,2.159
		l-0.564,0.978L436.094,156.422z"/>
	<path d="M443.251,144.025l0.564-0.978l1.105,0.638c-0.097-0.203-0.185-0.414-0.261-0.633c-0.076-0.219-0.124-0.447-0.14-0.682
		c-0.017-0.235,0.002-0.478,0.056-0.729c0.056-0.25,0.163-0.516,0.324-0.795c0.309-0.533,0.688-0.901,1.138-1.104
		c0.45-0.203,0.913-0.286,1.389-0.249c-0.109-0.221-0.202-0.452-0.277-0.694c-0.075-0.241-0.118-0.488-0.129-0.743
		s0.017-0.518,0.083-0.79s0.183-0.552,0.349-0.84c0.44-0.762,1.021-1.224,1.74-1.384c0.718-0.161,1.489-0.004,2.311,0.47
		l4.064,2.347l-0.564,0.978l-3.828-2.21c-0.633-0.366-1.208-0.497-1.724-0.394c-0.516,0.103-0.928,0.421-1.235,0.954
		c-0.143,0.246-0.232,0.504-0.271,0.775c-0.039,0.272-0.018,0.54,0.059,0.805c0.078,0.265,0.216,0.52,0.413,0.764
		c0.198,0.244,0.457,0.458,0.777,0.644l3.777,2.181l-0.558,0.965l-3.854-2.225c-0.616-0.355-1.183-0.482-1.697-0.379
		c-0.517,0.103-0.926,0.417-1.229,0.941c-0.151,0.263-0.239,0.534-0.267,0.812c-0.025,0.279,0.008,0.554,0.099,0.827
		c0.091,0.272,0.233,0.527,0.43,0.764c0.194,0.237,0.444,0.443,0.748,0.619l3.739,2.158l-0.564,0.979L443.251,144.025z"/>
	<path d="M458.509,133.087c-0.23,0.398-0.498,0.715-0.804,0.951c-0.305,0.236-0.636,0.395-0.994,0.476s-0.729,0.087-1.118,0.015
		c-0.388-0.071-0.775-0.22-1.166-0.445l-4.077-2.354l0.564-0.978l3.828,2.21c0.608,0.352,1.18,0.473,1.717,0.365
		c0.535-0.109,0.972-0.455,1.31-1.04c0.161-0.279,0.263-0.568,0.306-0.865c0.041-0.297,0.021-0.585-0.061-0.864
		c-0.081-0.278-0.219-0.542-0.414-0.79c-0.194-0.247-0.443-0.459-0.748-0.635l-3.752-2.166l0.557-0.965l6.567,3.792l-0.557,0.965
		l-1.144-0.66c0.229,0.426,0.365,0.889,0.409,1.388C458.978,131.986,458.836,132.521,458.509,133.087z"/>
	<path d="M455.102,123.5l0.564-0.979l1.144,0.66c-0.229-0.425-0.365-0.888-0.409-1.388s0.097-1.034,0.424-1.601
		c0.229-0.398,0.497-0.715,0.803-0.951c0.307-0.235,0.638-0.395,0.996-0.476c0.356-0.082,0.729-0.086,1.117-0.016
		c0.388,0.072,0.776,0.221,1.166,0.445l4.077,2.354l-0.564,0.979l-3.828-2.21c-0.607-0.352-1.181-0.473-1.716-0.364
		c-0.536,0.108-0.973,0.455-1.31,1.039c-0.161,0.279-0.263,0.567-0.306,0.865c-0.041,0.298-0.023,0.588,0.055,0.87
		c0.079,0.283,0.219,0.546,0.415,0.79c0.198,0.244,0.448,0.453,0.752,0.629l3.752,2.166l-0.564,0.978L455.102,123.5z"/>
	<path d="M457.303,113.881l0.646-1.117l1.079,0.623l-0.646,1.117L457.303,113.881z M459.854,115.27l0.564-0.979l6.567,3.792
		l-0.564,0.978L459.854,115.27z"/>
	<path d="M470.342,112.62c-0.278,0.482-0.627,0.877-1.047,1.182c-0.419,0.306-0.869,0.52-1.353,0.642
		c-0.481,0.123-0.979,0.149-1.492,0.078c-0.514-0.07-0.998-0.237-1.456-0.501l-0.025-0.015c-0.465-0.269-0.856-0.607-1.174-1.017
		c-0.316-0.408-0.545-0.854-0.686-1.335c-0.14-0.481-0.183-0.98-0.127-1.496c0.056-0.516,0.222-1.015,0.5-1.498
		c0.182-0.313,0.375-0.58,0.58-0.8c0.207-0.22,0.424-0.405,0.652-0.556c0.228-0.15,0.465-0.273,0.712-0.368
		c0.247-0.094,0.495-0.171,0.743-0.231l0.313,1.044c-0.423,0.106-0.821,0.257-1.194,0.454s-0.689,0.519-0.948,0.967
		c-0.19,0.331-0.304,0.678-0.339,1.042s0.001,0.717,0.108,1.061c0.105,0.344,0.279,0.664,0.52,0.961
		c0.241,0.297,0.539,0.548,0.895,0.753l0.025,0.015c0.356,0.206,0.724,0.336,1.104,0.392c0.38,0.056,0.748,0.042,1.105-0.039
		s0.688-0.23,0.986-0.447c0.3-0.216,0.551-0.498,0.751-0.845c0.245-0.423,0.367-0.852,0.37-1.285
		c0.001-0.434-0.062-0.862-0.189-1.286l0.943-0.286c0.183,0.545,0.271,1.097,0.266,1.652
		C470.88,111.415,470.699,112.002,470.342,112.62z"/>
	<path d="M474.121,106.046c-0.177,0.305-0.392,0.581-0.648,0.829c-0.256,0.248-0.536,0.436-0.842,0.564
		c-0.305,0.128-0.625,0.189-0.96,0.183c-0.335-0.008-0.672-0.108-1.011-0.305l-0.025-0.015c-0.355-0.205-0.628-0.452-0.816-0.742
		c-0.188-0.289-0.3-0.61-0.333-0.962c-0.033-0.352,0.003-0.727,0.107-1.124c0.104-0.396,0.276-0.802,0.517-1.217
		c0.244-0.423,0.481-0.775,0.71-1.055c0.229-0.28,0.472-0.543,0.728-0.791l-0.202-0.116c-0.58-0.336-1.117-0.419-1.612-0.254
		c-0.493,0.167-0.919,0.56-1.276,1.177c-0.225,0.389-0.386,0.767-0.485,1.134c-0.098,0.367-0.163,0.744-0.195,1.131l-0.974-0.173
		c0.038-0.463,0.113-0.911,0.226-1.343c0.111-0.432,0.307-0.89,0.586-1.372c0.537-0.932,1.188-1.499,1.949-1.703
		c0.721-0.193,1.496-0.05,2.326,0.429l4.014,2.317l-0.558,0.965l-0.978-0.564c0.164,0.4,0.248,0.857,0.249,1.372
		C474.618,104.925,474.453,105.47,474.121,106.046z M473.436,105.387c0.175-0.304,0.295-0.611,0.363-0.921
		c0.066-0.31,0.079-0.61,0.038-0.898c-0.043-0.289-0.138-0.552-0.286-0.79c-0.149-0.237-0.354-0.433-0.615-0.583l-0.607-0.351
		c-0.209,0.206-0.432,0.448-0.672,0.727s-0.477,0.62-0.71,1.024c-0.352,0.608-0.503,1.148-0.455,1.62
		c0.048,0.472,0.271,0.822,0.667,1.051l0.025,0.015c0.201,0.117,0.41,0.178,0.626,0.184s0.422-0.035,0.618-0.124
		c0.197-0.088,0.384-0.214,0.557-0.379C473.157,105.798,473.309,105.606,473.436,105.387z"/>
	<path d="M478.627,98.182c-0.151,0.263-0.327,0.488-0.526,0.678c-0.199,0.189-0.422,0.324-0.665,0.403s-0.511,0.098-0.801,0.054
		c-0.291-0.043-0.603-0.161-0.933-0.352l-3.963-2.288l-0.528,0.915l-0.864-0.499l0.528-0.915l-1.981-1.144l0.564-0.978l1.981,1.144
		l1.203-2.083l0.864,0.499l-1.203,2.083l3.826,2.209c0.405,0.234,0.747,0.295,1.024,0.185c0.278-0.11,0.513-0.331,0.704-0.661
		c0.098-0.169,0.173-0.337,0.226-0.504c0.054-0.167,0.09-0.358,0.108-0.573l0.838,0.484c-0.005,0.223-0.039,0.443-0.102,0.661
		C478.864,97.717,478.764,97.944,478.627,98.182z"/>
	<path d="M471.324,89.596l0.645-1.118l1.08,0.623l-0.646,1.118L471.324,89.596z M473.874,90.984l0.565-0.978l6.566,3.792
		l-0.564,0.978L473.874,90.984z"/>
	<path d="M484.385,88.297c-0.283,0.491-0.636,0.892-1.058,1.201c-0.421,0.31-0.874,0.528-1.359,0.654
		c-0.485,0.126-0.982,0.156-1.49,0.088c-0.509-0.067-0.996-0.236-1.462-0.505l-0.025-0.015c-0.465-0.269-0.856-0.607-1.175-1.017
		c-0.316-0.409-0.544-0.856-0.681-1.342c-0.138-0.486-0.177-0.991-0.116-1.515c0.061-0.524,0.233-1.037,0.522-1.536
		c0.283-0.491,0.638-0.894,1.062-1.208s0.879-0.534,1.363-0.661c0.485-0.126,0.981-0.155,1.49-0.087
		c0.508,0.068,0.997,0.236,1.462,0.505l0.025,0.015c0.465,0.269,0.855,0.61,1.171,1.023c0.314,0.414,0.54,0.862,0.678,1.349
		c0.137,0.485,0.175,0.993,0.112,1.521C484.842,87.296,484.669,87.806,484.385,88.297z M483.523,87.766
		c0.206-0.356,0.326-0.721,0.362-1.096c0.035-0.374-0.001-0.734-0.107-1.077c-0.106-0.344-0.277-0.663-0.514-0.958
		c-0.237-0.294-0.528-0.542-0.876-0.743l-0.025-0.015c-0.355-0.205-0.723-0.335-1.104-0.392c-0.379-0.055-0.749-0.04-1.109,0.045
		c-0.359,0.086-0.693,0.238-1,0.456c-0.306,0.219-0.56,0.501-0.76,0.848c-0.206,0.356-0.326,0.722-0.362,1.096
		c-0.035,0.375,0.001,0.731,0.11,1.071s0.283,0.658,0.523,0.954c0.241,0.298,0.535,0.546,0.882,0.747l0.025,0.015
		c0.356,0.206,0.724,0.336,1.104,0.391c0.381,0.057,0.747,0.042,1.101-0.042c0.353-0.084,0.684-0.234,0.99-0.453
		C483.069,88.396,483.323,88.112,483.523,87.766z"/>
	<path d="M480.855,78.892l0.564-0.978l1.144,0.66c-0.229-0.425-0.364-0.888-0.409-1.388c-0.044-0.5,0.097-1.034,0.424-1.601
		c0.23-0.397,0.498-0.715,0.803-0.951c0.307-0.235,0.638-0.394,0.996-0.475c0.357-0.082,0.729-0.087,1.117-0.016
		c0.389,0.072,0.776,0.22,1.166,0.445l4.077,2.354l-0.564,0.978l-3.828-2.21c-0.607-0.351-1.181-0.473-1.716-0.364
		c-0.536,0.109-0.972,0.455-1.31,1.039c-0.161,0.28-0.263,0.568-0.306,0.866c-0.041,0.297-0.022,0.587,0.056,0.87
		c0.079,0.282,0.218,0.546,0.415,0.789c0.197,0.244,0.447,0.454,0.751,0.629l3.752,2.166l-0.564,0.978L480.855,78.892z"/>
</g>
<line fill="none" stroke="#F9FDFE" stroke-width="2.5" stroke-miterlimit="10" x1="132.55" y1="-50.309" x2="554.157" y2="-50.309"/>
<line fill="none" stroke="#F9FDFE" stroke-width="2.5" stroke-miterlimit="10" x1="166.502" y1="1.25" x2="506.501" y2="1.25"/>
<line fill="none" stroke="#F9FDFE" stroke-width="2.5" stroke-miterlimit="10" x1="214.502" y1="81.008" x2="461.168" y2="81.008"/>
<line fill="none" stroke="#F9FDFE" stroke-width="2.5" stroke-miterlimit="10" x1="255.835" y1="160.987" x2="414.502" y2="160.987"/>
<line fill="none" stroke="#F9FDFE" stroke-width="2.5" stroke-miterlimit="10" x1="145.169" y1="-38.182" x2="533.168" y2="-38.182"/>
<line fill="none" stroke="#F9FDFE" stroke-width="2.5" stroke-miterlimit="10" x1="191.835" y1="42.331" x2="485.168" y2="42.331"/>
<line fill="none" stroke="#F9FDFE" stroke-width="2.5" stroke-miterlimit="10" x1="238.502" y1="120.888" x2="437.168" y2="120.888"/>
<line fill="none" stroke="#F9FDFE" stroke-width="2.5" stroke-miterlimit="10" x1="277.169" y1="200.864" x2="395.835" y2="200.864"/>
<line fill="none" stroke="#F9FDFE" stroke-width="2.5" stroke-miterlimit="10" x1="302.502" y1="240.744" x2="373.168" y2="240.744"/>
<g>
	<path fill="#F9FDFE" d="M329.03,253.323l-3.587-5.653h2.399l2.228,3.746l2.267-3.746h2.333l-3.587,5.613v3.72h-2.053V253.323z"/>
</g>
<g>
	<path fill="#F9FDFE" d="M337.243,257.163c-0.551,0-1.063-0.096-1.533-0.287c-0.471-0.19-0.878-0.453-1.22-0.786
		c-0.343-0.334-0.611-0.725-0.807-1.174c-0.196-0.448-0.294-0.931-0.294-1.446v-0.026c0-0.516,0.098-0.998,0.294-1.447
		c0.195-0.448,0.467-0.842,0.813-1.18s0.755-0.604,1.227-0.8c0.471-0.195,0.986-0.294,1.547-0.294c0.551,0,1.062,0.096,1.533,0.287
		c0.471,0.191,0.877,0.453,1.22,0.786c0.342,0.334,0.611,0.725,0.807,1.174s0.293,0.931,0.293,1.446v0.027
		c0,0.516-0.098,0.997-0.293,1.446s-0.467,0.842-0.813,1.18s-0.756,0.604-1.227,0.8
		C338.318,257.065,337.804,257.163,337.243,257.163z M337.271,255.416c0.293,0,0.553-0.051,0.779-0.153
		c0.227-0.102,0.42-0.242,0.58-0.42s0.282-0.384,0.367-0.62c0.084-0.235,0.126-0.486,0.126-0.753v-0.026
		c0-0.267-0.044-0.519-0.133-0.754s-0.218-0.444-0.387-0.627c-0.169-0.182-0.369-0.326-0.601-0.433
		c-0.23-0.107-0.484-0.16-0.76-0.16c-0.293,0-0.553,0.051-0.779,0.153c-0.228,0.103-0.421,0.242-0.58,0.42
		c-0.16,0.178-0.282,0.385-0.367,0.62c-0.084,0.235-0.127,0.486-0.127,0.753v0.027c0,0.267,0.045,0.518,0.134,0.753
		s0.218,0.444,0.387,0.627c0.169,0.182,0.366,0.326,0.593,0.433C336.73,255.363,336.985,255.416,337.271,255.416z"/>
	<path fill="#F9FDFE" d="M344.443,257.137c-0.773,0-1.371-0.236-1.794-0.707c-0.422-0.471-0.633-1.12-0.633-1.946v-4.627h2.026
		v3.977c0,0.479,0.106,0.841,0.32,1.084c0.213,0.244,0.516,0.366,0.906,0.366c0.392,0,0.7-0.122,0.927-0.366
		c0.227-0.243,0.34-0.604,0.34-1.084v-3.977h2.027v7.146h-2.027v-1.021c-0.115,0.152-0.242,0.298-0.38,0.437
		s-0.291,0.262-0.46,0.369s-0.355,0.192-0.56,0.255C344.932,257.104,344.701,257.137,344.443,257.137z"/>
</g>
<g>
	<defs>
		<rect id="SVGID_1_" x="-183.82" y="-232.381" width="811.345" height="863.998"/>
	</defs>
	<clipPath id="SVGID_2_">
		<use xlink:href="#SVGID_1_"  overflow="visible"/>
	</clipPath>
	<path clip-path="url(#SVGID_2_)" fill="none" stroke="#C7C8CA" stroke-width="2.769" d="M166.502,197.224
		c0,45.596-36.969,82.561-82.566,82.561c-45.591,0-82.552-36.965-82.552-82.561c0-45.594,36.96-82.556,82.552-82.556
		C129.533,114.668,166.502,151.629,166.502,197.224z"/>
	<path clip-path="url(#SVGID_2_)" fill="#F79421" d="M88.071,146.838c0,2.281-1.859,4.143-4.14,4.143
		c-2.292,0-4.147-1.861-4.147-4.143c0-2.291,1.856-4.144,4.147-4.144C86.212,142.694,88.071,144.548,88.071,146.838"/>
	<path clip-path="url(#SVGID_2_)" fill="#C7C8CA" d="M87.964,165.838c0,2.286-1.856,4.139-4.145,4.139
		c-2.289,0-4.137-1.853-4.137-4.139c0-2.289,1.849-4.143,4.137-4.143C86.108,161.696,87.964,163.549,87.964,165.838"/>
	<path clip-path="url(#SVGID_2_)" fill="#C7C8CA" d="M99.157,168.534c0,2.282-1.852,4.139-4.143,4.139
		c-2.288,0-4.147-1.856-4.147-4.139c0-2.289,1.859-4.148,4.147-4.148C97.305,164.386,99.157,166.245,99.157,168.534"/>
	<path clip-path="url(#SVGID_2_)" fill="#C7C8CA" d="M108.837,174.771c0,2.288-1.852,4.143-4.14,4.143
		c-2.286,0-4.14-1.855-4.14-4.143c0-2.284,1.854-4.144,4.14-4.144C106.985,170.626,108.837,172.487,108.837,174.771"/>
	<path clip-path="url(#SVGID_2_)" fill="#C7C8CA" d="M115.949,184.674c0,2.286-1.861,4.141-4.149,4.141
		c-2.281,0-4.143-1.855-4.143-4.141c0-2.288,1.861-4.142,4.143-4.142C114.087,180.533,115.949,182.386,115.949,184.674"/>
	<path clip-path="url(#SVGID_2_)" fill="#C7C8CA" d="M118.542,195.198c0,2.288-1.849,4.143-4.14,4.143
		c-2.291,0-4.143-1.855-4.143-4.143c0-2.289,1.852-4.139,4.143-4.139C116.694,191.059,118.542,192.909,118.542,195.198"/>
	<path clip-path="url(#SVGID_2_)" fill="#C7C8CA" d="M88.331,126.221c0,2.284-1.85,4.144-4.139,4.144
		c-2.288,0-4.144-1.86-4.144-4.144c0-2.292,1.856-4.144,4.144-4.144C86.481,122.077,88.331,123.929,88.331,126.221"/>
	<path clip-path="url(#SVGID_2_)" fill="#C7C8CA" d="M100.818,127.941c0,2.289-1.854,4.143-4.144,4.143
		c-2.284,0-4.141-1.854-4.141-4.143c0-2.287,1.857-4.143,4.141-4.143C98.964,123.799,100.818,125.655,100.818,127.941"/>
	<path clip-path="url(#SVGID_2_)" fill="#C7C8CA" d="M113.304,131.768c0,2.284-1.852,4.139-4.143,4.139
		c-2.288,0-4.137-1.855-4.137-4.139c0-2.292,1.849-4.144,4.137-4.144C111.452,127.624,113.304,129.475,113.304,131.768"/>
	<path clip-path="url(#SVGID_2_)" fill="#F79421" d="M100.236,148.989c0,2.289-1.86,4.141-4.147,4.141
		c-2.283,0-4.141-1.852-4.141-4.141s1.858-4.145,4.141-4.145C98.376,144.844,100.236,146.7,100.236,148.989"/>
	<path clip-path="url(#SVGID_2_)" fill="#F79421" d="M111.432,153.72c0,2.291-1.863,4.148-4.144,4.148
		c-2.291,0-4.145-1.857-4.145-4.148c0-2.283,1.854-4.137,4.145-4.137C109.569,149.583,111.432,151.437,111.432,153.72"/>
	<path clip-path="url(#SVGID_2_)" fill="#F79421" d="M120.902,160.612c0,2.293-1.856,4.148-4.143,4.148
		c-2.292,0-4.14-1.854-4.14-4.148c0-2.288,1.848-4.145,4.14-4.145C119.046,156.467,120.902,158.325,120.902,160.612"/>
	<path clip-path="url(#SVGID_2_)" fill="none" stroke="#C7C8CA" stroke-width="2.769" d="M144.919,198.253
		c0,33.654-27.281,60.931-60.931,60.931c-33.651,0-60.932-27.277-60.932-60.931c0-33.646,27.281-60.935,60.932-60.935
		C117.638,137.319,144.919,164.607,144.919,198.253z"/>
	<path clip-path="url(#SVGID_2_)" fill="none" stroke="#C7C8CA" stroke-width="2.769" d="M125.709,198.6
		c0,23.19-18.799,41.984-41.985,41.984c-23.188,0-41.987-18.794-41.987-41.984c0-23.189,18.799-41.982,41.987-41.982
		C106.911,156.618,125.709,175.411,125.709,198.6z"/>
	<path clip-path="url(#SVGID_2_)" fill="none" stroke="#C7C8CA" stroke-width="2.683" d="M107.616,199.135
		c0,13.456-10.911,24.367-24.368,24.367c-13.466,0-24.376-10.911-24.376-24.367c0-13.462,10.911-24.378,24.376-24.378
		C96.705,174.757,107.616,185.673,107.616,199.135z"/>
	<path clip-path="url(#SVGID_2_)" fill="#F79421" d="M87.333,183.875c0,2.291-1.859,4.142-4.144,4.142
		c-2.291,0-4.146-1.851-4.146-4.142c0-2.292,1.854-4.139,4.146-4.139C85.474,179.736,87.333,181.583,87.333,183.875"/>
	<path clip-path="url(#SVGID_2_)" fill="#F79421" d="M97.336,188.932c0,2.282-1.854,4.141-4.146,4.141
		c-2.283,0-4.135-1.859-4.135-4.141c0-2.291,1.852-4.143,4.135-4.143C95.483,184.79,97.336,186.642,97.336,188.932"/>
	<path clip-path="url(#SVGID_2_)" fill="#F79421" d="M102.939,199.48c0,2.288-1.861,4.143-4.147,4.143
		c-2.287,0-4.14-1.855-4.14-4.143c0-2.286,1.853-4.141,4.14-4.141C101.078,195.339,102.939,197.194,102.939,199.48"/>
	<path clip-path="url(#SVGID_2_)" fill="#F79421" d="M98.247,210.535c0,2.29-1.851,4.146-4.141,4.146
		c-2.291,0-4.143-1.855-4.143-4.146c0-2.284,1.852-4.139,4.143-4.139C96.396,206.396,98.247,208.251,98.247,210.535"/>
</g>
<g>
	<path d="M63.457,196.393h0.574l1.829,2.74l1.829-2.74h0.574v5.02h-0.566v-4.066l-1.829,2.689h-0.029l-1.829-2.682v4.059h-0.552
		V196.393z"/>
	<path d="M70.011,202.582c-0.153,0-0.292-0.016-0.416-0.047s-0.249-0.077-0.373-0.14l0.187-0.438
		c0.091,0.048,0.181,0.083,0.269,0.104s0.192,0.032,0.312,0.032c0.167,0,0.308-0.051,0.423-0.151c0.115-0.1,0.227-0.282,0.337-0.545
		l-1.686-3.693h0.61l1.348,3.09l1.19-3.09H72.8l-1.556,3.83c-0.158,0.382-0.333,0.652-0.527,0.811
		C70.523,202.503,70.288,202.582,70.011,202.582z"/>
	<path d="M75.669,196.393h0.566v5.02h-0.566V196.393z"/>
	<path d="M77.461,197.706h0.552v0.646c0.124-0.201,0.287-0.372,0.488-0.513c0.201-0.141,0.461-0.212,0.781-0.212
		c0.225,0,0.424,0.036,0.599,0.108c0.174,0.072,0.323,0.173,0.444,0.305c0.122,0.131,0.215,0.288,0.28,0.47s0.097,0.382,0.097,0.603
		v2.302h-0.552v-2.161c0-0.343-0.089-0.615-0.266-0.815c-0.177-0.201-0.43-0.301-0.76-0.301c-0.158,0-0.305,0.027-0.441,0.083
		c-0.136,0.055-0.254,0.133-0.355,0.236c-0.1,0.103-0.178,0.226-0.233,0.369c-0.055,0.143-0.083,0.301-0.083,0.472v2.118h-0.552
		V197.706z"/>
	<path d="M81.729,197.706h0.552v0.646c0.124-0.201,0.287-0.372,0.488-0.513c0.201-0.141,0.461-0.212,0.781-0.212
		c0.225,0,0.424,0.036,0.599,0.108c0.174,0.072,0.323,0.173,0.444,0.305c0.122,0.131,0.215,0.288,0.28,0.47s0.097,0.382,0.097,0.603
		v2.302h-0.552v-2.161c0-0.343-0.089-0.615-0.266-0.815c-0.177-0.201-0.43-0.301-0.76-0.301c-0.158,0-0.305,0.027-0.441,0.083
		c-0.136,0.055-0.254,0.133-0.355,0.236c-0.1,0.103-0.178,0.226-0.233,0.369c-0.055,0.143-0.083,0.301-0.083,0.472v2.118h-0.552
		V197.706z"/>
	<path d="M86.318,199.785c0.019,0.196,0.067,0.371,0.143,0.523c0.077,0.153,0.175,0.282,0.294,0.388
		c0.119,0.104,0.253,0.185,0.401,0.24c0.148,0.055,0.304,0.082,0.466,0.082c0.258,0,0.479-0.048,0.663-0.144s0.353-0.222,0.505-0.38
		l0.344,0.309c-0.186,0.21-0.399,0.379-0.638,0.506c-0.239,0.126-0.535,0.189-0.889,0.189c-0.253,0-0.492-0.047-0.717-0.14
		c-0.225-0.094-0.421-0.225-0.588-0.395s-0.3-0.374-0.398-0.613c-0.098-0.239-0.147-0.502-0.147-0.789
		c0-0.268,0.044-0.52,0.133-0.757c0.088-0.236,0.211-0.442,0.369-0.617c0.158-0.174,0.345-0.312,0.563-0.412
		c0.217-0.101,0.456-0.151,0.713-0.151c0.272,0,0.517,0.052,0.731,0.154c0.215,0.103,0.397,0.243,0.545,0.419
		c0.148,0.177,0.26,0.385,0.337,0.624c0.076,0.239,0.115,0.495,0.115,0.768c0,0.024,0,0.051,0,0.083
		c0,0.031-0.002,0.068-0.007,0.111H86.318z M88.706,199.333c-0.014-0.167-0.05-0.324-0.107-0.474
		c-0.058-0.15-0.135-0.282-0.233-0.396c-0.098-0.114-0.218-0.204-0.359-0.271c-0.141-0.067-0.302-0.1-0.484-0.1
		c-0.158,0-0.306,0.031-0.445,0.093s-0.26,0.148-0.366,0.26c-0.105,0.112-0.192,0.244-0.262,0.396
		c-0.069,0.152-0.113,0.316-0.132,0.492H88.706z"/>
	<path d="M90.083,197.706h0.552v0.968c0.067-0.153,0.15-0.294,0.251-0.423c0.101-0.129,0.215-0.24,0.344-0.333
		s0.27-0.164,0.423-0.211c0.153-0.048,0.318-0.069,0.495-0.064v0.595h-0.043c-0.201,0-0.391,0.036-0.57,0.107
		s-0.336,0.179-0.47,0.323s-0.239,0.322-0.315,0.534c-0.077,0.213-0.115,0.458-0.115,0.735v1.477h-0.552V197.706z"/>
</g>
<g>
	<path d="M71.854,208.7c-0.364,0-0.698-0.066-1.004-0.2c-0.306-0.134-0.572-0.317-0.796-0.549c-0.225-0.232-0.4-0.506-0.527-0.821
		c-0.127-0.315-0.19-0.652-0.19-1.011v-0.015c0-0.354,0.063-0.688,0.19-1.004c0.126-0.315,0.302-0.592,0.527-0.828
		c0.225-0.237,0.493-0.424,0.803-0.56c0.311-0.137,0.65-0.204,1.019-0.204c0.229,0,0.436,0.019,0.62,0.057
		c0.184,0.039,0.355,0.093,0.513,0.162s0.304,0.152,0.438,0.251c0.134,0.098,0.263,0.206,0.387,0.326l-0.387,0.416
		c-0.215-0.201-0.446-0.366-0.692-0.495c-0.247-0.129-0.542-0.193-0.886-0.193c-0.277,0-0.534,0.053-0.771,0.157
		c-0.236,0.105-0.442,0.251-0.617,0.438s-0.311,0.405-0.409,0.656s-0.147,0.52-0.147,0.807v0.015c0,0.292,0.049,0.563,0.147,0.813
		s0.234,0.47,0.409,0.656s0.38,0.334,0.617,0.441c0.237,0.107,0.494,0.161,0.771,0.161c0.344,0,0.641-0.063,0.889-0.19
		c0.249-0.126,0.493-0.305,0.731-0.534l0.373,0.366c-0.129,0.134-0.264,0.255-0.405,0.362s-0.293,0.199-0.455,0.275
		c-0.163,0.077-0.337,0.137-0.524,0.18C72.292,208.679,72.083,208.7,71.854,208.7z"/>
	<path d="M74.622,203.487h0.631v0.609h-0.631V203.487z M74.658,204.907h0.552v3.707h-0.552V204.907z"/>
	<path d="M76.343,204.907h0.552v0.968c0.067-0.153,0.15-0.294,0.251-0.423c0.101-0.13,0.215-0.24,0.344-0.334
		c0.129-0.093,0.27-0.163,0.423-0.211c0.153-0.048,0.318-0.069,0.495-0.065v0.596h-0.043c-0.201,0-0.391,0.036-0.57,0.107
		c-0.179,0.072-0.336,0.18-0.47,0.323c-0.134,0.143-0.239,0.321-0.315,0.534c-0.077,0.212-0.115,0.457-0.115,0.734v1.478h-0.552
		V204.907z"/>
	<path d="M80.603,208.7c-0.272,0-0.525-0.052-0.756-0.154c-0.232-0.103-0.433-0.241-0.603-0.416
		c-0.17-0.174-0.302-0.379-0.398-0.613c-0.096-0.233-0.144-0.48-0.144-0.738v-0.015c0-0.263,0.048-0.511,0.144-0.745
		s0.228-0.44,0.398-0.617c0.169-0.177,0.371-0.316,0.603-0.419c0.231-0.104,0.484-0.154,0.756-0.154c0.177,0,0.337,0.017,0.48,0.05
		s0.275,0.08,0.395,0.14c0.119,0.061,0.229,0.131,0.33,0.212c0.101,0.081,0.194,0.167,0.28,0.258l-0.366,0.388
		c-0.148-0.153-0.31-0.284-0.484-0.395c-0.175-0.11-0.389-0.165-0.642-0.165c-0.187,0-0.361,0.037-0.523,0.111
		s-0.304,0.176-0.423,0.305c-0.12,0.129-0.213,0.281-0.28,0.455c-0.067,0.175-0.101,0.362-0.101,0.563v0.014
		c0,0.201,0.035,0.389,0.104,0.563s0.165,0.327,0.287,0.459c0.122,0.132,0.265,0.234,0.43,0.309s0.345,0.11,0.542,0.11
		c0.239,0,0.45-0.052,0.635-0.157c0.184-0.105,0.35-0.236,0.498-0.395l0.352,0.33c-0.187,0.21-0.398,0.383-0.635,0.517
		S80.952,208.7,80.603,208.7z"/>
	<path d="M82.926,203.379h0.552v5.235h-0.552V203.379z"/>
	<path d="M84.941,206.986c0.019,0.196,0.067,0.371,0.143,0.523c0.077,0.153,0.175,0.282,0.294,0.388
		c0.119,0.104,0.253,0.185,0.401,0.24c0.148,0.055,0.304,0.082,0.466,0.082c0.258,0,0.479-0.048,0.663-0.144s0.353-0.222,0.505-0.38
		l0.344,0.309c-0.186,0.21-0.399,0.379-0.638,0.506c-0.239,0.126-0.535,0.189-0.889,0.189c-0.253,0-0.492-0.047-0.717-0.14
		c-0.225-0.094-0.421-0.225-0.588-0.395s-0.3-0.374-0.398-0.613s-0.147-0.502-0.147-0.789c0-0.268,0.044-0.52,0.133-0.756
		c0.088-0.237,0.211-0.442,0.369-0.617c0.158-0.174,0.345-0.312,0.563-0.412c0.217-0.101,0.456-0.15,0.713-0.15
		c0.272,0,0.517,0.051,0.731,0.154c0.215,0.103,0.397,0.242,0.545,0.419c0.148,0.177,0.26,0.385,0.337,0.624
		c0.076,0.239,0.115,0.495,0.115,0.768c0,0.023,0,0.051,0,0.082s-0.002,0.068-0.007,0.111H84.941z M87.329,206.534
		c-0.014-0.166-0.05-0.324-0.107-0.474c-0.058-0.149-0.135-0.281-0.233-0.396c-0.098-0.114-0.218-0.205-0.359-0.271
		s-0.302-0.1-0.484-0.1c-0.158,0-0.306,0.031-0.445,0.093s-0.26,0.148-0.366,0.26c-0.105,0.112-0.192,0.244-0.262,0.396
		s-0.113,0.315-0.132,0.491H87.329z"/>
</g>
<g>
	<path d="M64.46,226.255h1.743c0.392,0,0.751,0.063,1.079,0.189c0.328,0.127,0.609,0.303,0.846,0.527s0.419,0.489,0.549,0.792
		c0.129,0.304,0.193,0.633,0.193,0.986v0.015c0,0.354-0.064,0.684-0.193,0.989c-0.129,0.307-0.312,0.571-0.549,0.796
		s-0.519,0.402-0.846,0.531s-0.687,0.193-1.079,0.193H64.46V226.255z M66.203,230.751c0.315,0,0.602-0.05,0.86-0.15
		s0.477-0.239,0.656-0.416s0.318-0.386,0.416-0.628c0.098-0.241,0.147-0.5,0.147-0.777v-0.015c0-0.277-0.049-0.537-0.147-0.778
		c-0.098-0.241-0.237-0.452-0.416-0.631c-0.179-0.18-0.398-0.32-0.656-0.423c-0.258-0.104-0.545-0.154-0.86-0.154h-1.176v3.973
		H66.203z"/>
	<path d="M70.104,229.646c0.019,0.196,0.067,0.371,0.143,0.523c0.077,0.153,0.175,0.282,0.294,0.388
		c0.119,0.104,0.253,0.185,0.401,0.24c0.148,0.055,0.304,0.082,0.466,0.082c0.258,0,0.479-0.048,0.663-0.144s0.353-0.222,0.505-0.38
		l0.344,0.309c-0.186,0.21-0.399,0.379-0.638,0.506c-0.239,0.126-0.535,0.189-0.889,0.189c-0.253,0-0.492-0.047-0.717-0.14
		c-0.225-0.094-0.421-0.225-0.588-0.395s-0.3-0.374-0.398-0.613s-0.147-0.502-0.147-0.789c0-0.268,0.044-0.52,0.133-0.756
		c0.088-0.237,0.211-0.442,0.369-0.617c0.158-0.174,0.345-0.312,0.563-0.412c0.217-0.101,0.456-0.15,0.713-0.15
		c0.272,0,0.517,0.051,0.731,0.154c0.215,0.103,0.397,0.242,0.545,0.419c0.148,0.177,0.26,0.385,0.337,0.624
		c0.076,0.239,0.115,0.495,0.115,0.768c0,0.023,0,0.051,0,0.082s-0.002,0.068-0.007,0.111H70.104z M72.492,229.194
		c-0.014-0.166-0.05-0.324-0.107-0.474c-0.058-0.149-0.135-0.281-0.233-0.396c-0.098-0.114-0.218-0.205-0.359-0.271
		s-0.302-0.1-0.484-0.1c-0.158,0-0.306,0.031-0.445,0.093s-0.26,0.148-0.366,0.26c-0.105,0.112-0.192,0.244-0.262,0.396
		s-0.113,0.315-0.132,0.491H72.492z"/>
	<path d="M73.826,227.567h0.552v0.745c0.076-0.109,0.161-0.215,0.254-0.315s0.197-0.188,0.312-0.262s0.243-0.134,0.384-0.179
		c0.141-0.046,0.297-0.068,0.47-0.068c0.22,0,0.436,0.043,0.649,0.129s0.403,0.212,0.57,0.376c0.167,0.165,0.301,0.366,0.401,0.603
		c0.101,0.237,0.15,0.509,0.15,0.814v0.014c0,0.302-0.05,0.571-0.15,0.811s-0.233,0.441-0.398,0.606s-0.354,0.291-0.566,0.38
		c-0.213,0.088-0.432,0.133-0.656,0.133c-0.172,0-0.33-0.021-0.473-0.064c-0.144-0.043-0.273-0.101-0.388-0.173
		c-0.115-0.071-0.218-0.155-0.312-0.251c-0.093-0.095-0.176-0.195-0.248-0.301v1.857h-0.552V227.567z M75.697,230.858
		c0.177,0,0.345-0.032,0.506-0.097c0.16-0.064,0.298-0.158,0.416-0.279c0.117-0.122,0.21-0.271,0.28-0.448s0.104-0.378,0.104-0.603
		v-0.015c0-0.22-0.035-0.418-0.104-0.595s-0.164-0.328-0.283-0.452s-0.258-0.22-0.416-0.287c-0.158-0.066-0.325-0.101-0.502-0.101
		c-0.172,0-0.338,0.035-0.498,0.104c-0.161,0.069-0.304,0.167-0.431,0.294c-0.126,0.127-0.227,0.277-0.301,0.452
		c-0.074,0.174-0.111,0.366-0.111,0.577v0.014c0,0.216,0.037,0.412,0.111,0.589c0.074,0.177,0.175,0.327,0.301,0.451
		c0.127,0.125,0.27,0.222,0.431,0.291C75.359,230.824,75.525,230.858,75.697,230.858z"/>
	<path d="M79.499,231.354c-0.172,0-0.342-0.024-0.509-0.072s-0.315-0.12-0.445-0.219c-0.129-0.098-0.233-0.219-0.312-0.361
		c-0.079-0.144-0.119-0.312-0.119-0.502v-0.015c0-0.201,0.039-0.377,0.115-0.527c0.077-0.15,0.186-0.276,0.326-0.376
		c0.141-0.101,0.309-0.177,0.502-0.229c0.193-0.053,0.407-0.079,0.642-0.079c0.239,0,0.446,0.014,0.62,0.043
		c0.175,0.028,0.346,0.066,0.513,0.114v-0.113c0-0.328-0.095-0.576-0.287-0.745c-0.191-0.168-0.461-0.253-0.811-0.253
		c-0.22,0-0.419,0.024-0.599,0.072s-0.355,0.112-0.527,0.193l-0.165-0.455c0.206-0.097,0.414-0.174,0.624-0.232
		c0.21-0.058,0.452-0.087,0.724-0.087c0.526,0,0.925,0.136,1.198,0.408c0.258,0.259,0.387,0.622,0.387,1.091v2.266h-0.545v-0.552
		c-0.129,0.167-0.302,0.314-0.52,0.44C80.095,231.29,79.823,231.354,79.499,231.354z M79.61,230.901
		c0.172,0,0.332-0.023,0.479-0.071c0.148-0.048,0.278-0.115,0.39-0.203s0.2-0.193,0.265-0.314c0.064-0.121,0.096-0.256,0.096-0.403
		v-0.343c-0.138-0.037-0.295-0.073-0.472-0.106s-0.379-0.05-0.607-0.05c-0.343,0-0.609,0.067-0.797,0.203
		c-0.188,0.136-0.282,0.315-0.282,0.539v0.014c0,0.114,0.025,0.218,0.075,0.311c0.05,0.093,0.118,0.17,0.204,0.232
		c0.086,0.062,0.185,0.109,0.297,0.143C79.368,230.885,79.486,230.901,79.61,230.901z"/>
	<path d="M82.345,227.567h0.552v0.968c0.067-0.153,0.15-0.294,0.251-0.423c0.101-0.13,0.215-0.24,0.344-0.334
		c0.129-0.093,0.27-0.163,0.423-0.211c0.153-0.048,0.318-0.069,0.495-0.065v0.596h-0.043c-0.201,0-0.391,0.036-0.57,0.107
		c-0.179,0.072-0.336,0.18-0.47,0.323c-0.134,0.143-0.239,0.321-0.315,0.534c-0.077,0.212-0.115,0.457-0.115,0.734v1.478h-0.552
		V227.567z"/>
	<path d="M86.296,231.339c-0.148,0-0.287-0.02-0.416-0.058s-0.24-0.099-0.333-0.183s-0.166-0.192-0.219-0.326
		s-0.079-0.294-0.079-0.48v-2.237h-0.517v-0.487h0.517v-1.119h0.552v1.119h1.176v0.487h-1.176v2.16c0,0.229,0.058,0.389,0.172,0.479
		c0.115,0.09,0.265,0.136,0.452,0.136c0.096,0,0.186-0.009,0.269-0.027s0.173-0.05,0.269-0.095v0.474
		c-0.096,0.052-0.197,0.092-0.305,0.118C86.551,231.326,86.43,231.339,86.296,231.339z"/>
	<path d="M87.759,227.567h0.552v0.623c0.062-0.091,0.13-0.179,0.204-0.265c0.074-0.086,0.159-0.162,0.255-0.227
		s0.203-0.115,0.323-0.154c0.119-0.038,0.258-0.057,0.416-0.057c0.301,0,0.549,0.07,0.746,0.211
		c0.196,0.142,0.344,0.317,0.445,0.527c0.067-0.101,0.142-0.196,0.226-0.287s0.178-0.169,0.283-0.236
		c0.105-0.066,0.224-0.119,0.355-0.158c0.131-0.038,0.279-0.057,0.441-0.057c0.43,0,0.767,0.133,1.011,0.397
		c0.244,0.266,0.366,0.63,0.366,1.094v2.295h-0.552v-2.161c0-0.357-0.084-0.633-0.254-0.826s-0.405-0.29-0.707-0.29
		c-0.139,0-0.27,0.025-0.394,0.075c-0.125,0.05-0.233,0.124-0.327,0.222c-0.093,0.098-0.167,0.219-0.222,0.361
		c-0.055,0.144-0.083,0.306-0.083,0.487v2.132h-0.545v-2.176c0-0.348-0.085-0.618-0.254-0.812c-0.17-0.193-0.403-0.29-0.699-0.29
		c-0.148,0-0.285,0.028-0.409,0.086c-0.125,0.058-0.233,0.139-0.327,0.243c-0.093,0.105-0.166,0.228-0.219,0.368
		c-0.052,0.142-0.079,0.298-0.079,0.469v2.111h-0.552V227.567z"/>
	<path d="M94.715,229.646c0.019,0.196,0.067,0.371,0.143,0.523c0.077,0.153,0.175,0.282,0.294,0.388
		c0.119,0.104,0.253,0.185,0.401,0.24c0.148,0.055,0.304,0.082,0.466,0.082c0.258,0,0.479-0.048,0.663-0.144s0.353-0.222,0.505-0.38
		l0.344,0.309c-0.186,0.21-0.399,0.379-0.638,0.506c-0.239,0.126-0.535,0.189-0.889,0.189c-0.253,0-0.492-0.047-0.717-0.14
		c-0.225-0.094-0.421-0.225-0.588-0.395s-0.3-0.374-0.398-0.613s-0.147-0.502-0.147-0.789c0-0.268,0.044-0.52,0.133-0.756
		c0.088-0.237,0.211-0.442,0.369-0.617c0.158-0.174,0.345-0.312,0.563-0.412c0.217-0.101,0.456-0.15,0.713-0.15
		c0.272,0,0.517,0.051,0.731,0.154c0.215,0.103,0.397,0.242,0.545,0.419c0.148,0.177,0.26,0.385,0.337,0.624
		c0.076,0.239,0.115,0.495,0.115,0.768c0,0.023,0,0.051,0,0.082s-0.002,0.068-0.007,0.111H94.715z M97.103,229.194
		c-0.014-0.166-0.05-0.324-0.107-0.474c-0.058-0.149-0.135-0.281-0.233-0.396c-0.098-0.114-0.218-0.205-0.359-0.271
		s-0.302-0.1-0.484-0.1c-0.158,0-0.306,0.031-0.445,0.093s-0.26,0.148-0.366,0.26c-0.105,0.112-0.192,0.244-0.262,0.396
		s-0.113,0.315-0.132,0.491H97.103z"/>
	<path d="M98.43,227.567h0.552v0.645c0.124-0.2,0.287-0.371,0.488-0.513c0.201-0.141,0.461-0.211,0.781-0.211
		c0.225,0,0.424,0.035,0.599,0.107c0.174,0.071,0.323,0.173,0.444,0.305c0.122,0.132,0.215,0.288,0.28,0.47s0.097,0.383,0.097,0.603
		v2.302h-0.552v-2.161c0-0.344-0.089-0.615-0.266-0.815s-0.43-0.301-0.76-0.301c-0.158,0-0.305,0.027-0.441,0.082
		c-0.136,0.056-0.254,0.134-0.355,0.236c-0.1,0.103-0.178,0.226-0.233,0.369c-0.055,0.143-0.083,0.3-0.083,0.472v2.118H98.43
		V227.567z"/>
	<path d="M103.895,231.339c-0.148,0-0.287-0.02-0.416-0.058s-0.24-0.099-0.333-0.183s-0.166-0.192-0.219-0.326
		s-0.079-0.294-0.079-0.48v-2.237h-0.517v-0.487h0.517v-1.119h0.552v1.119h1.176v0.487h-1.176v2.16c0,0.229,0.058,0.389,0.172,0.479
		c0.115,0.09,0.265,0.136,0.452,0.136c0.096,0,0.186-0.009,0.269-0.027s0.173-0.05,0.269-0.095v0.474
		c-0.096,0.052-0.197,0.092-0.305,0.118C104.149,231.326,104.028,231.339,103.895,231.339z"/>
</g>
<g>
	<path d="M71.703,251.21c-0.364,0-0.698-0.066-1.004-0.2c-0.306-0.134-0.572-0.317-0.796-0.549c-0.225-0.232-0.4-0.506-0.527-0.821
		c-0.127-0.315-0.19-0.652-0.19-1.011v-0.015c0-0.354,0.063-0.688,0.19-1.004c0.126-0.315,0.302-0.592,0.527-0.828
		c0.225-0.237,0.493-0.424,0.803-0.56c0.311-0.137,0.65-0.204,1.019-0.204c0.229,0,0.436,0.019,0.62,0.057
		c0.184,0.039,0.355,0.093,0.513,0.162s0.304,0.152,0.438,0.251c0.134,0.098,0.263,0.206,0.387,0.326l-0.387,0.416
		c-0.215-0.201-0.446-0.366-0.692-0.495c-0.247-0.129-0.542-0.193-0.886-0.193c-0.277,0-0.534,0.053-0.771,0.157
		c-0.236,0.105-0.442,0.251-0.617,0.438s-0.311,0.405-0.409,0.656s-0.147,0.52-0.147,0.807v0.015c0,0.292,0.049,0.563,0.147,0.813
		s0.234,0.47,0.409,0.656s0.38,0.334,0.617,0.441c0.237,0.107,0.494,0.161,0.771,0.161c0.344,0,0.641-0.063,0.889-0.19
		c0.249-0.126,0.493-0.305,0.731-0.534l0.373,0.366c-0.129,0.134-0.264,0.255-0.405,0.362s-0.293,0.199-0.455,0.275
		c-0.163,0.077-0.337,0.137-0.524,0.18C72.14,251.188,71.932,251.21,71.703,251.21z"/>
	<path d="M76.07,251.21c-0.277,0-0.533-0.052-0.767-0.154c-0.234-0.103-0.438-0.241-0.61-0.416
		c-0.172-0.174-0.306-0.377-0.401-0.609c-0.096-0.231-0.144-0.479-0.144-0.742v-0.015c0-0.263,0.048-0.511,0.144-0.745
		s0.229-0.44,0.401-0.617c0.172-0.177,0.376-0.316,0.613-0.419c0.237-0.104,0.496-0.154,0.778-0.154
		c0.277,0,0.535,0.051,0.771,0.154c0.237,0.103,0.441,0.241,0.613,0.416c0.172,0.174,0.306,0.377,0.401,0.609
		c0.096,0.231,0.144,0.479,0.144,0.742v0.014c0,0.264-0.049,0.512-0.147,0.746s-0.233,0.44-0.405,0.617
		c-0.172,0.177-0.377,0.316-0.617,0.419C76.605,251.158,76.347,251.21,76.07,251.21z M76.084,250.715
		c0.201,0,0.385-0.038,0.552-0.114s0.311-0.18,0.431-0.309c0.119-0.129,0.212-0.279,0.279-0.451
		c0.067-0.173,0.101-0.356,0.101-0.553v-0.015c0-0.2-0.035-0.388-0.104-0.563s-0.166-0.327-0.291-0.459s-0.27-0.235-0.438-0.312
		c-0.167-0.077-0.349-0.115-0.545-0.115c-0.201,0-0.385,0.038-0.552,0.115c-0.167,0.076-0.31,0.179-0.427,0.308
		c-0.117,0.13-0.209,0.281-0.276,0.456c-0.067,0.174-0.101,0.359-0.101,0.556v0.014c0,0.201,0.035,0.389,0.104,0.563
		s0.165,0.326,0.287,0.455c0.122,0.129,0.266,0.232,0.434,0.309S75.888,250.715,76.084,250.715z"/>
	<path d="M78.859,247.417h0.552v0.623c0.062-0.091,0.13-0.179,0.204-0.265c0.074-0.086,0.159-0.162,0.255-0.227
		s0.203-0.115,0.323-0.154c0.119-0.038,0.258-0.057,0.416-0.057c0.301,0,0.549,0.07,0.746,0.211
		c0.196,0.142,0.344,0.317,0.445,0.527c0.067-0.101,0.142-0.196,0.226-0.287s0.178-0.169,0.283-0.236
		c0.105-0.066,0.224-0.119,0.355-0.158c0.131-0.038,0.279-0.057,0.441-0.057c0.431,0,0.768,0.133,1.011,0.397
		c0.244,0.266,0.366,0.63,0.366,1.094v2.295h-0.552v-2.161c0-0.357-0.084-0.633-0.254-0.826s-0.405-0.29-0.707-0.29
		c-0.139,0-0.27,0.025-0.394,0.075c-0.125,0.05-0.233,0.124-0.327,0.222c-0.093,0.098-0.167,0.219-0.222,0.361
		c-0.055,0.144-0.083,0.306-0.083,0.487v2.132h-0.545v-2.176c0-0.348-0.085-0.618-0.254-0.812c-0.17-0.193-0.403-0.29-0.699-0.29
		c-0.148,0-0.285,0.028-0.409,0.086c-0.125,0.058-0.233,0.139-0.327,0.243c-0.093,0.105-0.166,0.228-0.219,0.368
		c-0.052,0.142-0.079,0.298-0.079,0.469v2.111h-0.552V247.417z"/>
	<path d="M85.528,247.417h0.552v0.745c0.076-0.109,0.161-0.215,0.254-0.315s0.197-0.188,0.312-0.262s0.243-0.134,0.384-0.179
		c0.141-0.046,0.297-0.068,0.47-0.068c0.22,0,0.436,0.043,0.649,0.129s0.403,0.212,0.57,0.376c0.167,0.165,0.301,0.366,0.401,0.603
		c0.101,0.237,0.15,0.509,0.15,0.814v0.014c0,0.302-0.05,0.571-0.15,0.811s-0.233,0.441-0.398,0.606s-0.354,0.291-0.566,0.38
		c-0.213,0.088-0.432,0.133-0.656,0.133c-0.172,0-0.33-0.021-0.473-0.064c-0.144-0.043-0.273-0.101-0.388-0.173
		c-0.115-0.071-0.218-0.155-0.312-0.251c-0.093-0.095-0.176-0.195-0.248-0.301v1.857h-0.552V247.417z M87.4,250.708
		c0.177,0,0.345-0.032,0.506-0.097c0.16-0.064,0.298-0.158,0.416-0.279c0.117-0.122,0.21-0.271,0.28-0.448s0.104-0.378,0.104-0.603
		v-0.015c0-0.22-0.035-0.418-0.104-0.595s-0.164-0.328-0.283-0.452s-0.258-0.22-0.416-0.287c-0.158-0.066-0.325-0.101-0.502-0.101
		c-0.172,0-0.338,0.035-0.498,0.104c-0.161,0.069-0.304,0.167-0.431,0.294c-0.126,0.127-0.227,0.277-0.301,0.452
		c-0.074,0.174-0.111,0.366-0.111,0.577v0.014c0,0.216,0.037,0.412,0.111,0.589c0.074,0.177,0.175,0.327,0.301,0.451
		c0.127,0.125,0.27,0.222,0.431,0.291C87.062,250.674,87.228,250.708,87.4,250.708z"/>
	<path d="M91.244,251.203c-0.172,0-0.342-0.024-0.509-0.072s-0.315-0.12-0.445-0.219c-0.129-0.098-0.233-0.219-0.312-0.361
		c-0.079-0.144-0.119-0.312-0.119-0.502v-0.015c0-0.201,0.039-0.377,0.115-0.527c0.077-0.15,0.186-0.276,0.326-0.376
		c0.141-0.101,0.309-0.177,0.502-0.229c0.193-0.053,0.407-0.079,0.642-0.079c0.239,0,0.446,0.014,0.62,0.043
		c0.175,0.028,0.346,0.066,0.513,0.114v-0.113c0-0.328-0.095-0.576-0.287-0.745c-0.191-0.168-0.461-0.253-0.811-0.253
		c-0.22,0-0.419,0.024-0.599,0.072s-0.355,0.112-0.527,0.193l-0.165-0.455c0.206-0.097,0.414-0.174,0.624-0.232
		c0.21-0.058,0.452-0.087,0.724-0.087c0.526,0,0.925,0.136,1.198,0.408c0.258,0.259,0.387,0.622,0.387,1.091v2.266h-0.545v-0.552
		c-0.129,0.167-0.302,0.314-0.52,0.44C91.84,251.14,91.568,251.203,91.244,251.203z M91.355,250.751
		c0.172,0,0.332-0.023,0.479-0.071c0.148-0.048,0.278-0.115,0.39-0.203s0.2-0.193,0.265-0.314c0.064-0.121,0.096-0.256,0.096-0.403
		v-0.343c-0.138-0.037-0.295-0.073-0.472-0.106s-0.379-0.05-0.607-0.05c-0.343,0-0.609,0.067-0.797,0.203
		c-0.188,0.136-0.282,0.315-0.282,0.539v0.014c0,0.114,0.025,0.218,0.075,0.311c0.05,0.093,0.118,0.17,0.204,0.232
		c0.086,0.062,0.185,0.109,0.297,0.143C91.113,250.734,91.231,250.751,91.355,250.751z"/>
	<path d="M94.134,247.417h0.552v0.645c0.124-0.2,0.287-0.371,0.488-0.513c0.201-0.141,0.461-0.211,0.781-0.211
		c0.225,0,0.424,0.035,0.599,0.107c0.174,0.071,0.323,0.173,0.444,0.305c0.122,0.132,0.215,0.288,0.28,0.47s0.097,0.383,0.097,0.603
		v2.302h-0.552v-2.161c0-0.344-0.089-0.615-0.266-0.815s-0.43-0.301-0.76-0.301c-0.158,0-0.305,0.027-0.441,0.082
		c-0.136,0.056-0.254,0.134-0.355,0.236c-0.1,0.103-0.178,0.226-0.233,0.369c-0.055,0.143-0.083,0.3-0.083,0.472v2.118h-0.552
		V247.417z"/>
	<path d="M98.867,252.293c-0.153,0-0.292-0.016-0.416-0.047s-0.249-0.077-0.373-0.14l0.187-0.438
		c0.091,0.048,0.181,0.083,0.269,0.104s0.192,0.032,0.312,0.032c0.167,0,0.308-0.051,0.423-0.151c0.115-0.1,0.227-0.282,0.337-0.545
		l-1.686-3.692h0.61l1.348,3.09l1.19-3.09h0.588l-1.556,3.829c-0.158,0.382-0.333,0.652-0.527,0.811
		C99.379,252.214,99.144,252.293,98.867,252.293z"/>
</g>
<g>
	<path d="M177.805,587.176h4.835v1.036h-3.696v1.68h3.276v1.036h-3.276v1.745h3.743v1.036h-4.881V587.176z"/>
	<path d="M185.113,591.208l-1.746-2.427h1.232l1.139,1.624l1.139-1.624h1.204l-1.745,2.398l1.82,2.529h-1.232l-1.213-1.727
		l-1.204,1.727h-1.204L185.113,591.208z"/>
	<path d="M190.61,593.793c-0.206,0-0.396-0.025-0.572-0.074c-0.176-0.05-0.328-0.131-0.456-0.243
		c-0.129-0.112-0.228-0.26-0.296-0.443c-0.069-0.184-0.104-0.412-0.104-0.686v-2.595h-0.625v-0.971h0.625v-1.354h1.139v1.354h1.325
		v0.971h-1.325v2.417c0,0.218,0.053,0.375,0.159,0.472c0.105,0.097,0.255,0.145,0.448,0.145c0.243,0,0.476-0.057,0.7-0.168v0.924
		c-0.144,0.081-0.296,0.144-0.458,0.187C191.008,593.771,190.822,593.793,190.61,593.793z"/>
	<path d="M194.698,593.821c-0.354,0-0.686-0.063-0.994-0.187c-0.308-0.125-0.576-0.299-0.803-0.523
		c-0.227-0.224-0.406-0.493-0.537-0.807c-0.131-0.314-0.196-0.661-0.196-1.041v-0.019c0-0.354,0.059-0.688,0.178-0.999
		c0.118-0.311,0.285-0.583,0.499-0.816c0.215-0.233,0.468-0.417,0.761-0.551s0.616-0.2,0.971-0.2c0.392,0,0.736,0.071,1.031,0.214
		c0.295,0.144,0.542,0.336,0.737,0.579c0.196,0.242,0.344,0.524,0.443,0.845s0.149,0.658,0.149,1.013
		c0,0.05-0.001,0.102-0.005,0.154c-0.003,0.053-0.008,0.106-0.014,0.163h-3.622c0.062,0.404,0.223,0.714,0.481,0.929
		c0.258,0.215,0.571,0.322,0.938,0.322c0.28,0,0.522-0.05,0.728-0.149c0.205-0.1,0.407-0.246,0.606-0.439l0.663,0.589
		c-0.236,0.279-0.518,0.504-0.845,0.672S195.152,593.821,194.698,593.821z M195.818,590.899c-0.019-0.18-0.059-0.35-0.121-0.509
		c-0.063-0.158-0.146-0.295-0.252-0.41c-0.106-0.115-0.232-0.207-0.378-0.275c-0.146-0.068-0.313-0.103-0.499-0.103
		c-0.349,0-0.636,0.12-0.863,0.359c-0.228,0.239-0.366,0.552-0.416,0.938H195.818z"/>
	<path d="M197.881,588.781h1.139v1.11c0.155-0.373,0.376-0.672,0.663-0.896c0.286-0.225,0.647-0.327,1.083-0.309v1.195h-0.065
		c-0.249,0-0.476,0.04-0.681,0.121c-0.206,0.081-0.383,0.202-0.532,0.363c-0.149,0.162-0.264,0.366-0.345,0.611
		c-0.081,0.246-0.121,0.531-0.121,0.854v1.876h-1.139V588.781z"/>
	<path d="M201.54,588.781h1.139v0.773c0.081-0.12,0.169-0.231,0.265-0.335s0.208-0.196,0.335-0.277
		c0.127-0.082,0.267-0.146,0.419-0.193s0.324-0.07,0.517-0.07c0.558,0,0.989,0.171,1.293,0.513c0.304,0.343,0.456,0.803,0.456,1.382
		v3.136h-1.139v-2.793c0-0.386-0.091-0.682-0.273-0.89s-0.439-0.313-0.772-0.313c-0.327,0-0.592,0.107-0.796,0.321
		c-0.204,0.215-0.305,0.515-0.305,0.898v2.775h-1.139V588.781z"/>
	<path d="M210.145,593.709v-0.606c-0.168,0.199-0.383,0.367-0.644,0.504s-0.579,0.205-0.952,0.205c-0.236,0-0.46-0.032-0.672-0.098
		s-0.396-0.162-0.555-0.289c-0.159-0.128-0.287-0.286-0.383-0.477c-0.097-0.189-0.145-0.409-0.145-0.658v-0.019
		c0-0.273,0.049-0.512,0.149-0.714s0.238-0.37,0.416-0.504s0.389-0.233,0.635-0.299c0.246-0.065,0.512-0.098,0.798-0.098
		c0.299,0,0.552,0.019,0.761,0.056s0.409,0.087,0.602,0.149v-0.094c0-0.342-0.104-0.603-0.313-0.783
		c-0.209-0.181-0.509-0.271-0.901-0.271c-0.28,0-0.529,0.028-0.747,0.084c-0.218,0.057-0.439,0.131-0.663,0.225l-0.308-0.905
		c0.273-0.125,0.554-0.225,0.84-0.299s0.631-0.112,1.036-0.112c0.734,0,1.279,0.183,1.633,0.546
		c0.354,0.364,0.532,0.876,0.532,1.536v2.921H210.145z M210.173,591.646c-0.143-0.057-0.313-0.103-0.509-0.141
		c-0.196-0.037-0.403-0.056-0.621-0.056c-0.354,0-0.631,0.068-0.831,0.205c-0.199,0.138-0.299,0.324-0.299,0.561v0.019
		c0,0.236,0.092,0.417,0.275,0.541c0.184,0.125,0.409,0.187,0.677,0.187c0.187,0,0.359-0.024,0.518-0.074s0.297-0.12,0.415-0.21
		s0.21-0.199,0.275-0.327c0.065-0.127,0.098-0.269,0.098-0.424V591.646z"/>
	<path d="M212.478,586.896h1.138v6.813h-1.138V586.896z"/>
</g>
<g>
	<path d="M298.109,20.957h-2.507v-0.779h5.856v0.779h-2.507v6.688h-0.843V20.957z"/>
	<path d="M303.208,27.762c-0.256,0-0.508-0.036-0.757-0.106c-0.249-0.071-0.47-0.18-0.661-0.325
		c-0.192-0.146-0.347-0.326-0.464-0.539c-0.118-0.213-0.177-0.462-0.177-0.747v-0.021c0-0.299,0.058-0.56,0.171-0.784
		c0.114-0.224,0.275-0.411,0.485-0.56s0.459-0.263,0.747-0.341s0.605-0.117,0.954-0.117c0.355,0,0.663,0.021,0.923,0.064
		c0.26,0.042,0.514,0.1,0.763,0.17v-0.169c0-0.487-0.143-0.856-0.427-1.107s-0.687-0.376-1.205-0.376
		c-0.327,0-0.624,0.036-0.891,0.107c-0.267,0.071-0.528,0.167-0.784,0.288l-0.245-0.676c0.306-0.144,0.615-0.259,0.928-0.346
		c0.313-0.086,0.672-0.13,1.077-0.13c0.782,0,1.376,0.203,1.781,0.608c0.385,0.384,0.576,0.925,0.576,1.622v3.371h-0.811v-0.821
		c-0.192,0.249-0.45,0.468-0.773,0.656C304.096,27.667,303.692,27.762,303.208,27.762z M303.374,27.09
		c0.256,0,0.493-0.035,0.713-0.106s0.413-0.172,0.579-0.303c0.167-0.131,0.298-0.287,0.394-0.467c0.096-0.18,0.144-0.38,0.144-0.6
		v-0.51c-0.206-0.056-0.439-0.109-0.702-0.159c-0.262-0.049-0.563-0.074-0.903-0.074c-0.51,0-0.905,0.101-1.186,0.303
		s-0.42,0.469-0.42,0.801v0.021c0,0.17,0.037,0.324,0.112,0.461c0.074,0.138,0.175,0.253,0.303,0.345
		c0.127,0.092,0.274,0.163,0.441,0.212C303.015,27.065,303.19,27.09,303.374,27.09z"/>
	<path d="M307.741,22.13h0.821v1.44c0.1-0.228,0.225-0.438,0.374-0.629s0.319-0.357,0.512-0.496s0.401-0.243,0.629-0.314
		c0.228-0.071,0.474-0.103,0.736-0.096v0.886h-0.063c-0.299,0-0.582,0.053-0.849,0.16c-0.267,0.107-0.499,0.267-0.698,0.48
		s-0.355,0.479-0.47,0.795c-0.113,0.316-0.171,0.681-0.171,1.093v2.197h-0.821V22.13z"/>
	<path d="M314.291,29.373c-0.463,0-0.903-0.064-1.323-0.192s-0.814-0.32-1.184-0.576l0.373-0.64c0.32,0.228,0.654,0.402,1.003,0.523
		c0.349,0.121,0.722,0.181,1.12,0.181c0.611,0,1.099-0.165,1.461-0.496c0.362-0.331,0.544-0.819,0.544-1.466v-0.651
		c-0.241,0.32-0.537,0.594-0.885,0.821c-0.349,0.228-0.775,0.341-1.28,0.341c-0.334,0-0.656-0.06-0.966-0.181
		c-0.309-0.121-0.585-0.293-0.826-0.518c-0.242-0.224-0.436-0.494-0.581-0.811c-0.146-0.316-0.219-0.674-0.219-1.072v-0.021
		c0-0.405,0.072-0.768,0.219-1.088c0.146-0.32,0.339-0.592,0.581-0.816c0.241-0.224,0.519-0.396,0.832-0.518
		c0.313-0.121,0.633-0.181,0.96-0.181c0.256,0,0.492,0.03,0.709,0.09c0.217,0.061,0.412,0.141,0.587,0.24
		c0.174,0.1,0.332,0.217,0.475,0.352s0.271,0.277,0.384,0.427V22.13h0.821v4.555c0,0.427-0.061,0.802-0.181,1.125
		c-0.121,0.323-0.296,0.599-0.523,0.827c-0.249,0.249-0.551,0.434-0.906,0.555C315.13,29.312,314.731,29.373,314.291,29.373z
		 M314.28,26.493c0.263,0,0.516-0.044,0.757-0.133c0.242-0.089,0.457-0.217,0.646-0.384c0.188-0.167,0.34-0.364,0.453-0.592
		c0.114-0.228,0.171-0.48,0.171-0.757v-0.021c0-0.284-0.057-0.541-0.171-0.768c-0.113-0.228-0.265-0.423-0.453-0.586
		s-0.403-0.29-0.646-0.379c-0.241-0.089-0.494-0.133-0.757-0.133c-0.264,0-0.511,0.044-0.741,0.133
		c-0.231,0.089-0.435,0.213-0.608,0.374c-0.175,0.16-0.312,0.354-0.411,0.581c-0.1,0.228-0.148,0.484-0.148,0.768v0.021
		c0,0.277,0.051,0.532,0.154,0.763c0.103,0.231,0.241,0.428,0.416,0.592c0.174,0.164,0.377,0.292,0.608,0.384
		C313.78,26.446,314.024,26.493,314.28,26.493z"/>
	<path d="M319.421,25.223c0.028,0.292,0.1,0.551,0.213,0.779c0.114,0.228,0.26,0.419,0.438,0.576
		c0.178,0.157,0.377,0.276,0.598,0.357c0.22,0.082,0.451,0.123,0.693,0.123c0.384,0,0.713-0.071,0.986-0.213
		c0.273-0.143,0.524-0.331,0.752-0.565l0.512,0.458c-0.277,0.313-0.594,0.564-0.949,0.752c-0.355,0.188-0.796,0.283-1.322,0.283
		c-0.377,0-0.732-0.069-1.066-0.208c-0.335-0.139-0.626-0.334-0.875-0.586s-0.446-0.557-0.592-0.912
		c-0.146-0.355-0.219-0.747-0.219-1.173c0-0.398,0.065-0.773,0.197-1.125s0.314-0.658,0.549-0.917
		c0.235-0.26,0.514-0.464,0.838-0.614c0.323-0.149,0.677-0.224,1.062-0.224c0.405,0,0.768,0.076,1.088,0.229
		c0.319,0.153,0.59,0.361,0.811,0.624c0.22,0.263,0.388,0.573,0.501,0.928c0.114,0.355,0.171,0.736,0.171,1.141
		c0,0.036,0,0.077,0,0.123c0,0.046-0.004,0.101-0.011,0.165H319.421z M322.973,24.551c-0.021-0.248-0.074-0.482-0.16-0.705
		c-0.085-0.223-0.201-0.419-0.347-0.589c-0.146-0.169-0.323-0.304-0.533-0.403s-0.45-0.148-0.72-0.148
		c-0.235,0-0.455,0.046-0.661,0.138c-0.207,0.092-0.388,0.221-0.544,0.387c-0.157,0.166-0.287,0.362-0.39,0.588
		c-0.104,0.227-0.169,0.47-0.197,0.732H322.973z"/>
	<path d="M327.09,27.741c-0.221,0-0.427-0.029-0.619-0.085c-0.191-0.057-0.356-0.147-0.495-0.272s-0.248-0.286-0.326-0.485
		s-0.117-0.438-0.117-0.715v-3.328h-0.768V22.13h0.768v-1.664h0.821v1.664h1.75v0.725h-1.75v3.213c0,0.34,0.086,0.578,0.256,0.713
		c0.171,0.135,0.396,0.202,0.673,0.202c0.142,0,0.275-0.014,0.399-0.041s0.258-0.074,0.4-0.141v0.704
		c-0.143,0.078-0.294,0.137-0.453,0.176C327.469,27.721,327.289,27.741,327.09,27.741z"/>
	<path d="M335.655,20.125h0.79l3.402,7.52h-0.907l-0.874-1.973h-4.064l-0.885,1.973h-0.864L335.655,20.125z M337.735,24.914
		l-1.695-3.808l-1.707,3.808H337.735z"/>
	<path d="M343.111,27.762c-0.335,0-0.632-0.053-0.891-0.16c-0.26-0.107-0.48-0.258-0.662-0.454
		c-0.181-0.195-0.319-0.428-0.416-0.699c-0.096-0.27-0.144-0.569-0.144-0.896V22.13h0.821v3.214c0,0.511,0.132,0.916,0.395,1.213
		s0.641,0.447,1.131,0.447c0.234,0,0.453-0.041,0.656-0.122c0.202-0.082,0.377-0.199,0.522-0.352
		c0.146-0.152,0.262-0.335,0.347-0.548s0.128-0.447,0.128-0.703v-3.15h0.811v5.515h-0.811v-0.96
		c-0.185,0.299-0.427,0.553-0.726,0.763C343.975,27.657,343.587,27.762,343.111,27.762z"/>
	<path d="M349.971,27.762c-0.335,0-0.658-0.064-0.971-0.192c-0.313-0.128-0.594-0.314-0.843-0.56
		c-0.249-0.245-0.448-0.544-0.598-0.896s-0.224-0.755-0.224-1.21v-0.021c0-0.448,0.074-0.85,0.224-1.205
		c0.149-0.356,0.349-0.656,0.598-0.901c0.249-0.246,0.529-0.434,0.843-0.565c0.313-0.131,0.636-0.197,0.971-0.197
		c0.256,0,0.49,0.032,0.703,0.096c0.214,0.064,0.406,0.149,0.576,0.256c0.171,0.106,0.325,0.231,0.464,0.373
		c0.139,0.143,0.262,0.292,0.368,0.448v-3.328h0.821v7.787h-0.821v-1.109c-0.113,0.164-0.24,0.32-0.379,0.469
		s-0.293,0.281-0.464,0.395c-0.17,0.114-0.36,0.203-0.57,0.267S350.227,27.762,349.971,27.762z M350.119,27.026
		c0.257,0,0.504-0.051,0.742-0.155c0.237-0.103,0.451-0.249,0.64-0.437s0.338-0.413,0.448-0.672c0.11-0.259,0.165-0.549,0.165-0.869
		v-0.021c0-0.32-0.055-0.609-0.165-0.869s-0.26-0.482-0.448-0.667c-0.188-0.185-0.402-0.329-0.64-0.432
		c-0.238-0.103-0.485-0.155-0.742-0.155c-0.27,0-0.522,0.048-0.757,0.144s-0.439,0.235-0.613,0.416
		c-0.175,0.181-0.313,0.404-0.416,0.667c-0.104,0.263-0.154,0.562-0.154,0.896v0.021c0,0.327,0.051,0.622,0.154,0.885
		c0.103,0.263,0.243,0.487,0.421,0.672c0.178,0.185,0.385,0.327,0.619,0.427S349.856,27.026,350.119,27.026z"/>
	<path d="M354.759,20.018h0.938v0.906h-0.938V20.018z M354.813,22.13h0.821v5.515h-0.821V22.13z"/>
	<path d="M358.034,25.223c0.028,0.292,0.1,0.551,0.213,0.779c0.114,0.228,0.26,0.419,0.438,0.576
		c0.178,0.157,0.377,0.276,0.598,0.357c0.22,0.082,0.451,0.123,0.693,0.123c0.384,0,0.713-0.071,0.986-0.213
		c0.273-0.143,0.524-0.331,0.752-0.565l0.512,0.458c-0.277,0.313-0.594,0.564-0.949,0.752c-0.355,0.188-0.796,0.283-1.322,0.283
		c-0.377,0-0.732-0.069-1.066-0.208c-0.335-0.139-0.626-0.334-0.875-0.586s-0.446-0.557-0.592-0.912
		c-0.146-0.355-0.219-0.747-0.219-1.173c0-0.398,0.065-0.773,0.197-1.125s0.314-0.658,0.549-0.917
		c0.235-0.26,0.514-0.464,0.838-0.614c0.323-0.149,0.677-0.224,1.062-0.224c0.405,0,0.768,0.076,1.088,0.229
		c0.319,0.153,0.59,0.361,0.811,0.624c0.22,0.263,0.388,0.573,0.501,0.928c0.114,0.355,0.171,0.736,0.171,1.141
		c0,0.036,0,0.077,0,0.123c0,0.046-0.004,0.101-0.011,0.165H358.034z M361.586,24.551c-0.021-0.248-0.074-0.482-0.16-0.705
		c-0.085-0.223-0.201-0.419-0.347-0.589c-0.146-0.169-0.323-0.304-0.533-0.403s-0.45-0.148-0.72-0.148
		c-0.235,0-0.455,0.046-0.661,0.138c-0.207,0.092-0.388,0.221-0.544,0.387c-0.157,0.166-0.287,0.362-0.39,0.588
		c-0.104,0.227-0.169,0.47-0.197,0.732H361.586z"/>
	<path d="M363.857,22.13h0.821v0.96c0.186-0.299,0.427-0.553,0.726-0.763c0.299-0.209,0.687-0.314,1.163-0.314
		c0.334,0,0.631,0.053,0.891,0.16c0.259,0.107,0.479,0.258,0.661,0.454s0.32,0.428,0.416,0.699c0.096,0.27,0.144,0.569,0.144,0.896
		v3.424h-0.821V24.43c0-0.511-0.131-0.916-0.395-1.213c-0.263-0.298-0.64-0.447-1.131-0.447c-0.234,0-0.453,0.041-0.655,0.123
		c-0.203,0.082-0.379,0.198-0.528,0.351c-0.149,0.152-0.265,0.335-0.347,0.548c-0.082,0.213-0.123,0.447-0.123,0.703v3.15h-0.821
		V22.13z"/>
	<path d="M372.913,27.772c-0.405,0-0.78-0.077-1.125-0.229s-0.644-0.359-0.896-0.619c-0.252-0.259-0.449-0.563-0.592-0.912
		c-0.142-0.349-0.213-0.715-0.213-1.099v-0.021c0-0.391,0.071-0.761,0.213-1.109c0.143-0.348,0.34-0.654,0.592-0.917
		c0.253-0.263,0.552-0.471,0.896-0.624c0.345-0.153,0.72-0.229,1.125-0.229c0.264,0,0.502,0.025,0.715,0.075
		c0.214,0.05,0.409,0.119,0.587,0.208s0.341,0.194,0.49,0.314c0.149,0.121,0.288,0.249,0.416,0.384l-0.544,0.576
		c-0.221-0.228-0.46-0.423-0.72-0.586s-0.578-0.246-0.955-0.246c-0.277,0-0.536,0.055-0.778,0.166s-0.451,0.261-0.629,0.453
		s-0.316,0.418-0.416,0.677c-0.1,0.26-0.149,0.539-0.149,0.837v0.021c0,0.299,0.051,0.578,0.154,0.837s0.245,0.487,0.427,0.683
		s0.395,0.349,0.64,0.458c0.246,0.11,0.514,0.166,0.806,0.166c0.355,0,0.67-0.078,0.944-0.235c0.273-0.156,0.521-0.352,0.741-0.586
		l0.522,0.491c-0.277,0.313-0.592,0.569-0.944,0.768C373.868,27.673,373.433,27.772,372.913,27.772z"/>
	<path d="M376.86,25.223c0.028,0.292,0.1,0.551,0.213,0.779c0.114,0.228,0.26,0.419,0.438,0.576
		c0.178,0.157,0.377,0.276,0.598,0.357c0.22,0.082,0.451,0.123,0.693,0.123c0.384,0,0.713-0.071,0.986-0.213
		c0.273-0.143,0.524-0.331,0.752-0.565l0.512,0.458c-0.277,0.313-0.594,0.564-0.949,0.752c-0.355,0.188-0.796,0.283-1.322,0.283
		c-0.377,0-0.732-0.069-1.066-0.208c-0.335-0.139-0.626-0.334-0.875-0.586s-0.446-0.557-0.592-0.912
		c-0.146-0.355-0.219-0.747-0.219-1.173c0-0.398,0.065-0.773,0.197-1.125s0.314-0.658,0.549-0.917
		c0.235-0.26,0.514-0.464,0.838-0.614c0.323-0.149,0.677-0.224,1.062-0.224c0.405,0,0.768,0.076,1.088,0.229
		c0.319,0.153,0.59,0.361,0.811,0.624c0.22,0.263,0.388,0.573,0.501,0.928c0.114,0.355,0.171,0.736,0.171,1.141
		c0,0.036,0,0.077,0,0.123c0,0.046-0.004,0.101-0.011,0.165H376.86z M380.412,24.551c-0.021-0.248-0.074-0.482-0.16-0.705
		c-0.085-0.223-0.201-0.419-0.347-0.589c-0.146-0.169-0.323-0.304-0.533-0.403s-0.45-0.148-0.72-0.148
		c-0.235,0-0.455,0.046-0.661,0.138c-0.207,0.092-0.388,0.221-0.544,0.387c-0.157,0.166-0.287,0.362-0.39,0.588
		c-0.104,0.227-0.169,0.47-0.197,0.732H380.412z"/>
</g>
<g>
	<path d="M69.791,265.916h3.628v0.509h-3.062v1.729h2.739v0.509h-2.739v1.765h3.098v0.509h-3.665V265.916z"/>
	<path d="M75.47,269.05l-1.398-1.821h0.631l1.097,1.434l1.097-1.434h0.617l-1.406,1.807l1.463,1.9h-0.638l-1.147-1.513l-1.154,1.513
		h-0.617L75.47,269.05z"/>
	<path d="M79.558,271c-0.148,0-0.287-0.02-0.416-0.058s-0.24-0.099-0.333-0.183s-0.166-0.192-0.219-0.326s-0.079-0.294-0.079-0.48
		v-2.237h-0.517v-0.487h0.517v-1.119h0.552v1.119h1.176v0.487h-1.176v2.16c0,0.229,0.058,0.389,0.172,0.479
		c0.115,0.09,0.265,0.136,0.452,0.136c0.096,0,0.186-0.009,0.269-0.027s0.173-0.05,0.269-0.095v0.474
		c-0.096,0.052-0.197,0.092-0.305,0.118C79.812,270.987,79.691,271,79.558,271z"/>
	<path d="M81.286,269.308c0.019,0.196,0.067,0.371,0.143,0.523c0.077,0.153,0.175,0.282,0.294,0.388
		c0.119,0.104,0.253,0.185,0.401,0.24c0.148,0.055,0.304,0.082,0.466,0.082c0.258,0,0.479-0.048,0.663-0.144s0.353-0.222,0.505-0.38
		l0.344,0.309c-0.186,0.21-0.399,0.379-0.638,0.506c-0.239,0.126-0.535,0.189-0.889,0.189c-0.253,0-0.492-0.047-0.717-0.14
		c-0.225-0.094-0.421-0.225-0.588-0.395s-0.3-0.374-0.398-0.613s-0.147-0.502-0.147-0.789c0-0.268,0.044-0.52,0.133-0.756
		c0.088-0.237,0.211-0.442,0.369-0.617c0.158-0.174,0.345-0.312,0.563-0.412c0.217-0.101,0.456-0.15,0.713-0.15
		c0.272,0,0.517,0.051,0.731,0.154c0.215,0.103,0.397,0.242,0.545,0.419c0.148,0.177,0.26,0.385,0.337,0.624
		c0.076,0.239,0.115,0.495,0.115,0.768c0,0.023,0,0.051,0,0.082s-0.002,0.068-0.007,0.111H81.286z M83.674,268.855
		c-0.014-0.166-0.05-0.324-0.107-0.474c-0.058-0.149-0.135-0.281-0.233-0.396c-0.098-0.114-0.218-0.205-0.359-0.271
		s-0.302-0.1-0.484-0.1c-0.158,0-0.306,0.031-0.445,0.093s-0.26,0.148-0.366,0.26c-0.105,0.112-0.192,0.244-0.262,0.396
		s-0.113,0.315-0.132,0.491H83.674z"/>
	<path d="M85.043,267.229h0.552v0.968c0.067-0.153,0.15-0.294,0.251-0.423c0.101-0.13,0.215-0.24,0.344-0.334
		c0.129-0.093,0.27-0.163,0.423-0.211c0.153-0.048,0.318-0.069,0.495-0.065v0.596h-0.043c-0.201,0-0.391,0.036-0.57,0.107
		c-0.179,0.072-0.336,0.18-0.47,0.323c-0.134,0.143-0.239,0.321-0.315,0.534c-0.077,0.212-0.115,0.457-0.115,0.734v1.478h-0.552
		V267.229z"/>
	<path d="M87.797,267.229h0.552v0.645c0.124-0.2,0.287-0.371,0.488-0.513c0.201-0.141,0.461-0.211,0.781-0.211
		c0.225,0,0.424,0.035,0.599,0.107c0.174,0.071,0.323,0.173,0.444,0.305c0.122,0.132,0.215,0.288,0.28,0.47s0.097,0.383,0.097,0.603
		v2.302h-0.552v-2.161c0-0.344-0.089-0.615-0.266-0.815s-0.43-0.301-0.76-0.301c-0.158,0-0.305,0.027-0.441,0.082
		c-0.136,0.056-0.254,0.134-0.355,0.236c-0.1,0.103-0.178,0.226-0.233,0.369c-0.055,0.143-0.083,0.3-0.083,0.472v2.118h-0.552
		V267.229z"/>
	<path d="M93.168,271.015c-0.172,0-0.342-0.024-0.509-0.072s-0.315-0.12-0.445-0.219c-0.129-0.098-0.233-0.219-0.312-0.361
		c-0.079-0.144-0.119-0.312-0.119-0.502v-0.015c0-0.201,0.039-0.377,0.115-0.527c0.077-0.15,0.186-0.276,0.326-0.376
		c0.141-0.101,0.309-0.177,0.502-0.229c0.193-0.053,0.407-0.079,0.642-0.079c0.239,0,0.446,0.014,0.62,0.043
		c0.175,0.028,0.346,0.066,0.513,0.114v-0.113c0-0.328-0.095-0.576-0.287-0.745c-0.191-0.168-0.461-0.253-0.811-0.253
		c-0.22,0-0.419,0.024-0.599,0.072s-0.355,0.112-0.527,0.193l-0.165-0.455c0.206-0.097,0.414-0.174,0.624-0.232
		c0.21-0.058,0.452-0.087,0.724-0.087c0.526,0,0.925,0.136,1.198,0.408c0.258,0.259,0.387,0.622,0.387,1.091v2.266h-0.545v-0.552
		c-0.129,0.167-0.302,0.314-0.52,0.44C93.765,270.951,93.493,271.015,93.168,271.015z M93.28,270.563
		c0.172,0,0.332-0.023,0.479-0.071c0.148-0.048,0.278-0.115,0.39-0.203s0.2-0.193,0.265-0.314c0.064-0.121,0.096-0.256,0.096-0.403
		v-0.343c-0.138-0.037-0.295-0.073-0.472-0.106s-0.379-0.05-0.607-0.05c-0.343,0-0.609,0.067-0.797,0.203
		c-0.188,0.136-0.282,0.315-0.282,0.539v0.014c0,0.114,0.025,0.218,0.075,0.311c0.05,0.093,0.118,0.17,0.204,0.232
		c0.086,0.062,0.185,0.109,0.297,0.143C93.038,270.546,93.156,270.563,93.28,270.563z"/>
	<path d="M96.108,265.7h0.552v5.235h-0.552V265.7z"/>
</g>
</svg>
