<?xml version="1.0" encoding="utf-8"?>
<!-- Generator: Adobe Illustrator 15.1.0, SVG Export Plug-In . SVG Version: 6.00 Build 0)  -->
<!DOCTYPE svg PUBLIC "-//W3C//DTD SVG 1.1//EN" "http://www.w3.org/Graphics/SVG/1.1/DTD/svg11.dtd">
<svg version="1.1" id="Layer_1" xmlns="http://www.w3.org/2000/svg" xmlns:xlink="http://www.w3.org/1999/xlink" x="0px" y="0px"
	 width="496.21px" height="265.335px" viewBox="0 0 496.21 265.335" enable-background="new 0 0 496.21 265.335"
	 xml:space="preserve">
<rect x="99.659" y="32.882" fill="#C7C8CA" width="96.157" height="43.565"/>
<rect x="199.699" y="32.882" fill="#E4E5E6" width="96.155" height="43.565"/>
<rect x="299.736" y="32.882" fill="#C7C8CA" width="96.158" height="43.565"/>
<rect x="99.659" fill="#58595B" width="96.157" height="29.561"/>
<rect x="199.699" fill="#F79421" width="96.155" height="29.561"/>
<rect y="32.882" fill="#E4E5E6" width="96.156" height="43.565"/>
<rect fill="#F79421" width="96.156" height="29.561"/>
<rect x="400.055" y="32.882" fill="#E4E5E6" width="96.155" height="43.565"/>
<rect x="99.659" y="79.995" fill="#C7C8CA" width="96.157" height="43.563"/>
<rect x="199.699" y="79.995" fill="#E4E5E6" width="96.155" height="43.563"/>
<rect x="299.736" y="79.995" fill="#C7C8CA" width="96.158" height="43.563"/>
<rect y="79.995" fill="#E4E5E6" width="96.156" height="43.563"/>
<rect x="400.055" y="79.995" fill="#E4E5E6" width="96.155" height="43.563"/>
<rect x="99.659" y="127.105" fill="#C7C8CA" width="96.157" height="43.563"/>
<rect x="199.699" y="127.105" fill="#E4E5E6" width="96.155" height="43.563"/>
<rect x="299.736" y="127.105" fill="#C7C8CA" width="96.158" height="43.563"/>
<rect y="127.105" fill="#E4E5E6" width="96.156" height="43.563"/>
<rect x="400.055" y="127.105" fill="#E4E5E6" width="96.155" height="43.563"/>
<rect x="99.659" y="174.215" fill="#C7C8CA" width="96.157" height="43.565"/>
<rect x="199.699" y="174.215" fill="#E4E5E6" width="96.155" height="43.565"/>
<rect x="299.736" y="174.215" fill="#C7C8CA" width="96.158" height="43.565"/>
<rect y="174.215" fill="#E4E5E6" width="96.156" height="43.565"/>
<rect x="400.055" y="174.215" fill="#E4E5E6" width="96.155" height="43.565"/>
<rect x="99.659" y="221.77" fill="#C7C8CA" width="96.157" height="43.565"/>
<rect x="199.699" y="221.77" fill="#E4E5E6" width="96.155" height="43.565"/>
<rect x="299.736" y="221.77" fill="#C7C8CA" width="96.158" height="43.565"/>
<rect y="221.77" fill="#E4E5E6" width="96.156" height="43.565"/>
<rect x="400.055" y="221.77" fill="#E4E5E6" width="96.155" height="43.565"/>
<rect x="400.055" fill="#F79421" width="96.155" height="29.561"/>
<rect x="299.736" fill="#58595B" width="96.158" height="29.561"/>
<g>
	<path d="M12.643,44.578l-1.408,0.438l-0.203-0.683l1.827-0.629h0.626v7.52h-0.843V44.578z"/>
</g>
<g>
	<path fill="#808285" d="M44.668-58.096h-1.88v-0.584h4.392v0.584H45.3v5.016h-0.632V-58.096z"/>
	<path fill="#808285" d="M50.228-52.983c-0.31,0-0.595-0.058-0.856-0.172c-0.262-0.114-0.488-0.269-0.68-0.464
		s-0.341-0.421-0.448-0.68c-0.106-0.258-0.16-0.534-0.16-0.828v-0.016c0-0.293,0.053-0.571,0.16-0.832
		c0.107-0.261,0.256-0.491,0.448-0.688s0.42-0.353,0.684-0.468c0.264-0.115,0.553-0.172,0.868-0.172c0.31,0,0.596,0.058,0.86,0.172
		c0.264,0.115,0.492,0.269,0.684,0.464c0.192,0.195,0.341,0.421,0.448,0.68c0.106,0.259,0.16,0.535,0.16,0.828v0.016
		c0,0.293-0.055,0.571-0.164,0.832s-0.26,0.491-0.452,0.688s-0.421,0.354-0.688,0.468C50.825-53.041,50.537-52.983,50.228-52.983z
		 M50.244-53.536c0.224,0,0.43-0.042,0.616-0.128s0.347-0.2,0.48-0.344c0.133-0.144,0.237-0.312,0.312-0.504
		s0.112-0.397,0.112-0.616v-0.016c0-0.224-0.039-0.433-0.116-0.628c-0.078-0.195-0.186-0.365-0.324-0.512
		c-0.139-0.146-0.301-0.263-0.488-0.348c-0.187-0.085-0.39-0.128-0.608-0.128c-0.224,0-0.43,0.043-0.616,0.128
		c-0.187,0.085-0.345,0.2-0.476,0.344s-0.233,0.313-0.308,0.508c-0.075,0.195-0.112,0.401-0.112,0.62v0.016
		c0,0.224,0.039,0.433,0.116,0.628c0.077,0.195,0.184,0.364,0.32,0.508c0.136,0.144,0.297,0.259,0.484,0.344
		S50.025-53.536,50.244-53.536z"/>
	<path fill="#808285" d="M53.58-57.216h0.616v0.832c0.085-0.123,0.18-0.24,0.284-0.352c0.104-0.112,0.22-0.209,0.348-0.292
		c0.128-0.083,0.271-0.149,0.428-0.2c0.158-0.051,0.332-0.076,0.524-0.076c0.245,0,0.486,0.048,0.724,0.144
		c0.237,0.096,0.449,0.236,0.636,0.42c0.187,0.184,0.336,0.408,0.448,0.672c0.112,0.264,0.168,0.566,0.168,0.908v0.016
		c0,0.336-0.056,0.637-0.168,0.904c-0.112,0.267-0.26,0.492-0.444,0.676s-0.395,0.325-0.632,0.424s-0.481,0.148-0.732,0.148
		c-0.192,0-0.368-0.024-0.528-0.072c-0.16-0.048-0.304-0.112-0.432-0.192c-0.128-0.08-0.244-0.173-0.348-0.28
		c-0.104-0.106-0.196-0.219-0.276-0.336v2.072H53.58V-57.216z M55.668-53.543c0.197,0,0.385-0.036,0.564-0.108
		c0.179-0.072,0.333-0.176,0.464-0.312c0.13-0.136,0.234-0.303,0.312-0.5c0.077-0.197,0.116-0.421,0.116-0.672v-0.016
		c0-0.246-0.039-0.467-0.116-0.664c-0.078-0.197-0.183-0.365-0.316-0.504c-0.133-0.138-0.288-0.245-0.464-0.32
		c-0.176-0.075-0.363-0.112-0.56-0.112c-0.192,0-0.377,0.039-0.556,0.116c-0.179,0.078-0.339,0.187-0.48,0.328
		c-0.142,0.142-0.253,0.31-0.336,0.504c-0.083,0.195-0.124,0.41-0.124,0.644v0.016c0,0.24,0.042,0.458,0.124,0.656
		c0.083,0.198,0.195,0.366,0.336,0.504c0.141,0.139,0.301,0.247,0.48,0.324C55.291-53.582,55.476-53.543,55.668-53.543z"/>
	<path fill="#808285" d="M61.612-58.68h0.632v5.6h-0.632V-58.68z"/>
	<path fill="#808285" d="M63.859-57.216h0.616v0.72c0.138-0.224,0.32-0.415,0.544-0.572c0.224-0.157,0.515-0.236,0.872-0.236
		c0.25,0,0.473,0.04,0.668,0.12c0.194,0.08,0.36,0.193,0.496,0.34c0.136,0.147,0.24,0.322,0.312,0.524
		c0.072,0.203,0.108,0.427,0.108,0.672v2.568h-0.616v-2.411c0-0.383-0.099-0.687-0.296-0.91s-0.48-0.335-0.848-0.335
		c-0.176,0-0.34,0.03-0.492,0.092c-0.152,0.061-0.284,0.149-0.396,0.263c-0.112,0.115-0.199,0.251-0.26,0.411
		c-0.062,0.16-0.092,0.335-0.092,0.527v2.363h-0.616V-57.216z"/>
	<path fill="#808285" d="M69.1-56.671h-0.568v-0.536H69.1v-0.36c0-0.469,0.12-0.824,0.36-1.064c0.213-0.213,0.509-0.32,0.888-0.32
		c0.144,0,0.268,0.008,0.372,0.024c0.104,0.016,0.207,0.043,0.308,0.08v0.536c-0.112-0.032-0.213-0.057-0.304-0.076
		c-0.091-0.019-0.189-0.028-0.296-0.028c-0.48,0-0.72,0.293-0.72,0.88v0.336h1.312v0.528h-1.304v3.592H69.1V-56.671z M71.868-58.919
		h0.608v5.84h-0.608V-58.919z"/>
	<path fill="#808285" d="M75.516-52.992c-0.251,0-0.473-0.04-0.668-0.12c-0.195-0.08-0.36-0.193-0.496-0.34
		c-0.136-0.146-0.24-0.321-0.312-0.524c-0.072-0.203-0.108-0.427-0.108-0.672v-2.568h0.616v2.411c0,0.383,0.099,0.687,0.296,0.91
		c0.197,0.224,0.48,0.335,0.848,0.335c0.176,0,0.34-0.031,0.492-0.092s0.283-0.149,0.392-0.264c0.109-0.114,0.196-0.251,0.26-0.411
		s0.096-0.335,0.096-0.527v-2.363h0.608v4.136h-0.608v-0.72c-0.139,0.224-0.32,0.415-0.544,0.572S75.873-52.992,75.516-52.992z"/>
	<path fill="#808285" d="M79.372-54.896c0.021,0.219,0.075,0.413,0.16,0.584c0.085,0.171,0.195,0.314,0.328,0.432
		c0.133,0.117,0.283,0.207,0.448,0.268c0.165,0.062,0.338,0.092,0.52,0.092c0.288,0,0.534-0.053,0.74-0.16
		c0.205-0.106,0.393-0.248,0.564-0.424l0.384,0.344c-0.208,0.235-0.446,0.423-0.712,0.564c-0.267,0.142-0.597,0.212-0.992,0.212
		c-0.283,0-0.549-0.052-0.8-0.156c-0.25-0.104-0.469-0.25-0.656-0.44c-0.187-0.189-0.335-0.417-0.444-0.684
		c-0.109-0.267-0.164-0.56-0.164-0.88c0-0.299,0.049-0.58,0.148-0.844c0.099-0.264,0.236-0.493,0.412-0.688
		c0.176-0.194,0.385-0.348,0.628-0.46c0.243-0.112,0.508-0.168,0.796-0.168c0.304,0,0.576,0.058,0.816,0.172
		c0.24,0.115,0.443,0.271,0.608,0.468c0.166,0.197,0.291,0.429,0.376,0.696c0.085,0.267,0.128,0.552,0.128,0.856
		c0,0.027,0,0.058,0,0.092s-0.003,0.076-0.008,0.124H79.372z M82.036-55.399c-0.016-0.186-0.056-0.362-0.12-0.529
		c-0.064-0.167-0.151-0.314-0.26-0.442c-0.109-0.127-0.243-0.228-0.4-0.302s-0.337-0.111-0.54-0.111
		c-0.176,0-0.341,0.035-0.496,0.104s-0.291,0.166-0.408,0.291c-0.118,0.125-0.215,0.271-0.292,0.441
		c-0.078,0.169-0.127,0.353-0.148,0.549H82.036z"/>
	<path fill="#808285" d="M83.819-57.216h0.616v0.72c0.138-0.224,0.32-0.415,0.544-0.572c0.224-0.157,0.515-0.236,0.872-0.236
		c0.25,0,0.473,0.04,0.668,0.12c0.194,0.08,0.36,0.193,0.496,0.34c0.136,0.147,0.24,0.322,0.312,0.524
		c0.072,0.203,0.108,0.427,0.108,0.672v2.568h-0.616v-2.411c0-0.383-0.099-0.687-0.296-0.91s-0.48-0.335-0.848-0.335
		c-0.176,0-0.34,0.03-0.492,0.092c-0.152,0.061-0.284,0.149-0.396,0.263c-0.112,0.115-0.199,0.251-0.26,0.411
		c-0.062,0.16-0.092,0.335-0.092,0.527v2.363h-0.616V-57.216z"/>
	<path fill="#808285" d="M90.691-52.983c-0.304,0-0.585-0.058-0.844-0.172c-0.259-0.114-0.483-0.269-0.672-0.464
		c-0.189-0.195-0.337-0.422-0.444-0.684c-0.106-0.261-0.16-0.536-0.16-0.824v-0.016c0-0.293,0.053-0.571,0.16-0.832
		c0.107-0.261,0.255-0.491,0.444-0.688c0.189-0.197,0.413-0.353,0.672-0.468s0.54-0.172,0.844-0.172
		c0.197,0,0.376,0.019,0.536,0.056c0.16,0.037,0.307,0.089,0.44,0.156c0.133,0.067,0.256,0.146,0.368,0.236s0.216,0.187,0.312,0.288
		l-0.408,0.432c-0.165-0.17-0.345-0.317-0.54-0.44c-0.194-0.123-0.433-0.184-0.716-0.184c-0.208,0-0.403,0.042-0.584,0.124
		c-0.181,0.083-0.339,0.196-0.472,0.34s-0.237,0.313-0.312,0.508s-0.112,0.404-0.112,0.628v0.016c0,0.224,0.039,0.433,0.116,0.628
		c0.077,0.195,0.184,0.365,0.32,0.512c0.136,0.146,0.296,0.261,0.48,0.344c0.184,0.083,0.385,0.124,0.604,0.124
		c0.267,0,0.502-0.059,0.708-0.176c0.205-0.117,0.391-0.264,0.556-0.44l0.392,0.368c-0.208,0.235-0.444,0.427-0.708,0.576
		C91.408-53.058,91.081-52.983,90.691-52.983z"/>
	<path fill="#808285" d="M93.844-54.896c0.021,0.219,0.075,0.413,0.16,0.584c0.085,0.171,0.195,0.314,0.328,0.432
		c0.133,0.117,0.283,0.207,0.448,0.268c0.165,0.062,0.338,0.092,0.52,0.092c0.288,0,0.534-0.053,0.74-0.16
		c0.205-0.106,0.393-0.248,0.564-0.424l0.384,0.344c-0.208,0.235-0.446,0.423-0.712,0.564c-0.267,0.142-0.597,0.212-0.992,0.212
		c-0.283,0-0.549-0.052-0.8-0.156c-0.25-0.104-0.469-0.25-0.656-0.44c-0.187-0.189-0.335-0.417-0.444-0.684
		c-0.109-0.267-0.164-0.56-0.164-0.88c0-0.299,0.049-0.58,0.148-0.844c0.099-0.264,0.236-0.493,0.412-0.688
		c0.176-0.194,0.385-0.348,0.628-0.46c0.243-0.112,0.508-0.168,0.796-0.168c0.304,0,0.576,0.058,0.816,0.172
		c0.24,0.115,0.443,0.271,0.608,0.468c0.166,0.197,0.291,0.429,0.376,0.696c0.085,0.267,0.128,0.552,0.128,0.856
		c0,0.027,0,0.058,0,0.092s-0.003,0.076-0.008,0.124H93.844z M96.508-55.399c-0.016-0.186-0.056-0.362-0.12-0.529
		c-0.064-0.167-0.151-0.314-0.26-0.442c-0.109-0.127-0.243-0.228-0.4-0.302s-0.337-0.111-0.54-0.111
		c-0.176,0-0.341,0.035-0.496,0.104s-0.291,0.166-0.408,0.291c-0.118,0.125-0.215,0.271-0.292,0.441
		c-0.078,0.169-0.127,0.353-0.148,0.549H96.508z"/>
	<path fill="#808285" d="M98.66-54.896c0.021,0.219,0.075,0.413,0.16,0.584c0.085,0.171,0.195,0.314,0.328,0.432
		c0.133,0.117,0.283,0.207,0.448,0.268c0.165,0.062,0.338,0.092,0.52,0.092c0.288,0,0.534-0.053,0.74-0.16
		c0.205-0.106,0.393-0.248,0.564-0.424l0.384,0.344c-0.208,0.235-0.446,0.423-0.712,0.564c-0.267,0.142-0.597,0.212-0.992,0.212
		c-0.283,0-0.549-0.052-0.8-0.156c-0.25-0.104-0.469-0.25-0.656-0.44c-0.187-0.189-0.335-0.417-0.444-0.684
		c-0.109-0.267-0.164-0.56-0.164-0.88c0-0.299,0.049-0.58,0.148-0.844c0.099-0.264,0.236-0.493,0.412-0.688
		c0.176-0.194,0.385-0.348,0.628-0.46c0.243-0.112,0.508-0.168,0.796-0.168c0.304,0,0.576,0.058,0.816,0.172
		c0.24,0.115,0.443,0.271,0.608,0.468c0.166,0.197,0.291,0.429,0.376,0.696c0.085,0.267,0.128,0.552,0.128,0.856
		c0,0.027,0,0.058,0,0.092s-0.003,0.076-0.008,0.124H98.66z M101.324-55.399c-0.016-0.186-0.056-0.362-0.12-0.529
		c-0.064-0.167-0.151-0.314-0.26-0.442c-0.109-0.127-0.243-0.228-0.4-0.302s-0.337-0.111-0.54-0.111
		c-0.176,0-0.341,0.035-0.496,0.104s-0.291,0.166-0.408,0.291c-0.118,0.125-0.215,0.271-0.292,0.441
		c-0.078,0.169-0.127,0.353-0.148,0.549H101.324z"/>
	<path fill="#808285" d="M103.107-57.216h0.616v1.08c0.074-0.17,0.168-0.328,0.28-0.472s0.24-0.268,0.384-0.372
		c0.144-0.104,0.301-0.183,0.472-0.236c0.171-0.053,0.354-0.077,0.552-0.072v0.664h-0.048c-0.224,0-0.436,0.04-0.636,0.12
		c-0.2,0.08-0.375,0.2-0.524,0.36c-0.149,0.16-0.267,0.359-0.352,0.596c-0.085,0.237-0.128,0.511-0.128,0.82v1.648h-0.616V-57.216z"
		/>
	<path fill="#808285" d="M107.795-53c-0.299,0-0.6-0.055-0.904-0.164c-0.304-0.109-0.573-0.257-0.808-0.444l0.312-0.44
		c0.224,0.17,0.458,0.301,0.7,0.392c0.243,0.091,0.487,0.136,0.732,0.136c0.251,0,0.456-0.059,0.616-0.176
		c0.16-0.117,0.24-0.277,0.24-0.48v-0.016c0-0.102-0.028-0.189-0.084-0.264c-0.056-0.075-0.132-0.14-0.228-0.196
		c-0.096-0.056-0.207-0.105-0.332-0.148c-0.125-0.042-0.254-0.083-0.388-0.12c-0.16-0.048-0.321-0.1-0.484-0.156
		c-0.163-0.056-0.31-0.126-0.44-0.212c-0.13-0.085-0.237-0.192-0.32-0.32s-0.124-0.288-0.124-0.48v-0.016
		c0-0.176,0.035-0.337,0.104-0.484c0.069-0.147,0.167-0.272,0.292-0.376s0.275-0.184,0.448-0.24
		c0.173-0.056,0.361-0.084,0.564-0.084c0.256,0,0.515,0.042,0.776,0.124s0.499,0.193,0.712,0.332l-0.28,0.464
		c-0.192-0.123-0.394-0.22-0.604-0.292c-0.211-0.072-0.417-0.108-0.62-0.108c-0.246,0-0.44,0.057-0.584,0.172
		s-0.216,0.257-0.216,0.428v0.016c0,0.096,0.029,0.18,0.088,0.252c0.059,0.072,0.137,0.135,0.236,0.188s0.212,0.101,0.34,0.144
		c0.128,0.042,0.261,0.085,0.4,0.128c0.16,0.048,0.318,0.101,0.476,0.16c0.157,0.059,0.3,0.134,0.428,0.224
		c0.128,0.091,0.23,0.2,0.308,0.328c0.077,0.128,0.116,0.285,0.116,0.472v0.016c0,0.198-0.039,0.372-0.116,0.524
		c-0.078,0.152-0.182,0.282-0.312,0.388c-0.131,0.107-0.286,0.188-0.464,0.244C108.196-53.028,108.003-53,107.795-53z"/>
	<path fill="#808285" d="M115.003-53c-0.448,0-0.857-0.073-1.228-0.22c-0.371-0.146-0.724-0.372-1.06-0.676l0.392-0.464
		c0.293,0.267,0.589,0.465,0.888,0.596c0.299,0.131,0.643,0.196,1.032,0.196c0.378,0,0.681-0.089,0.908-0.268s0.34-0.407,0.34-0.684
		v-0.016c0-0.128-0.021-0.244-0.064-0.348c-0.042-0.104-0.118-0.198-0.225-0.284s-0.255-0.163-0.445-0.232s-0.432-0.136-0.726-0.2
		c-0.321-0.069-0.6-0.149-0.838-0.24c-0.238-0.091-0.435-0.2-0.589-0.328s-0.27-0.277-0.345-0.448
		c-0.075-0.17-0.112-0.371-0.112-0.6v-0.016c0-0.219,0.045-0.421,0.136-0.608c0.09-0.187,0.218-0.348,0.384-0.484
		c0.165-0.136,0.36-0.243,0.584-0.32s0.469-0.116,0.736-0.116c0.411,0,0.77,0.058,1.076,0.172s0.604,0.287,0.892,0.516l-0.368,0.488
		c-0.261-0.213-0.524-0.368-0.788-0.464c-0.264-0.096-0.54-0.144-0.828-0.144c-0.368,0-0.659,0.086-0.872,0.26
		s-0.32,0.388-0.32,0.644v0.016c0,0.133,0.021,0.252,0.064,0.356c0.042,0.104,0.12,0.2,0.232,0.288
		c0.112,0.088,0.267,0.168,0.464,0.24c0.197,0.072,0.451,0.14,0.76,0.204c0.624,0.139,1.084,0.331,1.38,0.576
		c0.296,0.245,0.444,0.581,0.444,1.008v0.016c0,0.24-0.047,0.458-0.142,0.652c-0.095,0.195-0.226,0.361-0.392,0.5
		s-0.367,0.246-0.602,0.32C115.537-53.037,115.28-53,115.003-53z"/>
	<path fill="#808285" d="M120.035-52.983c-0.304,0-0.585-0.058-0.844-0.172c-0.259-0.114-0.483-0.269-0.672-0.464
		c-0.189-0.195-0.337-0.422-0.444-0.684c-0.106-0.261-0.16-0.536-0.16-0.824v-0.016c0-0.293,0.053-0.571,0.16-0.832
		c0.107-0.261,0.255-0.491,0.444-0.688c0.189-0.197,0.413-0.353,0.672-0.468s0.54-0.172,0.844-0.172
		c0.197,0,0.376,0.019,0.536,0.056c0.16,0.037,0.307,0.089,0.44,0.156c0.133,0.067,0.256,0.146,0.368,0.236s0.216,0.187,0.312,0.288
		l-0.408,0.432c-0.165-0.17-0.345-0.317-0.54-0.44c-0.194-0.123-0.433-0.184-0.716-0.184c-0.208,0-0.403,0.042-0.584,0.124
		c-0.181,0.083-0.339,0.196-0.472,0.34s-0.237,0.313-0.312,0.508s-0.112,0.404-0.112,0.628v0.016c0,0.224,0.039,0.433,0.116,0.628
		c0.077,0.195,0.184,0.365,0.32,0.512c0.136,0.146,0.296,0.261,0.48,0.344c0.184,0.083,0.385,0.124,0.604,0.124
		c0.267,0,0.502-0.059,0.708-0.176c0.205-0.117,0.391-0.264,0.556-0.44l0.392,0.368c-0.208,0.235-0.444,0.427-0.708,0.576
		C120.751-53.058,120.425-52.983,120.035-52.983z"/>
	<path fill="#808285" d="M124.708-52.983c-0.31,0-0.595-0.058-0.856-0.172c-0.262-0.114-0.488-0.269-0.68-0.464
		s-0.341-0.421-0.448-0.68c-0.106-0.258-0.16-0.534-0.16-0.828v-0.016c0-0.293,0.053-0.571,0.16-0.832
		c0.107-0.261,0.256-0.491,0.448-0.688s0.42-0.353,0.684-0.468c0.264-0.115,0.553-0.172,0.868-0.172c0.31,0,0.596,0.058,0.86,0.172
		c0.264,0.115,0.492,0.269,0.684,0.464c0.192,0.195,0.341,0.421,0.448,0.68c0.106,0.259,0.16,0.535,0.16,0.828v0.016
		c0,0.293-0.055,0.571-0.164,0.832s-0.26,0.491-0.452,0.688s-0.421,0.354-0.688,0.468C125.305-53.041,125.017-52.983,124.708-52.983
		z M124.723-53.536c0.224,0,0.43-0.042,0.616-0.128s0.347-0.2,0.48-0.344c0.133-0.144,0.237-0.312,0.312-0.504
		s0.112-0.397,0.112-0.616v-0.016c0-0.224-0.039-0.433-0.116-0.628c-0.078-0.195-0.186-0.365-0.324-0.512
		c-0.139-0.146-0.301-0.263-0.488-0.348c-0.187-0.085-0.39-0.128-0.608-0.128c-0.224,0-0.43,0.043-0.616,0.128
		c-0.187,0.085-0.345,0.2-0.476,0.344s-0.233,0.313-0.308,0.508c-0.075,0.195-0.112,0.401-0.112,0.62v0.016
		c0,0.224,0.039,0.433,0.116,0.628c0.077,0.195,0.184,0.364,0.32,0.508c0.136,0.144,0.297,0.259,0.484,0.344
		S124.504-53.536,124.723-53.536z"/>
	<path fill="#808285" d="M128.067-57.216h0.616v1.08c0.074-0.17,0.168-0.328,0.28-0.472s0.24-0.268,0.384-0.372
		c0.144-0.104,0.301-0.183,0.472-0.236c0.171-0.053,0.354-0.077,0.552-0.072v0.664h-0.048c-0.224,0-0.436,0.04-0.636,0.12
		c-0.2,0.08-0.375,0.2-0.524,0.36c-0.149,0.16-0.267,0.359-0.352,0.596c-0.085,0.237-0.128,0.511-0.128,0.82v1.648h-0.616V-57.216z"
		/>
	<path fill="#808285" d="M131.755-54.896c0.021,0.219,0.075,0.413,0.16,0.584c0.085,0.171,0.195,0.314,0.328,0.432
		c0.133,0.117,0.283,0.207,0.448,0.268c0.165,0.062,0.338,0.092,0.52,0.092c0.288,0,0.534-0.053,0.74-0.16
		c0.205-0.106,0.393-0.248,0.564-0.424l0.384,0.344c-0.208,0.235-0.446,0.423-0.712,0.564c-0.267,0.142-0.597,0.212-0.992,0.212
		c-0.283,0-0.549-0.052-0.8-0.156c-0.25-0.104-0.469-0.25-0.656-0.44c-0.187-0.189-0.335-0.417-0.444-0.684
		c-0.109-0.267-0.164-0.56-0.164-0.88c0-0.299,0.049-0.58,0.148-0.844c0.099-0.264,0.236-0.493,0.412-0.688
		c0.176-0.194,0.385-0.348,0.628-0.46c0.243-0.112,0.508-0.168,0.796-0.168c0.304,0,0.576,0.058,0.816,0.172
		c0.24,0.115,0.443,0.271,0.608,0.468c0.166,0.197,0.291,0.429,0.376,0.696c0.085,0.267,0.128,0.552,0.128,0.856
		c0,0.027,0,0.058,0,0.092s-0.003,0.076-0.008,0.124H131.755z M134.419-55.399c-0.016-0.186-0.056-0.362-0.12-0.529
		c-0.064-0.167-0.151-0.314-0.26-0.442c-0.109-0.127-0.243-0.228-0.4-0.302s-0.337-0.111-0.54-0.111
		c-0.176,0-0.341,0.035-0.496,0.104s-0.291,0.166-0.408,0.291c-0.118,0.125-0.215,0.271-0.292,0.441
		c-0.078,0.169-0.127,0.353-0.148,0.549H134.419z"/>
	<path fill="#808285" d="M138.067-52.983c-0.304,0-0.585-0.058-0.844-0.172c-0.259-0.114-0.483-0.269-0.672-0.464
		c-0.189-0.195-0.337-0.422-0.444-0.684c-0.106-0.261-0.16-0.536-0.16-0.824v-0.016c0-0.293,0.053-0.571,0.16-0.832
		c0.107-0.261,0.255-0.491,0.444-0.688c0.189-0.197,0.413-0.353,0.672-0.468s0.54-0.172,0.844-0.172
		c0.197,0,0.376,0.019,0.536,0.056c0.16,0.037,0.307,0.089,0.44,0.156c0.133,0.067,0.256,0.146,0.368,0.236s0.216,0.187,0.312,0.288
		l-0.408,0.432c-0.165-0.17-0.345-0.317-0.54-0.44c-0.194-0.123-0.433-0.184-0.716-0.184c-0.208,0-0.403,0.042-0.584,0.124
		c-0.181,0.083-0.339,0.196-0.472,0.34s-0.237,0.313-0.312,0.508s-0.112,0.404-0.112,0.628v0.016c0,0.224,0.039,0.433,0.116,0.628
		c0.077,0.195,0.184,0.365,0.32,0.512c0.136,0.146,0.296,0.261,0.48,0.344c0.184,0.083,0.385,0.124,0.604,0.124
		c0.267,0,0.502-0.059,0.708-0.176c0.205-0.117,0.391-0.264,0.556-0.44l0.392,0.368c-0.208,0.235-0.444,0.427-0.708,0.576
		C138.783-53.058,138.457-52.983,138.067-52.983z"/>
	<path fill="#808285" d="M142.083-52.992c-0.192,0-0.381-0.027-0.568-0.08c-0.187-0.053-0.352-0.134-0.496-0.244
		s-0.26-0.244-0.348-0.404c-0.088-0.16-0.132-0.347-0.132-0.56v-0.016c0-0.224,0.042-0.42,0.128-0.588s0.207-0.308,0.364-0.42
		c0.157-0.112,0.344-0.197,0.56-0.256c0.216-0.059,0.455-0.088,0.716-0.088c0.267,0,0.497,0.016,0.692,0.048
		c0.195,0.032,0.385,0.075,0.572,0.128v-0.127c0-0.366-0.107-0.643-0.32-0.831c-0.213-0.188-0.515-0.282-0.904-0.282
		c-0.246,0-0.468,0.026-0.668,0.08c-0.2,0.053-0.396,0.125-0.588,0.216l-0.184-0.507c0.229-0.108,0.461-0.195,0.696-0.26
		s0.504-0.098,0.808-0.098c0.586,0,1.032,0.152,1.336,0.456c0.288,0.288,0.432,0.693,0.432,1.216v2.528h-0.608v-0.616
		c-0.144,0.187-0.337,0.351-0.58,0.492S142.446-52.992,142.083-52.992z M142.208-53.496c0.191,0,0.37-0.026,0.534-0.08
		c0.165-0.053,0.31-0.128,0.435-0.227c0.125-0.098,0.224-0.215,0.295-0.35c0.071-0.135,0.107-0.285,0.107-0.45v-0.382
		c-0.154-0.042-0.33-0.082-0.526-0.12c-0.197-0.037-0.422-0.056-0.678-0.056c-0.383,0-0.679,0.076-0.889,0.227
		s-0.315,0.352-0.315,0.601v0.016c0,0.127,0.028,0.243,0.084,0.346c0.056,0.104,0.131,0.189,0.227,0.259
		c0.096,0.069,0.206,0.122,0.331,0.159S142.069-53.496,142.208-53.496z"/>
	<path fill="#808285" d="M145.563-57.216h0.616v1.08c0.074-0.17,0.168-0.328,0.28-0.472s0.24-0.268,0.384-0.372
		c0.144-0.104,0.301-0.183,0.472-0.236c0.171-0.053,0.354-0.077,0.552-0.072v0.664h-0.048c-0.224,0-0.436,0.04-0.636,0.12
		c-0.2,0.08-0.375,0.2-0.524,0.36c-0.149,0.16-0.267,0.359-0.352,0.596c-0.085,0.237-0.128,0.511-0.128,0.82v1.648h-0.616V-57.216z"
		/>
	<path fill="#808285" d="M150.619-52.992c-0.25,0-0.493-0.048-0.728-0.144c-0.234-0.096-0.445-0.236-0.632-0.42
		s-0.336-0.408-0.448-0.672c-0.112-0.264-0.168-0.567-0.168-0.908v-0.016c0-0.336,0.056-0.638,0.168-0.904
		c0.112-0.267,0.261-0.492,0.448-0.676s0.397-0.325,0.632-0.424c0.235-0.099,0.478-0.148,0.728-0.148
		c0.192,0,0.368,0.024,0.528,0.072c0.16,0.048,0.304,0.112,0.432,0.192c0.128,0.08,0.244,0.173,0.348,0.28
		c0.104,0.107,0.196,0.219,0.276,0.336v-2.496h0.616v5.84h-0.616v-0.832c-0.085,0.123-0.18,0.24-0.284,0.352
		s-0.22,0.211-0.348,0.296c-0.128,0.085-0.271,0.152-0.428,0.2C150.985-53.016,150.811-52.992,150.619-52.992z M150.731-53.543
		c0.192,0,0.377-0.039,0.556-0.116c0.179-0.077,0.339-0.187,0.48-0.328c0.142-0.141,0.253-0.309,0.336-0.504
		c0.083-0.194,0.124-0.412,0.124-0.652v-0.016c0-0.24-0.042-0.457-0.124-0.652c-0.083-0.195-0.195-0.361-0.336-0.5
		c-0.141-0.139-0.301-0.247-0.48-0.324c-0.179-0.077-0.364-0.116-0.556-0.116c-0.203,0-0.392,0.036-0.568,0.108
		c-0.176,0.072-0.329,0.176-0.46,0.312c-0.13,0.136-0.234,0.303-0.312,0.5c-0.077,0.197-0.116,0.421-0.116,0.672v0.016
		c0,0.245,0.039,0.467,0.116,0.664c0.078,0.197,0.183,0.365,0.316,0.504c0.133,0.139,0.288,0.246,0.464,0.32
		C150.347-53.581,150.534-53.543,150.731-53.543z"/>
</g>
<g>
	<path fill="#F9FDFE" d="M10.744,8.941h3.84c1.063,0,1.88,0.284,2.448,0.852c0.48,0.48,0.72,1.12,0.72,1.92v0.024
		c0,0.68-0.166,1.234-0.498,1.662s-0.766,0.742-1.302,0.942l2.052,3h-2.16l-1.8-2.688h-0.024h-1.428v2.688h-1.848V8.941z
		 M14.464,13.021c0.456,0,0.806-0.108,1.05-0.324s0.366-0.504,0.366-0.864v-0.024c0-0.4-0.128-0.7-0.384-0.9
		c-0.256-0.2-0.612-0.3-1.068-0.3h-1.836v2.412H14.464z"/>
	<path fill="#F9FDFE" d="M21.052,17.461c-0.304,0-0.59-0.042-0.858-0.126c-0.269-0.084-0.502-0.21-0.702-0.378
		c-0.2-0.168-0.358-0.374-0.474-0.618c-0.116-0.244-0.174-0.526-0.174-0.846v-0.024c0-0.352,0.064-0.656,0.192-0.912
		c0.128-0.256,0.306-0.468,0.534-0.636s0.5-0.294,0.816-0.378c0.316-0.084,0.666-0.126,1.05-0.126c0.328,0,0.614,0.024,0.858,0.072
		s0.482,0.112,0.714,0.192v-0.108c0-0.384-0.116-0.676-0.348-0.876c-0.232-0.2-0.576-0.3-1.032-0.3c-0.352,0-0.662,0.03-0.93,0.09
		c-0.268,0.06-0.55,0.146-0.846,0.258l-0.456-1.392c0.352-0.152,0.72-0.276,1.104-0.372c0.384-0.096,0.848-0.144,1.392-0.144
		c0.504,0,0.934,0.062,1.29,0.186s0.65,0.302,0.882,0.534c0.24,0.24,0.416,0.534,0.528,0.882c0.112,0.348,0.168,0.738,0.168,1.17
		v3.732h-1.764v-0.696c-0.224,0.248-0.492,0.446-0.804,0.594S21.5,17.461,21.052,17.461z M21.604,16.201
		c0.432,0,0.778-0.104,1.038-0.312c0.26-0.208,0.39-0.48,0.39-0.816v-0.324c-0.16-0.072-0.338-0.13-0.534-0.174
		c-0.196-0.044-0.406-0.066-0.63-0.066c-0.392,0-0.7,0.076-0.924,0.228c-0.224,0.152-0.336,0.372-0.336,0.66v0.024
		c0,0.248,0.092,0.44,0.276,0.576C21.068,16.133,21.308,16.201,21.604,16.201z"/>
	<path fill="#F9FDFE" d="M26.332,10.909h1.824v0.919c0.104-0.137,0.218-0.268,0.342-0.393s0.262-0.235,0.414-0.332
		c0.152-0.097,0.32-0.173,0.504-0.23c0.184-0.056,0.392-0.084,0.624-0.084c0.696,0,1.234,0.212,1.614,0.636
		c0.38,0.424,0.57,1.008,0.57,1.752v4.164H30.4v-3.579c0-0.431-0.096-0.756-0.288-0.976c-0.192-0.219-0.464-0.329-0.816-0.329
		s-0.63,0.11-0.834,0.329c-0.204,0.219-0.306,0.544-0.306,0.976v3.579h-1.824V10.909z"/>
	<path fill="#F9FDFE" d="M33.808,8.581h1.824v4.668l2.136-2.34h2.184l-2.448,2.532l2.532,3.9h-2.088l-1.68-2.628l-0.636,0.672v1.956
		h-1.824V8.581z"/>
</g>
<g>
	<path fill="#F9FDFE" d="M110.812,8.941h1.848v8.4h-1.848V8.941z"/>
	<path fill="#F9FDFE" d="M114.567,10.909h1.824v0.919c0.104-0.137,0.218-0.268,0.342-0.393s0.262-0.235,0.414-0.332
		c0.152-0.097,0.32-0.173,0.504-0.23c0.184-0.056,0.392-0.084,0.624-0.084c0.696,0,1.234,0.212,1.614,0.636
		c0.38,0.424,0.57,1.008,0.57,1.752v4.164h-1.824v-3.579c0-0.431-0.096-0.756-0.288-0.976c-0.192-0.219-0.464-0.329-0.816-0.329
		s-0.63,0.11-0.834,0.329c-0.204,0.219-0.306,0.544-0.306,0.976v3.579h-1.824V10.909z"/>
	<path fill="#F9FDFE" d="M122.355,12.469H121.6v-1.5h0.756v-0.408c0-0.696,0.172-1.216,0.516-1.56
		c0.336-0.336,0.828-0.504,1.476-0.504c0.288,0,0.534,0.016,0.738,0.048c0.204,0.032,0.39,0.076,0.558,0.132v1.512
		c-0.136-0.048-0.268-0.086-0.396-0.114c-0.128-0.028-0.272-0.042-0.432-0.042c-0.44,0-0.66,0.232-0.66,0.696v0.252h1.476v1.488
		h-1.452v4.872h-1.824V12.469z M126.711,8.581h1.824v8.76h-1.824V8.581z"/>
	<path fill="#F9FDFE" d="M132.388,17.461c-0.696,0-1.234-0.212-1.614-0.636c-0.38-0.424-0.57-1.008-0.57-1.752v-4.164h1.824v3.579
		c0,0.431,0.096,0.757,0.288,0.976s0.464,0.329,0.816,0.329s0.63-0.11,0.834-0.329c0.204-0.219,0.306-0.545,0.306-0.976v-3.579
		h1.824v6.432h-1.824v-0.919c-0.104,0.137-0.218,0.268-0.342,0.393c-0.125,0.125-0.262,0.236-0.414,0.333
		c-0.152,0.097-0.32,0.173-0.504,0.23C132.828,17.433,132.62,17.461,132.388,17.461z"/>
	<path fill="#F9FDFE" d="M140.775,17.485c-0.48,0-0.926-0.08-1.338-0.24c-0.412-0.16-0.768-0.388-1.068-0.684
		s-0.534-0.646-0.702-1.05c-0.168-0.404-0.252-0.854-0.252-1.35v-0.024c0-0.456,0.078-0.888,0.234-1.296
		c0.156-0.408,0.374-0.764,0.654-1.068c0.28-0.304,0.614-0.544,1.002-0.72c0.388-0.176,0.818-0.264,1.29-0.264
		c0.536,0,1,0.096,1.392,0.288c0.392,0.192,0.718,0.45,0.978,0.774c0.26,0.324,0.452,0.696,0.576,1.116s0.186,0.858,0.186,1.314
		c0,0.072-0.002,0.148-0.006,0.228c-0.004,0.08-0.01,0.164-0.018,0.252h-4.476c0.088,0.416,0.27,0.73,0.546,0.942
		c0.276,0.212,0.618,0.318,1.026,0.318c0.304,0,0.576-0.052,0.816-0.156c0.24-0.104,0.488-0.272,0.744-0.504l1.044,0.924
		c-0.304,0.376-0.672,0.67-1.104,0.882C141.867,17.379,141.359,17.485,140.775,17.485z M141.951,13.621
		c-0.056-0.408-0.2-0.738-0.432-0.99s-0.54-0.378-0.924-0.378c-0.384,0-0.694,0.124-0.93,0.372s-0.39,0.58-0.462,0.996H141.951z"/>
	<path fill="#F9FDFE" d="M145.083,10.909h1.824v0.919c0.104-0.137,0.218-0.268,0.342-0.393s0.262-0.235,0.414-0.332
		c0.152-0.097,0.32-0.173,0.504-0.23c0.184-0.056,0.392-0.084,0.624-0.084c0.696,0,1.234,0.212,1.614,0.636
		c0.38,0.424,0.57,1.008,0.57,1.752v4.164h-1.824v-3.579c0-0.431-0.096-0.756-0.288-0.976c-0.192-0.219-0.464-0.329-0.816-0.329
		s-0.63,0.11-0.834,0.329c-0.204,0.219-0.306,0.544-0.306,0.976v3.579h-1.824V10.909z"/>
	<path fill="#F9FDFE" d="M155.595,17.485c-0.48,0-0.926-0.088-1.338-0.264c-0.412-0.176-0.766-0.414-1.062-0.714
		c-0.296-0.3-0.528-0.652-0.696-1.056c-0.168-0.404-0.252-0.834-0.252-1.29v-0.024c0-0.456,0.084-0.888,0.252-1.296
		s0.4-0.764,0.696-1.068c0.296-0.304,0.65-0.544,1.062-0.72c0.412-0.176,0.866-0.264,1.362-0.264c0.608,0,1.112,0.096,1.512,0.288
		c0.4,0.192,0.751,0.456,1.056,0.792l-1.116,1.2c-0.208-0.216-0.422-0.388-0.642-0.516c-0.22-0.128-0.494-0.192-0.822-0.192
		c-0.232,0-0.442,0.046-0.63,0.138c-0.188,0.092-0.352,0.218-0.492,0.378c-0.14,0.16-0.248,0.346-0.324,0.558
		s-0.114,0.438-0.114,0.678v0.024c0,0.248,0.038,0.48,0.114,0.696c0.076,0.216,0.186,0.404,0.33,0.564s0.316,0.286,0.516,0.378
		c0.2,0.092,0.424,0.138,0.672,0.138c0.304,0,0.57-0.062,0.798-0.186s0.454-0.29,0.678-0.498l1.068,1.08
		c-0.312,0.344-0.668,0.626-1.068,0.846C156.754,17.375,156.234,17.485,155.595,17.485z"/>
	<path fill="#F9FDFE" d="M162.458,17.485c-0.48,0-0.926-0.08-1.338-0.24c-0.412-0.16-0.768-0.388-1.068-0.684
		s-0.534-0.646-0.702-1.05c-0.168-0.404-0.252-0.854-0.252-1.35v-0.024c0-0.456,0.078-0.888,0.234-1.296
		c0.156-0.408,0.374-0.764,0.654-1.068c0.28-0.304,0.614-0.544,1.002-0.72c0.388-0.176,0.818-0.264,1.29-0.264
		c0.536,0,1,0.096,1.392,0.288c0.392,0.192,0.718,0.45,0.978,0.774c0.26,0.324,0.452,0.696,0.576,1.116s0.186,0.858,0.186,1.314
		c0,0.072-0.002,0.148-0.006,0.228c-0.004,0.08-0.01,0.164-0.018,0.252h-4.476c0.088,0.416,0.27,0.73,0.546,0.942
		c0.276,0.212,0.618,0.318,1.026,0.318c0.304,0,0.576-0.052,0.816-0.156c0.24-0.104,0.488-0.272,0.744-0.504l1.044,0.924
		c-0.304,0.376-0.672,0.67-1.104,0.882C163.551,17.379,163.042,17.485,162.458,17.485z M163.635,13.621
		c-0.056-0.408-0.2-0.738-0.432-0.99s-0.54-0.378-0.924-0.378c-0.384,0-0.694,0.124-0.93,0.372s-0.39,0.58-0.462,0.996H163.635z"/>
	<path fill="#F9FDFE" d="M166.767,10.909h1.824v1.296c0.184-0.439,0.436-0.792,0.756-1.056c0.32-0.264,0.752-0.384,1.296-0.36v1.908
		h-0.096c-0.608,0-1.086,0.184-1.434,0.552c-0.348,0.368-0.522,0.94-0.522,1.716v2.376h-1.824V10.909z"/>
	<path fill="#F9FDFE" d="M174.039,17.461c-0.456,0-0.922-0.078-1.398-0.234c-0.476-0.156-0.93-0.402-1.362-0.738l0.78-1.2
		c0.352,0.256,0.702,0.448,1.05,0.576s0.674,0.192,0.978,0.192c0.264,0,0.458-0.043,0.582-0.132
		c0.124-0.088,0.186-0.204,0.186-0.348v-0.024c0-0.096-0.036-0.18-0.108-0.252c-0.072-0.072-0.17-0.134-0.294-0.186
		c-0.124-0.052-0.266-0.102-0.426-0.15c-0.16-0.048-0.328-0.1-0.504-0.156c-0.224-0.063-0.45-0.142-0.678-0.234
		c-0.228-0.092-0.434-0.212-0.618-0.36s-0.334-0.33-0.45-0.546c-0.116-0.216-0.174-0.48-0.174-0.792v-0.024
		c0-0.328,0.062-0.618,0.186-0.87s0.292-0.466,0.504-0.642c0.212-0.176,0.46-0.308,0.744-0.396c0.284-0.088,0.59-0.132,0.918-0.132
		c0.408,0,0.822,0.066,1.242,0.198c0.42,0.132,0.806,0.314,1.158,0.546l-0.696,1.26c-0.32-0.184-0.632-0.33-0.936-0.438
		s-0.572-0.162-0.804-0.162c-0.224,0-0.392,0.042-0.504,0.126c-0.112,0.084-0.168,0.19-0.168,0.318v0.024
		c0,0.088,0.036,0.166,0.108,0.234c0.072,0.068,0.168,0.132,0.288,0.192c0.12,0.06,0.258,0.118,0.414,0.174
		c0.156,0.056,0.322,0.112,0.498,0.168c0.224,0.072,0.452,0.158,0.684,0.258s0.44,0.222,0.624,0.366s0.336,0.32,0.456,0.528
		s0.18,0.46,0.18,0.756v0.024c0,0.36-0.063,0.67-0.186,0.93c-0.125,0.26-0.298,0.474-0.522,0.642
		c-0.224,0.168-0.486,0.294-0.786,0.378C174.705,17.419,174.383,17.461,174.039,17.461z"/>
</g>
<g>
	<path fill="#F9FDFE" d="M210.279,8.941h3.84c1.063,0,1.88,0.284,2.448,0.852c0.48,0.48,0.72,1.12,0.72,1.92v0.024
		c0,0.68-0.166,1.234-0.498,1.662s-0.766,0.742-1.302,0.942l2.052,3h-2.16l-1.8-2.688h-0.024h-1.428v2.688h-1.848V8.941z
		 M214,13.021c0.456,0,0.806-0.108,1.05-0.324s0.366-0.504,0.366-0.864v-0.024c0-0.4-0.128-0.7-0.384-0.9
		c-0.256-0.2-0.612-0.3-1.068-0.3h-1.836v2.412H214z"/>
	<path fill="#F9FDFE" d="M220.587,17.461c-0.304,0-0.59-0.042-0.858-0.126c-0.269-0.084-0.502-0.21-0.702-0.378
		c-0.2-0.168-0.358-0.374-0.474-0.618c-0.116-0.244-0.174-0.526-0.174-0.846v-0.024c0-0.352,0.064-0.656,0.192-0.912
		c0.128-0.256,0.306-0.468,0.534-0.636s0.5-0.294,0.816-0.378c0.316-0.084,0.666-0.126,1.05-0.126c0.328,0,0.614,0.024,0.858,0.072
		s0.482,0.112,0.714,0.192v-0.108c0-0.384-0.116-0.676-0.348-0.876c-0.232-0.2-0.576-0.3-1.032-0.3c-0.352,0-0.662,0.03-0.93,0.09
		c-0.268,0.06-0.55,0.146-0.846,0.258l-0.456-1.392c0.352-0.152,0.72-0.276,1.104-0.372c0.384-0.096,0.848-0.144,1.392-0.144
		c0.504,0,0.934,0.062,1.29,0.186s0.65,0.302,0.882,0.534c0.24,0.24,0.416,0.534,0.528,0.882c0.112,0.348,0.168,0.738,0.168,1.17
		v3.732h-1.764v-0.696c-0.224,0.248-0.492,0.446-0.804,0.594S221.035,17.461,220.587,17.461z M221.139,16.201
		c0.432,0,0.778-0.104,1.038-0.312c0.26-0.208,0.39-0.48,0.39-0.816v-0.324c-0.16-0.072-0.338-0.13-0.534-0.174
		c-0.196-0.044-0.406-0.066-0.63-0.066c-0.392,0-0.7,0.076-0.924,0.228c-0.224,0.152-0.336,0.372-0.336,0.66v0.024
		c0,0.248,0.092,0.44,0.276,0.576C220.603,16.133,220.843,16.201,221.139,16.201z"/>
	<path fill="#F9FDFE" d="M228.039,17.449c-0.28,0-0.534-0.03-0.762-0.09s-0.424-0.166-0.588-0.318
		c-0.164-0.152-0.292-0.35-0.384-0.594c-0.092-0.244-0.138-0.554-0.138-0.93v-3.048h-0.768v-1.56h0.768V9.265h1.824v1.644h1.512
		v1.56h-1.512v2.758c0,0.417,0.196,0.626,0.588,0.626c0.32,0,0.62-0.08,0.9-0.24v1.464c-0.192,0.112-0.404,0.202-0.636,0.27
		S228.343,17.449,228.039,17.449z"/>
	<path fill="#F9FDFE" d="M230.883,8.581h1.92v1.62h-1.92V8.581z M230.931,10.909h1.824v6.432h-1.824V10.909z"/>
	<path fill="#F9FDFE" d="M234.471,10.909h1.824v0.919c0.104-0.137,0.218-0.268,0.342-0.393s0.262-0.235,0.414-0.332
		c0.152-0.097,0.32-0.173,0.504-0.23c0.184-0.056,0.392-0.084,0.624-0.084c0.696,0,1.234,0.212,1.614,0.636
		c0.38,0.424,0.569,1.008,0.569,1.752v4.164h-1.823v-3.579c0-0.431-0.097-0.756-0.288-0.976c-0.192-0.219-0.464-0.329-0.816-0.329
		s-0.63,0.11-0.834,0.329c-0.204,0.219-0.306,0.544-0.306,0.976v3.579h-1.824V10.909z"/>
	<path fill="#F9FDFE" d="M244.827,19.285c-0.528,0-1.032-0.058-1.513-0.174c-0.479-0.116-0.924-0.282-1.332-0.498l0.624-1.368
		c0.336,0.184,0.674,0.328,1.015,0.432c0.34,0.104,0.726,0.156,1.158,0.156c0.624,0,1.086-0.148,1.386-0.444s0.45-0.732,0.45-1.308
		v-0.312c-0.272,0.328-0.568,0.584-0.889,0.768c-0.319,0.184-0.724,0.276-1.212,0.276c-0.376,0-0.736-0.066-1.08-0.198
		s-0.647-0.326-0.912-0.582c-0.264-0.256-0.474-0.57-0.63-0.942c-0.155-0.372-0.233-0.798-0.233-1.278v-0.024
		c0-0.48,0.079-0.906,0.239-1.278s0.372-0.686,0.637-0.942c0.264-0.256,0.567-0.45,0.912-0.582c0.344-0.132,0.699-0.198,1.067-0.198
		c0.496,0,0.904,0.092,1.225,0.276c0.319,0.184,0.604,0.412,0.852,0.684v-0.84h1.824v4.98c0,1.144-0.272,1.988-0.816,2.532
		c-0.304,0.304-0.686,0.524-1.146,0.66C245.993,19.217,245.451,19.285,244.827,19.285z M245.043,15.301
		c0.224,0,0.432-0.036,0.624-0.108c0.191-0.072,0.357-0.174,0.498-0.306c0.14-0.132,0.25-0.29,0.33-0.474
		c0.08-0.184,0.12-0.384,0.12-0.6v-0.024c0-0.216-0.04-0.416-0.12-0.6s-0.19-0.342-0.33-0.474c-0.141-0.132-0.307-0.234-0.498-0.306
		c-0.192-0.072-0.4-0.108-0.624-0.108c-0.225,0-0.431,0.036-0.618,0.108c-0.188,0.072-0.353,0.174-0.492,0.306
		s-0.25,0.29-0.33,0.474s-0.12,0.384-0.12,0.6v0.024c0,0.448,0.148,0.808,0.444,1.08S244.595,15.301,245.043,15.301z"/>
</g>
<g>
	<path fill="#F9FDFE" d="M316,17.485c-0.616,0-1.188-0.112-1.717-0.336c-0.527-0.224-0.983-0.53-1.367-0.918
		c-0.385-0.388-0.685-0.846-0.9-1.374c-0.216-0.528-0.324-1.092-0.324-1.692v-0.024c0-0.6,0.108-1.162,0.324-1.686
		s0.516-0.984,0.9-1.38c0.384-0.396,0.844-0.708,1.38-0.936c0.535-0.228,1.128-0.342,1.775-0.342c0.393,0,0.75,0.032,1.074,0.096
		s0.618,0.152,0.882,0.264c0.265,0.112,0.508,0.248,0.732,0.408c0.224,0.16,0.432,0.336,0.624,0.528l-1.176,1.356
		c-0.328-0.296-0.662-0.528-1.002-0.696c-0.341-0.168-0.723-0.252-1.146-0.252c-0.352,0-0.678,0.068-0.978,0.204
		c-0.301,0.136-0.559,0.324-0.774,0.564c-0.216,0.24-0.384,0.518-0.504,0.834s-0.18,0.654-0.18,1.014v0.024
		c0,0.36,0.06,0.7,0.18,1.02c0.12,0.32,0.286,0.6,0.498,0.84c0.212,0.24,0.468,0.43,0.768,0.57c0.301,0.14,0.63,0.21,0.99,0.21
		c0.48,0,0.886-0.088,1.218-0.264c0.332-0.176,0.662-0.416,0.99-0.72l1.176,1.188c-0.216,0.232-0.439,0.44-0.672,0.624
		s-0.485,0.342-0.762,0.474c-0.276,0.132-0.578,0.232-0.906,0.3S316.407,17.485,316,17.485z"/>
	<path fill="#F9FDFE" d="M320.728,8.581h1.823v3.247c0.104-0.137,0.218-0.268,0.343-0.393c0.123-0.125,0.262-0.235,0.413-0.332
		c0.152-0.097,0.32-0.173,0.505-0.23c0.184-0.056,0.392-0.084,0.624-0.084c0.695,0,1.233,0.212,1.613,0.636
		c0.38,0.424,0.57,1.008,0.57,1.752v4.164h-1.824v-3.579c0-0.431-0.096-0.756-0.288-0.976c-0.191-0.219-0.464-0.329-0.815-0.329
		c-0.353,0-0.63,0.11-0.834,0.329s-0.307,0.544-0.307,0.976v3.579h-1.823V8.581z"/>
	<path fill="#F9FDFE" d="M330.027,17.461c-0.304,0-0.59-0.042-0.857-0.126c-0.269-0.084-0.502-0.21-0.702-0.378
		s-0.358-0.374-0.474-0.618c-0.116-0.244-0.175-0.526-0.175-0.846v-0.024c0-0.352,0.064-0.656,0.192-0.912
		c0.128-0.256,0.306-0.468,0.534-0.636c0.228-0.168,0.5-0.294,0.815-0.378c0.316-0.084,0.666-0.126,1.051-0.126
		c0.327,0,0.613,0.024,0.857,0.072s0.482,0.112,0.714,0.192v-0.108c0-0.384-0.116-0.676-0.348-0.876c-0.232-0.2-0.576-0.3-1.032-0.3
		c-0.352,0-0.662,0.03-0.93,0.09c-0.269,0.06-0.55,0.146-0.846,0.258l-0.456-1.392c0.352-0.152,0.72-0.276,1.104-0.372
		c0.384-0.096,0.848-0.144,1.393-0.144c0.504,0,0.934,0.062,1.289,0.186c0.356,0.124,0.65,0.302,0.883,0.534
		c0.239,0.24,0.415,0.534,0.527,0.882c0.112,0.348,0.168,0.738,0.168,1.17v3.732h-1.764v-0.696
		c-0.224,0.248-0.492,0.446-0.804,0.594C330.855,17.387,330.476,17.461,330.027,17.461z M330.58,16.201
		c0.432,0,0.777-0.104,1.038-0.312c0.26-0.208,0.39-0.48,0.39-0.816v-0.324c-0.16-0.072-0.338-0.13-0.534-0.174
		s-0.406-0.066-0.63-0.066c-0.393,0-0.7,0.076-0.924,0.228c-0.225,0.152-0.336,0.372-0.336,0.66v0.024
		c0,0.248,0.092,0.44,0.275,0.576C330.044,16.133,330.283,16.201,330.58,16.201z"/>
	<path fill="#F9FDFE" d="M335.392,8.581h1.823v8.76h-1.823V8.581z"/>
	<path fill="#F9FDFE" d="M339.016,8.581h1.823v8.76h-1.823V8.581z"/>
	<path fill="#F9FDFE" d="M345.604,17.485c-0.48,0-0.927-0.08-1.338-0.24c-0.412-0.16-0.769-0.388-1.068-0.684
		s-0.534-0.646-0.702-1.05c-0.168-0.404-0.252-0.854-0.252-1.35v-0.024c0-0.456,0.078-0.888,0.234-1.296
		c0.155-0.408,0.374-0.764,0.653-1.068c0.28-0.304,0.614-0.544,1.002-0.72c0.389-0.176,0.818-0.264,1.29-0.264
		c0.536,0,1,0.096,1.393,0.288c0.392,0.192,0.718,0.45,0.978,0.774c0.26,0.324,0.452,0.696,0.576,1.116s0.187,0.858,0.187,1.314
		c0,0.072-0.003,0.148-0.007,0.228s-0.01,0.164-0.018,0.252h-4.476c0.088,0.416,0.27,0.73,0.546,0.942
		c0.275,0.212,0.618,0.318,1.025,0.318c0.305,0,0.576-0.052,0.816-0.156s0.487-0.272,0.744-0.504l1.044,0.924
		c-0.305,0.376-0.672,0.67-1.104,0.882C346.695,17.379,346.188,17.485,345.604,17.485z M346.779,13.621
		c-0.056-0.408-0.2-0.738-0.432-0.99c-0.232-0.252-0.54-0.378-0.925-0.378c-0.384,0-0.693,0.124-0.93,0.372s-0.39,0.58-0.462,0.996
		H346.779z"/>
	<path fill="#F9FDFE" d="M349.911,10.909h1.823v0.919c0.104-0.137,0.218-0.268,0.343-0.393c0.123-0.125,0.262-0.235,0.413-0.332
		c0.152-0.097,0.32-0.173,0.505-0.23c0.184-0.056,0.392-0.084,0.624-0.084c0.695,0,1.233,0.212,1.613,0.636
		c0.38,0.424,0.57,1.008,0.57,1.752v4.164h-1.824v-3.579c0-0.431-0.096-0.756-0.288-0.976c-0.191-0.219-0.464-0.329-0.815-0.329
		c-0.353,0-0.63,0.11-0.834,0.329s-0.307,0.544-0.307,0.976v3.579h-1.823V10.909z"/>
	<path fill="#F9FDFE" d="M360.267,19.285c-0.528,0-1.032-0.058-1.513-0.174c-0.479-0.116-0.924-0.282-1.332-0.498l0.624-1.368
		c0.336,0.184,0.674,0.328,1.015,0.432c0.34,0.104,0.726,0.156,1.158,0.156c0.624,0,1.086-0.148,1.386-0.444s0.45-0.732,0.45-1.308
		v-0.312c-0.272,0.328-0.568,0.584-0.889,0.768c-0.319,0.184-0.724,0.276-1.212,0.276c-0.376,0-0.736-0.066-1.08-0.198
		s-0.647-0.326-0.912-0.582c-0.264-0.256-0.474-0.57-0.63-0.942c-0.155-0.372-0.233-0.798-0.233-1.278v-0.024
		c0-0.48,0.079-0.906,0.239-1.278s0.372-0.686,0.637-0.942c0.264-0.256,0.567-0.45,0.912-0.582c0.344-0.132,0.699-0.198,1.067-0.198
		c0.496,0,0.904,0.092,1.225,0.276c0.319,0.184,0.604,0.412,0.852,0.684v-0.84h1.824v4.98c0,1.144-0.272,1.988-0.816,2.532
		c-0.304,0.304-0.686,0.524-1.146,0.66C361.433,19.217,360.891,19.285,360.267,19.285z M360.482,15.301
		c0.224,0,0.432-0.036,0.624-0.108c0.191-0.072,0.357-0.174,0.498-0.306c0.14-0.132,0.25-0.29,0.33-0.474
		c0.08-0.184,0.12-0.384,0.12-0.6v-0.024c0-0.216-0.04-0.416-0.12-0.6s-0.19-0.342-0.33-0.474c-0.141-0.132-0.307-0.234-0.498-0.306
		c-0.192-0.072-0.4-0.108-0.624-0.108c-0.225,0-0.431,0.036-0.618,0.108c-0.188,0.072-0.353,0.174-0.492,0.306
		s-0.25,0.29-0.33,0.474s-0.12,0.384-0.12,0.6v0.024c0,0.448,0.148,0.808,0.444,1.08S360.034,15.301,360.482,15.301z"/>
	<path fill="#F9FDFE" d="M368.534,17.485c-0.48,0-0.927-0.08-1.338-0.24c-0.412-0.16-0.769-0.388-1.068-0.684
		s-0.534-0.646-0.702-1.05c-0.168-0.404-0.252-0.854-0.252-1.35v-0.024c0-0.456,0.078-0.888,0.234-1.296
		c0.155-0.408,0.374-0.764,0.653-1.068c0.28-0.304,0.614-0.544,1.002-0.72c0.389-0.176,0.818-0.264,1.29-0.264
		c0.536,0,1,0.096,1.393,0.288c0.392,0.192,0.718,0.45,0.978,0.774c0.26,0.324,0.452,0.696,0.576,1.116s0.187,0.858,0.187,1.314
		c0,0.072-0.003,0.148-0.007,0.228s-0.01,0.164-0.018,0.252h-4.476c0.088,0.416,0.27,0.73,0.546,0.942
		c0.275,0.212,0.618,0.318,1.025,0.318c0.305,0,0.576-0.052,0.816-0.156s0.487-0.272,0.744-0.504l1.044,0.924
		c-0.305,0.376-0.672,0.67-1.104,0.882C369.626,17.379,369.118,17.485,368.534,17.485z M369.71,13.621
		c-0.056-0.408-0.2-0.738-0.432-0.99c-0.232-0.252-0.54-0.378-0.925-0.378c-0.384,0-0.693,0.124-0.93,0.372s-0.39,0.58-0.462,0.996
		H369.71z"/>
</g>
<g>
	<path fill="#F9FDFE" d="M415.659,17.485c-0.656,0-1.254-0.108-1.794-0.324c-0.54-0.216-1.004-0.516-1.392-0.9
		c-0.389-0.384-0.69-0.84-0.906-1.368c-0.216-0.528-0.324-1.104-0.324-1.728v-0.024c0-0.6,0.11-1.162,0.33-1.686
		s0.526-0.984,0.918-1.38s0.856-0.708,1.393-0.936c0.535-0.228,1.123-0.342,1.764-0.342c0.376,0,0.718,0.026,1.026,0.078
		c0.308,0.052,0.594,0.126,0.857,0.222c0.264,0.096,0.512,0.216,0.744,0.36s0.456,0.308,0.672,0.492l-1.164,1.404
		c-0.16-0.136-0.32-0.256-0.479-0.36c-0.16-0.104-0.326-0.192-0.498-0.264c-0.173-0.072-0.358-0.128-0.559-0.168
		s-0.42-0.06-0.659-0.06c-0.337,0-0.65,0.07-0.942,0.21s-0.548,0.329-0.769,0.565c-0.22,0.236-0.392,0.513-0.516,0.83
		c-0.124,0.317-0.186,0.656-0.186,1.017v0.024c0,0.385,0.062,0.74,0.186,1.064s0.3,0.607,0.528,0.848
		c0.228,0.241,0.496,0.427,0.804,0.56c0.308,0.132,0.65,0.198,1.026,0.198c0.688,0,1.268-0.169,1.739-0.508v-1.208H415.6v-1.596
		h3.647v3.648c-0.432,0.368-0.945,0.682-1.542,0.942C417.109,17.354,416.428,17.485,415.659,17.485z"/>
	<path fill="#F9FDFE" d="M423.987,17.485c-0.496,0-0.956-0.086-1.38-0.258c-0.424-0.172-0.79-0.408-1.098-0.708
		c-0.309-0.3-0.55-0.652-0.727-1.056c-0.176-0.404-0.264-0.838-0.264-1.302v-0.024c0-0.464,0.088-0.898,0.264-1.302
		c0.177-0.404,0.421-0.758,0.732-1.062s0.68-0.544,1.104-0.72c0.425-0.176,0.889-0.264,1.393-0.264c0.496,0,0.956,0.086,1.38,0.258
		s0.79,0.408,1.098,0.708c0.309,0.3,0.55,0.652,0.727,1.056c0.176,0.404,0.264,0.838,0.264,1.302v0.024
		c0,0.464-0.088,0.898-0.264,1.302c-0.177,0.404-0.42,0.758-0.732,1.062c-0.312,0.304-0.68,0.544-1.104,0.72
		C424.955,17.396,424.491,17.485,423.987,17.485z M424.012,15.913c0.264,0,0.498-0.046,0.702-0.138s0.378-0.218,0.521-0.378
		c0.145-0.16,0.254-0.346,0.33-0.558s0.114-0.438,0.114-0.678v-0.024c0-0.24-0.04-0.466-0.12-0.678s-0.196-0.4-0.348-0.564
		c-0.152-0.164-0.332-0.294-0.54-0.39s-0.437-0.144-0.685-0.144c-0.264,0-0.498,0.046-0.702,0.138
		c-0.203,0.092-0.378,0.218-0.521,0.378c-0.145,0.16-0.254,0.346-0.33,0.558s-0.114,0.438-0.114,0.678v0.024
		c0,0.24,0.04,0.466,0.12,0.678s0.196,0.4,0.349,0.564c0.151,0.164,0.329,0.294,0.533,0.39
		C423.525,15.865,423.756,15.913,424.012,15.913z"/>
	<path fill="#F9FDFE" d="M430.623,17.461c-0.304,0-0.59-0.042-0.857-0.126c-0.269-0.084-0.502-0.21-0.702-0.378
		s-0.358-0.374-0.474-0.618c-0.116-0.244-0.175-0.526-0.175-0.846v-0.024c0-0.352,0.064-0.656,0.192-0.912
		c0.128-0.256,0.306-0.468,0.534-0.636c0.228-0.168,0.5-0.294,0.815-0.378c0.316-0.084,0.666-0.126,1.051-0.126
		c0.327,0,0.613,0.024,0.857,0.072s0.482,0.112,0.714,0.192v-0.108c0-0.384-0.116-0.676-0.348-0.876c-0.232-0.2-0.576-0.3-1.032-0.3
		c-0.352,0-0.662,0.03-0.93,0.09c-0.269,0.06-0.55,0.146-0.846,0.258l-0.456-1.392c0.352-0.152,0.72-0.276,1.104-0.372
		c0.384-0.096,0.848-0.144,1.393-0.144c0.504,0,0.934,0.062,1.289,0.186c0.356,0.124,0.65,0.302,0.883,0.534
		c0.239,0.24,0.415,0.534,0.527,0.882c0.112,0.348,0.168,0.738,0.168,1.17v3.732h-1.764v-0.696
		c-0.224,0.248-0.492,0.446-0.804,0.594C431.451,17.387,431.071,17.461,430.623,17.461z M431.176,16.201
		c0.432,0,0.777-0.104,1.038-0.312c0.26-0.208,0.39-0.48,0.39-0.816v-0.324c-0.16-0.072-0.338-0.13-0.534-0.174
		s-0.406-0.066-0.63-0.066c-0.393,0-0.7,0.076-0.924,0.228c-0.225,0.152-0.336,0.372-0.336,0.66v0.024
		c0,0.248,0.092,0.44,0.275,0.576C430.64,16.133,430.879,16.201,431.176,16.201z"/>
	<path fill="#F9FDFE" d="M435.987,8.581h1.823v8.76h-1.823V8.581z"/>
</g>
<g>
	<path d="M11.246,98.127l2.709-2.389c0.285-0.256,0.526-0.487,0.726-0.693c0.199-0.206,0.359-0.4,0.48-0.581
		c0.121-0.182,0.209-0.359,0.267-0.534c0.057-0.174,0.085-0.354,0.085-0.539c0-0.22-0.041-0.417-0.123-0.592
		c-0.082-0.174-0.19-0.324-0.325-0.448c-0.135-0.124-0.295-0.22-0.48-0.288c-0.185-0.067-0.377-0.101-0.576-0.101
		c-0.427,0-0.793,0.108-1.099,0.325c-0.306,0.217-0.608,0.535-0.906,0.955l-0.619-0.448c0.17-0.249,0.345-0.473,0.522-0.672
		c0.178-0.199,0.372-0.366,0.582-0.501c0.209-0.135,0.444-0.238,0.704-0.31c0.26-0.071,0.553-0.106,0.88-0.106
		c0.334,0,0.643,0.053,0.928,0.16c0.284,0.107,0.53,0.255,0.736,0.443c0.207,0.189,0.366,0.412,0.48,0.668s0.171,0.538,0.171,0.844
		v0.021c0,0.271-0.037,0.521-0.112,0.753s-0.188,0.459-0.341,0.684c-0.153,0.224-0.349,0.454-0.587,0.689
		c-0.238,0.235-0.521,0.495-0.848,0.78l-1.995,1.773h3.958v0.757h-5.216V98.127z"/>
</g>
<g>
	<path d="M14.051,146.021c-0.626,0-1.17-0.121-1.632-0.363c-0.462-0.242-0.847-0.562-1.152-0.96l0.608-0.544
		c0.292,0.356,0.614,0.629,0.965,0.821c0.352,0.192,0.759,0.288,1.222,0.288c0.228,0,0.441-0.034,0.64-0.102
		c0.199-0.067,0.372-0.166,0.518-0.294c0.146-0.128,0.261-0.281,0.347-0.459c0.085-0.178,0.128-0.377,0.128-0.598v-0.021
		c0-0.235-0.052-0.441-0.155-0.62s-0.247-0.328-0.432-0.449c-0.185-0.121-0.406-0.214-0.662-0.278s-0.537-0.096-0.843-0.096h-0.48
		l-0.17-0.502l2.357-2.661h-3.648v-0.757h4.759v0.619l-2.338,2.603c0.327,0.028,0.638,0.089,0.934,0.181
		c0.295,0.092,0.556,0.224,0.781,0.395c0.226,0.171,0.405,0.382,0.539,0.635c0.133,0.252,0.2,0.549,0.2,0.891v0.021
		c0,0.334-0.065,0.64-0.195,0.917c-0.13,0.277-0.306,0.514-0.528,0.709c-0.222,0.196-0.484,0.349-0.786,0.459
		C14.725,145.965,14.399,146.021,14.051,146.021z"/>
</g>
<g>
	<path d="M15.341,191.013h-3.936l-0.213-0.608l4.224-5.141h0.736v5.045h1.163v0.704h-1.163v1.771h-0.811V191.013z M15.341,190.309
		v-3.851l-3.136,3.851H15.341z"/>
</g>
<g>
	<path d="M13.965,240.912c-0.533,0-1.026-0.11-1.477-0.331c-0.452-0.221-0.848-0.502-1.189-0.842l0.555-0.608
		c0.327,0.32,0.667,0.57,1.019,0.752s0.72,0.272,1.104,0.272c0.263,0,0.507-0.041,0.73-0.123c0.224-0.082,0.415-0.198,0.571-0.349
		c0.156-0.149,0.279-0.326,0.368-0.529c0.089-0.203,0.133-0.423,0.133-0.658v-0.021c0-0.235-0.046-0.449-0.139-0.642
		c-0.093-0.193-0.221-0.358-0.384-0.498c-0.164-0.139-0.359-0.246-0.586-0.321c-0.228-0.074-0.477-0.112-0.747-0.112
		c-0.32,0-0.606,0.041-0.859,0.123s-0.489,0.183-0.709,0.304l-0.565-0.373l0.213-3.638h4.292v0.779h-3.556l-0.16,2.383
		c0.22-0.101,0.443-0.182,0.667-0.243c0.224-0.062,0.492-0.092,0.805-0.092c0.363,0,0.7,0.052,1.013,0.154
		c0.313,0.104,0.586,0.255,0.818,0.455c0.233,0.199,0.414,0.439,0.544,0.722c0.129,0.281,0.195,0.601,0.195,0.956v0.021
		c0,0.363-0.065,0.697-0.195,1c-0.13,0.303-0.312,0.563-0.544,0.78c-0.232,0.217-0.513,0.385-0.84,0.503
		C14.715,240.853,14.356,240.912,13.965,240.912z"/>
</g>
</svg>
