<?xml version="1.0" encoding="utf-8"?>
<!-- Generator: Adobe Illustrator 15.1.0, SVG Export Plug-In . SVG Version: 6.00 Build 0)  -->
<!DOCTYPE svg PUBLIC "-//W3C//DTD SVG 1.1//EN" "http://www.w3.org/Graphics/SVG/1.1/DTD/svg11.dtd">
<svg version="1.1" id="Layer_1" xmlns="http://www.w3.org/2000/svg" xmlns:xlink="http://www.w3.org/1999/xlink" x="0px" y="0px"
	 width="819.37px" height="271.337px" viewBox="0 0 819.37 271.337" enable-background="new 0 0 819.37 271.337"
	 xml:space="preserve">
<g>
	<path fill="#808285" d="M10.737-125.076h5.397v0.757H11.58v2.571h4.075v0.757H11.58v2.624h4.608v0.757h-5.451V-125.076z"/>
	<path fill="#808285" d="M20.327-117.481c-0.405,0-0.781-0.077-1.125-0.229c-0.345-0.153-0.644-0.359-0.896-0.619
		c-0.252-0.259-0.45-0.563-0.592-0.912c-0.143-0.349-0.213-0.715-0.213-1.099v-0.021c0-0.391,0.071-0.761,0.213-1.109
		c0.142-0.348,0.339-0.654,0.592-0.917c0.252-0.263,0.551-0.471,0.896-0.624c0.345-0.153,0.72-0.229,1.125-0.229
		c0.263,0,0.501,0.025,0.714,0.075s0.409,0.119,0.587,0.208s0.341,0.194,0.491,0.314c0.149,0.121,0.288,0.249,0.416,0.384
		l-0.544,0.576c-0.221-0.228-0.461-0.423-0.72-0.586c-0.26-0.164-0.578-0.246-0.955-0.246c-0.277,0-0.537,0.055-0.779,0.166
		s-0.452,0.261-0.629,0.453s-0.316,0.418-0.416,0.677c-0.1,0.26-0.149,0.539-0.149,0.837v0.021c0,0.299,0.052,0.578,0.155,0.837
		s0.246,0.487,0.427,0.683s0.395,0.349,0.64,0.458c0.245,0.11,0.514,0.166,0.805,0.166c0.355,0,0.67-0.078,0.944-0.235
		c0.274-0.156,0.521-0.352,0.742-0.586l0.522,0.491c-0.277,0.313-0.592,0.569-0.944,0.768
		C21.281-117.581,20.846-117.481,20.327-117.481z"/>
	<path fill="#808285" d="M26.545-117.481c-0.413,0-0.793-0.077-1.141-0.229c-0.349-0.153-0.651-0.359-0.907-0.619
		c-0.256-0.259-0.455-0.562-0.597-0.906c-0.143-0.345-0.213-0.713-0.213-1.104v-0.021c0-0.391,0.071-0.761,0.213-1.109
		c0.142-0.348,0.341-0.654,0.597-0.917c0.256-0.263,0.56-0.471,0.912-0.624c0.352-0.153,0.737-0.229,1.157-0.229
		c0.412,0,0.794,0.076,1.146,0.229c0.352,0.153,0.656,0.359,0.912,0.619c0.256,0.26,0.455,0.562,0.597,0.907
		c0.143,0.345,0.213,0.713,0.213,1.104v0.021c0,0.391-0.073,0.761-0.219,1.109c-0.146,0.349-0.347,0.654-0.603,0.917
		c-0.256,0.263-0.562,0.471-0.917,0.624C27.341-117.558,26.958-117.481,26.545-117.481z M26.566-118.217
		c0.299,0,0.572-0.057,0.821-0.171c0.249-0.113,0.462-0.267,0.64-0.458c0.178-0.192,0.316-0.416,0.416-0.672
		c0.099-0.256,0.149-0.53,0.149-0.821v-0.021c0-0.299-0.051-0.578-0.154-0.837c-0.104-0.259-0.247-0.487-0.432-0.683
		c-0.185-0.195-0.402-0.35-0.651-0.464s-0.519-0.171-0.811-0.171c-0.298,0-0.572,0.057-0.821,0.171s-0.46,0.267-0.635,0.458
		s-0.311,0.418-0.411,0.677c-0.1,0.26-0.149,0.535-0.149,0.827v0.021c0,0.299,0.052,0.578,0.155,0.837s0.246,0.485,0.427,0.677
		s0.396,0.345,0.646,0.458C26.004-118.274,26.275-118.217,26.566-118.217z"/>
	<path fill="#808285" d="M32.838-117.503c-0.398,0-0.8-0.073-1.205-0.218c-0.405-0.146-0.765-0.343-1.078-0.592l0.416-0.586
		c0.299,0.228,0.61,0.402,0.934,0.522c0.323,0.121,0.649,0.182,0.976,0.182c0.334,0,0.608-0.079,0.821-0.235s0.32-0.37,0.32-0.64
		v-0.021c0-0.135-0.037-0.252-0.112-0.352s-0.176-0.187-0.304-0.262s-0.275-0.14-0.442-0.197c-0.167-0.057-0.34-0.11-0.518-0.16
		c-0.213-0.064-0.429-0.133-0.646-0.208s-0.412-0.169-0.586-0.283s-0.316-0.256-0.427-0.427c-0.11-0.171-0.166-0.384-0.166-0.64
		v-0.021c0-0.234,0.046-0.449,0.139-0.645c0.093-0.196,0.222-0.363,0.39-0.501c0.167-0.139,0.366-0.245,0.597-0.32
		s0.482-0.112,0.752-0.112c0.341,0,0.687,0.055,1.035,0.166c0.349,0.11,0.665,0.258,0.949,0.443l-0.373,0.619
		c-0.256-0.164-0.524-0.293-0.805-0.39c-0.281-0.096-0.557-0.144-0.827-0.144c-0.327,0-0.587,0.077-0.779,0.229
		s-0.288,0.343-0.288,0.571v0.021c0,0.128,0.039,0.24,0.117,0.336c0.078,0.096,0.183,0.179,0.315,0.25
		c0.131,0.071,0.283,0.135,0.453,0.192c0.171,0.057,0.349,0.114,0.533,0.171c0.213,0.064,0.425,0.135,0.635,0.213
		c0.21,0.078,0.4,0.178,0.571,0.298c0.17,0.121,0.308,0.267,0.411,0.438c0.103,0.17,0.155,0.38,0.155,0.629v0.021
		c0,0.263-0.052,0.496-0.155,0.699s-0.242,0.375-0.416,0.518s-0.38,0.25-0.619,0.325S33.116-117.503,32.838-117.503z"/>
	<path fill="#808285" d="M37.286-115.871c-0.228,0-0.434-0.023-0.619-0.069c-0.185-0.046-0.37-0.116-0.555-0.208l0.277-0.651
		c0.135,0.071,0.269,0.123,0.4,0.155c0.131,0.032,0.286,0.048,0.464,0.048c0.249,0,0.458-0.075,0.629-0.224
		c0.17-0.149,0.337-0.42,0.501-0.811l-2.506-5.493h0.907l2.005,4.597l1.771-4.597h0.875l-2.314,5.696
		c-0.235,0.569-0.496,0.971-0.784,1.206C38.049-115.988,37.699-115.871,37.286-115.871z"/>
	<path fill="#808285" d="M44.667-117.503c-0.398,0-0.8-0.073-1.205-0.218c-0.405-0.146-0.765-0.343-1.078-0.592L42.8-118.9
		c0.299,0.228,0.61,0.402,0.934,0.522c0.323,0.121,0.649,0.182,0.976,0.182c0.334,0,0.608-0.079,0.821-0.235s0.32-0.37,0.32-0.64
		v-0.021c0-0.135-0.037-0.252-0.112-0.352s-0.176-0.187-0.304-0.262s-0.275-0.14-0.442-0.197c-0.167-0.057-0.34-0.11-0.518-0.16
		c-0.213-0.064-0.429-0.133-0.646-0.208s-0.412-0.169-0.586-0.283s-0.316-0.256-0.427-0.427c-0.11-0.171-0.166-0.384-0.166-0.64
		v-0.021c0-0.234,0.046-0.449,0.139-0.645c0.093-0.196,0.222-0.363,0.39-0.501c0.167-0.139,0.366-0.245,0.597-0.32
		s0.482-0.112,0.752-0.112c0.341,0,0.687,0.055,1.035,0.166c0.349,0.11,0.665,0.258,0.949,0.443l-0.373,0.619
		c-0.256-0.164-0.524-0.293-0.805-0.39c-0.281-0.096-0.557-0.144-0.827-0.144c-0.327,0-0.587,0.077-0.779,0.229
		s-0.288,0.343-0.288,0.571v0.021c0,0.128,0.039,0.24,0.117,0.336c0.078,0.096,0.183,0.179,0.315,0.25
		c0.131,0.071,0.283,0.135,0.453,0.192c0.171,0.057,0.349,0.114,0.533,0.171c0.213,0.064,0.425,0.135,0.635,0.213
		c0.21,0.078,0.4,0.178,0.571,0.298c0.17,0.121,0.308,0.267,0.411,0.438c0.103,0.17,0.155,0.38,0.155,0.629v0.021
		c0,0.263-0.052,0.496-0.155,0.699s-0.242,0.375-0.416,0.518s-0.38,0.25-0.619,0.325S44.944-117.503,44.667-117.503z"/>
	<path fill="#808285" d="M50.107-117.513c-0.221,0-0.427-0.029-0.619-0.085c-0.192-0.057-0.357-0.147-0.496-0.272
		s-0.247-0.286-0.325-0.485c-0.079-0.199-0.117-0.438-0.117-0.715v-3.328h-0.768v-0.725h0.768v-1.664h0.821v1.664h1.749v0.725
		h-1.749v3.213c0,0.34,0.085,0.578,0.256,0.713c0.17,0.135,0.395,0.202,0.672,0.202c0.142,0,0.275-0.014,0.4-0.041
		s0.258-0.074,0.4-0.141v0.704c-0.143,0.078-0.293,0.137-0.454,0.176C50.486-117.533,50.306-117.513,50.107-117.513z"/>
	<path fill="#808285" d="M53.168-120.031c0.028,0.292,0.099,0.551,0.213,0.779s0.26,0.419,0.438,0.576
		c0.178,0.157,0.377,0.276,0.597,0.357c0.221,0.082,0.452,0.123,0.693,0.123c0.384,0,0.713-0.071,0.987-0.213
		c0.274-0.143,0.524-0.331,0.752-0.565l0.512,0.458c-0.277,0.313-0.594,0.564-0.949,0.752c-0.356,0.188-0.797,0.283-1.323,0.283
		c-0.377,0-0.732-0.069-1.067-0.208s-0.626-0.334-0.875-0.586c-0.249-0.252-0.446-0.557-0.592-0.912
		c-0.146-0.355-0.218-0.747-0.218-1.173c0-0.398,0.065-0.773,0.197-1.125c0.131-0.352,0.314-0.658,0.549-0.917
		c0.234-0.26,0.514-0.464,0.837-0.614c0.323-0.149,0.677-0.224,1.061-0.224c0.405,0,0.768,0.076,1.088,0.229
		c0.32,0.153,0.59,0.361,0.811,0.624c0.22,0.263,0.387,0.573,0.501,0.928s0.171,0.736,0.171,1.141c0,0.036,0,0.077,0,0.123
		c0,0.046-0.004,0.101-0.011,0.165H53.168z M56.72-120.703c-0.021-0.248-0.075-0.482-0.16-0.705
		c-0.085-0.223-0.201-0.419-0.347-0.589c-0.146-0.169-0.323-0.304-0.533-0.403s-0.45-0.148-0.72-0.148
		c-0.235,0-0.456,0.046-0.662,0.138s-0.388,0.221-0.544,0.387s-0.286,0.362-0.389,0.588c-0.104,0.227-0.169,0.47-0.197,0.732H56.72z
		"/>
	<path fill="#808285" d="M59.099-123.124h0.821v0.928c0.092-0.135,0.193-0.267,0.304-0.395s0.236-0.24,0.379-0.336
		c0.142-0.096,0.302-0.172,0.48-0.229c0.178-0.057,0.384-0.085,0.619-0.085c0.448,0,0.818,0.105,1.109,0.314
		c0.292,0.21,0.512,0.471,0.661,0.784c0.1-0.149,0.211-0.292,0.336-0.427s0.265-0.252,0.421-0.352s0.333-0.178,0.528-0.235
		c0.195-0.057,0.414-0.085,0.656-0.085c0.64,0,1.142,0.197,1.504,0.592c0.363,0.395,0.544,0.937,0.544,1.627v3.413H66.64v-3.214
		c0-0.532-0.126-0.942-0.378-1.229c-0.252-0.288-0.603-0.431-1.051-0.431c-0.207,0-0.402,0.037-0.586,0.112
		c-0.185,0.074-0.347,0.185-0.485,0.33c-0.139,0.146-0.249,0.325-0.331,0.538c-0.082,0.213-0.123,0.454-0.123,0.724v3.172h-0.811
		v-3.236c0-0.518-0.126-0.92-0.379-1.208c-0.252-0.288-0.599-0.431-1.04-0.431c-0.221,0-0.423,0.042-0.608,0.128
		c-0.185,0.085-0.347,0.206-0.485,0.362c-0.139,0.156-0.247,0.338-0.325,0.548s-0.117,0.442-0.117,0.697v3.14h-0.821V-123.124z"/>
	<path fill="#808285" d="M72.795-125.076h3.21c0.462,0,0.873,0.066,1.232,0.197c0.359,0.132,0.656,0.315,0.891,0.549
		c0.185,0.185,0.327,0.402,0.427,0.651s0.149,0.522,0.149,0.821v0.021c0,0.313-0.05,0.592-0.149,0.837
		c-0.1,0.245-0.24,0.458-0.421,0.64c-0.181,0.182-0.396,0.331-0.645,0.448c-0.249,0.117-0.52,0.201-0.811,0.25l2.293,3.051h-1.035
		l-2.165-2.901H75.75h-2.112v2.901h-0.842V-125.076z M75.937-121.268c0.278,0,0.535-0.036,0.77-0.106
		c0.235-0.071,0.438-0.172,0.609-0.304c0.171-0.131,0.305-0.292,0.401-0.48c0.096-0.188,0.144-0.403,0.144-0.646v-0.021
		c0-0.462-0.167-0.823-0.502-1.083c-0.335-0.259-0.806-0.389-1.412-0.389h-2.31v3.029H75.937z"/>
	<path fill="#808285" d="M80.965-120.031c0.028,0.292,0.099,0.551,0.213,0.779s0.26,0.419,0.438,0.576
		c0.178,0.157,0.377,0.276,0.597,0.357c0.221,0.082,0.452,0.123,0.693,0.123c0.384,0,0.713-0.071,0.987-0.213
		c0.274-0.143,0.524-0.331,0.752-0.565l0.512,0.458c-0.277,0.313-0.594,0.564-0.949,0.752c-0.356,0.188-0.797,0.283-1.323,0.283
		c-0.377,0-0.732-0.069-1.067-0.208s-0.626-0.334-0.875-0.586c-0.249-0.252-0.446-0.557-0.592-0.912
		c-0.146-0.355-0.218-0.747-0.218-1.173c0-0.398,0.065-0.773,0.197-1.125c0.131-0.352,0.314-0.658,0.549-0.917
		c0.234-0.26,0.514-0.464,0.837-0.614c0.323-0.149,0.677-0.224,1.061-0.224c0.405,0,0.768,0.076,1.088,0.229
		c0.32,0.153,0.59,0.361,0.811,0.624c0.22,0.263,0.387,0.573,0.501,0.928s0.171,0.736,0.171,1.141c0,0.036,0,0.077,0,0.123
		c0,0.046-0.004,0.101-0.011,0.165H80.965z M84.517-120.703c-0.021-0.248-0.075-0.482-0.16-0.705
		c-0.085-0.223-0.201-0.419-0.347-0.589c-0.146-0.169-0.323-0.304-0.533-0.403s-0.45-0.148-0.72-0.148
		c-0.235,0-0.456,0.046-0.662,0.138s-0.388,0.221-0.544,0.387s-0.286,0.362-0.389,0.588c-0.104,0.227-0.169,0.47-0.197,0.732H84.517
		z"/>
	<path fill="#808285" d="M86.971-125.396h0.821v7.787h-0.821V-125.396z"/>
	<path fill="#808285" d="M91.45-117.492c-0.256,0-0.509-0.036-0.757-0.106c-0.249-0.071-0.469-0.18-0.662-0.325
		c-0.192-0.146-0.347-0.326-0.464-0.539s-0.176-0.462-0.176-0.747v-0.021c0-0.299,0.057-0.56,0.17-0.784s0.275-0.411,0.485-0.56
		s0.459-0.263,0.747-0.341c0.288-0.078,0.606-0.117,0.955-0.117c0.355,0,0.663,0.021,0.922,0.064c0.26,0.042,0.514,0.1,0.763,0.17
		v-0.169c0-0.487-0.142-0.856-0.427-1.107c-0.284-0.251-0.686-0.376-1.205-0.376c-0.327,0-0.624,0.036-0.891,0.107
		c-0.267,0.071-0.528,0.167-0.784,0.288l-0.245-0.676c0.306-0.144,0.615-0.259,0.928-0.346c0.313-0.086,0.672-0.13,1.078-0.13
		c0.782,0,1.376,0.203,1.781,0.608c0.384,0.384,0.576,0.925,0.576,1.622v3.371h-0.811v-0.821c-0.192,0.249-0.45,0.468-0.773,0.656
		C92.337-117.586,91.934-117.492,91.45-117.492z M91.616-118.164c0.255,0,0.493-0.035,0.712-0.106s0.413-0.172,0.58-0.303
		c0.166-0.131,0.297-0.287,0.393-0.467c0.096-0.18,0.144-0.38,0.144-0.6v-0.51c-0.206-0.056-0.439-0.109-0.702-0.159
		c-0.262-0.049-0.563-0.074-0.904-0.074c-0.51,0-0.905,0.101-1.186,0.303c-0.28,0.202-0.419,0.469-0.419,0.801v0.021
		c0,0.17,0.037,0.324,0.111,0.461c0.074,0.138,0.175,0.253,0.303,0.345c0.127,0.092,0.274,0.163,0.441,0.212
		S91.432-118.164,91.616-118.164z"/>
	<path fill="#808285" d="M97.936-117.513c-0.221,0-0.427-0.029-0.619-0.085c-0.192-0.057-0.357-0.147-0.496-0.272
		s-0.247-0.286-0.325-0.485c-0.079-0.199-0.117-0.438-0.117-0.715v-3.328H95.61v-0.725h0.768v-1.664H97.2v1.664h1.749v0.725H97.2
		v3.213c0,0.34,0.085,0.578,0.256,0.713c0.17,0.135,0.395,0.202,0.672,0.202c0.142,0,0.275-0.014,0.4-0.041s0.258-0.074,0.4-0.141
		v0.704c-0.143,0.078-0.293,0.137-0.454,0.176C98.314-117.533,98.134-117.513,97.936-117.513z"/>
	<path fill="#808285" d="M100.527-125.236h0.939v0.906h-0.939V-125.236z M100.581-123.124h0.821v5.515h-0.821V-123.124z"/>
	<path fill="#808285" d="M105.935-117.481c-0.413,0-0.793-0.077-1.141-0.229c-0.349-0.153-0.651-0.359-0.907-0.619
		c-0.256-0.259-0.455-0.562-0.597-0.906c-0.143-0.345-0.213-0.713-0.213-1.104v-0.021c0-0.391,0.071-0.761,0.213-1.109
		c0.142-0.348,0.341-0.654,0.597-0.917c0.256-0.263,0.56-0.471,0.912-0.624c0.352-0.153,0.737-0.229,1.157-0.229
		c0.412,0,0.794,0.076,1.146,0.229c0.352,0.153,0.656,0.359,0.912,0.619c0.256,0.26,0.455,0.562,0.597,0.907
		c0.143,0.345,0.213,0.713,0.213,1.104v0.021c0,0.391-0.073,0.761-0.219,1.109c-0.146,0.349-0.347,0.654-0.603,0.917
		c-0.256,0.263-0.562,0.471-0.917,0.624C106.731-117.558,106.348-117.481,105.935-117.481z M105.957-118.217
		c0.299,0,0.572-0.057,0.821-0.171c0.249-0.113,0.462-0.267,0.64-0.458c0.178-0.192,0.316-0.416,0.416-0.672
		c0.099-0.256,0.149-0.53,0.149-0.821v-0.021c0-0.299-0.051-0.578-0.154-0.837c-0.104-0.259-0.247-0.487-0.432-0.683
		c-0.185-0.195-0.402-0.35-0.651-0.464s-0.519-0.171-0.811-0.171c-0.298,0-0.572,0.057-0.821,0.171s-0.46,0.267-0.635,0.458
		s-0.311,0.418-0.411,0.677c-0.1,0.26-0.149,0.535-0.149,0.827v0.021c0,0.299,0.052,0.578,0.155,0.837s0.246,0.485,0.427,0.677
		s0.396,0.345,0.646,0.458C105.395-118.274,105.665-118.217,105.957-118.217z"/>
	<path fill="#808285" d="M110.416-123.124h0.821v0.96c0.185-0.299,0.427-0.553,0.725-0.763c0.299-0.209,0.687-0.314,1.163-0.314
		c0.334,0,0.631,0.053,0.891,0.16c0.26,0.107,0.48,0.258,0.662,0.454s0.32,0.428,0.416,0.699c0.096,0.27,0.144,0.569,0.144,0.896
		v3.424h-0.821v-3.214c0-0.511-0.132-0.916-0.395-1.213s-0.64-0.447-1.13-0.447c-0.235,0-0.454,0.041-0.656,0.123
		c-0.203,0.082-0.378,0.198-0.528,0.351c-0.149,0.152-0.265,0.335-0.347,0.548c-0.082,0.213-0.123,0.447-0.123,0.703v3.15h-0.821
		V-123.124z"/>
	<path fill="#808285" d="M118.917-117.503c-0.398,0-0.8-0.073-1.205-0.218c-0.405-0.146-0.765-0.343-1.078-0.592l0.416-0.586
		c0.299,0.228,0.61,0.402,0.934,0.522c0.323,0.121,0.649,0.182,0.976,0.182c0.334,0,0.608-0.079,0.821-0.235s0.32-0.37,0.32-0.64
		v-0.021c0-0.135-0.037-0.252-0.112-0.352s-0.176-0.187-0.304-0.262s-0.275-0.14-0.442-0.197c-0.167-0.057-0.34-0.11-0.518-0.16
		c-0.213-0.064-0.429-0.133-0.646-0.208s-0.412-0.169-0.586-0.283s-0.316-0.256-0.427-0.427c-0.11-0.171-0.166-0.384-0.166-0.64
		v-0.021c0-0.234,0.046-0.449,0.139-0.645c0.093-0.196,0.222-0.363,0.39-0.501c0.167-0.139,0.366-0.245,0.597-0.32
		s0.482-0.112,0.752-0.112c0.341,0,0.687,0.055,1.035,0.166c0.349,0.11,0.665,0.258,0.949,0.443l-0.373,0.619
		c-0.256-0.164-0.524-0.293-0.805-0.39c-0.281-0.096-0.557-0.144-0.827-0.144c-0.327,0-0.587,0.077-0.779,0.229
		s-0.288,0.343-0.288,0.571v0.021c0,0.128,0.039,0.24,0.117,0.336c0.078,0.096,0.183,0.179,0.315,0.25
		c0.131,0.071,0.283,0.135,0.453,0.192c0.171,0.057,0.349,0.114,0.533,0.171c0.213,0.064,0.425,0.135,0.635,0.213
		c0.21,0.078,0.4,0.178,0.571,0.298c0.17,0.121,0.308,0.267,0.411,0.438c0.103,0.17,0.155,0.38,0.155,0.629v0.021
		c0,0.263-0.052,0.496-0.155,0.699s-0.242,0.375-0.416,0.518s-0.38,0.25-0.619,0.325S119.194-117.503,118.917-117.503z"/>
	<path fill="#808285" d="M122.511-125.396h0.821v3.232c0.185-0.299,0.427-0.553,0.725-0.763c0.299-0.209,0.687-0.314,1.163-0.314
		c0.334,0,0.631,0.053,0.891,0.16c0.26,0.107,0.48,0.258,0.662,0.454s0.32,0.428,0.416,0.699c0.096,0.27,0.144,0.569,0.144,0.896
		v3.424h-0.821v-3.214c0-0.511-0.132-0.916-0.395-1.213s-0.64-0.447-1.13-0.447c-0.235,0-0.454,0.041-0.656,0.123
		c-0.203,0.082-0.378,0.198-0.528,0.351c-0.149,0.152-0.265,0.335-0.347,0.548c-0.082,0.213-0.123,0.447-0.123,0.703v3.15h-0.821
		V-125.396z"/>
	<path fill="#808285" d="M129.209-125.236h0.939v0.906h-0.939V-125.236z M129.263-123.124h0.821v5.515h-0.821V-123.124z"/>
	<path fill="#808285" d="M132.1-123.124h0.821v1.109c0.114-0.164,0.24-0.32,0.378-0.469s0.293-0.279,0.464-0.39
		c0.17-0.11,0.361-0.199,0.57-0.267c0.21-0.067,0.443-0.101,0.699-0.101c0.327,0,0.649,0.064,0.965,0.192s0.599,0.314,0.848,0.56
		c0.249,0.245,0.448,0.544,0.597,0.896s0.224,0.755,0.224,1.21v0.021c0,0.448-0.075,0.85-0.224,1.205
		c-0.149,0.356-0.347,0.656-0.592,0.901c-0.246,0.246-0.526,0.434-0.843,0.565s-0.642,0.197-0.976,0.197
		c-0.256,0-0.491-0.032-0.704-0.096s-0.405-0.149-0.576-0.256c-0.171-0.106-0.326-0.231-0.464-0.373s-0.261-0.292-0.368-0.448v2.763
		H132.1V-123.124z M134.884-118.228c0.263,0,0.514-0.048,0.752-0.144s0.444-0.235,0.619-0.416s0.313-0.403,0.416-0.667
		s0.155-0.562,0.155-0.896v-0.021c0-0.327-0.052-0.622-0.155-0.885s-0.244-0.487-0.421-0.672c-0.178-0.185-0.384-0.327-0.619-0.427
		c-0.234-0.1-0.483-0.149-0.747-0.149c-0.256,0-0.503,0.052-0.741,0.155s-0.452,0.249-0.64,0.437
		c-0.188,0.188-0.338,0.413-0.448,0.672c-0.11,0.259-0.166,0.546-0.166,0.858v0.021c0,0.32,0.055,0.612,0.166,0.875
		c0.11,0.263,0.259,0.487,0.448,0.672c0.188,0.185,0.402,0.329,0.64,0.432C134.381-118.279,134.628-118.228,134.884-118.228z"/>
	<path fill="#808285" d="M142.734-125.076h0.853l2.72,4.075l2.72-4.075h0.854v7.467h-0.843v-6.048l-2.72,4h-0.043l-2.72-3.989v6.037
		h-0.821V-125.076z"/>
	<path fill="#808285" d="M153.593-117.492c-0.256,0-0.509-0.036-0.757-0.106c-0.249-0.071-0.469-0.18-0.662-0.325
		c-0.192-0.146-0.347-0.326-0.464-0.539s-0.176-0.462-0.176-0.747v-0.021c0-0.299,0.057-0.56,0.17-0.784s0.275-0.411,0.485-0.56
		s0.459-0.263,0.747-0.341c0.288-0.078,0.606-0.117,0.955-0.117c0.355,0,0.663,0.021,0.922,0.064c0.26,0.042,0.514,0.1,0.763,0.17
		v-0.169c0-0.487-0.142-0.856-0.427-1.107c-0.284-0.251-0.686-0.376-1.205-0.376c-0.327,0-0.624,0.036-0.891,0.107
		c-0.267,0.071-0.528,0.167-0.784,0.288l-0.245-0.676c0.306-0.144,0.615-0.259,0.928-0.346c0.313-0.086,0.672-0.13,1.078-0.13
		c0.782,0,1.376,0.203,1.781,0.608c0.384,0.384,0.576,0.925,0.576,1.622v3.371h-0.811v-0.821c-0.192,0.249-0.45,0.468-0.773,0.656
		C154.48-117.586,154.077-117.492,153.593-117.492z M153.759-118.164c0.255,0,0.493-0.035,0.712-0.106s0.413-0.172,0.58-0.303
		c0.166-0.131,0.297-0.287,0.393-0.467c0.096-0.18,0.144-0.38,0.144-0.6v-0.51c-0.206-0.056-0.439-0.109-0.702-0.159
		c-0.262-0.049-0.563-0.074-0.904-0.074c-0.51,0-0.905,0.101-1.186,0.303c-0.28,0.202-0.419,0.469-0.419,0.801v0.021
		c0,0.17,0.037,0.324,0.111,0.461c0.074,0.138,0.175,0.253,0.303,0.345c0.127,0.092,0.274,0.163,0.441,0.212
		S153.575-118.164,153.759-118.164z"/>
	<path fill="#808285" d="M158.233-123.124h0.821v0.96c0.185-0.299,0.427-0.553,0.725-0.763c0.299-0.209,0.687-0.314,1.163-0.314
		c0.334,0,0.631,0.053,0.891,0.16c0.26,0.107,0.48,0.258,0.662,0.454s0.32,0.428,0.416,0.699c0.096,0.27,0.144,0.569,0.144,0.896
		v3.424h-0.821v-3.214c0-0.511-0.132-0.916-0.395-1.213s-0.64-0.447-1.13-0.447c-0.235,0-0.454,0.041-0.656,0.123
		c-0.203,0.082-0.378,0.198-0.528,0.351c-0.149,0.152-0.265,0.335-0.347,0.548c-0.082,0.213-0.123,0.447-0.123,0.703v3.15h-0.821
		V-123.124z"/>
	<path fill="#808285" d="M166.542-117.492c-0.256,0-0.509-0.036-0.757-0.106c-0.249-0.071-0.469-0.18-0.662-0.325
		c-0.192-0.146-0.347-0.326-0.464-0.539s-0.176-0.462-0.176-0.747v-0.021c0-0.299,0.057-0.56,0.17-0.784s0.275-0.411,0.485-0.56
		s0.459-0.263,0.747-0.341c0.288-0.078,0.606-0.117,0.955-0.117c0.355,0,0.663,0.021,0.922,0.064c0.26,0.042,0.514,0.1,0.763,0.17
		v-0.169c0-0.487-0.142-0.856-0.427-1.107c-0.284-0.251-0.686-0.376-1.205-0.376c-0.327,0-0.624,0.036-0.891,0.107
		c-0.267,0.071-0.528,0.167-0.784,0.288l-0.245-0.676c0.306-0.144,0.615-0.259,0.928-0.346c0.313-0.086,0.672-0.13,1.078-0.13
		c0.782,0,1.376,0.203,1.781,0.608c0.384,0.384,0.576,0.925,0.576,1.622v3.371h-0.811v-0.821c-0.192,0.249-0.45,0.468-0.773,0.656
		C167.429-117.586,167.026-117.492,166.542-117.492z M166.708-118.164c0.255,0,0.493-0.035,0.712-0.106s0.413-0.172,0.58-0.303
		c0.166-0.131,0.297-0.287,0.393-0.467c0.096-0.18,0.144-0.38,0.144-0.6v-0.51c-0.206-0.056-0.439-0.109-0.702-0.159
		c-0.262-0.049-0.563-0.074-0.904-0.074c-0.51,0-0.905,0.101-1.186,0.303c-0.28,0.202-0.419,0.469-0.419,0.801v0.021
		c0,0.17,0.037,0.324,0.111,0.461c0.074,0.138,0.175,0.253,0.303,0.345c0.127,0.092,0.274,0.163,0.441,0.212
		S166.524-118.164,166.708-118.164z"/>
	<path fill="#808285" d="M173.625-115.881c-0.462,0-0.903-0.064-1.323-0.192c-0.419-0.128-0.814-0.32-1.184-0.576l0.373-0.64
		c0.32,0.228,0.654,0.402,1.003,0.523c0.348,0.121,0.722,0.181,1.12,0.181c0.612,0,1.099-0.165,1.461-0.496
		c0.363-0.331,0.544-0.819,0.544-1.466v-0.651c-0.242,0.32-0.537,0.594-0.885,0.821s-0.775,0.341-1.28,0.341
		c-0.334,0-0.656-0.06-0.965-0.181c-0.31-0.121-0.585-0.293-0.827-0.518c-0.242-0.224-0.436-0.494-0.582-0.811
		c-0.146-0.316-0.219-0.674-0.219-1.072v-0.021c0-0.405,0.073-0.768,0.219-1.088c0.146-0.32,0.339-0.592,0.582-0.816
		c0.242-0.224,0.519-0.396,0.832-0.518c0.313-0.121,0.633-0.181,0.96-0.181c0.256,0,0.492,0.03,0.709,0.09
		c0.217,0.061,0.413,0.141,0.587,0.24s0.333,0.217,0.475,0.352s0.27,0.277,0.384,0.427v-0.992h0.822v4.555
		c0,0.427-0.061,0.802-0.182,1.125c-0.121,0.323-0.295,0.599-0.522,0.827c-0.249,0.249-0.551,0.434-0.907,0.555
		C174.464-115.942,174.065-115.881,173.625-115.881z M173.614-118.761c0.263,0,0.516-0.044,0.757-0.133s0.457-0.217,0.646-0.384
		c0.188-0.167,0.339-0.364,0.453-0.592s0.171-0.48,0.171-0.757v-0.021c0-0.284-0.057-0.541-0.171-0.768s-0.265-0.423-0.453-0.586
		s-0.404-0.29-0.646-0.379c-0.242-0.089-0.494-0.133-0.757-0.133s-0.51,0.044-0.741,0.133c-0.231,0.089-0.434,0.213-0.608,0.374
		s-0.311,0.354-0.411,0.581c-0.1,0.228-0.149,0.484-0.149,0.768v0.021c0,0.277,0.052,0.532,0.155,0.763s0.242,0.428,0.416,0.592
		s0.377,0.292,0.608,0.384S173.358-118.761,173.614-118.761z"/>
	<path fill="#808285" d="M178.862-120.031c0.028,0.292,0.099,0.551,0.213,0.779s0.26,0.419,0.438,0.576
		c0.178,0.157,0.377,0.276,0.597,0.357c0.221,0.082,0.452,0.123,0.693,0.123c0.384,0,0.713-0.071,0.987-0.213
		c0.274-0.143,0.524-0.331,0.752-0.565l0.512,0.458c-0.277,0.313-0.594,0.564-0.949,0.752c-0.356,0.188-0.797,0.283-1.323,0.283
		c-0.377,0-0.732-0.069-1.067-0.208s-0.626-0.334-0.875-0.586c-0.249-0.252-0.446-0.557-0.592-0.912
		c-0.146-0.355-0.218-0.747-0.218-1.173c0-0.398,0.065-0.773,0.197-1.125c0.131-0.352,0.314-0.658,0.549-0.917
		c0.234-0.26,0.514-0.464,0.837-0.614c0.323-0.149,0.677-0.224,1.061-0.224c0.405,0,0.768,0.076,1.088,0.229
		c0.32,0.153,0.59,0.361,0.811,0.624c0.22,0.263,0.387,0.573,0.501,0.928s0.171,0.736,0.171,1.141c0,0.036,0,0.077,0,0.123
		c0,0.046-0.004,0.101-0.011,0.165H178.862z M182.414-120.703c-0.021-0.248-0.075-0.482-0.16-0.705
		c-0.085-0.223-0.201-0.419-0.347-0.589c-0.146-0.169-0.323-0.304-0.533-0.403s-0.45-0.148-0.72-0.148
		c-0.235,0-0.456,0.046-0.662,0.138s-0.388,0.221-0.544,0.387s-0.286,0.362-0.389,0.588c-0.104,0.227-0.169,0.47-0.197,0.732
		H182.414z"/>
	<path fill="#808285" d="M184.792-123.124h0.821v0.928c0.092-0.135,0.193-0.267,0.304-0.395s0.236-0.24,0.379-0.336
		c0.142-0.096,0.302-0.172,0.48-0.229c0.178-0.057,0.384-0.085,0.619-0.085c0.448,0,0.818,0.105,1.109,0.314
		c0.292,0.21,0.512,0.471,0.661,0.784c0.1-0.149,0.211-0.292,0.336-0.427s0.265-0.252,0.421-0.352s0.333-0.178,0.528-0.235
		c0.195-0.057,0.414-0.085,0.656-0.085c0.64,0,1.142,0.197,1.504,0.592c0.363,0.395,0.544,0.937,0.544,1.627v3.413h-0.821v-3.214
		c0-0.532-0.126-0.942-0.378-1.229c-0.252-0.288-0.603-0.431-1.051-0.431c-0.207,0-0.402,0.037-0.586,0.112
		c-0.185,0.074-0.347,0.185-0.485,0.33c-0.139,0.146-0.249,0.325-0.331,0.538c-0.082,0.213-0.123,0.454-0.123,0.724v3.172h-0.811
		v-3.236c0-0.518-0.126-0.92-0.379-1.208c-0.252-0.288-0.599-0.431-1.04-0.431c-0.221,0-0.423,0.042-0.608,0.128
		c-0.185,0.085-0.347,0.206-0.485,0.362c-0.139,0.156-0.247,0.338-0.325,0.548s-0.117,0.442-0.117,0.697v3.14h-0.821V-123.124z"/>
	<path fill="#808285" d="M195.534-120.031c0.028,0.292,0.099,0.551,0.213,0.779s0.26,0.419,0.438,0.576
		c0.178,0.157,0.377,0.276,0.597,0.357c0.221,0.082,0.452,0.123,0.693,0.123c0.384,0,0.713-0.071,0.987-0.213
		c0.274-0.143,0.524-0.331,0.752-0.565l0.512,0.458c-0.277,0.313-0.594,0.564-0.949,0.752c-0.356,0.188-0.797,0.283-1.323,0.283
		c-0.377,0-0.732-0.069-1.067-0.208s-0.626-0.334-0.875-0.586c-0.249-0.252-0.446-0.557-0.592-0.912
		c-0.146-0.355-0.218-0.747-0.218-1.173c0-0.398,0.065-0.773,0.197-1.125c0.131-0.352,0.314-0.658,0.549-0.917
		c0.234-0.26,0.514-0.464,0.837-0.614c0.323-0.149,0.677-0.224,1.061-0.224c0.405,0,0.768,0.076,1.088,0.229
		c0.32,0.153,0.59,0.361,0.811,0.624c0.22,0.263,0.387,0.573,0.501,0.928s0.171,0.736,0.171,1.141c0,0.036,0,0.077,0,0.123
		c0,0.046-0.004,0.101-0.011,0.165H195.534z M199.086-120.703c-0.021-0.248-0.075-0.482-0.16-0.705
		c-0.085-0.223-0.201-0.419-0.347-0.589c-0.146-0.169-0.323-0.304-0.533-0.403s-0.45-0.148-0.72-0.148
		c-0.235,0-0.456,0.046-0.662,0.138s-0.388,0.221-0.544,0.387s-0.286,0.362-0.389,0.588c-0.104,0.227-0.169,0.47-0.197,0.732
		H199.086z"/>
	<path fill="#808285" d="M201.464-123.124h0.821v0.96c0.185-0.299,0.427-0.553,0.725-0.763c0.299-0.209,0.687-0.314,1.163-0.314
		c0.334,0,0.631,0.053,0.891,0.16c0.26,0.107,0.48,0.258,0.662,0.454s0.32,0.428,0.416,0.699c0.096,0.27,0.144,0.569,0.144,0.896
		v3.424h-0.821v-3.214c0-0.511-0.132-0.916-0.395-1.213s-0.64-0.447-1.13-0.447c-0.235,0-0.454,0.041-0.656,0.123
		c-0.203,0.082-0.378,0.198-0.528,0.351c-0.149,0.152-0.265,0.335-0.347,0.548c-0.082,0.213-0.123,0.447-0.123,0.703v3.15h-0.821
		V-123.124z"/>
	<path fill="#808285" d="M209.977-117.513c-0.221,0-0.427-0.029-0.619-0.085c-0.192-0.057-0.357-0.147-0.496-0.272
		s-0.247-0.286-0.325-0.485c-0.079-0.199-0.117-0.438-0.117-0.715v-3.328h-0.768v-0.725h0.768v-1.664h0.821v1.664h1.749v0.725
		h-1.749v3.213c0,0.34,0.085,0.578,0.256,0.713c0.17,0.135,0.395,0.202,0.672,0.202c0.142,0,0.275-0.014,0.4-0.041
		s0.258-0.074,0.4-0.141v0.704c-0.143,0.078-0.293,0.137-0.454,0.176C210.355-117.533,210.175-117.513,209.977-117.513z"/>
</g>
<rect fill="#F79421" width="111.833" height="38.898"/>
<g>
	<path fill="#F9FDFE" d="M11.161,6.273h6.324v1.644h-4.5v1.704h3.96v1.644h-3.96v1.764h4.56v1.644h-6.384V6.273z"/>
	<path fill="#F9FDFE" d="M22.045,14.817c-0.48,0-0.926-0.088-1.338-0.264c-0.412-0.176-0.766-0.414-1.062-0.714
		c-0.296-0.3-0.528-0.652-0.696-1.056c-0.168-0.404-0.252-0.834-0.252-1.29v-0.024c0-0.456,0.084-0.888,0.252-1.296
		s0.4-0.764,0.696-1.068c0.296-0.304,0.65-0.544,1.062-0.72c0.412-0.176,0.866-0.264,1.362-0.264c0.608,0,1.112,0.096,1.512,0.288
		c0.4,0.192,0.751,0.456,1.056,0.792l-1.116,1.2c-0.208-0.216-0.422-0.388-0.642-0.516c-0.22-0.128-0.494-0.192-0.822-0.192
		c-0.232,0-0.442,0.046-0.63,0.138c-0.188,0.092-0.352,0.218-0.492,0.378c-0.14,0.16-0.248,0.346-0.324,0.558
		s-0.114,0.438-0.114,0.678v0.024c0,0.248,0.038,0.48,0.114,0.696c0.076,0.216,0.186,0.404,0.33,0.564s0.316,0.286,0.516,0.378
		c0.2,0.092,0.424,0.138,0.672,0.138c0.304,0,0.57-0.062,0.798-0.186s0.454-0.29,0.678-0.498l1.068,1.08
		c-0.312,0.344-0.668,0.626-1.068,0.846C23.205,14.707,22.685,14.817,22.045,14.817z"/>
	<path fill="#F9FDFE" d="M29.017,14.817c-0.496,0-0.956-0.086-1.38-0.258c-0.424-0.172-0.79-0.408-1.098-0.708
		c-0.308-0.3-0.55-0.652-0.726-1.056c-0.176-0.404-0.264-0.838-0.264-1.302v-0.024c0-0.464,0.088-0.898,0.264-1.302
		c0.176-0.404,0.42-0.758,0.732-1.062s0.68-0.544,1.104-0.72c0.424-0.176,0.888-0.264,1.392-0.264c0.496,0,0.956,0.086,1.38,0.258
		c0.424,0.172,0.79,0.408,1.098,0.708c0.308,0.3,0.55,0.652,0.726,1.056c0.176,0.404,0.264,0.838,0.264,1.302v0.024
		c0,0.464-0.088,0.898-0.264,1.302c-0.176,0.404-0.42,0.758-0.732,1.062s-0.68,0.544-1.104,0.72
		C29.985,14.729,29.521,14.817,29.017,14.817z M29.041,13.245c0.264,0,0.498-0.046,0.702-0.138c0.204-0.092,0.378-0.218,0.522-0.378
		c0.144-0.16,0.253-0.346,0.33-0.558s0.114-0.438,0.114-0.678v-0.024c0-0.24-0.04-0.466-0.12-0.678s-0.196-0.4-0.348-0.564
		s-0.332-0.294-0.54-0.39s-0.436-0.144-0.684-0.144c-0.264,0-0.498,0.046-0.702,0.138c-0.204,0.092-0.378,0.218-0.522,0.378
		s-0.254,0.346-0.33,0.558s-0.114,0.438-0.114,0.678v0.024c0,0.24,0.04,0.466,0.12,0.678s0.196,0.4,0.348,0.564
		s0.33,0.294,0.534,0.39C28.555,13.197,28.785,13.245,29.041,13.245z"/>
	<path fill="#F9FDFE" d="M36.084,14.793c-0.456,0-0.922-0.078-1.398-0.234c-0.476-0.156-0.93-0.402-1.362-0.738l0.78-1.2
		c0.352,0.256,0.702,0.448,1.05,0.576s0.674,0.192,0.978,0.192c0.264,0,0.458-0.043,0.582-0.132
		c0.124-0.088,0.186-0.204,0.186-0.348v-0.024c0-0.096-0.036-0.18-0.108-0.252c-0.072-0.072-0.17-0.134-0.294-0.186
		c-0.124-0.052-0.266-0.102-0.426-0.15c-0.16-0.048-0.328-0.1-0.504-0.156c-0.224-0.063-0.45-0.142-0.678-0.234
		c-0.228-0.092-0.434-0.212-0.618-0.36s-0.334-0.33-0.45-0.546c-0.116-0.216-0.174-0.48-0.174-0.792v-0.024
		c0-0.328,0.062-0.618,0.186-0.87s0.292-0.466,0.504-0.642c0.212-0.176,0.46-0.308,0.744-0.396c0.284-0.088,0.59-0.132,0.918-0.132
		c0.408,0,0.822,0.066,1.242,0.198c0.42,0.132,0.806,0.314,1.158,0.546l-0.696,1.26c-0.32-0.184-0.632-0.33-0.936-0.438
		s-0.572-0.162-0.804-0.162c-0.224,0-0.392,0.042-0.504,0.126c-0.112,0.084-0.168,0.19-0.168,0.318v0.024
		c0,0.088,0.036,0.166,0.108,0.234c0.072,0.068,0.168,0.132,0.288,0.192c0.12,0.06,0.258,0.118,0.414,0.174
		c0.156,0.056,0.322,0.112,0.498,0.168c0.224,0.072,0.452,0.158,0.684,0.258s0.44,0.222,0.624,0.366s0.336,0.32,0.456,0.528
		s0.18,0.46,0.18,0.756v0.024c0,0.36-0.063,0.67-0.186,0.93c-0.125,0.26-0.298,0.474-0.522,0.642
		c-0.224,0.168-0.486,0.294-0.786,0.378C36.75,14.751,36.429,14.793,36.084,14.793z"/>
	<path fill="#F9FDFE" d="M41.389,16.629c-0.336,0-0.632-0.04-0.888-0.12s-0.5-0.188-0.732-0.324l0.612-1.32
		c0.12,0.072,0.25,0.132,0.39,0.18s0.27,0.072,0.39,0.072c0.16,0,0.286-0.03,0.378-0.09s0.178-0.17,0.258-0.33l-2.52-6.456h1.932
		l1.464,4.38l1.404-4.38h1.896L43.5,14.829c-0.12,0.328-0.248,0.606-0.384,0.834c-0.136,0.228-0.286,0.414-0.45,0.558
		s-0.35,0.248-0.558,0.312S41.661,16.629,41.389,16.629z"/>
	<path fill="#F9FDFE" d="M49.308,14.793c-0.456,0-0.922-0.078-1.398-0.234c-0.476-0.156-0.93-0.402-1.362-0.738l0.78-1.2
		c0.352,0.256,0.702,0.448,1.05,0.576s0.674,0.192,0.978,0.192c0.264,0,0.458-0.043,0.582-0.132
		c0.124-0.088,0.186-0.204,0.186-0.348v-0.024c0-0.096-0.036-0.18-0.108-0.252c-0.072-0.072-0.17-0.134-0.294-0.186
		c-0.124-0.052-0.266-0.102-0.426-0.15c-0.16-0.048-0.328-0.1-0.504-0.156c-0.224-0.063-0.45-0.142-0.678-0.234
		c-0.228-0.092-0.434-0.212-0.618-0.36s-0.334-0.33-0.45-0.546c-0.116-0.216-0.174-0.48-0.174-0.792v-0.024
		c0-0.328,0.062-0.618,0.186-0.87s0.292-0.466,0.504-0.642c0.212-0.176,0.46-0.308,0.744-0.396c0.284-0.088,0.59-0.132,0.918-0.132
		c0.408,0,0.822,0.066,1.242,0.198c0.42,0.132,0.806,0.314,1.158,0.546l-0.696,1.26c-0.32-0.184-0.632-0.33-0.936-0.438
		s-0.572-0.162-0.804-0.162c-0.224,0-0.392,0.042-0.504,0.126c-0.112,0.084-0.168,0.19-0.168,0.318v0.024
		c0,0.088,0.036,0.166,0.108,0.234c0.072,0.068,0.168,0.132,0.288,0.192c0.12,0.06,0.258,0.118,0.414,0.174
		c0.156,0.056,0.322,0.112,0.498,0.168c0.224,0.072,0.452,0.158,0.684,0.258s0.44,0.222,0.624,0.366s0.336,0.32,0.456,0.528
		s0.18,0.46,0.18,0.756v0.024c0,0.36-0.063,0.67-0.186,0.93c-0.125,0.26-0.298,0.474-0.522,0.642
		c-0.224,0.168-0.486,0.294-0.786,0.378C49.974,14.751,49.652,14.793,49.308,14.793z"/>
	<path fill="#F9FDFE" d="M55.248,14.781c-0.28,0-0.534-0.03-0.762-0.09s-0.424-0.166-0.588-0.318
		c-0.164-0.152-0.292-0.35-0.384-0.594c-0.092-0.244-0.138-0.554-0.138-0.93V9.801h-0.768v-1.56h0.768V6.597H55.2v1.644h1.512v1.56
		H55.2v2.758c0,0.417,0.196,0.626,0.588,0.626c0.32,0,0.62-0.08,0.9-0.24v1.464c-0.192,0.112-0.404,0.202-0.636,0.27
		S55.552,14.781,55.248,14.781z"/>
	<path fill="#F9FDFE" d="M61.104,14.817c-0.48,0-0.926-0.08-1.338-0.24c-0.412-0.16-0.768-0.388-1.068-0.684
		s-0.534-0.646-0.702-1.05c-0.168-0.404-0.252-0.854-0.252-1.35v-0.024c0-0.456,0.078-0.888,0.234-1.296
		c0.156-0.408,0.374-0.764,0.654-1.068c0.28-0.304,0.614-0.544,1.002-0.72c0.388-0.176,0.818-0.264,1.29-0.264
		c0.536,0,1,0.096,1.392,0.288c0.392,0.192,0.718,0.45,0.978,0.774c0.26,0.324,0.452,0.696,0.576,1.116s0.186,0.858,0.186,1.314
		c0,0.072-0.002,0.148-0.006,0.228c-0.004,0.08-0.01,0.164-0.018,0.252h-4.476c0.088,0.416,0.27,0.73,0.546,0.942
		c0.276,0.212,0.618,0.318,1.026,0.318c0.304,0,0.576-0.052,0.816-0.156c0.24-0.104,0.488-0.272,0.744-0.504l1.044,0.924
		c-0.304,0.376-0.672,0.67-1.104,0.882C62.196,14.711,61.688,14.817,61.104,14.817z M62.28,10.953
		c-0.056-0.408-0.2-0.738-0.432-0.99s-0.54-0.378-0.924-0.378c-0.384,0-0.694,0.124-0.93,0.372s-0.39,0.58-0.462,0.996H62.28z"/>
	<path fill="#F9FDFE" d="M65.412,8.241h1.824V9.16c0.104-0.137,0.218-0.268,0.342-0.393s0.262-0.235,0.414-0.332
		c0.152-0.097,0.322-0.173,0.51-0.23c0.188-0.056,0.398-0.084,0.63-0.084c0.424,0,0.79,0.088,1.098,0.266s0.546,0.431,0.714,0.761
		c0.28-0.338,0.592-0.594,0.936-0.767c0.344-0.173,0.736-0.26,1.176-0.26c0.68,0,1.212,0.2,1.596,0.6
		c0.384,0.4,0.576,0.988,0.576,1.764v4.188h-1.824v-3.579c0-0.431-0.092-0.756-0.276-0.976s-0.448-0.329-0.792-0.329
		c-0.344,0-0.614,0.11-0.81,0.329c-0.196,0.219-0.294,0.544-0.294,0.976v3.579h-1.824v-3.579c0-0.431-0.092-0.756-0.276-0.976
		c-0.184-0.219-0.448-0.329-0.792-0.329c-0.344,0-0.614,0.11-0.81,0.329c-0.196,0.219-0.294,0.544-0.294,0.976v3.579h-1.824V8.241z"
		/>
</g>
<g>
	<path fill="#F9FDFE" d="M14.161,29.192c-0.64,0-1.268-0.11-1.884-0.33c-0.616-0.22-1.176-0.558-1.68-1.014l1.092-1.308
		c0.384,0.312,0.778,0.56,1.182,0.744c0.404,0.184,0.846,0.276,1.326,0.276c0.384,0,0.682-0.07,0.894-0.21
		c0.212-0.14,0.318-0.334,0.318-0.582v-0.024c0-0.12-0.022-0.226-0.066-0.318c-0.044-0.092-0.128-0.178-0.253-0.258
		s-0.297-0.16-0.517-0.24c-0.221-0.08-0.507-0.164-0.86-0.252c-0.425-0.104-0.81-0.22-1.155-0.348
		c-0.345-0.128-0.638-0.286-0.878-0.474s-0.427-0.422-0.559-0.702c-0.133-0.28-0.199-0.628-0.199-1.044v-0.024
		c0-0.384,0.071-0.73,0.214-1.038s0.344-0.574,0.602-0.798c0.258-0.224,0.567-0.396,0.926-0.516c0.358-0.12,0.754-0.18,1.186-0.18
		c0.616,0,1.182,0.092,1.698,0.276c0.516,0.184,0.99,0.448,1.422,0.792l-0.96,1.392c-0.376-0.256-0.744-0.458-1.104-0.606
		s-0.72-0.222-1.08-0.222c-0.36,0-0.63,0.07-0.81,0.21c-0.18,0.14-0.27,0.314-0.27,0.522v0.024c0,0.136,0.026,0.254,0.079,0.354
		c0.052,0.1,0.146,0.19,0.283,0.27c0.136,0.08,0.323,0.156,0.559,0.228c0.237,0.072,0.536,0.156,0.896,0.252
		c0.425,0.112,0.804,0.238,1.137,0.378s0.613,0.308,0.842,0.504c0.229,0.196,0.401,0.426,0.517,0.69s0.175,0.58,0.175,0.948v0.024
		c0,0.416-0.076,0.786-0.227,1.11c-0.151,0.324-0.362,0.596-0.632,0.816c-0.271,0.22-0.593,0.388-0.968,0.504
		C15.032,29.134,14.617,29.192,14.161,29.192z"/>
	<path fill="#F9FDFE" d="M18.649,22.64h1.824v0.924c0.224-0.304,0.494-0.554,0.81-0.75c0.316-0.196,0.714-0.294,1.194-0.294
		c0.376,0,0.74,0.072,1.092,0.216s0.664,0.358,0.936,0.642c0.272,0.284,0.49,0.632,0.654,1.044c0.164,0.412,0.246,0.886,0.246,1.422
		v0.024c0,0.536-0.082,1.01-0.246,1.422c-0.164,0.413-0.38,0.76-0.648,1.044c-0.269,0.284-0.578,0.498-0.93,0.642
		s-0.72,0.216-1.104,0.216c-0.488,0-0.89-0.096-1.206-0.288s-0.582-0.416-0.798-0.672v2.76h-1.824V22.64z M22.009,27.644
		c0.216,0,0.418-0.042,0.606-0.126c0.188-0.084,0.354-0.204,0.498-0.36c0.144-0.156,0.258-0.342,0.342-0.558
		c0.084-0.216,0.126-0.46,0.126-0.732v-0.024c0-0.264-0.042-0.506-0.126-0.726c-0.084-0.22-0.198-0.408-0.342-0.564
		c-0.144-0.156-0.31-0.276-0.498-0.36c-0.188-0.084-0.39-0.126-0.606-0.126c-0.216,0-0.418,0.042-0.606,0.126
		s-0.352,0.204-0.492,0.36c-0.14,0.156-0.252,0.344-0.336,0.564c-0.084,0.22-0.126,0.462-0.126,0.726v0.024
		c0,0.264,0.042,0.506,0.126,0.726c0.084,0.22,0.196,0.408,0.336,0.564c0.14,0.156,0.304,0.276,0.492,0.36
		S21.793,27.644,22.009,27.644z"/>
	<path fill="#F9FDFE" d="M26.749,20.313h1.824v3.247c0.104-0.137,0.218-0.268,0.342-0.393s0.262-0.235,0.414-0.332
		c0.152-0.097,0.32-0.173,0.504-0.23c0.184-0.056,0.392-0.084,0.624-0.084c0.696,0,1.234,0.212,1.614,0.636
		c0.38,0.424,0.57,1.008,0.57,1.752v4.164h-1.824v-3.579c0-0.431-0.096-0.756-0.288-0.976c-0.192-0.219-0.464-0.329-0.816-0.329
		s-0.63,0.11-0.834,0.329c-0.204,0.219-0.306,0.544-0.306,0.976v3.579h-1.824V20.313z"/>
	<path fill="#F9FDFE" d="M37.272,29.216c-0.48,0-0.926-0.08-1.338-0.24c-0.412-0.16-0.768-0.388-1.068-0.684
		s-0.534-0.646-0.702-1.05c-0.168-0.404-0.252-0.854-0.252-1.35v-0.024c0-0.456,0.078-0.888,0.234-1.296
		c0.156-0.408,0.374-0.764,0.654-1.068c0.28-0.304,0.614-0.544,1.002-0.72c0.388-0.176,0.818-0.264,1.29-0.264
		c0.536,0,1,0.096,1.392,0.288c0.392,0.192,0.718,0.45,0.978,0.774c0.26,0.324,0.452,0.696,0.576,1.116s0.186,0.858,0.186,1.314
		c0,0.072-0.002,0.148-0.006,0.228c-0.004,0.08-0.01,0.164-0.018,0.252h-4.476c0.088,0.416,0.27,0.73,0.546,0.942
		c0.276,0.212,0.618,0.318,1.026,0.318c0.304,0,0.576-0.052,0.816-0.156c0.24-0.104,0.488-0.272,0.744-0.504l1.044,0.924
		c-0.304,0.376-0.672,0.67-1.104,0.882C38.364,29.11,37.856,29.216,37.272,29.216z M38.448,25.352
		c-0.056-0.408-0.2-0.738-0.432-0.99s-0.54-0.378-0.924-0.378c-0.384,0-0.694,0.124-0.93,0.372s-0.39,0.58-0.462,0.996H38.448z"/>
	<path fill="#F9FDFE" d="M41.58,22.64h1.824v1.296c0.184-0.439,0.436-0.792,0.756-1.056c0.32-0.264,0.752-0.384,1.296-0.36v1.908
		H45.36c-0.608,0-1.086,0.184-1.434,0.552c-0.348,0.368-0.522,0.94-0.522,1.716v2.376H41.58V22.64z"/>
	<path fill="#F9FDFE" d="M49.644,29.216c-0.48,0-0.926-0.08-1.338-0.24c-0.412-0.16-0.768-0.388-1.068-0.684
		s-0.534-0.646-0.702-1.05c-0.168-0.404-0.252-0.854-0.252-1.35v-0.024c0-0.456,0.078-0.888,0.234-1.296
		c0.156-0.408,0.374-0.764,0.654-1.068c0.28-0.304,0.614-0.544,1.002-0.72c0.388-0.176,0.818-0.264,1.29-0.264
		c0.536,0,1,0.096,1.392,0.288c0.392,0.192,0.718,0.45,0.978,0.774c0.26,0.324,0.452,0.696,0.576,1.116s0.186,0.858,0.186,1.314
		c0,0.072-0.002,0.148-0.006,0.228c-0.004,0.08-0.01,0.164-0.018,0.252h-4.476c0.088,0.416,0.27,0.73,0.546,0.942
		c0.276,0.212,0.618,0.318,1.026,0.318c0.304,0,0.576-0.052,0.816-0.156c0.24-0.104,0.488-0.272,0.744-0.504l1.044,0.924
		c-0.304,0.376-0.672,0.67-1.104,0.882C50.736,29.11,50.228,29.216,49.644,29.216z M50.82,25.352c-0.056-0.408-0.2-0.738-0.432-0.99
		s-0.54-0.378-0.924-0.378c-0.384,0-0.694,0.124-0.93,0.372s-0.39,0.58-0.462,0.996H50.82z"/>
</g>
<rect x="115.942" fill="#58595B" width="110.938" height="38.898"/>
<rect x="231.185" fill="#F79421" width="105.237" height="38.898"/>
<rect x="340.552" fill="#58595B" width="62.546" height="38.898"/>
<rect x="507.589" fill="#58595B" width="120.438" height="38.898"/>
<rect x="632.217" fill="#F79421" width="120.438" height="38.898"/>
<rect y="43.108" fill="#E4E5E6" width="111.833" height="73.342"/>
<rect x="115.942" y="43.108" fill="#C7C8CA" width="110.938" height="73.342"/>
<rect x="231.185" y="43.108" fill="#E4E5E6" width="105.237" height="73.342"/>
<rect x="340.552" y="43.108" fill="#C7C8CA" width="62.546" height="73.342"/>
<rect x="507.589" y="43.108" fill="#C7C8CA" width="120.438" height="73.342"/>
<rect x="632.217" y="43.108" fill="#E4E5E6" width="120.438" height="73.342"/>
<rect y="120.444" fill="#E4E5E6" width="111.833" height="73.339"/>
<rect x="115.942" y="120.444" fill="#C7C8CA" width="110.938" height="73.339"/>
<rect x="231.185" y="120.444" fill="#E4E5E6" width="105.237" height="73.339"/>
<rect x="340.552" y="120.444" fill="#C7C8CA" width="62.546" height="73.339"/>
<rect x="507.589" y="120.444" fill="#C7C8CA" width="120.438" height="73.339"/>
<rect x="632.217" y="120.444" fill="#E4E5E6" width="120.438" height="73.339"/>
<rect y="197.997" fill="#E4E5E6" width="111.833" height="73.341"/>
<rect x="115.942" y="197.997" fill="#C7C8CA" width="110.938" height="73.341"/>
<rect x="231.185" y="197.997" fill="#E4E5E6" width="105.237" height="73.341"/>
<rect x="340.552" y="197.997" fill="#C7C8CA" width="62.546" height="73.341"/>
<rect x="756.823" fill="#58595B" width="62.547" height="38.898"/>
<rect x="756.823" y="43.108" fill="#C7C8CA" width="62.547" height="73.342"/>
<rect x="756.823" y="120.444" fill="#C7C8CA" width="62.547" height="73.339"/>
<rect x="756.823" y="197.997" fill="#C7C8CA" width="62.547" height="73.341"/>
<rect x="407.219" fill="#F79421" width="95.873" height="38.898"/>
<rect x="407.219" y="43.108" fill="#E4E5E6" width="95.873" height="73.342"/>
<rect x="407.219" y="120.444" fill="#E4E5E6" width="95.873" height="73.339"/>
<rect x="407.219" y="197.997" fill="#E4E5E6" width="95.873" height="73.341"/>
<rect x="507.589" y="197.997" fill="#C7C8CA" width="120.438" height="73.341"/>
<rect x="632.217" y="197.997" fill="#E4E5E6" width="120.438" height="73.341"/>
<g>
	<path fill="#F9FDFE" d="M130.594,14.817c-0.616,0-1.188-0.112-1.716-0.336c-0.528-0.224-0.984-0.53-1.368-0.918
		c-0.384-0.388-0.684-0.846-0.9-1.374c-0.216-0.528-0.324-1.092-0.324-1.692v-0.024c0-0.6,0.108-1.162,0.324-1.686
		s0.516-0.984,0.9-1.38c0.384-0.396,0.844-0.708,1.38-0.936c0.536-0.228,1.128-0.342,1.776-0.342c0.392,0,0.75,0.032,1.074,0.096
		c0.324,0.064,0.618,0.152,0.882,0.264c0.264,0.112,0.508,0.248,0.732,0.408c0.224,0.16,0.432,0.336,0.624,0.528l-1.176,1.356
		c-0.328-0.296-0.662-0.528-1.002-0.696s-0.722-0.252-1.146-0.252c-0.352,0-0.678,0.068-0.978,0.204
		c-0.3,0.136-0.558,0.324-0.774,0.564c-0.216,0.24-0.384,0.518-0.504,0.834s-0.18,0.654-0.18,1.014v0.024c0,0.36,0.06,0.7,0.18,1.02
		c0.12,0.32,0.286,0.6,0.498,0.84c0.212,0.24,0.468,0.43,0.768,0.57c0.3,0.14,0.63,0.21,0.99,0.21c0.48,0,0.886-0.088,1.218-0.264
		c0.332-0.176,0.662-0.416,0.99-0.72l1.176,1.188c-0.216,0.232-0.44,0.44-0.672,0.624s-0.486,0.342-0.762,0.474
		c-0.276,0.132-0.578,0.232-0.906,0.3S131.002,14.817,130.594,14.817z"/>
	<path fill="#F9FDFE" d="M138.478,14.817c-0.496,0-0.956-0.086-1.38-0.258c-0.424-0.172-0.79-0.408-1.098-0.708
		c-0.308-0.3-0.55-0.652-0.726-1.056c-0.176-0.404-0.264-0.838-0.264-1.302v-0.024c0-0.464,0.088-0.898,0.264-1.302
		c0.176-0.404,0.42-0.758,0.732-1.062s0.68-0.544,1.104-0.72c0.424-0.176,0.888-0.264,1.392-0.264c0.496,0,0.956,0.086,1.38,0.258
		c0.424,0.172,0.79,0.408,1.098,0.708c0.308,0.3,0.55,0.652,0.726,1.056c0.176,0.404,0.264,0.838,0.264,1.302v0.024
		c0,0.464-0.088,0.898-0.264,1.302c-0.176,0.404-0.42,0.758-0.732,1.062s-0.68,0.544-1.104,0.72
		C139.446,14.729,138.982,14.817,138.478,14.817z M138.502,13.245c0.264,0,0.498-0.046,0.702-0.138
		c0.204-0.092,0.378-0.218,0.522-0.378c0.144-0.16,0.253-0.346,0.33-0.558s0.114-0.438,0.114-0.678v-0.024
		c0-0.24-0.04-0.466-0.12-0.678s-0.196-0.4-0.348-0.564s-0.332-0.294-0.54-0.39s-0.436-0.144-0.684-0.144
		c-0.264,0-0.498,0.046-0.702,0.138c-0.204,0.092-0.378,0.218-0.522,0.378s-0.254,0.346-0.33,0.558s-0.114,0.438-0.114,0.678v0.024
		c0,0.24,0.04,0.466,0.12,0.678s0.196,0.4,0.348,0.564s0.33,0.294,0.534,0.39C138.016,13.197,138.246,13.245,138.502,13.245z"/>
	<path fill="#F9FDFE" d="M143.29,8.241h1.824V9.16c0.104-0.137,0.218-0.268,0.342-0.393s0.262-0.235,0.414-0.332
		c0.152-0.097,0.322-0.173,0.51-0.23c0.188-0.056,0.398-0.084,0.63-0.084c0.424,0,0.79,0.088,1.098,0.266s0.546,0.431,0.714,0.761
		c0.28-0.338,0.592-0.594,0.936-0.767c0.344-0.173,0.736-0.26,1.176-0.26c0.68,0,1.212,0.2,1.596,0.6
		c0.384,0.4,0.576,0.988,0.576,1.764v4.188h-1.824v-3.579c0-0.431-0.092-0.756-0.276-0.976s-0.448-0.329-0.792-0.329
		c-0.344,0-0.614,0.11-0.81,0.329c-0.196,0.219-0.294,0.544-0.294,0.976v3.579h-1.824v-3.579c0-0.431-0.092-0.756-0.276-0.976
		c-0.184-0.219-0.448-0.329-0.792-0.329c-0.344,0-0.614,0.11-0.81,0.329c-0.196,0.219-0.294,0.544-0.294,0.976v3.579h-1.824V8.241z"
		/>
	<path fill="#F9FDFE" d="M154.689,8.241h1.824v0.924c0.224-0.304,0.494-0.554,0.81-0.75c0.316-0.196,0.714-0.294,1.194-0.294
		c0.376,0,0.74,0.072,1.092,0.216s0.664,0.358,0.936,0.642c0.272,0.284,0.49,0.632,0.654,1.044c0.164,0.412,0.246,0.886,0.246,1.422
		v0.024c0,0.536-0.082,1.01-0.246,1.422c-0.164,0.413-0.38,0.76-0.648,1.044c-0.269,0.284-0.578,0.498-0.93,0.642
		s-0.72,0.216-1.104,0.216c-0.488,0-0.89-0.096-1.206-0.288s-0.582-0.416-0.798-0.672v2.76h-1.824V8.241z M158.049,13.245
		c0.216,0,0.418-0.042,0.606-0.126c0.188-0.084,0.354-0.204,0.498-0.36c0.144-0.156,0.258-0.342,0.342-0.558
		c0.084-0.216,0.126-0.46,0.126-0.732v-0.024c0-0.264-0.042-0.506-0.126-0.726c-0.084-0.22-0.198-0.408-0.342-0.564
		c-0.144-0.156-0.31-0.276-0.498-0.36c-0.188-0.084-0.39-0.126-0.606-0.126c-0.216,0-0.418,0.042-0.606,0.126
		s-0.352,0.204-0.492,0.36c-0.14,0.156-0.252,0.344-0.336,0.564c-0.084,0.22-0.126,0.462-0.126,0.726v0.024
		c0,0.264,0.042,0.506,0.126,0.726c0.084,0.22,0.196,0.408,0.336,0.564c0.14,0.156,0.304,0.276,0.492,0.36
		S157.833,13.245,158.049,13.245z"/>
	<path fill="#F9FDFE" d="M164.613,14.793c-0.304,0-0.59-0.042-0.858-0.126c-0.269-0.084-0.502-0.21-0.702-0.378
		c-0.2-0.168-0.358-0.374-0.474-0.618c-0.116-0.244-0.174-0.526-0.174-0.846v-0.024c0-0.352,0.064-0.656,0.192-0.912
		c0.128-0.256,0.306-0.468,0.534-0.636s0.5-0.294,0.816-0.378c0.316-0.084,0.666-0.126,1.05-0.126c0.328,0,0.614,0.024,0.858,0.072
		s0.482,0.112,0.714,0.192v-0.108c0-0.384-0.116-0.676-0.348-0.876c-0.232-0.2-0.576-0.3-1.032-0.3c-0.352,0-0.662,0.03-0.93,0.09
		c-0.268,0.06-0.55,0.146-0.846,0.258l-0.456-1.392c0.352-0.152,0.72-0.276,1.104-0.372c0.384-0.096,0.848-0.144,1.392-0.144
		c0.504,0,0.934,0.062,1.29,0.186s0.65,0.302,0.882,0.534c0.24,0.24,0.416,0.534,0.528,0.882c0.112,0.348,0.168,0.738,0.168,1.17
		v3.732h-1.764v-0.696c-0.224,0.248-0.492,0.446-0.804,0.594S165.061,14.793,164.613,14.793z M165.165,13.533
		c0.432,0,0.778-0.104,1.038-0.312c0.26-0.208,0.39-0.48,0.39-0.816v-0.324c-0.16-0.072-0.338-0.13-0.534-0.174
		c-0.196-0.044-0.406-0.066-0.63-0.066c-0.392,0-0.7,0.076-0.924,0.228c-0.224,0.152-0.336,0.372-0.336,0.66v0.024
		c0,0.248,0.092,0.44,0.276,0.576C164.629,13.465,164.869,13.533,165.165,13.533z"/>
	<path fill="#F9FDFE" d="M169.893,8.241h1.824V9.16c0.104-0.137,0.218-0.268,0.342-0.393s0.262-0.235,0.414-0.332
		c0.152-0.097,0.32-0.173,0.504-0.23c0.184-0.056,0.392-0.084,0.624-0.084c0.696,0,1.234,0.212,1.614,0.636
		c0.38,0.424,0.57,1.008,0.57,1.752v4.164h-1.824v-3.579c0-0.431-0.096-0.756-0.288-0.976c-0.192-0.219-0.464-0.329-0.816-0.329
		s-0.63,0.11-0.834,0.329c-0.204,0.219-0.306,0.544-0.306,0.976v3.579h-1.824V8.241z"/>
	<path fill="#F9FDFE" d="M178.905,16.629c-0.336,0-0.632-0.04-0.888-0.12s-0.5-0.188-0.732-0.324l0.612-1.32
		c0.12,0.072,0.25,0.132,0.39,0.18s0.27,0.072,0.39,0.072c0.16,0,0.286-0.03,0.378-0.09s0.178-0.17,0.258-0.33l-2.52-6.456h1.932
		l1.464,4.38l1.404-4.38h1.896l-2.472,6.588c-0.12,0.328-0.248,0.606-0.384,0.834c-0.136,0.228-0.286,0.414-0.45,0.558
		s-0.35,0.248-0.558,0.312S179.177,16.629,178.905,16.629z"/>
	<path fill="#F9FDFE" d="M191.325,14.817c-0.496,0-0.956-0.086-1.38-0.258c-0.424-0.172-0.79-0.408-1.098-0.708
		c-0.308-0.3-0.55-0.652-0.726-1.056c-0.176-0.404-0.264-0.838-0.264-1.302v-0.024c0-0.464,0.088-0.898,0.264-1.302
		c0.176-0.404,0.42-0.758,0.732-1.062s0.68-0.544,1.104-0.72c0.424-0.176,0.888-0.264,1.392-0.264c0.496,0,0.956,0.086,1.38,0.258
		c0.424,0.172,0.79,0.408,1.098,0.708c0.308,0.3,0.55,0.652,0.726,1.056c0.176,0.404,0.264,0.838,0.264,1.302v0.024
		c0,0.464-0.088,0.898-0.264,1.302c-0.176,0.404-0.42,0.758-0.732,1.062s-0.68,0.544-1.104,0.72
		C192.292,14.729,191.829,14.817,191.325,14.817z M191.349,13.245c0.264,0,0.498-0.046,0.702-0.138
		c0.204-0.092,0.378-0.218,0.522-0.378c0.144-0.16,0.253-0.346,0.33-0.558s0.114-0.438,0.114-0.678v-0.024
		c0-0.24-0.04-0.466-0.12-0.678s-0.196-0.4-0.348-0.564s-0.332-0.294-0.54-0.39s-0.436-0.144-0.684-0.144
		c-0.264,0-0.498,0.046-0.702,0.138c-0.204,0.092-0.378,0.218-0.522,0.378s-0.254,0.346-0.33,0.558s-0.114,0.438-0.114,0.678v0.024
		c0,0.24,0.04,0.466,0.12,0.678s0.196,0.4,0.348,0.564s0.33,0.294,0.534,0.39C190.862,13.197,191.092,13.245,191.349,13.245z"/>
	<path fill="#F9FDFE" d="M196.136,8.241h1.824v1.296c0.184-0.439,0.436-0.792,0.756-1.056c0.32-0.264,0.752-0.384,1.296-0.36v1.908
		h-0.096c-0.608,0-1.086,0.184-1.434,0.552c-0.348,0.368-0.522,0.94-0.522,1.716v2.376h-1.824V8.241z"/>
</g>
<g>
	<path fill="#F9FDFE" d="M130.702,29.216c-0.656,0-1.254-0.108-1.794-0.324c-0.54-0.216-1.004-0.516-1.392-0.9
		c-0.388-0.384-0.69-0.84-0.906-1.368c-0.216-0.528-0.324-1.104-0.324-1.728v-0.024c0-0.6,0.11-1.162,0.33-1.686
		c0.22-0.524,0.526-0.984,0.918-1.38s0.856-0.708,1.392-0.936s1.124-0.342,1.764-0.342c0.376,0,0.718,0.026,1.026,0.078
		c0.308,0.052,0.594,0.126,0.858,0.222c0.264,0.096,0.512,0.216,0.744,0.36s0.456,0.308,0.672,0.492l-1.164,1.404
		c-0.16-0.136-0.32-0.256-0.48-0.36c-0.16-0.104-0.326-0.192-0.498-0.264c-0.172-0.072-0.358-0.128-0.558-0.168
		c-0.2-0.04-0.42-0.06-0.66-0.06c-0.336,0-0.65,0.07-0.942,0.21s-0.548,0.329-0.768,0.565c-0.22,0.236-0.392,0.513-0.516,0.83
		c-0.124,0.317-0.186,0.656-0.186,1.017v0.024c0,0.385,0.062,0.74,0.186,1.064s0.3,0.607,0.528,0.848
		c0.228,0.241,0.496,0.427,0.804,0.56c0.308,0.132,0.65,0.198,1.026,0.198c0.688,0,1.268-0.169,1.74-0.508v-1.208h-1.86v-1.596
		h3.648v3.648c-0.432,0.368-0.946,0.682-1.542,0.942C132.152,29.086,131.47,29.216,130.702,29.216z"/>
	<path fill="#F9FDFE" d="M135.874,22.64h1.824v1.296c0.184-0.439,0.436-0.792,0.756-1.056c0.32-0.264,0.752-0.384,1.296-0.36v1.908
		h-0.096c-0.608,0-1.086,0.184-1.434,0.552c-0.348,0.368-0.522,0.94-0.522,1.716v2.376h-1.824V22.64z"/>
	<path fill="#F9FDFE" d="M144.046,29.216c-0.496,0-0.956-0.086-1.38-0.258c-0.424-0.172-0.79-0.408-1.098-0.708
		c-0.308-0.3-0.55-0.652-0.726-1.056c-0.176-0.404-0.264-0.838-0.264-1.302v-0.024c0-0.464,0.088-0.898,0.264-1.302
		c0.176-0.404,0.42-0.758,0.732-1.062s0.68-0.544,1.104-0.72c0.424-0.176,0.888-0.264,1.392-0.264c0.496,0,0.956,0.086,1.38,0.258
		c0.424,0.172,0.79,0.408,1.098,0.708c0.308,0.3,0.55,0.652,0.726,1.056c0.176,0.404,0.264,0.838,0.264,1.302v0.024
		c0,0.464-0.088,0.898-0.264,1.302c-0.176,0.404-0.42,0.758-0.732,1.062s-0.68,0.544-1.104,0.72
		C145.014,29.128,144.55,29.216,144.046,29.216z M144.07,27.644c0.264,0,0.498-0.046,0.702-0.138
		c0.204-0.092,0.378-0.218,0.522-0.378c0.144-0.16,0.253-0.346,0.33-0.558s0.114-0.438,0.114-0.678v-0.024
		c0-0.24-0.04-0.466-0.12-0.678s-0.196-0.4-0.348-0.564s-0.332-0.294-0.54-0.39s-0.436-0.144-0.684-0.144
		c-0.264,0-0.498,0.046-0.702,0.138c-0.204,0.092-0.378,0.218-0.522,0.378s-0.254,0.346-0.33,0.558s-0.114,0.438-0.114,0.678v0.024
		c0,0.24,0.04,0.466,0.12,0.678s0.196,0.4,0.348,0.564s0.33,0.294,0.534,0.39C143.583,27.596,143.813,27.644,144.07,27.644z"/>
	<path fill="#F9FDFE" d="M150.994,29.192c-0.696,0-1.234-0.212-1.614-0.636c-0.38-0.424-0.57-1.008-0.57-1.752V22.64h1.824v3.579
		c0,0.431,0.096,0.757,0.288,0.976s0.464,0.329,0.816,0.329s0.63-0.11,0.834-0.329c0.204-0.219,0.306-0.545,0.306-0.976V22.64h1.824
		v6.432h-1.824v-0.919c-0.104,0.137-0.218,0.268-0.342,0.393c-0.125,0.125-0.262,0.236-0.414,0.333
		c-0.152,0.097-0.32,0.173-0.504,0.23C151.434,29.164,151.226,29.192,150.994,29.192z"/>
	<path fill="#F9FDFE" d="M156.333,22.64h1.824v0.924c0.224-0.304,0.494-0.554,0.81-0.75c0.316-0.196,0.714-0.294,1.194-0.294
		c0.376,0,0.74,0.072,1.092,0.216s0.664,0.358,0.936,0.642c0.272,0.284,0.49,0.632,0.654,1.044c0.164,0.412,0.246,0.886,0.246,1.422
		v0.024c0,0.536-0.082,1.01-0.246,1.422c-0.164,0.413-0.38,0.76-0.648,1.044c-0.269,0.284-0.578,0.498-0.93,0.642
		s-0.72,0.216-1.104,0.216c-0.488,0-0.89-0.096-1.206-0.288s-0.582-0.416-0.798-0.672v2.76h-1.824V22.64z M159.693,27.644
		c0.216,0,0.418-0.042,0.606-0.126c0.188-0.084,0.354-0.204,0.498-0.36c0.144-0.156,0.258-0.342,0.342-0.558
		c0.084-0.216,0.126-0.46,0.126-0.732v-0.024c0-0.264-0.042-0.506-0.126-0.726c-0.084-0.22-0.198-0.408-0.342-0.564
		c-0.144-0.156-0.31-0.276-0.498-0.36c-0.188-0.084-0.39-0.126-0.606-0.126c-0.216,0-0.418,0.042-0.606,0.126
		s-0.352,0.204-0.492,0.36c-0.14,0.156-0.252,0.344-0.336,0.564c-0.084,0.22-0.126,0.462-0.126,0.726v0.024
		c0,0.264,0.042,0.506,0.126,0.726c0.084,0.22,0.196,0.408,0.336,0.564c0.14,0.156,0.304,0.276,0.492,0.36
		S159.478,27.644,159.693,27.644z"/>
	<path fill="#F9FDFE" d="M168.225,20.672h1.704l3.936,5.172v-5.172h1.824v8.4h-1.572l-4.068-5.34v5.34h-1.824V20.672z"/>
	<path fill="#F9FDFE" d="M179.337,29.192c-0.304,0-0.59-0.042-0.858-0.126c-0.269-0.084-0.502-0.21-0.702-0.378
		c-0.2-0.168-0.358-0.374-0.474-0.618c-0.116-0.244-0.174-0.526-0.174-0.846V27.2c0-0.352,0.064-0.656,0.192-0.912
		c0.128-0.256,0.306-0.468,0.534-0.636s0.5-0.294,0.816-0.378c0.316-0.084,0.666-0.126,1.05-0.126c0.328,0,0.614,0.024,0.858,0.072
		s0.482,0.112,0.714,0.192v-0.108c0-0.384-0.116-0.676-0.348-0.876c-0.232-0.2-0.576-0.3-1.032-0.3c-0.352,0-0.662,0.03-0.93,0.09
		c-0.268,0.06-0.55,0.146-0.846,0.258l-0.456-1.392c0.352-0.152,0.72-0.276,1.104-0.372c0.384-0.096,0.848-0.144,1.392-0.144
		c0.504,0,0.934,0.062,1.29,0.186s0.65,0.302,0.882,0.534c0.24,0.24,0.416,0.534,0.528,0.882c0.112,0.348,0.168,0.738,0.168,1.17
		v3.732h-1.764v-0.696c-0.224,0.248-0.492,0.446-0.804,0.594S179.785,29.192,179.337,29.192z M179.889,27.932
		c0.432,0,0.778-0.104,1.038-0.312c0.26-0.208,0.39-0.48,0.39-0.816V26.48c-0.16-0.072-0.338-0.13-0.534-0.174
		c-0.196-0.044-0.406-0.066-0.63-0.066c-0.392,0-0.7,0.076-0.924,0.228c-0.224,0.152-0.336,0.372-0.336,0.66v0.024
		c0,0.248,0.092,0.44,0.276,0.576C179.353,27.864,179.593,27.932,179.889,27.932z"/>
	<path fill="#F9FDFE" d="M184.617,22.64h1.824v0.919c0.104-0.137,0.218-0.268,0.342-0.393s0.262-0.235,0.414-0.332
		c0.152-0.097,0.322-0.173,0.51-0.23c0.188-0.056,0.398-0.084,0.63-0.084c0.424,0,0.79,0.088,1.098,0.266s0.546,0.431,0.714,0.761
		c0.28-0.338,0.592-0.594,0.936-0.767c0.344-0.173,0.736-0.26,1.176-0.26c0.68,0,1.212,0.2,1.596,0.6
		c0.384,0.4,0.576,0.988,0.576,1.764v4.188h-1.824v-3.579c0-0.431-0.092-0.756-0.276-0.976s-0.448-0.329-0.792-0.329
		c-0.344,0-0.614,0.11-0.81,0.329c-0.196,0.219-0.294,0.544-0.294,0.976v3.579h-1.824v-3.579c0-0.431-0.092-0.756-0.276-0.976
		c-0.184-0.219-0.448-0.329-0.792-0.329c-0.344,0-0.614,0.11-0.81,0.329c-0.196,0.219-0.294,0.544-0.294,0.976v3.579h-1.824V22.64z"
		/>
	<path fill="#F9FDFE" d="M199.064,29.216c-0.48,0-0.926-0.08-1.338-0.24c-0.412-0.16-0.768-0.388-1.068-0.684
		s-0.534-0.646-0.702-1.05c-0.168-0.404-0.252-0.854-0.252-1.35v-0.024c0-0.456,0.078-0.888,0.234-1.296
		c0.156-0.408,0.374-0.764,0.654-1.068c0.28-0.304,0.614-0.544,1.002-0.72c0.388-0.176,0.818-0.264,1.29-0.264
		c0.536,0,1,0.096,1.392,0.288c0.392,0.192,0.718,0.45,0.978,0.774c0.26,0.324,0.452,0.696,0.576,1.116s0.186,0.858,0.186,1.314
		c0,0.072-0.002,0.148-0.006,0.228c-0.004,0.08-0.01,0.164-0.018,0.252h-4.476c0.088,0.416,0.27,0.73,0.546,0.942
		c0.276,0.212,0.618,0.318,1.026,0.318c0.304,0,0.576-0.052,0.816-0.156c0.24-0.104,0.488-0.272,0.744-0.504l1.044,0.924
		c-0.304,0.376-0.672,0.67-1.104,0.882C200.157,29.11,199.648,29.216,199.064,29.216z M200.241,25.352
		c-0.056-0.408-0.2-0.738-0.432-0.99s-0.54-0.378-0.924-0.378c-0.384,0-0.694,0.124-0.93,0.372s-0.39,0.58-0.462,0.996H200.241z"/>
</g>
<g>
	<path fill="#F9FDFE" d="M241.965,6.273h1.848v8.4h-1.848V6.273z"/>
	<path fill="#F9FDFE" d="M245.721,8.241h1.824V9.16c0.104-0.137,0.218-0.268,0.342-0.393s0.262-0.235,0.414-0.332
		c0.152-0.097,0.32-0.173,0.504-0.23c0.184-0.056,0.392-0.084,0.624-0.084c0.696,0,1.234,0.212,1.614,0.636
		c0.38,0.424,0.57,1.008,0.57,1.752v4.164h-1.824v-3.579c0-0.431-0.096-0.756-0.288-0.976c-0.192-0.219-0.464-0.329-0.816-0.329
		s-0.63,0.11-0.834,0.329c-0.204,0.219-0.306,0.544-0.306,0.976v3.579h-1.824V8.241z"/>
	<path fill="#F9FDFE" d="M255.837,14.793c-0.376,0-0.74-0.072-1.092-0.216s-0.664-0.358-0.936-0.642
		c-0.272-0.284-0.49-0.632-0.654-1.044c-0.164-0.412-0.246-0.886-0.246-1.422v-0.024c0-0.536,0.082-1.01,0.246-1.422
		s0.38-0.76,0.648-1.044c0.268-0.284,0.578-0.498,0.93-0.642s0.72-0.216,1.104-0.216c0.488,0,0.89,0.096,1.206,0.288
		c0.316,0.192,0.582,0.416,0.798,0.672V5.913h1.824v8.76h-1.824v-0.924c-0.224,0.304-0.494,0.554-0.81,0.75
		C256.715,14.695,256.317,14.793,255.837,14.793z M256.305,13.245c0.216,0,0.418-0.042,0.606-0.126s0.352-0.204,0.492-0.36
		c0.14-0.156,0.252-0.344,0.336-0.564c0.084-0.22,0.126-0.462,0.126-0.726v-0.024c0-0.264-0.042-0.506-0.126-0.726
		c-0.084-0.22-0.196-0.408-0.336-0.564c-0.14-0.156-0.304-0.276-0.492-0.36s-0.39-0.126-0.606-0.126
		c-0.216,0-0.418,0.042-0.606,0.126s-0.354,0.204-0.498,0.36c-0.144,0.156-0.258,0.342-0.342,0.558s-0.126,0.46-0.126,0.732v0.024
		c0,0.264,0.042,0.506,0.126,0.726c0.084,0.22,0.198,0.408,0.342,0.564c0.144,0.156,0.31,0.276,0.498,0.36
		S256.089,13.245,256.305,13.245z"/>
	<path fill="#F9FDFE" d="M261.333,5.913h1.92v1.62h-1.92V5.913z M261.381,8.241h1.824v6.432h-1.824V8.241z"/>
	<path fill="#F9FDFE" d="M264.345,8.241h1.932l1.44,4.308l1.452-4.308h1.896l-2.532,6.48h-1.656L264.345,8.241z"/>
	<path fill="#F9FDFE" d="M272.157,5.913h1.92v1.62h-1.92V5.913z M272.205,8.241h1.824v6.432h-1.824V8.241z"/>
	<path fill="#F9FDFE" d="M278.385,14.793c-0.376,0-0.74-0.072-1.092-0.216s-0.664-0.358-0.936-0.642
		c-0.272-0.284-0.49-0.632-0.654-1.044c-0.164-0.412-0.246-0.886-0.246-1.422v-0.024c0-0.536,0.082-1.01,0.246-1.422
		s0.38-0.76,0.648-1.044c0.268-0.284,0.578-0.498,0.93-0.642s0.72-0.216,1.104-0.216c0.488,0,0.89,0.096,1.206,0.288
		c0.316,0.192,0.582,0.416,0.798,0.672V5.913h1.824v8.76h-1.824v-0.924c-0.224,0.304-0.494,0.554-0.81,0.75
		C279.263,14.695,278.865,14.793,278.385,14.793z M278.853,13.245c0.216,0,0.418-0.042,0.606-0.126s0.352-0.204,0.492-0.36
		c0.14-0.156,0.252-0.344,0.336-0.564c0.084-0.22,0.126-0.462,0.126-0.726v-0.024c0-0.264-0.042-0.506-0.126-0.726
		c-0.084-0.22-0.196-0.408-0.336-0.564c-0.14-0.156-0.304-0.276-0.492-0.36s-0.39-0.126-0.606-0.126
		c-0.216,0-0.418,0.042-0.606,0.126s-0.354,0.204-0.498,0.36c-0.144,0.156-0.258,0.342-0.342,0.558s-0.126,0.46-0.126,0.732v0.024
		c0,0.264,0.042,0.506,0.126,0.726c0.084,0.22,0.198,0.408,0.342,0.564c0.144,0.156,0.31,0.276,0.498,0.36
		S278.637,13.245,278.853,13.245z"/>
	<path fill="#F9FDFE" d="M285.98,14.793c-0.696,0-1.234-0.212-1.614-0.636c-0.38-0.424-0.57-1.008-0.57-1.752V8.241h1.824v3.579
		c0,0.431,0.096,0.757,0.288,0.976s0.464,0.329,0.816,0.329s0.63-0.11,0.834-0.329c0.204-0.219,0.306-0.545,0.306-0.976V8.241h1.824
		v6.432h-1.824v-0.919c-0.104,0.137-0.218,0.268-0.342,0.393c-0.125,0.125-0.262,0.236-0.414,0.333
		c-0.152,0.097-0.32,0.173-0.504,0.23C286.42,14.765,286.212,14.793,285.98,14.793z"/>
	<path fill="#F9FDFE" d="M293.145,14.793c-0.304,0-0.59-0.042-0.858-0.126c-0.269-0.084-0.502-0.21-0.702-0.378
		c-0.2-0.168-0.358-0.374-0.474-0.618c-0.116-0.244-0.174-0.526-0.174-0.846v-0.024c0-0.352,0.064-0.656,0.192-0.912
		c0.128-0.256,0.306-0.468,0.534-0.636s0.5-0.294,0.816-0.378c0.316-0.084,0.666-0.126,1.05-0.126c0.328,0,0.614,0.024,0.858,0.072
		s0.482,0.112,0.714,0.192v-0.108c0-0.384-0.116-0.676-0.348-0.876c-0.232-0.2-0.576-0.3-1.032-0.3c-0.352,0-0.662,0.03-0.93,0.09
		c-0.268,0.06-0.55,0.146-0.846,0.258l-0.456-1.392c0.352-0.152,0.72-0.276,1.104-0.372c0.384-0.096,0.848-0.144,1.392-0.144
		c0.504,0,0.934,0.062,1.29,0.186s0.65,0.302,0.882,0.534c0.24,0.24,0.416,0.534,0.528,0.882c0.112,0.348,0.168,0.738,0.168,1.17
		v3.732h-1.764v-0.696c-0.224,0.248-0.492,0.446-0.804,0.594S293.592,14.793,293.145,14.793z M293.696,13.533
		c0.432,0,0.778-0.104,1.038-0.312c0.26-0.208,0.39-0.48,0.39-0.816v-0.324c-0.16-0.072-0.338-0.13-0.534-0.174
		c-0.196-0.044-0.406-0.066-0.63-0.066c-0.392,0-0.7,0.076-0.924,0.228c-0.224,0.152-0.336,0.372-0.336,0.66v0.024
		c0,0.248,0.092,0.44,0.276,0.576C293.16,13.465,293.4,13.533,293.696,13.533z"/>
	<path fill="#F9FDFE" d="M298.508,5.913h1.824v8.76h-1.824V5.913z"/>
</g>
<g>
	<path fill="#F9FDFE" d="M241.881,20.672h1.704l3.936,5.172v-5.172h1.824v8.4h-1.572l-4.068-5.34v5.34h-1.824V20.672z"/>
	<path fill="#F9FDFE" d="M252.994,29.192c-0.304,0-0.59-0.042-0.858-0.126c-0.269-0.084-0.502-0.21-0.702-0.378
		c-0.2-0.168-0.358-0.374-0.474-0.618c-0.116-0.244-0.174-0.526-0.174-0.846V27.2c0-0.352,0.064-0.656,0.192-0.912
		c0.128-0.256,0.306-0.468,0.534-0.636s0.5-0.294,0.816-0.378c0.316-0.084,0.666-0.126,1.05-0.126c0.328,0,0.614,0.024,0.858,0.072
		s0.482,0.112,0.714,0.192v-0.108c0-0.384-0.116-0.676-0.348-0.876c-0.232-0.2-0.576-0.3-1.032-0.3c-0.352,0-0.662,0.03-0.93,0.09
		c-0.268,0.06-0.55,0.146-0.846,0.258l-0.456-1.392c0.352-0.152,0.72-0.276,1.104-0.372c0.384-0.096,0.848-0.144,1.392-0.144
		c0.504,0,0.934,0.062,1.29,0.186s0.65,0.302,0.882,0.534c0.24,0.24,0.416,0.534,0.528,0.882c0.112,0.348,0.168,0.738,0.168,1.17
		v3.732h-1.764v-0.696c-0.224,0.248-0.492,0.446-0.804,0.594S253.441,29.192,252.994,29.192z M253.545,27.932
		c0.432,0,0.778-0.104,1.038-0.312c0.26-0.208,0.39-0.48,0.39-0.816V26.48c-0.16-0.072-0.338-0.13-0.534-0.174
		c-0.196-0.044-0.406-0.066-0.63-0.066c-0.392,0-0.7,0.076-0.924,0.228c-0.224,0.152-0.336,0.372-0.336,0.66v0.024
		c0,0.248,0.092,0.44,0.276,0.576C253.009,27.864,253.25,27.932,253.545,27.932z"/>
	<path fill="#F9FDFE" d="M258.273,22.64h1.824v0.919c0.104-0.137,0.218-0.268,0.342-0.393s0.262-0.235,0.414-0.332
		c0.152-0.097,0.322-0.173,0.51-0.23c0.188-0.056,0.398-0.084,0.63-0.084c0.424,0,0.79,0.088,1.098,0.266s0.546,0.431,0.714,0.761
		c0.28-0.338,0.592-0.594,0.936-0.767c0.344-0.173,0.736-0.26,1.176-0.26c0.68,0,1.212,0.2,1.596,0.6
		c0.384,0.4,0.576,0.988,0.576,1.764v4.188h-1.824v-3.579c0-0.431-0.092-0.756-0.276-0.976s-0.448-0.329-0.792-0.329
		c-0.344,0-0.614,0.11-0.81,0.329c-0.196,0.219-0.294,0.544-0.294,0.976v3.579h-1.824v-3.579c0-0.431-0.092-0.756-0.276-0.976
		c-0.184-0.219-0.448-0.329-0.792-0.329c-0.344,0-0.614,0.11-0.81,0.329c-0.196,0.219-0.294,0.544-0.294,0.976v3.579h-1.824V22.64z"
		/>
	<path fill="#F9FDFE" d="M272.721,29.216c-0.48,0-0.926-0.08-1.338-0.24c-0.412-0.16-0.768-0.388-1.068-0.684
		s-0.534-0.646-0.702-1.05c-0.168-0.404-0.252-0.854-0.252-1.35v-0.024c0-0.456,0.078-0.888,0.234-1.296
		c0.156-0.408,0.374-0.764,0.654-1.068c0.28-0.304,0.614-0.544,1.002-0.72c0.388-0.176,0.818-0.264,1.29-0.264
		c0.536,0,1,0.096,1.392,0.288c0.392,0.192,0.718,0.45,0.978,0.774c0.26,0.324,0.452,0.696,0.576,1.116s0.186,0.858,0.186,1.314
		c0,0.072-0.002,0.148-0.006,0.228c-0.004,0.08-0.01,0.164-0.018,0.252h-4.476c0.088,0.416,0.27,0.73,0.546,0.942
		c0.276,0.212,0.618,0.318,1.026,0.318c0.304,0,0.576-0.052,0.816-0.156c0.24-0.104,0.488-0.272,0.744-0.504l1.044,0.924
		c-0.304,0.376-0.672,0.67-1.104,0.882C273.813,29.11,273.305,29.216,272.721,29.216z M273.897,25.352
		c-0.056-0.408-0.2-0.738-0.432-0.99s-0.54-0.378-0.924-0.378c-0.384,0-0.694,0.124-0.93,0.372s-0.39,0.58-0.462,0.996H273.897z"/>
</g>
<g>
	<path fill="#F9FDFE" d="M522.536,14.817c-0.656,0-1.254-0.108-1.794-0.324c-0.54-0.216-1.004-0.516-1.392-0.9
		c-0.389-0.384-0.69-0.84-0.906-1.368c-0.216-0.528-0.324-1.104-0.324-1.728v-0.024c0-0.6,0.11-1.162,0.33-1.686
		s0.526-0.984,0.918-1.38s0.856-0.708,1.393-0.936c0.535-0.228,1.123-0.342,1.764-0.342c0.376,0,0.718,0.026,1.026,0.078
		c0.308,0.052,0.594,0.126,0.857,0.222c0.264,0.096,0.512,0.216,0.744,0.36s0.456,0.308,0.672,0.492l-1.164,1.404
		c-0.16-0.136-0.32-0.256-0.479-0.36c-0.16-0.104-0.326-0.192-0.498-0.264c-0.173-0.072-0.358-0.128-0.559-0.168
		s-0.42-0.06-0.659-0.06c-0.337,0-0.65,0.07-0.942,0.21s-0.548,0.329-0.769,0.565c-0.22,0.236-0.392,0.513-0.516,0.83
		c-0.124,0.317-0.186,0.656-0.186,1.017v0.024c0,0.385,0.062,0.74,0.186,1.064s0.3,0.607,0.528,0.848
		c0.228,0.241,0.496,0.427,0.804,0.56c0.308,0.132,0.65,0.198,1.026,0.198c0.688,0,1.268-0.169,1.739-0.508v-1.208h-1.859V9.837
		h3.647v3.648c-0.432,0.368-0.945,0.682-1.542,0.942C523.986,14.687,523.305,14.817,522.536,14.817z"/>
	<path fill="#F9FDFE" d="M530.864,14.817c-0.496,0-0.956-0.086-1.38-0.258c-0.424-0.172-0.79-0.408-1.098-0.708
		c-0.309-0.3-0.55-0.652-0.727-1.056c-0.176-0.404-0.264-0.838-0.264-1.302v-0.024c0-0.464,0.088-0.898,0.264-1.302
		c0.177-0.404,0.421-0.758,0.732-1.062s0.68-0.544,1.104-0.72c0.425-0.176,0.889-0.264,1.393-0.264c0.496,0,0.956,0.086,1.38,0.258
		s0.79,0.408,1.098,0.708c0.309,0.3,0.55,0.652,0.727,1.056c0.176,0.404,0.264,0.838,0.264,1.302v0.024
		c0,0.464-0.088,0.898-0.264,1.302c-0.177,0.404-0.42,0.758-0.732,1.062c-0.312,0.304-0.68,0.544-1.104,0.72
		C531.832,14.729,531.368,14.817,530.864,14.817z M530.889,13.245c0.264,0,0.498-0.046,0.702-0.138s0.378-0.218,0.521-0.378
		c0.145-0.16,0.254-0.346,0.33-0.558s0.114-0.438,0.114-0.678v-0.024c0-0.24-0.04-0.466-0.12-0.678s-0.196-0.4-0.348-0.564
		c-0.152-0.164-0.332-0.294-0.54-0.39s-0.437-0.144-0.685-0.144c-0.264,0-0.498,0.046-0.702,0.138
		c-0.203,0.092-0.378,0.218-0.521,0.378c-0.145,0.16-0.254,0.346-0.33,0.558s-0.114,0.438-0.114,0.678v0.024
		c0,0.24,0.04,0.466,0.12,0.678s0.196,0.4,0.349,0.564c0.151,0.164,0.329,0.294,0.533,0.39
		C530.402,13.197,530.633,13.245,530.889,13.245z"/>
	<path fill="#F9FDFE" d="M537.5,14.793c-0.304,0-0.59-0.042-0.857-0.126c-0.269-0.084-0.502-0.21-0.702-0.378
		s-0.358-0.374-0.474-0.618c-0.116-0.244-0.175-0.526-0.175-0.846v-0.024c0-0.352,0.064-0.656,0.192-0.912
		c0.128-0.256,0.306-0.468,0.534-0.636c0.228-0.168,0.5-0.294,0.815-0.378c0.316-0.084,0.666-0.126,1.051-0.126
		c0.327,0,0.613,0.024,0.857,0.072s0.482,0.112,0.714,0.192v-0.108c0-0.384-0.116-0.676-0.348-0.876c-0.232-0.2-0.576-0.3-1.032-0.3
		c-0.352,0-0.662,0.03-0.93,0.09c-0.269,0.06-0.55,0.146-0.846,0.258l-0.456-1.392c0.352-0.152,0.72-0.276,1.104-0.372
		c0.384-0.096,0.848-0.144,1.393-0.144c0.504,0,0.934,0.062,1.289,0.186c0.356,0.124,0.65,0.302,0.883,0.534
		c0.239,0.24,0.415,0.534,0.527,0.882c0.112,0.348,0.168,0.738,0.168,1.17v3.732h-1.764v-0.696
		c-0.224,0.248-0.492,0.446-0.804,0.594C538.328,14.719,537.948,14.793,537.5,14.793z M538.053,13.533
		c0.432,0,0.777-0.104,1.038-0.312c0.26-0.208,0.39-0.48,0.39-0.816v-0.324c-0.16-0.072-0.338-0.13-0.534-0.174
		s-0.406-0.066-0.63-0.066c-0.393,0-0.7,0.076-0.924,0.228c-0.225,0.152-0.336,0.372-0.336,0.66v0.024
		c0,0.248,0.092,0.44,0.275,0.576C537.517,13.465,537.756,13.533,538.053,13.533z"/>
	<path fill="#F9FDFE" d="M542.864,5.913h1.823v8.76h-1.823V5.913z"/>
	<path fill="#F9FDFE" d="M548.66,14.793c-0.456,0-0.923-0.078-1.398-0.234c-0.476-0.156-0.93-0.402-1.362-0.738l0.78-1.2
		c0.353,0.256,0.702,0.448,1.05,0.576c0.349,0.128,0.674,0.192,0.979,0.192c0.264,0,0.458-0.043,0.582-0.132
		c0.124-0.088,0.186-0.204,0.186-0.348v-0.024c0-0.096-0.036-0.18-0.107-0.252c-0.072-0.072-0.17-0.134-0.294-0.186
		c-0.124-0.052-0.267-0.102-0.427-0.15s-0.328-0.1-0.504-0.156c-0.224-0.063-0.449-0.142-0.678-0.234
		c-0.228-0.092-0.434-0.212-0.618-0.36c-0.184-0.148-0.334-0.33-0.45-0.546c-0.115-0.216-0.174-0.48-0.174-0.792v-0.024
		c0-0.328,0.063-0.618,0.187-0.87s0.292-0.466,0.504-0.642c0.212-0.176,0.46-0.308,0.744-0.396c0.283-0.088,0.59-0.132,0.918-0.132
		c0.407,0,0.821,0.066,1.242,0.198c0.42,0.132,0.806,0.314,1.157,0.546l-0.695,1.26c-0.32-0.184-0.633-0.33-0.937-0.438
		s-0.572-0.162-0.804-0.162c-0.225,0-0.393,0.042-0.504,0.126c-0.112,0.084-0.168,0.19-0.168,0.318v0.024
		c0,0.088,0.036,0.166,0.107,0.234c0.072,0.068,0.168,0.132,0.288,0.192s0.258,0.118,0.414,0.174
		c0.156,0.056,0.322,0.112,0.498,0.168c0.224,0.072,0.452,0.158,0.685,0.258c0.231,0.1,0.439,0.222,0.623,0.366
		c0.185,0.144,0.337,0.32,0.456,0.528c0.12,0.208,0.181,0.46,0.181,0.756v0.024c0,0.36-0.063,0.67-0.187,0.93
		s-0.298,0.474-0.521,0.642c-0.225,0.168-0.486,0.294-0.786,0.378S549.004,14.793,548.66,14.793z"/>
</g>
<g>
	<path fill="#F9FDFE" d="M643.939,6.273h1.704l3.937,5.172V6.273h1.823v8.4h-1.571l-4.068-5.34v5.34h-1.824V6.273z"/>
	<path fill="#F9FDFE" d="M656.275,14.817c-0.48,0-0.927-0.08-1.338-0.24c-0.412-0.16-0.769-0.388-1.068-0.684
		s-0.534-0.646-0.702-1.05c-0.168-0.404-0.252-0.854-0.252-1.35v-0.024c0-0.456,0.078-0.888,0.234-1.296
		c0.155-0.408,0.374-0.764,0.653-1.068c0.28-0.304,0.614-0.544,1.002-0.72c0.389-0.176,0.818-0.264,1.29-0.264
		c0.536,0,1,0.096,1.393,0.288c0.392,0.192,0.718,0.45,0.978,0.774c0.26,0.324,0.452,0.696,0.576,1.116s0.187,0.858,0.187,1.314
		c0,0.072-0.003,0.148-0.007,0.228s-0.01,0.164-0.018,0.252h-4.476c0.088,0.416,0.27,0.73,0.546,0.942
		c0.275,0.212,0.618,0.318,1.025,0.318c0.305,0,0.576-0.052,0.816-0.156s0.487-0.272,0.744-0.504l1.044,0.924
		c-0.305,0.376-0.672,0.67-1.104,0.882C657.367,14.711,656.859,14.817,656.275,14.817z M657.451,10.953
		c-0.056-0.408-0.2-0.738-0.432-0.99c-0.232-0.252-0.54-0.378-0.925-0.378c-0.384,0-0.693,0.124-0.93,0.372s-0.39,0.58-0.462,0.996
		H657.451z"/>
	<path fill="#F9FDFE" d="M662.3,11.409l-2.172-3.168h1.956l1.199,1.872l1.212-1.872h1.908l-2.172,3.132l2.269,3.3h-1.956
		l-1.296-2.004l-1.297,2.004h-1.907L662.3,11.409z"/>
	<path fill="#F9FDFE" d="M669.764,14.781c-0.28,0-0.534-0.03-0.763-0.09c-0.228-0.06-0.424-0.166-0.588-0.318
		s-0.292-0.35-0.384-0.594c-0.092-0.244-0.138-0.554-0.138-0.93V9.801h-0.769v-1.56h0.769V6.597h1.824v1.644h1.512v1.56h-1.512
		v2.758c0,0.417,0.195,0.626,0.588,0.626c0.319,0,0.619-0.08,0.899-0.24v1.464c-0.191,0.112-0.403,0.202-0.636,0.27
		S670.067,14.781,669.764,14.781z"/>
	<path fill="#F9FDFE" d="M679.363,14.793c-0.64,0-1.268-0.11-1.884-0.33c-0.616-0.22-1.176-0.558-1.68-1.014l1.092-1.308
		c0.384,0.312,0.777,0.56,1.182,0.744s0.847,0.276,1.326,0.276c0.384,0,0.682-0.07,0.894-0.21c0.212-0.14,0.318-0.334,0.318-0.582
		v-0.024c0-0.12-0.022-0.226-0.066-0.318c-0.044-0.092-0.128-0.178-0.252-0.258c-0.125-0.08-0.297-0.16-0.518-0.24
		c-0.221-0.08-0.508-0.164-0.86-0.252c-0.426-0.104-0.811-0.22-1.155-0.348c-0.345-0.128-0.638-0.286-0.878-0.474
		c-0.241-0.188-0.428-0.422-0.56-0.702c-0.133-0.28-0.199-0.628-0.199-1.044V8.685c0-0.384,0.072-0.73,0.215-1.038
		c0.144-0.308,0.344-0.574,0.603-0.798c0.258-0.224,0.566-0.396,0.925-0.516c0.358-0.12,0.754-0.18,1.187-0.18
		c0.615,0,1.182,0.092,1.697,0.276c0.517,0.184,0.99,0.448,1.423,0.792l-0.96,1.392c-0.377-0.256-0.744-0.458-1.104-0.606
		s-0.72-0.222-1.08-0.222s-0.63,0.07-0.81,0.21c-0.181,0.14-0.271,0.314-0.271,0.522v0.024c0,0.136,0.026,0.254,0.078,0.354
		c0.053,0.1,0.146,0.19,0.283,0.27c0.136,0.08,0.322,0.156,0.56,0.228c0.236,0.072,0.535,0.156,0.896,0.252
		c0.425,0.112,0.804,0.238,1.137,0.378s0.613,0.308,0.842,0.504c0.229,0.196,0.401,0.426,0.518,0.69s0.175,0.58,0.175,0.948v0.024
		c0,0.416-0.075,0.786-0.227,1.11c-0.151,0.324-0.361,0.596-0.632,0.816c-0.271,0.22-0.593,0.388-0.968,0.504
		C680.234,14.735,679.819,14.793,679.363,14.793z"/>
	<path fill="#F9FDFE" d="M686.023,14.781c-0.28,0-0.534-0.03-0.763-0.09c-0.228-0.06-0.424-0.166-0.588-0.318
		s-0.292-0.35-0.384-0.594c-0.092-0.244-0.138-0.554-0.138-0.93V9.801h-0.769v-1.56h0.769V6.597h1.824v1.644h1.512v1.56h-1.512
		v2.758c0,0.417,0.195,0.626,0.588,0.626c0.319,0,0.619-0.08,0.899-0.24v1.464c-0.191,0.112-0.403,0.202-0.636,0.27
		S686.327,14.781,686.023,14.781z"/>
	<path fill="#F9FDFE" d="M691.879,14.817c-0.48,0-0.927-0.08-1.338-0.24c-0.412-0.16-0.769-0.388-1.068-0.684
		s-0.534-0.646-0.702-1.05c-0.168-0.404-0.252-0.854-0.252-1.35v-0.024c0-0.456,0.078-0.888,0.234-1.296
		c0.155-0.408,0.374-0.764,0.653-1.068c0.28-0.304,0.614-0.544,1.002-0.72c0.389-0.176,0.818-0.264,1.29-0.264
		c0.536,0,1,0.096,1.393,0.288c0.392,0.192,0.718,0.45,0.978,0.774c0.26,0.324,0.452,0.696,0.576,1.116s0.187,0.858,0.187,1.314
		c0,0.072-0.003,0.148-0.007,0.228s-0.01,0.164-0.018,0.252h-4.476c0.088,0.416,0.27,0.73,0.546,0.942
		c0.275,0.212,0.618,0.318,1.025,0.318c0.305,0,0.576-0.052,0.816-0.156s0.487-0.272,0.744-0.504l1.044,0.924
		c-0.305,0.376-0.672,0.67-1.104,0.882C692.971,14.711,692.463,14.817,691.879,14.817z M693.055,10.953
		c-0.056-0.408-0.2-0.738-0.432-0.99c-0.232-0.252-0.54-0.378-0.925-0.378c-0.384,0-0.693,0.124-0.93,0.372s-0.39,0.58-0.462,0.996
		H693.055z"/>
	<path fill="#F9FDFE" d="M696.188,8.241h1.823v0.924c0.225-0.304,0.494-0.554,0.811-0.75c0.315-0.196,0.714-0.294,1.193-0.294
		c0.376,0,0.74,0.072,1.093,0.216c0.352,0.144,0.664,0.358,0.936,0.642c0.272,0.284,0.49,0.632,0.654,1.044s0.246,0.886,0.246,1.422
		v0.024c0,0.536-0.082,1.01-0.246,1.422c-0.164,0.413-0.38,0.76-0.648,1.044c-0.268,0.284-0.578,0.498-0.93,0.642
		c-0.353,0.144-0.72,0.216-1.104,0.216c-0.487,0-0.89-0.096-1.205-0.288c-0.316-0.192-0.582-0.416-0.799-0.672v2.76h-1.823V8.241z
		 M699.547,13.245c0.216,0,0.418-0.042,0.606-0.126c0.188-0.084,0.354-0.204,0.498-0.36c0.144-0.156,0.258-0.342,0.342-0.558
		c0.084-0.216,0.126-0.46,0.126-0.732v-0.024c0-0.264-0.042-0.506-0.126-0.726c-0.084-0.22-0.198-0.408-0.342-0.564
		c-0.145-0.156-0.311-0.276-0.498-0.36c-0.188-0.084-0.391-0.126-0.606-0.126s-0.418,0.042-0.605,0.126
		c-0.188,0.084-0.353,0.204-0.492,0.36c-0.141,0.156-0.252,0.344-0.336,0.564c-0.084,0.22-0.126,0.462-0.126,0.726v0.024
		c0,0.264,0.042,0.506,0.126,0.726c0.084,0.22,0.195,0.408,0.336,0.564c0.14,0.156,0.304,0.276,0.492,0.36
		C699.129,13.203,699.331,13.245,699.547,13.245z"/>
	<path fill="#F9FDFE" d="M706.543,14.793c-0.456,0-0.923-0.078-1.398-0.234c-0.476-0.156-0.93-0.402-1.362-0.738l0.78-1.2
		c0.353,0.256,0.702,0.448,1.05,0.576c0.349,0.128,0.674,0.192,0.979,0.192c0.264,0,0.458-0.043,0.582-0.132
		c0.124-0.088,0.186-0.204,0.186-0.348v-0.024c0-0.096-0.036-0.18-0.107-0.252c-0.072-0.072-0.17-0.134-0.294-0.186
		c-0.124-0.052-0.267-0.102-0.427-0.15s-0.328-0.1-0.504-0.156c-0.224-0.063-0.449-0.142-0.678-0.234
		c-0.228-0.092-0.434-0.212-0.618-0.36c-0.184-0.148-0.334-0.33-0.45-0.546c-0.115-0.216-0.174-0.48-0.174-0.792v-0.024
		c0-0.328,0.063-0.618,0.187-0.87s0.292-0.466,0.504-0.642c0.212-0.176,0.46-0.308,0.744-0.396c0.283-0.088,0.59-0.132,0.918-0.132
		c0.407,0,0.821,0.066,1.242,0.198c0.42,0.132,0.806,0.314,1.157,0.546l-0.695,1.26c-0.32-0.184-0.633-0.33-0.937-0.438
		s-0.572-0.162-0.804-0.162c-0.225,0-0.393,0.042-0.504,0.126c-0.112,0.084-0.168,0.19-0.168,0.318v0.024
		c0,0.088,0.036,0.166,0.107,0.234c0.072,0.068,0.168,0.132,0.288,0.192s0.258,0.118,0.414,0.174
		c0.156,0.056,0.322,0.112,0.498,0.168c0.224,0.072,0.452,0.158,0.685,0.258c0.231,0.1,0.439,0.222,0.623,0.366
		c0.185,0.144,0.337,0.32,0.456,0.528c0.12,0.208,0.181,0.46,0.181,0.756v0.024c0,0.36-0.063,0.67-0.187,0.93
		s-0.298,0.474-0.521,0.642c-0.225,0.168-0.486,0.294-0.786,0.378S706.887,14.793,706.543,14.793z"/>
</g>
<g>
	<path fill="#F9FDFE" d="M769.053,6.273h3.276c0.655,0,1.258,0.106,1.806,0.318s1.021,0.506,1.416,0.882
		c0.396,0.376,0.702,0.818,0.918,1.326c0.216,0.508,0.324,1.058,0.324,1.65v0.024c0,0.592-0.108,1.145-0.324,1.656
		c-0.216,0.512-0.521,0.956-0.918,1.332c-0.396,0.376-0.868,0.672-1.416,0.888c-0.548,0.216-1.15,0.324-1.806,0.324h-3.276V6.273z
		 M772.329,13.005c0.376,0,0.72-0.06,1.032-0.18c0.312-0.12,0.577-0.292,0.798-0.516c0.22-0.224,0.392-0.488,0.516-0.792
		c0.124-0.304,0.187-0.644,0.187-1.02v-0.024c0-0.368-0.063-0.708-0.187-1.02s-0.296-0.58-0.516-0.804
		c-0.221-0.224-0.486-0.398-0.798-0.522c-0.313-0.124-0.656-0.186-1.032-0.186h-1.428v5.064H772.329z"/>
	<path fill="#F9FDFE" d="M780.381,14.793c-0.696,0-1.234-0.212-1.614-0.636c-0.38-0.424-0.57-1.008-0.57-1.752V8.241h1.824v3.579
		c0,0.431,0.097,0.757,0.288,0.976c0.192,0.219,0.464,0.329,0.816,0.329c0.352,0,0.63-0.11,0.834-0.329s0.306-0.545,0.306-0.976
		V8.241h1.824v6.432h-1.824v-0.919c-0.104,0.137-0.218,0.268-0.342,0.393c-0.124,0.125-0.263,0.236-0.414,0.333
		c-0.152,0.097-0.32,0.173-0.504,0.23C780.82,14.765,780.612,14.793,780.381,14.793z"/>
	<path fill="#F9FDFE" d="M788.769,14.817c-0.48,0-0.927-0.08-1.338-0.24c-0.412-0.16-0.769-0.388-1.068-0.684
		s-0.534-0.646-0.702-1.05c-0.168-0.404-0.252-0.854-0.252-1.35v-0.024c0-0.456,0.078-0.888,0.234-1.296
		c0.155-0.408,0.374-0.764,0.653-1.068c0.28-0.304,0.614-0.544,1.002-0.72c0.389-0.176,0.818-0.264,1.29-0.264
		c0.536,0,1,0.096,1.393,0.288c0.392,0.192,0.718,0.45,0.978,0.774c0.26,0.324,0.452,0.696,0.576,1.116s0.187,0.858,0.187,1.314
		c0,0.072-0.003,0.148-0.007,0.228s-0.01,0.164-0.018,0.252h-4.476c0.088,0.416,0.27,0.73,0.546,0.942
		c0.275,0.212,0.618,0.318,1.025,0.318c0.305,0,0.576-0.052,0.816-0.156s0.487-0.272,0.744-0.504l1.044,0.924
		c-0.305,0.376-0.672,0.67-1.104,0.882C789.86,14.711,789.353,14.817,788.769,14.817z M789.944,10.953
		c-0.056-0.408-0.2-0.738-0.432-0.99c-0.232-0.252-0.54-0.378-0.925-0.378c-0.384,0-0.693,0.124-0.93,0.372s-0.39,0.58-0.462,0.996
		H789.944z"/>
</g>
<g>
	<path fill="#F9FDFE" d="M352.953,7.977h-2.556V6.273h6.96v1.704h-2.556v6.696h-1.848V7.977z"/>
	<path fill="#F9FDFE" d="M358.617,5.913h1.92v1.62h-1.92V5.913z M358.665,8.241h1.824v6.432h-1.824V8.241z"/>
	<path fill="#F9FDFE" d="M365.252,14.817c-0.48,0-0.926-0.08-1.338-0.24c-0.412-0.16-0.768-0.388-1.068-0.684
		s-0.534-0.646-0.702-1.05c-0.168-0.404-0.252-0.854-0.252-1.35v-0.024c0-0.456,0.078-0.888,0.234-1.296
		c0.156-0.408,0.374-0.764,0.654-1.068c0.28-0.304,0.614-0.544,1.002-0.72c0.388-0.176,0.818-0.264,1.29-0.264
		c0.536,0,1,0.096,1.392,0.288c0.392,0.192,0.718,0.45,0.978,0.774c0.26,0.324,0.452,0.696,0.576,1.116s0.186,0.858,0.186,1.314
		c0,0.072-0.002,0.148-0.006,0.228c-0.004,0.08-0.01,0.164-0.018,0.252h-4.476c0.088,0.416,0.27,0.73,0.546,0.942
		c0.276,0.212,0.618,0.318,1.026,0.318c0.304,0,0.576-0.052,0.816-0.156c0.24-0.104,0.488-0.272,0.744-0.504l1.044,0.924
		c-0.304,0.376-0.672,0.67-1.104,0.882C366.345,14.711,365.836,14.817,365.252,14.817z M366.429,10.953
		c-0.056-0.408-0.2-0.738-0.432-0.99s-0.54-0.378-0.924-0.378c-0.384,0-0.694,0.124-0.93,0.372s-0.39,0.58-0.462,0.996H366.429z"/>
	<path fill="#F9FDFE" d="M369.56,8.241h1.824v1.296c0.184-0.439,0.436-0.792,0.756-1.056c0.32-0.264,0.752-0.384,1.296-0.36v1.908
		h-0.096c-0.608,0-1.086,0.184-1.434,0.552c-0.348,0.368-0.522,0.94-0.522,1.716v2.376h-1.824V8.241z"/>
</g>
<g>
	<path fill="#F9FDFE" d="M350.997,20.672h3.84c1.063,0,1.88,0.284,2.448,0.852c0.48,0.48,0.72,1.12,0.72,1.92v0.024
		c0,0.68-0.166,1.234-0.498,1.662s-0.766,0.742-1.302,0.942l2.052,3h-2.16l-1.8-2.688h-0.024h-1.428v2.688h-1.848V20.672z
		 M354.717,24.752c0.456,0,0.806-0.108,1.05-0.324s0.366-0.504,0.366-0.864V23.54c0-0.4-0.128-0.7-0.384-0.9
		c-0.256-0.2-0.612-0.3-1.068-0.3h-1.836v2.412H354.717z"/>
	<path fill="#F9FDFE" d="M361.305,29.192c-0.304,0-0.59-0.042-0.858-0.126c-0.269-0.084-0.502-0.21-0.702-0.378
		c-0.2-0.168-0.358-0.374-0.474-0.618c-0.116-0.244-0.174-0.526-0.174-0.846V27.2c0-0.352,0.064-0.656,0.192-0.912
		c0.128-0.256,0.306-0.468,0.534-0.636s0.5-0.294,0.816-0.378c0.316-0.084,0.666-0.126,1.05-0.126c0.328,0,0.614,0.024,0.858,0.072
		s0.482,0.112,0.714,0.192v-0.108c0-0.384-0.116-0.676-0.348-0.876c-0.232-0.2-0.576-0.3-1.032-0.3c-0.352,0-0.662,0.03-0.93,0.09
		c-0.268,0.06-0.55,0.146-0.846,0.258l-0.456-1.392c0.352-0.152,0.72-0.276,1.104-0.372c0.384-0.096,0.848-0.144,1.392-0.144
		c0.504,0,0.934,0.062,1.29,0.186s0.65,0.302,0.882,0.534c0.24,0.24,0.416,0.534,0.528,0.882c0.112,0.348,0.168,0.738,0.168,1.17
		v3.732h-1.764v-0.696c-0.224,0.248-0.492,0.446-0.804,0.594S361.752,29.192,361.305,29.192z M361.856,27.932
		c0.432,0,0.778-0.104,1.038-0.312c0.26-0.208,0.39-0.48,0.39-0.816V26.48c-0.16-0.072-0.338-0.13-0.534-0.174
		c-0.196-0.044-0.406-0.066-0.63-0.066c-0.392,0-0.7,0.076-0.924,0.228c-0.224,0.152-0.336,0.372-0.336,0.66v0.024
		c0,0.248,0.092,0.44,0.276,0.576C361.32,27.864,361.561,27.932,361.856,27.932z"/>
	<path fill="#F9FDFE" d="M368.756,29.18c-0.28,0-0.534-0.03-0.762-0.09s-0.424-0.166-0.588-0.318
		c-0.164-0.152-0.292-0.35-0.384-0.594c-0.092-0.244-0.138-0.554-0.138-0.93V24.2h-0.768v-1.56h0.768v-1.644h1.824v1.644h1.512v1.56
		h-1.512v2.758c0,0.417,0.196,0.626,0.588,0.626c0.32,0,0.62-0.08,0.9-0.24v1.464c-0.192,0.112-0.404,0.202-0.636,0.27
		S369.061,29.18,368.756,29.18z"/>
	<path fill="#F9FDFE" d="M371.601,20.313h1.92v1.62h-1.92V20.313z M371.648,22.64h1.824v6.432h-1.824V22.64z"/>
	<path fill="#F9FDFE" d="M375.188,22.64h1.824v0.919c0.104-0.137,0.218-0.268,0.342-0.393s0.262-0.235,0.414-0.332
		c0.152-0.097,0.32-0.173,0.504-0.23c0.184-0.056,0.392-0.084,0.624-0.084c0.696,0,1.234,0.212,1.614,0.636
		c0.38,0.424,0.57,1.008,0.57,1.752v4.164h-1.824v-3.579c0-0.431-0.096-0.756-0.288-0.976c-0.192-0.219-0.464-0.329-0.816-0.329
		s-0.63,0.11-0.834,0.329c-0.204,0.219-0.306,0.544-0.306,0.976v3.579h-1.824V22.64z"/>
	<path fill="#F9FDFE" d="M385.544,31.016c-0.528,0-1.032-0.058-1.512-0.174c-0.48-0.116-0.924-0.282-1.332-0.498l0.624-1.368
		c0.336,0.184,0.674,0.328,1.014,0.432c0.34,0.104,0.726,0.156,1.158,0.156c0.624,0,1.086-0.148,1.386-0.444
		c0.3-0.296,0.45-0.732,0.45-1.308V27.5c-0.272,0.328-0.568,0.584-0.888,0.768c-0.32,0.184-0.724,0.276-1.212,0.276
		c-0.376,0-0.736-0.066-1.08-0.198c-0.344-0.132-0.648-0.326-0.912-0.582c-0.264-0.256-0.474-0.57-0.63-0.942
		c-0.156-0.372-0.234-0.798-0.234-1.278v-0.024c0-0.48,0.08-0.906,0.24-1.278c0.16-0.372,0.372-0.686,0.636-0.942
		c0.264-0.256,0.568-0.45,0.912-0.582s0.7-0.198,1.068-0.198c0.496,0,0.904,0.092,1.224,0.276s0.604,0.412,0.852,0.684v-0.84h1.824
		v4.98c0,1.144-0.272,1.988-0.816,2.532c-0.304,0.304-0.686,0.524-1.146,0.66C386.71,30.948,386.168,31.016,385.544,31.016z
		 M385.76,27.032c0.224,0,0.432-0.036,0.624-0.108c0.192-0.072,0.358-0.174,0.498-0.306c0.14-0.132,0.25-0.29,0.33-0.474
		c0.08-0.184,0.12-0.384,0.12-0.6v-0.024c0-0.216-0.04-0.416-0.12-0.6s-0.19-0.342-0.33-0.474c-0.14-0.132-0.306-0.234-0.498-0.306
		c-0.192-0.072-0.4-0.108-0.624-0.108c-0.224,0-0.43,0.036-0.618,0.108c-0.188,0.072-0.352,0.174-0.492,0.306
		c-0.14,0.132-0.25,0.29-0.33,0.474c-0.08,0.184-0.12,0.384-0.12,0.6v0.024c0,0.448,0.148,0.808,0.444,1.08
		S385.312,27.032,385.76,27.032z"/>
	<path fill="#F9FDFE" d="M392.228,23.168l-1.164,0.888l-0.504-0.864l1.344-0.564l-1.344-0.564l0.504-0.864l1.164,0.888l-0.192-1.44
		h0.984l-0.192,1.44l1.164-0.888l0.504,0.864l-1.344,0.564l1.344,0.564l-0.504,0.864l-1.164-0.888l0.192,1.44h-0.984L392.228,23.168
		z"/>
</g>
<g>
	<path fill="#F9FDFE" d="M417.885,6.273h6.396v1.668h-4.548v1.812h4.008v1.668h-4.008v3.252h-1.849V6.273z"/>
	<path fill="#F9FDFE" d="M425.565,8.241h1.823v1.296c0.185-0.439,0.437-0.792,0.756-1.056c0.32-0.264,0.752-0.384,1.297-0.36v1.908
		h-0.097c-0.607,0-1.086,0.184-1.434,0.552c-0.348,0.368-0.522,0.94-0.522,1.716v2.376h-1.823V8.241z"/>
	<path fill="#F9FDFE" d="M430.616,5.913h1.921v1.62h-1.921V5.913z M430.665,8.241h1.823v6.432h-1.823V8.241z"/>
	<path fill="#F9FDFE" d="M437.253,14.817c-0.48,0-0.927-0.08-1.338-0.24c-0.412-0.16-0.769-0.388-1.068-0.684
		s-0.534-0.646-0.702-1.05c-0.168-0.404-0.252-0.854-0.252-1.35v-0.024c0-0.456,0.078-0.888,0.234-1.296
		c0.155-0.408,0.374-0.764,0.653-1.068c0.28-0.304,0.614-0.544,1.002-0.72c0.389-0.176,0.818-0.264,1.29-0.264
		c0.536,0,1,0.096,1.393,0.288c0.392,0.192,0.718,0.45,0.978,0.774c0.26,0.324,0.452,0.696,0.576,1.116s0.187,0.858,0.187,1.314
		c0,0.072-0.003,0.148-0.007,0.228s-0.01,0.164-0.018,0.252h-4.476c0.088,0.416,0.27,0.73,0.546,0.942
		c0.275,0.212,0.618,0.318,1.025,0.318c0.305,0,0.576-0.052,0.816-0.156s0.487-0.272,0.744-0.504l1.044,0.924
		c-0.305,0.376-0.672,0.67-1.104,0.882C438.345,14.711,437.837,14.817,437.253,14.817z M438.429,10.953
		c-0.056-0.408-0.2-0.738-0.432-0.99c-0.232-0.252-0.54-0.378-0.925-0.378c-0.384,0-0.693,0.124-0.93,0.372s-0.39,0.58-0.462,0.996
		H438.429z"/>
	<path fill="#F9FDFE" d="M441.561,8.241h1.823V9.16c0.104-0.137,0.218-0.268,0.343-0.393c0.123-0.125,0.262-0.235,0.413-0.332
		c0.152-0.097,0.32-0.173,0.505-0.23c0.184-0.056,0.392-0.084,0.624-0.084c0.695,0,1.233,0.212,1.613,0.636
		c0.38,0.424,0.57,1.008,0.57,1.752v4.164h-1.824v-3.579c0-0.431-0.096-0.756-0.288-0.976c-0.191-0.219-0.464-0.329-0.815-0.329
		c-0.353,0-0.63,0.11-0.834,0.329s-0.307,0.544-0.307,0.976v3.579h-1.823V8.241z"/>
	<path fill="#F9FDFE" d="M451.677,14.793c-0.376,0-0.74-0.072-1.092-0.216c-0.353-0.144-0.664-0.358-0.937-0.642
		c-0.271-0.284-0.49-0.632-0.653-1.044c-0.164-0.412-0.246-0.886-0.246-1.422v-0.024c0-0.536,0.082-1.01,0.246-1.422
		c0.163-0.412,0.38-0.76,0.647-1.044c0.268-0.284,0.578-0.498,0.93-0.642c0.353-0.144,0.721-0.216,1.104-0.216
		c0.488,0,0.89,0.096,1.206,0.288c0.315,0.192,0.582,0.416,0.798,0.672V5.913h1.824v8.76h-1.824v-0.924
		c-0.224,0.304-0.494,0.554-0.81,0.75C452.555,14.695,452.156,14.793,451.677,14.793z M452.145,13.245
		c0.216,0,0.418-0.042,0.606-0.126c0.188-0.084,0.352-0.204,0.492-0.36c0.14-0.156,0.252-0.344,0.336-0.564
		c0.084-0.22,0.126-0.462,0.126-0.726v-0.024c0-0.264-0.042-0.506-0.126-0.726c-0.084-0.22-0.196-0.408-0.336-0.564
		c-0.141-0.156-0.305-0.276-0.492-0.36c-0.188-0.084-0.391-0.126-0.606-0.126s-0.418,0.042-0.605,0.126
		c-0.188,0.084-0.354,0.204-0.498,0.36c-0.145,0.156-0.259,0.342-0.343,0.558s-0.126,0.46-0.126,0.732v0.024
		c0,0.264,0.042,0.506,0.126,0.726c0.084,0.22,0.198,0.408,0.343,0.564c0.144,0.156,0.31,0.276,0.498,0.36
		C451.727,13.203,451.929,13.245,452.145,13.245z"/>
	<path fill="#F9FDFE" d="M463.892,14.817c-0.496,0-0.956-0.086-1.38-0.258c-0.424-0.172-0.79-0.408-1.098-0.708
		c-0.309-0.3-0.55-0.652-0.727-1.056c-0.176-0.404-0.264-0.838-0.264-1.302v-0.024c0-0.464,0.088-0.898,0.264-1.302
		c0.177-0.404,0.421-0.758,0.732-1.062s0.68-0.544,1.104-0.72c0.425-0.176,0.889-0.264,1.393-0.264c0.496,0,0.956,0.086,1.38,0.258
		s0.79,0.408,1.098,0.708c0.309,0.3,0.55,0.652,0.727,1.056c0.176,0.404,0.264,0.838,0.264,1.302v0.024
		c0,0.464-0.088,0.898-0.264,1.302c-0.177,0.404-0.42,0.758-0.732,1.062c-0.312,0.304-0.68,0.544-1.104,0.72
		C464.859,14.729,464.396,14.817,463.892,14.817z M463.916,13.245c0.264,0,0.498-0.046,0.702-0.138s0.378-0.218,0.521-0.378
		c0.145-0.16,0.254-0.346,0.33-0.558s0.114-0.438,0.114-0.678v-0.024c0-0.24-0.04-0.466-0.12-0.678s-0.196-0.4-0.348-0.564
		c-0.152-0.164-0.332-0.294-0.54-0.39s-0.437-0.144-0.685-0.144c-0.264,0-0.498,0.046-0.702,0.138
		c-0.203,0.092-0.378,0.218-0.521,0.378c-0.145,0.16-0.254,0.346-0.33,0.558s-0.114,0.438-0.114,0.678v0.024
		c0,0.24,0.04,0.466,0.12,0.678s0.196,0.4,0.349,0.564c0.151,0.164,0.329,0.294,0.533,0.39
		C463.43,13.197,463.66,13.245,463.916,13.245z"/>
	<path fill="#F9FDFE" d="M468.704,8.241h1.823v1.296c0.185-0.439,0.437-0.792,0.756-1.056c0.32-0.264,0.752-0.384,1.297-0.36v1.908
		h-0.097c-0.607,0-1.086,0.184-1.434,0.552c-0.348,0.368-0.522,0.94-0.522,1.716v2.376h-1.823V8.241z"/>
</g>
<g>
	<path fill="#F9FDFE" d="M417.885,20.672h6.396v1.668h-4.548v1.812h4.008v1.668h-4.008v3.252h-1.849V20.672z"/>
	<path fill="#F9FDFE" d="M428.721,29.216c-0.496,0-0.956-0.086-1.38-0.258c-0.424-0.172-0.79-0.408-1.098-0.708
		c-0.309-0.3-0.55-0.652-0.727-1.056c-0.176-0.404-0.264-0.838-0.264-1.302v-0.024c0-0.464,0.088-0.898,0.264-1.302
		c0.177-0.404,0.421-0.758,0.732-1.062s0.68-0.544,1.104-0.72c0.425-0.176,0.889-0.264,1.393-0.264c0.496,0,0.956,0.086,1.38,0.258
		s0.79,0.408,1.098,0.708c0.309,0.3,0.55,0.652,0.727,1.056c0.176,0.404,0.264,0.838,0.264,1.302v0.024
		c0,0.464-0.088,0.898-0.264,1.302c-0.177,0.404-0.42,0.758-0.732,1.062c-0.312,0.304-0.68,0.544-1.104,0.72
		C429.688,29.128,429.225,29.216,428.721,29.216z M428.745,27.644c0.264,0,0.498-0.046,0.702-0.138s0.378-0.218,0.521-0.378
		c0.145-0.16,0.254-0.346,0.33-0.558s0.114-0.438,0.114-0.678v-0.024c0-0.24-0.04-0.466-0.12-0.678s-0.196-0.4-0.348-0.564
		c-0.152-0.164-0.332-0.294-0.54-0.39s-0.437-0.144-0.685-0.144c-0.264,0-0.498,0.046-0.702,0.138
		c-0.203,0.092-0.378,0.218-0.521,0.378c-0.145,0.16-0.254,0.346-0.33,0.558s-0.114,0.438-0.114,0.678v0.024
		c0,0.24,0.04,0.466,0.12,0.678s0.196,0.4,0.349,0.564c0.151,0.164,0.329,0.294,0.533,0.39
		C428.259,27.596,428.489,27.644,428.745,27.644z"/>
	<path fill="#F9FDFE" d="M436.581,29.216c-0.48,0-0.927-0.08-1.338-0.24c-0.412-0.16-0.769-0.388-1.068-0.684
		s-0.534-0.646-0.702-1.05c-0.168-0.404-0.252-0.854-0.252-1.35v-0.024c0-0.456,0.078-0.888,0.234-1.296
		c0.155-0.408,0.374-0.764,0.653-1.068c0.28-0.304,0.614-0.544,1.002-0.72c0.389-0.176,0.818-0.264,1.29-0.264
		c0.536,0,1,0.096,1.393,0.288c0.392,0.192,0.718,0.45,0.978,0.774c0.26,0.324,0.452,0.696,0.576,1.116s0.187,0.858,0.187,1.314
		c0,0.072-0.003,0.148-0.007,0.228s-0.01,0.164-0.018,0.252h-4.476c0.088,0.416,0.27,0.73,0.546,0.942
		c0.275,0.212,0.618,0.318,1.025,0.318c0.305,0,0.576-0.052,0.816-0.156s0.487-0.272,0.744-0.504l1.044,0.924
		c-0.305,0.376-0.672,0.67-1.104,0.882C437.673,29.11,437.165,29.216,436.581,29.216z M437.757,25.352
		c-0.056-0.408-0.2-0.738-0.432-0.99c-0.232-0.252-0.54-0.378-0.925-0.378c-0.384,0-0.693,0.124-0.93,0.372s-0.39,0.58-0.462,0.996
		H437.757z"/>
	<path fill="#F9FDFE" d="M444.68,20.672h3.84c1.064,0,1.88,0.284,2.448,0.852c0.48,0.48,0.72,1.12,0.72,1.92v0.024
		c0,0.68-0.166,1.234-0.498,1.662s-0.766,0.742-1.302,0.942l2.052,3h-2.159l-1.801-2.688h-0.023h-1.428v2.688h-1.849V20.672z
		 M448.399,24.752c0.456,0,0.807-0.108,1.051-0.324c0.243-0.216,0.365-0.504,0.365-0.864V23.54c0-0.4-0.128-0.7-0.384-0.9
		c-0.256-0.2-0.611-0.3-1.067-0.3h-1.836v2.412H448.399z"/>
	<path fill="#F9FDFE" d="M454.988,29.192c-0.304,0-0.59-0.042-0.857-0.126c-0.269-0.084-0.502-0.21-0.702-0.378
		s-0.358-0.374-0.474-0.618c-0.116-0.244-0.175-0.526-0.175-0.846V27.2c0-0.352,0.064-0.656,0.192-0.912
		c0.128-0.256,0.306-0.468,0.534-0.636c0.228-0.168,0.5-0.294,0.815-0.378c0.316-0.084,0.666-0.126,1.051-0.126
		c0.327,0,0.613,0.024,0.857,0.072s0.482,0.112,0.714,0.192v-0.108c0-0.384-0.116-0.676-0.348-0.876c-0.232-0.2-0.576-0.3-1.032-0.3
		c-0.352,0-0.662,0.03-0.93,0.09c-0.269,0.06-0.55,0.146-0.846,0.258l-0.456-1.392c0.352-0.152,0.72-0.276,1.104-0.372
		c0.384-0.096,0.848-0.144,1.393-0.144c0.504,0,0.934,0.062,1.289,0.186c0.356,0.124,0.65,0.302,0.883,0.534
		c0.239,0.24,0.415,0.534,0.527,0.882c0.112,0.348,0.168,0.738,0.168,1.17v3.732h-1.764v-0.696
		c-0.224,0.248-0.492,0.446-0.804,0.594C455.816,29.118,455.437,29.192,454.988,29.192z M455.541,27.932
		c0.432,0,0.777-0.104,1.038-0.312c0.26-0.208,0.39-0.48,0.39-0.816V26.48c-0.16-0.072-0.338-0.13-0.534-0.174
		s-0.406-0.066-0.63-0.066c-0.393,0-0.7,0.076-0.924,0.228c-0.225,0.152-0.336,0.372-0.336,0.66v0.024
		c0,0.248,0.092,0.44,0.275,0.576C455.005,27.864,455.244,27.932,455.541,27.932z"/>
	<path fill="#F9FDFE" d="M462.44,29.18c-0.28,0-0.534-0.03-0.763-0.09c-0.228-0.06-0.424-0.166-0.588-0.318s-0.292-0.35-0.384-0.594
		c-0.092-0.244-0.138-0.554-0.138-0.93V24.2H459.8v-1.56h0.769v-1.644h1.824v1.644h1.512v1.56h-1.512v2.758
		c0,0.417,0.195,0.626,0.588,0.626c0.319,0,0.619-0.08,0.899-0.24v1.464c-0.191,0.112-0.403,0.202-0.636,0.27
		S462.744,29.18,462.44,29.18z"/>
	<path fill="#F9FDFE" d="M465.283,20.313h1.921v1.62h-1.921V20.313z M465.332,22.64h1.823v6.432h-1.823V22.64z"/>
	<path fill="#F9FDFE" d="M468.872,22.64h1.823v0.919c0.104-0.137,0.218-0.268,0.343-0.393c0.123-0.125,0.262-0.235,0.413-0.332
		c0.152-0.097,0.32-0.173,0.505-0.23c0.184-0.056,0.392-0.084,0.624-0.084c0.695,0,1.233,0.212,1.613,0.636
		c0.38,0.424,0.57,1.008,0.57,1.752v4.164h-1.824v-3.579c0-0.431-0.096-0.756-0.288-0.976c-0.191-0.219-0.464-0.329-0.815-0.329
		c-0.353,0-0.63,0.11-0.834,0.329s-0.307,0.544-0.307,0.976v3.579h-1.823V22.64z"/>
	<path fill="#F9FDFE" d="M479.228,31.016c-0.528,0-1.032-0.058-1.513-0.174c-0.479-0.116-0.924-0.282-1.332-0.498l0.624-1.368
		c0.336,0.184,0.674,0.328,1.015,0.432c0.34,0.104,0.726,0.156,1.158,0.156c0.624,0,1.086-0.148,1.386-0.444s0.45-0.732,0.45-1.308
		V27.5c-0.272,0.328-0.568,0.584-0.889,0.768c-0.319,0.184-0.724,0.276-1.212,0.276c-0.376,0-0.736-0.066-1.08-0.198
		s-0.647-0.326-0.912-0.582c-0.264-0.256-0.474-0.57-0.63-0.942c-0.155-0.372-0.233-0.798-0.233-1.278v-0.024
		c0-0.48,0.079-0.906,0.239-1.278s0.372-0.686,0.637-0.942c0.264-0.256,0.567-0.45,0.912-0.582c0.344-0.132,0.699-0.198,1.067-0.198
		c0.496,0,0.904,0.092,1.225,0.276c0.319,0.184,0.604,0.412,0.852,0.684v-0.84h1.824v4.98c0,1.144-0.272,1.988-0.816,2.532
		c-0.304,0.304-0.686,0.524-1.146,0.66C480.394,30.948,479.852,31.016,479.228,31.016z M479.443,27.032
		c0.224,0,0.432-0.036,0.624-0.108c0.191-0.072,0.357-0.174,0.498-0.306c0.14-0.132,0.25-0.29,0.33-0.474
		c0.08-0.184,0.12-0.384,0.12-0.6v-0.024c0-0.216-0.04-0.416-0.12-0.6s-0.19-0.342-0.33-0.474c-0.141-0.132-0.307-0.234-0.498-0.306
		c-0.192-0.072-0.4-0.108-0.624-0.108c-0.225,0-0.431,0.036-0.618,0.108c-0.188,0.072-0.353,0.174-0.492,0.306
		s-0.25,0.29-0.33,0.474s-0.12,0.384-0.12,0.6v0.024c0,0.448,0.148,0.808,0.444,1.08S478.995,27.032,479.443,27.032z"/>
	<path fill="#F9FDFE" d="M485.912,23.168l-1.164,0.888l-0.504-0.864l1.344-0.564l-1.344-0.564l0.504-0.864l1.164,0.888l-0.192-1.44
		h0.984l-0.192,1.44l1.164-0.888l0.504,0.864l-1.344,0.564l1.344,0.564l-0.504,0.864l-1.164-0.888l0.192,1.44h-0.984L485.912,23.168
		z"/>
	<path fill="#F9FDFE" d="M491.071,23.168l-1.164,0.888l-0.504-0.864l1.344-0.564l-1.344-0.564l0.504-0.864l1.164,0.888l-0.192-1.44
		h0.984l-0.192,1.44l1.164-0.888l0.504,0.864l-1.344,0.564l1.344,0.564l-0.504,0.864l-1.164-0.888l0.192,1.44h-0.984L491.071,23.168
		z"/>
</g>
</svg>
