<?xml version="1.0" encoding="utf-8"?>
<!-- Generator: Adobe Illustrator 15.1.0, SVG Export Plug-In . SVG Version: 6.00 Build 0)  -->
<!DOCTYPE svg PUBLIC "-//W3C//DTD SVG 1.1//EN" "http://www.w3.org/Graphics/SVG/1.1/DTD/svg11.dtd">
<svg version="1.1" id="Layer_1" xmlns="http://www.w3.org/2000/svg" xmlns:xlink="http://www.w3.org/1999/xlink" x="0px" y="0px"
	 width="531.348px" height="122.846px" viewBox="0 0 531.348 122.846" enable-background="new 0 0 531.348 122.846"
	 xml:space="preserve">
<rect y="42.301" fill="#E4E5E6" width="130.886" height="80.464"/>
<rect x="134.002" y="42.221" fill="#C7C8CA" width="130.281" height="80.462"/>
<rect y="0.187" fill="#F79421" width="130.886" height="38.9"/>
<rect x="134.002" fill="#58595B" width="130.281" height="38.901"/>
<g>
	<path fill="#F9FDFE" d="M8.058,9.125h6.276l-0.444,1.644H9.45l-0.456,1.716h3.9l-0.444,1.62h-3.9l-0.48,1.776h4.512l-0.444,1.644
		H5.802L8.058,9.125z"/>
	<path fill="#F9FDFE" d="M15.93,17.459c-0.368-0.14-0.684-0.336-0.948-0.588c-0.264-0.252-0.47-0.556-0.618-0.912
		c-0.148-0.356-0.222-0.754-0.222-1.194c0-0.528,0.102-1.022,0.306-1.482c0.204-0.46,0.478-0.86,0.822-1.2
		c0.344-0.34,0.746-0.61,1.206-0.81c0.46-0.2,0.946-0.3,1.458-0.3c0.352,0,0.668,0.038,0.948,0.113
		c0.28,0.076,0.526,0.177,0.738,0.304c0.212,0.127,0.396,0.276,0.552,0.447c0.156,0.17,0.29,0.351,0.402,0.542l-1.392,0.983
		c-0.16-0.248-0.342-0.45-0.546-0.606c-0.204-0.156-0.486-0.234-0.846-0.234c-0.24,0-0.472,0.06-0.696,0.181
		c-0.224,0.12-0.42,0.283-0.588,0.487c-0.168,0.205-0.304,0.444-0.408,0.717s-0.156,0.558-0.156,0.854
		c0,0.417,0.12,0.749,0.36,0.994c0.24,0.245,0.54,0.367,0.9,0.367c0.28,0,0.532-0.054,0.756-0.162s0.456-0.266,0.696-0.474
		l0.936,1.188c-0.336,0.304-0.692,0.546-1.068,0.726s-0.836,0.27-1.38,0.27C16.702,17.669,16.298,17.599,15.93,17.459z"/>
	<path fill="#F9FDFE" d="M22.668,17.447c-0.38-0.148-0.704-0.354-0.972-0.618c-0.268-0.264-0.474-0.578-0.618-0.942
		c-0.144-0.364-0.216-0.762-0.216-1.194c0-0.48,0.096-0.944,0.288-1.392c0.192-0.448,0.456-0.844,0.792-1.188
		c0.336-0.344,0.73-0.62,1.182-0.828c0.452-0.208,0.938-0.312,1.458-0.312c0.48,0,0.91,0.074,1.29,0.222
		c0.38,0.148,0.704,0.354,0.972,0.618s0.474,0.578,0.618,0.942c0.144,0.364,0.216,0.762,0.216,1.194c0,0.48-0.098,0.944-0.294,1.392
		c-0.196,0.448-0.462,0.844-0.798,1.188c-0.336,0.344-0.73,0.62-1.182,0.828s-0.934,0.312-1.446,0.312
		C23.478,17.669,23.048,17.595,22.668,17.447z M24.804,15.916c0.228-0.137,0.422-0.308,0.582-0.514
		c0.16-0.205,0.284-0.433,0.372-0.682s0.132-0.491,0.132-0.725c0-0.475-0.128-0.839-0.384-1.093c-0.256-0.253-0.592-0.38-1.008-0.38
		c-0.28,0-0.534,0.068-0.762,0.206c-0.228,0.137-0.422,0.308-0.582,0.513c-0.16,0.206-0.284,0.435-0.372,0.689
		c-0.088,0.253-0.132,0.493-0.132,0.718c0,0.475,0.128,0.84,0.384,1.093c0.256,0.254,0.592,0.381,1.008,0.381
		C24.322,16.121,24.576,16.052,24.804,15.916z"/>
	<path fill="#F9FDFE" d="M30.03,17.597c-0.264-0.048-0.522-0.12-0.774-0.216c-0.252-0.096-0.494-0.216-0.726-0.36
		c-0.232-0.144-0.444-0.316-0.636-0.516l1.056-1.092c0.336,0.336,0.676,0.564,1.02,0.684c0.344,0.12,0.66,0.18,0.948,0.18
		c0.24,0,0.428-0.048,0.564-0.144c0.136-0.096,0.204-0.236,0.204-0.42c0-0.12-0.068-0.226-0.204-0.318
		c-0.136-0.092-0.316-0.186-0.54-0.282c-0.256-0.104-0.496-0.214-0.72-0.33c-0.224-0.116-0.422-0.246-0.594-0.39
		c-0.172-0.144-0.308-0.31-0.408-0.498c-0.1-0.188-0.15-0.41-0.15-0.666c0-0.32,0.06-0.618,0.18-0.894s0.29-0.514,0.51-0.714
		c0.22-0.2,0.49-0.358,0.81-0.474c0.32-0.116,0.68-0.174,1.08-0.174c0.264,0,0.518,0.026,0.762,0.078
		c0.244,0.052,0.476,0.122,0.696,0.21c0.22,0.088,0.42,0.186,0.6,0.294c0.18,0.108,0.338,0.222,0.474,0.342l-0.984,1.152
		c-0.312-0.248-0.604-0.424-0.876-0.528c-0.272-0.104-0.54-0.156-0.804-0.156c-0.224,0-0.398,0.048-0.522,0.144
		c-0.124,0.096-0.186,0.228-0.186,0.396c0,0.128,0.074,0.242,0.222,0.342c0.148,0.1,0.358,0.21,0.63,0.33
		c0.208,0.096,0.418,0.196,0.63,0.3s0.402,0.228,0.57,0.372s0.304,0.31,0.408,0.498s0.156,0.406,0.156,0.654
		c0,0.352-0.066,0.668-0.198,0.948c-0.132,0.28-0.314,0.518-0.546,0.714s-0.51,0.346-0.834,0.45
		c-0.324,0.104-0.678,0.156-1.062,0.156C30.546,17.669,30.294,17.645,30.03,17.597z"/>
	<path fill="#F9FDFE" d="M34.35,19.361c-0.232-0.08-0.448-0.188-0.648-0.324l0.972-1.32c0.096,0.072,0.208,0.132,0.336,0.18
		c0.128,0.048,0.252,0.072,0.372,0.072c0.136,0,0.256-0.026,0.36-0.078c0.104-0.052,0.22-0.158,0.348-0.318l-0.792-6.48h1.86
		l0.3,4.368l2.412-4.368h1.968l-3.984,6.588c-0.4,0.664-0.806,1.13-1.218,1.398c-0.412,0.268-0.89,0.402-1.434,0.402
		C34.866,19.481,34.582,19.441,34.35,19.361z"/>
	<path fill="#F9FDFE" d="M43.134,17.597c-0.264-0.048-0.522-0.12-0.774-0.216c-0.252-0.096-0.494-0.216-0.726-0.36
		c-0.232-0.144-0.444-0.316-0.636-0.516l1.056-1.092c0.336,0.336,0.676,0.564,1.02,0.684c0.344,0.12,0.66,0.18,0.948,0.18
		c0.24,0,0.428-0.048,0.564-0.144c0.136-0.096,0.204-0.236,0.204-0.42c0-0.12-0.068-0.226-0.204-0.318
		c-0.136-0.092-0.316-0.186-0.54-0.282c-0.256-0.104-0.496-0.214-0.72-0.33c-0.224-0.116-0.422-0.246-0.594-0.39
		c-0.172-0.144-0.308-0.31-0.408-0.498c-0.1-0.188-0.15-0.41-0.15-0.666c0-0.32,0.06-0.618,0.18-0.894s0.29-0.514,0.51-0.714
		c0.22-0.2,0.49-0.358,0.81-0.474c0.32-0.116,0.68-0.174,1.08-0.174c0.264,0,0.518,0.026,0.762,0.078
		c0.244,0.052,0.476,0.122,0.696,0.21c0.22,0.088,0.42,0.186,0.6,0.294c0.18,0.108,0.338,0.222,0.474,0.342l-0.984,1.152
		c-0.312-0.248-0.604-0.424-0.876-0.528c-0.272-0.104-0.54-0.156-0.804-0.156c-0.224,0-0.398,0.048-0.522,0.144
		c-0.124,0.096-0.186,0.228-0.186,0.396c0,0.128,0.074,0.242,0.222,0.342c0.148,0.1,0.358,0.21,0.63,0.33
		c0.208,0.096,0.418,0.196,0.63,0.3s0.402,0.228,0.57,0.372s0.304,0.31,0.408,0.498s0.156,0.406,0.156,0.654
		c0,0.352-0.066,0.668-0.198,0.948c-0.132,0.28-0.314,0.518-0.546,0.714s-0.51,0.346-0.834,0.45
		c-0.324,0.104-0.678,0.156-1.062,0.156C43.649,17.669,43.397,17.645,43.134,17.597z"/>
	<path fill="#F9FDFE" d="M48.354,17.272c-0.272-0.24-0.408-0.541-0.408-0.902c0-0.137,0.01-0.269,0.03-0.397
		c0.02-0.128,0.05-0.265,0.09-0.409l0.78-2.923h-0.768l0.42-1.548h0.768l0.444-1.644h1.824l-0.444,1.644h1.512l-0.42,1.548h-1.512
		l-0.72,2.71c-0.016,0.048-0.028,0.099-0.036,0.151c-0.008,0.052-0.012,0.098-0.012,0.138c0,0.256,0.164,0.385,0.492,0.385
		c0.144,0,0.298-0.018,0.462-0.054c0.164-0.036,0.322-0.085,0.474-0.15l-0.42,1.548c-0.376,0.176-0.816,0.264-1.32,0.264
		C49.038,17.633,48.625,17.513,48.354,17.272z"/>
	<path fill="#F9FDFE" d="M54.87,15.863c0.232,0.228,0.588,0.342,1.068,0.342c0.24,0,0.472-0.04,0.696-0.12
		c0.224-0.08,0.468-0.212,0.732-0.396l0.84,1.128c-0.288,0.24-0.634,0.442-1.038,0.606s-0.882,0.246-1.434,0.246
		c-0.464,0-0.88-0.066-1.248-0.198c-0.368-0.132-0.68-0.32-0.936-0.564c-0.256-0.244-0.452-0.542-0.588-0.894
		c-0.136-0.352-0.204-0.751-0.204-1.2c0-0.464,0.09-0.926,0.27-1.386c0.18-0.46,0.438-0.872,0.774-1.236
		c0.336-0.364,0.738-0.658,1.206-0.882c0.468-0.224,0.99-0.336,1.566-0.336c0.416,0,0.788,0.064,1.116,0.192
		s0.604,0.304,0.828,0.528c0.224,0.224,0.394,0.488,0.51,0.792c0.116,0.304,0.174,0.636,0.174,0.996c0,0.232-0.028,0.472-0.084,0.72
		c-0.056,0.248-0.136,0.497-0.24,0.744h-4.404C54.505,15.329,54.638,15.635,54.87,15.863z M57.426,13.805
		c0.04-0.136,0.06-0.276,0.06-0.42c0-0.264-0.083-0.488-0.246-0.672c-0.164-0.184-0.434-0.276-0.81-0.276
		c-0.416,0-0.782,0.126-1.098,0.378s-0.55,0.582-0.702,0.99H57.426z"/>
	<path fill="#F9FDFE" d="M61.23,11.093h1.824l-0.18,0.667c0.232-0.207,0.484-0.389,0.756-0.548c0.272-0.159,0.588-0.238,0.948-0.238
		c0.44,0,0.802,0.103,1.086,0.31c0.284,0.207,0.49,0.488,0.618,0.846c0.28-0.341,0.612-0.619,0.996-0.834
		c0.384-0.214,0.82-0.321,1.308-0.321c0.576,0,1.03,0.166,1.362,0.498c0.332,0.333,0.498,0.791,0.498,1.374
		c0,0.184-0.022,0.382-0.066,0.594s-0.094,0.422-0.15,0.63l-0.924,3.456h-1.824l0.948-3.537c0.024-0.088,0.044-0.187,0.06-0.295
		c0.016-0.108,0.024-0.202,0.024-0.283c0-0.529-0.284-0.794-0.852-0.794c-0.36,0-0.652,0.119-0.876,0.355
		c-0.224,0.237-0.388,0.547-0.492,0.933l-0.972,3.621h-1.824l0.948-3.537c0.024-0.088,0.044-0.187,0.06-0.295
		c0.016-0.108,0.024-0.202,0.024-0.283c0-0.529-0.284-0.794-0.852-0.794c-0.36,0-0.652,0.119-0.876,0.355
		c-0.224,0.237-0.388,0.547-0.492,0.933l-0.972,3.621h-1.824L61.23,11.093z"/>
	<path fill="#F9FDFE" d="M76.937,9.125h6.396l-0.456,1.68h-4.548l-0.48,1.788h4.008l-0.444,1.68h-4.008l-0.876,3.252h-1.848
		L76.937,9.125z"/>
	<path fill="#F9FDFE" d="M84.803,17.447c-0.38-0.148-0.704-0.354-0.972-0.618c-0.268-0.264-0.474-0.578-0.618-0.942
		c-0.144-0.364-0.216-0.762-0.216-1.194c0-0.48,0.096-0.944,0.288-1.392c0.192-0.448,0.456-0.844,0.792-1.188
		c0.336-0.344,0.73-0.62,1.182-0.828c0.452-0.208,0.938-0.312,1.458-0.312c0.48,0,0.91,0.074,1.29,0.222
		c0.38,0.148,0.704,0.354,0.972,0.618s0.474,0.578,0.618,0.942c0.144,0.364,0.216,0.762,0.216,1.194c0,0.48-0.098,0.944-0.294,1.392
		c-0.196,0.448-0.462,0.844-0.798,1.188c-0.336,0.344-0.73,0.62-1.182,0.828s-0.934,0.312-1.446,0.312
		C85.613,17.669,85.183,17.595,84.803,17.447z M86.939,15.916c0.228-0.137,0.422-0.308,0.582-0.514
		c0.16-0.205,0.284-0.433,0.372-0.682s0.132-0.491,0.132-0.725c0-0.475-0.128-0.839-0.384-1.093c-0.256-0.253-0.592-0.38-1.008-0.38
		c-0.28,0-0.534,0.068-0.762,0.206c-0.228,0.137-0.422,0.308-0.582,0.513c-0.16,0.206-0.284,0.435-0.372,0.689
		c-0.088,0.253-0.132,0.493-0.132,0.718c0,0.475,0.128,0.84,0.384,1.093c0.256,0.254,0.592,0.381,1.008,0.381
		C86.457,16.121,86.711,16.052,86.939,15.916z"/>
	<path fill="#F9FDFE" d="M92.609,17.459c-0.368-0.14-0.684-0.336-0.948-0.588c-0.264-0.252-0.47-0.556-0.618-0.912
		c-0.148-0.356-0.222-0.754-0.222-1.194c0-0.528,0.102-1.022,0.306-1.482c0.204-0.46,0.478-0.86,0.822-1.2
		c0.344-0.34,0.746-0.61,1.206-0.81c0.46-0.2,0.946-0.3,1.458-0.3c0.352,0,0.668,0.038,0.948,0.113
		c0.28,0.076,0.526,0.177,0.738,0.304c0.212,0.127,0.396,0.276,0.552,0.447c0.156,0.17,0.29,0.351,0.402,0.542l-1.392,0.983
		c-0.16-0.248-0.342-0.45-0.546-0.606c-0.204-0.156-0.486-0.234-0.846-0.234c-0.24,0-0.472,0.06-0.696,0.181
		c-0.224,0.12-0.42,0.283-0.588,0.487c-0.168,0.205-0.304,0.444-0.408,0.717s-0.156,0.558-0.156,0.854
		c0,0.417,0.12,0.749,0.36,0.994c0.24,0.245,0.54,0.367,0.9,0.367c0.28,0,0.532-0.054,0.756-0.162s0.456-0.266,0.696-0.474
		l0.936,1.188c-0.336,0.304-0.692,0.546-1.068,0.726s-0.836,0.27-1.38,0.27C93.381,17.669,92.977,17.599,92.609,17.459z"/>
	<path fill="#F9FDFE" d="M98.045,17.147c-0.344-0.332-0.516-0.79-0.516-1.374c0-0.184,0.022-0.382,0.066-0.594
		c0.044-0.212,0.094-0.422,0.15-0.63l0.924-3.456h1.824l-0.948,3.537c-0.024,0.088-0.044,0.187-0.06,0.295s-0.024,0.203-0.024,0.283
		c0,0.257,0.078,0.453,0.234,0.589c0.156,0.136,0.374,0.205,0.654,0.205c0.36,0,0.656-0.118,0.888-0.355
		c0.232-0.236,0.4-0.547,0.504-0.932l0.972-3.621h1.824l-1.716,6.432h-1.824l0.18-0.666c-0.232,0.207-0.492,0.389-0.78,0.548
		s-0.612,0.238-0.972,0.238C98.849,17.645,98.389,17.479,98.045,17.147z"/>
	<path fill="#F9FDFE" d="M106.349,17.597c-0.264-0.048-0.522-0.12-0.774-0.216c-0.252-0.096-0.494-0.216-0.726-0.36
		c-0.232-0.144-0.444-0.316-0.636-0.516l1.056-1.092c0.336,0.336,0.676,0.564,1.02,0.684c0.344,0.12,0.66,0.18,0.948,0.18
		c0.24,0,0.428-0.048,0.564-0.144c0.136-0.096,0.204-0.236,0.204-0.42c0-0.12-0.068-0.226-0.204-0.318
		c-0.136-0.092-0.316-0.186-0.54-0.282c-0.256-0.104-0.496-0.214-0.72-0.33c-0.224-0.116-0.422-0.246-0.594-0.39
		c-0.172-0.144-0.308-0.31-0.408-0.498c-0.1-0.188-0.15-0.41-0.15-0.666c0-0.32,0.06-0.618,0.18-0.894s0.29-0.514,0.51-0.714
		c0.22-0.2,0.49-0.358,0.81-0.474c0.32-0.116,0.68-0.174,1.08-0.174c0.264,0,0.518,0.026,0.762,0.078
		c0.244,0.052,0.476,0.122,0.696,0.21c0.22,0.088,0.42,0.186,0.6,0.294c0.18,0.108,0.338,0.222,0.474,0.342l-0.984,1.152
		c-0.312-0.248-0.604-0.424-0.876-0.528c-0.272-0.104-0.54-0.156-0.804-0.156c-0.224,0-0.398,0.048-0.522,0.144
		c-0.124,0.096-0.186,0.228-0.186,0.396c0,0.128,0.074,0.242,0.222,0.342c0.148,0.1,0.358,0.21,0.63,0.33
		c0.208,0.096,0.418,0.196,0.63,0.3s0.402,0.228,0.57,0.372s0.304,0.31,0.408,0.498s0.156,0.406,0.156,0.654
		c0,0.352-0.066,0.668-0.198,0.948c-0.132,0.28-0.314,0.518-0.546,0.714s-0.51,0.346-0.834,0.45
		c-0.324,0.104-0.678,0.156-1.062,0.156C106.865,17.669,106.613,17.645,106.349,17.597z"/>
</g>
<g>
	<path fill="#F9FDFE" d="M142.086,8.945h2.664c0.6,0,1.114,0.066,1.542,0.198c0.428,0.132,0.794,0.35,1.098,0.654
		c0.432,0.432,0.648,1.008,0.648,1.728c0,0.52-0.106,0.984-0.318,1.392c-0.212,0.408-0.5,0.752-0.864,1.032
		c-0.364,0.28-0.794,0.492-1.29,0.636c-0.496,0.144-1.032,0.216-1.608,0.216h-1.596l-0.684,2.544h-1.848L142.086,8.945z
		 M144.055,13.181c0.616,0,1.112-0.13,1.488-0.39c0.376-0.26,0.564-0.63,0.564-1.11c0-0.28-0.092-0.512-0.276-0.696
		c-0.128-0.128-0.282-0.222-0.462-0.282c-0.18-0.06-0.41-0.09-0.69-0.09h-1.2l-0.684,2.568H144.055z"/>
	<path fill="#F9FDFE" d="M148.842,16.967c-0.344-0.332-0.516-0.79-0.516-1.374c0-0.184,0.022-0.382,0.066-0.594
		c0.044-0.212,0.094-0.422,0.15-0.63l0.924-3.456h1.824l-0.948,3.537c-0.024,0.088-0.044,0.187-0.06,0.295s-0.024,0.203-0.024,0.283
		c0,0.257,0.078,0.453,0.234,0.589c0.156,0.136,0.374,0.205,0.654,0.205c0.36,0,0.656-0.118,0.888-0.355
		c0.232-0.236,0.4-0.547,0.504-0.932l0.972-3.621h1.824l-1.716,6.432h-1.824l0.18-0.666c-0.232,0.207-0.492,0.389-0.78,0.548
		s-0.612,0.238-0.972,0.238C149.646,17.465,149.187,17.299,148.842,16.967z"/>
	<path fill="#F9FDFE" d="M156.979,10.913h1.824l-0.348,1.296c0.328-0.48,0.686-0.846,1.074-1.098s0.846-0.358,1.374-0.318
		l-0.516,1.908h-0.096c-0.608,0-1.136,0.184-1.584,0.552c-0.448,0.368-0.784,0.972-1.008,1.812l-0.612,2.28h-1.824L156.979,10.913z"
		/>
	<path fill="#F9FDFE" d="M162.006,10.913h1.824l-0.192,0.696c0.28-0.256,0.562-0.456,0.846-0.6c0.284-0.144,0.606-0.216,0.966-0.216
		c0.352,0,0.678,0.062,0.978,0.186c0.3,0.125,0.562,0.304,0.786,0.54c0.224,0.236,0.397,0.526,0.522,0.87
		c0.124,0.344,0.186,0.732,0.186,1.164c0,0.568-0.1,1.092-0.3,1.572s-0.466,0.894-0.798,1.242s-0.71,0.618-1.134,0.81
		c-0.424,0.192-0.864,0.288-1.32,0.288c-0.504,0-0.914-0.097-1.23-0.291c-0.316-0.193-0.578-0.451-0.786-0.774l-0.756,2.864h-1.824
		L162.006,10.913z M164.844,15.75c0.228-0.112,0.43-0.269,0.606-0.473c0.176-0.203,0.318-0.44,0.426-0.711
		c0.108-0.271,0.162-0.57,0.162-0.897c0-0.423-0.122-0.752-0.366-0.987c-0.244-0.235-0.57-0.353-0.978-0.353
		c-0.256,0-0.5,0.058-0.732,0.173c-0.232,0.116-0.438,0.275-0.618,0.479c-0.18,0.204-0.324,0.44-0.432,0.712
		c-0.108,0.271-0.162,0.558-0.162,0.861c0,0.407,0.128,0.735,0.384,0.987c0.256,0.251,0.588,0.376,0.996,0.376
		C164.378,15.917,164.616,15.861,164.844,15.75z"/>
	<path fill="#F9FDFE" d="M170.724,17.267c-0.38-0.148-0.704-0.354-0.972-0.618c-0.268-0.264-0.474-0.578-0.618-0.942
		c-0.144-0.364-0.216-0.762-0.216-1.194c0-0.48,0.096-0.944,0.288-1.392c0.192-0.448,0.456-0.844,0.792-1.188
		c0.336-0.344,0.73-0.62,1.182-0.828c0.452-0.208,0.938-0.312,1.458-0.312c0.48,0,0.91,0.074,1.29,0.222
		c0.38,0.148,0.704,0.354,0.972,0.618s0.474,0.578,0.618,0.942c0.144,0.364,0.216,0.762,0.216,1.194c0,0.48-0.098,0.944-0.294,1.392
		c-0.196,0.448-0.462,0.844-0.798,1.188c-0.336,0.344-0.73,0.62-1.182,0.828s-0.934,0.312-1.446,0.312
		C171.534,17.489,171.104,17.415,170.724,17.267z M172.86,15.736c0.228-0.137,0.422-0.308,0.582-0.514
		c0.16-0.205,0.284-0.433,0.372-0.682s0.132-0.491,0.132-0.725c0-0.475-0.128-0.839-0.384-1.093c-0.256-0.253-0.592-0.38-1.008-0.38
		c-0.28,0-0.534,0.068-0.762,0.206c-0.228,0.137-0.422,0.308-0.582,0.513c-0.16,0.206-0.284,0.435-0.372,0.689
		c-0.088,0.253-0.132,0.493-0.132,0.718c0,0.475,0.128,0.84,0.384,1.093c0.256,0.254,0.592,0.381,1.008,0.381
		C172.378,15.941,172.632,15.873,172.86,15.736z"/>
	<path fill="#F9FDFE" d="M178.086,17.417c-0.264-0.048-0.522-0.12-0.774-0.216c-0.252-0.096-0.494-0.216-0.726-0.36
		c-0.232-0.144-0.444-0.316-0.636-0.516l1.056-1.092c0.336,0.336,0.676,0.564,1.02,0.684c0.344,0.12,0.66,0.18,0.948,0.18
		c0.24,0,0.428-0.048,0.564-0.144c0.136-0.096,0.204-0.236,0.204-0.42c0-0.12-0.068-0.226-0.204-0.318
		c-0.136-0.092-0.316-0.186-0.54-0.282c-0.256-0.104-0.496-0.214-0.72-0.33c-0.224-0.116-0.422-0.246-0.594-0.39
		c-0.172-0.144-0.308-0.31-0.408-0.498c-0.1-0.188-0.15-0.41-0.15-0.666c0-0.32,0.06-0.618,0.18-0.894s0.29-0.514,0.51-0.714
		c0.22-0.2,0.49-0.358,0.81-0.474c0.32-0.116,0.68-0.174,1.08-0.174c0.264,0,0.518,0.026,0.762,0.078
		c0.244,0.052,0.476,0.122,0.696,0.21c0.22,0.088,0.42,0.186,0.6,0.294c0.18,0.108,0.338,0.222,0.474,0.342l-0.984,1.152
		c-0.312-0.248-0.604-0.424-0.876-0.528c-0.272-0.104-0.54-0.156-0.804-0.156c-0.224,0-0.398,0.048-0.522,0.144
		c-0.124,0.096-0.186,0.228-0.186,0.396c0,0.128,0.074,0.242,0.222,0.342c0.148,0.1,0.358,0.21,0.63,0.33
		c0.208,0.096,0.418,0.196,0.63,0.3s0.402,0.228,0.57,0.372s0.304,0.31,0.408,0.498s0.156,0.406,0.156,0.654
		c0,0.352-0.066,0.668-0.198,0.948c-0.132,0.28-0.314,0.518-0.546,0.714s-0.51,0.346-0.834,0.45
		c-0.324,0.104-0.678,0.156-1.062,0.156C178.602,17.489,178.35,17.465,178.086,17.417z"/>
	<path fill="#F9FDFE" d="M184.842,15.683c0.232,0.228,0.588,0.342,1.068,0.342c0.24,0,0.472-0.04,0.696-0.12
		c0.224-0.08,0.468-0.212,0.732-0.396l0.84,1.128c-0.288,0.24-0.634,0.442-1.038,0.606s-0.882,0.246-1.434,0.246
		c-0.464,0-0.88-0.066-1.248-0.198c-0.368-0.132-0.68-0.32-0.936-0.564c-0.256-0.244-0.452-0.542-0.588-0.894
		c-0.136-0.352-0.204-0.751-0.204-1.2c0-0.464,0.09-0.926,0.27-1.386c0.18-0.46,0.438-0.872,0.774-1.236
		c0.336-0.364,0.738-0.658,1.206-0.882c0.468-0.224,0.99-0.336,1.566-0.336c0.416,0,0.788,0.064,1.116,0.192
		s0.604,0.304,0.828,0.528c0.224,0.224,0.394,0.488,0.51,0.792c0.116,0.304,0.174,0.636,0.174,0.996c0,0.232-0.028,0.472-0.084,0.72
		c-0.056,0.248-0.136,0.497-0.24,0.744h-4.404C184.478,15.149,184.61,15.455,184.842,15.683z M187.398,13.625
		c0.04-0.136,0.06-0.276,0.06-0.42c0-0.264-0.083-0.488-0.246-0.672c-0.164-0.184-0.434-0.276-0.81-0.276
		c-0.416,0-0.782,0.126-1.098,0.378s-0.55,0.582-0.702,0.99H187.398z"/>
</g>
<g>
	<path d="M6.714,53.28h5.397v0.757H7.557v2.571h4.075v0.757H7.557v2.624h4.608v0.757H6.714V53.28z"/>
	<path d="M13.722,55.232h0.821v0.96c0.185-0.299,0.427-0.553,0.725-0.763c0.299-0.209,0.687-0.314,1.163-0.314
		c0.334,0,0.631,0.053,0.891,0.16c0.26,0.107,0.48,0.258,0.662,0.454s0.32,0.428,0.416,0.699c0.096,0.27,0.144,0.569,0.144,0.896
		v3.424h-0.821v-3.214c0-0.511-0.132-0.916-0.395-1.213s-0.64-0.447-1.13-0.447c-0.235,0-0.454,0.041-0.656,0.123
		c-0.203,0.082-0.378,0.198-0.528,0.351c-0.149,0.152-0.265,0.335-0.347,0.548c-0.082,0.213-0.123,0.447-0.123,0.703v3.15h-0.821
		V55.232z"/>
	<path d="M22.138,60.843c-0.221,0-0.427-0.029-0.619-0.085c-0.192-0.057-0.357-0.147-0.496-0.272S20.776,60.199,20.698,60
		c-0.079-0.199-0.117-0.438-0.117-0.715v-3.328h-0.768v-0.725h0.768v-1.664h0.821v1.664h1.749v0.725h-1.749v3.213
		c0,0.34,0.085,0.578,0.256,0.713c0.17,0.135,0.395,0.202,0.672,0.202c0.142,0,0.275-0.014,0.4-0.041s0.258-0.074,0.4-0.141v0.704
		c-0.143,0.078-0.293,0.137-0.454,0.176C22.517,60.823,22.337,60.843,22.138,60.843z"/>
	<path d="M24.623,53.12h0.939v0.906h-0.939V53.12z M24.677,55.232h0.821v5.515h-0.821V55.232z"/>
	<path d="M27.407,55.232h0.821v1.44c0.1-0.228,0.224-0.438,0.373-0.629c0.149-0.192,0.32-0.357,0.512-0.496s0.402-0.243,0.629-0.314
		c0.228-0.071,0.473-0.103,0.736-0.096v0.886h-0.064c-0.299,0-0.582,0.053-0.848,0.16c-0.267,0.107-0.5,0.267-0.699,0.48
		c-0.199,0.213-0.355,0.479-0.469,0.795s-0.17,0.681-0.17,1.093v2.197h-0.821V55.232z"/>
	<path d="M32.218,58.325c0.028,0.292,0.099,0.551,0.213,0.779s0.26,0.419,0.438,0.576c0.178,0.157,0.377,0.276,0.597,0.357
		c0.221,0.082,0.452,0.123,0.693,0.123c0.384,0,0.713-0.071,0.987-0.213c0.274-0.143,0.524-0.331,0.752-0.565l0.512,0.458
		c-0.277,0.313-0.594,0.564-0.949,0.752c-0.356,0.188-0.797,0.283-1.323,0.283c-0.377,0-0.732-0.069-1.067-0.208
		s-0.626-0.334-0.875-0.586c-0.249-0.252-0.446-0.557-0.592-0.912c-0.146-0.355-0.218-0.747-0.218-1.173
		c0-0.398,0.065-0.773,0.197-1.125c0.131-0.352,0.314-0.658,0.549-0.917c0.234-0.26,0.514-0.464,0.837-0.614
		c0.323-0.149,0.677-0.224,1.061-0.224c0.405,0,0.768,0.076,1.088,0.229c0.32,0.153,0.59,0.361,0.811,0.624
		c0.22,0.263,0.387,0.573,0.501,0.928s0.171,0.736,0.171,1.141c0,0.036,0,0.077,0,0.123c0,0.046-0.004,0.101-0.011,0.165H32.218z
		 M35.77,57.653c-0.021-0.248-0.075-0.482-0.16-0.705c-0.085-0.223-0.201-0.419-0.347-0.589c-0.146-0.169-0.323-0.304-0.533-0.403
		s-0.45-0.148-0.72-0.148c-0.235,0-0.456,0.046-0.662,0.138s-0.388,0.221-0.544,0.387s-0.286,0.362-0.389,0.588
		c-0.104,0.227-0.169,0.47-0.197,0.732H35.77z"/>
	<path d="M41.732,58.325c0.028,0.292,0.099,0.551,0.213,0.779s0.26,0.419,0.438,0.576c0.178,0.157,0.377,0.276,0.597,0.357
		c0.221,0.082,0.452,0.123,0.693,0.123c0.384,0,0.713-0.071,0.987-0.213c0.274-0.143,0.524-0.331,0.752-0.565l0.512,0.458
		c-0.277,0.313-0.594,0.564-0.949,0.752c-0.356,0.188-0.797,0.283-1.323,0.283c-0.377,0-0.732-0.069-1.067-0.208
		s-0.626-0.334-0.875-0.586c-0.249-0.252-0.446-0.557-0.592-0.912c-0.146-0.355-0.218-0.747-0.218-1.173
		c0-0.398,0.065-0.773,0.197-1.125c0.131-0.352,0.314-0.658,0.549-0.917c0.234-0.26,0.514-0.464,0.837-0.614
		c0.323-0.149,0.677-0.224,1.061-0.224c0.405,0,0.768,0.076,1.088,0.229c0.32,0.153,0.59,0.361,0.811,0.624
		c0.22,0.263,0.387,0.573,0.501,0.928s0.171,0.736,0.171,1.141c0,0.036,0,0.077,0,0.123c0,0.046-0.004,0.101-0.011,0.165H41.732z
		 M45.284,57.653c-0.021-0.248-0.075-0.482-0.16-0.705c-0.085-0.223-0.201-0.419-0.347-0.589c-0.146-0.169-0.323-0.304-0.533-0.403
		s-0.45-0.148-0.72-0.148c-0.235,0-0.456,0.046-0.662,0.138s-0.388,0.221-0.544,0.387s-0.286,0.362-0.389,0.588
		c-0.104,0.227-0.169,0.47-0.197,0.732H45.284z"/>
	<path d="M50.042,60.875c-0.405,0-0.781-0.077-1.125-0.229c-0.345-0.153-0.644-0.359-0.896-0.619
		c-0.252-0.259-0.45-0.563-0.592-0.912c-0.143-0.349-0.213-0.715-0.213-1.099v-0.021c0-0.391,0.071-0.761,0.213-1.109
		c0.142-0.348,0.339-0.654,0.592-0.917c0.252-0.263,0.551-0.471,0.896-0.624c0.345-0.153,0.72-0.229,1.125-0.229
		c0.263,0,0.501,0.025,0.714,0.075s0.409,0.119,0.587,0.208s0.341,0.194,0.491,0.314c0.149,0.121,0.288,0.249,0.416,0.384
		l-0.544,0.576c-0.221-0.228-0.461-0.423-0.72-0.586c-0.26-0.164-0.578-0.246-0.955-0.246c-0.277,0-0.537,0.055-0.779,0.166
		s-0.452,0.261-0.629,0.453s-0.316,0.418-0.416,0.677c-0.1,0.26-0.149,0.539-0.149,0.837v0.021c0,0.299,0.052,0.578,0.155,0.837
		s0.246,0.487,0.427,0.683s0.395,0.349,0.64,0.458c0.245,0.11,0.514,0.166,0.805,0.166c0.355,0,0.67-0.078,0.944-0.235
		c0.274-0.156,0.521-0.352,0.742-0.586l0.522,0.491c-0.277,0.313-0.592,0.569-0.944,0.768
		C50.996,60.775,50.561,60.875,50.042,60.875z"/>
	<path d="M56.164,60.875c-0.413,0-0.793-0.077-1.141-0.229c-0.349-0.153-0.651-0.359-0.907-0.619
		c-0.256-0.259-0.455-0.562-0.597-0.906c-0.143-0.345-0.213-0.713-0.213-1.104v-0.021c0-0.391,0.071-0.761,0.213-1.109
		c0.142-0.348,0.341-0.654,0.597-0.917c0.256-0.263,0.56-0.471,0.912-0.624c0.352-0.153,0.737-0.229,1.157-0.229
		c0.412,0,0.794,0.076,1.146,0.229c0.352,0.153,0.656,0.359,0.912,0.619c0.256,0.26,0.455,0.562,0.597,0.907
		c0.143,0.345,0.213,0.713,0.213,1.104v0.021c0,0.391-0.073,0.761-0.219,1.109c-0.146,0.349-0.347,0.654-0.603,0.917
		c-0.256,0.263-0.562,0.471-0.917,0.624C56.96,60.798,56.577,60.875,56.164,60.875z M56.186,60.139c0.299,0,0.572-0.057,0.821-0.171
		c0.249-0.113,0.462-0.267,0.64-0.458c0.178-0.192,0.316-0.416,0.416-0.672c0.099-0.256,0.149-0.53,0.149-0.821v-0.021
		c0-0.299-0.051-0.578-0.154-0.837c-0.104-0.259-0.247-0.487-0.432-0.683c-0.185-0.195-0.402-0.35-0.651-0.464
		s-0.519-0.171-0.811-0.171c-0.298,0-0.572,0.057-0.821,0.171s-0.46,0.267-0.635,0.458s-0.311,0.418-0.411,0.677
		c-0.1,0.26-0.149,0.535-0.149,0.827v0.021c0,0.299,0.052,0.578,0.155,0.837s0.246,0.485,0.427,0.677s0.396,0.345,0.646,0.458
		C55.624,60.082,55.894,60.139,56.186,60.139z"/>
	<path d="M62.361,60.853c-0.398,0-0.8-0.073-1.205-0.218c-0.405-0.146-0.765-0.343-1.078-0.592l0.416-0.586
		c0.299,0.228,0.61,0.402,0.934,0.522c0.323,0.121,0.649,0.182,0.976,0.182c0.334,0,0.608-0.079,0.821-0.235s0.32-0.37,0.32-0.64
		v-0.021c0-0.135-0.037-0.252-0.112-0.352s-0.176-0.187-0.304-0.262s-0.275-0.14-0.442-0.197c-0.167-0.057-0.34-0.11-0.518-0.16
		c-0.213-0.064-0.429-0.133-0.646-0.208s-0.412-0.169-0.586-0.283s-0.316-0.256-0.427-0.427c-0.11-0.171-0.166-0.384-0.166-0.64
		v-0.021c0-0.234,0.046-0.449,0.139-0.645c0.093-0.196,0.222-0.363,0.39-0.501c0.167-0.139,0.366-0.245,0.597-0.32
		s0.482-0.112,0.752-0.112c0.341,0,0.687,0.055,1.035,0.166c0.349,0.11,0.665,0.258,0.949,0.443l-0.373,0.619
		c-0.256-0.164-0.524-0.293-0.805-0.39c-0.281-0.096-0.557-0.144-0.827-0.144c-0.327,0-0.587,0.077-0.779,0.229
		s-0.288,0.343-0.288,0.571v0.021c0,0.128,0.039,0.24,0.117,0.336c0.078,0.096,0.183,0.179,0.315,0.25
		c0.131,0.071,0.283,0.135,0.453,0.192c0.171,0.057,0.349,0.114,0.533,0.171c0.213,0.064,0.425,0.135,0.635,0.213
		c0.21,0.078,0.4,0.178,0.571,0.298c0.17,0.121,0.308,0.267,0.411,0.438c0.103,0.17,0.155,0.38,0.155,0.629V59.2
		c0,0.263-0.052,0.496-0.155,0.699s-0.242,0.375-0.416,0.518s-0.38,0.25-0.619,0.325S62.639,60.853,62.361,60.853z"/>
	<path d="M66.702,62.485c-0.228,0-0.434-0.023-0.619-0.069c-0.185-0.046-0.37-0.116-0.555-0.208l0.277-0.651
		c0.135,0.071,0.269,0.123,0.4,0.155c0.131,0.032,0.286,0.048,0.464,0.048c0.249,0,0.458-0.075,0.629-0.224
		c0.17-0.149,0.337-0.42,0.501-0.811l-2.506-5.493h0.907l2.005,4.597l1.771-4.597h0.875l-2.314,5.696
		c-0.235,0.569-0.496,0.971-0.784,1.206C67.465,62.368,67.115,62.485,66.702,62.485z"/>
	<path d="M73.977,60.853c-0.398,0-0.8-0.073-1.205-0.218c-0.405-0.146-0.765-0.343-1.078-0.592l0.416-0.586
		c0.299,0.228,0.61,0.402,0.934,0.522c0.323,0.121,0.649,0.182,0.976,0.182c0.334,0,0.608-0.079,0.821-0.235s0.32-0.37,0.32-0.64
		v-0.021c0-0.135-0.037-0.252-0.112-0.352s-0.176-0.187-0.304-0.262s-0.275-0.14-0.442-0.197c-0.167-0.057-0.34-0.11-0.518-0.16
		c-0.213-0.064-0.429-0.133-0.646-0.208s-0.412-0.169-0.586-0.283s-0.316-0.256-0.427-0.427c-0.11-0.171-0.166-0.384-0.166-0.64
		v-0.021c0-0.234,0.046-0.449,0.139-0.645c0.093-0.196,0.222-0.363,0.39-0.501c0.167-0.139,0.366-0.245,0.597-0.32
		s0.482-0.112,0.752-0.112c0.341,0,0.687,0.055,1.035,0.166c0.349,0.11,0.665,0.258,0.949,0.443l-0.373,0.619
		c-0.256-0.164-0.524-0.293-0.805-0.39c-0.281-0.096-0.557-0.144-0.827-0.144c-0.327,0-0.587,0.077-0.779,0.229
		s-0.288,0.343-0.288,0.571v0.021c0,0.128,0.039,0.24,0.117,0.336c0.078,0.096,0.183,0.179,0.315,0.25
		c0.131,0.071,0.283,0.135,0.453,0.192c0.171,0.057,0.349,0.114,0.533,0.171c0.213,0.064,0.425,0.135,0.635,0.213
		c0.21,0.078,0.4,0.178,0.571,0.298c0.17,0.121,0.308,0.267,0.411,0.438c0.103,0.17,0.155,0.38,0.155,0.629V59.2
		c0,0.263-0.052,0.496-0.155,0.699s-0.242,0.375-0.416,0.518s-0.38,0.25-0.619,0.325S74.254,60.853,73.977,60.853z"/>
	<path d="M79.31,60.843c-0.221,0-0.427-0.029-0.619-0.085c-0.192-0.057-0.357-0.147-0.496-0.272S77.948,60.199,77.87,60
		c-0.079-0.199-0.117-0.438-0.117-0.715v-3.328h-0.768v-0.725h0.768v-1.664h0.821v1.664h1.749v0.725h-1.749v3.213
		c0,0.34,0.085,0.578,0.256,0.713c0.17,0.135,0.395,0.202,0.672,0.202c0.142,0,0.275-0.014,0.4-0.041s0.258-0.074,0.4-0.141v0.704
		c-0.143,0.078-0.293,0.137-0.454,0.176C79.688,60.823,79.509,60.843,79.31,60.843z"/>
	<path d="M82.265,58.325c0.028,0.292,0.099,0.551,0.213,0.779s0.26,0.419,0.438,0.576c0.178,0.157,0.377,0.276,0.597,0.357
		c0.221,0.082,0.452,0.123,0.693,0.123c0.384,0,0.713-0.071,0.987-0.213c0.274-0.143,0.524-0.331,0.752-0.565l0.512,0.458
		c-0.277,0.313-0.594,0.564-0.949,0.752c-0.356,0.188-0.797,0.283-1.323,0.283c-0.377,0-0.732-0.069-1.067-0.208
		s-0.626-0.334-0.875-0.586c-0.249-0.252-0.446-0.557-0.592-0.912c-0.146-0.355-0.218-0.747-0.218-1.173
		c0-0.398,0.065-0.773,0.197-1.125c0.131-0.352,0.314-0.658,0.549-0.917c0.234-0.26,0.514-0.464,0.837-0.614
		c0.323-0.149,0.677-0.224,1.061-0.224c0.405,0,0.768,0.076,1.088,0.229c0.32,0.153,0.59,0.361,0.811,0.624
		c0.22,0.263,0.387,0.573,0.501,0.928s0.171,0.736,0.171,1.141c0,0.036,0,0.077,0,0.123c0,0.046-0.004,0.101-0.011,0.165H82.265z
		 M85.817,57.653c-0.021-0.248-0.075-0.482-0.16-0.705c-0.085-0.223-0.201-0.419-0.347-0.589c-0.146-0.169-0.323-0.304-0.533-0.403
		s-0.45-0.148-0.72-0.148c-0.235,0-0.456,0.046-0.662,0.138s-0.388,0.221-0.544,0.387s-0.286,0.362-0.389,0.588
		c-0.104,0.227-0.169,0.47-0.197,0.732H85.817z"/>
	<path d="M88.089,55.232h0.821v0.928c0.092-0.135,0.193-0.267,0.304-0.395s0.236-0.24,0.379-0.336
		c0.142-0.096,0.302-0.172,0.48-0.229c0.178-0.057,0.384-0.085,0.619-0.085c0.448,0,0.818,0.105,1.109,0.314
		c0.292,0.21,0.512,0.471,0.661,0.784c0.1-0.149,0.211-0.292,0.336-0.427s0.265-0.252,0.421-0.352s0.333-0.178,0.528-0.235
		c0.195-0.057,0.414-0.085,0.656-0.085c0.64,0,1.142,0.197,1.504,0.592c0.363,0.395,0.544,0.937,0.544,1.627v3.413H95.63v-3.214
		c0-0.532-0.126-0.942-0.378-1.229c-0.252-0.288-0.603-0.431-1.051-0.431c-0.207,0-0.402,0.037-0.586,0.112
		c-0.185,0.074-0.347,0.185-0.485,0.33c-0.139,0.146-0.249,0.325-0.331,0.538c-0.082,0.213-0.123,0.454-0.123,0.724v3.172h-0.811
		v-3.236c0-0.518-0.126-0.92-0.379-1.208c-0.252-0.288-0.599-0.431-1.04-0.431c-0.221,0-0.423,0.042-0.608,0.128
		c-0.185,0.085-0.347,0.206-0.485,0.362c-0.139,0.156-0.247,0.338-0.325,0.548s-0.117,0.442-0.117,0.697v3.14h-0.821V55.232z"/>
</g>
<g>
	<path d="M142.266,51.99h3.172c0.426,0,0.804,0.059,1.134,0.176s0.602,0.279,0.814,0.484c0.319,0.334,0.479,0.731,0.479,1.192v0.021
		c0,0.241-0.034,0.456-0.101,0.644c-0.067,0.188-0.158,0.352-0.271,0.49c-0.114,0.139-0.24,0.256-0.378,0.352
		s-0.282,0.176-0.431,0.239c0.22,0.064,0.428,0.148,0.623,0.251c0.195,0.103,0.364,0.226,0.506,0.369s0.255,0.312,0.341,0.507
		c0.085,0.196,0.127,0.422,0.127,0.679v0.021c0,0.321-0.064,0.607-0.191,0.86c-0.128,0.253-0.311,0.467-0.548,0.641
		s-0.523,0.308-0.857,0.401c-0.333,0.092-0.703,0.139-1.107,0.139h-3.312V51.99z M145.311,55.307c0.511,0,0.923-0.111,1.239-0.334
		c0.315-0.223,0.474-0.554,0.474-0.993v-0.021c0-0.368-0.142-0.662-0.426-0.881s-0.691-0.33-1.223-0.33h-2.266v2.56H145.311z
		 M145.609,58.699c0.567,0,1.015-0.117,1.341-0.352s0.49-0.562,0.49-0.981v-0.021c0-0.405-0.167-0.72-0.5-0.944
		c-0.333-0.224-0.826-0.336-1.479-0.336h-2.352v2.635H145.609z"/>
	<path d="M151.855,59.574c-0.334,0-0.631-0.053-0.891-0.16c-0.26-0.107-0.48-0.258-0.661-0.454c-0.182-0.195-0.32-0.428-0.416-0.699
		c-0.096-0.27-0.144-0.569-0.144-0.896v-3.424h0.821v3.214c0,0.511,0.131,0.916,0.395,1.213s0.64,0.447,1.131,0.447
		c0.234,0,0.453-0.041,0.656-0.122c0.203-0.082,0.377-0.199,0.523-0.352c0.146-0.152,0.261-0.335,0.347-0.548
		s0.128-0.447,0.128-0.703v-3.15h0.811v5.515h-0.811v-0.96c-0.185,0.299-0.427,0.553-0.726,0.763
		C152.719,59.469,152.332,59.574,151.855,59.574z"/>
	<path d="M156.42,51.83h0.939v0.906h-0.939V51.83z M156.474,53.942h0.821v5.515h-0.821V53.942z"/>
	<path d="M159.279,51.67h0.821v7.787h-0.821V51.67z"/>
	<path d="M164.324,59.574c-0.334,0-0.658-0.064-0.971-0.192s-0.594-0.314-0.843-0.56c-0.249-0.245-0.448-0.544-0.597-0.896
		s-0.224-0.755-0.224-1.21v-0.021c0-0.448,0.075-0.85,0.224-1.205c0.149-0.356,0.348-0.656,0.597-0.901
		c0.249-0.246,0.53-0.434,0.843-0.565s0.636-0.197,0.971-0.197c0.256,0,0.491,0.032,0.704,0.096s0.405,0.149,0.576,0.256
		c0.17,0.106,0.325,0.231,0.464,0.373c0.139,0.143,0.261,0.292,0.368,0.448V51.67h0.822v7.787h-0.822v-1.109
		c-0.114,0.164-0.24,0.32-0.378,0.469s-0.293,0.281-0.464,0.395c-0.171,0.114-0.361,0.203-0.571,0.267
		C164.813,59.542,164.58,59.574,164.324,59.574z M164.473,58.838c0.256,0,0.503-0.051,0.741-0.155
		c0.238-0.103,0.452-0.249,0.64-0.437s0.337-0.413,0.448-0.672c0.11-0.259,0.166-0.549,0.166-0.869v-0.021
		c0-0.32-0.055-0.609-0.166-0.869s-0.259-0.482-0.448-0.667c-0.188-0.185-0.402-0.329-0.64-0.432s-0.485-0.155-0.741-0.155
		c-0.271,0-0.522,0.048-0.757,0.144s-0.439,0.235-0.613,0.416s-0.313,0.404-0.416,0.667c-0.103,0.263-0.155,0.562-0.155,0.896v0.021
		c0,0.327,0.052,0.622,0.155,0.885s0.244,0.487,0.421,0.672c0.178,0.185,0.384,0.327,0.619,0.427
		C163.961,58.788,164.21,58.838,164.473,58.838z"/>
	<path d="M173.935,59.574c-0.256,0-0.509-0.036-0.757-0.106c-0.249-0.071-0.469-0.18-0.662-0.325
		c-0.192-0.146-0.347-0.326-0.464-0.539s-0.176-0.462-0.176-0.747v-0.021c0-0.299,0.057-0.56,0.17-0.784s0.275-0.411,0.485-0.56
		s0.459-0.263,0.747-0.341c0.288-0.078,0.606-0.117,0.955-0.117c0.355,0,0.663,0.021,0.922,0.064c0.26,0.042,0.514,0.1,0.763,0.17
		v-0.169c0-0.487-0.142-0.856-0.427-1.107c-0.284-0.251-0.686-0.376-1.205-0.376c-0.327,0-0.624,0.036-0.891,0.107
		c-0.267,0.071-0.528,0.167-0.784,0.288l-0.245-0.676c0.306-0.144,0.615-0.259,0.928-0.346c0.313-0.086,0.672-0.13,1.078-0.13
		c0.782,0,1.376,0.203,1.781,0.608c0.384,0.384,0.576,0.925,0.576,1.622v3.371h-0.811v-0.821c-0.192,0.249-0.45,0.468-0.773,0.656
		C174.821,59.479,174.418,59.574,173.935,59.574z M174.101,58.902c0.255,0,0.493-0.035,0.712-0.106s0.413-0.172,0.58-0.303
		c0.166-0.131,0.297-0.287,0.393-0.467c0.096-0.18,0.144-0.38,0.144-0.6v-0.51c-0.206-0.056-0.439-0.109-0.702-0.159
		c-0.262-0.049-0.563-0.074-0.904-0.074c-0.51,0-0.905,0.101-1.186,0.303c-0.28,0.202-0.419,0.469-0.419,0.801v0.021
		c0,0.17,0.037,0.324,0.111,0.461c0.074,0.138,0.175,0.253,0.303,0.345c0.127,0.092,0.274,0.163,0.441,0.212
		S173.916,58.902,174.101,58.902z"/>
	<path d="M178.468,53.942h0.821v0.96c0.185-0.299,0.427-0.553,0.725-0.763c0.299-0.209,0.687-0.314,1.163-0.314
		c0.334,0,0.631,0.053,0.891,0.16c0.26,0.107,0.48,0.258,0.662,0.454s0.32,0.428,0.416,0.699c0.096,0.27,0.144,0.569,0.144,0.896
		v3.424h-0.821v-3.214c0-0.511-0.132-0.916-0.395-1.213s-0.64-0.447-1.13-0.447c-0.235,0-0.454,0.041-0.656,0.123
		c-0.203,0.082-0.378,0.198-0.528,0.351c-0.149,0.152-0.265,0.335-0.347,0.548c-0.082,0.213-0.123,0.447-0.123,0.703v3.15h-0.821
		V53.942z"/>
	<path d="M187.353,59.574c-0.334,0-0.658-0.064-0.971-0.192s-0.594-0.314-0.843-0.56c-0.249-0.245-0.448-0.544-0.597-0.896
		s-0.224-0.755-0.224-1.21v-0.021c0-0.448,0.075-0.85,0.224-1.205c0.149-0.356,0.348-0.656,0.597-0.901
		c0.249-0.246,0.53-0.434,0.843-0.565s0.636-0.197,0.971-0.197c0.256,0,0.491,0.032,0.704,0.096s0.405,0.149,0.576,0.256
		c0.17,0.106,0.325,0.231,0.464,0.373c0.139,0.143,0.261,0.292,0.368,0.448V51.67h0.822v7.787h-0.822v-1.109
		c-0.114,0.164-0.24,0.32-0.378,0.469s-0.293,0.281-0.464,0.395c-0.171,0.114-0.361,0.203-0.571,0.267
		C187.842,59.542,187.609,59.574,187.353,59.574z M187.502,58.838c0.256,0,0.503-0.051,0.741-0.155
		c0.238-0.103,0.452-0.249,0.64-0.437s0.337-0.413,0.448-0.672c0.11-0.259,0.166-0.549,0.166-0.869v-0.021
		c0-0.32-0.055-0.609-0.166-0.869s-0.259-0.482-0.448-0.667c-0.188-0.185-0.402-0.329-0.64-0.432s-0.485-0.155-0.741-0.155
		c-0.271,0-0.522,0.048-0.757,0.144s-0.439,0.235-0.613,0.416s-0.313,0.404-0.416,0.667c-0.103,0.263-0.155,0.562-0.155,0.896v0.021
		c0,0.327,0.052,0.622,0.155,0.885s0.244,0.487,0.421,0.672c0.178,0.185,0.384,0.327,0.619,0.427
		C186.99,58.788,187.239,58.838,187.502,58.838z"/>
	<path d="M195.321,53.942h0.821v1.44c0.1-0.228,0.224-0.438,0.373-0.629c0.149-0.192,0.32-0.357,0.512-0.496
		s0.402-0.243,0.629-0.314c0.228-0.071,0.473-0.103,0.736-0.096v0.886h-0.064c-0.299,0-0.582,0.053-0.848,0.16
		c-0.267,0.107-0.5,0.267-0.699,0.48c-0.199,0.213-0.355,0.479-0.469,0.795s-0.17,0.681-0.17,1.093v2.197h-0.821V53.942z"/>
	<path d="M199.907,57.035c0.028,0.292,0.099,0.551,0.213,0.779s0.26,0.419,0.438,0.576c0.178,0.157,0.377,0.276,0.597,0.357
		c0.221,0.082,0.452,0.123,0.693,0.123c0.384,0,0.713-0.071,0.987-0.213c0.274-0.143,0.524-0.331,0.752-0.565l0.512,0.458
		c-0.277,0.313-0.594,0.564-0.949,0.752c-0.356,0.188-0.797,0.283-1.323,0.283c-0.377,0-0.732-0.069-1.067-0.208
		s-0.626-0.334-0.875-0.586c-0.249-0.252-0.446-0.557-0.592-0.912c-0.146-0.355-0.218-0.747-0.218-1.173
		c0-0.398,0.065-0.773,0.197-1.125c0.131-0.352,0.314-0.658,0.549-0.917c0.234-0.26,0.514-0.464,0.837-0.614
		c0.323-0.149,0.677-0.224,1.061-0.224c0.405,0,0.768,0.076,1.088,0.229c0.32,0.153,0.59,0.361,0.811,0.624
		c0.22,0.263,0.387,0.573,0.501,0.928s0.171,0.736,0.171,1.141c0,0.036,0,0.077,0,0.123c0,0.046-0.004,0.101-0.011,0.165H199.907z
		 M203.459,56.363c-0.021-0.248-0.075-0.482-0.16-0.705c-0.085-0.223-0.201-0.419-0.347-0.589c-0.146-0.169-0.323-0.304-0.533-0.403
		s-0.45-0.148-0.72-0.148c-0.235,0-0.456,0.046-0.662,0.138s-0.388,0.221-0.544,0.387s-0.286,0.362-0.389,0.588
		c-0.104,0.227-0.169,0.47-0.197,0.732H203.459z"/>
	<path d="M205.752,51.83h0.939v0.906h-0.939V51.83z M205.806,53.942h0.821v5.515h-0.821V53.942z"/>
	<path d="M208.537,53.942h0.821v0.96c0.185-0.299,0.427-0.553,0.725-0.763c0.299-0.209,0.687-0.314,1.163-0.314
		c0.334,0,0.631,0.053,0.891,0.16c0.26,0.107,0.48,0.258,0.662,0.454s0.32,0.428,0.416,0.699c0.096,0.27,0.144,0.569,0.144,0.896
		v3.424h-0.821v-3.214c0-0.511-0.132-0.916-0.395-1.213s-0.64-0.447-1.13-0.447c-0.235,0-0.454,0.041-0.656,0.123
		c-0.203,0.082-0.378,0.198-0.528,0.351c-0.149,0.152-0.265,0.335-0.347,0.548c-0.082,0.213-0.123,0.447-0.123,0.703v3.15h-0.821
		V53.942z"/>
	<path d="M215.416,54.667h-0.757v-0.714h0.757v-0.48c0-0.626,0.16-1.099,0.48-1.419c0.285-0.284,0.679-0.426,1.184-0.426
		c0.192,0,0.357,0.01,0.496,0.032s0.275,0.057,0.411,0.107v0.714c-0.149-0.042-0.285-0.076-0.405-0.101
		c-0.121-0.025-0.252-0.038-0.395-0.038c-0.64,0-0.96,0.391-0.96,1.173v0.448h1.75v0.704h-1.739v4.79h-0.821V54.667z"/>
	<path d="M221.443,59.584c-0.413,0-0.793-0.077-1.141-0.229c-0.349-0.153-0.651-0.359-0.907-0.619
		c-0.256-0.259-0.455-0.562-0.597-0.906c-0.143-0.345-0.213-0.713-0.213-1.104v-0.021c0-0.391,0.071-0.761,0.213-1.109
		c0.142-0.348,0.341-0.654,0.597-0.917c0.256-0.263,0.56-0.471,0.912-0.624c0.352-0.153,0.737-0.229,1.157-0.229
		c0.412,0,0.794,0.076,1.146,0.229c0.352,0.153,0.656,0.359,0.912,0.619c0.256,0.26,0.455,0.562,0.597,0.907
		c0.143,0.345,0.213,0.713,0.213,1.104v0.021c0,0.391-0.073,0.761-0.219,1.109c-0.146,0.349-0.347,0.654-0.603,0.917
		c-0.256,0.263-0.562,0.471-0.917,0.624C222.239,59.508,221.855,59.584,221.443,59.584z M221.464,58.849
		c0.299,0,0.572-0.057,0.821-0.171c0.249-0.113,0.462-0.267,0.64-0.458c0.178-0.192,0.316-0.416,0.416-0.672
		c0.099-0.256,0.149-0.53,0.149-0.821v-0.021c0-0.299-0.051-0.578-0.154-0.837c-0.104-0.259-0.247-0.487-0.432-0.683
		c-0.185-0.195-0.402-0.35-0.651-0.464s-0.519-0.171-0.811-0.171c-0.298,0-0.572,0.057-0.821,0.171s-0.46,0.267-0.635,0.458
		s-0.311,0.418-0.411,0.677c-0.1,0.26-0.149,0.535-0.149,0.827v0.021c0,0.299,0.052,0.578,0.155,0.837s0.246,0.485,0.427,0.677
		s0.396,0.345,0.646,0.458C220.902,58.792,221.173,58.849,221.464,58.849z"/>
	<path d="M225.816,53.942h0.821v1.44c0.1-0.228,0.224-0.438,0.373-0.629c0.149-0.192,0.32-0.357,0.512-0.496
		s0.402-0.243,0.629-0.314c0.228-0.071,0.473-0.103,0.736-0.096v0.886h-0.064c-0.299,0-0.582,0.053-0.848,0.16
		c-0.267,0.107-0.5,0.267-0.699,0.48c-0.199,0.213-0.355,0.479-0.469,0.795s-0.17,0.681-0.17,1.093v2.197h-0.821V53.942z"/>
	<path d="M232.397,59.584c-0.405,0-0.781-0.077-1.125-0.229c-0.345-0.153-0.644-0.359-0.896-0.619
		c-0.252-0.259-0.45-0.563-0.592-0.912c-0.143-0.349-0.213-0.715-0.213-1.099v-0.021c0-0.391,0.071-0.761,0.213-1.109
		c0.142-0.348,0.339-0.654,0.592-0.917c0.252-0.263,0.551-0.471,0.896-0.624c0.345-0.153,0.72-0.229,1.125-0.229
		c0.263,0,0.501,0.025,0.714,0.075s0.409,0.119,0.587,0.208s0.341,0.194,0.491,0.314c0.149,0.121,0.288,0.249,0.416,0.384
		l-0.544,0.576c-0.221-0.228-0.461-0.423-0.72-0.586c-0.26-0.164-0.578-0.246-0.955-0.246c-0.277,0-0.537,0.055-0.779,0.166
		s-0.452,0.261-0.629,0.453s-0.316,0.418-0.416,0.677c-0.1,0.26-0.149,0.539-0.149,0.837v0.021c0,0.299,0.052,0.578,0.155,0.837
		s0.246,0.487,0.427,0.683s0.395,0.349,0.64,0.458c0.245,0.11,0.514,0.166,0.805,0.166c0.355,0,0.67-0.078,0.944-0.235
		c0.274-0.156,0.521-0.352,0.742-0.586l0.522,0.491c-0.277,0.313-0.592,0.569-0.944,0.768
		C233.352,59.485,232.917,59.584,232.397,59.584z"/>
	<path d="M236.344,57.035c0.028,0.292,0.099,0.551,0.213,0.779s0.26,0.419,0.438,0.576c0.178,0.157,0.377,0.276,0.597,0.357
		c0.221,0.082,0.452,0.123,0.693,0.123c0.384,0,0.713-0.071,0.987-0.213c0.274-0.143,0.524-0.331,0.752-0.565l0.512,0.458
		c-0.277,0.313-0.594,0.564-0.949,0.752c-0.356,0.188-0.797,0.283-1.323,0.283c-0.377,0-0.732-0.069-1.067-0.208
		s-0.626-0.334-0.875-0.586c-0.249-0.252-0.446-0.557-0.592-0.912c-0.146-0.355-0.218-0.747-0.218-1.173
		c0-0.398,0.065-0.773,0.197-1.125c0.131-0.352,0.314-0.658,0.549-0.917c0.234-0.26,0.514-0.464,0.837-0.614
		c0.323-0.149,0.677-0.224,1.061-0.224c0.405,0,0.768,0.076,1.088,0.229c0.32,0.153,0.59,0.361,0.811,0.624
		c0.22,0.263,0.387,0.573,0.501,0.928s0.171,0.736,0.171,1.141c0,0.036,0,0.077,0,0.123c0,0.046-0.004,0.101-0.011,0.165H236.344z
		 M239.896,56.363c-0.021-0.248-0.075-0.482-0.16-0.705c-0.085-0.223-0.201-0.419-0.347-0.589c-0.146-0.169-0.323-0.304-0.533-0.403
		s-0.45-0.148-0.72-0.148c-0.235,0-0.456,0.046-0.662,0.138s-0.388,0.221-0.544,0.387s-0.286,0.362-0.389,0.588
		c-0.104,0.227-0.169,0.47-0.197,0.732H239.896z"/>
</g>
<g>
	<path d="M142.202,65.003h0.821v7.787h-0.821V65.003z"/>
	<path d="M145.423,70.368c0.028,0.292,0.099,0.551,0.213,0.779s0.26,0.419,0.438,0.576c0.178,0.157,0.377,0.276,0.597,0.357
		c0.221,0.082,0.452,0.123,0.693,0.123c0.384,0,0.713-0.071,0.987-0.213c0.274-0.143,0.524-0.331,0.752-0.565l0.512,0.458
		c-0.277,0.313-0.594,0.564-0.949,0.752c-0.356,0.188-0.797,0.283-1.323,0.283c-0.377,0-0.732-0.069-1.067-0.208
		s-0.626-0.334-0.875-0.586c-0.249-0.252-0.446-0.557-0.592-0.912c-0.146-0.355-0.218-0.747-0.218-1.173
		c0-0.398,0.065-0.773,0.197-1.125c0.131-0.352,0.314-0.658,0.549-0.917c0.234-0.26,0.514-0.464,0.837-0.614
		c0.323-0.149,0.677-0.224,1.061-0.224c0.405,0,0.768,0.076,1.088,0.229c0.32,0.153,0.59,0.361,0.811,0.624
		c0.22,0.263,0.387,0.573,0.501,0.928s0.171,0.736,0.171,1.141c0,0.036,0,0.077,0,0.123c0,0.046-0.004,0.101-0.011,0.165H145.423z
		 M148.975,69.696c-0.021-0.248-0.075-0.482-0.16-0.705c-0.085-0.223-0.201-0.419-0.347-0.589c-0.146-0.169-0.323-0.304-0.533-0.403
		s-0.45-0.148-0.72-0.148c-0.235,0-0.456,0.046-0.662,0.138s-0.388,0.221-0.544,0.387s-0.286,0.362-0.389,0.588
		c-0.104,0.227-0.169,0.47-0.197,0.732H148.975z"/>
	<path d="M152.89,72.907c-0.256,0-0.509-0.036-0.757-0.106c-0.249-0.071-0.469-0.18-0.662-0.325
		c-0.192-0.146-0.347-0.326-0.464-0.539s-0.176-0.462-0.176-0.747v-0.021c0-0.299,0.057-0.56,0.17-0.784s0.275-0.411,0.485-0.56
		s0.459-0.263,0.747-0.341c0.288-0.078,0.606-0.117,0.955-0.117c0.355,0,0.663,0.021,0.922,0.064c0.26,0.042,0.514,0.1,0.763,0.17
		v-0.169c0-0.487-0.142-0.856-0.427-1.107c-0.284-0.251-0.686-0.376-1.205-0.376c-0.327,0-0.624,0.036-0.891,0.107
		c-0.267,0.071-0.528,0.167-0.784,0.288l-0.245-0.676c0.306-0.144,0.615-0.259,0.928-0.346c0.313-0.086,0.672-0.13,1.078-0.13
		c0.782,0,1.376,0.203,1.781,0.608c0.384,0.384,0.576,0.925,0.576,1.622v3.371h-0.811v-0.821c-0.192,0.249-0.45,0.468-0.773,0.656
		C153.776,72.813,153.373,72.907,152.89,72.907z M153.056,72.235c0.255,0,0.493-0.035,0.712-0.106s0.413-0.172,0.58-0.303
		c0.166-0.131,0.297-0.287,0.393-0.467c0.096-0.18,0.144-0.38,0.144-0.6v-0.51c-0.206-0.056-0.439-0.109-0.702-0.159
		c-0.262-0.049-0.563-0.074-0.904-0.074c-0.51,0-0.905,0.101-1.186,0.303c-0.28,0.202-0.419,0.469-0.419,0.801v0.021
		c0,0.17,0.037,0.324,0.111,0.461c0.074,0.138,0.175,0.253,0.303,0.345c0.127,0.092,0.274,0.163,0.441,0.212
		S152.871,72.235,153.056,72.235z"/>
	<path d="M159.738,72.907c-0.334,0-0.658-0.064-0.971-0.192s-0.594-0.314-0.843-0.56c-0.249-0.245-0.448-0.544-0.597-0.896
		s-0.224-0.755-0.224-1.21v-0.021c0-0.448,0.075-0.85,0.224-1.205c0.149-0.356,0.348-0.656,0.597-0.901
		c0.249-0.246,0.53-0.434,0.843-0.565s0.636-0.197,0.971-0.197c0.256,0,0.491,0.032,0.704,0.096s0.405,0.149,0.576,0.256
		c0.17,0.106,0.325,0.231,0.464,0.373c0.139,0.143,0.261,0.292,0.368,0.448v-3.328h0.822v7.787h-0.822V71.68
		c-0.114,0.164-0.24,0.32-0.378,0.469s-0.293,0.281-0.464,0.395c-0.171,0.114-0.361,0.203-0.571,0.267
		C160.227,72.875,159.994,72.907,159.738,72.907z M159.887,72.171c0.256,0,0.503-0.051,0.741-0.155
		c0.238-0.103,0.452-0.249,0.64-0.437s0.337-0.413,0.448-0.672c0.11-0.259,0.166-0.549,0.166-0.869v-0.021
		c0-0.32-0.055-0.609-0.166-0.869s-0.259-0.482-0.448-0.667c-0.188-0.185-0.402-0.329-0.64-0.432s-0.485-0.155-0.741-0.155
		c-0.271,0-0.522,0.048-0.757,0.144s-0.439,0.235-0.613,0.416s-0.313,0.404-0.416,0.667c-0.103,0.263-0.155,0.562-0.155,0.896v0.021
		c0,0.327,0.052,0.622,0.155,0.885s0.244,0.487,0.421,0.672c0.178,0.185,0.384,0.327,0.619,0.427
		C159.375,72.121,159.624,72.171,159.887,72.171z"/>
	<path d="M164.996,70.368c0.028,0.292,0.099,0.551,0.213,0.779s0.26,0.419,0.438,0.576c0.178,0.157,0.377,0.276,0.597,0.357
		c0.221,0.082,0.452,0.123,0.693,0.123c0.384,0,0.713-0.071,0.987-0.213c0.274-0.143,0.524-0.331,0.752-0.565l0.512,0.458
		c-0.277,0.313-0.594,0.564-0.949,0.752c-0.356,0.188-0.797,0.283-1.323,0.283c-0.377,0-0.732-0.069-1.067-0.208
		s-0.626-0.334-0.875-0.586c-0.249-0.252-0.446-0.557-0.592-0.912c-0.146-0.355-0.218-0.747-0.218-1.173
		c0-0.398,0.065-0.773,0.197-1.125c0.131-0.352,0.314-0.658,0.549-0.917c0.234-0.26,0.514-0.464,0.837-0.614
		c0.323-0.149,0.677-0.224,1.061-0.224c0.405,0,0.768,0.076,1.088,0.229c0.32,0.153,0.59,0.361,0.811,0.624
		c0.22,0.263,0.387,0.573,0.501,0.928s0.171,0.736,0.171,1.141c0,0.036,0,0.077,0,0.123c0,0.046-0.004,0.101-0.011,0.165H164.996z
		 M168.548,69.696c-0.021-0.248-0.075-0.482-0.16-0.705c-0.085-0.223-0.201-0.419-0.347-0.589c-0.146-0.169-0.323-0.304-0.533-0.403
		s-0.45-0.148-0.72-0.148c-0.235,0-0.456,0.046-0.662,0.138s-0.388,0.221-0.544,0.387s-0.286,0.362-0.389,0.588
		c-0.104,0.227-0.169,0.47-0.197,0.732H168.548z"/>
	<path d="M170.82,67.275h0.821v1.44c0.1-0.228,0.224-0.438,0.373-0.629c0.149-0.192,0.32-0.357,0.512-0.496s0.402-0.243,0.629-0.314
		c0.228-0.071,0.473-0.103,0.736-0.096v0.886h-0.064c-0.299,0-0.582,0.053-0.848,0.16c-0.267,0.107-0.5,0.267-0.699,0.48
		c-0.199,0.213-0.355,0.479-0.469,0.795s-0.17,0.681-0.17,1.093v2.197h-0.821V67.275z"/>
	<path d="M176.964,72.896c-0.398,0-0.8-0.073-1.205-0.218c-0.405-0.146-0.765-0.343-1.078-0.592l0.416-0.586
		c0.299,0.228,0.61,0.402,0.934,0.522c0.323,0.121,0.649,0.182,0.976,0.182c0.334,0,0.608-0.079,0.821-0.235s0.32-0.37,0.32-0.64
		v-0.021c0-0.135-0.037-0.252-0.112-0.352s-0.176-0.187-0.304-0.262s-0.275-0.14-0.442-0.197c-0.167-0.057-0.34-0.11-0.518-0.16
		c-0.213-0.064-0.429-0.133-0.646-0.208s-0.412-0.169-0.586-0.283s-0.316-0.256-0.427-0.427c-0.11-0.171-0.166-0.384-0.166-0.64
		v-0.021c0-0.234,0.046-0.449,0.139-0.645c0.093-0.196,0.222-0.363,0.39-0.501c0.167-0.139,0.366-0.245,0.597-0.32
		s0.482-0.112,0.752-0.112c0.341,0,0.687,0.055,1.035,0.166c0.349,0.11,0.665,0.258,0.949,0.443l-0.373,0.619
		c-0.256-0.164-0.524-0.293-0.805-0.39c-0.281-0.096-0.557-0.144-0.827-0.144c-0.327,0-0.587,0.077-0.779,0.229
		s-0.288,0.343-0.288,0.571v0.021c0,0.128,0.039,0.24,0.117,0.336c0.078,0.096,0.183,0.179,0.315,0.25
		c0.131,0.071,0.283,0.135,0.453,0.192c0.171,0.057,0.349,0.114,0.533,0.171c0.213,0.064,0.425,0.135,0.635,0.213
		c0.21,0.078,0.4,0.178,0.571,0.298c0.17,0.121,0.308,0.267,0.411,0.438c0.103,0.17,0.155,0.38,0.155,0.629v0.021
		c0,0.263-0.052,0.496-0.155,0.699s-0.242,0.375-0.416,0.518s-0.38,0.25-0.619,0.325S177.241,72.896,176.964,72.896z"/>
	<path d="M180.452,65.003h0.821v3.232c0.185-0.299,0.427-0.553,0.725-0.763c0.299-0.209,0.687-0.314,1.163-0.314
		c0.334,0,0.631,0.053,0.891,0.16c0.26,0.107,0.48,0.258,0.662,0.454s0.32,0.428,0.416,0.699c0.096,0.27,0.144,0.569,0.144,0.896
		v3.424h-0.821v-3.214c0-0.511-0.132-0.916-0.395-1.213s-0.64-0.447-1.13-0.447c-0.235,0-0.454,0.041-0.656,0.123
		c-0.203,0.082-0.378,0.198-0.528,0.351c-0.149,0.152-0.265,0.335-0.347,0.548c-0.082,0.213-0.123,0.447-0.123,0.703v3.15h-0.821
		V65.003z"/>
	<path d="M187.043,65.163h0.939v0.906h-0.939V65.163z M187.097,67.275h0.821v5.515h-0.821V67.275z"/>
	<path d="M189.828,67.275h0.821v1.109c0.114-0.164,0.24-0.32,0.378-0.469s0.293-0.279,0.464-0.39c0.17-0.11,0.361-0.199,0.57-0.267
		c0.21-0.067,0.443-0.101,0.699-0.101c0.327,0,0.649,0.064,0.965,0.192s0.599,0.314,0.848,0.56c0.249,0.245,0.448,0.544,0.597,0.896
		s0.224,0.755,0.224,1.21v0.021c0,0.448-0.075,0.85-0.224,1.205c-0.149,0.356-0.347,0.656-0.592,0.901
		c-0.246,0.246-0.526,0.434-0.843,0.565s-0.642,0.197-0.976,0.197c-0.256,0-0.491-0.032-0.704-0.096s-0.405-0.149-0.576-0.256
		c-0.171-0.106-0.326-0.231-0.464-0.373s-0.261-0.292-0.368-0.448v2.763h-0.821V67.275z M192.611,72.171
		c0.263,0,0.514-0.048,0.752-0.144s0.444-0.235,0.619-0.416s0.313-0.403,0.416-0.667s0.155-0.562,0.155-0.896v-0.021
		c0-0.327-0.052-0.622-0.155-0.885s-0.244-0.487-0.421-0.672c-0.178-0.185-0.384-0.327-0.619-0.427
		c-0.234-0.1-0.483-0.149-0.747-0.149c-0.256,0-0.503,0.052-0.741,0.155s-0.452,0.249-0.64,0.437
		c-0.188,0.188-0.338,0.413-0.448,0.672c-0.11,0.259-0.166,0.546-0.166,0.858v0.021c0,0.32,0.055,0.612,0.166,0.875
		c0.11,0.263,0.259,0.487,0.448,0.672c0.188,0.185,0.402,0.329,0.64,0.432C192.108,72.12,192.355,72.171,192.611,72.171z"/>
	<path d="M200.11,67.275h0.821v1.109c0.114-0.164,0.24-0.32,0.378-0.469s0.293-0.279,0.464-0.39c0.17-0.11,0.361-0.199,0.57-0.267
		c0.21-0.067,0.443-0.101,0.699-0.101c0.327,0,0.649,0.064,0.965,0.192s0.599,0.314,0.848,0.56c0.249,0.245,0.448,0.544,0.597,0.896
		s0.224,0.755,0.224,1.21v0.021c0,0.448-0.075,0.85-0.224,1.205c-0.149,0.356-0.347,0.656-0.592,0.901
		c-0.246,0.246-0.526,0.434-0.843,0.565s-0.642,0.197-0.976,0.197c-0.256,0-0.491-0.032-0.704-0.096s-0.405-0.149-0.576-0.256
		c-0.171-0.106-0.326-0.231-0.464-0.373s-0.261-0.292-0.368-0.448v2.763h-0.821V67.275z M202.894,72.171
		c0.263,0,0.514-0.048,0.752-0.144s0.444-0.235,0.619-0.416s0.313-0.403,0.416-0.667s0.155-0.562,0.155-0.896v-0.021
		c0-0.327-0.052-0.622-0.155-0.885s-0.244-0.487-0.421-0.672c-0.178-0.185-0.384-0.327-0.619-0.427
		c-0.234-0.1-0.483-0.149-0.747-0.149c-0.256,0-0.503,0.052-0.741,0.155s-0.452,0.249-0.64,0.437
		c-0.188,0.188-0.338,0.413-0.448,0.672c-0.11,0.259-0.166,0.546-0.166,0.858v0.021c0,0.32,0.055,0.612,0.166,0.875
		c0.11,0.263,0.259,0.487,0.448,0.672c0.188,0.185,0.402,0.329,0.64,0.432C202.391,72.12,202.638,72.171,202.894,72.171z"/>
	<path d="M209.709,72.917c-0.413,0-0.793-0.077-1.141-0.229c-0.349-0.153-0.651-0.359-0.907-0.619
		c-0.256-0.259-0.455-0.562-0.597-0.906c-0.143-0.345-0.213-0.713-0.213-1.104v-0.021c0-0.391,0.071-0.761,0.213-1.109
		c0.142-0.348,0.341-0.654,0.597-0.917c0.256-0.263,0.56-0.471,0.912-0.624c0.352-0.153,0.737-0.229,1.157-0.229
		c0.412,0,0.794,0.076,1.146,0.229c0.352,0.153,0.656,0.359,0.912,0.619c0.256,0.26,0.455,0.562,0.597,0.907
		c0.143,0.345,0.213,0.713,0.213,1.104v0.021c0,0.391-0.073,0.761-0.219,1.109c-0.146,0.349-0.347,0.654-0.603,0.917
		c-0.256,0.263-0.562,0.471-0.917,0.624C210.506,72.841,210.122,72.917,209.709,72.917z M209.731,72.182
		c0.299,0,0.572-0.057,0.821-0.171c0.249-0.113,0.462-0.267,0.64-0.458c0.178-0.192,0.316-0.416,0.416-0.672
		c0.099-0.256,0.149-0.53,0.149-0.821v-0.021c0-0.299-0.051-0.578-0.154-0.837c-0.104-0.259-0.247-0.487-0.432-0.683
		c-0.185-0.195-0.402-0.35-0.651-0.464s-0.519-0.171-0.811-0.171c-0.298,0-0.572,0.057-0.821,0.171s-0.46,0.267-0.635,0.458
		s-0.311,0.418-0.411,0.677c-0.1,0.26-0.149,0.535-0.149,0.827v0.021c0,0.299,0.052,0.578,0.155,0.837s0.246,0.485,0.427,0.677
		s0.396,0.345,0.646,0.458C209.169,72.125,209.439,72.182,209.731,72.182z"/>
	<path d="M215.907,72.896c-0.398,0-0.8-0.073-1.205-0.218c-0.405-0.146-0.765-0.343-1.078-0.592l0.416-0.586
		c0.299,0.228,0.61,0.402,0.934,0.522c0.323,0.121,0.649,0.182,0.976,0.182c0.334,0,0.608-0.079,0.821-0.235s0.32-0.37,0.32-0.64
		v-0.021c0-0.135-0.037-0.252-0.112-0.352s-0.176-0.187-0.304-0.262s-0.275-0.14-0.442-0.197c-0.167-0.057-0.34-0.11-0.518-0.16
		c-0.213-0.064-0.429-0.133-0.646-0.208s-0.412-0.169-0.586-0.283s-0.316-0.256-0.427-0.427c-0.11-0.171-0.166-0.384-0.166-0.64
		v-0.021c0-0.234,0.046-0.449,0.139-0.645c0.093-0.196,0.222-0.363,0.39-0.501c0.167-0.139,0.366-0.245,0.597-0.32
		s0.482-0.112,0.752-0.112c0.341,0,0.687,0.055,1.035,0.166c0.349,0.11,0.665,0.258,0.949,0.443l-0.373,0.619
		c-0.256-0.164-0.524-0.293-0.805-0.39c-0.281-0.096-0.557-0.144-0.827-0.144c-0.327,0-0.587,0.077-0.779,0.229
		s-0.288,0.343-0.288,0.571v0.021c0,0.128,0.039,0.24,0.117,0.336c0.078,0.096,0.183,0.179,0.315,0.25
		c0.131,0.071,0.283,0.135,0.453,0.192c0.171,0.057,0.349,0.114,0.533,0.171c0.213,0.064,0.425,0.135,0.635,0.213
		c0.21,0.078,0.4,0.178,0.571,0.298c0.17,0.121,0.308,0.267,0.411,0.438c0.103,0.17,0.155,0.38,0.155,0.629v0.021
		c0,0.263-0.052,0.496-0.155,0.699s-0.242,0.375-0.416,0.518s-0.38,0.25-0.619,0.325S216.184,72.896,215.907,72.896z"/>
	<path d="M219.416,65.163h0.939v0.906h-0.939V65.163z M219.47,67.275h0.821v5.515h-0.821V67.275z"/>
	<path d="M224.045,72.886c-0.221,0-0.427-0.029-0.619-0.085c-0.192-0.057-0.357-0.147-0.496-0.272s-0.247-0.286-0.325-0.485
		c-0.079-0.199-0.117-0.438-0.117-0.715V68h-0.768v-0.725h0.768v-1.664h0.821v1.664h1.749V68h-1.749v3.213
		c0,0.34,0.085,0.578,0.256,0.713c0.17,0.135,0.395,0.202,0.672,0.202c0.142,0,0.275-0.014,0.4-0.041s0.258-0.074,0.4-0.141v0.704
		c-0.143,0.078-0.293,0.137-0.454,0.176C224.424,72.866,224.244,72.886,224.045,72.886z"/>
	<path d="M226.53,65.163h0.939v0.906h-0.939V65.163z M226.584,67.275h0.821v5.515h-0.821V67.275z"/>
	<path d="M231.832,72.917c-0.413,0-0.793-0.077-1.141-0.229c-0.349-0.153-0.651-0.359-0.907-0.619
		c-0.256-0.259-0.455-0.562-0.597-0.906c-0.143-0.345-0.213-0.713-0.213-1.104v-0.021c0-0.391,0.071-0.761,0.213-1.109
		c0.142-0.348,0.341-0.654,0.597-0.917c0.256-0.263,0.56-0.471,0.912-0.624c0.352-0.153,0.737-0.229,1.157-0.229
		c0.412,0,0.794,0.076,1.146,0.229c0.352,0.153,0.656,0.359,0.912,0.619c0.256,0.26,0.455,0.562,0.597,0.907
		c0.143,0.345,0.213,0.713,0.213,1.104v0.021c0,0.391-0.073,0.761-0.219,1.109c-0.146,0.349-0.347,0.654-0.603,0.917
		c-0.256,0.263-0.562,0.471-0.917,0.624C232.628,72.841,232.244,72.917,231.832,72.917z M231.853,72.182
		c0.299,0,0.572-0.057,0.821-0.171c0.249-0.113,0.462-0.267,0.64-0.458c0.178-0.192,0.316-0.416,0.416-0.672
		c0.099-0.256,0.149-0.53,0.149-0.821v-0.021c0-0.299-0.051-0.578-0.154-0.837c-0.104-0.259-0.247-0.487-0.432-0.683
		c-0.185-0.195-0.402-0.35-0.651-0.464s-0.519-0.171-0.811-0.171c-0.298,0-0.572,0.057-0.821,0.171s-0.46,0.267-0.635,0.458
		s-0.311,0.418-0.411,0.677c-0.1,0.26-0.149,0.535-0.149,0.827v0.021c0,0.299,0.052,0.578,0.155,0.837s0.246,0.485,0.427,0.677
		s0.396,0.345,0.646,0.458C231.291,72.125,231.562,72.182,231.853,72.182z"/>
	<path d="M236.205,67.275h0.821v0.96c0.185-0.299,0.427-0.553,0.725-0.763c0.299-0.209,0.687-0.314,1.163-0.314
		c0.334,0,0.631,0.053,0.891,0.16c0.26,0.107,0.48,0.258,0.662,0.454s0.32,0.428,0.416,0.699c0.096,0.27,0.144,0.569,0.144,0.896
		v3.424h-0.821v-3.214c0-0.511-0.132-0.916-0.395-1.213s-0.64-0.447-1.13-0.447c-0.235,0-0.454,0.041-0.656,0.123
		c-0.203,0.082-0.378,0.198-0.528,0.351c-0.149,0.152-0.265,0.335-0.347,0.548c-0.082,0.213-0.123,0.447-0.123,0.703v3.15h-0.821
		V67.275z"/>
</g>
<rect x="267.064" y="42.382" fill="#E4E5E6" width="130.885" height="80.463"/>
<rect x="401.066" y="42.301" fill="#C7C8CA" width="130.281" height="80.464"/>
<rect x="267.064" y="0.373" fill="#F79421" width="130.885" height="38.9"/>
<rect x="401.066" y="0.187" fill="#58595B" width="130.281" height="38.901"/>
<g>
	<path fill="#F9FDFE" d="M275.886,17.599c-0.483-0.172-0.9-0.416-1.25-0.732c-0.35-0.316-0.622-0.7-0.817-1.152
		c-0.194-0.452-0.292-0.958-0.292-1.518c0-0.672,0.134-1.31,0.399-1.914c0.267-0.604,0.629-1.138,1.086-1.602
		c0.458-0.464,0.997-0.832,1.617-1.104c0.619-0.272,1.285-0.408,1.998-0.408c0.808,0,1.485,0.16,2.033,0.48
		c0.549,0.32,0.99,0.756,1.326,1.308l-1.523,1.068c-0.248-0.352-0.528-0.632-0.84-0.84c-0.313-0.208-0.721-0.312-1.225-0.312
		c-0.384,0-0.754,0.086-1.109,0.258c-0.356,0.172-0.673,0.404-0.948,0.696c-0.276,0.292-0.496,0.636-0.66,1.032
		s-0.246,0.818-0.246,1.266c0,0.304,0.05,0.58,0.15,0.828c0.1,0.248,0.241,0.462,0.426,0.642c0.184,0.18,0.399,0.318,0.647,0.414
		c0.248,0.096,0.524,0.144,0.828,0.144c0.408,0,0.76-0.074,1.057-0.222c0.296-0.148,0.6-0.35,0.912-0.606l1.199,1.248
		c-0.407,0.376-0.863,0.684-1.367,0.924c-0.505,0.24-1.108,0.36-1.813,0.36C276.898,17.856,276.369,17.771,275.886,17.599z"/>
	<path fill="#F9FDFE" d="M283.727,8.953h1.824l-0.792,2.994c0.231-0.207,0.492-0.389,0.779-0.548
		c0.288-0.159,0.612-0.238,0.973-0.238c0.576,0,1.036,0.166,1.38,0.498c0.344,0.333,0.516,0.791,0.516,1.374
		c0,0.184-0.021,0.382-0.065,0.594s-0.095,0.422-0.15,0.63l-0.924,3.456h-1.824l0.948-3.537c0.024-0.088,0.044-0.187,0.06-0.295
		c0.017-0.108,0.024-0.202,0.024-0.283c0-0.256-0.078-0.453-0.234-0.589c-0.155-0.136-0.374-0.205-0.653-0.205
		c-0.36,0-0.656,0.119-0.889,0.355c-0.231,0.237-0.399,0.547-0.504,0.933l-0.972,3.621h-1.824L283.727,8.953z"/>
	<path fill="#F9FDFE" d="M290.093,17.707c-0.229-0.084-0.425-0.204-0.588-0.36c-0.164-0.156-0.293-0.338-0.385-0.546
		s-0.138-0.44-0.138-0.696c0-0.368,0.072-0.696,0.216-0.984c0.145-0.288,0.34-0.532,0.588-0.732c0.248-0.2,0.54-0.35,0.876-0.45
		s0.7-0.15,1.093-0.15c0.352,0,0.674,0.026,0.966,0.078c0.292,0.052,0.573,0.122,0.846,0.21l0.024-0.084
		c0.016-0.072,0.031-0.146,0.048-0.222c0.016-0.076,0.023-0.162,0.023-0.258c0-0.224-0.088-0.406-0.264-0.546
		c-0.176-0.14-0.492-0.21-0.948-0.21c-0.312,0-0.618,0.034-0.918,0.102s-0.565,0.15-0.798,0.246l-0.288-1.44
		c0.336-0.136,0.704-0.246,1.104-0.33c0.399-0.084,0.828-0.126,1.283-0.126c0.872,0,1.524,0.172,1.956,0.516
		c0.433,0.344,0.648,0.832,0.648,1.464c0,0.168-0.014,0.332-0.042,0.492c-0.028,0.16-0.063,0.32-0.103,0.48l-0.947,3.552h-1.765
		l0.192-0.744c-0.256,0.28-0.544,0.494-0.864,0.642c-0.319,0.148-0.672,0.222-1.056,0.222
		C290.574,17.833,290.32,17.791,290.093,17.707z M292.181,16.482c0.172-0.068,0.33-0.162,0.474-0.282
		c0.145-0.12,0.269-0.258,0.372-0.414c0.104-0.156,0.18-0.322,0.229-0.498l0.048-0.168c-0.16-0.064-0.345-0.118-0.553-0.162
		s-0.424-0.066-0.647-0.066c-0.384,0-0.698,0.09-0.942,0.27c-0.244,0.18-0.366,0.426-0.366,0.738c0,0.2,0.076,0.364,0.229,0.492
		c0.151,0.128,0.355,0.192,0.612,0.192C291.826,16.584,292.009,16.55,292.181,16.482z"/>
	<path fill="#F9FDFE" d="M297.634,11.28h1.824l-0.18,0.667c0.231-0.207,0.492-0.389,0.779-0.548
		c0.288-0.159,0.612-0.238,0.973-0.238c0.576,0,1.036,0.166,1.38,0.498c0.344,0.333,0.516,0.791,0.516,1.374
		c0,0.184-0.021,0.382-0.065,0.594s-0.095,0.422-0.15,0.63l-0.924,3.456h-1.824l0.948-3.537c0.024-0.088,0.044-0.187,0.06-0.295
		c0.017-0.108,0.024-0.202,0.024-0.283c0-0.256-0.078-0.453-0.234-0.589c-0.155-0.136-0.374-0.205-0.653-0.205
		c-0.36,0-0.656,0.119-0.889,0.355c-0.231,0.237-0.399,0.547-0.504,0.933l-0.972,3.621h-1.824L297.634,11.28z"/>
	<path fill="#F9FDFE" d="M305.062,11.28h1.824l-0.18,0.667c0.231-0.207,0.492-0.389,0.779-0.548
		c0.288-0.159,0.612-0.238,0.973-0.238c0.576,0,1.036,0.166,1.38,0.498c0.344,0.333,0.516,0.791,0.516,1.374
		c0,0.184-0.021,0.382-0.065,0.594s-0.095,0.422-0.15,0.63l-0.924,3.456h-1.824l0.948-3.537c0.024-0.088,0.044-0.187,0.06-0.295
		c0.017-0.108,0.024-0.202,0.024-0.283c0-0.256-0.078-0.453-0.234-0.589c-0.155-0.136-0.374-0.205-0.653-0.205
		c-0.36,0-0.656,0.119-0.889,0.355c-0.231,0.237-0.399,0.547-0.504,0.933l-0.972,3.621h-1.824L305.062,11.28z"/>
	<path fill="#F9FDFE" d="M313.414,16.05c0.232,0.228,0.589,0.342,1.068,0.342c0.24,0,0.472-0.04,0.696-0.12
		c0.224-0.08,0.468-0.212,0.731-0.396l0.841,1.128c-0.288,0.24-0.635,0.442-1.038,0.606c-0.404,0.164-0.883,0.246-1.435,0.246
		c-0.464,0-0.88-0.066-1.248-0.198c-0.368-0.132-0.68-0.32-0.936-0.564c-0.256-0.244-0.452-0.542-0.588-0.894
		c-0.137-0.352-0.204-0.751-0.204-1.2c0-0.464,0.09-0.926,0.27-1.386c0.181-0.46,0.438-0.872,0.774-1.236
		c0.336-0.364,0.738-0.658,1.206-0.882s0.99-0.336,1.565-0.336c0.416,0,0.788,0.064,1.116,0.192s0.604,0.304,0.828,0.528
		c0.224,0.224,0.394,0.488,0.51,0.792c0.116,0.304,0.174,0.636,0.174,0.996c0,0.232-0.027,0.472-0.084,0.72
		c-0.056,0.248-0.136,0.497-0.239,0.744h-4.404C313.051,15.517,313.183,15.822,313.414,16.05z M315.971,13.992
		c0.04-0.136,0.06-0.276,0.06-0.42c0-0.264-0.082-0.488-0.246-0.672s-0.434-0.276-0.81-0.276c-0.416,0-0.782,0.126-1.098,0.378
		c-0.316,0.252-0.551,0.582-0.702,0.99H315.971z"/>
	<path fill="#F9FDFE" d="M320.481,8.953h1.824l-2.352,8.76h-1.824L320.481,8.953z"/>
</g>
<g>
	<path fill="#F9FDFE" d="M409.151,9.121h1.92l1.212,3.552l3.132-3.552h2.136l-2.256,8.4h-1.872l1.464-5.484l-3.288,3.588h-0.048
		l-1.344-3.552l-1.464,5.448h-1.849L409.151,9.121z"/>
	<path fill="#F9FDFE" d="M418.361,17.515c-0.229-0.084-0.425-0.204-0.588-0.36c-0.164-0.156-0.293-0.338-0.385-0.546
		s-0.138-0.44-0.138-0.696c0-0.368,0.072-0.696,0.216-0.984c0.145-0.288,0.34-0.532,0.588-0.732c0.248-0.2,0.54-0.35,0.876-0.45
		s0.7-0.15,1.093-0.15c0.352,0,0.674,0.026,0.966,0.078c0.292,0.052,0.573,0.122,0.846,0.21l0.024-0.084
		c0.016-0.072,0.031-0.146,0.048-0.222c0.016-0.076,0.023-0.162,0.023-0.258c0-0.224-0.088-0.406-0.264-0.546
		c-0.176-0.14-0.492-0.21-0.948-0.21c-0.312,0-0.618,0.034-0.918,0.102s-0.565,0.15-0.798,0.246l-0.288-1.44
		c0.336-0.136,0.704-0.246,1.104-0.33c0.399-0.084,0.828-0.126,1.283-0.126c0.872,0,1.524,0.172,1.956,0.516
		c0.433,0.344,0.648,0.832,0.648,1.464c0,0.168-0.014,0.332-0.042,0.492c-0.028,0.16-0.063,0.32-0.103,0.48l-0.947,3.552h-1.765
		l0.192-0.744c-0.256,0.28-0.544,0.494-0.864,0.642c-0.319,0.148-0.672,0.222-1.056,0.222
		C418.843,17.641,418.589,17.599,418.361,17.515z M420.449,16.291c0.172-0.068,0.33-0.162,0.474-0.282
		c0.145-0.12,0.269-0.258,0.372-0.414c0.104-0.156,0.18-0.322,0.229-0.498l0.048-0.168c-0.16-0.064-0.345-0.118-0.553-0.162
		s-0.424-0.066-0.647-0.066c-0.384,0-0.698,0.09-0.942,0.27c-0.244,0.18-0.366,0.426-0.366,0.738c0,0.2,0.076,0.364,0.229,0.492
		c0.151,0.128,0.355,0.192,0.612,0.192C420.095,16.393,420.277,16.359,420.449,16.291z"/>
	<path fill="#F9FDFE" d="M425.291,17.268c-0.272-0.24-0.408-0.541-0.408-0.902c0-0.137,0.01-0.269,0.03-0.397
		c0.02-0.128,0.05-0.265,0.09-0.409l0.779-2.923h-0.768l0.42-1.548h0.769l0.443-1.644h1.824l-0.444,1.644h1.513l-0.421,1.548h-1.512
		l-0.72,2.71c-0.017,0.048-0.028,0.099-0.036,0.151c-0.008,0.052-0.012,0.098-0.012,0.138c0,0.256,0.164,0.385,0.492,0.385
		c0.144,0,0.298-0.018,0.462-0.054c0.163-0.036,0.321-0.085,0.474-0.15l-0.42,1.548c-0.376,0.176-0.816,0.264-1.32,0.264
		C425.975,17.629,425.563,17.509,425.291,17.268z"/>
	<path fill="#F9FDFE" d="M431.807,15.859c0.232,0.228,0.589,0.342,1.068,0.342c0.24,0,0.472-0.04,0.696-0.12
		c0.224-0.08,0.468-0.212,0.731-0.396l0.841,1.128c-0.288,0.24-0.635,0.442-1.038,0.606c-0.404,0.164-0.883,0.246-1.435,0.246
		c-0.464,0-0.88-0.066-1.248-0.198c-0.368-0.132-0.68-0.32-0.936-0.564c-0.256-0.244-0.452-0.542-0.588-0.894
		c-0.137-0.352-0.204-0.751-0.204-1.2c0-0.464,0.09-0.926,0.27-1.386c0.181-0.46,0.438-0.872,0.774-1.236
		c0.336-0.364,0.738-0.658,1.206-0.882s0.99-0.336,1.565-0.336c0.416,0,0.788,0.064,1.116,0.192s0.604,0.304,0.828,0.528
		c0.224,0.224,0.394,0.488,0.51,0.792c0.116,0.304,0.174,0.636,0.174,0.996c0,0.232-0.027,0.472-0.084,0.72
		c-0.056,0.248-0.136,0.497-0.239,0.744h-4.404C431.443,15.325,431.575,15.631,431.807,15.859z M434.363,13.801
		c0.04-0.136,0.06-0.276,0.06-0.42c0-0.264-0.082-0.488-0.246-0.672s-0.434-0.276-0.81-0.276c-0.416,0-0.782,0.126-1.098,0.378
		c-0.316,0.252-0.551,0.582-0.702,0.99H434.363z"/>
	<path fill="#F9FDFE" d="M438.166,11.089h1.824l-0.348,1.296c0.328-0.48,0.686-0.846,1.074-1.098
		c0.388-0.252,0.846-0.358,1.373-0.318l-0.516,1.908h-0.096c-0.608,0-1.137,0.184-1.584,0.552c-0.448,0.368-0.784,0.972-1.008,1.812
		l-0.612,2.28h-1.824L438.166,11.089z"/>
	<path fill="#F9FDFE" d="M443.278,11.089h1.824l-1.728,6.432h-1.824L443.278,11.089z M443.866,8.761h1.921l-0.444,1.62h-1.92
		L443.866,8.761z"/>
	<path fill="#F9FDFE" d="M446.333,17.515c-0.229-0.084-0.425-0.204-0.588-0.36c-0.164-0.156-0.293-0.338-0.385-0.546
		s-0.138-0.44-0.138-0.696c0-0.368,0.072-0.696,0.216-0.984c0.145-0.288,0.34-0.532,0.588-0.732c0.248-0.2,0.54-0.35,0.876-0.45
		s0.7-0.15,1.093-0.15c0.352,0,0.674,0.026,0.966,0.078c0.292,0.052,0.573,0.122,0.846,0.21l0.024-0.084
		c0.016-0.072,0.031-0.146,0.048-0.222c0.016-0.076,0.023-0.162,0.023-0.258c0-0.224-0.088-0.406-0.264-0.546
		c-0.176-0.14-0.492-0.21-0.948-0.21c-0.312,0-0.618,0.034-0.918,0.102s-0.565,0.15-0.798,0.246l-0.288-1.44
		c0.336-0.136,0.704-0.246,1.104-0.33c0.399-0.084,0.828-0.126,1.283-0.126c0.872,0,1.524,0.172,1.956,0.516
		c0.433,0.344,0.648,0.832,0.648,1.464c0,0.168-0.014,0.332-0.042,0.492c-0.028,0.16-0.063,0.32-0.103,0.48l-0.947,3.552h-1.765
		l0.192-0.744c-0.256,0.28-0.544,0.494-0.864,0.642c-0.319,0.148-0.672,0.222-1.056,0.222
		C446.814,17.641,446.561,17.599,446.333,17.515z M448.421,16.291c0.172-0.068,0.33-0.162,0.474-0.282
		c0.145-0.12,0.269-0.258,0.372-0.414c0.104-0.156,0.18-0.322,0.229-0.498l0.048-0.168c-0.16-0.064-0.345-0.118-0.553-0.162
		s-0.424-0.066-0.647-0.066c-0.384,0-0.698,0.09-0.942,0.27c-0.244,0.18-0.366,0.426-0.366,0.738c0,0.2,0.076,0.364,0.229,0.492
		c0.151,0.128,0.355,0.192,0.612,0.192C448.066,16.393,448.249,16.359,448.421,16.291z"/>
	<path fill="#F9FDFE" d="M454.582,8.761h1.824l-2.352,8.76h-1.824L454.582,8.761z"/>
	<path fill="#F9FDFE" d="M457.666,17.593c-0.264-0.048-0.521-0.12-0.773-0.216s-0.494-0.216-0.727-0.36
		c-0.231-0.144-0.443-0.316-0.636-0.516l1.056-1.092c0.336,0.336,0.677,0.564,1.021,0.684c0.344,0.12,0.66,0.18,0.948,0.18
		c0.239,0,0.428-0.048,0.563-0.144c0.136-0.096,0.204-0.236,0.204-0.42c0-0.12-0.068-0.226-0.204-0.318s-0.316-0.186-0.54-0.282
		c-0.256-0.104-0.496-0.214-0.72-0.33c-0.224-0.116-0.422-0.246-0.594-0.39c-0.173-0.144-0.309-0.31-0.408-0.498
		c-0.101-0.188-0.15-0.41-0.15-0.666c0-0.32,0.061-0.618,0.181-0.894s0.289-0.514,0.51-0.714c0.22-0.2,0.49-0.358,0.81-0.474
		c0.32-0.116,0.68-0.174,1.08-0.174c0.265,0,0.519,0.026,0.763,0.078c0.243,0.052,0.476,0.122,0.695,0.21
		c0.22,0.088,0.42,0.186,0.601,0.294c0.18,0.108,0.338,0.222,0.474,0.342l-0.984,1.152c-0.312-0.248-0.604-0.424-0.876-0.528
		c-0.271-0.104-0.54-0.156-0.804-0.156c-0.224,0-0.398,0.048-0.521,0.144c-0.125,0.096-0.187,0.228-0.187,0.396
		c0,0.128,0.074,0.242,0.222,0.342c0.148,0.1,0.358,0.21,0.631,0.33c0.207,0.096,0.417,0.196,0.63,0.3
		c0.212,0.104,0.401,0.228,0.569,0.372s0.305,0.31,0.408,0.498s0.156,0.406,0.156,0.654c0,0.352-0.066,0.668-0.198,0.948
		c-0.132,0.28-0.314,0.518-0.546,0.714c-0.232,0.196-0.51,0.346-0.834,0.45c-0.324,0.104-0.678,0.156-1.063,0.156
		C458.183,17.665,457.931,17.641,457.666,17.593z"/>
	<path fill="#F9FDFE" d="M467.728,17.443c-0.38-0.148-0.704-0.354-0.972-0.618c-0.268-0.264-0.474-0.578-0.618-0.942
		c-0.144-0.364-0.216-0.762-0.216-1.194c0-0.48,0.096-0.944,0.288-1.392c0.192-0.448,0.456-0.844,0.792-1.188
		c0.336-0.344,0.729-0.62,1.182-0.828s0.938-0.312,1.458-0.312c0.48,0,0.91,0.074,1.29,0.222c0.38,0.148,0.704,0.354,0.973,0.618
		c0.268,0.264,0.474,0.578,0.617,0.942c0.145,0.364,0.217,0.762,0.217,1.194c0,0.48-0.099,0.944-0.294,1.392
		c-0.196,0.448-0.462,0.844-0.799,1.188c-0.336,0.344-0.729,0.62-1.182,0.828s-0.934,0.312-1.446,0.312
		C468.538,17.665,468.107,17.591,467.728,17.443z M469.864,15.912c0.228-0.137,0.422-0.308,0.582-0.514
		c0.159-0.205,0.283-0.433,0.372-0.682c0.088-0.25,0.132-0.491,0.132-0.725c0-0.475-0.128-0.839-0.384-1.093
		c-0.257-0.253-0.593-0.38-1.009-0.38c-0.279,0-0.533,0.068-0.762,0.206c-0.228,0.137-0.422,0.308-0.582,0.513
		c-0.16,0.206-0.284,0.435-0.372,0.689c-0.088,0.253-0.132,0.493-0.132,0.718c0,0.475,0.128,0.84,0.384,1.093
		c0.256,0.254,0.592,0.381,1.008,0.381C469.382,16.117,469.636,16.048,469.864,15.912z"/>
	<path fill="#F9FDFE" d="M474.922,11.089h1.824l-0.348,1.296c0.328-0.48,0.686-0.846,1.074-1.098
		c0.388-0.252,0.846-0.358,1.373-0.318l-0.516,1.908h-0.096c-0.608,0-1.137,0.184-1.584,0.552c-0.448,0.368-0.784,0.972-1.008,1.812
		l-0.612,2.28h-1.824L474.922,11.089z"/>
	<path fill="#F9FDFE" d="M484.941,17.383c-0.473-0.188-0.876-0.45-1.212-0.786s-0.597-0.73-0.78-1.182
		c-0.185-0.452-0.276-0.942-0.276-1.47c0-0.624,0.122-1.234,0.366-1.83c0.244-0.596,0.588-1.126,1.032-1.59
		c0.443-0.464,0.976-0.838,1.596-1.122c0.62-0.284,1.306-0.426,2.059-0.426c0.575,0,1.1,0.094,1.571,0.282
		c0.473,0.188,0.876,0.45,1.212,0.786s0.597,0.73,0.78,1.182s0.276,0.942,0.276,1.47c0,0.624-0.122,1.234-0.366,1.83
		c-0.244,0.596-0.588,1.126-1.032,1.59s-0.976,0.838-1.596,1.122c-0.62,0.284-1.307,0.426-2.059,0.426
		C485.938,17.665,485.413,17.571,484.941,17.383z M487.933,15.673c0.362-0.192,0.67-0.438,0.923-0.738
		c0.253-0.3,0.45-0.638,0.591-1.014c0.141-0.376,0.211-0.744,0.211-1.104c0-0.312-0.047-0.598-0.139-0.858
		c-0.093-0.26-0.229-0.486-0.41-0.678c-0.181-0.192-0.406-0.34-0.675-0.444c-0.27-0.104-0.577-0.156-0.923-0.156
		c-0.441,0-0.844,0.096-1.205,0.288c-0.362,0.192-0.67,0.438-0.923,0.738s-0.45,0.638-0.591,1.014s-0.211,0.744-0.211,1.104
		c0,0.312,0.046,0.598,0.139,0.858s0.229,0.486,0.41,0.678c0.181,0.192,0.406,0.34,0.675,0.444c0.27,0.104,0.577,0.156,0.923,0.156
		C487.169,15.961,487.571,15.865,487.933,15.673z"/>
	<path fill="#F9FDFE" d="M492.922,17.268c-0.272-0.24-0.408-0.541-0.408-0.902c0-0.137,0.01-0.269,0.03-0.397
		c0.02-0.128,0.05-0.265,0.09-0.409l0.779-2.923h-0.768l0.42-1.548h0.769l0.443-1.644h1.824l-0.444,1.644h1.513l-0.421,1.548h-1.512
		l-0.72,2.71c-0.017,0.048-0.028,0.099-0.036,0.151c-0.008,0.052-0.012,0.098-0.012,0.138c0,0.256,0.164,0.385,0.492,0.385
		c0.144,0,0.298-0.018,0.462-0.054c0.163-0.036,0.321-0.085,0.474-0.15l-0.42,1.548c-0.376,0.176-0.816,0.264-1.32,0.264
		C493.605,17.629,493.193,17.509,492.922,17.268z"/>
	<path fill="#F9FDFE" d="M499.125,8.761h1.824l-0.792,2.994c0.231-0.207,0.492-0.389,0.779-0.548
		c0.288-0.159,0.612-0.238,0.973-0.238c0.576,0,1.036,0.166,1.38,0.498c0.344,0.333,0.516,0.791,0.516,1.374
		c0,0.184-0.021,0.382-0.065,0.594s-0.095,0.422-0.15,0.63l-0.924,3.456h-1.824l0.948-3.537c0.024-0.088,0.044-0.187,0.06-0.295
		c0.017-0.108,0.024-0.202,0.024-0.283c0-0.256-0.078-0.453-0.234-0.589c-0.155-0.136-0.374-0.205-0.653-0.205
		c-0.36,0-0.656,0.119-0.889,0.355c-0.231,0.237-0.399,0.547-0.504,0.933l-0.972,3.621h-1.824L499.125,8.761z"/>
	<path fill="#F9FDFE" d="M506.9,15.859c0.232,0.228,0.589,0.342,1.068,0.342c0.24,0,0.472-0.04,0.696-0.12
		c0.224-0.08,0.468-0.212,0.731-0.396l0.841,1.128c-0.288,0.24-0.635,0.442-1.038,0.606c-0.404,0.164-0.883,0.246-1.435,0.246
		c-0.464,0-0.88-0.066-1.248-0.198c-0.368-0.132-0.68-0.32-0.936-0.564c-0.256-0.244-0.452-0.542-0.588-0.894
		c-0.137-0.352-0.204-0.751-0.204-1.2c0-0.464,0.09-0.926,0.27-1.386c0.181-0.46,0.438-0.872,0.774-1.236
		c0.336-0.364,0.738-0.658,1.206-0.882s0.99-0.336,1.565-0.336c0.416,0,0.788,0.064,1.116,0.192s0.604,0.304,0.828,0.528
		c0.224,0.224,0.394,0.488,0.51,0.792c0.116,0.304,0.174,0.636,0.174,0.996c0,0.232-0.027,0.472-0.084,0.72
		c-0.056,0.248-0.136,0.497-0.239,0.744h-4.404C506.537,15.325,506.669,15.631,506.9,15.859z M509.457,13.801
		c0.04-0.136,0.06-0.276,0.06-0.42c0-0.264-0.082-0.488-0.246-0.672s-0.434-0.276-0.81-0.276c-0.416,0-0.782,0.126-1.098,0.378
		c-0.316,0.252-0.551,0.582-0.702,0.99H509.457z"/>
	<path fill="#F9FDFE" d="M513.261,11.089h1.824l-0.348,1.296c0.328-0.48,0.686-0.846,1.074-1.098
		c0.388-0.252,0.846-0.358,1.373-0.318l-0.516,1.908h-0.096c-0.608,0-1.137,0.184-1.584,0.552c-0.448,0.368-0.784,0.972-1.008,1.812
		l-0.612,2.28h-1.824L513.261,11.089z"/>
</g>
<g>
	<path d="M409.336,52.117h0.79l4.704,5.984v-5.984h0.821v7.467h-0.673l-4.821-6.123v6.123h-0.821V52.117z"/>
	<path d="M418.115,57.162c0.028,0.292,0.1,0.551,0.213,0.779c0.114,0.228,0.26,0.419,0.438,0.576
		c0.178,0.157,0.377,0.276,0.598,0.357c0.22,0.082,0.451,0.123,0.693,0.123c0.384,0,0.713-0.071,0.986-0.213
		c0.273-0.143,0.524-0.331,0.752-0.565l0.512,0.458c-0.277,0.313-0.594,0.564-0.949,0.752c-0.355,0.188-0.796,0.283-1.322,0.283
		c-0.377,0-0.732-0.069-1.066-0.208c-0.335-0.139-0.626-0.334-0.875-0.586s-0.446-0.557-0.592-0.912
		c-0.146-0.355-0.219-0.747-0.219-1.173c0-0.398,0.065-0.773,0.197-1.125s0.314-0.658,0.549-0.917
		c0.235-0.26,0.514-0.464,0.838-0.614c0.323-0.149,0.677-0.224,1.062-0.224c0.405,0,0.768,0.076,1.088,0.229
		c0.319,0.153,0.59,0.361,0.811,0.624c0.22,0.263,0.388,0.573,0.501,0.928c0.114,0.355,0.171,0.736,0.171,1.141
		c0,0.036,0,0.077,0,0.123c0,0.046-0.004,0.101-0.011,0.165H418.115z M421.667,56.49c-0.021-0.248-0.074-0.482-0.16-0.705
		c-0.085-0.223-0.201-0.419-0.347-0.589c-0.146-0.169-0.323-0.304-0.533-0.403s-0.45-0.148-0.72-0.148
		c-0.235,0-0.455,0.046-0.661,0.138c-0.207,0.092-0.388,0.221-0.544,0.387c-0.157,0.166-0.287,0.362-0.39,0.588
		c-0.104,0.227-0.169,0.47-0.197,0.732H421.667z"/>
	<path d="M423.214,54.069h0.874l1.451,4.427l1.482-4.448h0.683l1.493,4.448l1.451-4.427h0.854l-1.941,5.557h-0.715l-1.482-4.352
		l-1.494,4.352h-0.725L423.214,54.069z"/>
	<path d="M437.709,59.701c-0.256,0-0.508-0.036-0.757-0.106c-0.249-0.071-0.47-0.18-0.661-0.325
		c-0.192-0.146-0.347-0.326-0.464-0.539c-0.118-0.213-0.177-0.462-0.177-0.747v-0.021c0-0.299,0.058-0.56,0.171-0.784
		c0.114-0.224,0.275-0.411,0.485-0.56s0.459-0.263,0.747-0.341s0.605-0.117,0.954-0.117c0.355,0,0.663,0.021,0.923,0.064
		c0.26,0.042,0.514,0.1,0.763,0.17v-0.169c0-0.487-0.143-0.856-0.427-1.107s-0.687-0.376-1.205-0.376
		c-0.327,0-0.624,0.036-0.891,0.107c-0.267,0.071-0.528,0.167-0.784,0.288l-0.245-0.676c0.306-0.144,0.615-0.259,0.928-0.346
		c0.313-0.086,0.672-0.13,1.077-0.13c0.782,0,1.376,0.203,1.781,0.608c0.385,0.384,0.576,0.925,0.576,1.622v3.371h-0.811v-0.821
		c-0.192,0.249-0.45,0.468-0.773,0.656C438.597,59.606,438.193,59.701,437.709,59.701z M437.875,59.029
		c0.256,0,0.493-0.035,0.713-0.106s0.413-0.172,0.579-0.303c0.167-0.131,0.298-0.287,0.394-0.467c0.096-0.18,0.144-0.38,0.144-0.6
		v-0.51c-0.206-0.056-0.439-0.109-0.702-0.159c-0.262-0.049-0.563-0.074-0.903-0.074c-0.51,0-0.905,0.101-1.186,0.303
		s-0.42,0.469-0.42,0.801v0.021c0,0.17,0.037,0.324,0.112,0.461c0.074,0.138,0.175,0.253,0.303,0.345
		c0.127,0.092,0.274,0.163,0.441,0.212C437.516,59.004,437.691,59.029,437.875,59.029z"/>
	<path d="M442.242,54.069h0.821v0.96c0.186-0.299,0.427-0.553,0.726-0.763c0.299-0.209,0.687-0.314,1.163-0.314
		c0.334,0,0.631,0.053,0.891,0.16c0.259,0.107,0.479,0.258,0.661,0.454s0.32,0.428,0.416,0.699c0.096,0.27,0.144,0.569,0.144,0.896
		v3.424h-0.821v-3.214c0-0.511-0.131-0.916-0.395-1.213c-0.263-0.298-0.64-0.447-1.131-0.447c-0.234,0-0.453,0.041-0.655,0.123
		c-0.203,0.082-0.379,0.198-0.528,0.351c-0.149,0.152-0.265,0.335-0.347,0.548c-0.082,0.213-0.123,0.447-0.123,0.703v3.15h-0.821
		V54.069z"/>
	<path d="M451.128,59.701c-0.335,0-0.658-0.064-0.971-0.192c-0.313-0.128-0.594-0.314-0.843-0.56
		c-0.249-0.245-0.448-0.544-0.598-0.896s-0.224-0.755-0.224-1.21v-0.021c0-0.448,0.074-0.85,0.224-1.205
		c0.149-0.356,0.349-0.656,0.598-0.901c0.249-0.246,0.529-0.434,0.843-0.565c0.313-0.131,0.636-0.197,0.971-0.197
		c0.256,0,0.49,0.032,0.703,0.096c0.214,0.064,0.406,0.149,0.576,0.256c0.171,0.106,0.325,0.231,0.464,0.373
		c0.139,0.143,0.262,0.292,0.368,0.448v-3.328h0.821v7.787h-0.821v-1.109c-0.113,0.164-0.24,0.32-0.379,0.469
		s-0.293,0.281-0.464,0.395c-0.17,0.114-0.36,0.203-0.57,0.267S451.384,59.701,451.128,59.701z M451.276,58.965
		c0.257,0,0.504-0.051,0.742-0.155c0.237-0.103,0.451-0.249,0.64-0.437s0.338-0.413,0.448-0.672c0.11-0.259,0.165-0.549,0.165-0.869
		V56.81c0-0.32-0.055-0.609-0.165-0.869s-0.26-0.482-0.448-0.667c-0.188-0.185-0.402-0.329-0.64-0.432
		c-0.238-0.103-0.485-0.155-0.742-0.155c-0.27,0-0.522,0.048-0.757,0.144s-0.439,0.235-0.613,0.416
		c-0.175,0.181-0.313,0.404-0.416,0.667c-0.104,0.263-0.154,0.562-0.154,0.896v0.021c0,0.327,0.051,0.622,0.154,0.885
		c0.103,0.263,0.243,0.487,0.421,0.672c0.178,0.185,0.385,0.327,0.619,0.427S451.014,58.965,451.276,58.965z"/>
	<path d="M459.586,57.162c0.028,0.292,0.1,0.551,0.213,0.779c0.114,0.228,0.26,0.419,0.438,0.576
		c0.178,0.157,0.377,0.276,0.598,0.357c0.22,0.082,0.451,0.123,0.693,0.123c0.384,0,0.713-0.071,0.986-0.213
		c0.273-0.143,0.524-0.331,0.752-0.565l0.512,0.458c-0.277,0.313-0.594,0.564-0.949,0.752c-0.355,0.188-0.796,0.283-1.322,0.283
		c-0.377,0-0.732-0.069-1.066-0.208c-0.335-0.139-0.626-0.334-0.875-0.586s-0.446-0.557-0.592-0.912
		c-0.146-0.355-0.219-0.747-0.219-1.173c0-0.398,0.065-0.773,0.197-1.125s0.314-0.658,0.549-0.917
		c0.235-0.26,0.514-0.464,0.838-0.614c0.323-0.149,0.677-0.224,1.062-0.224c0.405,0,0.768,0.076,1.088,0.229
		c0.319,0.153,0.59,0.361,0.811,0.624c0.22,0.263,0.388,0.573,0.501,0.928c0.114,0.355,0.171,0.736,0.171,1.141
		c0,0.036,0,0.077,0,0.123c0,0.046-0.004,0.101-0.011,0.165H459.586z M463.138,56.49c-0.021-0.248-0.074-0.482-0.16-0.705
		c-0.085-0.223-0.201-0.419-0.347-0.589c-0.146-0.169-0.323-0.304-0.533-0.403s-0.45-0.148-0.72-0.148
		c-0.235,0-0.455,0.046-0.661,0.138c-0.207,0.092-0.388,0.221-0.544,0.387c-0.157,0.166-0.287,0.362-0.39,0.588
		c-0.104,0.227-0.169,0.47-0.197,0.732H463.138z"/>
	<path d="M466.754,56.778l-2.08-2.709h0.939l1.632,2.133l1.632-2.133h0.917l-2.091,2.688l2.177,2.827h-0.95l-1.706-2.25l-1.718,2.25
		h-0.917L466.754,56.778z"/>
	<path d="M471.233,51.957h0.938v0.906h-0.938V51.957z M471.287,54.069h0.821v5.515h-0.821V54.069z"/>
	<path d="M475.842,59.69c-0.398,0-0.8-0.073-1.205-0.218c-0.405-0.146-0.765-0.343-1.077-0.592l0.416-0.586
		c0.298,0.228,0.609,0.402,0.933,0.522c0.324,0.121,0.649,0.182,0.977,0.182c0.334,0,0.607-0.079,0.821-0.235
		c0.213-0.156,0.32-0.37,0.32-0.64v-0.021c0-0.135-0.038-0.252-0.112-0.352c-0.075-0.1-0.176-0.187-0.304-0.262
		c-0.129-0.075-0.276-0.14-0.443-0.197c-0.167-0.057-0.34-0.11-0.517-0.16c-0.214-0.064-0.429-0.133-0.646-0.208
		c-0.218-0.075-0.413-0.169-0.587-0.283c-0.175-0.114-0.316-0.256-0.427-0.427c-0.11-0.171-0.165-0.384-0.165-0.64v-0.021
		c0-0.234,0.046-0.449,0.139-0.645c0.092-0.196,0.222-0.363,0.389-0.501s0.366-0.245,0.598-0.32s0.481-0.112,0.752-0.112
		c0.342,0,0.687,0.055,1.035,0.166c0.348,0.11,0.664,0.258,0.949,0.443l-0.374,0.619c-0.256-0.164-0.524-0.293-0.805-0.39
		c-0.281-0.096-0.557-0.144-0.827-0.144c-0.327,0-0.586,0.077-0.778,0.229s-0.288,0.343-0.288,0.571v0.021
		c0,0.128,0.039,0.24,0.117,0.336c0.078,0.096,0.184,0.179,0.314,0.25c0.132,0.071,0.283,0.135,0.454,0.192
		c0.17,0.057,0.348,0.114,0.533,0.171c0.213,0.064,0.425,0.135,0.635,0.213c0.209,0.078,0.399,0.178,0.57,0.298
		c0.171,0.121,0.308,0.267,0.411,0.438c0.103,0.17,0.154,0.38,0.154,0.629v0.021c0,0.263-0.052,0.496-0.154,0.699
		c-0.104,0.203-0.242,0.375-0.416,0.518c-0.175,0.142-0.381,0.25-0.619,0.325S476.119,59.69,475.842,59.69z"/>
	<path d="M481.079,59.68c-0.221,0-0.427-0.029-0.619-0.085c-0.191-0.057-0.356-0.147-0.495-0.272s-0.248-0.286-0.326-0.485
		s-0.117-0.438-0.117-0.715v-3.328h-0.768v-0.725h0.768v-1.664h0.821v1.664h1.75v0.725h-1.75v3.213c0,0.34,0.086,0.578,0.256,0.713
		c0.171,0.135,0.396,0.202,0.673,0.202c0.142,0,0.275-0.014,0.399-0.041s0.258-0.074,0.4-0.141v0.704
		c-0.143,0.078-0.294,0.137-0.453,0.176C481.458,59.66,481.278,59.68,481.079,59.68z"/>
	<path d="M483.563,51.957h0.938v0.906h-0.938V51.957z M483.617,54.069h0.821v5.515h-0.821V54.069z"/>
	<path d="M486.348,54.069h0.821v0.96c0.186-0.299,0.427-0.553,0.726-0.763c0.299-0.209,0.687-0.314,1.163-0.314
		c0.334,0,0.631,0.053,0.891,0.16c0.259,0.107,0.479,0.258,0.661,0.454s0.32,0.428,0.416,0.699c0.096,0.27,0.144,0.569,0.144,0.896
		v3.424h-0.821v-3.214c0-0.511-0.131-0.916-0.395-1.213c-0.263-0.298-0.64-0.447-1.131-0.447c-0.234,0-0.453,0.041-0.655,0.123
		c-0.203,0.082-0.379,0.198-0.528,0.351c-0.149,0.152-0.265,0.335-0.347,0.548c-0.082,0.213-0.123,0.447-0.123,0.703v3.15h-0.821
		V54.069z"/>
	<path d="M495.361,61.312c-0.463,0-0.903-0.064-1.323-0.192s-0.814-0.32-1.184-0.576l0.373-0.64c0.32,0.228,0.654,0.402,1.003,0.523
		c0.349,0.121,0.722,0.181,1.12,0.181c0.611,0,1.099-0.165,1.461-0.496c0.362-0.331,0.544-0.819,0.544-1.466v-0.651
		c-0.241,0.32-0.537,0.594-0.885,0.821c-0.349,0.228-0.775,0.341-1.28,0.341c-0.334,0-0.656-0.06-0.966-0.181
		c-0.309-0.121-0.585-0.293-0.826-0.518c-0.242-0.224-0.436-0.494-0.581-0.811c-0.146-0.316-0.219-0.674-0.219-1.072v-0.021
		c0-0.405,0.072-0.768,0.219-1.088c0.146-0.32,0.339-0.592,0.581-0.816c0.241-0.224,0.519-0.396,0.832-0.518
		c0.313-0.121,0.633-0.181,0.96-0.181c0.256,0,0.492,0.03,0.709,0.09c0.217,0.061,0.412,0.141,0.587,0.24
		c0.174,0.1,0.332,0.217,0.475,0.352s0.271,0.277,0.384,0.427v-0.992h0.821v4.555c0,0.427-0.061,0.802-0.181,1.125
		c-0.121,0.323-0.296,0.599-0.523,0.827c-0.249,0.249-0.551,0.434-0.906,0.555C496.2,61.251,495.802,61.312,495.361,61.312z
		 M495.351,58.432c0.263,0,0.516-0.044,0.757-0.133c0.242-0.089,0.457-0.217,0.646-0.384c0.188-0.167,0.34-0.364,0.453-0.592
		c0.114-0.228,0.171-0.48,0.171-0.757v-0.021c0-0.284-0.057-0.541-0.171-0.768c-0.113-0.228-0.265-0.423-0.453-0.586
		s-0.403-0.29-0.646-0.379c-0.241-0.089-0.494-0.133-0.757-0.133c-0.264,0-0.511,0.044-0.741,0.133
		c-0.231,0.089-0.435,0.213-0.608,0.374c-0.175,0.16-0.312,0.354-0.411,0.581c-0.1,0.228-0.148,0.484-0.148,0.768v0.021
		c0,0.277,0.051,0.532,0.154,0.763c0.103,0.231,0.241,0.428,0.416,0.592c0.174,0.164,0.377,0.292,0.608,0.384
		C494.851,58.385,495.095,58.432,495.351,58.432z"/>
</g>
<g>
	<path d="M411.683,73.044c-0.405,0-0.78-0.077-1.125-0.229s-0.644-0.359-0.896-0.619c-0.252-0.259-0.449-0.563-0.592-0.912
		c-0.142-0.349-0.213-0.715-0.213-1.099v-0.021c0-0.391,0.071-0.761,0.213-1.109c0.143-0.348,0.34-0.654,0.592-0.917
		c0.253-0.263,0.552-0.471,0.896-0.624c0.345-0.153,0.72-0.229,1.125-0.229c0.264,0,0.502,0.025,0.715,0.075
		c0.214,0.05,0.409,0.119,0.587,0.208s0.341,0.194,0.49,0.314c0.149,0.121,0.288,0.249,0.416,0.384l-0.544,0.576
		c-0.221-0.228-0.46-0.423-0.72-0.586s-0.578-0.246-0.955-0.246c-0.277,0-0.536,0.055-0.778,0.166s-0.451,0.261-0.629,0.453
		s-0.316,0.418-0.416,0.677c-0.1,0.26-0.149,0.539-0.149,0.837v0.021c0,0.299,0.051,0.578,0.154,0.837s0.245,0.487,0.427,0.683
		s0.395,0.349,0.64,0.458c0.246,0.11,0.514,0.166,0.806,0.166c0.355,0,0.67-0.078,0.944-0.235c0.273-0.156,0.521-0.352,0.741-0.586
		l0.522,0.491c-0.277,0.313-0.592,0.569-0.944,0.768C412.638,72.945,412.202,73.044,411.683,73.044z"/>
	<path d="M417.656,73.044c-0.412,0-0.793-0.077-1.142-0.229c-0.348-0.153-0.65-0.359-0.906-0.619
		c-0.256-0.259-0.455-0.562-0.598-0.906c-0.142-0.345-0.213-0.713-0.213-1.104v-0.021c0-0.391,0.071-0.761,0.213-1.109
		c0.143-0.348,0.342-0.654,0.598-0.917c0.256-0.263,0.56-0.471,0.912-0.624c0.352-0.153,0.737-0.229,1.157-0.229
		c0.412,0,0.795,0.076,1.146,0.229c0.353,0.153,0.656,0.359,0.912,0.619c0.256,0.26,0.455,0.562,0.598,0.907
		c0.142,0.345,0.213,0.713,0.213,1.104v0.021c0,0.391-0.073,0.761-0.219,1.109s-0.347,0.654-0.603,0.917
		c-0.256,0.263-0.562,0.471-0.917,0.624S418.068,73.044,417.656,73.044z M417.678,72.309c0.299,0,0.572-0.057,0.821-0.171
		c0.249-0.113,0.462-0.267,0.64-0.458s0.316-0.416,0.416-0.672c0.1-0.256,0.149-0.53,0.149-0.821v-0.021
		c0-0.299-0.052-0.578-0.154-0.837c-0.104-0.259-0.247-0.487-0.433-0.683c-0.185-0.195-0.401-0.35-0.65-0.464
		s-0.519-0.171-0.811-0.171c-0.299,0-0.572,0.057-0.821,0.171s-0.461,0.267-0.635,0.458s-0.311,0.418-0.41,0.677
		c-0.1,0.26-0.149,0.535-0.149,0.827v0.021c0,0.299,0.051,0.578,0.154,0.837s0.245,0.485,0.427,0.677s0.396,0.345,0.646,0.458
		C417.116,72.251,417.386,72.309,417.678,72.309z"/>
	<path d="M422.029,67.402h0.821v0.96c0.186-0.299,0.427-0.553,0.726-0.763c0.299-0.209,0.687-0.314,1.163-0.314
		c0.334,0,0.631,0.053,0.891,0.16c0.259,0.107,0.479,0.258,0.661,0.454s0.32,0.428,0.416,0.699c0.096,0.27,0.144,0.569,0.144,0.896
		v3.424h-0.821v-3.214c0-0.511-0.131-0.916-0.395-1.213c-0.263-0.298-0.64-0.447-1.131-0.447c-0.234,0-0.453,0.041-0.655,0.123
		c-0.203,0.082-0.379,0.198-0.528,0.351c-0.149,0.152-0.265,0.335-0.347,0.548c-0.082,0.213-0.123,0.447-0.123,0.703v3.15h-0.821
		V67.402z"/>
	<path d="M430.445,73.013c-0.221,0-0.427-0.029-0.619-0.085c-0.191-0.057-0.356-0.147-0.495-0.272s-0.248-0.286-0.326-0.485
		s-0.117-0.438-0.117-0.715v-3.328h-0.768v-0.725h0.768v-1.664h0.821v1.664h1.75v0.725h-1.75v3.213c0,0.34,0.086,0.578,0.256,0.713
		c0.171,0.135,0.396,0.202,0.673,0.202c0.142,0,0.275-0.014,0.399-0.041s0.258-0.074,0.4-0.141v0.704
		c-0.143,0.078-0.294,0.137-0.453,0.176C430.824,72.993,430.645,73.013,430.445,73.013z"/>
	<path d="M433.251,70.495c0.028,0.292,0.1,0.551,0.213,0.779c0.114,0.228,0.26,0.419,0.438,0.576
		c0.178,0.157,0.377,0.276,0.598,0.357c0.22,0.082,0.451,0.123,0.693,0.123c0.384,0,0.713-0.071,0.986-0.213
		c0.273-0.143,0.524-0.331,0.752-0.565l0.512,0.458c-0.277,0.313-0.594,0.564-0.949,0.752c-0.355,0.188-0.796,0.283-1.322,0.283
		c-0.377,0-0.732-0.069-1.066-0.208c-0.335-0.139-0.626-0.334-0.875-0.586s-0.446-0.557-0.592-0.912
		c-0.146-0.355-0.219-0.747-0.219-1.173c0-0.398,0.065-0.773,0.197-1.125s0.314-0.658,0.549-0.917
		c0.235-0.26,0.514-0.464,0.838-0.614c0.323-0.149,0.677-0.224,1.062-0.224c0.405,0,0.768,0.076,1.088,0.229
		c0.319,0.153,0.59,0.361,0.811,0.624c0.22,0.263,0.388,0.573,0.501,0.928c0.114,0.355,0.171,0.736,0.171,1.141
		c0,0.036,0,0.077,0,0.123c0,0.046-0.004,0.101-0.011,0.165H433.251z M436.803,69.823c-0.021-0.248-0.074-0.482-0.16-0.705
		c-0.085-0.223-0.201-0.419-0.347-0.589c-0.146-0.169-0.323-0.304-0.533-0.403s-0.45-0.148-0.72-0.148
		c-0.235,0-0.455,0.046-0.661,0.138c-0.207,0.092-0.388,0.221-0.544,0.387c-0.157,0.166-0.287,0.362-0.39,0.588
		c-0.104,0.227-0.169,0.47-0.197,0.732H436.803z"/>
	<path d="M439.074,67.402h0.821v0.96c0.186-0.299,0.427-0.553,0.726-0.763c0.299-0.209,0.687-0.314,1.163-0.314
		c0.334,0,0.631,0.053,0.891,0.16c0.259,0.107,0.479,0.258,0.661,0.454s0.32,0.428,0.416,0.699c0.096,0.27,0.144,0.569,0.144,0.896
		v3.424h-0.821v-3.214c0-0.511-0.131-0.916-0.395-1.213c-0.263-0.298-0.64-0.447-1.131-0.447c-0.234,0-0.453,0.041-0.655,0.123
		c-0.203,0.082-0.379,0.198-0.528,0.351c-0.149,0.152-0.265,0.335-0.347,0.548c-0.082,0.213-0.123,0.447-0.123,0.703v3.15h-0.821
		V67.402z"/>
	<path d="M447.49,73.013c-0.221,0-0.427-0.029-0.619-0.085c-0.191-0.057-0.356-0.147-0.495-0.272s-0.248-0.286-0.326-0.485
		s-0.117-0.438-0.117-0.715v-3.328h-0.768v-0.725h0.768v-1.664h0.821v1.664h1.75v0.725h-1.75v3.213c0,0.34,0.086,0.578,0.256,0.713
		c0.171,0.135,0.396,0.202,0.673,0.202c0.142,0,0.275-0.014,0.399-0.041s0.258-0.074,0.4-0.141v0.704
		c-0.143,0.078-0.294,0.137-0.453,0.176C447.869,72.993,447.689,73.013,447.49,73.013z"/>
</g>
<g>
	<path d="M277.816,51.936h0.79l3.402,7.52h-0.907l-0.874-1.973h-4.064l-0.885,1.973h-0.864L277.816,51.936z M279.896,56.725
		l-1.695-3.808l-1.707,3.808H279.896z"/>
	<path d="M283.417,51.669h0.821v7.787h-0.821V51.669z"/>
	<path d="M286.222,51.669h0.821v7.787h-0.821V51.669z"/>
	<path d="M294.637,59.583c-0.405,0-0.78-0.077-1.125-0.229s-0.644-0.359-0.896-0.619c-0.252-0.259-0.449-0.563-0.592-0.912
		c-0.142-0.349-0.213-0.715-0.213-1.099v-0.021c0-0.391,0.071-0.761,0.213-1.109c0.143-0.348,0.34-0.654,0.592-0.917
		c0.253-0.263,0.552-0.471,0.896-0.624c0.345-0.153,0.72-0.229,1.125-0.229c0.264,0,0.502,0.025,0.715,0.075
		c0.214,0.05,0.409,0.119,0.587,0.208s0.341,0.194,0.49,0.314c0.149,0.121,0.288,0.249,0.416,0.384l-0.544,0.576
		c-0.221-0.228-0.46-0.423-0.72-0.586s-0.578-0.246-0.955-0.246c-0.277,0-0.536,0.055-0.778,0.166s-0.451,0.261-0.629,0.453
		s-0.316,0.418-0.416,0.677c-0.1,0.26-0.149,0.539-0.149,0.837v0.021c0,0.299,0.051,0.578,0.154,0.837s0.245,0.487,0.427,0.683
		s0.395,0.349,0.64,0.458c0.246,0.11,0.514,0.166,0.806,0.166c0.355,0,0.67-0.078,0.944-0.235c0.273-0.156,0.521-0.352,0.741-0.586
		l0.522,0.491c-0.277,0.313-0.592,0.569-0.944,0.768C295.592,59.484,295.156,59.583,294.637,59.583z"/>
	<path d="M298.242,51.669h0.821v3.232c0.186-0.299,0.427-0.553,0.726-0.763c0.299-0.209,0.687-0.314,1.163-0.314
		c0.334,0,0.631,0.053,0.891,0.16c0.259,0.107,0.479,0.258,0.661,0.454s0.32,0.428,0.416,0.699c0.096,0.27,0.144,0.569,0.144,0.896
		v3.424h-0.821v-3.214c0-0.511-0.131-0.916-0.395-1.213c-0.263-0.298-0.64-0.447-1.131-0.447c-0.234,0-0.453,0.041-0.655,0.123
		c-0.203,0.082-0.379,0.198-0.528,0.351c-0.149,0.152-0.265,0.335-0.347,0.548c-0.082,0.213-0.123,0.447-0.123,0.703v3.15h-0.821
		V51.669z"/>
	<path d="M306.456,59.573c-0.256,0-0.508-0.036-0.757-0.106c-0.249-0.071-0.47-0.18-0.661-0.325
		c-0.192-0.146-0.347-0.326-0.464-0.539c-0.118-0.213-0.177-0.462-0.177-0.747v-0.021c0-0.299,0.058-0.56,0.171-0.784
		c0.114-0.224,0.275-0.411,0.485-0.56s0.459-0.263,0.747-0.341s0.605-0.117,0.954-0.117c0.355,0,0.663,0.021,0.923,0.064
		c0.26,0.042,0.514,0.1,0.763,0.17v-0.169c0-0.487-0.143-0.856-0.427-1.107s-0.687-0.376-1.205-0.376
		c-0.327,0-0.624,0.036-0.891,0.107c-0.267,0.071-0.528,0.167-0.784,0.288l-0.245-0.676c0.306-0.144,0.615-0.259,0.928-0.346
		c0.313-0.086,0.672-0.13,1.077-0.13c0.782,0,1.376,0.203,1.781,0.608c0.385,0.384,0.576,0.925,0.576,1.622v3.371h-0.811v-0.821
		c-0.192,0.249-0.45,0.468-0.773,0.656C307.344,59.479,306.94,59.573,306.456,59.573z M306.622,58.901
		c0.256,0,0.493-0.035,0.713-0.106s0.413-0.172,0.579-0.303c0.167-0.131,0.298-0.287,0.394-0.467c0.096-0.18,0.144-0.38,0.144-0.6
		v-0.51c-0.206-0.056-0.439-0.109-0.702-0.159c-0.262-0.049-0.563-0.074-0.903-0.074c-0.51,0-0.905,0.101-1.186,0.303
		s-0.42,0.469-0.42,0.801v0.021c0,0.17,0.037,0.324,0.112,0.461c0.074,0.138,0.175,0.253,0.303,0.345
		c0.127,0.092,0.274,0.163,0.441,0.212C306.263,58.876,306.438,58.901,306.622,58.901z"/>
	<path d="M310.989,53.941h0.821v0.96c0.186-0.299,0.427-0.553,0.726-0.763c0.299-0.209,0.687-0.314,1.163-0.314
		c0.334,0,0.631,0.053,0.891,0.16c0.259,0.107,0.479,0.258,0.661,0.454s0.32,0.428,0.416,0.699c0.096,0.27,0.144,0.569,0.144,0.896
		v3.424h-0.821v-3.214c0-0.511-0.131-0.916-0.395-1.213c-0.263-0.298-0.64-0.447-1.131-0.447c-0.234,0-0.453,0.041-0.655,0.123
		c-0.203,0.082-0.379,0.198-0.528,0.351c-0.149,0.152-0.265,0.335-0.347,0.548c-0.082,0.213-0.123,0.447-0.123,0.703v3.15h-0.821
		V53.941z"/>
	<path d="M317.56,53.941h0.821v0.96c0.186-0.299,0.427-0.553,0.726-0.763c0.299-0.209,0.687-0.314,1.163-0.314
		c0.334,0,0.631,0.053,0.891,0.16c0.259,0.107,0.479,0.258,0.661,0.454s0.32,0.428,0.416,0.699c0.096,0.27,0.144,0.569,0.144,0.896
		v3.424h-0.821v-3.214c0-0.511-0.131-0.916-0.395-1.213c-0.263-0.298-0.64-0.447-1.131-0.447c-0.234,0-0.453,0.041-0.655,0.123
		c-0.203,0.082-0.379,0.198-0.528,0.351c-0.149,0.152-0.265,0.335-0.347,0.548c-0.082,0.213-0.123,0.447-0.123,0.703v3.15h-0.821
		V53.941z"/>
	<path d="M324.621,57.034c0.028,0.292,0.1,0.551,0.213,0.779c0.114,0.228,0.26,0.419,0.438,0.576
		c0.178,0.157,0.377,0.276,0.598,0.357c0.22,0.082,0.451,0.123,0.693,0.123c0.384,0,0.713-0.071,0.986-0.213
		c0.273-0.143,0.524-0.331,0.752-0.565l0.512,0.458c-0.277,0.313-0.594,0.564-0.949,0.752c-0.355,0.188-0.796,0.283-1.322,0.283
		c-0.377,0-0.732-0.069-1.066-0.208c-0.335-0.139-0.626-0.334-0.875-0.586s-0.446-0.557-0.592-0.912
		c-0.146-0.355-0.219-0.747-0.219-1.173c0-0.398,0.065-0.773,0.197-1.125s0.314-0.658,0.549-0.917
		c0.235-0.26,0.514-0.464,0.838-0.614c0.323-0.149,0.677-0.224,1.062-0.224c0.405,0,0.768,0.076,1.088,0.229
		c0.319,0.153,0.59,0.361,0.811,0.624c0.22,0.263,0.388,0.573,0.501,0.928c0.114,0.355,0.171,0.736,0.171,1.141
		c0,0.036,0,0.077,0,0.123c0,0.046-0.004,0.101-0.011,0.165H324.621z M328.173,56.362c-0.021-0.248-0.074-0.482-0.16-0.705
		c-0.085-0.223-0.201-0.419-0.347-0.589c-0.146-0.169-0.323-0.304-0.533-0.403s-0.45-0.148-0.72-0.148
		c-0.235,0-0.455,0.046-0.661,0.138c-0.207,0.092-0.388,0.221-0.544,0.387c-0.157,0.166-0.287,0.362-0.39,0.588
		c-0.104,0.227-0.169,0.47-0.197,0.732H328.173z"/>
	<path d="M330.52,51.669h0.821v7.787h-0.821V51.669z"/>
	<path d="M335.074,59.562c-0.398,0-0.8-0.073-1.205-0.218c-0.405-0.146-0.765-0.343-1.077-0.592l0.416-0.586
		c0.298,0.228,0.609,0.402,0.933,0.522c0.324,0.121,0.649,0.182,0.977,0.182c0.334,0,0.607-0.079,0.821-0.235
		c0.213-0.156,0.32-0.37,0.32-0.64v-0.021c0-0.135-0.038-0.252-0.112-0.352c-0.075-0.1-0.176-0.187-0.304-0.262
		c-0.129-0.075-0.276-0.14-0.443-0.197c-0.167-0.057-0.34-0.11-0.517-0.16c-0.214-0.064-0.429-0.133-0.646-0.208
		c-0.218-0.075-0.413-0.169-0.587-0.283c-0.175-0.114-0.316-0.256-0.427-0.427c-0.11-0.171-0.165-0.384-0.165-0.64v-0.021
		c0-0.234,0.046-0.449,0.139-0.645c0.092-0.196,0.222-0.363,0.389-0.501s0.366-0.245,0.598-0.32s0.481-0.112,0.752-0.112
		c0.342,0,0.687,0.055,1.035,0.166c0.348,0.11,0.664,0.258,0.949,0.443l-0.374,0.619c-0.256-0.164-0.524-0.293-0.805-0.39
		c-0.281-0.096-0.557-0.144-0.827-0.144c-0.327,0-0.586,0.077-0.778,0.229s-0.288,0.343-0.288,0.571v0.021
		c0,0.128,0.039,0.24,0.117,0.336c0.078,0.096,0.184,0.179,0.314,0.25c0.132,0.071,0.283,0.135,0.454,0.192
		c0.17,0.057,0.348,0.114,0.533,0.171c0.213,0.064,0.425,0.135,0.635,0.213c0.209,0.078,0.399,0.178,0.57,0.298
		c0.171,0.121,0.308,0.267,0.411,0.438c0.103,0.17,0.154,0.38,0.154,0.629v0.021c0,0.263-0.052,0.496-0.154,0.699
		c-0.104,0.203-0.242,0.375-0.416,0.518c-0.175,0.142-0.381,0.25-0.619,0.325S335.352,59.562,335.074,59.562z"/>
</g>
</svg>
