<?xml version="1.0" encoding="utf-8"?>
<!-- Generator: Adobe Illustrator 15.1.0, SVG Export Plug-In . SVG Version: 6.00 Build 0)  -->
<!DOCTYPE svg PUBLIC "-//W3C//DTD SVG 1.1//EN" "http://www.w3.org/Graphics/SVG/1.1/DTD/svg11.dtd">
<svg version="1.1" id="Layer_1" xmlns="http://www.w3.org/2000/svg" xmlns:xlink="http://www.w3.org/1999/xlink" x="0px" y="0px"
	 width="787.862px" height="75px" viewBox="0 0 456.912 43.496" enable-background="new 0 0 456.912 43.496"
	 xml:space="preserve">
<polyline fill="#F39200" points="164.205,0 81.094,0 110.291,21.724 81.094,43.444 164.205,43.444 193.406,21.724 "/>
<polyline fill="#F39200" points="252.435,0 169.325,0 198.524,21.724 169.325,43.444 252.435,43.444 281.638,21.724 "/>
<polyline fill="#F39200" points="340.272,0 257.162,0 286.359,21.724 257.162,43.444 340.272,43.444 369.472,21.724 "/>
<polyline fill="#F39200" points="427.711,0.052 344.601,0.052 373.799,21.773 344.601,43.496 427.711,43.496 456.912,21.773 "/>
<polyline fill="#F39200" points="76.476,0 0,0 0,43.444 76.476,43.444 105.675,21.724 "/>
<g>
	<path fill="#FFFFFF" d="M13.923,17.664h2.731c0.401,0,0.759,0.056,1.074,0.167c0.315,0.112,0.583,0.269,0.802,0.473
		c0.22,0.204,0.388,0.448,0.506,0.731c0.118,0.283,0.176,0.597,0.176,0.94v0.019c0,0.388-0.07,0.729-0.21,1.022
		c-0.14,0.292-0.333,0.538-0.578,0.735s-0.532,0.345-0.859,0.444c-0.328,0.099-0.68,0.148-1.055,0.148h-1.117v2.005h-1.471V17.664z
		 M16.559,21.035c0.369,0,0.655-0.097,0.859-0.292c0.204-0.194,0.305-0.435,0.305-0.721v-0.019c0-0.331-0.106-0.583-0.32-0.754
		s-0.504-0.258-0.874-0.258h-1.136v2.043H16.559z"/>
	<path fill="#FFFFFF" d="M22.747,24.462c-0.395,0-0.761-0.068-1.098-0.205s-0.628-0.324-0.874-0.563
		c-0.245-0.238-0.438-0.519-0.578-0.84c-0.14-0.322-0.21-0.667-0.21-1.037v-0.019c0-0.369,0.07-0.714,0.21-1.036
		c0.14-0.321,0.334-0.603,0.583-0.845c0.248-0.242,0.541-0.433,0.878-0.573c0.337-0.14,0.707-0.21,1.107-0.21
		c0.395,0,0.761,0.068,1.099,0.205c0.337,0.137,0.628,0.325,0.874,0.563s0.438,0.519,0.578,0.84c0.14,0.322,0.21,0.667,0.21,1.036
		v0.019c0,0.37-0.07,0.715-0.21,1.036s-0.334,0.604-0.583,0.846c-0.248,0.241-0.541,0.433-0.878,0.572
		C23.517,24.393,23.148,24.462,22.747,24.462z M22.766,23.211c0.21,0,0.396-0.036,0.559-0.109c0.162-0.073,0.301-0.174,0.415-0.301
		c0.115-0.127,0.202-0.275,0.263-0.444c0.061-0.168,0.091-0.348,0.091-0.54v-0.019c0-0.191-0.032-0.371-0.096-0.54
		c-0.063-0.168-0.156-0.318-0.277-0.449c-0.121-0.13-0.264-0.234-0.43-0.31c-0.166-0.077-0.347-0.115-0.544-0.115
		c-0.21,0-0.396,0.037-0.559,0.11c-0.162,0.073-0.301,0.173-0.415,0.301c-0.115,0.127-0.203,0.275-0.263,0.444
		c-0.061,0.169-0.091,0.349-0.091,0.54v0.019c0,0.191,0.032,0.371,0.096,0.54c0.063,0.169,0.156,0.318,0.277,0.449
		c0.121,0.131,0.262,0.234,0.425,0.311C22.379,23.173,22.562,23.211,22.766,23.211z"/>
	<path fill="#FFFFFF" d="M28.458,24.444c-0.363,0-0.734-0.063-1.113-0.187s-0.74-0.319-1.084-0.587l0.621-0.955
		c0.28,0.204,0.559,0.356,0.835,0.458c0.277,0.103,0.536,0.153,0.778,0.153c0.21,0,0.364-0.035,0.463-0.105s0.148-0.162,0.148-0.276
		v-0.02c0-0.076-0.028-0.144-0.086-0.201c-0.057-0.057-0.135-0.106-0.234-0.148c-0.099-0.041-0.211-0.081-0.339-0.119
		c-0.127-0.039-0.261-0.08-0.401-0.125c-0.179-0.051-0.358-0.113-0.54-0.186c-0.182-0.073-0.346-0.168-0.492-0.287
		c-0.146-0.118-0.266-0.262-0.358-0.434s-0.138-0.382-0.138-0.63v-0.019c0-0.261,0.049-0.492,0.148-0.692
		c0.099-0.201,0.232-0.371,0.401-0.511c0.168-0.14,0.366-0.245,0.592-0.315c0.226-0.07,0.469-0.105,0.73-0.105
		c0.325,0,0.654,0.053,0.988,0.158c0.334,0.105,0.641,0.25,0.921,0.435l-0.554,1.002c-0.255-0.146-0.503-0.263-0.745-0.349
		c-0.242-0.086-0.455-0.129-0.64-0.129c-0.178,0-0.312,0.034-0.401,0.101c-0.089,0.066-0.134,0.151-0.134,0.253v0.019
		c0,0.07,0.028,0.132,0.086,0.186c0.057,0.054,0.134,0.105,0.229,0.153c0.096,0.048,0.206,0.094,0.33,0.139s0.256,0.089,0.396,0.134
		c0.178,0.057,0.359,0.125,0.544,0.205s0.35,0.177,0.497,0.292c0.146,0.114,0.268,0.254,0.363,0.42
		c0.096,0.166,0.144,0.366,0.144,0.602v0.019c0,0.286-0.049,0.533-0.148,0.74c-0.099,0.207-0.237,0.377-0.416,0.511
		s-0.387,0.234-0.625,0.301C28.987,24.411,28.731,24.444,28.458,24.444z"/>
	<path fill="#FFFFFF" d="M31.57,17.377h1.528v1.29H31.57V17.377z M31.608,19.229h1.451v5.119h-1.451V19.229z"/>
	<path fill="#FFFFFF" d="M36.24,24.434c-0.223,0-0.425-0.023-0.606-0.071c-0.182-0.048-0.337-0.133-0.468-0.253
		c-0.131-0.121-0.233-0.279-0.306-0.473c-0.073-0.194-0.11-0.441-0.11-0.74v-2.426h-0.611v-1.242h0.611v-1.308h1.451v1.308h1.204
		v1.242h-1.204v2.194c0,0.332,0.156,0.498,0.468,0.498c0.254,0,0.493-0.063,0.716-0.19v1.165c-0.153,0.089-0.322,0.161-0.506,0.215
		S36.481,24.434,36.24,24.434z"/>
	<path fill="#FFFFFF" d="M38.589,17.377h1.528v1.29h-1.528V17.377z M38.627,19.229h1.451v5.119h-1.451V19.229z"/>
	<path fill="#FFFFFF" d="M44.041,24.462c-0.395,0-0.761-0.068-1.098-0.205s-0.628-0.324-0.874-0.563
		c-0.245-0.238-0.438-0.519-0.578-0.84c-0.14-0.322-0.21-0.667-0.21-1.037v-0.019c0-0.369,0.07-0.714,0.21-1.036
		c0.14-0.321,0.334-0.603,0.583-0.845c0.248-0.242,0.541-0.433,0.878-0.573c0.337-0.14,0.707-0.21,1.107-0.21
		c0.395,0,0.761,0.068,1.099,0.205c0.337,0.137,0.628,0.325,0.874,0.563s0.438,0.519,0.578,0.84c0.14,0.322,0.21,0.667,0.21,1.036
		v0.019c0,0.37-0.07,0.715-0.21,1.036s-0.334,0.604-0.583,0.846c-0.248,0.241-0.541,0.433-0.878,0.572
		C44.812,24.393,44.442,24.462,44.041,24.462z M44.06,23.211c0.21,0,0.396-0.036,0.559-0.109c0.162-0.073,0.301-0.174,0.415-0.301
		c0.115-0.127,0.202-0.275,0.263-0.444c0.061-0.168,0.091-0.348,0.091-0.54v-0.019c0-0.191-0.032-0.371-0.096-0.54
		c-0.063-0.168-0.156-0.318-0.277-0.449c-0.121-0.13-0.264-0.234-0.43-0.31c-0.166-0.077-0.347-0.115-0.544-0.115
		c-0.21,0-0.396,0.037-0.559,0.11c-0.162,0.073-0.301,0.173-0.415,0.301c-0.115,0.127-0.203,0.275-0.263,0.444
		c-0.061,0.169-0.091,0.349-0.091,0.54v0.019c0,0.191,0.032,0.371,0.096,0.54c0.063,0.169,0.156,0.318,0.277,0.449
		c0.121,0.131,0.262,0.234,0.425,0.311C43.673,23.173,43.856,23.211,44.06,23.211z"/>
	<path fill="#FFFFFF" d="M47.957,19.229h1.452v0.732c0.083-0.109,0.173-0.213,0.272-0.313c0.099-0.1,0.208-0.188,0.33-0.265
		c0.121-0.077,0.254-0.138,0.401-0.183s0.312-0.067,0.497-0.067c0.554,0,0.982,0.168,1.284,0.506
		c0.302,0.338,0.454,0.802,0.454,1.395v3.313h-1.451V21.5c0-0.343-0.077-0.602-0.229-0.776c-0.153-0.175-0.369-0.262-0.649-0.262
		c-0.28,0-0.501,0.087-0.664,0.262c-0.162,0.174-0.243,0.434-0.243,0.776v2.848h-1.452V19.229z"/>
	<path fill="#FFFFFF" d="M54.02,17.377h1.528v1.29H54.02V17.377z M54.058,19.229h1.451v5.119h-1.451V19.229z"/>
	<path fill="#FFFFFF" d="M56.961,19.229h1.452v0.732c0.083-0.109,0.173-0.213,0.272-0.313c0.099-0.1,0.208-0.188,0.33-0.265
		c0.121-0.077,0.254-0.138,0.401-0.183s0.312-0.067,0.497-0.067c0.554,0,0.982,0.168,1.284,0.506
		c0.302,0.338,0.454,0.802,0.454,1.395v3.313h-1.451V21.5c0-0.343-0.077-0.602-0.229-0.776c-0.153-0.175-0.369-0.262-0.649-0.262
		c-0.28,0-0.501,0.087-0.664,0.262c-0.162,0.174-0.243,0.434-0.243,0.776v2.848h-1.452V19.229z"/>
	<path fill="#FFFFFF" d="M65.288,25.895c-0.42,0-0.821-0.046-1.204-0.139c-0.382-0.092-0.735-0.224-1.06-0.396l0.497-1.089
		c0.267,0.146,0.536,0.261,0.807,0.344c0.271,0.082,0.578,0.124,0.921,0.124c0.497,0,0.864-0.118,1.103-0.354
		s0.358-0.582,0.358-1.041v-0.248c-0.217,0.261-0.452,0.465-0.707,0.611c-0.254,0.146-0.576,0.22-0.964,0.22
		c-0.299,0-0.586-0.053-0.859-0.158c-0.274-0.104-0.516-0.259-0.726-0.463c-0.21-0.203-0.377-0.453-0.501-0.75
		c-0.124-0.296-0.186-0.635-0.186-1.017v-0.019c0-0.382,0.063-0.721,0.191-1.017c0.127-0.296,0.296-0.545,0.506-0.75
		c0.21-0.204,0.452-0.358,0.726-0.463c0.274-0.105,0.557-0.158,0.85-0.158c0.395,0,0.719,0.073,0.974,0.22
		c0.254,0.146,0.48,0.328,0.678,0.544v-0.668h1.452v3.963c0,0.91-0.216,1.582-0.649,2.015c-0.242,0.242-0.546,0.417-0.912,0.525
		C66.216,25.841,65.785,25.895,65.288,25.895z M65.46,22.725c0.178,0,0.344-0.028,0.497-0.086c0.152-0.057,0.285-0.138,0.396-0.243
		c0.111-0.105,0.199-0.231,0.263-0.377c0.063-0.146,0.096-0.306,0.096-0.478v-0.019c0-0.172-0.032-0.331-0.096-0.478
		c-0.064-0.146-0.151-0.272-0.263-0.377s-0.244-0.187-0.396-0.244c-0.153-0.057-0.319-0.086-0.497-0.086
		c-0.179,0-0.342,0.029-0.492,0.086c-0.149,0.057-0.28,0.139-0.391,0.244c-0.112,0.105-0.199,0.231-0.263,0.377
		c-0.064,0.146-0.096,0.306-0.096,0.478v0.019c0,0.357,0.118,0.643,0.354,0.859C64.807,22.617,65.103,22.725,65.46,22.725z"/>
</g>
<g>
	<g>
		<path fill="#FFFFFF" d="M341.226,19.229h1.451v0.732c0.083-0.109,0.174-0.213,0.272-0.313c0.099-0.1,0.208-0.188,0.329-0.265
			c0.121-0.077,0.257-0.138,0.406-0.183s0.316-0.067,0.501-0.067c0.338,0,0.629,0.07,0.874,0.211s0.435,0.343,0.568,0.606
			c0.223-0.269,0.471-0.473,0.745-0.611c0.273-0.138,0.585-0.207,0.936-0.207c0.541,0,0.964,0.159,1.27,0.478
			s0.459,0.786,0.459,1.404v3.333h-1.452V21.5c0-0.343-0.073-0.602-0.219-0.776c-0.147-0.175-0.357-0.262-0.631-0.262
			s-0.488,0.087-0.645,0.262c-0.156,0.174-0.233,0.434-0.233,0.776v2.848h-1.452V21.5c0-0.343-0.073-0.602-0.22-0.776
			c-0.146-0.175-0.356-0.262-0.63-0.262s-0.488,0.087-0.645,0.262c-0.156,0.174-0.234,0.434-0.234,0.776v2.848h-1.451V19.229z"/>
	</g>
	<g>
		<path fill="#FFFFFF" d="M337.703,24.462c-0.382,0-0.737-0.063-1.065-0.19c-0.327-0.128-0.61-0.309-0.85-0.545
			c-0.238-0.235-0.425-0.514-0.559-0.835c-0.134-0.322-0.2-0.68-0.2-1.075v-0.019c0-0.363,0.062-0.707,0.186-1.031
			s0.298-0.608,0.521-0.85c0.223-0.242,0.489-0.433,0.798-0.573c0.309-0.14,0.65-0.21,1.026-0.21c0.427,0,0.796,0.076,1.107,0.229
			c0.313,0.153,0.571,0.358,0.778,0.616s0.359,0.554,0.459,0.888c0.099,0.334,0.147,0.683,0.147,1.046
			c0,0.057-0.001,0.118-0.005,0.182c-0.003,0.063-0.008,0.13-0.014,0.2h-3.563c0.07,0.331,0.215,0.582,0.435,0.75
			c0.22,0.169,0.492,0.253,0.816,0.253c0.242,0,0.459-0.041,0.649-0.124c0.191-0.082,0.389-0.216,0.592-0.4l0.831,0.734
			c-0.242,0.3-0.534,0.534-0.878,0.702C338.572,24.378,338.167,24.462,337.703,24.462z M338.638,21.388
			c-0.045-0.325-0.159-0.587-0.344-0.788s-0.43-0.301-0.735-0.301s-0.553,0.099-0.74,0.296s-0.311,0.462-0.367,0.792H338.638z"/>
	</g>
	<g>
		<path fill="#FFFFFF" d="M333.089,24.434c-0.223,0-0.425-0.023-0.606-0.071s-0.338-0.133-0.468-0.253
			c-0.131-0.121-0.232-0.279-0.306-0.473c-0.073-0.194-0.11-0.441-0.11-0.74v-2.426h-0.61v-1.242h0.61v-1.308h1.452v1.308h1.203
			v1.242h-1.203v2.194c0,0.332,0.155,0.498,0.468,0.498c0.255,0,0.493-0.063,0.716-0.19v1.165c-0.152,0.089-0.321,0.161-0.506,0.215
			S333.332,24.434,333.089,24.434z"/>
	</g>
	<g>
		<path fill="#FFFFFF" d="M328.363,24.444c-0.362,0-0.733-0.063-1.112-0.187s-0.74-0.319-1.084-0.587l0.621-0.955
			c0.28,0.204,0.559,0.356,0.835,0.458c0.277,0.103,0.537,0.153,0.778,0.153c0.211,0,0.365-0.035,0.464-0.105
			s0.147-0.162,0.147-0.276v-0.02c0-0.076-0.028-0.144-0.086-0.201c-0.057-0.057-0.135-0.106-0.233-0.148
			c-0.099-0.041-0.212-0.081-0.339-0.119c-0.128-0.039-0.262-0.08-0.401-0.125c-0.179-0.051-0.358-0.113-0.54-0.186
			c-0.181-0.073-0.345-0.168-0.491-0.287c-0.146-0.118-0.267-0.262-0.358-0.434c-0.093-0.172-0.139-0.382-0.139-0.63v-0.019
			c0-0.261,0.05-0.492,0.148-0.692s0.232-0.371,0.401-0.511c0.168-0.14,0.365-0.245,0.592-0.315c0.226-0.07,0.469-0.105,0.73-0.105
			c0.324,0,0.654,0.053,0.988,0.158s0.642,0.25,0.922,0.435l-0.555,1.002c-0.254-0.146-0.503-0.263-0.744-0.349
			c-0.242-0.086-0.455-0.129-0.64-0.129c-0.179,0-0.313,0.034-0.401,0.101c-0.09,0.066-0.134,0.151-0.134,0.253v0.019
			c0,0.07,0.028,0.132,0.086,0.186c0.058,0.054,0.134,0.105,0.229,0.153c0.095,0.048,0.205,0.094,0.329,0.139
			s0.256,0.089,0.396,0.134c0.178,0.057,0.359,0.125,0.544,0.205s0.351,0.177,0.497,0.292c0.146,0.114,0.267,0.254,0.362,0.42
			s0.144,0.366,0.144,0.602v0.019c0,0.286-0.05,0.533-0.148,0.74s-0.237,0.377-0.415,0.511c-0.179,0.134-0.387,0.234-0.626,0.301
			C328.893,24.411,328.637,24.444,328.363,24.444z"/>
	</g>
	<g>
		<path fill="#FFFFFF" d="M322.156,25.905c-0.268,0-0.503-0.032-0.707-0.096s-0.398-0.149-0.583-0.258l0.487-1.051
			c0.096,0.058,0.199,0.105,0.311,0.144s0.215,0.058,0.311,0.058c0.127,0,0.228-0.024,0.301-0.072
			c0.073-0.047,0.142-0.135,0.205-0.262l-2.005-5.138h1.537l1.165,3.486l1.117-3.486h1.509l-1.967,5.243
			c-0.096,0.261-0.198,0.482-0.306,0.664c-0.108,0.182-0.228,0.329-0.358,0.443c-0.131,0.115-0.278,0.197-0.444,0.249
			C322.563,25.879,322.372,25.905,322.156,25.905z"/>
	</g>
	<g>
		<path fill="#FFFFFF" d="M317.982,24.444c-0.362,0-0.733-0.063-1.112-0.187s-0.74-0.319-1.084-0.587l0.621-0.955
			c0.28,0.204,0.559,0.356,0.835,0.458c0.277,0.103,0.537,0.153,0.778,0.153c0.211,0,0.365-0.035,0.464-0.105
			s0.147-0.162,0.147-0.276v-0.02c0-0.076-0.028-0.144-0.086-0.201c-0.057-0.057-0.135-0.106-0.233-0.148
			c-0.099-0.041-0.212-0.081-0.339-0.119c-0.128-0.039-0.262-0.08-0.401-0.125c-0.179-0.051-0.358-0.113-0.54-0.186
			c-0.181-0.073-0.345-0.168-0.491-0.287c-0.146-0.118-0.267-0.262-0.358-0.434c-0.093-0.172-0.139-0.382-0.139-0.63v-0.019
			c0-0.261,0.05-0.492,0.148-0.692s0.232-0.371,0.401-0.511c0.168-0.14,0.365-0.245,0.592-0.315c0.226-0.07,0.469-0.105,0.73-0.105
			c0.324,0,0.654,0.053,0.988,0.158s0.642,0.25,0.922,0.435l-0.555,1.002c-0.254-0.146-0.503-0.263-0.744-0.349
			c-0.242-0.086-0.455-0.129-0.64-0.129c-0.179,0-0.313,0.034-0.401,0.101c-0.09,0.066-0.134,0.151-0.134,0.253v0.019
			c0,0.07,0.028,0.132,0.086,0.186c0.058,0.054,0.134,0.105,0.229,0.153c0.095,0.048,0.205,0.094,0.329,0.139
			s0.256,0.089,0.396,0.134c0.178,0.057,0.359,0.125,0.544,0.205s0.351,0.177,0.497,0.292c0.146,0.114,0.267,0.254,0.362,0.42
			s0.144,0.366,0.144,0.602v0.019c0,0.286-0.05,0.533-0.148,0.74s-0.237,0.377-0.415,0.511c-0.179,0.134-0.387,0.234-0.626,0.301
			C318.512,24.411,318.256,24.444,317.982,24.444z"/>
	</g>
	<g>
		<path fill="#FFFFFF" d="M312.263,24.462c-0.396,0-0.761-0.068-1.099-0.205c-0.337-0.137-0.629-0.324-0.874-0.563
			c-0.245-0.238-0.438-0.519-0.577-0.84c-0.141-0.322-0.21-0.667-0.21-1.037v-0.019c0-0.369,0.069-0.714,0.21-1.036
			c0.14-0.321,0.334-0.603,0.582-0.845c0.249-0.242,0.541-0.433,0.879-0.573c0.337-0.14,0.707-0.21,1.107-0.21
			c0.395,0,0.761,0.068,1.099,0.205c0.337,0.137,0.628,0.325,0.873,0.563s0.438,0.519,0.578,0.84c0.14,0.322,0.21,0.667,0.21,1.036
			v0.019c0,0.37-0.07,0.715-0.21,1.036s-0.334,0.604-0.582,0.846c-0.249,0.241-0.542,0.433-0.879,0.572
			C313.033,24.393,312.664,24.462,312.263,24.462z M312.282,23.211c0.21,0,0.396-0.036,0.559-0.109
			c0.163-0.073,0.301-0.174,0.416-0.301c0.114-0.127,0.202-0.275,0.263-0.444c0.06-0.168,0.09-0.348,0.09-0.54v-0.019
			c0-0.191-0.031-0.371-0.095-0.54c-0.064-0.168-0.156-0.318-0.277-0.449c-0.121-0.13-0.265-0.234-0.43-0.31
			c-0.166-0.077-0.347-0.115-0.544-0.115c-0.21,0-0.396,0.037-0.559,0.11c-0.163,0.073-0.301,0.173-0.416,0.301
			c-0.114,0.127-0.202,0.275-0.263,0.444c-0.061,0.169-0.091,0.349-0.091,0.54v0.019c0,0.191,0.032,0.371,0.096,0.54
			c0.063,0.169,0.156,0.318,0.277,0.449c0.121,0.131,0.263,0.234,0.425,0.311S312.079,23.211,312.282,23.211z"/>
	</g>
	<g>
		<path fill="#FFFFFF" d="M306.763,24.462c-0.382,0-0.737-0.069-1.064-0.21c-0.328-0.14-0.61-0.329-0.846-0.568
			c-0.235-0.238-0.42-0.519-0.554-0.84s-0.2-0.664-0.2-1.027v-0.019c0-0.363,0.066-0.707,0.2-1.031s0.318-0.608,0.554-0.85
			c0.235-0.242,0.518-0.433,0.846-0.573c0.327-0.14,0.688-0.21,1.083-0.21c0.484,0,0.885,0.076,1.204,0.229
			c0.317,0.153,0.598,0.363,0.84,0.63l-0.888,0.955c-0.166-0.172-0.336-0.309-0.511-0.411c-0.176-0.102-0.394-0.153-0.654-0.153
			c-0.185,0-0.353,0.037-0.502,0.11s-0.28,0.173-0.392,0.301s-0.197,0.275-0.258,0.444c-0.061,0.169-0.091,0.349-0.091,0.54v0.019
			c0,0.198,0.03,0.382,0.091,0.554s0.148,0.321,0.263,0.449c0.115,0.127,0.252,0.228,0.411,0.301s0.337,0.109,0.534,0.109
			c0.242,0,0.454-0.049,0.636-0.147c0.181-0.099,0.361-0.23,0.539-0.396l0.85,0.859c-0.248,0.273-0.531,0.498-0.85,0.673
			C307.686,24.375,307.272,24.462,306.763,24.462z"/>
	</g>
	<g>
		<path fill="#FFFFFF" d="M298.101,17.664h5.033v1.308h-3.581v1.356h3.151v1.308h-3.151v1.403h3.629v1.309h-5.081V17.664z"/>
	</g>
	<g>
		<path fill="#FFFFFF" d="M166.397,24.444c-0.363,0-0.734-0.063-1.113-0.187s-0.74-0.319-1.084-0.587l0.621-0.955
			c0.28,0.204,0.559,0.356,0.835,0.458c0.277,0.103,0.536,0.153,0.778,0.153c0.21,0,0.364-0.035,0.463-0.105
			s0.148-0.162,0.148-0.276v-0.02c0-0.076-0.028-0.144-0.086-0.201c-0.057-0.057-0.135-0.106-0.234-0.148
			c-0.099-0.041-0.211-0.081-0.339-0.119c-0.127-0.039-0.261-0.08-0.401-0.125c-0.179-0.051-0.358-0.113-0.54-0.186
			c-0.182-0.073-0.346-0.168-0.492-0.287c-0.146-0.118-0.266-0.262-0.358-0.434s-0.138-0.382-0.138-0.63v-0.019
			c0-0.261,0.049-0.492,0.148-0.692c0.099-0.201,0.232-0.371,0.401-0.511c0.168-0.14,0.366-0.245,0.592-0.315
			c0.226-0.07,0.469-0.105,0.73-0.105c0.325,0,0.654,0.053,0.988,0.158c0.334,0.105,0.641,0.25,0.921,0.435l-0.554,1.002
			c-0.255-0.146-0.503-0.263-0.745-0.349c-0.242-0.086-0.455-0.129-0.64-0.129c-0.178,0-0.312,0.034-0.401,0.101
			c-0.089,0.066-0.134,0.151-0.134,0.253v0.019c0,0.07,0.028,0.132,0.086,0.186c0.057,0.054,0.134,0.105,0.229,0.153
			c0.096,0.048,0.206,0.094,0.33,0.139s0.256,0.089,0.396,0.134c0.178,0.057,0.359,0.125,0.544,0.205s0.35,0.177,0.497,0.292
			c0.146,0.114,0.268,0.254,0.363,0.42c0.096,0.166,0.144,0.366,0.144,0.602v0.019c0,0.286-0.049,0.533-0.148,0.74
			c-0.099,0.207-0.237,0.377-0.416,0.511s-0.387,0.234-0.625,0.301C166.927,24.411,166.67,24.444,166.397,24.444z"/>
	</g>
	<g>
		<path fill="#FFFFFF" d="M161.078,24.462c-0.382,0-0.737-0.063-1.064-0.19c-0.328-0.128-0.611-0.309-0.85-0.545
			c-0.239-0.235-0.425-0.514-0.559-0.835c-0.134-0.322-0.201-0.68-0.201-1.075v-0.019c0-0.363,0.063-0.707,0.187-1.031
			s0.297-0.608,0.521-0.85c0.223-0.242,0.488-0.433,0.797-0.573c0.309-0.14,0.651-0.21,1.026-0.21c0.426,0,0.796,0.076,1.108,0.229
			c0.312,0.153,0.571,0.358,0.778,0.616c0.207,0.258,0.36,0.554,0.458,0.888c0.099,0.334,0.148,0.683,0.148,1.046
			c0,0.057-0.001,0.118-0.004,0.182c-0.003,0.063-0.008,0.13-0.015,0.2h-3.562c0.07,0.331,0.215,0.582,0.435,0.75
			c0.22,0.169,0.492,0.253,0.816,0.253c0.242,0,0.458-0.041,0.649-0.124c0.191-0.082,0.388-0.216,0.592-0.4l0.831,0.734
			c-0.242,0.3-0.535,0.534-0.878,0.702C161.947,24.378,161.542,24.462,161.078,24.462z M162.014,21.388
			c-0.044-0.325-0.159-0.587-0.344-0.788s-0.43-0.301-0.735-0.301s-0.552,0.099-0.74,0.296c-0.188,0.197-0.31,0.462-0.368,0.792
			H162.014z"/>
	</g>
	<g>
		<path fill="#FFFFFF" d="M154.403,25.895c-0.42,0-0.821-0.046-1.204-0.139c-0.382-0.092-0.735-0.224-1.06-0.396l0.497-1.089
			c0.267,0.146,0.536,0.261,0.807,0.344c0.271,0.082,0.578,0.124,0.921,0.124c0.497,0,0.864-0.118,1.103-0.354
			s0.358-0.582,0.358-1.041v-0.248c-0.217,0.261-0.452,0.465-0.707,0.611c-0.254,0.146-0.576,0.22-0.964,0.22
			c-0.299,0-0.586-0.053-0.859-0.158c-0.274-0.104-0.516-0.259-0.726-0.463c-0.21-0.203-0.377-0.453-0.501-0.75
			c-0.124-0.296-0.186-0.635-0.186-1.017v-0.019c0-0.382,0.063-0.721,0.191-1.017c0.127-0.296,0.296-0.545,0.506-0.75
			c0.21-0.204,0.452-0.358,0.726-0.463c0.274-0.105,0.557-0.158,0.85-0.158c0.395,0,0.719,0.073,0.974,0.22
			c0.254,0.146,0.48,0.328,0.678,0.544v-0.668h1.452v3.963c0,0.91-0.216,1.582-0.649,2.015c-0.242,0.242-0.546,0.417-0.912,0.525
			C155.331,25.841,154.9,25.895,154.403,25.895z M154.575,22.725c0.178,0,0.344-0.028,0.497-0.086
			c0.152-0.057,0.285-0.138,0.396-0.243c0.111-0.105,0.199-0.231,0.263-0.377c0.063-0.146,0.096-0.306,0.096-0.478v-0.019
			c0-0.172-0.032-0.331-0.096-0.478c-0.064-0.146-0.151-0.272-0.263-0.377s-0.244-0.187-0.396-0.244
			c-0.153-0.057-0.319-0.086-0.497-0.086c-0.179,0-0.342,0.029-0.492,0.086c-0.149,0.057-0.28,0.139-0.391,0.244
			c-0.112,0.105-0.199,0.231-0.263,0.377c-0.064,0.146-0.096,0.306-0.096,0.478v0.019c0,0.357,0.118,0.643,0.354,0.859
			C153.922,22.617,154.218,22.725,154.575,22.725z"/>
	</g>
	<g>
		<path fill="#FFFFFF" d="M147.815,24.444c-0.242,0-0.47-0.033-0.683-0.101c-0.213-0.066-0.399-0.167-0.559-0.301
			s-0.285-0.298-0.377-0.492c-0.093-0.193-0.139-0.418-0.139-0.673v-0.019c0-0.28,0.051-0.522,0.153-0.726
			c0.102-0.204,0.244-0.373,0.425-0.506c0.182-0.134,0.398-0.234,0.649-0.301s0.53-0.1,0.835-0.1c0.261,0,0.489,0.019,0.683,0.057
			c0.194,0.038,0.383,0.089,0.568,0.153V21.35c0-0.306-0.092-0.538-0.277-0.697c-0.185-0.159-0.458-0.238-0.821-0.238
			c-0.28,0-0.527,0.023-0.74,0.071c-0.213,0.048-0.438,0.116-0.673,0.206l-0.363-1.108c0.28-0.121,0.573-0.22,0.878-0.296
			c0.306-0.077,0.675-0.115,1.108-0.115c0.401,0,0.743,0.049,1.026,0.148c0.283,0.099,0.517,0.241,0.702,0.425
			c0.191,0.191,0.331,0.425,0.42,0.702c0.089,0.277,0.134,0.587,0.134,0.931v2.97h-1.404v-0.554
			c-0.178,0.197-0.392,0.354-0.64,0.473C148.474,24.384,148.171,24.444,147.815,24.444z M148.254,23.441
			c0.344,0,0.619-0.083,0.826-0.248c0.207-0.166,0.31-0.382,0.31-0.649v-0.258c-0.127-0.058-0.269-0.104-0.425-0.139
			c-0.156-0.035-0.323-0.052-0.501-0.052c-0.312,0-0.557,0.061-0.735,0.181c-0.179,0.121-0.268,0.296-0.268,0.525v0.019
			c0,0.198,0.073,0.351,0.22,0.459S148.019,23.441,148.254,23.441z"/>
	</g>
	<g>
		<path fill="#FFFFFF" d="M143.269,24.444c-0.363,0-0.734-0.063-1.113-0.187s-0.74-0.319-1.084-0.587l0.621-0.955
			c0.28,0.204,0.559,0.356,0.835,0.458c0.277,0.103,0.536,0.153,0.778,0.153c0.21,0,0.364-0.035,0.463-0.105
			s0.148-0.162,0.148-0.276v-0.02c0-0.076-0.028-0.144-0.086-0.201c-0.057-0.057-0.135-0.106-0.234-0.148
			c-0.099-0.041-0.211-0.081-0.339-0.119c-0.127-0.039-0.261-0.08-0.401-0.125c-0.179-0.051-0.358-0.113-0.54-0.186
			c-0.182-0.073-0.346-0.168-0.492-0.287c-0.146-0.118-0.266-0.262-0.358-0.434s-0.138-0.382-0.138-0.63v-0.019
			c0-0.261,0.049-0.492,0.148-0.692c0.099-0.201,0.232-0.371,0.401-0.511c0.168-0.14,0.366-0.245,0.592-0.315
			c0.226-0.07,0.469-0.105,0.73-0.105c0.325,0,0.654,0.053,0.988,0.158c0.334,0.105,0.641,0.25,0.921,0.435l-0.554,1.002
			c-0.255-0.146-0.503-0.263-0.745-0.349c-0.242-0.086-0.455-0.129-0.64-0.129c-0.178,0-0.312,0.034-0.401,0.101
			c-0.089,0.066-0.134,0.151-0.134,0.253v0.019c0,0.07,0.028,0.132,0.086,0.186c0.057,0.054,0.134,0.105,0.229,0.153
			c0.096,0.048,0.206,0.094,0.33,0.139s0.256,0.089,0.396,0.134c0.178,0.057,0.359,0.125,0.544,0.205s0.35,0.177,0.497,0.292
			c0.146,0.114,0.268,0.254,0.363,0.42c0.096,0.166,0.144,0.366,0.144,0.602v0.019c0,0.286-0.049,0.533-0.148,0.74
			c-0.099,0.207-0.237,0.377-0.416,0.511s-0.387,0.234-0.625,0.301C143.799,24.411,143.542,24.444,143.269,24.444z"/>
	</g>
	<g>
		<path fill="#FFFFFF" d="M138.475,24.444c-0.363,0-0.734-0.063-1.113-0.187s-0.74-0.319-1.084-0.587l0.621-0.955
			c0.28,0.204,0.559,0.356,0.835,0.458c0.277,0.103,0.536,0.153,0.778,0.153c0.21,0,0.364-0.035,0.463-0.105
			s0.148-0.162,0.148-0.276v-0.02c0-0.076-0.028-0.144-0.086-0.201c-0.057-0.057-0.135-0.106-0.234-0.148
			c-0.099-0.041-0.211-0.081-0.339-0.119c-0.127-0.039-0.261-0.08-0.401-0.125c-0.179-0.051-0.358-0.113-0.54-0.186
			c-0.182-0.073-0.346-0.168-0.492-0.287c-0.146-0.118-0.266-0.262-0.358-0.434s-0.138-0.382-0.138-0.63v-0.019
			c0-0.261,0.049-0.492,0.148-0.692c0.099-0.201,0.232-0.371,0.401-0.511c0.168-0.14,0.366-0.245,0.592-0.315
			c0.226-0.07,0.469-0.105,0.73-0.105c0.325,0,0.654,0.053,0.988,0.158c0.334,0.105,0.641,0.25,0.921,0.435l-0.554,1.002
			c-0.255-0.146-0.503-0.263-0.745-0.349c-0.242-0.086-0.455-0.129-0.64-0.129c-0.178,0-0.312,0.034-0.401,0.101
			c-0.089,0.066-0.134,0.151-0.134,0.253v0.019c0,0.07,0.028,0.132,0.086,0.186c0.057,0.054,0.134,0.105,0.229,0.153
			c0.096,0.048,0.206,0.094,0.33,0.139s0.256,0.089,0.396,0.134c0.178,0.057,0.359,0.125,0.544,0.205s0.35,0.177,0.497,0.292
			c0.146,0.114,0.268,0.254,0.363,0.42c0.096,0.166,0.144,0.366,0.144,0.602v0.019c0,0.286-0.049,0.533-0.148,0.74
			c-0.099,0.207-0.237,0.377-0.416,0.511s-0.387,0.234-0.625,0.301C139.005,24.411,138.749,24.444,138.475,24.444z"/>
	</g>
	<g>
		<path fill="#FFFFFF" d="M133.156,24.462c-0.382,0-0.737-0.063-1.064-0.19c-0.328-0.128-0.611-0.309-0.85-0.545
			c-0.239-0.235-0.425-0.514-0.559-0.835c-0.134-0.322-0.201-0.68-0.201-1.075v-0.019c0-0.363,0.063-0.707,0.187-1.031
			s0.297-0.608,0.521-0.85c0.223-0.242,0.488-0.433,0.797-0.573c0.309-0.14,0.651-0.21,1.026-0.21c0.426,0,0.796,0.076,1.108,0.229
			c0.312,0.153,0.571,0.358,0.778,0.616c0.207,0.258,0.36,0.554,0.458,0.888c0.099,0.334,0.148,0.683,0.148,1.046
			c0,0.057-0.001,0.118-0.004,0.182c-0.003,0.063-0.008,0.13-0.015,0.2h-3.562c0.07,0.331,0.215,0.582,0.435,0.75
			c0.22,0.169,0.492,0.253,0.816,0.253c0.242,0,0.458-0.041,0.649-0.124c0.191-0.082,0.388-0.216,0.592-0.4l0.831,0.734
			c-0.242,0.3-0.535,0.534-0.878,0.702C134.025,24.378,133.621,24.462,133.156,24.462z M134.092,21.388
			c-0.044-0.325-0.159-0.587-0.344-0.788s-0.43-0.301-0.735-0.301s-0.552,0.099-0.74,0.296c-0.188,0.197-0.31,0.462-0.368,0.792
			H134.092z"/>
	</g>
	<g>
		<path fill="#FFFFFF" d="M122.499,17.664h1.585l1.757,2.827l1.757-2.827h1.585v6.685h-1.452v-4.364l-1.881,2.855h-0.038
			l-1.862-2.827v4.335h-1.451V17.664z"/>
	</g>
</g>
<g>
	<path fill="#FFFFFF" d="M383.825,17.616h1.356l2.864,6.732h-1.537l-0.611-1.499h-2.826l-0.611,1.499h-1.499L383.825,17.616z
		 M385.372,21.55l-0.888-2.168l-0.888,2.168H385.372z"/>
	<path fill="#FFFFFF" d="M391.207,24.462c-0.382,0-0.737-0.069-1.064-0.21c-0.328-0.14-0.61-0.329-0.846-0.568
		c-0.235-0.238-0.42-0.519-0.554-0.84s-0.2-0.664-0.2-1.027v-0.019c0-0.363,0.066-0.707,0.2-1.031s0.318-0.608,0.554-0.85
		c0.235-0.242,0.518-0.433,0.846-0.573c0.327-0.14,0.688-0.21,1.083-0.21c0.484,0,0.885,0.076,1.204,0.229
		c0.317,0.153,0.598,0.363,0.84,0.63l-0.888,0.955c-0.166-0.172-0.336-0.309-0.511-0.411c-0.176-0.102-0.394-0.153-0.654-0.153
		c-0.185,0-0.353,0.037-0.502,0.11s-0.28,0.173-0.392,0.301s-0.197,0.275-0.258,0.444c-0.061,0.169-0.091,0.349-0.091,0.54v0.019
		c0,0.198,0.03,0.382,0.091,0.554s0.148,0.321,0.263,0.449c0.115,0.127,0.252,0.228,0.411,0.301s0.337,0.109,0.534,0.109
		c0.242,0,0.454-0.049,0.636-0.147c0.181-0.099,0.361-0.23,0.539-0.396l0.85,0.859c-0.248,0.273-0.531,0.498-0.85,0.673
		C392.129,24.375,391.715,24.462,391.207,24.462z"/>
	<path fill="#FFFFFF" d="M396.058,24.434c-0.223,0-0.425-0.023-0.606-0.071s-0.338-0.133-0.468-0.253
		c-0.131-0.121-0.232-0.279-0.306-0.473c-0.073-0.194-0.11-0.441-0.11-0.74v-2.426h-0.61v-1.242h0.61v-1.308h1.452v1.308h1.203
		v1.242h-1.203v2.194c0,0.332,0.155,0.498,0.468,0.498c0.255,0,0.493-0.063,0.716-0.19v1.165c-0.152,0.089-0.321,0.161-0.506,0.215
		S396.3,24.434,396.058,24.434z"/>
	<path fill="#FFFFFF" d="M398.416,17.377h1.528v1.29h-1.528V17.377z M398.454,19.229h1.452v5.119h-1.452V19.229z"/>
	<path fill="#FFFFFF" d="M403.878,24.462c-0.396,0-0.761-0.068-1.099-0.205c-0.337-0.137-0.629-0.324-0.874-0.563
		c-0.245-0.238-0.438-0.519-0.577-0.84c-0.141-0.322-0.21-0.667-0.21-1.037v-0.019c0-0.369,0.069-0.714,0.21-1.036
		c0.14-0.321,0.334-0.603,0.582-0.845c0.249-0.242,0.541-0.433,0.879-0.573c0.337-0.14,0.707-0.21,1.107-0.21
		c0.395,0,0.761,0.068,1.099,0.205c0.337,0.137,0.628,0.325,0.873,0.563s0.438,0.519,0.578,0.84c0.14,0.322,0.21,0.667,0.21,1.036
		v0.019c0,0.37-0.07,0.715-0.21,1.036s-0.334,0.604-0.582,0.846c-0.249,0.241-0.542,0.433-0.879,0.572
		C404.648,24.393,404.279,24.462,403.878,24.462z M403.897,23.211c0.21,0,0.396-0.036,0.559-0.109
		c0.163-0.073,0.301-0.174,0.416-0.301c0.114-0.127,0.202-0.275,0.263-0.444c0.06-0.168,0.09-0.348,0.09-0.54v-0.019
		c0-0.191-0.031-0.371-0.095-0.54c-0.064-0.168-0.156-0.318-0.277-0.449c-0.121-0.13-0.265-0.234-0.43-0.31
		c-0.166-0.077-0.347-0.115-0.544-0.115c-0.21,0-0.396,0.037-0.559,0.11c-0.163,0.073-0.301,0.173-0.416,0.301
		c-0.114,0.127-0.202,0.275-0.263,0.444c-0.061,0.169-0.091,0.349-0.091,0.54v0.019c0,0.191,0.032,0.371,0.096,0.54
		c0.063,0.169,0.156,0.318,0.277,0.449c0.121,0.131,0.263,0.234,0.425,0.311S403.694,23.211,403.897,23.211z"/>
	<path fill="#FFFFFF" d="M407.803,19.229h1.451v0.732c0.083-0.109,0.174-0.213,0.272-0.313c0.099-0.1,0.208-0.188,0.329-0.265
		c0.121-0.077,0.255-0.138,0.401-0.183s0.312-0.067,0.496-0.067c0.555,0,0.982,0.168,1.285,0.506
		c0.302,0.338,0.453,0.802,0.453,1.395v3.313h-1.451V21.5c0-0.343-0.076-0.602-0.229-0.776c-0.152-0.175-0.369-0.262-0.649-0.262
		s-0.501,0.087-0.663,0.262c-0.163,0.174-0.244,0.434-0.244,0.776v2.848h-1.451V19.229z"/>
	<path fill="#FFFFFF" d="M416.96,17.664h2.731c0.401,0,0.759,0.056,1.074,0.167c0.315,0.112,0.583,0.269,0.803,0.473
		c0.219,0.204,0.388,0.448,0.506,0.731c0.117,0.283,0.177,0.597,0.177,0.94v0.019c0,0.388-0.07,0.729-0.21,1.022
		c-0.141,0.292-0.333,0.538-0.578,0.735s-0.531,0.345-0.859,0.444s-0.68,0.148-1.056,0.148h-1.117v2.005h-1.471V17.664z
		 M419.596,21.035c0.369,0,0.656-0.097,0.859-0.292c0.204-0.194,0.306-0.435,0.306-0.721v-0.019c0-0.331-0.106-0.583-0.319-0.754
		c-0.214-0.172-0.505-0.258-0.874-0.258h-1.137v2.043H419.596z"/>
	<path fill="#FFFFFF" d="M423.339,17.377h1.452v6.971h-1.452V17.377z"/>
	<path fill="#FFFFFF" d="M427.703,24.444c-0.242,0-0.47-0.033-0.683-0.101c-0.213-0.066-0.399-0.167-0.559-0.301
		s-0.285-0.298-0.377-0.492c-0.093-0.193-0.139-0.418-0.139-0.673v-0.019c0-0.28,0.051-0.522,0.152-0.726
		c0.103-0.204,0.244-0.373,0.426-0.506c0.181-0.134,0.397-0.234,0.649-0.301c0.251-0.067,0.529-0.1,0.835-0.1
		c0.261,0,0.488,0.019,0.683,0.057s0.384,0.089,0.568,0.153V21.35c0-0.306-0.092-0.538-0.276-0.697
		c-0.186-0.159-0.459-0.238-0.821-0.238c-0.28,0-0.527,0.023-0.74,0.071c-0.214,0.048-0.438,0.116-0.674,0.206l-0.362-1.108
		c0.28-0.121,0.573-0.22,0.878-0.296c0.306-0.077,0.675-0.115,1.108-0.115c0.4,0,0.743,0.049,1.026,0.148
		c0.283,0.099,0.518,0.241,0.702,0.425c0.19,0.191,0.331,0.425,0.42,0.702s0.134,0.587,0.134,0.931v2.97h-1.404v-0.554
		c-0.178,0.197-0.392,0.354-0.64,0.473C428.362,24.384,428.059,24.444,427.703,24.444z M428.142,23.441
		c0.344,0,0.619-0.083,0.826-0.248c0.207-0.166,0.311-0.382,0.311-0.649v-0.258c-0.128-0.058-0.27-0.104-0.425-0.139
		c-0.156-0.035-0.323-0.052-0.502-0.052c-0.312,0-0.557,0.061-0.735,0.181c-0.178,0.121-0.268,0.296-0.268,0.525v0.019
		c0,0.198,0.073,0.351,0.22,0.459S427.907,23.441,428.142,23.441z"/>
	<path fill="#FFFFFF" d="M432,19.229h1.451v0.732c0.083-0.109,0.174-0.213,0.272-0.313c0.099-0.1,0.208-0.188,0.329-0.265
		c0.121-0.077,0.255-0.138,0.401-0.183s0.312-0.067,0.496-0.067c0.555,0,0.982,0.168,1.285,0.506
		c0.302,0.338,0.453,0.802,0.453,1.395v3.313h-1.451V21.5c0-0.343-0.076-0.602-0.229-0.776c-0.152-0.175-0.369-0.262-0.649-0.262
		s-0.501,0.087-0.663,0.262c-0.163,0.174-0.244,0.434-0.244,0.776v2.848H432V19.229z"/>
</g>
<g>
	<path fill="#FFFFFF" d="M218.221,13.682h3.098c0.769,0,1.351,0.197,1.745,0.592c0.305,0.305,0.458,0.684,0.458,1.136v0.019
		c0,0.191-0.024,0.36-0.071,0.506s-0.111,0.278-0.19,0.396c-0.079,0.118-0.17,0.221-0.275,0.311s-0.217,0.166-0.337,0.229
		c0.387,0.146,0.691,0.346,0.913,0.597c0.222,0.252,0.333,0.6,0.333,1.046v0.019c0,0.306-0.059,0.573-0.177,0.802
		c-0.117,0.229-0.286,0.42-0.505,0.573c-0.219,0.153-0.483,0.268-0.791,0.344c-0.308,0.077-0.65,0.115-1.025,0.115h-3.174V13.682z
		 M221.009,16.384c0.325,0,0.583-0.056,0.774-0.167c0.191-0.111,0.286-0.291,0.286-0.539v-0.02c0-0.223-0.083-0.393-0.248-0.511
		c-0.166-0.118-0.404-0.177-0.716-0.177h-1.452v1.414H221.009z M221.401,19.077c0.325,0,0.58-0.059,0.764-0.177
		s0.277-0.301,0.277-0.549v-0.019c0-0.223-0.086-0.399-0.258-0.53s-0.449-0.196-0.831-0.196h-1.7v1.471H221.401z"/>
	<path fill="#FFFFFF" d="M225.058,15.248h1.452v1.032c0.146-0.35,0.347-0.63,0.602-0.84c0.254-0.21,0.598-0.306,1.031-0.287v1.518
		h-0.077c-0.484,0-0.864,0.147-1.141,0.439c-0.277,0.293-0.415,0.748-0.415,1.366v1.891h-1.452V15.248z"/>
	<path fill="#FFFFFF" d="M230.358,20.462c-0.242,0-0.47-0.034-0.683-0.101s-0.399-0.167-0.559-0.301s-0.285-0.297-0.377-0.492
		c-0.093-0.194-0.139-0.418-0.139-0.673v-0.019c0-0.28,0.051-0.522,0.153-0.726c0.102-0.204,0.244-0.373,0.425-0.506
		c0.181-0.134,0.397-0.234,0.649-0.301c0.251-0.067,0.529-0.1,0.835-0.1c0.261,0,0.488,0.019,0.683,0.057s0.384,0.089,0.568,0.153
		v-0.086c0-0.306-0.092-0.538-0.276-0.697c-0.186-0.159-0.459-0.238-0.821-0.238c-0.28,0-0.527,0.023-0.74,0.071
		c-0.214,0.048-0.438,0.116-0.674,0.206l-0.362-1.108c0.28-0.121,0.573-0.22,0.878-0.296c0.306-0.077,0.675-0.115,1.108-0.115
		c0.4,0,0.743,0.049,1.026,0.148c0.283,0.099,0.518,0.241,0.702,0.425c0.19,0.191,0.331,0.425,0.42,0.702s0.134,0.587,0.134,0.931
		v2.97h-1.404v-0.554c-0.178,0.197-0.392,0.355-0.64,0.473S230.714,20.462,230.358,20.462z M230.797,19.459
		c0.344,0,0.619-0.083,0.826-0.248s0.311-0.382,0.311-0.649v-0.258c-0.128-0.058-0.27-0.104-0.425-0.139
		c-0.156-0.035-0.323-0.052-0.502-0.052c-0.312,0-0.557,0.061-0.735,0.181c-0.178,0.121-0.268,0.296-0.268,0.525v0.019
		c0,0.197,0.073,0.35,0.22,0.458C230.371,19.405,230.562,19.459,230.797,19.459z"/>
	<path fill="#FFFFFF" d="M234.656,15.248h1.451v0.732c0.083-0.109,0.174-0.213,0.272-0.313c0.099-0.1,0.208-0.188,0.329-0.265
		c0.121-0.077,0.255-0.138,0.401-0.183s0.312-0.067,0.496-0.067c0.555,0,0.982,0.168,1.285,0.506
		c0.302,0.338,0.453,0.802,0.453,1.395v3.313h-1.451v-2.848c0-0.343-0.076-0.602-0.229-0.776c-0.152-0.175-0.369-0.262-0.649-0.262
		s-0.501,0.087-0.663,0.262c-0.163,0.174-0.244,0.434-0.244,0.776v2.848h-1.451V15.248z"/>
	<path fill="#FFFFFF" d="M242.8,20.462c-0.299,0-0.589-0.058-0.869-0.172c-0.28-0.115-0.528-0.285-0.744-0.511
		c-0.217-0.226-0.391-0.503-0.521-0.831c-0.131-0.328-0.196-0.705-0.196-1.132v-0.019c0-0.426,0.065-0.804,0.196-1.131
		c0.13-0.328,0.302-0.605,0.516-0.831c0.213-0.226,0.46-0.396,0.74-0.511c0.279-0.115,0.572-0.172,0.878-0.172
		c0.389,0,0.708,0.076,0.96,0.229c0.251,0.153,0.463,0.331,0.635,0.535v-2.521h1.452v6.971h-1.452v-0.735
		c-0.178,0.242-0.393,0.441-0.645,0.597C243.5,20.384,243.182,20.462,242.8,20.462z M243.173,19.23c0.172,0,0.332-0.034,0.481-0.101
		s0.28-0.162,0.392-0.286c0.111-0.125,0.201-0.274,0.268-0.449c0.067-0.175,0.101-0.367,0.101-0.578v-0.019
		c0-0.21-0.033-0.402-0.101-0.578c-0.066-0.175-0.156-0.325-0.268-0.449s-0.242-0.22-0.392-0.287s-0.31-0.1-0.481-0.1
		s-0.333,0.033-0.482,0.1s-0.282,0.163-0.396,0.287s-0.205,0.272-0.272,0.444c-0.066,0.172-0.1,0.366-0.1,0.583v0.019
		c0,0.21,0.033,0.403,0.1,0.578c0.067,0.175,0.158,0.325,0.272,0.449c0.114,0.124,0.247,0.219,0.396,0.286
		S243.001,19.23,243.173,19.23z"/>
</g>
<g>
	<path fill="#FFFFFF" d="M214.191,30.01c-0.509,0-1.009-0.088-1.499-0.263c-0.491-0.175-0.936-0.444-1.337-0.807l0.869-1.041
		c0.306,0.248,0.619,0.445,0.941,0.592c0.321,0.146,0.673,0.22,1.055,0.22c0.306,0,0.542-0.056,0.711-0.167
		c0.168-0.111,0.253-0.266,0.253-0.463v-0.02c0-0.096-0.018-0.18-0.053-0.253s-0.102-0.142-0.201-0.205
		c-0.099-0.063-0.236-0.128-0.412-0.191c-0.176-0.063-0.404-0.131-0.685-0.2c-0.338-0.083-0.645-0.176-0.919-0.277
		c-0.274-0.102-0.507-0.228-0.699-0.377s-0.34-0.336-0.445-0.559c-0.105-0.223-0.158-0.5-0.158-0.831V25.15
		c0-0.306,0.057-0.581,0.17-0.826s0.273-0.457,0.479-0.636c0.206-0.178,0.451-0.314,0.737-0.41c0.285-0.096,0.6-0.144,0.944-0.144
		c0.49,0,0.94,0.073,1.351,0.22s0.788,0.356,1.131,0.631l-0.764,1.107c-0.299-0.204-0.592-0.364-0.878-0.482
		c-0.287-0.118-0.573-0.177-0.86-0.177c-0.286,0-0.501,0.056-0.645,0.167c-0.143,0.111-0.215,0.25-0.215,0.416v0.019
		c0,0.108,0.021,0.202,0.063,0.282c0.042,0.079,0.116,0.151,0.225,0.215c0.108,0.063,0.257,0.124,0.445,0.181
		c0.188,0.058,0.426,0.125,0.713,0.201c0.338,0.089,0.64,0.189,0.905,0.301c0.265,0.111,0.488,0.245,0.67,0.401
		c0.182,0.155,0.319,0.339,0.412,0.549c0.093,0.21,0.139,0.462,0.139,0.754v0.02c0,0.331-0.061,0.625-0.181,0.883
		s-0.288,0.475-0.502,0.649c-0.215,0.176-0.472,0.31-0.77,0.401C214.885,29.963,214.554,30.01,214.191,30.01z"/>
	<path fill="#FFFFFF" d="M219.568,30c-0.223,0-0.425-0.023-0.606-0.071c-0.182-0.048-0.337-0.133-0.468-0.253
		c-0.131-0.121-0.233-0.279-0.306-0.473c-0.073-0.194-0.11-0.441-0.11-0.74v-2.426h-0.611v-1.241h0.611v-1.309h1.451v1.309h1.204
		v1.241h-1.204v2.194c0,0.332,0.156,0.498,0.468,0.498c0.254,0,0.493-0.063,0.716-0.19v1.165c-0.153,0.089-0.322,0.161-0.506,0.215
		S219.81,30,219.568,30z"/>
	<path fill="#FFFFFF" d="M221.878,24.796h1.452v1.031c0.146-0.351,0.347-0.631,0.602-0.841c0.254-0.21,0.598-0.306,1.031-0.286
		v1.519h-0.077c-0.484,0-0.864,0.146-1.141,0.439c-0.277,0.292-0.415,0.748-0.415,1.365v1.891h-1.452V24.796z"/>
	<path fill="#FFFFFF" d="M227.188,30.01c-0.242,0-0.47-0.033-0.683-0.101c-0.213-0.066-0.399-0.167-0.559-0.301
		s-0.285-0.298-0.377-0.492c-0.093-0.193-0.139-0.418-0.139-0.673v-0.019c0-0.28,0.051-0.522,0.153-0.727
		c0.102-0.203,0.244-0.372,0.425-0.506c0.182-0.134,0.398-0.233,0.649-0.301c0.251-0.066,0.53-0.101,0.835-0.101
		c0.261,0,0.489,0.02,0.683,0.058c0.194,0.038,0.383,0.089,0.568,0.153v-0.086c0-0.306-0.092-0.538-0.277-0.697
		s-0.458-0.239-0.821-0.239c-0.28,0-0.527,0.024-0.74,0.072c-0.213,0.047-0.438,0.116-0.673,0.205l-0.363-1.107
		c0.28-0.121,0.573-0.22,0.878-0.297c0.306-0.076,0.675-0.114,1.108-0.114c0.401,0,0.743,0.05,1.026,0.148
		c0.283,0.099,0.517,0.24,0.702,0.425c0.191,0.19,0.331,0.425,0.42,0.701c0.09,0.277,0.134,0.588,0.134,0.932v2.97h-1.403v-0.554
		c-0.178,0.197-0.392,0.354-0.64,0.473C227.847,29.951,227.544,30.01,227.188,30.01z M227.627,29.007
		c0.344,0,0.619-0.083,0.826-0.248c0.207-0.166,0.31-0.382,0.31-0.649v-0.258c-0.127-0.058-0.269-0.104-0.425-0.139
		s-0.323-0.053-0.501-0.053c-0.312,0-0.557,0.061-0.735,0.182c-0.179,0.121-0.268,0.296-0.268,0.525v0.019
		c0,0.198,0.073,0.351,0.22,0.459S227.392,29.007,227.627,29.007z"/>
	<path fill="#FFFFFF" d="M233.166,30c-0.223,0-0.425-0.023-0.606-0.071s-0.338-0.133-0.468-0.253
		c-0.131-0.121-0.232-0.279-0.306-0.473c-0.073-0.194-0.11-0.441-0.11-0.74v-2.426h-0.61v-1.241h0.61v-1.309h1.452v1.309h1.203
		v1.241h-1.203v2.194c0,0.332,0.155,0.498,0.468,0.498c0.255,0,0.493-0.063,0.716-0.19v1.165c-0.152,0.089-0.321,0.161-0.506,0.215
		S233.408,30,233.166,30z"/>
	<path fill="#FFFFFF" d="M237.778,30.029c-0.382,0-0.737-0.063-1.065-0.19c-0.327-0.128-0.61-0.309-0.85-0.545
		c-0.238-0.235-0.425-0.514-0.559-0.835s-0.2-0.68-0.2-1.074v-0.02c0-0.362,0.062-0.706,0.186-1.031
		c0.124-0.324,0.298-0.607,0.521-0.85s0.489-0.433,0.798-0.573c0.309-0.14,0.65-0.21,1.026-0.21c0.427,0,0.796,0.076,1.107,0.229
		c0.313,0.152,0.571,0.357,0.778,0.615s0.359,0.554,0.459,0.889c0.099,0.334,0.147,0.683,0.147,1.045
		c0,0.058-0.001,0.118-0.005,0.182c-0.003,0.064-0.008,0.131-0.014,0.201h-3.563c0.07,0.331,0.215,0.581,0.435,0.749
		c0.22,0.169,0.492,0.253,0.816,0.253c0.242,0,0.459-0.041,0.649-0.124c0.191-0.082,0.389-0.216,0.592-0.4l0.831,0.734
		c-0.242,0.3-0.534,0.534-0.878,0.702C238.647,29.945,238.242,30.029,237.778,30.029z M238.713,26.955
		c-0.045-0.325-0.159-0.588-0.344-0.788s-0.43-0.301-0.735-0.301s-0.553,0.099-0.74,0.296s-0.311,0.462-0.367,0.793H238.713z"/>
	<path fill="#FFFFFF" d="M243.584,31.461c-0.42,0-0.821-0.046-1.203-0.139c-0.382-0.092-0.735-0.224-1.061-0.396l0.497-1.089
		c0.268,0.146,0.536,0.261,0.807,0.344c0.271,0.082,0.578,0.124,0.922,0.124c0.496,0,0.864-0.118,1.103-0.354
		c0.239-0.235,0.358-0.582,0.358-1.041v-0.248c-0.217,0.261-0.452,0.465-0.707,0.611s-0.576,0.22-0.964,0.22
		c-0.3,0-0.586-0.053-0.86-0.158c-0.273-0.104-0.516-0.259-0.726-0.463c-0.21-0.203-0.377-0.453-0.501-0.749
		c-0.124-0.297-0.187-0.636-0.187-1.018v-0.019c0-0.383,0.063-0.722,0.191-1.018c0.127-0.296,0.296-0.546,0.506-0.749
		c0.21-0.204,0.452-0.358,0.726-0.464c0.273-0.104,0.558-0.157,0.851-0.157c0.395,0,0.719,0.073,0.974,0.22s0.48,0.328,0.678,0.544
		v-0.668h1.452v3.963c0,0.91-0.217,1.582-0.649,2.015c-0.242,0.242-0.546,0.417-0.912,0.525S244.081,31.461,243.584,31.461z
		 M243.756,28.292c0.178,0,0.344-0.029,0.496-0.086c0.153-0.058,0.285-0.139,0.396-0.244c0.111-0.104,0.199-0.23,0.263-0.377
		s0.096-0.306,0.096-0.478v-0.019c0-0.172-0.032-0.331-0.096-0.478s-0.151-0.272-0.263-0.378c-0.111-0.104-0.243-0.186-0.396-0.243
		c-0.152-0.058-0.318-0.086-0.496-0.086c-0.179,0-0.343,0.028-0.492,0.086s-0.28,0.139-0.392,0.243
		c-0.111,0.105-0.199,0.231-0.263,0.378s-0.095,0.306-0.095,0.478v0.019c0,0.356,0.117,0.644,0.353,0.859
		C243.103,28.183,243.4,28.292,243.756,28.292z"/>
	<path fill="#FFFFFF" d="M249.046,31.471c-0.268,0-0.503-0.032-0.707-0.096s-0.398-0.149-0.583-0.258l0.487-1.051
		c0.096,0.058,0.199,0.105,0.311,0.144s0.215,0.058,0.311,0.058c0.127,0,0.228-0.024,0.301-0.072
		c0.073-0.047,0.142-0.135,0.205-0.262l-2.005-5.138h1.537l1.165,3.485l1.117-3.485h1.509l-1.967,5.242
		c-0.096,0.261-0.198,0.482-0.306,0.664c-0.108,0.182-0.228,0.329-0.358,0.443c-0.131,0.115-0.278,0.197-0.444,0.249
		C249.454,31.446,249.262,31.471,249.046,31.471z"/>
</g>
</svg>
