<?xml version="1.0" encoding="utf-8"?>
<!-- Generator: Adobe Illustrator 15.1.0, SVG Export Plug-In . SVG Version: 6.00 Build 0)  -->
<!DOCTYPE svg PUBLIC "-//W3C//DTD SVG 1.1//EN" "http://www.w3.org/Graphics/SVG/1.1/DTD/svg11.dtd">
<svg version="1.1" id="Layer_1" xmlns="http://www.w3.org/2000/svg" xmlns:xlink="http://www.w3.org/1999/xlink" x="0px" y="0px"
	 width="643.426px" height="300px" viewBox="0 0 549.461 256.189" enable-background="new 0 0 549.461 256.189"
	 xml:space="preserve">
<path fill="#EBEBEB" d="M369.025,0v28.719C327.827,32.638,101.99,62.695,8.87,256.189c0,0,124.389-167.611,360.156-164.107v28.446
	l82.29-60.263L369.025,0"/>
<g>
	<path d="M26.964,198.791h3.569c0.479,0,0.904,0.066,1.275,0.198c0.371,0.132,0.677,0.313,0.916,0.545
		c0.359,0.375,0.539,0.822,0.539,1.341v0.024c0,0.271-0.038,0.514-0.114,0.725c-0.076,0.212-0.177,0.396-0.305,0.551
		c-0.127,0.156-0.269,0.288-0.425,0.396c-0.156,0.108-0.317,0.198-0.485,0.27c0.248,0.072,0.481,0.166,0.701,0.282
		s0.409,0.255,0.569,0.415c0.16,0.16,0.288,0.351,0.383,0.571c0.096,0.221,0.144,0.475,0.144,0.763v0.024
		c0,0.36-0.072,0.684-0.216,0.968s-0.35,0.524-0.617,0.721c-0.268,0.197-0.589,0.347-0.964,0.451s-0.791,0.156-1.246,0.156h-3.726
		V198.791z M30.39,202.523c0.574,0,1.039-0.125,1.394-0.376s0.533-0.624,0.533-1.118v-0.023c0-0.414-0.16-0.745-0.479-0.992
		c-0.319-0.247-0.778-0.37-1.376-0.37h-2.549v2.88H30.39z M30.726,206.339c0.638,0,1.141-0.133,1.508-0.396
		c0.367-0.264,0.55-0.632,0.55-1.104v-0.024c0-0.456-0.188-0.81-0.563-1.063c-0.375-0.252-0.93-0.378-1.664-0.378h-2.645v2.965
		H30.726z"/>
	<path d="M35.592,200.987h0.924v1.62c0.112-0.256,0.252-0.492,0.42-0.708s0.36-0.402,0.576-0.558
		c0.216-0.156,0.452-0.274,0.708-0.354c0.256-0.08,0.532-0.116,0.828-0.107v0.995h-0.072c-0.336,0-0.654,0.061-0.954,0.181
		c-0.3,0.12-0.562,0.3-0.786,0.54c-0.224,0.239-0.4,0.538-0.528,0.894c-0.128,0.356-0.192,0.767-0.192,1.23v2.472h-0.924V200.987z"
		/>
	<path d="M42.132,207.323c-0.288,0-0.572-0.04-0.852-0.12c-0.28-0.08-0.528-0.201-0.744-0.365c-0.216-0.164-0.39-0.366-0.522-0.606
		c-0.132-0.24-0.198-0.52-0.198-0.84v-0.024c0-0.336,0.064-0.63,0.192-0.882s0.31-0.462,0.546-0.63
		c0.236-0.168,0.516-0.296,0.84-0.384c0.324-0.088,0.682-0.132,1.074-0.132c0.4,0,0.746,0.023,1.038,0.071s0.578,0.112,0.858,0.192
		v-0.19c0-0.549-0.16-0.964-0.48-1.246s-0.772-0.424-1.356-0.424c-0.368,0-0.702,0.04-1.002,0.12c-0.3,0.08-0.594,0.188-0.882,0.324
		l-0.276-0.761c0.344-0.162,0.692-0.292,1.044-0.39c0.352-0.097,0.756-0.146,1.212-0.146c0.88,0,1.548,0.228,2.004,0.684
		c0.432,0.433,0.648,1.04,0.648,1.824v3.792h-0.912v-0.924c-0.216,0.28-0.506,0.526-0.87,0.738
		C43.13,207.216,42.676,207.323,42.132,207.323z M42.319,206.567c0.287,0,0.554-0.04,0.801-0.119
		c0.247-0.08,0.464-0.193,0.652-0.341s0.335-0.322,0.442-0.525c0.108-0.203,0.162-0.428,0.162-0.675v-0.573
		c-0.231-0.063-0.495-0.123-0.79-0.179s-0.634-0.084-1.017-0.084c-0.574,0-1.019,0.113-1.333,0.341
		c-0.315,0.227-0.472,0.527-0.472,0.901v0.024c0,0.19,0.042,0.363,0.125,0.519c0.083,0.155,0.197,0.285,0.341,0.389
		s0.309,0.183,0.496,0.238C41.914,206.54,42.111,206.567,42.319,206.567z"/>
	<path d="M47.352,200.987h0.924v1.08c0.208-0.336,0.48-0.622,0.816-0.858c0.336-0.235,0.772-0.354,1.308-0.354
		c0.376,0,0.71,0.06,1.002,0.18s0.54,0.29,0.744,0.511c0.204,0.22,0.36,0.481,0.468,0.785c0.108,0.305,0.162,0.641,0.162,1.009
		v3.852h-0.924v-3.616c0-0.574-0.148-1.029-0.444-1.365c-0.296-0.335-0.72-0.503-1.272-0.503c-0.264,0-0.51,0.046-0.738,0.139
		c-0.228,0.092-0.426,0.223-0.594,0.395s-0.298,0.377-0.39,0.617c-0.092,0.239-0.138,0.502-0.138,0.79v3.544h-0.924V200.987z"/>
	<path d="M57.468,207.323c-0.376,0-0.74-0.072-1.092-0.216s-0.668-0.354-0.948-0.63c-0.28-0.276-0.504-0.612-0.672-1.008
		c-0.168-0.396-0.252-0.851-0.252-1.362v-0.024c0-0.504,0.084-0.955,0.252-1.355s0.392-0.738,0.672-1.014
		c0.28-0.276,0.596-0.488,0.948-0.637c0.352-0.147,0.716-0.222,1.092-0.222c0.288,0,0.552,0.036,0.792,0.108
		c0.24,0.071,0.456,0.168,0.648,0.287c0.192,0.12,0.366,0.261,0.522,0.421c0.156,0.16,0.294,0.328,0.414,0.504v-3.744h0.924v8.76
		h-0.924v-1.248c-0.128,0.185-0.27,0.36-0.426,0.528c-0.156,0.168-0.33,0.315-0.522,0.443c-0.192,0.129-0.406,0.229-0.642,0.301
		C58.018,207.287,57.756,207.323,57.468,207.323z M57.636,206.495c0.288,0,0.565-0.058,0.834-0.174
		c0.268-0.116,0.508-0.28,0.72-0.492s0.38-0.464,0.504-0.756s0.186-0.618,0.186-0.978v-0.024c0-0.36-0.062-0.686-0.186-0.978
		s-0.292-0.542-0.504-0.75s-0.452-0.37-0.72-0.486c-0.269-0.116-0.546-0.174-0.834-0.174c-0.304,0-0.588,0.054-0.852,0.162
		c-0.264,0.107-0.494,0.264-0.69,0.468c-0.196,0.204-0.353,0.454-0.468,0.75c-0.116,0.296-0.174,0.632-0.174,1.008v0.024
		c0,0.368,0.058,0.7,0.174,0.996c0.116,0.296,0.274,0.548,0.474,0.756c0.2,0.208,0.432,0.368,0.696,0.479
		C57.06,206.439,57.34,206.495,57.636,206.495z"/>
	<path d="M70.728,207.334c-0.664,0-1.258-0.111-1.782-0.336c-0.524-0.224-0.972-0.531-1.344-0.924
		c-0.372-0.392-0.656-0.85-0.852-1.374c-0.196-0.523-0.294-1.086-0.294-1.686v-0.024c0-0.576,0.102-1.126,0.306-1.649
		c0.204-0.524,0.49-0.986,0.858-1.387c0.368-0.399,0.81-0.718,1.326-0.954c0.516-0.235,1.09-0.354,1.722-0.354
		c0.352,0,0.674,0.024,0.966,0.072c0.292,0.048,0.564,0.12,0.816,0.216s0.488,0.214,0.708,0.354c0.22,0.141,0.434,0.299,0.642,0.475
		l-0.612,0.72c-0.16-0.144-0.328-0.273-0.504-0.39s-0.366-0.217-0.57-0.301s-0.428-0.149-0.672-0.197s-0.514-0.072-0.81-0.072
		c-0.464,0-0.892,0.092-1.284,0.276c-0.392,0.184-0.728,0.432-1.008,0.743c-0.28,0.313-0.5,0.679-0.66,1.099
		c-0.16,0.42-0.24,0.862-0.24,1.326v0.023c0,0.504,0.078,0.969,0.234,1.393c0.156,0.424,0.378,0.792,0.666,1.104
		c0.288,0.313,0.636,0.557,1.044,0.732c0.408,0.176,0.868,0.264,1.38,0.264c0.48,0,0.932-0.082,1.356-0.246
		c0.424-0.164,0.78-0.361,1.068-0.594v-2.088h-2.556v-0.853H74.1v3.349c-0.392,0.352-0.874,0.653-1.446,0.905
		C72.082,207.208,71.439,207.334,70.728,207.334z"/>
	<path d="M79.031,207.334c-0.464,0-0.892-0.086-1.284-0.258c-0.392-0.172-0.732-0.403-1.02-0.695s-0.512-0.632-0.672-1.021
		c-0.16-0.388-0.24-0.802-0.24-1.242v-0.023c0-0.44,0.08-0.856,0.24-1.248c0.16-0.393,0.384-0.736,0.672-1.032
		s0.63-0.53,1.026-0.702s0.83-0.258,1.302-0.258c0.464,0,0.894,0.086,1.29,0.258s0.738,0.404,1.026,0.696s0.512,0.632,0.672,1.02
		c0.16,0.389,0.24,0.803,0.24,1.242v0.024c0,0.439-0.083,0.855-0.246,1.248c-0.164,0.392-0.39,0.735-0.678,1.031
		c-0.288,0.297-0.632,0.53-1.032,0.702C79.927,207.249,79.495,207.334,79.031,207.334z M79.056,206.507
		c0.336,0,0.644-0.064,0.924-0.192c0.28-0.128,0.52-0.3,0.72-0.516c0.2-0.217,0.355-0.469,0.468-0.757
		c0.112-0.287,0.168-0.596,0.168-0.924v-0.023c0-0.336-0.058-0.65-0.174-0.942c-0.116-0.292-0.278-0.548-0.486-0.768
		c-0.208-0.221-0.452-0.395-0.732-0.522c-0.28-0.128-0.584-0.191-0.912-0.191c-0.336,0-0.644,0.063-0.924,0.191
		c-0.28,0.128-0.518,0.3-0.714,0.517c-0.196,0.216-0.35,0.47-0.462,0.762c-0.112,0.292-0.168,0.602-0.168,0.93v0.024
		c0,0.336,0.058,0.649,0.174,0.941c0.116,0.292,0.276,0.546,0.48,0.763c0.204,0.216,0.446,0.388,0.726,0.516
		C78.423,206.443,78.728,206.507,79.056,206.507z"/>
	<path d="M85.919,207.323c-0.288,0-0.572-0.04-0.852-0.12c-0.28-0.08-0.528-0.201-0.744-0.365c-0.216-0.164-0.39-0.366-0.522-0.606
		c-0.132-0.24-0.198-0.52-0.198-0.84v-0.024c0-0.336,0.064-0.63,0.192-0.882s0.31-0.462,0.546-0.63
		c0.236-0.168,0.516-0.296,0.84-0.384c0.324-0.088,0.682-0.132,1.074-0.132c0.4,0,0.746,0.023,1.038,0.071s0.578,0.112,0.858,0.192
		v-0.19c0-0.549-0.16-0.964-0.48-1.246s-0.772-0.424-1.356-0.424c-0.368,0-0.702,0.04-1.002,0.12c-0.3,0.08-0.594,0.188-0.882,0.324
		l-0.276-0.761c0.344-0.162,0.692-0.292,1.044-0.39c0.352-0.097,0.756-0.146,1.212-0.146c0.88,0,1.548,0.228,2.004,0.684
		c0.432,0.433,0.648,1.04,0.648,1.824v3.792h-0.912v-0.924c-0.216,0.28-0.506,0.526-0.87,0.738
		C86.917,207.216,86.463,207.323,85.919,207.323z M86.106,206.567c0.287,0,0.554-0.04,0.801-0.119
		c0.247-0.08,0.464-0.193,0.652-0.341s0.335-0.322,0.442-0.525c0.108-0.203,0.162-0.428,0.162-0.675v-0.573
		c-0.231-0.063-0.495-0.123-0.79-0.179s-0.634-0.084-1.017-0.084c-0.574,0-1.019,0.113-1.333,0.341
		c-0.315,0.227-0.472,0.527-0.472,0.901v0.024c0,0.19,0.042,0.363,0.125,0.519c0.083,0.155,0.197,0.285,0.341,0.389
		s0.309,0.183,0.496,0.238C85.702,206.54,85.899,206.567,86.106,206.567z"/>
	<path d="M91.224,198.431h0.924v8.76h-0.924V198.431z"/>
	<path d="M93.935,208.235c0.304-0.112,0.52-0.25,0.648-0.414c0.127-0.164,0.18-0.374,0.156-0.63h-0.432v-1.26h1.104v1.08
		c0,0.487-0.108,0.857-0.324,1.109c-0.216,0.252-0.552,0.431-1.008,0.534L93.935,208.235z"/>
</g>
<g>
	<path d="M4.08,221.71c-0.672,0-1.286-0.11-1.842-0.33s-1.086-0.558-1.59-1.014l0.588-0.696c0.44,0.4,0.884,0.698,1.332,0.894
		c0.448,0.196,0.964,0.294,1.548,0.294c0.568,0,1.021-0.134,1.362-0.401c0.34-0.269,0.51-0.61,0.51-1.026v-0.023
		c0-0.192-0.032-0.366-0.096-0.522c-0.064-0.156-0.176-0.298-0.337-0.426c-0.16-0.128-0.383-0.244-0.667-0.349
		c-0.285-0.104-0.647-0.203-1.088-0.3c-0.481-0.104-0.9-0.224-1.257-0.359c-0.357-0.137-0.651-0.301-0.884-0.492
		c-0.233-0.192-0.405-0.416-0.518-0.672s-0.168-0.557-0.168-0.9v-0.023c0-0.328,0.068-0.632,0.204-0.912
		c0.136-0.28,0.328-0.522,0.576-0.727s0.54-0.363,0.876-0.479s0.704-0.174,1.104-0.174c0.616,0,1.154,0.086,1.614,0.258
		c0.46,0.172,0.906,0.43,1.338,0.773l-0.552,0.732c-0.392-0.32-0.786-0.552-1.182-0.696c-0.396-0.144-0.81-0.216-1.242-0.216
		c-0.552,0-0.988,0.13-1.308,0.39c-0.32,0.261-0.48,0.582-0.48,0.967v0.023c0,0.2,0.032,0.378,0.096,0.534
		c0.064,0.156,0.18,0.3,0.348,0.432c0.168,0.132,0.4,0.252,0.696,0.36s0.676,0.21,1.14,0.306c0.936,0.208,1.626,0.496,2.07,0.864
		s0.666,0.872,0.666,1.512v0.024c0,0.36-0.071,0.686-0.213,0.978s-0.338,0.542-0.588,0.75c-0.25,0.208-0.551,0.368-0.903,0.48
		C4.88,221.654,4.496,221.71,4.08,221.71z"/>
	<path d="M10.848,221.699c-0.248,0-0.48-0.032-0.696-0.097c-0.216-0.063-0.402-0.166-0.558-0.306
		c-0.156-0.14-0.278-0.322-0.366-0.546c-0.088-0.224-0.132-0.492-0.132-0.804v-3.744H8.232v-0.816h0.864v-1.872h0.924v1.872h1.968
		v0.816H10.02v3.614c0,0.383,0.096,0.65,0.288,0.802c0.192,0.152,0.444,0.228,0.756,0.228c0.16,0,0.31-0.015,0.45-0.045
		s0.29-0.083,0.45-0.159v0.792c-0.16,0.088-0.33,0.154-0.51,0.198C11.274,221.676,11.072,221.699,10.848,221.699z"/>
	<path d="M13.74,215.386h0.924v1.62c0.112-0.256,0.252-0.492,0.42-0.708s0.36-0.402,0.576-0.558
		c0.216-0.156,0.452-0.274,0.708-0.354c0.256-0.08,0.532-0.116,0.828-0.107v0.995h-0.072c-0.336,0-0.654,0.061-0.954,0.181
		c-0.3,0.12-0.562,0.3-0.786,0.54c-0.224,0.239-0.4,0.538-0.528,0.894c-0.128,0.356-0.192,0.767-0.192,1.23v2.472H13.74V215.386z"/>
	<path d="M20.28,221.722c-0.288,0-0.572-0.04-0.852-0.12c-0.28-0.08-0.528-0.201-0.744-0.365c-0.216-0.164-0.39-0.366-0.522-0.606
		c-0.132-0.24-0.198-0.52-0.198-0.84v-0.024c0-0.336,0.064-0.63,0.192-0.882s0.31-0.462,0.546-0.63
		c0.236-0.168,0.516-0.296,0.84-0.384c0.324-0.088,0.682-0.132,1.074-0.132c0.4,0,0.746,0.023,1.038,0.071s0.578,0.112,0.858,0.192
		v-0.19c0-0.549-0.16-0.964-0.48-1.246s-0.772-0.424-1.356-0.424c-0.368,0-0.702,0.04-1.002,0.12c-0.3,0.08-0.594,0.188-0.882,0.324
		l-0.276-0.761c0.344-0.162,0.692-0.292,1.044-0.39c0.352-0.097,0.756-0.146,1.212-0.146c0.88,0,1.548,0.228,2.004,0.684
		c0.432,0.433,0.648,1.04,0.648,1.824v3.792h-0.912v-0.924c-0.216,0.28-0.506,0.526-0.87,0.738
		C21.278,221.616,20.824,221.722,20.28,221.722z M20.467,220.966c0.287,0,0.554-0.04,0.801-0.119
		c0.247-0.08,0.464-0.193,0.652-0.341s0.335-0.322,0.442-0.525c0.108-0.203,0.162-0.428,0.162-0.675v-0.573
		c-0.231-0.063-0.495-0.123-0.79-0.179s-0.634-0.084-1.017-0.084c-0.574,0-1.019,0.113-1.333,0.341
		c-0.315,0.227-0.472,0.527-0.472,0.901v0.024c0,0.19,0.042,0.363,0.125,0.519c0.083,0.155,0.197,0.285,0.341,0.389
		s0.309,0.183,0.496,0.238C20.062,220.939,20.259,220.966,20.467,220.966z"/>
	<path d="M27.516,221.699c-0.248,0-0.48-0.032-0.696-0.097c-0.216-0.063-0.402-0.166-0.558-0.306
		c-0.156-0.14-0.278-0.322-0.366-0.546c-0.088-0.224-0.132-0.492-0.132-0.804v-3.744H24.9v-0.816h0.864v-1.872h0.924v1.872h1.968
		v0.816h-1.968v3.614c0,0.383,0.096,0.65,0.288,0.802c0.192,0.152,0.444,0.228,0.756,0.228c0.16,0,0.31-0.015,0.45-0.045
		s0.29-0.083,0.45-0.159v0.792c-0.16,0.088-0.33,0.154-0.51,0.198C27.942,221.676,27.74,221.699,27.516,221.699z"/>
	<path d="M30.792,218.867c0.032,0.328,0.112,0.62,0.24,0.876c0.127,0.256,0.292,0.472,0.492,0.647
		c0.2,0.176,0.424,0.311,0.672,0.402s0.508,0.138,0.78,0.138c0.432,0,0.802-0.08,1.11-0.24c0.308-0.159,0.59-0.372,0.846-0.636
		l0.576,0.517c-0.312,0.352-0.668,0.634-1.068,0.846s-0.896,0.317-1.488,0.317c-0.424,0-0.824-0.077-1.2-0.233
		s-0.704-0.376-0.984-0.66c-0.28-0.284-0.502-0.626-0.666-1.026c-0.164-0.399-0.246-0.84-0.246-1.319
		c0-0.448,0.074-0.87,0.222-1.267c0.148-0.396,0.354-0.739,0.618-1.031c0.264-0.292,0.578-0.522,0.942-0.69
		c0.364-0.168,0.762-0.252,1.194-0.252c0.456,0,0.864,0.086,1.224,0.258c0.36,0.172,0.664,0.406,0.912,0.702
		s0.436,0.645,0.564,1.044c0.127,0.4,0.192,0.828,0.192,1.284c0,0.04,0,0.086,0,0.138c0,0.053-0.004,0.114-0.012,0.187H30.792z
		 M34.788,218.11c-0.024-0.277-0.084-0.542-0.18-0.793c-0.096-0.25-0.226-0.472-0.39-0.662s-0.364-0.342-0.6-0.453
		c-0.236-0.111-0.506-0.167-0.81-0.167c-0.264,0-0.512,0.052-0.744,0.154c-0.232,0.104-0.436,0.249-0.612,0.436
		c-0.176,0.188-0.322,0.408-0.438,0.663c-0.116,0.254-0.19,0.528-0.222,0.822H34.788z"/>
	<path d="M40.211,223.535c-0.52,0-1.016-0.072-1.488-0.217c-0.472-0.144-0.916-0.359-1.332-0.647l0.42-0.72
		c0.36,0.256,0.736,0.451,1.128,0.588c0.392,0.136,0.812,0.204,1.26,0.204c0.688,0,1.236-0.187,1.644-0.559
		c0.408-0.372,0.612-0.922,0.612-1.649v-0.732c-0.272,0.36-0.604,0.668-0.996,0.924c-0.392,0.257-0.872,0.384-1.44,0.384
		c-0.376,0-0.738-0.067-1.086-0.203c-0.348-0.137-0.658-0.33-0.93-0.582s-0.49-0.557-0.654-0.912
		c-0.164-0.356-0.246-0.758-0.246-1.206v-0.024c0-0.456,0.082-0.864,0.246-1.224c0.164-0.36,0.382-0.666,0.654-0.918
		s0.584-0.446,0.936-0.582s0.712-0.204,1.08-0.204c0.288,0,0.554,0.034,0.798,0.102c0.244,0.068,0.464,0.158,0.66,0.271
		s0.374,0.244,0.534,0.396c0.16,0.152,0.304,0.313,0.432,0.48v-1.116h0.924v5.124c0,0.48-0.068,0.902-0.204,1.266
		c-0.136,0.364-0.332,0.675-0.588,0.931c-0.28,0.279-0.62,0.487-1.02,0.624C41.155,223.466,40.708,223.535,40.211,223.535z
		 M40.2,220.294c0.296,0,0.58-0.05,0.852-0.15c0.272-0.1,0.514-0.243,0.726-0.432c0.211-0.188,0.382-0.41,0.51-0.666
		s0.192-0.54,0.192-0.852v-0.024c0-0.32-0.064-0.608-0.192-0.864s-0.298-0.476-0.51-0.66c-0.212-0.184-0.454-0.325-0.726-0.426
		c-0.272-0.1-0.556-0.149-0.852-0.149s-0.574,0.05-0.834,0.149c-0.26,0.101-0.488,0.24-0.684,0.42
		c-0.196,0.181-0.35,0.398-0.462,0.654c-0.112,0.256-0.168,0.544-0.168,0.864v0.023c0,0.313,0.058,0.599,0.174,0.858
		c0.116,0.26,0.272,0.481,0.468,0.666c0.196,0.184,0.424,0.328,0.684,0.432C39.638,220.243,39.912,220.294,40.2,220.294z"/>
	<path d="M46.512,223.546c-0.256,0-0.488-0.026-0.696-0.078s-0.416-0.13-0.624-0.234l0.312-0.731c0.152,0.08,0.302,0.138,0.45,0.174
		c0.148,0.036,0.322,0.054,0.522,0.054c0.28,0,0.516-0.084,0.708-0.252s0.38-0.472,0.564-0.912l-2.82-6.18h1.02l2.256,5.172
		l1.992-5.172h0.984l-2.604,6.408c-0.264,0.64-0.558,1.092-0.882,1.355C47.37,223.415,46.976,223.546,46.512,223.546z"/>
	<path d="M61.379,220.402c-0.384,0.417-0.8,0.738-1.248,0.967c-0.448,0.228-0.948,0.342-1.5,0.342c-0.376,0-0.726-0.057-1.05-0.168
		c-0.324-0.112-0.604-0.272-0.84-0.48c-0.236-0.208-0.42-0.456-0.552-0.744c-0.132-0.287-0.198-0.607-0.198-0.96v-0.023
		c0-0.56,0.176-1.04,0.528-1.44c0.352-0.399,0.852-0.728,1.5-0.983c-0.288-0.336-0.5-0.645-0.636-0.924
		c-0.136-0.28-0.204-0.589-0.204-0.925v-0.023c0-0.272,0.054-0.53,0.162-0.774s0.258-0.456,0.45-0.636
		c0.192-0.18,0.424-0.322,0.696-0.426c0.272-0.104,0.576-0.156,0.912-0.156c0.296,0,0.568,0.05,0.816,0.15
		c0.248,0.1,0.462,0.235,0.642,0.407c0.18,0.173,0.322,0.372,0.426,0.601c0.104,0.228,0.156,0.474,0.156,0.737v0.024
		c0,0.536-0.176,0.98-0.528,1.332c-0.352,0.353-0.836,0.636-1.452,0.852l1.92,1.956c0.184-0.271,0.36-0.563,0.528-0.876
		c0.168-0.312,0.328-0.644,0.48-0.996l0.78,0.36c-0.184,0.4-0.374,0.776-0.57,1.128c-0.196,0.353-0.41,0.681-0.642,0.984l1.464,1.5
		l-0.72,0.552L61.379,220.402z M58.691,220.907c0.4,0,0.774-0.099,1.122-0.294c0.348-0.196,0.674-0.463,0.978-0.799l-2.244-2.315
		c-0.56,0.208-0.968,0.47-1.224,0.786c-0.256,0.315-0.384,0.653-0.384,1.014v0.024c0,0.224,0.042,0.432,0.126,0.624
		c0.084,0.191,0.204,0.359,0.36,0.504c0.156,0.144,0.342,0.256,0.558,0.336C58.199,220.867,58.435,220.907,58.691,220.907z
		 M58.931,216.61c0.536-0.184,0.94-0.405,1.212-0.665c0.272-0.261,0.408-0.57,0.408-0.931v-0.023c0-0.336-0.112-0.614-0.336-0.834
		c-0.224-0.221-0.508-0.33-0.852-0.33c-0.384,0-0.692,0.116-0.924,0.348c-0.232,0.232-0.348,0.521-0.348,0.864v0.023
		c0,0.12,0.014,0.238,0.042,0.354c0.028,0.116,0.074,0.233,0.138,0.354s0.15,0.248,0.258,0.385
		C58.637,216.291,58.771,216.442,58.931,216.61z"/>
	<path d="M68.831,213.19h0.96l3.06,4.584l3.06-4.584h0.96v8.4h-0.948v-6.804l-3.06,4.5h-0.048l-3.06-4.488v6.792h-0.924V213.19z"/>
	<path d="M79.75,218.867c0.032,0.328,0.112,0.62,0.24,0.876c0.127,0.256,0.292,0.472,0.492,0.647c0.2,0.176,0.424,0.311,0.672,0.402
		s0.508,0.138,0.78,0.138c0.432,0,0.802-0.08,1.11-0.24c0.308-0.159,0.59-0.372,0.846-0.636l0.576,0.517
		c-0.312,0.352-0.668,0.634-1.068,0.846s-0.896,0.317-1.488,0.317c-0.424,0-0.824-0.077-1.2-0.233s-0.704-0.376-0.984-0.66
		c-0.28-0.284-0.502-0.626-0.666-1.026c-0.164-0.399-0.246-0.84-0.246-1.319c0-0.448,0.074-0.87,0.222-1.267
		c0.148-0.396,0.354-0.739,0.618-1.031c0.264-0.292,0.578-0.522,0.942-0.69c0.364-0.168,0.762-0.252,1.194-0.252
		c0.456,0,0.864,0.086,1.224,0.258c0.36,0.172,0.664,0.406,0.912,0.702s0.436,0.645,0.564,1.044c0.127,0.4,0.192,0.828,0.192,1.284
		c0,0.04,0,0.086,0,0.138c0,0.053-0.004,0.114-0.012,0.187H79.75z M83.747,218.11c-0.024-0.277-0.084-0.542-0.18-0.793
		c-0.096-0.25-0.226-0.472-0.39-0.662s-0.364-0.342-0.6-0.453c-0.236-0.111-0.506-0.167-0.81-0.167
		c-0.264,0-0.512,0.052-0.744,0.154c-0.232,0.104-0.436,0.249-0.612,0.436c-0.176,0.188-0.322,0.408-0.438,0.663
		c-0.116,0.254-0.19,0.528-0.222,0.822H83.747z"/>
	<path d="M88.475,221.71c-0.448,0-0.9-0.082-1.356-0.246s-0.86-0.386-1.212-0.666l0.468-0.66c0.336,0.256,0.686,0.452,1.05,0.588
		c0.364,0.137,0.73,0.204,1.098,0.204c0.376,0,0.684-0.088,0.924-0.264c0.24-0.176,0.36-0.416,0.36-0.72v-0.024
		c0-0.152-0.042-0.284-0.126-0.396c-0.084-0.111-0.198-0.21-0.342-0.294c-0.144-0.084-0.31-0.157-0.498-0.222
		c-0.188-0.063-0.382-0.124-0.582-0.18c-0.24-0.072-0.482-0.15-0.726-0.234c-0.244-0.084-0.464-0.189-0.66-0.317
		c-0.196-0.128-0.356-0.288-0.48-0.48s-0.186-0.432-0.186-0.72v-0.024c0-0.264,0.052-0.506,0.156-0.726
		c0.104-0.22,0.25-0.408,0.438-0.564c0.188-0.156,0.412-0.275,0.672-0.359c0.26-0.084,0.542-0.126,0.846-0.126
		c0.384,0,0.771,0.062,1.164,0.186s0.748,0.29,1.068,0.498l-0.42,0.696c-0.288-0.185-0.59-0.33-0.906-0.438
		c-0.316-0.107-0.626-0.162-0.93-0.162c-0.368,0-0.66,0.086-0.876,0.258c-0.216,0.173-0.324,0.387-0.324,0.643v0.023
		c0,0.145,0.044,0.271,0.132,0.378c0.088,0.108,0.206,0.202,0.354,0.282s0.318,0.152,0.51,0.216c0.192,0.064,0.392,0.129,0.6,0.192
		c0.24,0.072,0.478,0.152,0.714,0.24c0.236,0.088,0.45,0.2,0.642,0.336c0.192,0.136,0.346,0.3,0.462,0.492
		c0.116,0.191,0.174,0.428,0.174,0.708v0.023c0,0.296-0.058,0.559-0.174,0.786c-0.116,0.229-0.272,0.422-0.468,0.582
		s-0.428,0.282-0.696,0.366S88.787,221.71,88.475,221.71z"/>
	<path d="M94.45,221.71c-0.448,0-0.9-0.082-1.356-0.246s-0.86-0.386-1.212-0.666l0.468-0.66c0.336,0.256,0.686,0.452,1.05,0.588
		c0.364,0.137,0.73,0.204,1.098,0.204c0.376,0,0.684-0.088,0.924-0.264c0.24-0.176,0.36-0.416,0.36-0.72v-0.024
		c0-0.152-0.042-0.284-0.126-0.396c-0.084-0.111-0.198-0.21-0.342-0.294c-0.144-0.084-0.31-0.157-0.498-0.222
		c-0.188-0.063-0.382-0.124-0.582-0.18c-0.24-0.072-0.482-0.15-0.726-0.234c-0.244-0.084-0.464-0.189-0.66-0.317
		c-0.196-0.128-0.356-0.288-0.48-0.48s-0.186-0.432-0.186-0.72v-0.024c0-0.264,0.052-0.506,0.156-0.726
		c0.104-0.22,0.25-0.408,0.438-0.564c0.188-0.156,0.412-0.275,0.672-0.359c0.26-0.084,0.542-0.126,0.846-0.126
		c0.384,0,0.771,0.062,1.164,0.186s0.748,0.29,1.068,0.498l-0.42,0.696c-0.288-0.185-0.59-0.33-0.906-0.438
		c-0.316-0.107-0.626-0.162-0.93-0.162c-0.368,0-0.66,0.086-0.876,0.258c-0.216,0.173-0.324,0.387-0.324,0.643v0.023
		c0,0.145,0.044,0.271,0.132,0.378c0.088,0.108,0.206,0.202,0.354,0.282s0.318,0.152,0.51,0.216c0.192,0.064,0.392,0.129,0.6,0.192
		c0.24,0.072,0.478,0.152,0.714,0.24c0.236,0.088,0.45,0.2,0.642,0.336c0.192,0.136,0.346,0.3,0.462,0.492
		c0.116,0.191,0.174,0.428,0.174,0.708v0.023c0,0.296-0.058,0.559-0.174,0.786c-0.116,0.229-0.272,0.422-0.468,0.582
		s-0.428,0.282-0.696,0.366S94.762,221.71,94.45,221.71z"/>
	<path d="M100.342,221.722c-0.288,0-0.572-0.04-0.852-0.12c-0.28-0.08-0.528-0.201-0.744-0.365c-0.216-0.164-0.39-0.366-0.522-0.606
		c-0.132-0.24-0.198-0.52-0.198-0.84v-0.024c0-0.336,0.064-0.63,0.192-0.882s0.31-0.462,0.546-0.63
		c0.236-0.168,0.516-0.296,0.84-0.384c0.324-0.088,0.682-0.132,1.074-0.132c0.4,0,0.746,0.023,1.038,0.071s0.578,0.112,0.858,0.192
		v-0.19c0-0.549-0.16-0.964-0.48-1.246s-0.772-0.424-1.356-0.424c-0.368,0-0.702,0.04-1.002,0.12c-0.3,0.08-0.594,0.188-0.882,0.324
		l-0.276-0.761c0.344-0.162,0.692-0.292,1.044-0.39c0.352-0.097,0.756-0.146,1.212-0.146c0.88,0,1.548,0.228,2.004,0.684
		c0.432,0.433,0.648,1.04,0.648,1.824v3.792h-0.912v-0.924c-0.216,0.28-0.506,0.526-0.87,0.738
		C101.34,221.616,100.886,221.722,100.342,221.722z M100.529,220.966c0.287,0,0.554-0.04,0.801-0.119
		c0.247-0.08,0.464-0.193,0.652-0.341s0.335-0.322,0.442-0.525c0.108-0.203,0.162-0.428,0.162-0.675v-0.573
		c-0.231-0.063-0.495-0.123-0.79-0.179s-0.634-0.084-1.017-0.084c-0.574,0-1.019,0.113-1.333,0.341
		c-0.315,0.227-0.472,0.527-0.472,0.901v0.024c0,0.19,0.042,0.363,0.125,0.519c0.083,0.155,0.197,0.285,0.341,0.389
		s0.309,0.183,0.496,0.238C100.125,220.939,100.322,220.966,100.529,220.966z"/>
	<path d="M108.31,223.535c-0.52,0-1.016-0.072-1.488-0.217c-0.472-0.144-0.916-0.359-1.332-0.647l0.42-0.72
		c0.36,0.256,0.736,0.451,1.128,0.588c0.392,0.136,0.812,0.204,1.26,0.204c0.688,0,1.236-0.187,1.644-0.559
		c0.408-0.372,0.612-0.922,0.612-1.649v-0.732c-0.272,0.36-0.604,0.668-0.996,0.924c-0.392,0.257-0.872,0.384-1.44,0.384
		c-0.376,0-0.738-0.067-1.086-0.203c-0.348-0.137-0.658-0.33-0.93-0.582s-0.49-0.557-0.654-0.912
		c-0.164-0.356-0.246-0.758-0.246-1.206v-0.024c0-0.456,0.082-0.864,0.246-1.224c0.164-0.36,0.382-0.666,0.654-0.918
		s0.584-0.446,0.936-0.582s0.712-0.204,1.08-0.204c0.288,0,0.554,0.034,0.798,0.102c0.244,0.068,0.464,0.158,0.66,0.271
		s0.374,0.244,0.534,0.396c0.16,0.152,0.304,0.313,0.432,0.48v-1.116h0.924v5.124c0,0.48-0.068,0.902-0.204,1.266
		c-0.136,0.364-0.332,0.675-0.588,0.931c-0.28,0.279-0.62,0.487-1.02,0.624C109.254,223.466,108.806,223.535,108.31,223.535z
		 M108.298,220.294c0.296,0,0.58-0.05,0.852-0.15c0.272-0.1,0.514-0.243,0.726-0.432c0.211-0.188,0.382-0.41,0.51-0.666
		s0.192-0.54,0.192-0.852v-0.024c0-0.32-0.064-0.608-0.192-0.864s-0.298-0.476-0.51-0.66c-0.212-0.184-0.454-0.325-0.726-0.426
		c-0.272-0.1-0.556-0.149-0.852-0.149s-0.574,0.05-0.834,0.149c-0.26,0.101-0.488,0.24-0.684,0.42
		c-0.196,0.181-0.35,0.398-0.462,0.654c-0.112,0.256-0.168,0.544-0.168,0.864v0.023c0,0.313,0.058,0.599,0.174,0.858
		c0.116,0.26,0.272,0.481,0.468,0.666c0.196,0.184,0.424,0.328,0.684,0.432C107.736,220.243,108.01,220.294,108.298,220.294z"/>
	<path d="M114.202,218.867c0.032,0.328,0.112,0.62,0.24,0.876c0.127,0.256,0.292,0.472,0.492,0.647
		c0.2,0.176,0.424,0.311,0.672,0.402s0.508,0.138,0.78,0.138c0.432,0,0.802-0.08,1.11-0.24c0.308-0.159,0.59-0.372,0.846-0.636
		l0.576,0.517c-0.312,0.352-0.668,0.634-1.068,0.846s-0.896,0.317-1.488,0.317c-0.424,0-0.824-0.077-1.2-0.233
		s-0.704-0.376-0.984-0.66c-0.28-0.284-0.502-0.626-0.666-1.026c-0.164-0.399-0.246-0.84-0.246-1.319
		c0-0.448,0.074-0.87,0.222-1.267c0.148-0.396,0.354-0.739,0.618-1.031c0.264-0.292,0.578-0.522,0.942-0.69
		c0.364-0.168,0.762-0.252,1.194-0.252c0.456,0,0.864,0.086,1.224,0.258c0.36,0.172,0.664,0.406,0.912,0.702
		s0.436,0.645,0.564,1.044c0.127,0.4,0.192,0.828,0.192,1.284c0,0.04,0,0.086,0,0.138c0,0.053-0.004,0.114-0.012,0.187H114.202z
		 M118.198,218.11c-0.024-0.277-0.084-0.542-0.18-0.793c-0.096-0.25-0.226-0.472-0.39-0.662s-0.364-0.342-0.6-0.453
		c-0.236-0.111-0.506-0.167-0.81-0.167c-0.264,0-0.512,0.052-0.744,0.154c-0.232,0.104-0.436,0.249-0.612,0.436
		c-0.176,0.188-0.322,0.408-0.438,0.663c-0.116,0.254-0.19,0.528-0.222,0.822H118.198z"/>
	<path d="M122.914,221.71c-0.448,0-0.9-0.082-1.356-0.246s-0.86-0.386-1.212-0.666l0.468-0.66c0.336,0.256,0.686,0.452,1.05,0.588
		c0.364,0.137,0.73,0.204,1.098,0.204c0.376,0,0.684-0.088,0.924-0.264c0.24-0.176,0.36-0.416,0.36-0.72v-0.024
		c0-0.152-0.042-0.284-0.126-0.396c-0.084-0.111-0.198-0.21-0.342-0.294c-0.144-0.084-0.31-0.157-0.498-0.222
		c-0.188-0.063-0.382-0.124-0.582-0.18c-0.24-0.072-0.482-0.15-0.726-0.234c-0.244-0.084-0.464-0.189-0.66-0.317
		c-0.196-0.128-0.356-0.288-0.48-0.48s-0.186-0.432-0.186-0.72v-0.024c0-0.264,0.052-0.506,0.156-0.726
		c0.104-0.22,0.25-0.408,0.438-0.564c0.188-0.156,0.412-0.275,0.672-0.359c0.26-0.084,0.542-0.126,0.846-0.126
		c0.384,0,0.771,0.062,1.164,0.186s0.748,0.29,1.068,0.498l-0.42,0.696c-0.288-0.185-0.59-0.33-0.906-0.438
		c-0.316-0.107-0.626-0.162-0.93-0.162c-0.368,0-0.66,0.086-0.876,0.258c-0.216,0.173-0.324,0.387-0.324,0.643v0.023
		c0,0.145,0.044,0.271,0.132,0.378c0.088,0.108,0.206,0.202,0.354,0.282s0.318,0.152,0.51,0.216c0.192,0.064,0.392,0.129,0.6,0.192
		c0.24,0.072,0.478,0.152,0.714,0.24c0.236,0.088,0.45,0.2,0.642,0.336c0.192,0.136,0.346,0.3,0.462,0.492
		c0.116,0.191,0.174,0.428,0.174,0.708v0.023c0,0.296-0.058,0.559-0.174,0.786c-0.116,0.229-0.272,0.422-0.468,0.582
		s-0.428,0.282-0.696,0.366S123.226,221.71,122.914,221.71z"/>
</g>
<path fill="#F39200" d="M68.075,187.96c0,3.211-2.602,5.817-5.823,5.817c-3.215,0-5.83-2.606-5.83-5.817
	c0-3.219,2.614-5.826,5.83-5.826C65.474,182.134,68.075,184.742,68.075,187.96"/>
<g>
	<path d="M119.862,144.566h3.569c0.479,0,0.904,0.066,1.275,0.198c0.371,0.132,0.677,0.313,0.916,0.545
		c0.359,0.375,0.539,0.822,0.539,1.341v0.024c0,0.271-0.038,0.514-0.114,0.725c-0.076,0.212-0.177,0.396-0.305,0.551
		c-0.127,0.156-0.269,0.288-0.425,0.396c-0.156,0.108-0.317,0.198-0.485,0.27c0.248,0.072,0.481,0.166,0.701,0.282
		s0.409,0.255,0.569,0.415c0.16,0.16,0.288,0.351,0.383,0.571c0.096,0.221,0.144,0.475,0.144,0.763v0.024
		c0,0.36-0.072,0.684-0.216,0.968s-0.35,0.524-0.617,0.721c-0.268,0.197-0.589,0.347-0.964,0.451s-0.791,0.156-1.246,0.156h-3.726
		V144.566z M123.287,148.298c0.574,0,1.039-0.125,1.394-0.376s0.533-0.624,0.533-1.118v-0.023c0-0.414-0.16-0.745-0.479-0.992
		c-0.319-0.247-0.778-0.37-1.376-0.37h-2.549v2.88H123.287z M123.623,152.115c0.638,0,1.141-0.133,1.508-0.396
		c0.367-0.264,0.55-0.632,0.55-1.104v-0.024c0-0.456-0.188-0.81-0.563-1.063c-0.375-0.252-0.93-0.378-1.664-0.378h-2.645v2.965
		H123.623z"/>
	<path d="M128.49,146.762h0.924v1.62c0.112-0.256,0.252-0.492,0.42-0.708s0.36-0.402,0.576-0.558
		c0.216-0.156,0.452-0.274,0.708-0.354c0.256-0.08,0.532-0.116,0.828-0.107v0.995h-0.072c-0.336,0-0.654,0.061-0.954,0.181
		c-0.3,0.12-0.562,0.3-0.786,0.54c-0.224,0.239-0.4,0.538-0.528,0.894c-0.128,0.356-0.192,0.767-0.192,1.23v2.472h-0.924V146.762z"
		/>
	<path d="M135.029,153.098c-0.288,0-0.572-0.04-0.852-0.12c-0.28-0.08-0.528-0.201-0.744-0.365c-0.216-0.164-0.39-0.366-0.522-0.606
		c-0.132-0.24-0.198-0.52-0.198-0.84v-0.024c0-0.336,0.064-0.63,0.192-0.882s0.31-0.462,0.546-0.63
		c0.236-0.168,0.516-0.296,0.84-0.384c0.324-0.088,0.682-0.132,1.074-0.132c0.4,0,0.746,0.023,1.038,0.071s0.578,0.112,0.858,0.192
		v-0.19c0-0.549-0.16-0.964-0.48-1.246s-0.772-0.424-1.356-0.424c-0.368,0-0.702,0.04-1.002,0.12c-0.3,0.08-0.594,0.188-0.882,0.324
		l-0.276-0.761c0.344-0.162,0.692-0.292,1.044-0.39c0.352-0.097,0.756-0.146,1.212-0.146c0.88,0,1.548,0.228,2.004,0.684
		c0.432,0.433,0.648,1.04,0.648,1.824v3.792h-0.912v-0.924c-0.216,0.28-0.506,0.526-0.87,0.738
		C136.027,152.992,135.573,153.098,135.029,153.098z M135.216,152.342c0.287,0,0.554-0.04,0.801-0.119
		c0.247-0.08,0.464-0.193,0.652-0.341s0.335-0.322,0.442-0.525c0.108-0.203,0.162-0.428,0.162-0.675v-0.573
		c-0.231-0.063-0.495-0.123-0.79-0.179s-0.634-0.084-1.017-0.084c-0.574,0-1.019,0.113-1.333,0.341
		c-0.315,0.227-0.472,0.527-0.472,0.901v0.024c0,0.19,0.042,0.363,0.125,0.519c0.083,0.155,0.197,0.285,0.341,0.389
		s0.309,0.183,0.496,0.238C134.812,152.315,135.009,152.342,135.216,152.342z"/>
	<path d="M140.238,146.762h0.924v1.08c0.208-0.336,0.48-0.622,0.816-0.858c0.336-0.235,0.772-0.354,1.308-0.354
		c0.376,0,0.71,0.06,1.002,0.18s0.54,0.29,0.744,0.511c0.204,0.22,0.36,0.481,0.468,0.785c0.108,0.305,0.162,0.641,0.162,1.009
		v3.852h-0.924v-3.616c0-0.574-0.148-1.029-0.444-1.365c-0.296-0.335-0.72-0.503-1.272-0.503c-0.264,0-0.51,0.046-0.738,0.139
		c-0.228,0.092-0.426,0.223-0.594,0.395s-0.298,0.377-0.39,0.617c-0.092,0.239-0.138,0.502-0.138,0.79v3.544h-0.924V146.762z"/>
	<path d="M150.354,153.098c-0.376,0-0.74-0.072-1.092-0.216s-0.668-0.354-0.948-0.63c-0.28-0.276-0.504-0.612-0.672-1.008
		c-0.168-0.396-0.252-0.851-0.252-1.362v-0.024c0-0.504,0.084-0.955,0.252-1.355s0.392-0.738,0.672-1.014
		c0.28-0.276,0.596-0.488,0.948-0.637c0.352-0.147,0.716-0.222,1.092-0.222c0.288,0,0.552,0.036,0.792,0.108
		c0.24,0.071,0.456,0.168,0.648,0.287c0.192,0.12,0.366,0.261,0.522,0.421c0.156,0.16,0.294,0.328,0.414,0.504v-3.744h0.924v8.76
		h-0.924v-1.248c-0.128,0.185-0.27,0.36-0.426,0.528c-0.156,0.168-0.33,0.315-0.522,0.443c-0.192,0.129-0.406,0.229-0.642,0.301
		C150.903,153.062,150.641,153.098,150.354,153.098z M150.521,152.27c0.288,0,0.565-0.058,0.834-0.174
		c0.268-0.116,0.508-0.28,0.72-0.492s0.38-0.464,0.504-0.756s0.186-0.618,0.186-0.978v-0.024c0-0.36-0.062-0.686-0.186-0.978
		s-0.292-0.542-0.504-0.75s-0.452-0.37-0.72-0.486c-0.269-0.116-0.546-0.174-0.834-0.174c-0.304,0-0.588,0.054-0.852,0.162
		c-0.264,0.107-0.494,0.264-0.69,0.468c-0.196,0.204-0.353,0.454-0.468,0.75c-0.116,0.296-0.174,0.632-0.174,1.008v0.024
		c0,0.368,0.058,0.7,0.174,0.996c0.116,0.296,0.274,0.548,0.474,0.756c0.2,0.208,0.432,0.368,0.696,0.479
		C149.945,152.214,150.225,152.27,150.521,152.27z"/>
</g>
<g>
	<path d="M110.274,158.966h6.072v0.853h-5.124v2.892h4.584v0.853h-4.584v2.952h5.184v0.852h-6.132V158.966z"/>
	<path d="M117.546,161.163h1.02l2.088,5.148l2.1-5.148h0.996l-2.7,6.252h-0.816L117.546,161.163z"/>
	<path d="M125.346,158.787h1.056v1.021h-1.056V158.787z M125.406,161.163h0.924v6.204h-0.924V161.163z"/>
	<path d="M131.202,167.499c-0.376,0-0.74-0.072-1.092-0.216s-0.668-0.354-0.948-0.63c-0.28-0.276-0.504-0.612-0.672-1.008
		c-0.168-0.396-0.252-0.851-0.252-1.362v-0.024c0-0.504,0.084-0.955,0.252-1.355s0.392-0.738,0.672-1.014
		c0.28-0.276,0.596-0.488,0.948-0.637c0.352-0.147,0.716-0.222,1.092-0.222c0.288,0,0.552,0.036,0.792,0.108
		c0.24,0.071,0.456,0.168,0.648,0.287c0.192,0.12,0.366,0.261,0.522,0.421c0.156,0.16,0.294,0.328,0.414,0.504v-3.744h0.924v8.76
		h-0.924v-1.248c-0.128,0.185-0.27,0.36-0.426,0.528c-0.156,0.168-0.33,0.315-0.522,0.443c-0.192,0.129-0.406,0.229-0.642,0.301
		C131.751,167.462,131.489,167.499,131.202,167.499z M131.37,166.67c0.288,0,0.565-0.058,0.834-0.174
		c0.268-0.116,0.508-0.28,0.72-0.492s0.38-0.464,0.504-0.756s0.186-0.618,0.186-0.978v-0.024c0-0.36-0.062-0.686-0.186-0.978
		s-0.292-0.542-0.504-0.75s-0.452-0.37-0.72-0.486c-0.269-0.116-0.546-0.174-0.834-0.174c-0.304,0-0.588,0.054-0.852,0.162
		c-0.264,0.107-0.494,0.264-0.69,0.468c-0.196,0.204-0.353,0.454-0.468,0.75c-0.116,0.296-0.174,0.632-0.174,1.008v0.024
		c0,0.368,0.058,0.7,0.174,0.996c0.116,0.296,0.274,0.548,0.474,0.756c0.2,0.208,0.432,0.368,0.696,0.479
		C130.793,166.615,131.073,166.67,131.37,166.67z"/>
	<path d="M137.237,164.643c0.032,0.328,0.112,0.62,0.24,0.876c0.127,0.256,0.292,0.472,0.492,0.647
		c0.2,0.176,0.424,0.311,0.672,0.402s0.508,0.138,0.78,0.138c0.432,0,0.802-0.08,1.11-0.24c0.308-0.159,0.59-0.372,0.846-0.636
		l0.576,0.517c-0.312,0.352-0.668,0.634-1.068,0.846s-0.896,0.317-1.488,0.317c-0.424,0-0.824-0.077-1.2-0.233
		s-0.704-0.376-0.984-0.66c-0.28-0.284-0.502-0.626-0.666-1.026c-0.164-0.399-0.246-0.84-0.246-1.319
		c0-0.448,0.074-0.87,0.222-1.267c0.148-0.396,0.354-0.739,0.618-1.031c0.264-0.292,0.578-0.522,0.942-0.69
		c0.364-0.168,0.762-0.252,1.194-0.252c0.456,0,0.864,0.086,1.224,0.258c0.36,0.172,0.664,0.406,0.912,0.702
		s0.436,0.645,0.564,1.044c0.127,0.4,0.192,0.828,0.192,1.284c0,0.04,0,0.086,0,0.138c0,0.053-0.004,0.114-0.012,0.187H137.237z
		 M141.233,163.886c-0.024-0.277-0.084-0.542-0.18-0.793c-0.096-0.25-0.226-0.472-0.39-0.662s-0.364-0.342-0.6-0.453
		c-0.236-0.111-0.506-0.167-0.81-0.167c-0.264,0-0.512,0.052-0.744,0.154c-0.232,0.104-0.436,0.249-0.612,0.436
		c-0.176,0.188-0.322,0.408-0.438,0.663c-0.116,0.254-0.19,0.528-0.222,0.822H141.233z"/>
	<path d="M143.91,161.163h0.924v1.08c0.208-0.336,0.48-0.622,0.816-0.858c0.336-0.235,0.772-0.354,1.308-0.354
		c0.376,0,0.71,0.06,1.002,0.18s0.54,0.29,0.744,0.511c0.204,0.22,0.36,0.481,0.468,0.785c0.108,0.305,0.162,0.641,0.162,1.009
		v3.852h-0.924v-3.616c0-0.574-0.148-1.029-0.444-1.365c-0.296-0.335-0.72-0.503-1.272-0.503c-0.264,0-0.51,0.046-0.738,0.139
		c-0.228,0.092-0.426,0.223-0.594,0.395s-0.298,0.377-0.39,0.617c-0.092,0.239-0.138,0.502-0.138,0.79v3.544h-0.924V161.163z"/>
	<path d="M154.205,167.51c-0.456,0-0.878-0.086-1.266-0.258c-0.388-0.172-0.724-0.403-1.008-0.695
		c-0.284-0.292-0.506-0.635-0.666-1.026c-0.16-0.392-0.24-0.804-0.24-1.236v-0.023c0-0.44,0.08-0.856,0.24-1.248
		c0.16-0.393,0.382-0.736,0.666-1.032c0.284-0.296,0.62-0.53,1.008-0.702c0.388-0.172,0.81-0.258,1.266-0.258
		c0.296,0,0.564,0.028,0.804,0.084c0.24,0.056,0.46,0.134,0.66,0.234c0.2,0.1,0.384,0.218,0.552,0.354
		c0.168,0.136,0.324,0.28,0.468,0.432l-0.612,0.648c-0.248-0.256-0.518-0.476-0.81-0.66c-0.292-0.184-0.65-0.275-1.074-0.275
		c-0.312,0-0.604,0.062-0.876,0.186s-0.508,0.294-0.708,0.51c-0.2,0.216-0.356,0.471-0.468,0.763
		c-0.112,0.292-0.168,0.605-0.168,0.941v0.024c0,0.336,0.058,0.649,0.174,0.941c0.116,0.292,0.276,0.549,0.48,0.769
		s0.444,0.392,0.72,0.516c0.276,0.124,0.578,0.187,0.906,0.187c0.4,0,0.754-0.088,1.062-0.265c0.308-0.176,0.586-0.396,0.834-0.66
		l0.588,0.553c-0.312,0.352-0.666,0.64-1.062,0.863C155.279,167.399,154.789,167.51,154.205,167.51z"/>
	<path d="M158.765,164.643c0.032,0.328,0.112,0.62,0.24,0.876c0.127,0.256,0.292,0.472,0.492,0.647
		c0.2,0.176,0.424,0.311,0.672,0.402s0.508,0.138,0.78,0.138c0.432,0,0.802-0.08,1.11-0.24c0.308-0.159,0.59-0.372,0.846-0.636
		l0.576,0.517c-0.312,0.352-0.668,0.634-1.068,0.846s-0.896,0.317-1.488,0.317c-0.424,0-0.824-0.077-1.2-0.233
		s-0.704-0.376-0.984-0.66c-0.28-0.284-0.502-0.626-0.666-1.026c-0.164-0.399-0.246-0.84-0.246-1.319
		c0-0.448,0.074-0.87,0.222-1.267c0.148-0.396,0.354-0.739,0.618-1.031c0.264-0.292,0.578-0.522,0.942-0.69
		c0.364-0.168,0.762-0.252,1.194-0.252c0.456,0,0.864,0.086,1.224,0.258c0.36,0.172,0.664,0.406,0.912,0.702
		s0.436,0.645,0.564,1.044c0.127,0.4,0.192,0.828,0.192,1.284c0,0.04,0,0.086,0,0.138c0,0.053-0.004,0.114-0.012,0.187H158.765z
		 M162.761,163.886c-0.024-0.277-0.084-0.542-0.18-0.793c-0.096-0.25-0.226-0.472-0.39-0.662s-0.364-0.342-0.6-0.453
		c-0.236-0.111-0.506-0.167-0.81-0.167c-0.264,0-0.512,0.052-0.744,0.154c-0.232,0.104-0.436,0.249-0.612,0.436
		c-0.176,0.188-0.322,0.408-0.438,0.663c-0.116,0.254-0.19,0.528-0.222,0.822H162.761z"/>
</g>
<path fill="#F39200" d="M144.378,129.07c0,4.014-3.254,7.273-7.282,7.273c-4.019,0-7.287-3.26-7.287-7.273
	c0-4.024,3.268-7.284,7.287-7.284C141.124,121.786,144.378,125.046,144.378,129.07"/>
<g>
	<path d="M212.751,102.791h3.569c0.479,0,0.904,0.066,1.275,0.198c0.371,0.132,0.677,0.313,0.916,0.545
		c0.359,0.375,0.539,0.822,0.539,1.341v0.024c0,0.271-0.038,0.513-0.114,0.725c-0.076,0.212-0.177,0.396-0.305,0.551
		c-0.127,0.156-0.269,0.288-0.425,0.395c-0.156,0.108-0.317,0.198-0.485,0.27c0.248,0.072,0.481,0.167,0.701,0.283
		s0.409,0.254,0.569,0.415c0.16,0.161,0.288,0.351,0.383,0.571c0.096,0.22,0.144,0.475,0.144,0.763v0.024
		c0,0.361-0.072,0.683-0.216,0.968s-0.35,0.525-0.617,0.721c-0.268,0.196-0.589,0.347-0.964,0.451
		c-0.375,0.104-0.791,0.156-1.246,0.156h-3.726V102.791z M216.177,106.523c0.574,0,1.039-0.125,1.394-0.376s0.533-0.624,0.533-1.117
		v-0.024c0-0.414-0.16-0.745-0.479-0.992c-0.319-0.247-0.778-0.371-1.376-0.371H213.7v2.88H216.177z M216.513,110.339
		c0.638,0,1.141-0.132,1.508-0.396c0.367-0.264,0.55-0.632,0.55-1.104v-0.024c0-0.456-0.188-0.81-0.563-1.062
		s-0.93-0.378-1.664-0.378H213.7v2.964H216.513z"/>
	<path d="M221.379,104.987h0.924v1.62c0.112-0.256,0.252-0.492,0.42-0.708s0.36-0.402,0.576-0.558
		c0.216-0.156,0.452-0.274,0.708-0.354c0.256-0.08,0.532-0.116,0.828-0.108v0.996h-0.072c-0.336,0-0.654,0.06-0.954,0.18
		c-0.3,0.12-0.562,0.3-0.786,0.54c-0.224,0.24-0.4,0.538-0.528,0.894c-0.128,0.356-0.192,0.766-0.192,1.23v2.472h-0.924V104.987z"/>
	<path d="M227.919,111.323c-0.288,0-0.572-0.04-0.852-0.12c-0.28-0.08-0.528-0.202-0.744-0.366c-0.216-0.164-0.39-0.366-0.522-0.606
		c-0.132-0.24-0.198-0.52-0.198-0.84v-0.024c0-0.336,0.064-0.63,0.192-0.882s0.31-0.462,0.546-0.63
		c0.236-0.168,0.516-0.296,0.84-0.384c0.324-0.088,0.682-0.132,1.074-0.132c0.4,0,0.746,0.024,1.038,0.072
		c0.292,0.048,0.578,0.112,0.858,0.192v-0.191c0-0.548-0.16-0.963-0.48-1.246s-0.772-0.423-1.356-0.423
		c-0.368,0-0.702,0.04-1.002,0.12c-0.3,0.08-0.594,0.188-0.882,0.324l-0.276-0.761c0.344-0.162,0.692-0.292,1.044-0.389
		c0.352-0.098,0.756-0.146,1.212-0.146c0.88,0,1.548,0.228,2.004,0.684c0.432,0.432,0.648,1.041,0.648,1.824v3.792h-0.912v-0.924
		c-0.216,0.28-0.506,0.526-0.87,0.738C228.917,111.217,228.463,111.323,227.919,111.323z M228.106,110.567
		c0.287,0,0.554-0.04,0.801-0.12c0.247-0.079,0.464-0.193,0.652-0.34c0.188-0.147,0.335-0.322,0.442-0.525
		c0.108-0.203,0.162-0.428,0.162-0.674v-0.574c-0.231-0.063-0.495-0.123-0.79-0.179c-0.295-0.056-0.634-0.084-1.017-0.084
		c-0.574,0-1.019,0.114-1.333,0.341c-0.315,0.227-0.472,0.527-0.472,0.901v0.024c0,0.191,0.042,0.364,0.125,0.52
		c0.083,0.155,0.197,0.285,0.341,0.388s0.309,0.183,0.496,0.239S227.898,110.567,228.106,110.567z"/>
	<path d="M233.127,104.987h0.924v1.08c0.208-0.336,0.48-0.622,0.816-0.858s0.772-0.354,1.308-0.354c0.376,0,0.71,0.06,1.002,0.18
		c0.292,0.12,0.54,0.29,0.744,0.51c0.204,0.22,0.36,0.482,0.468,0.786s0.162,0.64,0.162,1.008v3.852h-0.924v-3.616
		c0-0.575-0.148-1.03-0.444-1.365c-0.296-0.335-0.72-0.503-1.272-0.503c-0.264,0-0.51,0.046-0.738,0.138s-0.426,0.224-0.594,0.395
		c-0.168,0.172-0.298,0.377-0.39,0.617c-0.092,0.239-0.138,0.503-0.138,0.79v3.544h-0.924V104.987z"/>
	<path d="M243.231,111.323c-0.376,0-0.74-0.072-1.092-0.216s-0.668-0.354-0.948-0.63c-0.28-0.276-0.504-0.612-0.672-1.008
		s-0.252-0.85-0.252-1.362v-0.024c0-0.504,0.084-0.956,0.252-1.356s0.392-0.738,0.672-1.014c0.28-0.276,0.596-0.488,0.948-0.636
		s0.716-0.222,1.092-0.222c0.288,0,0.552,0.036,0.792,0.108c0.24,0.072,0.456,0.168,0.648,0.288c0.192,0.12,0.366,0.26,0.522,0.42
		c0.156,0.16,0.294,0.328,0.414,0.504v-3.744h0.924v8.76h-0.924v-1.248c-0.128,0.184-0.27,0.36-0.426,0.528
		c-0.156,0.168-0.33,0.316-0.522,0.444s-0.406,0.228-0.642,0.3C243.781,111.287,243.519,111.323,243.231,111.323z M243.399,110.495
		c0.288,0,0.565-0.058,0.834-0.174c0.268-0.116,0.508-0.28,0.72-0.492s0.38-0.464,0.504-0.756c0.124-0.292,0.186-0.618,0.186-0.978
		v-0.024c0-0.36-0.062-0.686-0.186-0.978c-0.124-0.292-0.292-0.542-0.504-0.75c-0.212-0.208-0.452-0.37-0.72-0.486
		c-0.269-0.116-0.546-0.174-0.834-0.174c-0.304,0-0.588,0.054-0.852,0.162c-0.264,0.108-0.494,0.264-0.69,0.468
		c-0.196,0.204-0.353,0.454-0.468,0.75c-0.116,0.296-0.174,0.632-0.174,1.008v0.024c0,0.368,0.058,0.7,0.174,0.996
		c0.116,0.296,0.274,0.548,0.474,0.756c0.2,0.208,0.432,0.368,0.696,0.48C242.823,110.439,243.103,110.495,243.399,110.495z"/>
</g>
<g>
	<path d="M190.383,117.19h3.612c0.52,0,0.982,0.074,1.386,0.222c0.404,0.148,0.738,0.354,1.002,0.618
		c0.208,0.208,0.368,0.452,0.48,0.732c0.112,0.28,0.168,0.588,0.168,0.924v0.024c0,0.352-0.056,0.666-0.168,0.942
		c-0.112,0.276-0.27,0.516-0.474,0.72c-0.204,0.204-0.446,0.372-0.726,0.504c-0.28,0.132-0.584,0.226-0.912,0.282l2.58,3.432h-1.164
		l-2.436-3.264h-0.024h-2.376v3.264h-0.948V117.19z M193.918,121.474c0.313,0,0.601-0.04,0.866-0.12
		c0.265-0.08,0.494-0.194,0.686-0.342c0.192-0.148,0.343-0.328,0.451-0.54c0.108-0.212,0.163-0.454,0.163-0.726v-0.024
		c0-0.52-0.189-0.926-0.566-1.218c-0.376-0.292-0.906-0.438-1.588-0.438h-2.598v3.408H193.918z"/>
	<path d="M199.455,122.866c0.032,0.328,0.112,0.62,0.24,0.876c0.127,0.256,0.292,0.472,0.492,0.648
		c0.2,0.176,0.424,0.311,0.672,0.402s0.508,0.138,0.78,0.138c0.432,0,0.802-0.08,1.11-0.24s0.59-0.372,0.846-0.636l0.576,0.516
		c-0.312,0.352-0.668,0.634-1.068,0.846s-0.896,0.318-1.488,0.318c-0.424,0-0.824-0.078-1.2-0.234
		c-0.376-0.156-0.704-0.376-0.984-0.66c-0.28-0.284-0.502-0.626-0.666-1.026s-0.246-0.84-0.246-1.32c0-0.448,0.074-0.87,0.222-1.266
		c0.148-0.396,0.354-0.74,0.618-1.032c0.264-0.292,0.578-0.522,0.942-0.69c0.364-0.168,0.762-0.252,1.194-0.252
		c0.456,0,0.864,0.086,1.224,0.258c0.36,0.172,0.664,0.406,0.912,0.702s0.436,0.644,0.564,1.044c0.127,0.4,0.192,0.828,0.192,1.284
		c0,0.04,0,0.086,0,0.138c0,0.052-0.004,0.114-0.012,0.186H199.455z M203.451,122.11c-0.024-0.278-0.084-0.543-0.18-0.793
		c-0.096-0.25-0.226-0.471-0.39-0.662s-0.364-0.342-0.6-0.454c-0.236-0.111-0.506-0.167-0.81-0.167
		c-0.264,0-0.512,0.052-0.744,0.155s-0.436,0.249-0.612,0.436c-0.176,0.187-0.322,0.408-0.438,0.662
		c-0.116,0.255-0.19,0.529-0.222,0.823H203.451z"/>
	<path d="M206.199,116.831h0.924v8.76h-0.924V116.831z"/>
	<path d="M211.239,125.722c-0.288,0-0.572-0.04-0.852-0.12c-0.28-0.08-0.528-0.202-0.744-0.366c-0.216-0.164-0.39-0.366-0.522-0.606
		c-0.132-0.24-0.198-0.52-0.198-0.84v-0.024c0-0.336,0.064-0.63,0.192-0.882s0.31-0.462,0.546-0.63
		c0.236-0.168,0.516-0.296,0.84-0.384c0.324-0.088,0.682-0.132,1.074-0.132c0.4,0,0.746,0.024,1.038,0.072
		c0.292,0.048,0.578,0.112,0.858,0.192v-0.191c0-0.548-0.16-0.963-0.48-1.246s-0.772-0.423-1.356-0.423
		c-0.368,0-0.702,0.04-1.002,0.12c-0.3,0.08-0.594,0.188-0.882,0.324l-0.276-0.761c0.344-0.162,0.692-0.292,1.044-0.389
		c0.352-0.098,0.756-0.146,1.212-0.146c0.88,0,1.548,0.228,2.004,0.684c0.432,0.432,0.648,1.041,0.648,1.824v3.792h-0.912v-0.924
		c-0.216,0.28-0.506,0.526-0.87,0.738C212.237,125.616,211.783,125.722,211.239,125.722z M211.426,124.966
		c0.287,0,0.554-0.04,0.801-0.12c0.247-0.079,0.464-0.193,0.652-0.34c0.188-0.147,0.335-0.322,0.442-0.525
		c0.108-0.203,0.162-0.428,0.162-0.674v-0.574c-0.231-0.063-0.495-0.123-0.79-0.179c-0.295-0.056-0.634-0.084-1.017-0.084
		c-0.574,0-1.019,0.114-1.333,0.341c-0.315,0.227-0.472,0.527-0.472,0.901v0.024c0,0.191,0.042,0.364,0.125,0.52
		c0.083,0.155,0.197,0.285,0.341,0.388s0.309,0.183,0.496,0.239S211.218,124.966,211.426,124.966z"/>
	<path d="M218.475,125.698c-0.248,0-0.48-0.032-0.696-0.096c-0.216-0.064-0.402-0.166-0.558-0.306
		c-0.156-0.14-0.278-0.322-0.366-0.546c-0.088-0.224-0.132-0.492-0.132-0.804v-3.744h-0.864v-0.816h0.864v-1.872h0.924v1.872h1.968
		v0.816h-1.968v3.615c0,0.383,0.096,0.65,0.288,0.802c0.192,0.151,0.444,0.227,0.756,0.227c0.16,0,0.31-0.015,0.45-0.045
		c0.14-0.03,0.29-0.083,0.45-0.158v0.792c-0.16,0.088-0.33,0.154-0.51,0.198C218.901,125.676,218.699,125.698,218.475,125.698z"/>
	<path d="M221.391,117.01h1.056v1.02h-1.056V117.01z M221.451,119.386h0.924v6.204h-0.924V119.386z"/>
	<path d="M227.474,125.734c-0.464,0-0.892-0.086-1.284-0.258c-0.392-0.172-0.732-0.404-1.02-0.696s-0.512-0.632-0.672-1.02
		c-0.16-0.388-0.24-0.802-0.24-1.242v-0.024c0-0.439,0.08-0.856,0.24-1.248c0.16-0.392,0.384-0.736,0.672-1.032
		s0.63-0.53,1.026-0.702c0.396-0.172,0.83-0.258,1.302-0.258c0.464,0,0.894,0.086,1.29,0.258c0.396,0.172,0.738,0.404,1.026,0.696
		s0.512,0.632,0.672,1.02s0.24,0.802,0.24,1.242v0.024c0,0.44-0.083,0.856-0.246,1.248c-0.164,0.392-0.39,0.736-0.678,1.032
		s-0.632,0.53-1.032,0.702C228.37,125.648,227.938,125.734,227.474,125.734z M227.499,124.906c0.336,0,0.644-0.064,0.924-0.192
		c0.28-0.128,0.52-0.3,0.72-0.516c0.2-0.216,0.355-0.468,0.468-0.756c0.112-0.288,0.168-0.596,0.168-0.924v-0.024
		c0-0.336-0.058-0.65-0.174-0.942c-0.116-0.292-0.278-0.548-0.486-0.768c-0.208-0.22-0.452-0.394-0.732-0.522
		c-0.28-0.128-0.584-0.192-0.912-0.192c-0.336,0-0.644,0.064-0.924,0.192c-0.28,0.128-0.518,0.3-0.714,0.516
		c-0.196,0.216-0.35,0.47-0.462,0.762c-0.112,0.292-0.168,0.602-0.168,0.93v0.024c0,0.336,0.058,0.65,0.174,0.942
		c0.116,0.292,0.276,0.546,0.48,0.762c0.204,0.216,0.446,0.388,0.726,0.516C226.866,124.842,227.17,124.906,227.499,124.906z"/>
	<path d="M232.502,119.386h0.924v1.08c0.208-0.336,0.48-0.622,0.816-0.858s0.772-0.354,1.308-0.354c0.376,0,0.71,0.06,1.002,0.18
		c0.292,0.12,0.54,0.29,0.744,0.51c0.204,0.22,0.36,0.482,0.468,0.786s0.162,0.64,0.162,1.008v3.852h-0.924v-3.616
		c0-0.575-0.148-1.03-0.444-1.365c-0.296-0.335-0.72-0.503-1.272-0.503c-0.264,0-0.51,0.046-0.738,0.138s-0.426,0.224-0.594,0.395
		c-0.168,0.172-0.298,0.377-0.39,0.617c-0.092,0.239-0.138,0.503-0.138,0.79v3.544h-0.924V119.386z"/>
	<path d="M242.066,125.71c-0.448,0-0.9-0.082-1.356-0.246s-0.86-0.386-1.212-0.666l0.468-0.66c0.336,0.256,0.686,0.452,1.05,0.588
		c0.364,0.136,0.73,0.204,1.098,0.204c0.376,0,0.684-0.088,0.924-0.264c0.24-0.176,0.36-0.416,0.36-0.72v-0.024
		c0-0.152-0.042-0.284-0.126-0.396c-0.084-0.112-0.198-0.21-0.342-0.294c-0.144-0.084-0.31-0.158-0.498-0.222
		c-0.188-0.064-0.382-0.124-0.582-0.18c-0.24-0.072-0.482-0.15-0.726-0.234c-0.244-0.084-0.464-0.19-0.66-0.318
		c-0.196-0.128-0.356-0.288-0.48-0.48s-0.186-0.432-0.186-0.72v-0.024c0-0.264,0.052-0.506,0.156-0.726
		c0.104-0.22,0.25-0.408,0.438-0.564c0.188-0.156,0.412-0.276,0.672-0.36c0.26-0.084,0.542-0.126,0.846-0.126
		c0.384,0,0.771,0.062,1.164,0.186s0.748,0.29,1.068,0.498l-0.42,0.696c-0.288-0.184-0.59-0.33-0.906-0.438s-0.626-0.162-0.93-0.162
		c-0.368,0-0.66,0.086-0.876,0.258c-0.216,0.172-0.324,0.386-0.324,0.642v0.024c0,0.144,0.044,0.27,0.132,0.378
		s0.206,0.202,0.354,0.282c0.148,0.08,0.318,0.152,0.51,0.216c0.192,0.064,0.392,0.128,0.6,0.192c0.24,0.072,0.478,0.152,0.714,0.24
		c0.236,0.088,0.45,0.2,0.642,0.336c0.192,0.136,0.346,0.3,0.462,0.492c0.116,0.192,0.174,0.428,0.174,0.708v0.024
		c0,0.296-0.058,0.558-0.174,0.786c-0.116,0.228-0.272,0.422-0.468,0.582c-0.196,0.16-0.428,0.282-0.696,0.366
		S242.378,125.71,242.066,125.71z"/>
	<path d="M246.11,116.831h0.924v3.636c0.208-0.336,0.48-0.622,0.816-0.858s0.772-0.354,1.308-0.354c0.376,0,0.71,0.06,1.002,0.18
		c0.292,0.12,0.54,0.29,0.744,0.51c0.204,0.22,0.36,0.482,0.468,0.786s0.162,0.64,0.162,1.008v3.852h-0.924v-3.616
		c0-0.575-0.148-1.03-0.444-1.365c-0.296-0.335-0.72-0.503-1.272-0.503c-0.264,0-0.51,0.046-0.738,0.138s-0.426,0.224-0.594,0.395
		c-0.168,0.172-0.298,0.377-0.39,0.617c-0.092,0.239-0.138,0.503-0.138,0.79v3.544h-0.924V116.831z"/>
	<path d="M253.634,117.01h1.056v1.02h-1.056V117.01z M253.694,119.386h0.924v6.204h-0.924V119.386z"/>
	<path d="M256.886,119.386h0.924v1.248c0.128-0.184,0.27-0.36,0.426-0.528c0.156-0.168,0.33-0.314,0.522-0.438
		c0.192-0.124,0.406-0.224,0.642-0.3c0.236-0.076,0.498-0.114,0.786-0.114c0.368,0,0.73,0.072,1.086,0.216s0.674,0.354,0.954,0.63
		c0.28,0.276,0.504,0.612,0.672,1.008s0.252,0.85,0.252,1.362v0.024c0,0.504-0.084,0.956-0.252,1.356
		c-0.168,0.4-0.39,0.738-0.666,1.014s-0.592,0.488-0.948,0.636c-0.356,0.148-0.722,0.222-1.098,0.222
		c-0.288,0-0.552-0.036-0.792-0.108c-0.24-0.072-0.456-0.168-0.648-0.288c-0.192-0.12-0.366-0.26-0.522-0.42
		c-0.156-0.16-0.294-0.328-0.414-0.504v3.108h-0.924V119.386z M260.018,124.895c0.296,0,0.578-0.054,0.846-0.162
		s0.5-0.264,0.696-0.468c0.196-0.204,0.352-0.454,0.468-0.75c0.116-0.296,0.174-0.632,0.174-1.008v-0.024
		c0-0.368-0.058-0.7-0.174-0.996c-0.116-0.296-0.274-0.548-0.474-0.756c-0.2-0.208-0.432-0.368-0.696-0.48
		c-0.264-0.112-0.544-0.168-0.84-0.168c-0.288,0-0.566,0.058-0.834,0.174c-0.268,0.116-0.508,0.28-0.72,0.492
		s-0.38,0.464-0.504,0.756s-0.186,0.614-0.186,0.966v0.024c0,0.36,0.062,0.688,0.186,0.984s0.292,0.548,0.504,0.756
		s0.452,0.37,0.72,0.486C259.452,124.836,259.73,124.895,260.018,124.895z"/>
	<path d="M267.026,125.71c-0.448,0-0.9-0.082-1.356-0.246s-0.86-0.386-1.212-0.666l0.468-0.66c0.336,0.256,0.686,0.452,1.05,0.588
		c0.364,0.136,0.73,0.204,1.098,0.204c0.376,0,0.684-0.088,0.924-0.264c0.24-0.176,0.36-0.416,0.36-0.72v-0.024
		c0-0.152-0.042-0.284-0.126-0.396c-0.084-0.112-0.198-0.21-0.342-0.294c-0.144-0.084-0.31-0.158-0.498-0.222
		c-0.188-0.064-0.382-0.124-0.582-0.18c-0.24-0.072-0.482-0.15-0.726-0.234c-0.244-0.084-0.464-0.19-0.66-0.318
		c-0.196-0.128-0.356-0.288-0.48-0.48s-0.186-0.432-0.186-0.72v-0.024c0-0.264,0.052-0.506,0.156-0.726
		c0.104-0.22,0.25-0.408,0.438-0.564c0.188-0.156,0.412-0.276,0.672-0.36c0.26-0.084,0.542-0.126,0.846-0.126
		c0.384,0,0.771,0.062,1.164,0.186s0.749,0.29,1.068,0.498l-0.42,0.696c-0.288-0.184-0.59-0.33-0.906-0.438s-0.626-0.162-0.93-0.162
		c-0.368,0-0.66,0.086-0.876,0.258c-0.216,0.172-0.324,0.386-0.324,0.642v0.024c0,0.144,0.044,0.27,0.132,0.378
		s0.206,0.202,0.354,0.282c0.148,0.08,0.318,0.152,0.51,0.216c0.192,0.064,0.392,0.128,0.6,0.192c0.24,0.072,0.478,0.152,0.714,0.24
		c0.236,0.088,0.45,0.2,0.642,0.336c0.192,0.136,0.346,0.3,0.462,0.492c0.116,0.192,0.174,0.428,0.174,0.708v0.024
		c0,0.296-0.058,0.558-0.174,0.786s-0.271,0.422-0.468,0.582c-0.196,0.16-0.428,0.282-0.696,0.366S267.338,125.71,267.026,125.71z"
		/>
</g>
<path fill="#F39200" d="M238.422,85.374c0,5.018-4.069,9.089-9.103,9.089c-5.023,0-9.107-4.072-9.107-9.089
	c0-5.029,4.083-9.105,9.107-9.105C234.354,76.268,238.422,80.344,238.422,85.374"/>
<g>
	<path d="M311.417,81.458h3.568c0.479,0,0.904,0.066,1.275,0.198c0.372,0.132,0.677,0.313,0.917,0.545
		c0.359,0.375,0.539,0.822,0.539,1.341v0.024c0,0.271-0.038,0.513-0.114,0.725c-0.075,0.212-0.178,0.396-0.305,0.551
		c-0.128,0.156-0.27,0.288-0.425,0.395c-0.156,0.108-0.317,0.198-0.485,0.27c0.247,0.072,0.48,0.167,0.7,0.283
		s0.41,0.254,0.569,0.415c0.16,0.161,0.288,0.351,0.384,0.571c0.096,0.22,0.144,0.475,0.144,0.763v0.024
		c0,0.361-0.072,0.683-0.216,0.968s-0.35,0.525-0.617,0.721s-0.589,0.347-0.964,0.451c-0.375,0.104-0.791,0.156-1.246,0.156h-3.725
		V81.458z M314.842,85.19c0.574,0,1.039-0.125,1.394-0.376c0.355-0.251,0.533-0.624,0.533-1.117v-0.024
		c0-0.414-0.159-0.745-0.479-0.992s-0.778-0.371-1.377-0.371h-2.549v2.88H314.842z M315.178,89.006c0.638,0,1.141-0.132,1.508-0.396
		s0.551-0.632,0.551-1.104v-0.024c0-0.456-0.188-0.81-0.563-1.062s-0.93-0.378-1.664-0.378h-2.646v2.964H315.178z"/>
	<path d="M320.045,83.654h0.924v1.62c0.112-0.256,0.252-0.492,0.42-0.708s0.36-0.402,0.576-0.558
		c0.216-0.156,0.452-0.274,0.708-0.354c0.256-0.08,0.532-0.116,0.828-0.108v0.996h-0.072c-0.336,0-0.654,0.06-0.954,0.18
		c-0.3,0.12-0.563,0.3-0.786,0.54c-0.224,0.24-0.4,0.538-0.527,0.894c-0.129,0.356-0.192,0.766-0.192,1.23v2.472h-0.924V83.654z"/>
	<path d="M326.584,89.99c-0.288,0-0.572-0.04-0.852-0.12c-0.28-0.08-0.528-0.202-0.744-0.366s-0.391-0.366-0.522-0.606
		c-0.132-0.24-0.197-0.52-0.197-0.84v-0.024c0-0.336,0.063-0.63,0.191-0.882s0.311-0.462,0.546-0.63
		c0.236-0.168,0.517-0.296,0.84-0.384c0.324-0.088,0.683-0.132,1.074-0.132c0.4,0,0.746,0.024,1.038,0.072
		c0.292,0.048,0.578,0.112,0.858,0.192v-0.191c0-0.548-0.16-0.963-0.48-1.246s-0.771-0.423-1.355-0.423
		c-0.368,0-0.702,0.04-1.002,0.12c-0.301,0.08-0.595,0.188-0.883,0.324l-0.275-0.761c0.344-0.162,0.691-0.292,1.044-0.389
		c0.352-0.098,0.756-0.146,1.212-0.146c0.88,0,1.548,0.228,2.004,0.684c0.432,0.432,0.648,1.041,0.648,1.824v3.792h-0.912v-0.924
		c-0.217,0.28-0.507,0.526-0.87,0.738C327.582,89.884,327.128,89.99,326.584,89.99z M326.771,89.234c0.287,0,0.555-0.04,0.802-0.12
		c0.247-0.079,0.465-0.193,0.652-0.34c0.187-0.147,0.334-0.322,0.442-0.525c0.107-0.203,0.161-0.428,0.161-0.674V87
		c-0.231-0.063-0.494-0.123-0.789-0.179c-0.296-0.056-0.635-0.084-1.017-0.084c-0.574,0-1.02,0.114-1.334,0.341
		c-0.315,0.227-0.473,0.527-0.473,0.901v0.024c0,0.191,0.042,0.364,0.126,0.52s0.197,0.285,0.341,0.388s0.309,0.183,0.496,0.239
		S326.563,89.234,326.771,89.234z"/>
	<path d="M331.805,83.654h0.924v1.08c0.208-0.336,0.479-0.622,0.816-0.858c0.336-0.236,0.771-0.354,1.308-0.354
		c0.376,0,0.71,0.06,1.002,0.18c0.292,0.12,0.54,0.29,0.744,0.51c0.204,0.22,0.359,0.482,0.468,0.786s0.162,0.64,0.162,1.008v3.852
		h-0.924v-3.616c0-0.575-0.148-1.03-0.444-1.365c-0.296-0.335-0.72-0.503-1.271-0.503c-0.265,0-0.511,0.046-0.738,0.138
		c-0.229,0.092-0.426,0.224-0.594,0.395c-0.168,0.172-0.299,0.377-0.391,0.617s-0.138,0.503-0.138,0.79v3.544h-0.924V83.654z"/>
	<path d="M341.908,89.99c-0.376,0-0.74-0.072-1.092-0.216c-0.353-0.144-0.668-0.354-0.948-0.63c-0.28-0.276-0.504-0.612-0.672-1.008
		s-0.252-0.85-0.252-1.362V86.75c0-0.504,0.084-0.956,0.252-1.356s0.392-0.738,0.672-1.014s0.596-0.488,0.948-0.636
		c0.352-0.148,0.716-0.222,1.092-0.222c0.288,0,0.553,0.036,0.792,0.108c0.24,0.072,0.456,0.168,0.648,0.288
		c0.191,0.12,0.366,0.26,0.521,0.42c0.156,0.16,0.294,0.328,0.414,0.504v-3.744h0.924v8.76h-0.924V88.61
		c-0.128,0.184-0.27,0.36-0.426,0.528c-0.156,0.168-0.33,0.316-0.521,0.444c-0.192,0.128-0.406,0.228-0.643,0.3
		C342.458,89.954,342.196,89.99,341.908,89.99z M342.076,89.162c0.288,0,0.566-0.058,0.834-0.174
		c0.269-0.116,0.508-0.28,0.721-0.492c0.212-0.212,0.38-0.464,0.504-0.756c0.124-0.292,0.186-0.618,0.186-0.978v-0.024
		c0-0.36-0.062-0.686-0.186-0.978c-0.124-0.292-0.292-0.542-0.504-0.75c-0.213-0.208-0.452-0.37-0.721-0.486
		c-0.268-0.116-0.546-0.174-0.834-0.174c-0.304,0-0.588,0.054-0.852,0.162c-0.264,0.108-0.494,0.264-0.69,0.468
		s-0.352,0.454-0.468,0.75s-0.174,0.632-0.174,1.008v0.024c0,0.368,0.058,0.7,0.174,0.996c0.116,0.296,0.274,0.548,0.474,0.756
		c0.2,0.208,0.433,0.368,0.696,0.48C341.5,89.106,341.78,89.162,342.076,89.162z"/>
</g>
<g>
	<path d="M298.865,95.857h6.071v0.852h-5.124v2.892h4.584v0.852h-4.584v2.952h5.185v0.852h-6.132V95.857z"/>
	<path d="M309.353,104.389c-0.376,0-0.74-0.072-1.092-0.216c-0.353-0.144-0.668-0.354-0.948-0.63
		c-0.28-0.276-0.504-0.612-0.672-1.008s-0.252-0.85-0.252-1.362v-0.024c0-0.504,0.084-0.956,0.252-1.356s0.392-0.738,0.672-1.014
		s0.596-0.488,0.948-0.636c0.352-0.148,0.716-0.222,1.092-0.222c0.288,0,0.553,0.036,0.792,0.108
		c0.24,0.072,0.456,0.168,0.648,0.288c0.191,0.12,0.366,0.26,0.521,0.42c0.156,0.16,0.294,0.328,0.414,0.504v-3.744h0.924v8.76
		h-0.924v-1.248c-0.128,0.184-0.27,0.36-0.426,0.528c-0.156,0.168-0.33,0.316-0.521,0.444c-0.192,0.128-0.406,0.228-0.643,0.3
		C309.902,104.354,309.641,104.389,309.353,104.389z M309.521,103.562c0.288,0,0.566-0.058,0.834-0.174
		c0.269-0.116,0.508-0.28,0.721-0.492c0.212-0.212,0.38-0.464,0.504-0.756c0.124-0.292,0.186-0.618,0.186-0.978v-0.024
		c0-0.36-0.062-0.686-0.186-0.978c-0.124-0.292-0.292-0.542-0.504-0.75c-0.213-0.208-0.452-0.37-0.721-0.486
		c-0.268-0.116-0.546-0.174-0.834-0.174c-0.304,0-0.588,0.054-0.852,0.162c-0.264,0.108-0.494,0.264-0.69,0.468
		s-0.352,0.454-0.468,0.75s-0.174,0.632-0.174,1.008v0.024c0,0.368,0.058,0.7,0.174,0.996c0.116,0.296,0.274,0.548,0.474,0.756
		c0.2,0.208,0.433,0.368,0.696,0.48C308.944,103.505,309.225,103.562,309.521,103.562z"/>
	<path d="M317.116,104.389c-0.376,0-0.71-0.06-1.002-0.18c-0.292-0.12-0.54-0.29-0.743-0.51c-0.204-0.22-0.36-0.482-0.469-0.786
		c-0.107-0.304-0.162-0.64-0.162-1.008v-3.852h0.925v3.616c0,0.575,0.147,1.03,0.443,1.365c0.296,0.335,0.721,0.502,1.272,0.502
		c0.264,0,0.51-0.045,0.738-0.137c0.228-0.092,0.424-0.224,0.588-0.396c0.163-0.171,0.294-0.377,0.39-0.616
		c0.096-0.24,0.144-0.503,0.144-0.791v-3.544h0.912v6.204h-0.912v-1.08c-0.208,0.336-0.479,0.622-0.815,0.858
		S317.652,104.389,317.116,104.389z"/>
	<path d="M325.133,104.401c-0.456,0-0.878-0.086-1.267-0.258c-0.388-0.172-0.724-0.404-1.008-0.696s-0.506-0.634-0.666-1.026
		s-0.239-0.804-0.239-1.236v-0.024c0-0.439,0.079-0.856,0.239-1.248c0.16-0.392,0.382-0.736,0.666-1.032s0.62-0.53,1.008-0.702
		c0.389-0.172,0.811-0.258,1.267-0.258c0.296,0,0.563,0.028,0.804,0.084c0.24,0.056,0.46,0.134,0.66,0.234s0.384,0.218,0.552,0.354
		c0.168,0.136,0.324,0.28,0.468,0.432l-0.611,0.648c-0.248-0.256-0.519-0.476-0.811-0.66c-0.292-0.184-0.649-0.276-1.073-0.276
		c-0.313,0-0.604,0.062-0.876,0.186c-0.272,0.124-0.509,0.294-0.708,0.51c-0.2,0.216-0.356,0.47-0.469,0.762
		c-0.111,0.292-0.168,0.606-0.168,0.942v0.024c0,0.336,0.059,0.65,0.174,0.942c0.116,0.292,0.276,0.548,0.48,0.768
		c0.204,0.22,0.444,0.392,0.72,0.516c0.276,0.124,0.578,0.186,0.906,0.186c0.4,0,0.754-0.088,1.062-0.264
		c0.309-0.176,0.586-0.396,0.835-0.66l0.588,0.552c-0.313,0.352-0.666,0.64-1.063,0.864
		C326.207,104.289,325.717,104.401,325.133,104.401z"/>
	<path d="M331.156,104.389c-0.288,0-0.572-0.04-0.852-0.12c-0.28-0.08-0.528-0.202-0.744-0.366s-0.391-0.366-0.522-0.606
		c-0.132-0.24-0.197-0.52-0.197-0.84v-0.024c0-0.336,0.063-0.63,0.191-0.882s0.311-0.462,0.546-0.63
		c0.236-0.168,0.517-0.296,0.84-0.384c0.324-0.088,0.683-0.132,1.074-0.132c0.4,0,0.746,0.024,1.038,0.072
		c0.292,0.048,0.578,0.112,0.858,0.192v-0.191c0-0.548-0.16-0.963-0.48-1.246s-0.771-0.423-1.355-0.423
		c-0.368,0-0.702,0.04-1.002,0.12c-0.301,0.08-0.595,0.188-0.883,0.324l-0.275-0.761c0.344-0.162,0.691-0.292,1.044-0.389
		c0.352-0.098,0.756-0.146,1.212-0.146c0.88,0,1.548,0.228,2.004,0.684c0.432,0.432,0.648,1.041,0.648,1.824v3.792h-0.912v-0.924
		c-0.217,0.28-0.507,0.526-0.87,0.738C332.154,104.283,331.7,104.389,331.156,104.389z M331.343,103.633
		c0.287,0,0.555-0.04,0.802-0.12c0.247-0.079,0.465-0.193,0.652-0.34c0.187-0.147,0.334-0.322,0.442-0.525
		c0.107-0.203,0.161-0.428,0.161-0.674V101.4c-0.231-0.063-0.494-0.123-0.789-0.179c-0.296-0.056-0.635-0.084-1.017-0.084
		c-0.574,0-1.02,0.114-1.334,0.341c-0.315,0.227-0.473,0.527-0.473,0.901v0.024c0,0.191,0.042,0.364,0.126,0.52
		s0.197,0.285,0.341,0.388s0.309,0.183,0.496,0.239S331.136,103.633,331.343,103.633z"/>
	<path d="M338.393,104.365c-0.248,0-0.48-0.032-0.696-0.096s-0.402-0.166-0.559-0.306c-0.155-0.14-0.277-0.322-0.365-0.546
		c-0.089-0.224-0.132-0.492-0.132-0.804v-3.744h-0.864v-0.816h0.864v-1.872h0.924v1.872h1.968v0.816h-1.968v3.615
		c0,0.383,0.096,0.65,0.288,0.802c0.191,0.151,0.443,0.227,0.756,0.227c0.16,0,0.31-0.015,0.45-0.045
		c0.14-0.03,0.289-0.083,0.449-0.158v0.792c-0.16,0.088-0.33,0.154-0.51,0.198S338.616,104.365,338.393,104.365z"/>
	<path d="M341.308,95.677h1.057v1.02h-1.057V95.677z M341.368,98.053h0.924v6.204h-0.924V98.053z"/>
	<path d="M347.393,104.401c-0.464,0-0.893-0.086-1.284-0.258c-0.393-0.172-0.732-0.404-1.021-0.696
		c-0.287-0.292-0.512-0.632-0.672-1.02c-0.16-0.388-0.239-0.802-0.239-1.242v-0.024c0-0.439,0.079-0.856,0.239-1.248
		c0.16-0.392,0.385-0.736,0.672-1.032c0.288-0.296,0.631-0.53,1.026-0.702c0.396-0.172,0.83-0.258,1.302-0.258
		c0.464,0,0.895,0.086,1.29,0.258c0.396,0.172,0.738,0.404,1.026,0.696s0.512,0.632,0.672,1.02s0.24,0.802,0.24,1.242v0.024
		c0,0.44-0.082,0.856-0.246,1.248c-0.164,0.392-0.39,0.736-0.678,1.032s-0.633,0.53-1.032,0.702
		C348.288,104.315,347.856,104.401,347.393,104.401z M347.416,103.573c0.336,0,0.645-0.064,0.924-0.192
		c0.28-0.128,0.521-0.3,0.721-0.516c0.199-0.216,0.355-0.468,0.468-0.756s0.168-0.596,0.168-0.924v-0.024
		c0-0.336-0.059-0.65-0.174-0.942c-0.116-0.292-0.278-0.548-0.486-0.768c-0.208-0.22-0.452-0.394-0.731-0.522
		c-0.28-0.128-0.584-0.192-0.912-0.192c-0.336,0-0.645,0.064-0.924,0.192c-0.28,0.128-0.519,0.3-0.715,0.516
		c-0.195,0.216-0.35,0.47-0.462,0.762c-0.111,0.292-0.168,0.602-0.168,0.93v0.024c0,0.336,0.059,0.65,0.174,0.942
		c0.116,0.292,0.276,0.546,0.48,0.762c0.204,0.216,0.446,0.388,0.726,0.516C346.784,103.509,347.088,103.573,347.416,103.573z"/>
	<path d="M352.42,98.053h0.924v1.08c0.208-0.336,0.479-0.622,0.816-0.858c0.336-0.236,0.771-0.354,1.308-0.354
		c0.376,0,0.71,0.06,1.002,0.18c0.292,0.12,0.54,0.29,0.744,0.51c0.204,0.22,0.359,0.482,0.468,0.786s0.162,0.64,0.162,1.008v3.852
		h-0.924v-3.616c0-0.575-0.148-1.03-0.444-1.365c-0.296-0.335-0.72-0.503-1.271-0.503c-0.265,0-0.511,0.046-0.738,0.138
		c-0.229,0.092-0.426,0.224-0.594,0.395c-0.168,0.172-0.299,0.377-0.391,0.617s-0.138,0.503-0.138,0.79v3.544h-0.924V98.053z"/>
</g>
<path fill="#F39200" d="M340.432,62.127c0,7.839-6.357,14.201-14.225,14.201c-7.846,0-14.228-6.362-14.228-14.201
	c0-7.86,6.382-14.228,14.228-14.228C334.074,47.9,340.432,54.268,340.432,62.127"/>
<g>
	<path fill="#12100B" d="M480.319,25.508c-0.971,0-1.857-0.159-2.661-0.477c-0.803-0.318-1.568-0.806-2.297-1.465l0.85-1.005
		c0.636,0.578,1.277,1.008,1.924,1.292c0.647,0.283,1.393,0.425,2.236,0.425c0.82,0,1.476-0.193,1.968-0.581
		c0.49-0.387,0.736-0.881,0.736-1.482V22.18c0-0.277-0.047-0.528-0.139-0.754c-0.093-0.225-0.255-0.43-0.487-0.615
		c-0.231-0.185-0.553-0.353-0.964-0.503c-0.411-0.15-0.936-0.294-1.572-0.433c-0.695-0.15-1.301-0.323-1.815-0.52
		c-0.517-0.196-0.941-0.433-1.277-0.71s-0.585-0.601-0.747-0.971s-0.243-0.803-0.243-1.3v-0.035c0-0.474,0.098-0.913,0.294-1.317
		c0.196-0.404,0.474-0.754,0.832-1.048c0.358-0.295,0.78-0.526,1.266-0.693s1.017-0.251,1.595-0.251c0.89,0,1.667,0.125,2.331,0.373
		c0.665,0.249,1.309,0.622,1.933,1.118l-0.797,1.057c-0.566-0.462-1.136-0.797-1.707-1.005c-0.572-0.208-1.17-0.312-1.794-0.312
		c-0.798,0-1.428,0.188-1.89,0.563c-0.463,0.375-0.693,0.841-0.693,1.396v0.035c0,0.289,0.046,0.546,0.139,0.771
		c0.092,0.226,0.26,0.434,0.503,0.624c0.242,0.191,0.577,0.364,1.005,0.52c0.428,0.156,0.977,0.304,1.646,0.442
		c1.353,0.3,2.349,0.716,2.99,1.248c0.642,0.532,0.962,1.26,0.962,2.184v0.035c0,0.52-0.103,0.991-0.309,1.413
		c-0.205,0.422-0.488,0.783-0.849,1.083c-0.361,0.301-0.796,0.532-1.304,0.693C481.475,25.427,480.92,25.508,480.319,25.508z"/>
	<path fill="#12100B" d="M490.095,25.49c-0.358,0-0.693-0.046-1.005-0.139c-0.313-0.092-0.581-0.239-0.807-0.442
		c-0.225-0.202-0.401-0.465-0.528-0.789c-0.127-0.323-0.19-0.71-0.19-1.161v-5.408h-1.248v-1.179h1.248v-2.704h1.334v2.704h2.843
		v1.179h-2.843v5.221c0,0.553,0.139,0.939,0.416,1.158c0.277,0.219,0.642,0.329,1.093,0.329c0.23,0,0.447-0.021,0.649-0.065
		c0.202-0.043,0.419-0.12,0.65-0.229v1.144c-0.231,0.127-0.477,0.222-0.737,0.286C490.71,25.458,490.418,25.49,490.095,25.49z"/>
	<path fill="#12100B" d="M494.271,16.373h1.335v2.34c0.162-0.37,0.364-0.711,0.606-1.023c0.243-0.312,0.521-0.581,0.832-0.806
		c0.313-0.225,0.653-0.396,1.023-0.511c0.369-0.115,0.768-0.167,1.195-0.156v1.438h-0.104c-0.485,0-0.945,0.087-1.378,0.26
		c-0.434,0.173-0.813,0.433-1.136,0.78s-0.578,0.777-0.763,1.292s-0.277,1.106-0.277,1.776v3.571h-1.335V16.373z"/>
	<path fill="#12100B" d="M505.191,25.542c-0.67,0-1.288-0.125-1.854-0.373c-0.566-0.249-1.058-0.583-1.474-1.005
		s-0.739-0.913-0.971-1.474c-0.23-0.56-0.347-1.158-0.347-1.794v-0.035c0-0.635,0.116-1.236,0.347-1.802
		c0.231-0.566,0.555-1.063,0.971-1.491c0.416-0.428,0.91-0.766,1.482-1.014s1.198-0.373,1.881-0.373c0.67,0,1.291,0.124,1.863,0.373
		s1.065,0.583,1.481,1.005s0.739,0.913,0.971,1.473c0.231,0.561,0.347,1.159,0.347,1.794v0.035c0,0.636-0.118,1.237-0.355,1.803
		c-0.236,0.566-0.563,1.063-0.979,1.491c-0.416,0.428-0.913,0.766-1.491,1.014C506.485,25.418,505.861,25.542,505.191,25.542z
		 M505.227,24.347c0.485,0,0.93-0.093,1.334-0.277c0.405-0.185,0.752-0.434,1.04-0.746c0.289-0.312,0.515-0.676,0.677-1.092
		c0.161-0.416,0.242-0.861,0.242-1.335v-0.035c0-0.485-0.084-0.938-0.251-1.36c-0.168-0.422-0.402-0.792-0.702-1.109
		c-0.301-0.318-0.653-0.569-1.058-0.754c-0.404-0.185-0.844-0.277-1.317-0.277c-0.485,0-0.93,0.092-1.334,0.277
		c-0.405,0.185-0.749,0.433-1.032,0.745s-0.505,0.679-0.667,1.101c-0.162,0.422-0.242,0.87-0.242,1.343v0.035
		c0,0.485,0.083,0.939,0.251,1.361c0.167,0.422,0.398,0.789,0.693,1.101s0.644,0.561,1.049,0.746
		C504.313,24.254,504.752,24.347,505.227,24.347z"/>
	<path fill="#12100B" d="M512.472,16.373h1.335v1.56c0.301-0.485,0.693-0.898,1.179-1.239s1.115-0.511,1.89-0.511
		c0.543,0,1.025,0.086,1.447,0.26s0.78,0.419,1.074,0.737c0.295,0.318,0.521,0.696,0.677,1.135c0.155,0.439,0.233,0.925,0.233,1.456
		v5.564h-1.335v-5.223c0-0.83-0.214-1.487-0.641-1.972c-0.428-0.484-1.04-0.727-1.838-0.727c-0.381,0-0.736,0.066-1.065,0.199
		c-0.33,0.133-0.615,0.323-0.858,0.571c-0.242,0.248-0.431,0.544-0.563,0.891c-0.133,0.346-0.199,0.726-0.199,1.141v5.12h-1.335
		V16.373z"/>
	<path fill="#12100B" d="M527.274,28.143c-0.751,0-1.468-0.104-2.149-0.312s-1.323-0.52-1.924-0.936l0.606-1.04
		c0.521,0.37,1.063,0.653,1.63,0.849c0.565,0.197,1.172,0.295,1.819,0.295c0.994,0,1.785-0.269,2.375-0.806
		c0.589-0.537,0.884-1.332,0.884-2.383v-1.057c-0.393,0.52-0.872,0.965-1.438,1.334c-0.566,0.37-1.26,0.555-2.08,0.555
		c-0.543,0-1.066-0.098-1.568-0.294c-0.503-0.197-0.951-0.477-1.344-0.841c-0.393-0.364-0.708-0.803-0.944-1.317
		c-0.237-0.514-0.355-1.095-0.355-1.742v-0.035c0-0.659,0.118-1.248,0.355-1.768c0.236-0.52,0.552-0.962,0.944-1.326
		c0.393-0.364,0.844-0.644,1.353-0.841c0.508-0.196,1.028-0.294,1.56-0.294c0.416,0,0.8,0.049,1.152,0.147
		c0.353,0.099,0.67,0.229,0.954,0.39c0.282,0.162,0.54,0.353,0.771,0.572c0.231,0.219,0.439,0.451,0.624,0.693v-1.612h1.335v7.401
		c0,0.693-0.099,1.303-0.295,1.829c-0.196,0.526-0.479,0.974-0.849,1.343c-0.405,0.404-0.896,0.705-1.474,0.901
		C528.638,28.044,527.991,28.143,527.274,28.143z M527.257,23.462c0.428,0,0.838-0.072,1.23-0.217
		c0.394-0.144,0.743-0.352,1.049-0.624c0.307-0.271,0.552-0.592,0.737-0.962c0.185-0.37,0.277-0.78,0.277-1.23v-0.035
		c0-0.462-0.093-0.878-0.277-1.248c-0.186-0.37-0.431-0.688-0.737-0.953c-0.306-0.266-0.655-0.471-1.049-0.616
		c-0.393-0.144-0.803-0.216-1.23-0.216s-0.829,0.072-1.204,0.216c-0.376,0.145-0.705,0.347-0.988,0.607
		c-0.283,0.26-0.506,0.575-0.667,0.945c-0.162,0.37-0.243,0.786-0.243,1.248v0.035c0,0.451,0.084,0.864,0.252,1.24
		c0.167,0.375,0.393,0.696,0.676,0.962s0.612,0.474,0.987,0.624C526.445,23.388,526.841,23.462,527.257,23.462z"/>
</g>
<g>
	<path fill="#12100B" d="M476.142,34.001h4.541c0.683,0,1.303,0.09,1.864,0.269c0.56,0.179,1.039,0.434,1.438,0.763
		c0.398,0.33,0.704,0.731,0.918,1.205c0.214,0.474,0.321,1.011,0.321,1.612v0.035c0,0.659-0.128,1.233-0.382,1.725
		s-0.598,0.904-1.031,1.239c-0.433,0.335-0.938,0.586-1.517,0.754s-1.19,0.251-1.837,0.251h-2.947v4.281h-1.369V34.001z
		 M480.518,40.622c0.499,0,0.953-0.063,1.365-0.191c0.411-0.127,0.764-0.31,1.06-0.548s0.521-0.519,0.678-0.843
		s0.235-0.69,0.235-1.096V37.91c0-0.87-0.299-1.527-0.896-1.974c-0.597-0.447-1.388-0.67-2.372-0.67h-3.077v5.356H480.518z"/>
	<path fill="#12100B" d="M488.379,42.2c0.046,0.474,0.161,0.896,0.347,1.265c0.185,0.37,0.422,0.682,0.711,0.936
		c0.288,0.254,0.612,0.448,0.971,0.581c0.357,0.133,0.733,0.2,1.126,0.2c0.624,0,1.158-0.116,1.604-0.347
		c0.444-0.231,0.853-0.538,1.222-0.919l0.832,0.746c-0.45,0.508-0.965,0.916-1.542,1.222c-0.578,0.306-1.295,0.459-2.149,0.459
		c-0.613,0-1.19-0.113-1.733-0.338c-0.543-0.226-1.018-0.543-1.422-0.954c-0.404-0.41-0.725-0.904-0.962-1.482
		c-0.236-0.578-0.355-1.213-0.355-1.907c0-0.647,0.107-1.256,0.321-1.829c0.214-0.572,0.511-1.068,0.893-1.491
		c0.381-0.421,0.835-0.754,1.36-0.997c0.526-0.243,1.101-0.364,1.725-0.364c0.659,0,1.248,0.124,1.769,0.373
		c0.52,0.249,0.959,0.586,1.317,1.014c0.357,0.427,0.629,0.93,0.814,1.508c0.185,0.578,0.277,1.196,0.277,1.854
		c0,0.058,0,0.125,0,0.2s-0.006,0.165-0.018,0.269H488.379z M494.15,41.107c-0.034-0.402-0.121-0.784-0.26-1.146
		s-0.326-0.681-0.563-0.957c-0.236-0.276-0.525-0.494-0.866-0.655c-0.341-0.161-0.731-0.241-1.17-0.241
		c-0.382,0-0.74,0.075-1.075,0.224s-0.63,0.359-0.884,0.629s-0.465,0.589-0.633,0.957c-0.167,0.368-0.274,0.764-0.32,1.189H494.15z"
		/>
	<path fill="#12100B" d="M497.998,37.173h1.335v2.34c0.162-0.37,0.364-0.711,0.606-1.023c0.243-0.312,0.521-0.581,0.832-0.806
		c0.313-0.225,0.653-0.396,1.023-0.511c0.369-0.115,0.768-0.167,1.195-0.156v1.438h-0.104c-0.485,0-0.945,0.087-1.378,0.26
		c-0.434,0.173-0.813,0.433-1.136,0.78s-0.578,0.777-0.763,1.292s-0.277,1.106-0.277,1.776v3.571h-1.335V37.173z"/>
	<path fill="#12100B" d="M508.156,46.308c-0.647,0-1.301-0.119-1.959-0.355c-0.659-0.237-1.242-0.557-1.751-0.962l0.676-0.953
		c0.485,0.37,0.991,0.653,1.518,0.849c0.525,0.197,1.054,0.295,1.586,0.295c0.543,0,0.987-0.127,1.334-0.381
		c0.347-0.254,0.521-0.601,0.521-1.04v-0.035c0-0.22-0.061-0.41-0.183-0.572c-0.121-0.162-0.285-0.303-0.493-0.424
		c-0.208-0.122-0.448-0.228-0.72-0.321c-0.271-0.092-0.552-0.179-0.841-0.26c-0.347-0.104-0.696-0.216-1.049-0.338
		c-0.353-0.121-0.67-0.274-0.953-0.459c-0.283-0.185-0.515-0.416-0.693-0.693c-0.18-0.277-0.269-0.624-0.269-1.04v-0.035
		c0-0.381,0.075-0.731,0.226-1.049c0.149-0.318,0.36-0.589,0.633-0.815c0.271-0.225,0.595-0.398,0.971-0.52
		c0.375-0.121,0.782-0.182,1.222-0.182c0.555,0,1.115,0.089,1.682,0.269c0.565,0.179,1.08,0.419,1.542,0.719l-0.606,1.005
		c-0.416-0.266-0.853-0.477-1.309-0.633c-0.457-0.156-0.904-0.234-1.344-0.234c-0.531,0-0.953,0.125-1.265,0.373
		c-0.313,0.249-0.469,0.558-0.469,0.928v0.035c0,0.208,0.063,0.39,0.191,0.546c0.127,0.156,0.297,0.292,0.511,0.407
		c0.214,0.116,0.46,0.22,0.737,0.312c0.277,0.093,0.565,0.185,0.866,0.277c0.347,0.104,0.69,0.22,1.031,0.347
		c0.341,0.127,0.65,0.289,0.928,0.485c0.277,0.197,0.499,0.433,0.667,0.71c0.167,0.277,0.251,0.619,0.251,1.023v0.035
		c0,0.428-0.084,0.806-0.251,1.135c-0.168,0.329-0.393,0.609-0.676,0.841c-0.283,0.231-0.618,0.407-1.006,0.528
		C509.025,46.247,508.606,46.308,508.156,46.308z"/>
	<path fill="#12100B" d="M518.088,46.342c-0.67,0-1.288-0.125-1.854-0.373c-0.566-0.249-1.058-0.583-1.474-1.005
		s-0.739-0.913-0.971-1.474c-0.23-0.56-0.347-1.158-0.347-1.794v-0.035c0-0.635,0.116-1.236,0.347-1.802
		c0.231-0.566,0.555-1.063,0.971-1.491c0.416-0.428,0.91-0.766,1.482-1.014s1.198-0.373,1.881-0.373c0.67,0,1.291,0.124,1.863,0.373
		s1.065,0.583,1.481,1.005s0.739,0.913,0.971,1.473c0.231,0.561,0.347,1.159,0.347,1.794v0.035c0,0.636-0.118,1.237-0.355,1.803
		c-0.236,0.566-0.563,1.063-0.979,1.491c-0.416,0.428-0.913,0.766-1.491,1.014C519.382,46.218,518.758,46.342,518.088,46.342z
		 M518.123,45.146c0.485,0,0.93-0.093,1.334-0.277c0.405-0.185,0.752-0.434,1.04-0.746c0.289-0.312,0.515-0.676,0.677-1.092
		c0.161-0.416,0.242-0.861,0.242-1.335v-0.035c0-0.485-0.084-0.938-0.251-1.36c-0.168-0.422-0.402-0.792-0.702-1.109
		c-0.301-0.318-0.653-0.569-1.058-0.754c-0.404-0.185-0.844-0.277-1.317-0.277c-0.485,0-0.93,0.092-1.334,0.277
		c-0.405,0.185-0.749,0.433-1.032,0.745s-0.505,0.679-0.667,1.101c-0.162,0.422-0.242,0.87-0.242,1.343v0.035
		c0,0.485,0.083,0.939,0.251,1.361c0.167,0.422,0.398,0.789,0.693,1.101s0.644,0.561,1.049,0.746
		C517.21,45.054,517.648,45.146,518.123,45.146z"/>
	<path fill="#12100B" d="M525.35,37.173h1.335v1.56c0.301-0.485,0.693-0.898,1.179-1.239s1.115-0.511,1.89-0.511
		c0.543,0,1.025,0.086,1.447,0.26s0.78,0.419,1.074,0.737c0.295,0.318,0.521,0.696,0.677,1.135c0.155,0.439,0.233,0.925,0.233,1.456
		v5.564h-1.335v-5.223c0-0.83-0.214-1.487-0.641-1.972c-0.428-0.484-1.04-0.727-1.838-0.727c-0.381,0-0.736,0.066-1.065,0.199
		c-0.33,0.133-0.615,0.323-0.858,0.571c-0.242,0.248-0.431,0.544-0.563,0.891c-0.133,0.346-0.199,0.726-0.199,1.141v5.12h-1.335
		V37.173z"/>
	<path fill="#12100B" d="M538.854,46.325c-0.416,0-0.826-0.058-1.23-0.173c-0.405-0.115-0.763-0.292-1.075-0.528
		c-0.312-0.237-0.563-0.529-0.754-0.875s-0.286-0.751-0.286-1.213V43.5c0-0.485,0.093-0.91,0.277-1.274
		c0.185-0.364,0.448-0.667,0.789-0.91s0.745-0.427,1.213-0.555c0.468-0.127,0.985-0.19,1.552-0.19c0.577,0,1.077,0.035,1.499,0.104
		s0.835,0.162,1.239,0.277v-0.275c0-0.792-0.231-1.392-0.693-1.8s-1.115-0.611-1.958-0.611c-0.532,0-1.015,0.058-1.448,0.173
		c-0.433,0.115-0.857,0.271-1.273,0.468l-0.398-1.099c0.496-0.234,0.999-0.421,1.508-0.563c0.508-0.141,1.092-0.211,1.751-0.211
		c1.271,0,2.235,0.33,2.895,0.988c0.624,0.624,0.936,1.502,0.936,2.634v5.478h-1.317V44.8c-0.312,0.404-0.73,0.76-1.257,1.066
		C540.295,46.172,539.639,46.325,538.854,46.325z M539.123,45.233c0.415,0,0.801-0.058,1.157-0.172
		c0.357-0.115,0.671-0.279,0.942-0.492c0.271-0.213,0.483-0.466,0.639-0.759c0.155-0.293,0.233-0.618,0.233-0.974v-0.829
		c-0.334-0.092-0.714-0.178-1.141-0.258c-0.426-0.081-0.915-0.121-1.468-0.121c-0.83,0-1.472,0.164-1.927,0.492
		c-0.455,0.328-0.683,0.762-0.683,1.302v0.035c0,0.276,0.061,0.526,0.182,0.75s0.285,0.411,0.492,0.561
		c0.208,0.149,0.446,0.265,0.718,0.345C538.539,45.193,538.823,45.233,539.123,45.233z"/>
	<path fill="#12100B" d="M546.515,33.481h1.334v12.653h-1.334V33.481z"/>
</g>
<g>
	<path fill="#12100B" d="M476.142,54.801h5.155c0.692,0,1.307,0.095,1.843,0.286s0.978,0.453,1.323,0.787
		c0.52,0.542,0.779,1.188,0.779,1.938v0.035c0,0.392-0.056,0.741-0.165,1.047s-0.256,0.571-0.44,0.796s-0.39,0.415-0.614,0.571
		s-0.458,0.286-0.7,0.389c0.357,0.104,0.694,0.24,1.012,0.408s0.592,0.368,0.822,0.599s0.415,0.506,0.554,0.825
		s0.208,0.686,0.208,1.103v0.035c0,0.521-0.104,0.987-0.312,1.398c-0.208,0.411-0.505,0.758-0.892,1.042
		c-0.386,0.283-0.851,0.5-1.393,0.651s-1.142,0.226-1.799,0.226h-5.382V54.801z M481.089,60.191c0.83,0,1.501-0.181,2.014-0.543
		c0.514-0.362,0.77-0.9,0.77-1.614V58c0-0.599-0.23-1.076-0.691-1.433c-0.461-0.356-1.123-0.535-1.987-0.535h-3.683v4.16H481.089z
		 M481.574,65.704c0.922,0,1.648-0.191,2.179-0.572s0.796-0.913,0.796-1.595v-0.035c0-0.659-0.271-1.17-0.813-1.534
		c-0.541-0.364-1.343-0.546-2.403-0.546h-3.821v4.282H481.574z"/>
	<path fill="#12100B" d="M488.604,57.973h1.335v2.34c0.162-0.37,0.364-0.711,0.606-1.023c0.243-0.312,0.521-0.581,0.832-0.806
		c0.313-0.225,0.653-0.396,1.023-0.511c0.369-0.115,0.768-0.167,1.195-0.156v1.438h-0.104c-0.485,0-0.945,0.087-1.378,0.26
		c-0.434,0.173-0.813,0.433-1.136,0.78s-0.578,0.777-0.763,1.292s-0.277,1.106-0.277,1.776v3.571h-1.335V57.973z"/>
	<path fill="#12100B" d="M498.051,67.125c-0.416,0-0.826-0.058-1.23-0.173c-0.405-0.115-0.763-0.292-1.075-0.528
		c-0.312-0.237-0.563-0.529-0.754-0.875s-0.286-0.751-0.286-1.213v-0.035c0-0.485,0.093-0.91,0.277-1.274
		c0.185-0.364,0.448-0.667,0.789-0.91s0.745-0.427,1.213-0.555c0.468-0.127,0.985-0.19,1.552-0.19c0.577,0,1.077,0.035,1.499,0.104
		s0.835,0.162,1.239,0.277v-0.275c0-0.792-0.231-1.392-0.693-1.8s-1.115-0.611-1.958-0.611c-0.532,0-1.015,0.058-1.448,0.173
		c-0.433,0.115-0.857,0.271-1.273,0.468l-0.398-1.099c0.496-0.234,0.999-0.421,1.508-0.563c0.508-0.141,1.092-0.211,1.751-0.211
		c1.271,0,2.235,0.33,2.895,0.988c0.624,0.624,0.936,1.502,0.936,2.634v5.478h-1.317V65.6c-0.312,0.404-0.73,0.76-1.257,1.066
		C499.492,66.972,498.836,67.125,498.051,67.125z M498.32,66.033c0.415,0,0.801-0.058,1.157-0.172
		c0.357-0.115,0.671-0.279,0.942-0.492c0.271-0.213,0.483-0.466,0.639-0.759c0.155-0.293,0.233-0.618,0.233-0.974v-0.829
		c-0.334-0.092-0.714-0.178-1.141-0.258c-0.426-0.081-0.915-0.121-1.468-0.121c-0.83,0-1.472,0.164-1.927,0.492
		c-0.455,0.328-0.683,0.762-0.683,1.302v0.035c0,0.276,0.061,0.526,0.182,0.75s0.285,0.411,0.492,0.561
		c0.208,0.149,0.446,0.265,0.718,0.345C497.736,65.993,498.021,66.033,498.32,66.033z"/>
	<path fill="#12100B" d="M505.573,57.973h1.335v1.56c0.301-0.485,0.693-0.898,1.179-1.239s1.115-0.511,1.89-0.511
		c0.543,0,1.025,0.086,1.447,0.26s0.78,0.419,1.074,0.737c0.295,0.318,0.521,0.696,0.677,1.135c0.155,0.439,0.233,0.925,0.233,1.456
		v5.564h-1.335v-5.223c0-0.83-0.214-1.487-0.641-1.972c-0.428-0.484-1.04-0.727-1.838-0.727c-0.381,0-0.736,0.066-1.065,0.199
		c-0.33,0.133-0.615,0.323-0.858,0.571c-0.242,0.248-0.431,0.544-0.563,0.891c-0.133,0.346-0.199,0.726-0.199,1.141v5.12h-1.335
		V57.973z"/>
	<path fill="#12100B" d="M520.186,67.125c-0.543,0-1.069-0.104-1.577-0.312c-0.509-0.208-0.965-0.512-1.369-0.91
		c-0.405-0.399-0.729-0.884-0.971-1.456c-0.243-0.572-0.364-1.228-0.364-1.967v-0.035c0-0.728,0.121-1.381,0.364-1.958
		c0.242-0.578,0.565-1.066,0.971-1.465c0.404-0.399,0.86-0.705,1.369-0.919c0.508-0.213,1.034-0.32,1.577-0.32
		c0.416,0,0.798,0.052,1.144,0.156c0.347,0.104,0.659,0.243,0.937,0.416s0.528,0.376,0.754,0.607s0.425,0.474,0.598,0.728v-5.408
		h1.335v12.653h-1.335v-1.803c-0.185,0.266-0.39,0.52-0.615,0.763c-0.225,0.243-0.477,0.457-0.754,0.642
		c-0.277,0.185-0.587,0.329-0.927,0.433C520.979,67.073,520.602,67.125,520.186,67.125z M520.429,65.929
		c0.416,0,0.817-0.083,1.204-0.251c0.387-0.167,0.733-0.404,1.04-0.71c0.306-0.306,0.549-0.67,0.729-1.092
		c0.179-0.422,0.269-0.893,0.269-1.413v-0.035c0-0.52-0.09-0.991-0.269-1.413c-0.18-0.421-0.423-0.783-0.729-1.083
		c-0.307-0.301-0.653-0.535-1.04-0.702s-0.788-0.251-1.204-0.251c-0.439,0-0.85,0.078-1.231,0.234
		c-0.381,0.156-0.713,0.381-0.996,0.676c-0.283,0.294-0.509,0.656-0.676,1.083c-0.168,0.428-0.252,0.913-0.252,1.456v0.035
		c0,0.532,0.084,1.011,0.252,1.439c0.167,0.428,0.396,0.792,0.685,1.092c0.288,0.301,0.624,0.532,1.005,0.693
		C519.597,65.848,520.001,65.929,520.429,65.929z"/>
</g>
</svg>
