<?xml version="1.0" encoding="utf-8"?>
<!-- Generator: Adobe Illustrator 15.1.0, SVG Export Plug-In . SVG Version: 6.00 Build 0)  -->
<!DOCTYPE svg PUBLIC "-//W3C//DTD SVG 1.1//EN" "http://www.w3.org/Graphics/SVG/1.1/DTD/svg11.dtd">
<svg version="1.1" id="Layer_1" xmlns="http://www.w3.org/2000/svg" xmlns:xlink="http://www.w3.org/1999/xlink" x="0px" y="0px"
	 width="653.547px" height="300px" viewBox="0 0 430.866 197.782" enable-background="new 0 0 430.866 197.782"
	 xml:space="preserve">
<g>
	<defs>
		<rect id="SVGID_1_" width="430.866" height="197.782"/>
	</defs>
	<clipPath id="SVGID_2_">
		<use xlink:href="#SVGID_1_"  overflow="visible"/>
	</clipPath>
	<path clip-path="url(#SVGID_2_)" fill="#EBEBEB" d="M288.246-0.293v22.204C256.394,24.94,81.785,48.18,9.788,197.781
		c0,0,96.173-129.59,278.458-126.881v21.995l63.623-46.593L288.246-0.293z"/>
</g>
<g>
	<path d="M23.564,153.738c0.353-0.084,0.918-0.139,1.475-0.139c0.807,0,1.327,0.139,1.707,0.454
		c0.325,0.241,0.529,0.612,0.529,1.104c0,0.611-0.408,1.141-1.058,1.373v0.027c0.594,0.139,1.29,0.631,1.29,1.559
		c0,0.538-0.213,0.955-0.538,1.252c-0.427,0.399-1.132,0.585-2.152,0.585c-0.557,0-0.983-0.037-1.252-0.074V153.738z
		 M24.372,156.298h0.733c0.844,0,1.345-0.455,1.345-1.058c0-0.724-0.547-1.021-1.364-1.021c-0.371,0-0.584,0.027-0.714,0.056
		V156.298z M24.372,159.286c0.167,0.028,0.39,0.037,0.677,0.037c0.835,0,1.605-0.306,1.605-1.216c0-0.844-0.733-1.205-1.614-1.205
		h-0.668V159.286z"/>
	<path d="M28.658,156.808c0-0.528-0.009-0.982-0.037-1.4h0.714l0.037,0.891H29.4c0.204-0.604,0.705-0.983,1.252-0.983
		c0.083,0,0.148,0.009,0.223,0.019v0.77c-0.083-0.018-0.167-0.018-0.278-0.018c-0.575,0-0.983,0.426-1.095,1.039
		c-0.019,0.111-0.028,0.25-0.028,0.38v2.394h-0.816V156.808z"/>
	<path d="M34.707,158.822c0,0.39,0.019,0.77,0.065,1.076h-0.733l-0.065-0.566h-0.028c-0.25,0.354-0.733,0.668-1.373,0.668
		c-0.909,0-1.373-0.64-1.373-1.289c0-1.086,0.965-1.68,2.7-1.67v-0.093c0-0.362-0.102-1.039-1.021-1.03
		c-0.427,0-0.863,0.121-1.178,0.334l-0.186-0.547c0.371-0.232,0.918-0.39,1.484-0.39c1.373,0,1.707,0.937,1.707,1.827V158.822z
		 M33.918,157.607c-0.891-0.02-1.902,0.139-1.902,1.011c0,0.538,0.353,0.779,0.761,0.779c0.594,0,0.974-0.371,1.104-0.751
		c0.028-0.094,0.037-0.186,0.037-0.26V157.607z"/>
	<path d="M36.108,156.623c0-0.473-0.009-0.844-0.037-1.215h0.724l0.046,0.742h0.019c0.223-0.418,0.742-0.835,1.484-0.835
		c0.622,0,1.586,0.371,1.586,1.911v2.672h-0.816v-2.588c0-0.725-0.269-1.327-1.039-1.327c-0.529,0-0.946,0.38-1.095,0.835
		c-0.037,0.102-0.056,0.241-0.056,0.381v2.699h-0.816V156.623z"/>
	<path d="M45.218,153.311v5.427c0,0.399,0.019,0.854,0.037,1.16h-0.724l-0.037-0.779h-0.028C44.226,159.62,43.688,160,42.955,160
		c-1.085,0-1.93-0.918-1.93-2.281c-0.009-1.494,0.928-2.403,2.013-2.403c0.696,0,1.15,0.325,1.354,0.677h0.019v-2.681H45.218z
		 M44.411,157.236c0-0.103-0.009-0.242-0.037-0.344c-0.121-0.51-0.566-0.938-1.178-0.938c-0.844,0-1.345,0.742-1.345,1.727
		c0,0.908,0.455,1.66,1.327,1.66c0.547,0,1.048-0.371,1.197-0.975c0.028-0.111,0.037-0.223,0.037-0.352V157.236z"/>
	<path d="M53.531,159.62c-0.362,0.14-1.085,0.343-1.93,0.343c-0.946,0-1.726-0.24-2.338-0.825c-0.538-0.52-0.872-1.354-0.872-2.329
		c0-1.864,1.29-3.229,3.386-3.229c0.724,0,1.299,0.158,1.568,0.288l-0.204,0.659c-0.334-0.158-0.751-0.27-1.382-0.27
		c-1.521,0-2.514,0.946-2.514,2.514c0,1.587,0.946,2.523,2.412,2.523c0.529,0,0.891-0.074,1.076-0.166v-1.865h-1.262v-0.649h2.06
		V159.62z"/>
	<path d="M58.885,157.616c0,1.661-1.16,2.384-2.236,2.384c-1.206,0-2.152-0.891-2.152-2.31c0-1.493,0.993-2.375,2.227-2.375
		C58.013,155.315,58.885,156.251,58.885,157.616z M55.332,157.662c0,0.984,0.557,1.727,1.354,1.727c0.779,0,1.364-0.733,1.364-1.744
		c0-0.762-0.38-1.717-1.345-1.717C55.749,155.927,55.332,156.818,55.332,157.662z"/>
	<path d="M63.162,158.822c0,0.39,0.019,0.77,0.065,1.076h-0.733l-0.065-0.566h-0.028c-0.25,0.354-0.733,0.668-1.373,0.668
		c-0.909,0-1.373-0.64-1.373-1.289c0-1.086,0.965-1.68,2.7-1.67v-0.093c0-0.362-0.102-1.039-1.021-1.03
		c-0.427,0-0.863,0.121-1.178,0.334l-0.186-0.547c0.371-0.232,0.918-0.39,1.484-0.39c1.373,0,1.707,0.937,1.707,1.827V158.822z
		 M62.373,157.607c-0.891-0.02-1.902,0.139-1.902,1.011c0,0.538,0.353,0.779,0.761,0.779c0.594,0,0.974-0.371,1.104-0.751
		c0.028-0.094,0.037-0.186,0.037-0.26V157.607z"/>
	<path d="M64.572,153.311h0.816v6.587h-0.816V153.311z"/>
	<path d="M66.326,161.048c0.204-0.557,0.455-1.549,0.557-2.227l0.909-0.093c-0.223,0.788-0.631,1.818-0.891,2.255L66.326,161.048z"
		/>
</g>
<g>
	<path d="M3.534,170.047c0.362,0.231,0.881,0.408,1.438,0.408c0.826,0,1.308-0.437,1.308-1.067c0-0.574-0.334-0.918-1.178-1.233
		c-1.021-0.371-1.651-0.909-1.651-1.781c0-0.974,0.807-1.698,2.022-1.698c0.631,0,1.104,0.148,1.373,0.307l-0.223,0.658
		c-0.195-0.12-0.612-0.297-1.178-0.297c-0.854,0-1.178,0.511-1.178,0.938c0,0.584,0.38,0.872,1.243,1.206
		c1.058,0.408,1.586,0.919,1.586,1.837c0,0.965-0.705,1.809-2.18,1.809c-0.603,0-1.262-0.186-1.596-0.408L3.534,170.047z"/>
	<path d="M9.202,165.464v1.076h1.169v0.621H9.202v2.422c0,0.557,0.158,0.872,0.612,0.872c0.223,0,0.353-0.019,0.473-0.056
		l0.037,0.621c-0.158,0.057-0.408,0.111-0.724,0.111c-0.38,0-0.687-0.129-0.881-0.343c-0.223-0.251-0.315-0.649-0.315-1.179v-2.449
		H7.708v-0.621h0.696v-0.835L9.202,165.464z"/>
	<path d="M11.383,167.941c0-0.528-0.009-0.982-0.037-1.4h0.714l0.037,0.891h0.028c0.204-0.604,0.705-0.983,1.252-0.983
		c0.083,0,0.148,0.009,0.223,0.019v0.77c-0.083-0.018-0.167-0.018-0.278-0.018c-0.575,0-0.983,0.426-1.095,1.039
		c-0.019,0.111-0.028,0.25-0.028,0.38v2.394h-0.816V167.941z"/>
	<path d="M17.441,169.955c0,0.39,0.019,0.77,0.065,1.076h-0.733l-0.065-0.566H16.68c-0.25,0.354-0.733,0.668-1.373,0.668
		c-0.909,0-1.373-0.64-1.373-1.289c0-1.086,0.965-1.68,2.7-1.67v-0.093c0-0.362-0.102-1.039-1.021-1.03
		c-0.427,0-0.863,0.121-1.178,0.334l-0.186-0.547c0.371-0.232,0.918-0.39,1.484-0.39c1.373,0,1.707,0.937,1.707,1.827V169.955z
		 M16.652,168.74c-0.891-0.02-1.902,0.139-1.902,1.011c0,0.538,0.353,0.779,0.761,0.779c0.594,0,0.974-0.371,1.104-0.751
		c0.028-0.094,0.037-0.186,0.037-0.26V168.74z"/>
	<path d="M19.779,165.464v1.076h1.169v0.621h-1.169v2.422c0,0.557,0.158,0.872,0.612,0.872c0.223,0,0.353-0.019,0.473-0.056
		l0.037,0.621c-0.158,0.057-0.408,0.111-0.724,0.111c-0.38,0-0.687-0.129-0.881-0.343c-0.223-0.251-0.315-0.649-0.315-1.179v-2.449
		h-0.696v-0.621h0.696v-0.835L19.779,165.464z"/>
	<path d="M22.284,168.934c0.019,1.104,0.714,1.559,1.54,1.559c0.584,0,0.946-0.103,1.243-0.231l0.148,0.584
		c-0.288,0.13-0.789,0.287-1.503,0.287c-1.382,0-2.208-0.918-2.208-2.272s0.798-2.412,2.106-2.412c1.475,0,1.855,1.28,1.855,2.106
		c0,0.166-0.009,0.287-0.028,0.38H22.284z M24.677,168.349c0.009-0.51-0.213-1.316-1.132-1.316c-0.835,0-1.188,0.751-1.252,1.316
		H24.677z"/>
	<path d="M30.402,170.373c0,1.039-0.213,1.66-0.64,2.059c-0.445,0.399-1.076,0.539-1.642,0.539c-0.538,0-1.132-0.131-1.494-0.371
		l0.204-0.631c0.297,0.194,0.761,0.361,1.317,0.361c0.835,0,1.447-0.436,1.447-1.577v-0.491h-0.019
		c-0.241,0.417-0.733,0.751-1.429,0.751c-1.113,0-1.911-0.946-1.911-2.189c0-1.521,0.993-2.375,2.032-2.375
		c0.779,0,1.197,0.399,1.401,0.771h0.019l0.028-0.678h0.724c-0.028,0.315-0.037,0.687-0.037,1.225V170.373z M29.585,168.312
		c0-0.139-0.009-0.26-0.046-0.361c-0.148-0.482-0.538-0.872-1.141-0.872c-0.779,0-1.336,0.659-1.336,1.698
		c0,0.881,0.455,1.613,1.327,1.613c0.51,0,0.965-0.314,1.132-0.834c0.046-0.14,0.065-0.297,0.065-0.437V168.312z"/>
	<path d="M32.137,166.541l0.974,2.653c0.111,0.297,0.223,0.649,0.297,0.919h0.019c0.083-0.27,0.176-0.613,0.288-0.938l0.891-2.635
		h0.863l-1.225,3.201c-0.584,1.539-0.983,2.318-1.54,2.811c-0.408,0.344-0.798,0.482-1.002,0.52l-0.204-0.678
		c0.204-0.064,0.473-0.194,0.714-0.398c0.223-0.176,0.492-0.492,0.687-0.909c0.037-0.083,0.065-0.148,0.065-0.194
		c0-0.047-0.019-0.111-0.065-0.214l-1.651-4.138H32.137z"/>
	<path d="M42.305,171.031c-0.176-0.176-0.343-0.361-0.584-0.604c-0.538,0.492-1.132,0.705-1.828,0.705
		c-1.215,0-1.92-0.816-1.92-1.753c0-0.854,0.51-1.438,1.225-1.827v-0.028c-0.325-0.408-0.52-0.872-0.52-1.308
		c0-0.771,0.547-1.55,1.586-1.55c0.779,0,1.382,0.511,1.382,1.327c0,0.658-0.38,1.178-1.373,1.67v0.037
		c0.529,0.611,1.123,1.289,1.521,1.734c0.288-0.436,0.482-1.039,0.603-1.828h0.742c-0.167,0.984-0.436,1.764-0.9,2.311
		c0.334,0.361,0.659,0.715,1.03,1.113H42.305z M41.322,169.955c-0.371-0.408-1.067-1.169-1.763-1.977
		c-0.343,0.223-0.807,0.613-0.807,1.281c0,0.714,0.529,1.262,1.29,1.262C40.57,170.521,41.025,170.279,41.322,169.955z
		 M39.42,166.132c0,0.455,0.213,0.798,0.473,1.132c0.631-0.362,1.039-0.696,1.039-1.233c0-0.381-0.213-0.808-0.733-0.808
		C39.689,165.223,39.42,165.65,39.42,166.132z"/>
	<path d="M51.416,168.285c-0.046-0.872-0.102-1.93-0.102-2.699h-0.019c-0.223,0.723-0.473,1.512-0.789,2.375l-1.104,3.033H48.79
		l-1.021-2.979c-0.297-0.891-0.538-1.688-0.714-2.43h-0.019c-0.019,0.779-0.065,1.818-0.121,2.764l-0.167,2.682h-0.77l0.436-6.253
		h1.03l1.067,3.024c0.26,0.77,0.464,1.457,0.631,2.105h0.019c0.167-0.631,0.39-1.316,0.668-2.105l1.113-3.024h1.03l0.39,6.253
		h-0.798L51.416,168.285z"/>
	<path d="M54.125,168.934c0.019,1.104,0.714,1.559,1.54,1.559c0.584,0,0.946-0.103,1.243-0.231l0.148,0.584
		c-0.288,0.13-0.789,0.287-1.503,0.287c-1.382,0-2.208-0.918-2.208-2.272s0.798-2.412,2.106-2.412c1.475,0,1.855,1.28,1.855,2.106
		c0,0.166-0.009,0.287-0.028,0.38H54.125z M56.519,168.349c0.009-0.51-0.213-1.316-1.132-1.316c-0.835,0-1.188,0.751-1.252,1.316
		H56.519z"/>
	<path d="M58.291,170.205c0.25,0.148,0.677,0.316,1.085,0.316c0.584,0,0.863-0.288,0.863-0.668c0-0.391-0.232-0.594-0.826-0.816
		c-0.816-0.297-1.197-0.733-1.197-1.271c0-0.724,0.594-1.317,1.549-1.317c0.455,0,0.854,0.12,1.095,0.278l-0.195,0.594
		c-0.176-0.111-0.501-0.27-0.918-0.27c-0.482,0-0.742,0.279-0.742,0.613c0,0.371,0.26,0.537,0.844,0.77
		c0.77,0.287,1.178,0.678,1.178,1.346c0,0.797-0.622,1.354-1.67,1.354c-0.492,0-0.946-0.129-1.262-0.314L58.291,170.205z"/>
	<path d="M61.964,170.205c0.25,0.148,0.677,0.316,1.085,0.316c0.584,0,0.863-0.288,0.863-0.668c0-0.391-0.232-0.594-0.826-0.816
		c-0.816-0.297-1.197-0.733-1.197-1.271c0-0.724,0.594-1.317,1.549-1.317c0.455,0,0.854,0.12,1.095,0.278l-0.195,0.594
		c-0.176-0.111-0.501-0.27-0.918-0.27c-0.482,0-0.742,0.279-0.742,0.613c0,0.371,0.26,0.537,0.844,0.77
		c0.77,0.287,1.178,0.678,1.178,1.346c0,0.797-0.622,1.354-1.67,1.354c-0.492,0-0.946-0.129-1.262-0.314L61.964,170.205z"/>
	<path d="M68.997,169.955c0,0.39,0.019,0.77,0.065,1.076h-0.733l-0.065-0.566h-0.028c-0.25,0.354-0.733,0.668-1.373,0.668
		c-0.909,0-1.373-0.64-1.373-1.289c0-1.086,0.965-1.68,2.7-1.67v-0.093c0-0.362-0.102-1.039-1.021-1.03
		c-0.427,0-0.863,0.121-1.178,0.334l-0.186-0.547c0.371-0.232,0.918-0.39,1.484-0.39c1.373,0,1.707,0.937,1.707,1.827V169.955z
		 M68.208,168.74c-0.891-0.02-1.902,0.139-1.902,1.011c0,0.538,0.353,0.779,0.761,0.779c0.594,0,0.974-0.371,1.104-0.751
		c0.028-0.094,0.037-0.186,0.037-0.26V168.74z"/>
	<path d="M74.248,170.373c0,1.039-0.213,1.66-0.64,2.059c-0.445,0.399-1.076,0.539-1.642,0.539c-0.538,0-1.132-0.131-1.494-0.371
		l0.204-0.631c0.297,0.194,0.761,0.361,1.317,0.361c0.835,0,1.447-0.436,1.447-1.577v-0.491h-0.019
		c-0.241,0.417-0.733,0.751-1.429,0.751c-1.113,0-1.911-0.946-1.911-2.189c0-1.521,0.993-2.375,2.032-2.375
		c0.779,0,1.197,0.399,1.401,0.771h0.019l0.028-0.678h0.724c-0.028,0.315-0.037,0.687-0.037,1.225V170.373z M73.432,168.312
		c0-0.139-0.009-0.26-0.046-0.361c-0.148-0.482-0.538-0.872-1.141-0.872c-0.779,0-1.336,0.659-1.336,1.698
		c0,0.881,0.455,1.613,1.327,1.613c0.51,0,0.965-0.314,1.132-0.834c0.046-0.14,0.065-0.297,0.065-0.437V168.312z"/>
	<path d="M76.141,168.934c0.019,1.104,0.714,1.559,1.54,1.559c0.584,0,0.946-0.103,1.243-0.231l0.148,0.584
		c-0.288,0.13-0.789,0.287-1.503,0.287c-1.382,0-2.208-0.918-2.208-2.272s0.798-2.412,2.106-2.412c1.475,0,1.855,1.28,1.855,2.106
		c0,0.166-0.009,0.287-0.028,0.38H76.141z M78.534,168.349c0.009-0.51-0.213-1.316-1.132-1.316c-0.835,0-1.188,0.751-1.252,1.316
		H78.534z"/>
	<path d="M80.307,170.205c0.25,0.148,0.677,0.316,1.085,0.316c0.584,0,0.863-0.288,0.863-0.668c0-0.391-0.232-0.594-0.826-0.816
		c-0.816-0.297-1.197-0.733-1.197-1.271c0-0.724,0.594-1.317,1.549-1.317c0.455,0,0.854,0.12,1.095,0.278l-0.195,0.594
		c-0.176-0.111-0.501-0.27-0.918-0.27c-0.482,0-0.742,0.279-0.742,0.613c0,0.371,0.26,0.537,0.844,0.77
		c0.77,0.287,1.178,0.678,1.178,1.346c0,0.797-0.622,1.354-1.67,1.354c-0.492,0-0.946-0.129-1.262-0.314L80.307,170.205z"/>
</g>
<g>
	<defs>
		<rect id="SVGID_3_" width="430.866" height="197.782"/>
	</defs>
	<clipPath id="SVGID_4_">
		<use xlink:href="#SVGID_3_"  overflow="visible"/>
	</clipPath>
	<path clip-path="url(#SVGID_4_)" fill="#F39200" d="M55.563,145.031c0,2.481-2.01,4.497-4.501,4.497
		c-2.486,0-4.508-2.016-4.508-4.497c0-2.488,2.021-4.505,4.508-4.505C53.553,140.526,55.563,142.542,55.563,145.031"/>
</g>
<g>
	<path d="M95.389,111.814c0.353-0.084,0.918-0.139,1.475-0.139c0.807,0,1.327,0.139,1.707,0.454
		c0.325,0.241,0.529,0.612,0.529,1.104c0,0.611-0.408,1.141-1.058,1.373v0.027c0.594,0.139,1.29,0.631,1.29,1.559
		c0,0.538-0.213,0.955-0.538,1.252c-0.427,0.399-1.132,0.585-2.152,0.585c-0.557,0-0.983-0.037-1.252-0.074V111.814z
		 M96.196,114.375h0.733c0.844,0,1.345-0.455,1.345-1.058c0-0.724-0.547-1.021-1.364-1.021c-0.371,0-0.584,0.027-0.714,0.056
		V114.375z M96.196,117.362c0.167,0.028,0.39,0.037,0.677,0.037c0.835,0,1.605-0.306,1.605-1.216c0-0.844-0.733-1.205-1.614-1.205
		h-0.668V117.362z"/>
	<path d="M100.482,114.884c0-0.528-0.009-0.982-0.037-1.4h0.714l0.037,0.891h0.028c0.204-0.604,0.705-0.983,1.252-0.983
		c0.083,0,0.148,0.009,0.223,0.019v0.77c-0.083-0.018-0.167-0.018-0.278-0.018c-0.575,0-0.983,0.426-1.095,1.039
		c-0.019,0.111-0.028,0.25-0.028,0.38v2.394h-0.816V114.884z"/>
	<path d="M106.531,116.898c0,0.39,0.019,0.77,0.065,1.076h-0.733l-0.065-0.566h-0.028c-0.25,0.354-0.733,0.668-1.373,0.668
		c-0.909,0-1.373-0.64-1.373-1.289c0-1.086,0.965-1.68,2.7-1.67v-0.093c0-0.362-0.102-1.039-1.021-1.03
		c-0.427,0-0.863,0.121-1.178,0.334l-0.186-0.547c0.371-0.232,0.918-0.39,1.484-0.39c1.373,0,1.707,0.937,1.707,1.827V116.898z
		 M105.743,115.683c-0.891-0.02-1.902,0.139-1.902,1.011c0,0.538,0.353,0.779,0.761,0.779c0.594,0,0.974-0.371,1.104-0.751
		c0.028-0.094,0.037-0.186,0.037-0.26V115.683z"/>
	<path d="M107.941,114.699c0-0.473-0.009-0.844-0.037-1.215h0.724l0.046,0.742h0.019c0.223-0.418,0.742-0.835,1.484-0.835
		c0.622,0,1.586,0.371,1.586,1.911v2.672h-0.816v-2.588c0-0.725-0.269-1.327-1.039-1.327c-0.529,0-0.946,0.38-1.095,0.835
		c-0.037,0.102-0.056,0.241-0.056,0.381v2.699h-0.816V114.699z"/>
	<path d="M117.042,111.387v5.427c0,0.399,0.019,0.854,0.037,1.16h-0.724l-0.037-0.779h-0.028c-0.241,0.501-0.779,0.881-1.512,0.881
		c-1.085,0-1.93-0.918-1.93-2.281c-0.009-1.494,0.928-2.403,2.013-2.403c0.696,0,1.15,0.325,1.354,0.677h0.019v-2.681H117.042z
		 M116.235,115.312c0-0.103-0.009-0.242-0.037-0.344c-0.121-0.51-0.566-0.938-1.178-0.938c-0.844,0-1.345,0.742-1.345,1.727
		c0,0.908,0.455,1.66,1.327,1.66c0.547,0,1.048-0.371,1.197-0.975c0.028-0.111,0.037-0.223,0.037-0.352V115.312z"/>
</g>
<g>
	<path d="M91.205,126.175h-2.421v2.254h2.709v0.678h-3.525v-6.253h3.386v0.677h-2.57v1.977h2.421V126.175z"/>
	<path d="M92.829,124.617l0.881,2.514c0.148,0.418,0.269,0.789,0.362,1.16H94.1c0.102-0.371,0.232-0.742,0.38-1.16l0.872-2.514
		h0.854l-1.763,4.49h-0.779l-1.707-4.49H92.829z"/>
	<path d="M97.978,123.355c0,0.278-0.195,0.501-0.52,0.501c-0.297,0-0.492-0.223-0.492-0.501s0.204-0.51,0.51-0.51
		C97.774,122.845,97.978,123.068,97.978,123.355z M97.069,129.107v-4.49h0.816v4.49H97.069z"/>
	<path d="M103.201,122.52v5.427c0,0.399,0.019,0.854,0.037,1.16h-0.724l-0.037-0.779h-0.028c-0.241,0.501-0.779,0.881-1.512,0.881
		c-1.085,0-1.93-0.918-1.93-2.281c-0.009-1.494,0.928-2.403,2.013-2.403c0.696,0,1.15,0.325,1.354,0.677h0.019v-2.681H103.201z
		 M102.394,126.445c0-0.103-0.009-0.242-0.037-0.344c-0.121-0.51-0.566-0.938-1.178-0.938c-0.844,0-1.345,0.742-1.345,1.727
		c0,0.908,0.455,1.66,1.327,1.66c0.547,0,1.048-0.371,1.197-0.975c0.028-0.111,0.037-0.223,0.037-0.352V126.445z"/>
	<path d="M105.112,127.01c0.019,1.104,0.714,1.559,1.54,1.559c0.584,0,0.946-0.103,1.243-0.231l0.148,0.584
		c-0.288,0.13-0.789,0.287-1.503,0.287c-1.382,0-2.208-0.918-2.208-2.272s0.798-2.412,2.106-2.412c1.475,0,1.855,1.28,1.855,2.106
		c0,0.166-0.009,0.287-0.028,0.38H105.112z M107.506,126.425c0.009-0.51-0.213-1.316-1.132-1.316c-0.835,0-1.188,0.751-1.252,1.316
		H107.506z"/>
	<path d="M109.389,125.832c0-0.473-0.009-0.844-0.037-1.215h0.724l0.046,0.742h0.019c0.223-0.418,0.742-0.835,1.484-0.835
		c0.622,0,1.586,0.371,1.586,1.911v2.672h-0.816v-2.588c0-0.725-0.269-1.327-1.039-1.327c-0.529,0-0.946,0.38-1.095,0.835
		c-0.037,0.102-0.056,0.241-0.056,0.381v2.699h-0.816V125.832z"/>
	<path d="M117.832,128.949c-0.213,0.103-0.687,0.26-1.29,0.26c-1.354,0-2.236-0.918-2.236-2.291c0-1.383,0.946-2.394,2.412-2.394
		c0.482,0,0.909,0.12,1.132,0.241l-0.186,0.621c-0.195-0.102-0.501-0.213-0.946-0.213c-1.03,0-1.586,0.77-1.586,1.697
		c0,1.039,0.668,1.68,1.559,1.68c0.464,0,0.77-0.111,1.002-0.213L117.832,128.949z"/>
	<path d="M119.196,127.01c0.019,1.104,0.714,1.559,1.54,1.559c0.584,0,0.946-0.103,1.243-0.231l0.148,0.584
		c-0.288,0.13-0.789,0.287-1.503,0.287c-1.382,0-2.208-0.918-2.208-2.272s0.798-2.412,2.106-2.412c1.475,0,1.855,1.28,1.855,2.106
		c0,0.166-0.009,0.287-0.028,0.38H119.196z M121.589,126.425c0.009-0.51-0.213-1.316-1.132-1.316c-0.835,0-1.188,0.751-1.252,1.316
		H121.589z"/>
</g>
<g>
	<defs>
		<rect id="SVGID_5_" width="430.866" height="197.782"/>
	</defs>
	<clipPath id="SVGID_6_">
		<use xlink:href="#SVGID_5_"  overflow="visible"/>
	</clipPath>
	<path clip-path="url(#SVGID_6_)" fill="#F39200" d="M114.558,99.5c0,3.102-2.516,5.622-5.631,5.622
		c-3.106,0-5.633-2.521-5.633-5.622c0-3.112,2.527-5.633,5.633-5.633C112.042,93.867,114.558,96.387,114.558,99.5"/>
</g>
<g>
	<path d="M167.207,79.515c0.353-0.083,0.918-0.139,1.475-0.139c0.807,0,1.327,0.139,1.707,0.455
		c0.325,0.241,0.529,0.612,0.529,1.104c0,0.612-0.408,1.141-1.058,1.373v0.028c0.594,0.139,1.29,0.631,1.29,1.559
		c0,0.538-0.213,0.956-0.538,1.252c-0.427,0.399-1.132,0.584-2.152,0.584c-0.557,0-0.983-0.037-1.252-0.074V79.515z M168.014,82.075
		h0.733c0.844,0,1.345-0.455,1.345-1.058c0-0.724-0.547-1.021-1.364-1.021c-0.371,0-0.584,0.028-0.714,0.056V82.075z
		 M168.014,85.063c0.167,0.028,0.39,0.037,0.677,0.037c0.835,0,1.605-0.306,1.605-1.215c0-0.844-0.733-1.206-1.614-1.206h-0.668
		V85.063z"/>
	<path d="M172.3,82.585c0-0.529-0.009-0.983-0.037-1.401h0.714l0.037,0.891h0.028c0.204-0.603,0.705-0.983,1.252-0.983
		c0.083,0,0.148,0.009,0.223,0.019v0.77c-0.083-0.019-0.167-0.019-0.278-0.019c-0.575,0-0.983,0.427-1.095,1.039
		c-0.019,0.111-0.028,0.25-0.028,0.38v2.394H172.3V82.585z"/>
	<path d="M178.359,84.599c0,0.39,0.019,0.77,0.065,1.076h-0.733l-0.065-0.566h-0.028c-0.25,0.353-0.733,0.668-1.373,0.668
		c-0.909,0-1.373-0.64-1.373-1.29c0-1.085,0.965-1.679,2.7-1.67v-0.093c0-0.362-0.102-1.039-1.021-1.03
		c-0.427,0-0.863,0.121-1.178,0.334l-0.186-0.547c0.371-0.232,0.918-0.39,1.484-0.39c1.373,0,1.707,0.937,1.707,1.828V84.599z
		 M177.57,83.383c-0.891-0.019-1.902,0.139-1.902,1.011c0,0.538,0.353,0.779,0.761,0.779c0.594,0,0.974-0.371,1.104-0.751
		c0.028-0.093,0.037-0.186,0.037-0.26V83.383z"/>
	<path d="M179.76,82.4c0-0.473-0.009-0.844-0.037-1.215h0.724l0.046,0.742h0.019c0.223-0.417,0.742-0.835,1.484-0.835
		c0.622,0,1.586,0.371,1.586,1.911v2.672h-0.816v-2.588c0-0.724-0.269-1.327-1.039-1.327c-0.529,0-0.946,0.38-1.095,0.835
		c-0.037,0.102-0.056,0.241-0.056,0.38v2.7h-0.816V82.4z"/>
	<path d="M188.861,79.088v5.427c0,0.399,0.019,0.854,0.037,1.16h-0.724l-0.037-0.779h-0.028c-0.241,0.501-0.779,0.881-1.512,0.881
		c-1.085,0-1.93-0.918-1.93-2.282c-0.009-1.494,0.928-2.403,2.013-2.403c0.696,0,1.15,0.325,1.354,0.677h0.019v-2.681H188.861z
		 M188.054,83.012c0-0.102-0.009-0.241-0.037-0.343c-0.121-0.51-0.566-0.937-1.178-0.937c-0.844,0-1.345,0.742-1.345,1.726
		c0,0.909,0.455,1.661,1.327,1.661c0.547,0,1.048-0.371,1.197-0.974c0.028-0.111,0.037-0.223,0.037-0.353V83.012z"/>
</g>
<g>
	<path d="M149.914,90.638c0.408-0.074,1.002-0.129,1.549-0.129c0.863,0,1.429,0.166,1.809,0.51c0.306,0.278,0.492,0.705,0.492,1.197
		c0,0.816-0.52,1.363-1.169,1.586v0.027c0.473,0.168,0.761,0.613,0.909,1.262c0.204,0.873,0.353,1.476,0.482,1.717h-0.835
		c-0.102-0.186-0.241-0.715-0.408-1.494c-0.186-0.862-0.529-1.188-1.262-1.215h-0.761v2.709h-0.807V90.638z M150.721,93.487h0.826
		c0.863,0,1.41-0.474,1.41-1.188c0-0.808-0.584-1.159-1.438-1.159c-0.39,0-0.659,0.027-0.798,0.064V93.487z"/>
	<path d="M155.332,94.711c0.019,1.104,0.714,1.559,1.54,1.559c0.584,0,0.946-0.103,1.243-0.231l0.148,0.584
		c-0.288,0.13-0.789,0.287-1.503,0.287c-1.382,0-2.208-0.918-2.208-2.272s0.798-2.412,2.106-2.412c1.475,0,1.855,1.28,1.855,2.106
		c0,0.166-0.009,0.287-0.028,0.38H155.332z M157.726,94.126c0.009-0.51-0.213-1.316-1.132-1.316c-0.835,0-1.188,0.751-1.252,1.316
		H157.726z"/>
	<path d="M159.609,90.221h0.816v6.587h-0.816V90.221z"/>
	<path d="M165.046,95.732c0,0.39,0.019,0.77,0.065,1.076h-0.733l-0.065-0.566h-0.028c-0.25,0.354-0.733,0.668-1.373,0.668
		c-0.909,0-1.373-0.64-1.373-1.289c0-1.086,0.965-1.68,2.7-1.67v-0.093c0-0.362-0.102-1.039-1.021-1.03
		c-0.427,0-0.863,0.121-1.178,0.334l-0.186-0.547c0.371-0.232,0.918-0.39,1.484-0.39c1.373,0,1.707,0.937,1.707,1.827V95.732z
		 M164.257,94.517c-0.891-0.02-1.902,0.139-1.902,1.011c0,0.538,0.353,0.779,0.761,0.779c0.594,0,0.974-0.371,1.104-0.751
		c0.028-0.094,0.037-0.186,0.037-0.26V94.517z"/>
	<path d="M167.393,91.242v1.076h1.169v0.621h-1.169v2.422c0,0.557,0.158,0.872,0.612,0.872c0.223,0,0.353-0.019,0.473-0.056
		l0.037,0.621c-0.158,0.057-0.408,0.111-0.724,0.111c-0.38,0-0.687-0.129-0.881-0.343c-0.223-0.251-0.315-0.649-0.315-1.179v-2.449
		h-0.696v-0.621h0.696v-0.835L167.393,91.242z"/>
	<path d="M170.483,91.056c0,0.278-0.195,0.501-0.52,0.501c-0.297,0-0.492-0.223-0.492-0.501s0.204-0.51,0.51-0.51
		C170.279,90.546,170.483,90.769,170.483,91.056z M169.574,96.808v-4.49h0.816v4.49H169.574z"/>
	<path d="M175.901,94.526c0,1.661-1.16,2.384-2.236,2.384c-1.206,0-2.152-0.891-2.152-2.31c0-1.493,0.993-2.375,2.227-2.375
		C175.029,92.225,175.901,93.162,175.901,94.526z M172.348,94.572c0,0.984,0.557,1.727,1.354,1.727c0.779,0,1.364-0.733,1.364-1.744
		c0-0.762-0.38-1.717-1.345-1.717C172.765,92.837,172.348,93.728,172.348,94.572z"/>
	<path d="M177.014,93.533c0-0.473-0.009-0.844-0.037-1.215h0.724l0.046,0.742h0.019c0.223-0.418,0.742-0.835,1.484-0.835
		c0.622,0,1.586,0.371,1.586,1.911v2.672h-0.816V94.22c0-0.725-0.269-1.327-1.039-1.327c-0.529,0-0.946,0.38-1.095,0.835
		c-0.037,0.102-0.056,0.241-0.056,0.381v2.699h-0.816V93.533z"/>
	<path d="M182.145,95.982c0.25,0.148,0.677,0.316,1.085,0.316c0.584,0,0.863-0.288,0.863-0.668c0-0.391-0.232-0.594-0.826-0.816
		c-0.816-0.297-1.197-0.733-1.197-1.271c0-0.724,0.594-1.317,1.549-1.317c0.455,0,0.854,0.12,1.095,0.278l-0.195,0.594
		c-0.176-0.111-0.501-0.27-0.918-0.27c-0.482,0-0.742,0.279-0.742,0.613c0,0.371,0.26,0.537,0.844,0.77
		c0.77,0.287,1.178,0.678,1.178,1.346c0,0.797-0.622,1.354-1.67,1.354c-0.492,0-0.946-0.129-1.262-0.314L182.145,95.982z"/>
	<path d="M186.023,90.221h0.816v2.812h0.019c0.13-0.232,0.334-0.445,0.584-0.585c0.241-0.14,0.529-0.223,0.835-0.223
		c0.603,0,1.568,0.371,1.568,1.911v2.672h-0.816v-2.579c0-0.724-0.269-1.327-1.039-1.327c-0.529,0-0.937,0.371-1.095,0.808
		c-0.046,0.12-0.056,0.241-0.056,0.39v2.709h-0.816V90.221z"/>
	<path d="M192.165,91.056c0,0.278-0.195,0.501-0.52,0.501c-0.297,0-0.492-0.223-0.492-0.501s0.204-0.51,0.51-0.51
		C191.96,90.546,192.165,90.769,192.165,91.056z M191.255,96.808v-4.49h0.816v4.49H191.255z"/>
	<path d="M193.519,93.784c0-0.575-0.019-1.039-0.037-1.466h0.724l0.046,0.77h0.019c0.325-0.547,0.863-0.862,1.596-0.862
		c1.095,0,1.911,0.919,1.911,2.272c0,1.615-0.993,2.412-2.05,2.412c-0.594,0-1.113-0.26-1.382-0.705h-0.019v2.44h-0.807V93.784z
		 M194.326,94.98c0,0.121,0.009,0.232,0.037,0.334c0.148,0.566,0.64,0.956,1.225,0.956c0.863,0,1.364-0.705,1.364-1.735
		c0-0.891-0.473-1.66-1.336-1.66c-0.557,0-1.085,0.39-1.234,1.002c-0.028,0.102-0.056,0.223-0.056,0.324V94.98z"/>
	<path d="M198.78,95.982c0.25,0.148,0.677,0.316,1.085,0.316c0.584,0,0.863-0.288,0.863-0.668c0-0.391-0.232-0.594-0.826-0.816
		c-0.816-0.297-1.197-0.733-1.197-1.271c0-0.724,0.594-1.317,1.549-1.317c0.455,0,0.854,0.12,1.095,0.278l-0.195,0.594
		c-0.176-0.111-0.501-0.27-0.918-0.27c-0.482,0-0.742,0.279-0.742,0.613c0,0.371,0.26,0.537,0.844,0.77
		c0.77,0.287,1.178,0.678,1.178,1.346c0,0.797-0.622,1.354-1.67,1.354c-0.492,0-0.946-0.129-1.262-0.314L198.78,95.982z"/>
</g>
<g>
	<defs>
		<rect id="SVGID_7_" width="430.866" height="197.782"/>
	</defs>
	<clipPath id="SVGID_8_">
		<use xlink:href="#SVGID_7_"  overflow="visible"/>
	</clipPath>
	<path clip-path="url(#SVGID_8_)" fill="#F39200" d="M187.269,65.714c0,3.879-3.147,7.028-7.038,7.028
		c-3.885,0-7.041-3.149-7.041-7.028c0-3.888,3.156-7.04,7.041-7.04C184.122,58.675,187.269,61.827,187.269,65.714"/>
</g>
<g>
	<path d="M243.491,63.021c0.353-0.083,0.918-0.139,1.475-0.139c0.808,0,1.327,0.139,1.707,0.455
		c0.325,0.241,0.529,0.612,0.529,1.104c0,0.612-0.408,1.141-1.058,1.373v0.028c0.594,0.139,1.29,0.631,1.29,1.559
		c0,0.538-0.214,0.956-0.539,1.252c-0.426,0.399-1.131,0.584-2.152,0.584c-0.557,0-0.982-0.037-1.252-0.074V63.021z M244.297,65.581
		h0.733c0.845,0,1.345-0.455,1.345-1.058c0-0.724-0.547-1.021-1.363-1.021c-0.371,0-0.584,0.028-0.715,0.056V65.581z
		 M244.297,68.568c0.168,0.028,0.391,0.037,0.678,0.037c0.835,0,1.605-0.306,1.605-1.215c0-0.844-0.733-1.206-1.615-1.206h-0.668
		V68.568z"/>
	<path d="M248.584,66.091c0-0.529-0.01-0.983-0.037-1.401h0.714l0.037,0.891h0.028c0.203-0.603,0.705-0.983,1.252-0.983
		c0.084,0,0.148,0.009,0.223,0.019v0.77c-0.084-0.019-0.167-0.019-0.278-0.019c-0.575,0-0.983,0.427-1.095,1.039
		c-0.019,0.111-0.027,0.25-0.027,0.38v2.394h-0.816V66.091z"/>
	<path d="M254.643,68.104c0,0.39,0.018,0.77,0.064,1.076h-0.732l-0.065-0.566h-0.028c-0.25,0.353-0.732,0.668-1.373,0.668
		c-0.908,0-1.373-0.64-1.373-1.29c0-1.085,0.965-1.679,2.7-1.67V66.23c0-0.362-0.103-1.039-1.021-1.03
		c-0.427,0-0.863,0.121-1.178,0.334l-0.186-0.547c0.371-0.232,0.918-0.39,1.484-0.39c1.373,0,1.707,0.937,1.707,1.828V68.104z
		 M253.854,66.889c-0.891-0.019-1.902,0.139-1.902,1.011c0,0.538,0.354,0.779,0.762,0.779c0.594,0,0.974-0.371,1.104-0.751
		c0.027-0.093,0.037-0.186,0.037-0.26V66.889z"/>
	<path d="M256.043,65.906c0-0.473-0.009-0.844-0.037-1.215h0.725l0.046,0.742h0.019c0.223-0.417,0.742-0.835,1.484-0.835
		c0.621,0,1.586,0.371,1.586,1.911v2.672h-0.816v-2.588c0-0.724-0.269-1.327-1.039-1.327c-0.528,0-0.945,0.38-1.094,0.835
		c-0.037,0.102-0.057,0.241-0.057,0.38v2.7h-0.816V65.906z"/>
	<path d="M265.145,62.594v5.427c0,0.399,0.019,0.854,0.037,1.16h-0.724l-0.037-0.779h-0.028c-0.24,0.501-0.779,0.881-1.512,0.881
		c-1.086,0-1.93-0.918-1.93-2.282c-0.01-1.494,0.928-2.403,2.014-2.403c0.695,0,1.15,0.325,1.354,0.677h0.02v-2.681H265.145z
		 M264.338,66.518c0-0.102-0.01-0.241-0.037-0.343c-0.121-0.51-0.566-0.937-1.179-0.937c-0.845,0-1.345,0.742-1.345,1.726
		c0,0.909,0.454,1.661,1.326,1.661c0.547,0,1.049-0.371,1.197-0.974c0.027-0.111,0.037-0.223,0.037-0.353V66.518z"/>
</g>
<g>
	<path d="M237.014,77.383h-2.422v2.254h2.709v0.677h-3.525v-6.253h3.387v0.677h-2.57v1.976h2.422V77.383z"/>
	<path d="M242.191,73.728v5.427c0,0.399,0.019,0.854,0.037,1.16h-0.724l-0.037-0.779h-0.027c-0.242,0.501-0.779,0.881-1.513,0.881
		c-1.085,0-1.93-0.918-1.93-2.282c-0.009-1.494,0.928-2.403,2.013-2.403c0.696,0,1.15,0.325,1.355,0.677h0.018v-2.681H242.191z
		 M241.383,77.652c0-0.102-0.009-0.241-0.037-0.343c-0.12-0.51-0.565-0.937-1.178-0.937c-0.844,0-1.346,0.742-1.346,1.726
		c0,0.909,0.455,1.661,1.327,1.661c0.548,0,1.048-0.371,1.196-0.974c0.028-0.111,0.037-0.223,0.037-0.353V77.652z"/>
	<path d="M247.405,79.081c0,0.473,0.01,0.881,0.037,1.234h-0.724l-0.046-0.733h-0.02c-0.203,0.362-0.686,0.835-1.484,0.835
		c-0.705,0-1.549-0.399-1.549-1.967v-2.625h0.816v2.477c0,0.854,0.27,1.438,1.002,1.438c0.547,0,0.928-0.38,1.076-0.751
		c0.047-0.111,0.074-0.26,0.074-0.417v-2.746h0.816V79.081z"/>
	<path d="M252.044,80.157c-0.214,0.102-0.687,0.26-1.29,0.26c-1.354,0-2.235-0.918-2.235-2.292c0-1.382,0.946-2.394,2.412-2.394
		c0.482,0,0.909,0.121,1.132,0.241l-0.186,0.622c-0.195-0.102-0.501-0.213-0.946-0.213c-1.03,0-1.587,0.77-1.587,1.698
		c0,1.039,0.668,1.679,1.559,1.679c0.465,0,0.771-0.111,1.002-0.213L252.044,80.157z"/>
	<path d="M256.247,79.238c0,0.39,0.02,0.77,0.065,1.076h-0.733l-0.064-0.566h-0.027c-0.251,0.353-0.733,0.668-1.373,0.668
		c-0.91,0-1.373-0.64-1.373-1.29c0-1.085,0.965-1.679,2.699-1.67v-0.093c0-0.362-0.102-1.039-1.021-1.03
		c-0.427,0-0.862,0.121-1.179,0.334l-0.186-0.547c0.371-0.232,0.919-0.39,1.484-0.39c1.373,0,1.707,0.937,1.707,1.828V79.238z
		 M255.458,78.023c-0.891-0.019-1.901,0.139-1.901,1.011c0,0.538,0.352,0.779,0.76,0.779c0.594,0,0.975-0.371,1.104-0.751
		c0.028-0.093,0.037-0.186,0.037-0.26V78.023z"/>
	<path d="M258.584,74.748v1.076h1.17v0.622h-1.17v2.421c0,0.557,0.158,0.872,0.613,0.872c0.223,0,0.352-0.019,0.473-0.056
		l0.037,0.622c-0.158,0.056-0.408,0.111-0.724,0.111c-0.38,0-0.687-0.13-0.882-0.343c-0.223-0.25-0.314-0.649-0.314-1.178v-2.449
		h-0.696v-0.622h0.696v-0.835L258.584,74.748z"/>
	<path d="M261.674,74.563c0,0.278-0.194,0.501-0.52,0.501c-0.297,0-0.491-0.223-0.491-0.501s0.204-0.51,0.511-0.51
		C261.471,74.052,261.674,74.275,261.674,74.563z M260.766,80.314v-4.49h0.816v4.49H260.766z"/>
	<path d="M267.092,78.032c0,1.661-1.159,2.384-2.235,2.384c-1.206,0-2.152-0.891-2.152-2.31c0-1.494,0.993-2.375,2.227-2.375
		C266.221,75.731,267.092,76.668,267.092,78.032z M263.54,78.079c0,0.983,0.557,1.726,1.354,1.726c0.779,0,1.364-0.733,1.364-1.744
		c0-0.761-0.381-1.716-1.346-1.716C263.958,76.344,263.54,77.234,263.54,78.079z"/>
	<path d="M268.206,77.04c0-0.473-0.009-0.844-0.037-1.215h0.725l0.046,0.742h0.019c0.223-0.417,0.742-0.835,1.484-0.835
		c0.621,0,1.586,0.371,1.586,1.911v2.672h-0.816v-2.588c0-0.724-0.269-1.327-1.039-1.327c-0.528,0-0.945,0.38-1.094,0.835
		c-0.037,0.102-0.057,0.241-0.057,0.38v2.7h-0.816V77.04z"/>
</g>
<g>
	<defs>
		<rect id="SVGID_9_" width="430.866" height="197.782"/>
	</defs>
	<clipPath id="SVGID_10_">
		<use xlink:href="#SVGID_9_"  overflow="visible"/>
	</clipPath>
	<path clip-path="url(#SVGID_10_)" fill="#F39200" d="M266.137,47.741c0,6.061-4.914,10.98-10.997,10.98c-6.066,0-11-4.92-11-10.98
		c0-6.077,4.934-11,11-11C261.223,36.741,266.137,41.665,266.137,47.741"/>
</g>
<g>
	<defs>
		<rect id="SVGID_11_" width="430.866" height="197.782"/>
	</defs>
	<clipPath id="SVGID_12_">
		<use xlink:href="#SVGID_11_"  overflow="visible"/>
	</clipPath>
	<g clip-path="url(#SVGID_12_)">
		<path fill="#5E5A5C" d="M4.759-24.694H2.645v-0.763h5.147v0.763H5.667v6.189H4.759V-24.694z"/>
		<path fill="#5E5A5C" d="M8.573-25.829H9.48v3.125h0.021c0.145-0.258,0.372-0.495,0.65-0.65c0.269-0.155,0.588-0.248,0.929-0.248
			c0.67,0,1.743,0.413,1.743,2.125v2.971h-0.908v-2.868c0-0.805-0.299-1.475-1.155-1.475c-0.588,0-1.042,0.413-1.217,0.897
			c-0.052,0.134-0.062,0.268-0.062,0.433v3.012H8.573V-25.829z"/>
		<path fill="#5E5A5C" d="M14.892-20.836c0.021,1.228,0.794,1.733,1.712,1.733c0.65,0,1.052-0.114,1.382-0.258l0.165,0.649
			c-0.32,0.145-0.877,0.32-1.671,0.32c-1.537,0-2.455-1.021-2.455-2.527s0.887-2.682,2.341-2.682c1.64,0,2.063,1.423,2.063,2.342
			c0,0.186-0.01,0.32-0.031,0.423H14.892z M17.553-21.486c0.011-0.567-0.237-1.465-1.258-1.465c-0.928,0-1.32,0.835-1.393,1.465
			H17.553z"/>
		<path fill="#5E5A5C" d="M21.974-25.354c0.392-0.093,1.021-0.155,1.64-0.155c0.897,0,1.475,0.155,1.898,0.505
			c0.361,0.269,0.588,0.681,0.588,1.228c0,0.681-0.454,1.269-1.176,1.527v0.031c0.66,0.155,1.434,0.701,1.434,1.733
			c0,0.598-0.237,1.063-0.599,1.393c-0.474,0.443-1.258,0.65-2.393,0.65c-0.619,0-1.093-0.042-1.392-0.083V-25.354z M22.871-22.507
			h0.815c0.939,0,1.496-0.505,1.496-1.176c0-0.805-0.608-1.135-1.516-1.135c-0.413,0-0.65,0.031-0.794,0.062V-22.507z
			 M22.871-19.186c0.186,0.031,0.434,0.041,0.753,0.041c0.928,0,1.784-0.34,1.784-1.351c0-0.938-0.815-1.341-1.795-1.341h-0.743
			V-19.186z"/>
		<path fill="#5E5A5C" d="M27.633-21.94c0-0.588-0.01-1.093-0.041-1.558h0.794l0.042,0.99h0.031c0.227-0.67,0.784-1.093,1.393-1.093
			c0.093,0,0.165,0.01,0.248,0.021v0.856c-0.093-0.021-0.186-0.021-0.31-0.021c-0.639,0-1.093,0.474-1.217,1.155
			c-0.021,0.124-0.031,0.278-0.031,0.423v2.661h-0.908V-21.94z"/>
		<path fill="#5E5A5C" d="M34.367-19.702c0,0.434,0.021,0.856,0.072,1.197h-0.814l-0.072-0.629h-0.031
			c-0.278,0.392-0.814,0.743-1.526,0.743c-1.011,0-1.527-0.711-1.527-1.434c0-1.207,1.073-1.867,3.002-1.857v-0.103
			c0-0.402-0.114-1.155-1.135-1.145c-0.475,0-0.959,0.134-1.31,0.372l-0.206-0.609c0.413-0.258,1.021-0.433,1.65-0.433
			c1.526,0,1.898,1.042,1.898,2.032V-19.702z M33.49-21.053c-0.99-0.021-2.115,0.155-2.115,1.125c0,0.598,0.392,0.866,0.846,0.866
			c0.66,0,1.083-0.413,1.227-0.835C33.48-20,33.49-20.104,33.49-20.186V-21.053z"/>
		<path fill="#5E5A5C" d="M35.932-22.146c0-0.526-0.01-0.938-0.041-1.352h0.804l0.052,0.825h0.021
			c0.248-0.464,0.825-0.928,1.65-0.928c0.691,0,1.764,0.413,1.764,2.125v2.971h-0.908v-2.878c0-0.805-0.299-1.475-1.155-1.475
			c-0.588,0-1.052,0.423-1.217,0.929c-0.042,0.113-0.062,0.268-0.062,0.423v3.001h-0.908V-22.146z"/>
		<path fill="#5E5A5C" d="M46.058-25.829v6.034c0,0.444,0.021,0.949,0.042,1.29h-0.805l-0.041-0.867h-0.031
			c-0.268,0.557-0.866,0.98-1.681,0.98c-1.207,0-2.146-1.021-2.146-2.537c-0.01-1.661,1.031-2.672,2.238-2.672
			c0.773,0,1.279,0.361,1.506,0.753h0.021v-2.981H46.058z M45.16-21.465c0-0.113-0.01-0.268-0.041-0.382
			c-0.134-0.567-0.629-1.042-1.31-1.042c-0.938,0-1.496,0.825-1.496,1.918c0,1.011,0.505,1.847,1.475,1.847
			c0.608,0,1.166-0.413,1.331-1.083c0.031-0.124,0.041-0.248,0.041-0.392V-21.465z"/>
		<path fill="#5E5A5C" d="M48.684-24.9c0,0.309-0.216,0.557-0.578,0.557c-0.33,0-0.546-0.248-0.546-0.557
			c0-0.31,0.227-0.567,0.567-0.567C48.458-25.467,48.684-25.22,48.684-24.9z M47.673-18.505v-4.993h0.908v4.993H47.673z"/>
		<path fill="#5E5A5C" d="M50.188-22.146c0-0.526-0.01-0.938-0.041-1.352h0.804l0.052,0.825h0.021
			c0.248-0.464,0.825-0.928,1.65-0.928c0.691,0,1.764,0.413,1.764,2.125v2.971h-0.908v-2.878c0-0.805-0.299-1.475-1.155-1.475
			c-0.588,0-1.052,0.423-1.217,0.929c-0.042,0.113-0.062,0.268-0.062,0.423v3.001h-0.908V-22.146z"/>
		<path fill="#5E5A5C" d="M60.284-19.237c0,1.155-0.237,1.846-0.712,2.29c-0.495,0.443-1.196,0.598-1.826,0.598
			c-0.598,0-1.258-0.145-1.661-0.413l0.227-0.701c0.33,0.216,0.846,0.402,1.464,0.402c0.929,0,1.609-0.484,1.609-1.753v-0.546
			h-0.021c-0.269,0.464-0.815,0.835-1.589,0.835c-1.237,0-2.125-1.052-2.125-2.435c0-1.691,1.104-2.641,2.259-2.641
			c0.867,0,1.331,0.444,1.558,0.856h0.021l0.031-0.753h0.804c-0.031,0.351-0.041,0.764-0.041,1.362V-19.237z M59.376-21.527
			c0-0.155-0.01-0.289-0.052-0.402c-0.165-0.537-0.598-0.97-1.269-0.97c-0.867,0-1.485,0.732-1.485,1.888
			c0,0.979,0.505,1.794,1.475,1.794c0.567,0,1.073-0.351,1.258-0.928c0.052-0.155,0.072-0.33,0.072-0.485V-21.527z"/>
		<path fill="#5E5A5C" d="M65.601-25.457h0.908v4.652c0,1.847-0.908,2.414-2.104,2.414c-0.34,0-0.743-0.072-0.959-0.165l0.124-0.732
			c0.186,0.072,0.454,0.134,0.763,0.134c0.805,0,1.269-0.361,1.269-1.723V-25.457z"/>
		<path fill="#5E5A5C" d="M72.592-21.042c0,1.847-1.29,2.651-2.486,2.651c-1.341,0-2.393-0.99-2.393-2.568
			c0-1.661,1.104-2.641,2.476-2.641C71.623-23.601,72.592-22.559,72.592-21.042z M68.642-20.991c0,1.093,0.619,1.918,1.506,1.918
			c0.867,0,1.517-0.815,1.517-1.939c0-0.846-0.423-1.908-1.496-1.908C69.106-22.919,68.642-21.929,68.642-20.991z"/>
		<path fill="#5E5A5C" d="M78.004-19.877c0,0.526,0.01,0.98,0.041,1.372h-0.804l-0.052-0.815h-0.021
			c-0.227,0.402-0.764,0.928-1.65,0.928c-0.784,0-1.723-0.443-1.723-2.187v-2.919h0.908v2.754c0,0.949,0.299,1.599,1.114,1.599
			c0.609,0,1.032-0.423,1.197-0.835c0.051-0.124,0.083-0.289,0.083-0.464v-3.054h0.908V-19.877z"/>
		<path fill="#5E5A5C" d="M79.609-21.94c0-0.588-0.01-1.093-0.041-1.558h0.794l0.042,0.99h0.031c0.227-0.67,0.784-1.093,1.393-1.093
			c0.093,0,0.165,0.01,0.248,0.021v0.856c-0.093-0.021-0.186-0.021-0.31-0.021c-0.64,0-1.093,0.474-1.217,1.155
			c-0.021,0.124-0.031,0.278-0.031,0.423v2.661h-0.908V-21.94z"/>
		<path fill="#5E5A5C" d="M83.083-22.146c0-0.526-0.01-0.938-0.041-1.352h0.804l0.052,0.825h0.021
			c0.248-0.464,0.825-0.928,1.65-0.928c0.691,0,1.764,0.413,1.764,2.125v2.971h-0.908v-2.878c0-0.805-0.299-1.475-1.155-1.475
			c-0.588,0-1.052,0.423-1.217,0.929c-0.042,0.113-0.062,0.268-0.062,0.423v3.001h-0.908V-22.146z"/>
		<path fill="#5E5A5C" d="M89.403-20.836c0.021,1.228,0.794,1.733,1.712,1.733c0.65,0,1.052-0.114,1.382-0.258l0.165,0.649
			c-0.32,0.145-0.877,0.32-1.671,0.32c-1.537,0-2.455-1.021-2.455-2.527s0.887-2.682,2.341-2.682c1.64,0,2.063,1.423,2.063,2.342
			c0,0.186-0.01,0.32-0.031,0.423H89.403z M92.064-21.486c0.011-0.567-0.237-1.465-1.258-1.465c-0.928,0-1.32,0.835-1.393,1.465
			H92.064z"/>
		<path fill="#5E5A5C" d="M94.248-23.498l1.083,2.95c0.124,0.33,0.248,0.722,0.33,1.021h0.021c0.093-0.299,0.196-0.681,0.319-1.042
			l0.99-2.93h0.959l-1.362,3.559c-0.649,1.712-1.093,2.579-1.712,3.125c-0.454,0.381-0.887,0.536-1.114,0.577l-0.227-0.753
			c0.227-0.072,0.526-0.216,0.794-0.443c0.248-0.196,0.547-0.547,0.763-1.011c0.042-0.093,0.072-0.165,0.072-0.217
			s-0.021-0.124-0.072-0.237l-1.836-4.601H94.248z"/>
	</g>
</g>
<g>
	<path fill="#12100B" d="M370.608,17.874c0.522,0.335,1.272,0.589,2.076,0.589c1.192,0,1.889-0.63,1.889-1.541
		c0-0.831-0.481-1.327-1.701-1.782c-1.474-0.536-2.385-1.313-2.385-2.572c0-1.407,1.166-2.452,2.921-2.452
		c0.911,0,1.594,0.214,1.982,0.442l-0.321,0.951c-0.281-0.174-0.884-0.429-1.701-0.429c-1.232,0-1.701,0.737-1.701,1.353
		c0,0.844,0.549,1.259,1.795,1.742c1.527,0.589,2.291,1.326,2.291,2.652c0,1.394-1.019,2.613-3.148,2.613
		c-0.871,0-1.822-0.268-2.305-0.589L370.608,17.874z"/>
	<path fill="#12100B" d="M378.795,11.255v1.554h1.688v0.898h-1.688v3.497c0,0.804,0.228,1.259,0.884,1.259
		c0.321,0,0.509-0.027,0.684-0.081l0.054,0.898c-0.229,0.08-0.59,0.161-1.045,0.161c-0.55,0-0.992-0.188-1.273-0.496
		c-0.321-0.362-0.455-0.938-0.455-1.702v-3.537h-1.005V12.81h1.005v-1.206L378.795,11.255z"/>
	<path fill="#12100B" d="M381.945,14.833c0-0.764-0.013-1.42-0.053-2.023h1.031l0.054,1.286h0.04c0.295-0.871,1.019-1.42,1.809-1.42
		c0.12,0,0.214,0.013,0.321,0.027v1.112c-0.12-0.027-0.241-0.027-0.401-0.027c-0.831,0-1.421,0.616-1.581,1.5
		c-0.027,0.161-0.04,0.362-0.04,0.549v3.457h-1.18V14.833z"/>
	<path fill="#12100B" d="M392.047,15.998c0,2.398-1.675,3.443-3.229,3.443c-1.741,0-3.108-1.286-3.108-3.336
		c0-2.157,1.434-3.43,3.216-3.43C390.789,12.676,392.047,14.029,392.047,15.998z M386.917,16.065c0,1.42,0.804,2.492,1.956,2.492
		c1.125,0,1.97-1.059,1.97-2.519c0-1.099-0.55-2.479-1.943-2.479C387.519,13.56,386.917,14.846,386.917,16.065z"/>
	<path fill="#12100B" d="M393.67,14.565c0-0.684-0.013-1.219-0.053-1.755h1.045l0.066,1.072h0.027
		c0.321-0.603,1.071-1.206,2.144-1.206c0.897,0,2.291,0.536,2.291,2.76v3.858h-1.18v-3.738c0-1.045-0.388-1.916-1.5-1.916
		c-0.764,0-1.366,0.549-1.581,1.206c-0.054,0.147-0.08,0.348-0.08,0.549v3.898h-1.18V14.565z"/>
	<path fill="#12100B" d="M406.79,18.343c0,1.5-0.309,2.398-0.925,2.974c-0.643,0.576-1.554,0.777-2.371,0.777
		c-0.776,0-1.634-0.188-2.157-0.536l0.295-0.911c0.429,0.281,1.099,0.522,1.902,0.522c1.206,0,2.09-0.629,2.09-2.277v-0.71h-0.026
		c-0.349,0.603-1.059,1.085-2.063,1.085c-1.607,0-2.76-1.366-2.76-3.162c0-2.197,1.434-3.43,2.935-3.43
		c1.125,0,1.728,0.576,2.022,1.112h0.027l0.04-0.978h1.045c-0.04,0.456-0.054,0.992-0.054,1.769V18.343z M405.611,15.369
		c0-0.201-0.014-0.375-0.067-0.522c-0.214-0.697-0.777-1.259-1.647-1.259c-1.126,0-1.93,0.951-1.93,2.452
		c0,1.272,0.657,2.331,1.916,2.331c0.737,0,1.394-0.456,1.635-1.206c0.066-0.201,0.094-0.429,0.094-0.629V15.369z"/>
</g>
<g>
	<path fill="#12100B" d="M370.755,26.454c0.563-0.094,1.299-0.174,2.237-0.174c1.151,0,1.996,0.268,2.531,0.75
		c0.482,0.429,0.791,1.085,0.791,1.889c0,0.817-0.241,1.46-0.696,1.929c-0.63,0.657-1.621,0.992-2.761,0.992
		c-0.348,0-0.669-0.014-0.938-0.081v3.617h-1.165V26.454z M371.92,30.808c0.255,0.067,0.576,0.094,0.965,0.094
		c1.406,0,2.264-0.697,2.264-1.916c0-1.206-0.857-1.782-2.13-1.782c-0.509,0-0.897,0.04-1.099,0.094V30.808z"/>
	<path fill="#12100B" d="M378.555,32.348c0.026,1.594,1.031,2.251,2.224,2.251c0.844,0,1.366-0.147,1.795-0.335l0.215,0.844
		c-0.415,0.188-1.139,0.416-2.171,0.416c-1.996,0-3.188-1.327-3.188-3.282c0-1.956,1.152-3.483,3.041-3.483
		c2.131,0,2.68,1.849,2.68,3.041c0,0.241-0.013,0.416-0.04,0.549H378.555z M382.011,31.504c0.014-0.737-0.308-1.903-1.635-1.903
		c-1.205,0-1.715,1.085-1.809,1.903H382.011z"/>
	<path fill="#12100B" d="M384.746,30.915c0-0.764-0.013-1.42-0.053-2.023h1.031l0.054,1.286h0.04c0.295-0.871,1.019-1.42,1.809-1.42
		c0.12,0,0.214,0.013,0.321,0.027v1.112c-0.12-0.027-0.241-0.027-0.401-0.027c-0.831,0-1.421,0.616-1.581,1.5
		c-0.027,0.161-0.04,0.362-0.04,0.549v3.457h-1.18V30.915z"/>
	<path fill="#12100B" d="M389.101,34.184c0.361,0.214,0.978,0.456,1.567,0.456c0.844,0,1.246-0.416,1.246-0.965
		c0-0.563-0.335-0.857-1.192-1.179c-1.179-0.429-1.729-1.059-1.729-1.835c0-1.045,0.857-1.902,2.237-1.902
		c0.656,0,1.232,0.174,1.581,0.402l-0.281,0.857c-0.255-0.161-0.724-0.389-1.326-0.389c-0.697,0-1.072,0.402-1.072,0.884
		c0,0.536,0.375,0.777,1.22,1.112c1.111,0.416,1.701,0.978,1.701,1.943c0,1.152-0.897,1.956-2.412,1.956
		c-0.71,0-1.366-0.188-1.821-0.456L389.101,34.184z"/>
	<path fill="#12100B" d="M400.571,32.08c0,2.398-1.675,3.443-3.229,3.443c-1.741,0-3.108-1.286-3.108-3.336
		c0-2.157,1.434-3.43,3.216-3.43C399.312,28.758,400.571,30.111,400.571,32.08z M395.44,32.147c0,1.42,0.804,2.492,1.956,2.492
		c1.125,0,1.97-1.059,1.97-2.519c0-1.099-0.55-2.479-1.943-2.479C396.042,29.642,395.44,30.928,395.44,32.147z"/>
	<path fill="#12100B" d="M402.194,30.647c0-0.684-0.013-1.219-0.053-1.755h1.045l0.066,1.072h0.027
		c0.321-0.603,1.071-1.206,2.144-1.206c0.897,0,2.291,0.536,2.291,2.76v3.858h-1.18v-3.738c0-1.045-0.388-1.916-1.5-1.916
		c-0.764,0-1.366,0.549-1.581,1.206c-0.054,0.147-0.08,0.348-0.08,0.549v3.898h-1.18V30.647z"/>
	<path fill="#12100B" d="M414.308,33.822c0,0.563,0.026,1.112,0.094,1.554h-1.059l-0.094-0.817h-0.04
		c-0.361,0.509-1.059,0.965-1.982,0.965c-1.313,0-1.983-0.924-1.983-1.862c0-1.567,1.394-2.425,3.898-2.412v-0.134
		c0-0.522-0.147-1.5-1.474-1.487c-0.616,0-1.246,0.174-1.701,0.482L409.7,29.32c0.535-0.335,1.326-0.563,2.144-0.563
		c1.982,0,2.465,1.353,2.465,2.639V33.822z M413.169,32.067c-1.286-0.027-2.747,0.201-2.747,1.46c0,0.777,0.51,1.125,1.099,1.125
		c0.857,0,1.407-0.536,1.595-1.085c0.04-0.134,0.054-0.268,0.054-0.375V32.067z"/>
	<path fill="#12100B" d="M416.345,25.864h1.18v9.512h-1.18V25.864z"/>
</g>
<g>
	<path fill="#12100B" d="M370.755,42.562c0.509-0.12,1.326-0.201,2.13-0.201c1.165,0,1.916,0.201,2.465,0.656
		c0.469,0.349,0.764,0.884,0.764,1.594c0,0.884-0.59,1.648-1.527,1.983v0.041c0.857,0.201,1.862,0.911,1.862,2.25
		c0,0.777-0.308,1.38-0.777,1.809c-0.616,0.576-1.634,0.844-3.107,0.844c-0.804,0-1.421-0.054-1.809-0.107V42.562z M371.92,46.26
		h1.059c1.219,0,1.942-0.656,1.942-1.527c0-1.045-0.79-1.474-1.97-1.474c-0.535,0-0.844,0.041-1.031,0.081V46.26z M371.92,50.574
		c0.241,0.04,0.563,0.054,0.979,0.054c1.205,0,2.317-0.442,2.317-1.755c0-1.219-1.059-1.742-2.331-1.742h-0.965V50.574z"/>
	<path fill="#12100B" d="M378.112,46.997c0-0.764-0.013-1.42-0.053-2.023h1.031l0.054,1.286h0.04c0.295-0.871,1.019-1.42,1.809-1.42
		c0.12,0,0.215,0.013,0.321,0.027v1.112c-0.12-0.027-0.241-0.027-0.401-0.027c-0.831,0-1.42,0.616-1.581,1.5
		c-0.027,0.161-0.04,0.362-0.04,0.549v3.457h-1.18V46.997z"/>
	<path fill="#12100B" d="M386.862,49.904c0,0.563,0.026,1.112,0.094,1.554h-1.059l-0.094-0.817h-0.04
		c-0.362,0.509-1.059,0.965-1.982,0.965c-1.313,0-1.983-0.924-1.983-1.862c0-1.567,1.394-2.425,3.898-2.412v-0.134
		c0-0.522-0.147-1.5-1.474-1.487c-0.616,0-1.246,0.174-1.701,0.482l-0.268-0.791c0.535-0.335,1.326-0.563,2.144-0.563
		c1.982,0,2.465,1.353,2.465,2.639V49.904z M385.723,48.149c-1.286-0.027-2.747,0.201-2.747,1.46c0,0.777,0.51,1.125,1.099,1.125
		c0.857,0,1.407-0.536,1.595-1.085c0.04-0.134,0.054-0.268,0.054-0.375V48.149z"/>
	<path fill="#12100B" d="M388.886,46.729c0-0.684-0.013-1.219-0.053-1.755h1.045l0.066,1.072h0.027
		c0.321-0.603,1.071-1.206,2.144-1.206c0.897,0,2.291,0.536,2.291,2.76v3.858h-1.18V47.72c0-1.045-0.389-1.916-1.5-1.916
		c-0.764,0-1.366,0.549-1.581,1.206c-0.054,0.147-0.08,0.348-0.08,0.549v3.898h-1.18V46.729z"/>
	<path fill="#12100B" d="M402.045,41.946v7.837c0,0.576,0.027,1.233,0.054,1.675h-1.045L401,50.333h-0.04
		c-0.349,0.724-1.125,1.273-2.184,1.273c-1.567,0-2.787-1.327-2.787-3.296c-0.013-2.157,1.34-3.47,2.907-3.47
		c1.005,0,1.661,0.469,1.956,0.978h0.027v-3.872H402.045z M400.88,47.613c0-0.147-0.014-0.348-0.054-0.496
		c-0.175-0.737-0.817-1.353-1.701-1.353c-1.22,0-1.943,1.072-1.943,2.492c0,1.313,0.656,2.398,1.916,2.398
		c0.79,0,1.514-0.536,1.729-1.407c0.04-0.161,0.054-0.322,0.054-0.509V47.613z"/>
</g>
</svg>
