<?xml version="1.0" encoding="utf-8"?>
<!-- Generator: Adobe Illustrator 15.1.0, SVG Export Plug-In . SVG Version: 6.00 Build 0)  -->
<!DOCTYPE svg PUBLIC "-//W3C//DTD SVG 1.1//EN" "http://www.w3.org/Graphics/SVG/1.1/DTD/svg11.dtd">
<svg version="1.1" id="Layer_1" xmlns="http://www.w3.org/2000/svg" xmlns:xlink="http://www.w3.org/1999/xlink" x="0px" y="0px"
	 width="787.862px" height="75px" viewBox="0 0 510.377 48.585" enable-background="new 0 0 510.377 48.585"
	 xml:space="preserve">
<polygon fill="#C6C8C9" points="183.418,0 90.583,0 123.197,24.266 90.583,48.528 183.418,48.528 216.037,24.266 "/>
<polygon fill="#F79421" points="281.974,0 189.138,0 221.753,24.266 189.138,48.528 281.974,48.528 314.593,24.266 "/>
<polygon fill="#C6C8C9" points="380.088,0 287.252,0 319.866,24.266 287.252,48.528 380.088,48.528 412.705,24.266 "/>
<polygon fill="#F79421" points="477.76,0.057 384.924,0.057 417.538,24.319 384.924,48.585 477.76,48.585 510.377,24.319 "/>
<g>
	<path fill="#808285" d="M55.797-132.632h-1.639v-0.592h3.99v0.592h-1.647v4.797h-0.704V-132.632z"/>
	<path fill="#808285" d="M58.797-133.512h0.704v2.422h0.016c0.112-0.2,0.288-0.384,0.504-0.503c0.208-0.12,0.456-0.192,0.719-0.192
		c0.52,0,1.352,0.32,1.352,1.647v2.303h-0.704v-2.223c0-0.624-0.232-1.144-0.896-1.144c-0.456,0-0.808,0.32-0.943,0.696
		c-0.04,0.104-0.048,0.208-0.048,0.335v2.335h-0.704V-133.512z"/>
	<path fill="#808285" d="M63.702-129.642c0.016,0.952,0.616,1.343,1.327,1.343c0.504,0,0.815-0.088,1.071-0.2l0.128,0.503
		c-0.248,0.112-0.68,0.248-1.295,0.248c-1.191,0-1.903-0.792-1.903-1.959c0-1.167,0.688-2.079,1.815-2.079
		c1.271,0,1.599,1.103,1.599,1.815c0,0.144-0.008,0.248-0.024,0.328H63.702z M65.765-130.146c0.008-0.44-0.184-1.136-0.976-1.136
		c-0.72,0-1.023,0.648-1.08,1.136H65.765z"/>
	<path fill="#808285" d="M69.189-133.144c0.304-0.072,0.792-0.12,1.271-0.12c0.696,0,1.144,0.12,1.471,0.392
		c0.28,0.208,0.456,0.527,0.456,0.951c0,0.528-0.352,0.983-0.912,1.184v0.024c0.512,0.12,1.111,0.543,1.111,1.343
		c0,0.464-0.184,0.824-0.464,1.08c-0.368,0.344-0.976,0.503-1.855,0.503c-0.479,0-0.848-0.032-1.079-0.064V-133.144z
		 M69.885-130.938h0.632c0.728,0,1.159-0.392,1.159-0.911c0-0.624-0.472-0.88-1.175-0.88c-0.32,0-0.504,0.024-0.616,0.048V-130.938z
		 M69.885-128.363c0.144,0.024,0.336,0.032,0.584,0.032c0.719,0,1.383-0.264,1.383-1.047c0-0.728-0.631-1.04-1.391-1.04h-0.576
		V-128.363z"/>
	<path fill="#808285" d="M73.581-130.498c0-0.456-0.008-0.848-0.032-1.208h0.616l0.032,0.768h0.024
		c0.176-0.52,0.608-0.847,1.08-0.847c0.072,0,0.128,0.008,0.192,0.016v0.664c-0.072-0.016-0.144-0.016-0.24-0.016
		c-0.496,0-0.848,0.368-0.944,0.896c-0.016,0.096-0.024,0.216-0.024,0.328v2.063h-0.704V-130.498z"/>
	<path fill="#808285" d="M78.988-128.763c0,0.336,0.016,0.664,0.056,0.928h-0.632l-0.056-0.488h-0.024
		c-0.216,0.304-0.632,0.576-1.183,0.576c-0.784,0-1.184-0.552-1.184-1.111c0-0.936,0.832-1.447,2.327-1.439v-0.08
		c0-0.312-0.088-0.896-0.879-0.888c-0.368,0-0.744,0.104-1.016,0.288l-0.16-0.472c0.32-0.2,0.792-0.335,1.279-0.335
		c1.183,0,1.471,0.808,1.471,1.575V-128.763z M78.308-129.81c-0.768-0.016-1.639,0.12-1.639,0.872c0,0.464,0.304,0.672,0.656,0.672
		c0.512,0,0.839-0.32,0.952-0.648c0.024-0.08,0.032-0.16,0.032-0.224V-129.81z"/>
	<path fill="#808285" d="M80.197-130.657c0-0.408-0.008-0.728-0.032-1.048h0.624l0.04,0.64h0.016
		c0.192-0.359,0.64-0.719,1.279-0.719c0.536,0,1.367,0.32,1.367,1.647v2.303h-0.704v-2.231c0-0.624-0.232-1.143-0.896-1.143
		c-0.456,0-0.815,0.328-0.943,0.72c-0.032,0.088-0.048,0.208-0.048,0.328v2.327h-0.704V-130.657z"/>
	<path fill="#808285" d="M88.052-133.512v4.677c0,0.344,0.016,0.736,0.032,1H87.46l-0.032-0.672h-0.024
		c-0.208,0.432-0.671,0.76-1.303,0.76c-0.936,0-1.663-0.792-1.663-1.967c-0.008-1.287,0.8-2.071,1.735-2.071
		c0.6,0,0.991,0.28,1.167,0.583h0.016v-2.311H88.052z M87.356-130.13c0-0.088-0.008-0.208-0.032-0.296
		c-0.104-0.439-0.488-0.807-1.016-0.807c-0.728,0-1.159,0.64-1.159,1.487c0,0.784,0.392,1.432,1.143,1.432
		c0.472,0,0.904-0.32,1.032-0.84c0.024-0.096,0.032-0.192,0.032-0.304V-130.13z"/>
	<path fill="#808285" d="M90.093-132.792c0,0.24-0.168,0.432-0.448,0.432c-0.256,0-0.424-0.192-0.424-0.432
		c0-0.24,0.176-0.44,0.44-0.44C89.917-133.232,90.093-133.04,90.093-132.792z M89.309-127.835v-3.87h0.704v3.87H89.309z"/>
	<path fill="#808285" d="M91.261-130.657c0-0.408-0.008-0.728-0.032-1.048h0.624l0.04,0.64h0.016
		c0.192-0.359,0.64-0.719,1.279-0.719c0.536,0,1.367,0.32,1.367,1.647v2.303h-0.704v-2.231c0-0.624-0.232-1.143-0.896-1.143
		c-0.456,0-0.815,0.328-0.943,0.72c-0.032,0.088-0.048,0.208-0.048,0.328v2.327h-0.704V-130.657z"/>
	<path fill="#808285" d="M99.091-128.403c0,0.896-0.184,1.431-0.552,1.775c-0.384,0.344-0.928,0.463-1.416,0.463
		c-0.463,0-0.975-0.112-1.287-0.32l0.176-0.543c0.256,0.168,0.656,0.312,1.136,0.312c0.719,0,1.247-0.375,1.247-1.359v-0.424h-0.016
		c-0.208,0.36-0.631,0.647-1.231,0.647c-0.96,0-1.647-0.815-1.647-1.887c0-1.312,0.855-2.047,1.751-2.047
		c0.672,0,1.032,0.344,1.208,0.664h0.016l0.024-0.584h0.624c-0.024,0.272-0.032,0.592-0.032,1.056V-128.403z M98.388-130.178
		c0-0.12-0.008-0.224-0.04-0.312c-0.128-0.416-0.464-0.752-0.983-0.752c-0.672,0-1.151,0.568-1.151,1.463
		c0,0.759,0.392,1.391,1.143,1.391c0.44,0,0.832-0.272,0.976-0.72c0.04-0.12,0.056-0.256,0.056-0.375V-130.178z"/>
	<path fill="#808285" d="M100.357-133.16c0.335-0.056,0.775-0.104,1.335-0.104c0.688,0,1.191,0.16,1.511,0.448
		c0.288,0.256,0.472,0.648,0.472,1.127c0,0.488-0.144,0.872-0.416,1.151c-0.376,0.392-0.968,0.592-1.647,0.592
		c-0.208,0-0.399-0.008-0.56-0.048v2.159h-0.695V-133.16z M101.053-130.562c0.152,0.04,0.344,0.056,0.576,0.056
		c0.839,0,1.351-0.416,1.351-1.144c0-0.72-0.512-1.063-1.271-1.063c-0.304,0-0.536,0.024-0.656,0.056V-130.562z"/>
	<path fill="#808285" d="M107.388-128.763c0,0.336,0.016,0.664,0.056,0.928h-0.631l-0.056-0.488h-0.024
		c-0.216,0.304-0.631,0.576-1.183,0.576c-0.784,0-1.184-0.552-1.184-1.111c0-0.936,0.832-1.447,2.327-1.439v-0.08
		c0-0.312-0.088-0.896-0.879-0.888c-0.368,0-0.744,0.104-1.016,0.288l-0.16-0.472c0.32-0.2,0.792-0.335,1.279-0.335
		c1.183,0,1.471,0.808,1.471,1.575V-128.763z M106.708-129.81c-0.768-0.016-1.639,0.12-1.639,0.872c0,0.464,0.304,0.672,0.656,0.672
		c0.512,0,0.839-0.32,0.951-0.648c0.024-0.08,0.032-0.16,0.032-0.224V-129.81z"/>
	<path fill="#808285" d="M108.861-131.705l0.84,2.287c0.096,0.256,0.192,0.56,0.256,0.792h0.016
		c0.072-0.232,0.152-0.528,0.248-0.808l0.768-2.271h0.744l-1.056,2.759c-0.503,1.327-0.847,1.999-1.327,2.423
		c-0.352,0.295-0.688,0.416-0.863,0.447l-0.176-0.583c0.176-0.056,0.408-0.168,0.615-0.344c0.192-0.152,0.424-0.424,0.592-0.784
		c0.032-0.072,0.056-0.128,0.056-0.168s-0.016-0.096-0.056-0.184l-1.423-3.566H108.861z"/>
	<path fill="#808285" d="M112.357-128.546c0.216,0.128,0.583,0.271,0.936,0.271c0.503,0,0.744-0.248,0.744-0.576
		c0-0.335-0.2-0.512-0.712-0.704c-0.704-0.256-1.031-0.631-1.031-1.095c0-0.624,0.512-1.135,1.335-1.135
		c0.392,0,0.736,0.104,0.944,0.24l-0.168,0.512c-0.152-0.096-0.432-0.232-0.792-0.232c-0.416,0-0.64,0.24-0.64,0.528
		c0,0.32,0.224,0.464,0.728,0.664c0.664,0.248,1.016,0.583,1.016,1.159c0,0.688-0.536,1.167-1.439,1.167
		c-0.424,0-0.815-0.112-1.087-0.272L112.357-128.546z"/>
	<path fill="#808285" d="M120.355-132.44h-1.983l-0.2,1.335c0.12-0.016,0.232-0.024,0.424-0.024c0.408,0,0.799,0.08,1.119,0.28
		c0.408,0.224,0.744,0.679,0.744,1.327c0,1.015-0.808,1.775-1.935,1.775c-0.568,0-1.04-0.16-1.295-0.32l0.176-0.536
		c0.216,0.128,0.64,0.288,1.12,0.288c0.655,0,1.231-0.432,1.223-1.127c0-0.672-0.456-1.144-1.487-1.144
		c-0.304,0-0.536,0.024-0.728,0.048l0.336-2.495h2.486V-132.44z"/>
	<path fill="#808285" d="M123.292-130.25v0.512h-1.975v-0.512H123.292z"/>
	<path fill="#808285" d="M124.101-128.546c0.216,0.128,0.583,0.271,0.936,0.271c0.503,0,0.744-0.248,0.744-0.576
		c0-0.335-0.2-0.512-0.712-0.704c-0.704-0.256-1.031-0.631-1.031-1.095c0-0.624,0.512-1.135,1.335-1.135
		c0.392,0,0.735,0.104,0.943,0.24l-0.168,0.512c-0.152-0.096-0.432-0.232-0.792-0.232c-0.416,0-0.64,0.24-0.64,0.528
		c0,0.32,0.224,0.464,0.728,0.664c0.664,0.248,1.015,0.583,1.015,1.159c0,0.688-0.536,1.167-1.439,1.167
		c-0.424,0-0.815-0.112-1.087-0.272L124.101-128.546z"/>
	<path fill="#808285" d="M128.292-132.632v0.927h1.007v0.536h-1.007v2.087c0,0.479,0.136,0.751,0.528,0.751
		c0.192,0,0.304-0.016,0.408-0.048l0.032,0.536c-0.136,0.048-0.352,0.096-0.624,0.096c-0.328,0-0.592-0.112-0.759-0.296
		c-0.192-0.216-0.272-0.56-0.272-1.015v-2.111h-0.6v-0.536h0.6v-0.719L128.292-132.632z"/>
	<path fill="#808285" d="M130.564-129.642c0.016,0.952,0.616,1.343,1.327,1.343c0.504,0,0.815-0.088,1.071-0.2l0.128,0.503
		c-0.248,0.112-0.68,0.248-1.295,0.248c-1.191,0-1.903-0.792-1.903-1.959c0-1.167,0.688-2.079,1.815-2.079
		c1.271,0,1.599,1.103,1.599,1.815c0,0.144-0.008,0.248-0.024,0.328H130.564z M132.627-130.146c0.008-0.44-0.184-1.136-0.975-1.136
		c-0.72,0-1.023,0.648-1.08,1.136H132.627z"/>
	<path fill="#808285" d="M134.26-130.441c0-0.496-0.016-0.896-0.032-1.264h0.624l0.04,0.664h0.016
		c0.28-0.472,0.744-0.744,1.375-0.744c0.943,0,1.647,0.792,1.647,1.959c0,1.391-0.856,2.079-1.767,2.079
		c-0.512,0-0.959-0.224-1.191-0.607h-0.016v2.103h-0.696V-130.441z M134.956-129.41c0,0.104,0.008,0.2,0.032,0.288
		c0.128,0.487,0.551,0.823,1.055,0.823c0.744,0,1.175-0.607,1.175-1.495c0-0.768-0.408-1.431-1.151-1.431
		c-0.479,0-0.936,0.336-1.063,0.864c-0.024,0.088-0.048,0.191-0.048,0.28V-129.41z"/>
	<path fill="#808285" d="M140.604-128.683c0.312,0.2,0.76,0.352,1.24,0.352c0.711,0,1.127-0.376,1.127-0.919
		c0-0.496-0.288-0.792-1.015-1.063c-0.879-0.32-1.423-0.784-1.423-1.535c0-0.84,0.696-1.463,1.743-1.463
		c0.543,0,0.951,0.128,1.183,0.264l-0.192,0.567c-0.168-0.104-0.527-0.256-1.015-0.256c-0.736,0-1.016,0.44-1.016,0.808
		c0,0.504,0.328,0.751,1.071,1.04c0.912,0.352,1.367,0.792,1.367,1.583c0,0.832-0.607,1.559-1.879,1.559
		c-0.52,0-1.087-0.16-1.375-0.352L140.604-128.683z"/>
	<path fill="#808285" d="M144.948-131.705l0.84,2.287c0.096,0.256,0.192,0.56,0.256,0.792h0.016
		c0.072-0.232,0.152-0.528,0.248-0.808l0.768-2.271h0.744l-1.056,2.759c-0.503,1.327-0.847,1.999-1.327,2.423
		c-0.352,0.295-0.688,0.416-0.863,0.447l-0.176-0.583c0.176-0.056,0.408-0.168,0.615-0.344c0.192-0.152,0.424-0.424,0.592-0.784
		c0.032-0.072,0.056-0.128,0.056-0.168s-0.016-0.096-0.056-0.184l-1.423-3.566H144.948z"/>
	<path fill="#808285" d="M148.444-128.546c0.216,0.128,0.583,0.271,0.936,0.271c0.503,0,0.744-0.248,0.744-0.576
		c0-0.335-0.2-0.512-0.712-0.704c-0.704-0.256-1.031-0.631-1.031-1.095c0-0.624,0.512-1.135,1.335-1.135
		c0.392,0,0.735,0.104,0.943,0.24l-0.168,0.512c-0.152-0.096-0.432-0.232-0.792-0.232c-0.416,0-0.64,0.24-0.64,0.528
		c0,0.32,0.224,0.464,0.728,0.664c0.664,0.248,1.015,0.583,1.015,1.159c0,0.688-0.536,1.167-1.439,1.167
		c-0.424,0-0.815-0.112-1.087-0.272L148.444-128.546z"/>
	<path fill="#808285" d="M152.636-132.632v0.927h1.007v0.536h-1.007v2.087c0,0.479,0.136,0.751,0.528,0.751
		c0.192,0,0.304-0.016,0.408-0.048l0.032,0.536c-0.136,0.048-0.352,0.096-0.624,0.096c-0.328,0-0.592-0.112-0.759-0.296
		c-0.192-0.216-0.272-0.56-0.272-1.015v-2.111h-0.6v-0.536h0.6v-0.719L152.636-132.632z"/>
	<path fill="#808285" d="M154.908-129.642c0.016,0.952,0.616,1.343,1.327,1.343c0.504,0,0.815-0.088,1.071-0.2l0.128,0.503
		c-0.248,0.112-0.68,0.248-1.295,0.248c-1.191,0-1.903-0.792-1.903-1.959c0-1.167,0.688-2.079,1.815-2.079
		c1.271,0,1.599,1.103,1.599,1.815c0,0.144-0.008,0.248-0.024,0.328H154.908z M156.971-130.146c0.008-0.44-0.184-1.136-0.975-1.136
		c-0.72,0-1.023,0.648-1.08,1.136H156.971z"/>
	<path fill="#808285" d="M158.604-130.657c0-0.408-0.016-0.728-0.032-1.048h0.616l0.032,0.632h0.024
		c0.216-0.368,0.576-0.711,1.224-0.711c0.52,0,0.919,0.32,1.087,0.775h0.016c0.12-0.224,0.28-0.384,0.44-0.503
		c0.232-0.176,0.48-0.272,0.848-0.272c0.52,0,1.279,0.335,1.279,1.679v2.271h-0.688v-2.183c0-0.752-0.28-1.191-0.84-1.191
		c-0.408,0-0.711,0.296-0.839,0.631c-0.032,0.104-0.056,0.224-0.056,0.352v2.391h-0.688v-2.319c0-0.616-0.272-1.055-0.808-1.055
		c-0.432,0-0.759,0.352-0.872,0.704c-0.04,0.096-0.056,0.224-0.056,0.344v2.327h-0.688V-130.657z"/>
</g>
<polygon fill="#F79421" points="85.424,0 0,0 0,48.528 85.424,48.528 118.04,24.266 "/>
<g>
	<path fill="#FFFFFF" d="M15.467,20.091c0.448-0.075,1.035-0.139,1.781-0.139c0.917,0,1.589,0.213,2.016,0.597
		c0.384,0.341,0.629,0.864,0.629,1.504c0,0.651-0.192,1.163-0.555,1.536c-0.501,0.522-1.291,0.789-2.197,0.789
		c-0.277,0-0.534-0.011-0.747-0.064v2.88h-0.928V20.091z M16.395,23.558c0.203,0.054,0.458,0.075,0.768,0.075
		c1.12,0,1.803-0.555,1.803-1.525c0-0.96-0.683-1.419-1.696-1.419c-0.405,0-0.715,0.032-0.875,0.075V23.558z"/>
	<path fill="#FFFFFF" d="M25.834,24.571c0,1.909-1.333,2.741-2.57,2.741c-1.387,0-2.475-1.024-2.475-2.656
		c0-1.717,1.141-2.73,2.56-2.73C24.832,21.926,25.834,23.003,25.834,24.571z M21.75,24.625c0,1.13,0.64,1.984,1.557,1.984
		c0.896,0,1.568-0.843,1.568-2.005c0-0.875-0.437-1.973-1.546-1.973C22.229,22.63,21.75,23.654,21.75,24.625z"/>
	<path fill="#FFFFFF" d="M26.997,26.246c0.288,0.17,0.779,0.363,1.248,0.363c0.672,0,0.992-0.331,0.992-0.768
		c0-0.448-0.267-0.683-0.949-0.938c-0.939-0.341-1.376-0.843-1.376-1.461c0-0.832,0.683-1.515,1.781-1.515
		c0.522,0,0.981,0.139,1.258,0.32l-0.224,0.683c-0.203-0.128-0.576-0.31-1.056-0.31c-0.555,0-0.854,0.32-0.854,0.704
		c0,0.426,0.299,0.619,0.971,0.885c0.885,0.331,1.354,0.778,1.354,1.546c0,0.917-0.714,1.557-1.92,1.557
		c-0.565,0-1.088-0.149-1.45-0.362L26.997,26.246z"/>
	<path fill="#FFFFFF" d="M32.491,20.582c0,0.32-0.224,0.576-0.597,0.576c-0.341,0-0.565-0.256-0.565-0.576s0.235-0.587,0.587-0.587
		C32.256,19.995,32.491,20.251,32.491,20.582z M31.446,27.195v-5.162h0.938v5.162H31.446z"/>
	<path fill="#FFFFFF" d="M35.179,20.795v1.237h1.344v0.714h-1.344v2.784c0,0.64,0.181,1.003,0.704,1.003
		c0.256,0,0.405-0.021,0.544-0.064l0.042,0.714c-0.181,0.064-0.469,0.128-0.832,0.128c-0.437,0-0.789-0.149-1.013-0.395
		c-0.256-0.288-0.363-0.747-0.363-1.354v-2.816h-0.8v-0.714h0.8v-0.96L35.179,20.795z"/>
	<path fill="#FFFFFF" d="M38.73,20.582c0,0.32-0.224,0.576-0.597,0.576c-0.341,0-0.565-0.256-0.565-0.576s0.235-0.587,0.587-0.587
		C38.496,19.995,38.73,20.251,38.73,20.582z M37.686,27.195v-5.162h0.938v5.162H37.686z"/>
	<path fill="#FFFFFF" d="M44.959,24.571c0,1.909-1.333,2.741-2.57,2.741c-1.387,0-2.475-1.024-2.475-2.656
		c0-1.717,1.141-2.73,2.56-2.73C43.957,21.926,44.959,23.003,44.959,24.571z M40.875,24.625c0,1.13,0.64,1.984,1.557,1.984
		c0.896,0,1.568-0.843,1.568-2.005c0-0.875-0.437-1.973-1.546-1.973C41.354,22.63,40.875,23.654,40.875,24.625z"/>
	<path fill="#FFFFFF" d="M46.25,23.43c0-0.544-0.011-0.971-0.043-1.397h0.832l0.053,0.853h0.021c0.256-0.48,0.853-0.96,1.707-0.96
		c0.714,0,1.824,0.427,1.824,2.197v3.072h-0.938v-2.976c0-0.832-0.31-1.525-1.195-1.525c-0.608,0-1.088,0.438-1.258,0.96
		c-0.042,0.117-0.064,0.277-0.064,0.437v3.104H46.25V23.43z"/>
	<path fill="#FFFFFF" d="M53.322,20.582c0,0.32-0.224,0.576-0.597,0.576c-0.341,0-0.565-0.256-0.565-0.576s0.235-0.587,0.587-0.587
		C53.088,19.995,53.322,20.251,53.322,20.582z M52.277,27.195v-5.162h0.938v5.162H52.277z"/>
	<path fill="#FFFFFF" d="M54.88,23.43c0-0.544-0.011-0.971-0.043-1.397h0.832l0.053,0.853h0.021c0.256-0.48,0.853-0.96,1.707-0.96
		c0.714,0,1.824,0.427,1.824,2.197v3.072h-0.938v-2.976c0-0.832-0.309-1.525-1.195-1.525c-0.608,0-1.088,0.438-1.258,0.96
		c-0.042,0.117-0.064,0.277-0.064,0.437v3.104H54.88V23.43z"/>
	<path fill="#FFFFFF" d="M65.322,26.438c0,1.195-0.246,1.909-0.736,2.368c-0.512,0.459-1.237,0.619-1.888,0.619
		c-0.619,0-1.301-0.149-1.717-0.426l0.235-0.726c0.341,0.224,0.875,0.416,1.515,0.416c0.96,0,1.664-0.501,1.664-1.813V26.31h-0.021
		c-0.277,0.48-0.843,0.864-1.643,0.864c-1.28,0-2.197-1.088-2.197-2.517c0-1.749,1.141-2.73,2.336-2.73
		c0.896,0,1.376,0.458,1.61,0.885H64.5l0.032-0.778h0.832c-0.032,0.362-0.042,0.789-0.042,1.408V26.438z M64.383,24.07
		c0-0.16-0.011-0.299-0.054-0.416c-0.17-0.555-0.619-1.002-1.312-1.002c-0.896,0-1.536,0.757-1.536,1.952
		c0,1.013,0.523,1.856,1.525,1.856c0.586,0,1.109-0.363,1.301-0.96c0.053-0.16,0.075-0.341,0.075-0.501V24.07z"/>
</g>
<g>
	<path fill="#FFFFFF" d="M142.804,24.038c-0.053-1.002-0.117-2.218-0.117-3.104h-0.021c-0.256,0.832-0.544,1.738-0.906,2.73
		l-1.27,3.488h-0.704l-1.173-3.424c-0.341-1.024-0.619-1.941-0.821-2.794h-0.021c-0.021,0.896-0.075,2.09-0.139,3.178l-0.192,3.083
		h-0.885l0.501-7.189h1.184l1.227,3.477c0.299,0.885,0.533,1.675,0.726,2.421h0.021c0.192-0.725,0.448-1.515,0.768-2.421l1.28-3.477
		h1.184l0.448,7.189h-0.917L142.804,24.038z"/>
	<path fill="#FFFFFF" d="M145.919,24.784c0.021,1.27,0.821,1.792,1.771,1.792c0.672,0,1.088-0.117,1.429-0.267l0.171,0.672
		c-0.331,0.149-0.907,0.331-1.728,0.331c-1.589,0-2.539-1.056-2.539-2.613c0-1.558,0.917-2.773,2.421-2.773
		c1.696,0,2.133,1.472,2.133,2.421c0,0.192-0.01,0.331-0.032,0.437H145.919z M148.671,24.112c0.01-0.586-0.246-1.515-1.301-1.515
		c-0.96,0-1.365,0.864-1.44,1.515H148.671z"/>
	<path fill="#FFFFFF" d="M150.719,26.246c0.288,0.17,0.779,0.363,1.248,0.363c0.672,0,0.992-0.331,0.992-0.768
		c0-0.448-0.267-0.683-0.949-0.938c-0.939-0.341-1.376-0.843-1.376-1.461c0-0.832,0.683-1.515,1.781-1.515
		c0.522,0,0.981,0.139,1.258,0.32l-0.224,0.683c-0.203-0.128-0.576-0.31-1.056-0.31c-0.555,0-0.854,0.32-0.854,0.704
		c0,0.426,0.299,0.619,0.971,0.885c0.885,0.331,1.354,0.778,1.354,1.546c0,0.917-0.714,1.557-1.92,1.557
		c-0.565,0-1.088-0.149-1.45-0.362L150.719,26.246z"/>
	<path fill="#FFFFFF" d="M154.943,26.246c0.288,0.17,0.779,0.363,1.248,0.363c0.672,0,0.992-0.331,0.992-0.768
		c0-0.448-0.267-0.683-0.949-0.938c-0.939-0.341-1.376-0.843-1.376-1.461c0-0.832,0.683-1.515,1.781-1.515
		c0.522,0,0.981,0.139,1.258,0.32l-0.224,0.683c-0.203-0.128-0.576-0.31-1.056-0.31c-0.555,0-0.854,0.32-0.854,0.704
		c0,0.426,0.299,0.619,0.971,0.885c0.885,0.331,1.354,0.778,1.354,1.546c0,0.917-0.714,1.557-1.919,1.557
		c-0.565,0-1.088-0.149-1.451-0.362L154.943,26.246z"/>
	<path fill="#FFFFFF" d="M163.028,25.958c0,0.448,0.021,0.885,0.075,1.237h-0.842l-0.075-0.65h-0.032
		c-0.288,0.405-0.842,0.768-1.579,0.768c-1.045,0-1.578-0.736-1.578-1.482c0-1.248,1.109-1.931,3.104-1.92v-0.106
		c0-0.416-0.117-1.195-1.173-1.184c-0.491,0-0.992,0.139-1.354,0.384l-0.213-0.629c0.427-0.267,1.056-0.448,1.707-0.448
		c1.579,0,1.962,1.077,1.962,2.101V25.958z M162.122,24.561c-1.024-0.021-2.187,0.16-2.187,1.163c0,0.619,0.405,0.896,0.875,0.896
		c0.683,0,1.12-0.426,1.269-0.864c0.032-0.106,0.043-0.213,0.043-0.299V24.561z"/>
	<path fill="#FFFFFF" d="M169.065,26.438c0,1.195-0.245,1.909-0.736,2.368c-0.512,0.459-1.237,0.619-1.888,0.619
		c-0.619,0-1.301-0.149-1.717-0.426l0.234-0.726c0.341,0.224,0.875,0.416,1.515,0.416c0.96,0,1.664-0.501,1.664-1.813V26.31h-0.021
		c-0.277,0.48-0.843,0.864-1.643,0.864c-1.28,0-2.197-1.088-2.197-2.517c0-1.749,1.141-2.73,2.336-2.73
		c0.896,0,1.376,0.458,1.61,0.885h0.021l0.032-0.778h0.832c-0.032,0.362-0.042,0.789-0.042,1.408V26.438z M168.127,24.07
		c0-0.16-0.011-0.299-0.054-0.416c-0.17-0.555-0.618-1.002-1.312-1.002c-0.896,0-1.536,0.757-1.536,1.952
		c0,1.013,0.522,1.856,1.525,1.856c0.586,0,1.109-0.363,1.301-0.96c0.053-0.16,0.075-0.341,0.075-0.501V24.07z"/>
	<path fill="#FFFFFF" d="M171.242,24.784c0.021,1.27,0.821,1.792,1.771,1.792c0.672,0,1.088-0.117,1.429-0.267l0.171,0.672
		c-0.331,0.149-0.907,0.331-1.728,0.331c-1.589,0-2.539-1.056-2.539-2.613c0-1.558,0.917-2.773,2.421-2.773
		c1.696,0,2.133,1.472,2.133,2.421c0,0.192-0.01,0.331-0.032,0.437H171.242z M173.994,24.112c0.01-0.586-0.246-1.515-1.301-1.515
		c-0.96,0-1.365,0.864-1.44,1.515H173.994z"/>
	<path fill="#FFFFFF" d="M176.041,26.246c0.288,0.17,0.779,0.363,1.248,0.363c0.672,0,0.992-0.331,0.992-0.768
		c0-0.448-0.267-0.683-0.949-0.938c-0.939-0.341-1.376-0.843-1.376-1.461c0-0.832,0.683-1.515,1.781-1.515
		c0.522,0,0.981,0.139,1.258,0.32l-0.224,0.683c-0.203-0.128-0.576-0.31-1.056-0.31c-0.555,0-0.854,0.32-0.854,0.704
		c0,0.426,0.299,0.619,0.971,0.885c0.885,0.331,1.354,0.778,1.354,1.546c0,0.917-0.714,1.557-1.92,1.557
		c-0.565,0-1.088-0.149-1.45-0.362L176.041,26.246z"/>
</g>
<g>
	<path fill="#FFFFFF" d="M336.607,23.824h-2.784v2.592h3.114v0.779h-4.053v-7.189h3.894v0.779h-2.955v2.272h2.784V23.824z"/>
	<path fill="#FFFFFF" d="M341.791,27.014c-0.245,0.117-0.789,0.298-1.482,0.298c-1.557,0-2.57-1.056-2.57-2.634
		c0-1.589,1.088-2.752,2.773-2.752c0.555,0,1.045,0.139,1.301,0.277l-0.213,0.715c-0.225-0.118-0.576-0.246-1.088-0.246
		c-1.185,0-1.824,0.885-1.824,1.952c0,1.194,0.768,1.93,1.792,1.93c0.533,0,0.885-0.128,1.152-0.245L341.791,27.014z"/>
	<path fill="#FFFFFF" d="M347.509,24.571c0,1.909-1.333,2.741-2.57,2.741c-1.387,0-2.475-1.024-2.475-2.656
		c0-1.717,1.142-2.73,2.56-2.73C346.506,21.926,347.509,23.003,347.509,24.571z M343.424,24.625c0,1.13,0.64,1.984,1.558,1.984
		c0.896,0,1.567-0.843,1.567-2.005c0-0.875-0.438-1.973-1.547-1.973C343.903,22.63,343.424,23.654,343.424,24.625z"/>
	<path fill="#FFFFFF" d="M348.671,26.246c0.288,0.17,0.779,0.363,1.248,0.363c0.672,0,0.992-0.331,0.992-0.768
		c0-0.448-0.267-0.683-0.949-0.938c-0.938-0.341-1.376-0.843-1.376-1.461c0-0.832,0.683-1.515,1.781-1.515
		c0.522,0,0.981,0.139,1.259,0.32l-0.225,0.683c-0.202-0.128-0.576-0.31-1.056-0.31c-0.555,0-0.854,0.32-0.854,0.704
		c0,0.426,0.299,0.619,0.971,0.885c0.886,0.331,1.354,0.778,1.354,1.546c0,0.917-0.715,1.557-1.92,1.557
		c-0.565,0-1.088-0.149-1.45-0.362L348.671,26.246z"/>
	<path fill="#FFFFFF" d="M353.312,22.033l1.12,3.05c0.128,0.341,0.256,0.747,0.341,1.056h0.021c0.096-0.309,0.202-0.704,0.331-1.077
		l1.023-3.029h0.992l-1.408,3.68c-0.672,1.771-1.131,2.667-1.771,3.231c-0.47,0.395-0.917,0.555-1.152,0.598l-0.234-0.779
		c0.234-0.075,0.544-0.224,0.821-0.458c0.256-0.203,0.565-0.565,0.789-1.045c0.043-0.096,0.075-0.17,0.075-0.224
		c0-0.053-0.021-0.128-0.075-0.245l-1.898-4.757H353.312z"/>
	<path fill="#FFFFFF" d="M357.77,26.246c0.288,0.17,0.779,0.363,1.248,0.363c0.672,0,0.992-0.331,0.992-0.768
		c0-0.448-0.267-0.683-0.949-0.938c-0.938-0.341-1.376-0.843-1.376-1.461c0-0.832,0.683-1.515,1.781-1.515
		c0.522,0,0.981,0.139,1.259,0.32l-0.225,0.683c-0.202-0.128-0.576-0.31-1.056-0.31c-0.555,0-0.854,0.32-0.854,0.704
		c0,0.426,0.299,0.619,0.971,0.885c0.886,0.331,1.354,0.778,1.354,1.546c0,0.917-0.715,1.557-1.92,1.557
		c-0.565,0-1.088-0.149-1.45-0.362L357.77,26.246z"/>
	<path fill="#FFFFFF" d="M363.252,20.795v1.237h1.344v0.714h-1.344v2.784c0,0.64,0.182,1.003,0.704,1.003
		c0.256,0,0.405-0.021,0.544-0.064l0.043,0.714c-0.182,0.064-0.47,0.128-0.832,0.128c-0.438,0-0.79-0.149-1.014-0.395
		c-0.256-0.288-0.362-0.747-0.362-1.354v-2.816h-0.8v-0.714h0.8v-0.96L363.252,20.795z"/>
	<path fill="#FFFFFF" d="M366.121,24.784c0.021,1.27,0.821,1.792,1.771,1.792c0.672,0,1.088-0.117,1.429-0.267l0.171,0.672
		c-0.331,0.149-0.907,0.331-1.729,0.331c-1.589,0-2.538-1.056-2.538-2.613c0-1.558,0.917-2.773,2.421-2.773
		c1.696,0,2.134,1.472,2.134,2.421c0,0.192-0.011,0.331-0.032,0.437H366.121z M368.873,24.112c0.011-0.586-0.245-1.515-1.301-1.515
		c-0.96,0-1.365,0.864-1.44,1.515H368.873z"/>
	<path fill="#FFFFFF" d="M371.049,23.43c0-0.544-0.021-0.971-0.042-1.397h0.821l0.042,0.842h0.032
		c0.288-0.491,0.768-0.949,1.632-0.949c0.693,0,1.227,0.427,1.45,1.035h0.021c0.16-0.299,0.374-0.512,0.587-0.672
		c0.31-0.235,0.64-0.363,1.131-0.363c0.693,0,1.706,0.448,1.706,2.24v3.029h-0.917v-2.912c0-1.003-0.373-1.589-1.12-1.589
		c-0.544,0-0.949,0.395-1.12,0.843c-0.042,0.139-0.074,0.298-0.074,0.469v3.189h-0.917v-3.093c0-0.821-0.363-1.408-1.077-1.408
		c-0.576,0-1.014,0.469-1.163,0.938c-0.054,0.128-0.074,0.299-0.074,0.458v3.104h-0.918V23.43z"/>
</g>
<g>
	<path fill="#FFFFFF" d="M427.253,24.934l-0.747,2.261h-0.96l2.453-7.189h1.109l2.453,7.189h-0.992l-0.768-2.261H427.253z
		 M429.62,24.208l-0.715-2.069c-0.159-0.469-0.267-0.896-0.373-1.312h-0.021c-0.106,0.416-0.213,0.864-0.362,1.301l-0.704,2.08
		H429.62z"/>
	<path fill="#FFFFFF" d="M436.116,27.014c-0.245,0.117-0.789,0.298-1.482,0.298c-1.557,0-2.57-1.056-2.57-2.634
		c0-1.589,1.088-2.752,2.773-2.752c0.555,0,1.045,0.139,1.301,0.277l-0.213,0.715c-0.225-0.118-0.576-0.246-1.088-0.246
		c-1.185,0-1.824,0.885-1.824,1.952c0,1.194,0.768,1.93,1.792,1.93c0.533,0,0.885-0.128,1.152-0.245L436.116,27.014z"/>
	<path fill="#FFFFFF" d="M438.452,20.795v1.237h1.344v0.714h-1.344v2.784c0,0.64,0.182,1.003,0.704,1.003
		c0.256,0,0.405-0.021,0.544-0.064l0.043,0.714c-0.182,0.064-0.47,0.128-0.832,0.128c-0.438,0-0.79-0.149-1.014-0.395
		c-0.256-0.288-0.362-0.747-0.362-1.354v-2.816h-0.8v-0.714h0.8v-0.96L438.452,20.795z"/>
	<path fill="#FFFFFF" d="M441.994,20.582c0,0.32-0.225,0.576-0.598,0.576c-0.341,0-0.565-0.256-0.565-0.576s0.234-0.587,0.587-0.587
		C441.759,19.995,441.994,20.251,441.994,20.582z M440.948,27.195v-5.162h0.938v5.162H440.948z"/>
	<path fill="#FFFFFF" d="M448.223,24.571c0,1.909-1.333,2.741-2.57,2.741c-1.387,0-2.475-1.024-2.475-2.656
		c0-1.717,1.142-2.73,2.56-2.73C447.22,21.926,448.223,23.003,448.223,24.571z M444.138,24.625c0,1.13,0.64,1.984,1.558,1.984
		c0.896,0,1.567-0.843,1.567-2.005c0-0.875-0.438-1.973-1.547-1.973C444.617,22.63,444.138,23.654,444.138,24.625z"/>
	<path fill="#FFFFFF" d="M449.514,23.43c0-0.544-0.011-0.971-0.042-1.397h0.832l0.053,0.853h0.021c0.256-0.48,0.854-0.96,1.706-0.96
		c0.715,0,1.824,0.427,1.824,2.197v3.072h-0.938v-2.976c0-0.832-0.31-1.525-1.194-1.525c-0.608,0-1.088,0.438-1.259,0.96
		c-0.043,0.117-0.064,0.277-0.064,0.437v3.104h-0.938V23.43z"/>
	<path fill="#FFFFFF" d="M457.94,20.091c0.448-0.075,1.034-0.139,1.781-0.139c0.917,0,1.589,0.213,2.016,0.597
		c0.384,0.341,0.63,0.864,0.63,1.504c0,0.651-0.192,1.163-0.555,1.536c-0.502,0.522-1.291,0.789-2.197,0.789
		c-0.277,0-0.533-0.011-0.747-0.064v2.88h-0.928V20.091z M458.868,23.558c0.203,0.054,0.459,0.075,0.769,0.075
		c1.119,0,1.802-0.555,1.802-1.525c0-0.96-0.683-1.419-1.695-1.419c-0.405,0-0.715,0.032-0.875,0.075V23.558z"/>
	<path fill="#FFFFFF" d="M463.679,19.622h0.938v7.573h-0.938V19.622z"/>
	<path fill="#FFFFFF" d="M469.93,25.958c0,0.448,0.021,0.885,0.074,1.237h-0.843l-0.074-0.65h-0.032
		c-0.288,0.405-0.843,0.768-1.578,0.768c-1.046,0-1.579-0.736-1.579-1.482c0-1.248,1.109-1.931,3.104-1.92v-0.106
		c0-0.416-0.118-1.195-1.174-1.184c-0.49,0-0.992,0.139-1.354,0.384l-0.213-0.629c0.426-0.267,1.056-0.448,1.706-0.448
		c1.579,0,1.963,1.077,1.963,2.101V25.958z M469.022,24.561c-1.023-0.021-2.187,0.16-2.187,1.163c0,0.619,0.405,0.896,0.875,0.896
		c0.683,0,1.12-0.426,1.27-0.864c0.031-0.106,0.042-0.213,0.042-0.299V24.561z"/>
	<path fill="#FFFFFF" d="M471.539,23.43c0-0.544-0.011-0.971-0.042-1.397h0.832l0.053,0.853h0.021c0.256-0.48,0.854-0.96,1.706-0.96
		c0.715,0,1.824,0.427,1.824,2.197v3.072h-0.938v-2.976c0-0.832-0.31-1.525-1.194-1.525c-0.608,0-1.088,0.438-1.259,0.96
		c-0.043,0.117-0.064,0.277-0.064,0.437v3.104h-0.938V23.43z"/>
</g>
<g>
	<path fill="#FFFFFF" d="M243.669,15.666c0.405-0.096,1.056-0.16,1.696-0.16c0.928,0,1.525,0.16,1.963,0.522
		c0.373,0.277,0.608,0.704,0.608,1.27c0,0.704-0.47,1.312-1.216,1.579v0.032c0.683,0.16,1.483,0.726,1.483,1.792
		c0,0.619-0.246,1.099-0.619,1.44c-0.491,0.458-1.301,0.672-2.475,0.672c-0.64,0-1.13-0.042-1.44-0.085V15.666z M244.597,18.609
		h0.842c0.971,0,1.547-0.523,1.547-1.216c0-0.832-0.629-1.173-1.568-1.173c-0.426,0-0.672,0.032-0.821,0.064V18.609z
		 M244.597,22.043c0.192,0.032,0.448,0.043,0.778,0.043c0.96,0,1.845-0.352,1.845-1.397c0-0.971-0.843-1.387-1.856-1.387h-0.768
		V22.043z"/>
	<path fill="#FFFFFF" d="M249.525,19.196c0-0.608-0.011-1.13-0.043-1.61h0.821l0.043,1.024h0.032
		c0.234-0.693,0.811-1.131,1.44-1.131c0.096,0,0.17,0.011,0.256,0.021v0.885c-0.097-0.021-0.192-0.021-0.32-0.021
		c-0.661,0-1.131,0.491-1.259,1.195c-0.021,0.128-0.032,0.288-0.032,0.437v2.752h-0.938V19.196z"/>
	<path fill="#FFFFFF" d="M256.49,21.51c0,0.448,0.021,0.885,0.074,1.237h-0.843l-0.074-0.65h-0.032
		c-0.288,0.405-0.843,0.768-1.578,0.768c-1.046,0-1.579-0.736-1.579-1.482c0-1.248,1.109-1.931,3.104-1.92v-0.106
		c0-0.416-0.118-1.195-1.174-1.184c-0.49,0-0.992,0.139-1.354,0.384l-0.213-0.629c0.426-0.267,1.056-0.448,1.706-0.448
		c1.579,0,1.963,1.077,1.963,2.101V21.51z M255.583,20.113c-1.023-0.021-2.187,0.16-2.187,1.163c0,0.619,0.405,0.896,0.875,0.896
		c0.683,0,1.12-0.426,1.27-0.864c0.031-0.106,0.042-0.213,0.042-0.299V20.113z"/>
	<path fill="#FFFFFF" d="M258.111,18.982c0-0.544-0.011-0.971-0.042-1.397h0.832l0.053,0.853h0.021
		c0.256-0.48,0.854-0.96,1.706-0.96c0.715,0,1.824,0.427,1.824,2.197v3.072h-0.938v-2.976c0-0.832-0.31-1.525-1.194-1.525
		c-0.608,0-1.088,0.438-1.259,0.96c-0.043,0.117-0.064,0.277-0.064,0.437v3.104h-0.938V18.982z"/>
	<path fill="#FFFFFF" d="M268.586,15.175v6.24c0,0.458,0.021,0.981,0.042,1.333h-0.831l-0.043-0.896h-0.032
		c-0.277,0.576-0.896,1.013-1.738,1.013c-1.248,0-2.219-1.056-2.219-2.624c-0.011-1.717,1.066-2.763,2.314-2.763
		c0.8,0,1.322,0.374,1.558,0.779h0.021v-3.083H268.586z M267.658,19.687c0-0.117-0.011-0.277-0.043-0.395
		c-0.139-0.587-0.65-1.078-1.354-1.078c-0.971,0-1.547,0.854-1.547,1.984c0,1.045,0.522,1.909,1.525,1.909
		c0.629,0,1.205-0.426,1.376-1.12c0.032-0.128,0.043-0.256,0.043-0.405V19.687z"/>
</g>
<g>
	<path fill="#FFFFFF" d="M236.384,32.283c0.416,0.267,1.013,0.469,1.653,0.469c0.949,0,1.504-0.501,1.504-1.227
		c0-0.662-0.384-1.056-1.355-1.419c-1.173-0.426-1.898-1.045-1.898-2.048c0-1.12,0.928-1.952,2.325-1.952
		c0.726,0,1.27,0.171,1.579,0.352l-0.256,0.757c-0.224-0.139-0.704-0.341-1.354-0.341c-0.981,0-1.354,0.586-1.354,1.077
		c0,0.672,0.437,1.002,1.429,1.387c1.216,0.469,1.824,1.056,1.824,2.112c0,1.109-0.811,2.08-2.506,2.08
		c-0.693,0-1.451-0.213-1.835-0.469L236.384,32.283z"/>
	<path fill="#FFFFFF" d="M242.912,27.014v1.237h1.344v0.714h-1.344v2.784c0,0.64,0.181,1.003,0.704,1.003
		c0.256,0,0.405-0.021,0.544-0.064l0.042,0.714c-0.181,0.064-0.469,0.128-0.832,0.128c-0.437,0-0.789-0.149-1.013-0.395
		c-0.256-0.288-0.363-0.747-0.363-1.354v-2.816h-0.8v-0.714h0.8v-0.96L242.912,27.014z"/>
	<path fill="#FFFFFF" d="M245.418,29.862c0-0.608-0.011-1.13-0.043-1.61h0.821l0.043,1.024h0.032
		c0.235-0.693,0.811-1.131,1.44-1.131c0.096,0,0.17,0.011,0.256,0.021v0.885c-0.096-0.021-0.192-0.021-0.32-0.021
		c-0.661,0-1.131,0.491-1.259,1.195c-0.021,0.128-0.032,0.288-0.032,0.437v2.752h-0.938V29.862z"/>
	<path fill="#FFFFFF" d="M252.383,32.176c0,0.448,0.021,0.885,0.075,1.237h-0.843l-0.075-0.65h-0.031
		c-0.288,0.405-0.843,0.768-1.579,0.768c-1.045,0-1.578-0.736-1.578-1.482c0-1.248,1.109-1.931,3.104-1.92v-0.106
		c0-0.416-0.117-1.195-1.173-1.184c-0.491,0-0.992,0.139-1.354,0.384l-0.213-0.629c0.427-0.267,1.056-0.448,1.707-0.448
		c1.578,0,1.962,1.077,1.962,2.101V32.176z M251.477,30.779c-1.024-0.021-2.187,0.16-2.187,1.163c0,0.619,0.405,0.896,0.875,0.896
		c0.682,0,1.12-0.426,1.269-0.864c0.032-0.106,0.043-0.213,0.043-0.299V30.779z"/>
	<path fill="#FFFFFF" d="M255.071,27.014v1.237h1.344v0.714h-1.344v2.784c0,0.64,0.182,1.003,0.704,1.003
		c0.256,0,0.405-0.021,0.544-0.064l0.043,0.714c-0.182,0.064-0.47,0.128-0.832,0.128c-0.438,0-0.79-0.149-1.014-0.395
		c-0.256-0.288-0.362-0.747-0.362-1.354v-2.816h-0.8v-0.714h0.8v-0.96L255.071,27.014z"/>
	<path fill="#FFFFFF" d="M257.951,31.003c0.021,1.27,0.821,1.792,1.771,1.792c0.672,0,1.088-0.117,1.429-0.267l0.171,0.672
		c-0.331,0.149-0.907,0.331-1.729,0.331c-1.589,0-2.538-1.056-2.538-2.613c0-1.558,0.917-2.773,2.421-2.773
		c1.696,0,2.134,1.472,2.134,2.421c0,0.192-0.011,0.331-0.032,0.437H257.951z M260.703,30.331c0.011-0.586-0.245-1.515-1.301-1.515
		c-0.96,0-1.365,0.864-1.44,1.515H260.703z"/>
	<path fill="#FFFFFF" d="M267.295,32.656c0,1.195-0.245,1.909-0.736,2.368c-0.512,0.459-1.237,0.619-1.888,0.619
		c-0.618,0-1.301-0.149-1.717-0.426l0.234-0.726c0.342,0.224,0.875,0.416,1.515,0.416c0.96,0,1.664-0.501,1.664-1.813v-0.565h-0.021
		c-0.277,0.48-0.843,0.864-1.643,0.864c-1.28,0-2.197-1.088-2.197-2.517c0-1.749,1.142-2.73,2.336-2.73
		c0.896,0,1.376,0.458,1.61,0.885h0.021l0.032-0.778h0.832c-0.032,0.362-0.043,0.789-0.043,1.408V32.656z M266.356,30.289
		c0-0.16-0.011-0.299-0.054-0.416c-0.171-0.555-0.618-1.002-1.312-1.002c-0.896,0-1.536,0.757-1.536,1.952
		c0,1.013,0.522,1.856,1.525,1.856c0.587,0,1.109-0.363,1.301-0.96c0.054-0.16,0.075-0.341,0.075-0.501V30.289z"/>
	<path fill="#FFFFFF" d="M269.29,28.251l1.12,3.05c0.128,0.341,0.256,0.747,0.341,1.056h0.021c0.096-0.309,0.202-0.704,0.331-1.077
		l1.023-3.029h0.992l-1.408,3.68c-0.672,1.771-1.131,2.667-1.771,3.231c-0.47,0.395-0.917,0.555-1.152,0.598l-0.234-0.779
		c0.234-0.075,0.544-0.224,0.821-0.458c0.256-0.203,0.565-0.565,0.789-1.045c0.043-0.096,0.075-0.17,0.075-0.224
		c0-0.053-0.021-0.128-0.075-0.245l-1.898-4.757H269.29z"/>
</g>
<polygon fill="#F79421" points="198.869,133.748 129.242,133.748 153.703,151.947 129.242,170.145 198.869,170.145 223.333,151.947 
	"/>
<polygon fill="#F79421" points="272.785,133.748 203.158,133.748 227.621,151.947 203.158,170.145 272.785,170.145 297.25,151.947 
	"/>
<polygon fill="#F79421" points="346.371,133.748 276.744,133.748 301.205,151.947 276.744,170.145 346.371,170.145 370.834,151.947 
	"/>
<polygon fill="#F79421" points="419.625,133.791 349.998,133.791 374.459,151.988 349.998,170.188 419.625,170.188 444.088,151.988 
	"/>
<polygon fill="#F79421" points="125.373,133.748 61.305,133.748 61.305,170.145 125.373,170.145 149.835,151.947 "/>
<g>
	<path fill="#FFFFFF" d="M72.905,148.819c0.336-0.056,0.776-0.104,1.335-0.104c0.688,0,1.191,0.159,1.511,0.447
		c0.288,0.256,0.472,0.647,0.472,1.128c0,0.487-0.144,0.871-0.416,1.151c-0.376,0.392-0.968,0.591-1.647,0.591
		c-0.208,0-0.399-0.008-0.56-0.048v2.159h-0.696V148.819z M73.601,151.418c0.152,0.04,0.344,0.056,0.576,0.056
		c0.84,0,1.352-0.415,1.352-1.143c0-0.72-0.512-1.063-1.271-1.063c-0.304,0-0.536,0.023-0.656,0.056V151.418z"/>
	<path fill="#FFFFFF" d="M80.68,152.178c0,1.431-1,2.055-1.927,2.055c-1.04,0-1.855-0.768-1.855-1.991
		c0-1.287,0.855-2.047,1.919-2.047C79.928,150.194,80.68,151.002,80.68,152.178z M77.617,152.218c0,0.848,0.479,1.487,1.167,1.487
		c0.671,0,1.175-0.632,1.175-1.504c0-0.655-0.328-1.479-1.159-1.479C77.977,150.723,77.617,151.49,77.617,152.218z"/>
	<path fill="#FFFFFF" d="M81.554,153.433c0.216,0.128,0.583,0.272,0.936,0.272c0.503,0,0.744-0.248,0.744-0.576
		c0-0.336-0.2-0.512-0.712-0.703c-0.704-0.256-1.031-0.632-1.031-1.096c0-0.624,0.512-1.136,1.335-1.136
		c0.392,0,0.735,0.104,0.943,0.24l-0.168,0.512c-0.152-0.096-0.432-0.231-0.792-0.231c-0.416,0-0.64,0.239-0.64,0.527
		c0,0.319,0.224,0.464,0.728,0.664c0.664,0.247,1.015,0.583,1.015,1.159c0,0.688-0.536,1.167-1.439,1.167
		c-0.424,0-0.815-0.112-1.087-0.271L81.554,153.433z"/>
	<path fill="#FFFFFF" d="M85.681,149.188c0,0.239-0.168,0.432-0.448,0.432c-0.256,0-0.424-0.192-0.424-0.432
		c0-0.24,0.176-0.44,0.44-0.44C85.505,148.747,85.681,148.939,85.681,149.188z M84.897,154.145v-3.87h0.704v3.87H84.897z"/>
	<path fill="#FFFFFF" d="M87.697,149.348v0.927h1.007v0.536h-1.007v2.087c0,0.479,0.136,0.751,0.528,0.751
		c0.192,0,0.304-0.016,0.408-0.048l0.032,0.536c-0.136,0.048-0.352,0.096-0.624,0.096c-0.328,0-0.591-0.112-0.759-0.296
		c-0.192-0.216-0.272-0.56-0.272-1.016v-2.11h-0.6v-0.536h0.6v-0.72L87.697,149.348z"/>
	<path fill="#FFFFFF" d="M90.353,149.188c0,0.239-0.168,0.432-0.448,0.432c-0.256,0-0.424-0.192-0.424-0.432
		c0-0.24,0.176-0.44,0.44-0.44C90.177,148.747,90.353,148.939,90.353,149.188z M89.569,154.145v-3.87h0.704v3.87H89.569z"/>
	<path fill="#FFFFFF" d="M95.023,152.178c0,1.431-1,2.055-1.927,2.055c-1.04,0-1.855-0.768-1.855-1.991
		c0-1.287,0.855-2.047,1.919-2.047C94.271,150.194,95.023,151.002,95.023,152.178z M91.961,152.218c0,0.848,0.479,1.487,1.167,1.487
		c0.671,0,1.175-0.632,1.175-1.504c0-0.655-0.328-1.479-1.159-1.479C92.321,150.723,91.961,151.49,91.961,152.218z"/>
	<path fill="#FFFFFF" d="M95.993,151.322c0-0.408-0.008-0.728-0.032-1.048h0.624l0.04,0.64h0.016c0.192-0.359,0.64-0.72,1.279-0.72
		c0.536,0,1.367,0.32,1.367,1.647v2.303h-0.704v-2.23c0-0.624-0.232-1.144-0.896-1.144c-0.456,0-0.815,0.328-0.943,0.72
		c-0.032,0.088-0.048,0.208-0.048,0.327v2.327h-0.704V151.322z"/>
	<path fill="#FFFFFF" d="M101.297,149.188c0,0.239-0.168,0.432-0.448,0.432c-0.256,0-0.424-0.192-0.424-0.432
		c0-0.24,0.176-0.44,0.44-0.44C101.121,148.747,101.297,148.939,101.297,149.188z M100.513,154.145v-3.87h0.704v3.87H100.513z"/>
	<path fill="#FFFFFF" d="M102.465,151.322c0-0.408-0.008-0.728-0.032-1.048h0.624l0.04,0.64h0.016c0.192-0.359,0.64-0.72,1.279-0.72
		c0.536,0,1.367,0.32,1.367,1.647v2.303h-0.704v-2.23c0-0.624-0.232-1.144-0.896-1.144c-0.456,0-0.815,0.328-0.943,0.72
		c-0.032,0.088-0.048,0.208-0.048,0.327v2.327h-0.704V151.322z"/>
	<path fill="#FFFFFF" d="M110.295,153.577c0,0.896-0.184,1.431-0.552,1.774c-0.384,0.344-0.928,0.464-1.416,0.464
		c-0.463,0-0.975-0.111-1.287-0.319l0.176-0.544c0.256,0.168,0.656,0.312,1.136,0.312c0.719,0,1.247-0.376,1.247-1.359v-0.424
		h-0.016c-0.208,0.36-0.631,0.648-1.231,0.648c-0.96,0-1.647-0.816-1.647-1.888c0-1.311,0.855-2.047,1.751-2.047
		c0.672,0,1.032,0.344,1.208,0.664h0.016l0.024-0.584h0.624c-0.024,0.272-0.032,0.592-0.032,1.056V153.577z M109.592,151.802
		c0-0.12-0.008-0.224-0.04-0.312c-0.128-0.416-0.464-0.752-0.983-0.752c-0.672,0-1.151,0.567-1.151,1.463
		c0,0.76,0.392,1.392,1.143,1.392c0.44,0,0.832-0.271,0.976-0.72c0.04-0.12,0.056-0.256,0.056-0.376V151.802z"/>
</g>
<g>
	<path fill="#FFFFFF" d="M168.407,151.777c-0.04-0.751-0.088-1.662-0.088-2.326h-0.016c-0.192,0.624-0.408,1.303-0.68,2.047
		l-0.952,2.614h-0.528l-0.879-2.566c-0.256-0.768-0.464-1.455-0.616-2.095h-0.016c-0.016,0.672-0.056,1.567-0.104,2.383
		l-0.144,2.311h-0.664l0.375-5.389h0.888l0.919,2.606c0.224,0.663,0.4,1.255,0.544,1.814h0.016c0.144-0.543,0.336-1.135,0.576-1.814
		l0.959-2.606h0.888l0.336,5.389h-0.688L168.407,151.777z"/>
	<path fill="#FFFFFF" d="M170.745,152.338c0.016,0.951,0.616,1.343,1.327,1.343c0.504,0,0.815-0.088,1.071-0.2l0.128,0.504
		c-0.248,0.112-0.68,0.248-1.295,0.248c-1.191,0-1.903-0.791-1.903-1.959c0-1.167,0.688-2.079,1.815-2.079
		c1.271,0,1.599,1.104,1.599,1.815c0,0.144-0.008,0.248-0.024,0.328H170.745z M172.808,151.834c0.008-0.439-0.184-1.136-0.975-1.136
		c-0.72,0-1.023,0.647-1.08,1.136H172.808z"/>
	<path fill="#FFFFFF" d="M174.345,153.433c0.216,0.128,0.583,0.272,0.936,0.272c0.503,0,0.744-0.248,0.744-0.576
		c0-0.336-0.2-0.512-0.712-0.703c-0.704-0.256-1.031-0.632-1.031-1.096c0-0.624,0.512-1.136,1.335-1.136
		c0.392,0,0.736,0.104,0.944,0.24l-0.168,0.512c-0.152-0.096-0.432-0.231-0.792-0.231c-0.416,0-0.64,0.239-0.64,0.527
		c0,0.319,0.224,0.464,0.728,0.664c0.664,0.247,1.016,0.583,1.016,1.159c0,0.688-0.536,1.167-1.439,1.167
		c-0.424,0-0.815-0.112-1.087-0.271L174.345,153.433z"/>
	<path fill="#FFFFFF" d="M177.513,153.433c0.216,0.128,0.583,0.272,0.936,0.272c0.503,0,0.744-0.248,0.744-0.576
		c0-0.336-0.2-0.512-0.712-0.703c-0.704-0.256-1.031-0.632-1.031-1.096c0-0.624,0.512-1.136,1.335-1.136
		c0.392,0,0.736,0.104,0.944,0.24l-0.168,0.512c-0.152-0.096-0.432-0.231-0.792-0.231c-0.416,0-0.64,0.239-0.64,0.527
		c0,0.319,0.224,0.464,0.728,0.664c0.664,0.247,1.016,0.583,1.016,1.159c0,0.688-0.536,1.167-1.439,1.167
		c-0.424,0-0.815-0.112-1.087-0.271L177.513,153.433z"/>
	<path fill="#FFFFFF" d="M183.576,153.217c0,0.336,0.016,0.664,0.056,0.928H183l-0.056-0.487h-0.024
		c-0.216,0.304-0.632,0.575-1.183,0.575c-0.784,0-1.184-0.552-1.184-1.111c0-0.936,0.832-1.447,2.327-1.439v-0.08
		c0-0.312-0.088-0.896-0.879-0.887c-0.368,0-0.744,0.104-1.016,0.287l-0.16-0.472c0.32-0.199,0.792-0.336,1.279-0.336
		c1.183,0,1.471,0.808,1.471,1.575V153.217z M182.896,152.17c-0.768-0.017-1.639,0.119-1.639,0.871c0,0.464,0.304,0.672,0.656,0.672
		c0.512,0,0.839-0.32,0.952-0.647c0.024-0.08,0.032-0.16,0.032-0.225V152.17z"/>
	<path fill="#FFFFFF" d="M188.104,153.577c0,0.896-0.184,1.431-0.552,1.774c-0.384,0.344-0.928,0.464-1.416,0.464
		c-0.463,0-0.975-0.111-1.287-0.319l0.176-0.544c0.256,0.168,0.656,0.312,1.135,0.312c0.72,0,1.248-0.376,1.248-1.359v-0.424h-0.016
		c-0.208,0.36-0.631,0.648-1.231,0.648c-0.959,0-1.647-0.816-1.647-1.888c0-1.311,0.855-2.047,1.751-2.047
		c0.672,0,1.032,0.344,1.208,0.664h0.016l0.024-0.584h0.624c-0.024,0.272-0.032,0.592-0.032,1.056V153.577z M187.4,151.802
		c0-0.12-0.008-0.224-0.04-0.312c-0.128-0.416-0.464-0.752-0.983-0.752c-0.672,0-1.151,0.567-1.151,1.463
		c0,0.76,0.392,1.392,1.143,1.392c0.44,0,0.832-0.271,0.976-0.72c0.04-0.12,0.056-0.256,0.056-0.376V151.802z"/>
	<path fill="#FFFFFF" d="M189.737,152.338c0.016,0.951,0.616,1.343,1.327,1.343c0.504,0,0.815-0.088,1.071-0.2l0.128,0.504
		c-0.248,0.112-0.68,0.248-1.295,0.248c-1.191,0-1.903-0.791-1.903-1.959c0-1.167,0.688-2.079,1.815-2.079
		c1.271,0,1.599,1.104,1.599,1.815c0,0.144-0.008,0.248-0.024,0.328H189.737z M191.8,151.834c0.008-0.439-0.184-1.136-0.976-1.136
		c-0.72,0-1.023,0.647-1.08,1.136H191.8z"/>
	<path fill="#FFFFFF" d="M193.337,153.433c0.216,0.128,0.583,0.272,0.936,0.272c0.503,0,0.744-0.248,0.744-0.576
		c0-0.336-0.2-0.512-0.712-0.703c-0.704-0.256-1.031-0.632-1.031-1.096c0-0.624,0.512-1.136,1.335-1.136
		c0.392,0,0.736,0.104,0.944,0.24l-0.168,0.512c-0.152-0.096-0.432-0.231-0.792-0.231c-0.416,0-0.64,0.239-0.64,0.527
		c0,0.319,0.224,0.464,0.728,0.664c0.664,0.247,1.016,0.583,1.016,1.159c0,0.688-0.536,1.167-1.439,1.167
		c-0.424,0-0.815-0.112-1.087-0.271L193.337,153.433z"/>
</g>
<g>
	<path fill="#FFFFFF" d="M313.76,151.618h-2.086v1.942h2.334v0.584h-3.038v-5.389h2.919v0.583h-2.215v1.703h2.086V151.618z"/>
	<path fill="#FFFFFF" d="M317.647,154.009c-0.184,0.088-0.591,0.224-1.111,0.224c-1.167,0-1.927-0.791-1.927-1.975
		c0-1.191,0.815-2.063,2.079-2.063c0.416,0,0.783,0.104,0.976,0.208l-0.16,0.536c-0.168-0.088-0.432-0.185-0.815-0.185
		c-0.888,0-1.367,0.664-1.367,1.464c0,0.896,0.575,1.447,1.343,1.447c0.4,0,0.664-0.097,0.864-0.185L317.647,154.009z"/>
	<path fill="#FFFFFF" d="M321.936,152.178c0,1.431-1,2.055-1.927,2.055c-1.04,0-1.855-0.768-1.855-1.991
		c0-1.287,0.855-2.047,1.919-2.047C321.184,150.194,321.936,151.002,321.936,152.178z M318.873,152.218
		c0,0.848,0.479,1.487,1.167,1.487c0.672,0,1.176-0.632,1.176-1.504c0-0.655-0.328-1.479-1.159-1.479
		C319.232,150.723,318.873,151.49,318.873,152.218z"/>
	<path fill="#FFFFFF" d="M322.81,153.433c0.216,0.128,0.584,0.272,0.936,0.272c0.504,0,0.744-0.248,0.744-0.576
		c0-0.336-0.2-0.512-0.712-0.703c-0.703-0.256-1.031-0.632-1.031-1.096c0-0.624,0.512-1.136,1.335-1.136
		c0.392,0,0.735,0.104,0.943,0.24l-0.168,0.512c-0.151-0.096-0.432-0.231-0.791-0.231c-0.416,0-0.64,0.239-0.64,0.527
		c0,0.319,0.224,0.464,0.728,0.664c0.663,0.247,1.016,0.583,1.016,1.159c0,0.688-0.536,1.167-1.439,1.167
		c-0.424,0-0.815-0.112-1.087-0.271L322.81,153.433z"/>
	<path fill="#FFFFFF" d="M326.29,150.274l0.839,2.287c0.097,0.256,0.192,0.56,0.256,0.791h0.017
		c0.071-0.231,0.151-0.527,0.248-0.808l0.768-2.271h0.743l-1.056,2.759c-0.504,1.327-0.848,1.999-1.327,2.423
		c-0.352,0.296-0.688,0.415-0.863,0.447l-0.176-0.583c0.176-0.057,0.407-0.168,0.615-0.344c0.192-0.152,0.424-0.424,0.592-0.784
		c0.032-0.072,0.056-0.128,0.056-0.168s-0.016-0.096-0.056-0.184l-1.423-3.566H326.29z"/>
	<path fill="#FFFFFF" d="M329.633,153.433c0.217,0.128,0.584,0.272,0.936,0.272c0.504,0,0.744-0.248,0.744-0.576
		c0-0.336-0.2-0.512-0.712-0.703c-0.703-0.256-1.031-0.632-1.031-1.096c0-0.624,0.512-1.136,1.335-1.136
		c0.392,0,0.736,0.104,0.943,0.24l-0.168,0.512c-0.151-0.096-0.432-0.231-0.791-0.231c-0.416,0-0.64,0.239-0.64,0.527
		c0,0.319,0.224,0.464,0.728,0.664c0.664,0.247,1.016,0.583,1.016,1.159c0,0.688-0.536,1.167-1.439,1.167
		c-0.424,0-0.815-0.112-1.088-0.271L329.633,153.433z"/>
	<path fill="#FFFFFF" d="M333.745,149.348v0.927h1.007v0.536h-1.007v2.087c0,0.479,0.136,0.751,0.527,0.751
		c0.191,0,0.304-0.016,0.407-0.048l0.032,0.536c-0.136,0.048-0.352,0.096-0.623,0.096c-0.328,0-0.592-0.112-0.76-0.296
		c-0.192-0.216-0.272-0.56-0.272-1.016v-2.11h-0.6v-0.536h0.6v-0.72L333.745,149.348z"/>
	<path fill="#FFFFFF" d="M335.897,152.338c0.016,0.951,0.615,1.343,1.327,1.343c0.504,0,0.815-0.088,1.071-0.2l0.128,0.504
		c-0.248,0.112-0.68,0.248-1.295,0.248c-1.191,0-1.903-0.791-1.903-1.959c0-1.167,0.688-2.079,1.815-2.079
		c1.271,0,1.599,1.104,1.599,1.815c0,0.144-0.008,0.248-0.023,0.328H335.897z M337.96,151.834c0.008-0.439-0.184-1.136-0.976-1.136
		c-0.719,0-1.023,0.647-1.079,1.136H337.96z"/>
	<path fill="#FFFFFF" d="M339.594,151.322c0-0.408-0.017-0.728-0.032-1.048h0.615l0.032,0.632h0.024
		c0.216-0.368,0.575-0.712,1.223-0.712c0.521,0,0.92,0.32,1.088,0.776h0.016c0.12-0.225,0.28-0.384,0.44-0.504
		c0.231-0.176,0.479-0.272,0.847-0.272c0.521,0,1.279,0.336,1.279,1.68v2.271h-0.688v-2.183c0-0.752-0.279-1.191-0.839-1.191
		c-0.408,0-0.712,0.296-0.84,0.632c-0.032,0.104-0.056,0.224-0.056,0.352v2.391h-0.688v-2.318c0-0.616-0.271-1.056-0.807-1.056
		c-0.433,0-0.76,0.352-0.872,0.703c-0.04,0.097-0.056,0.225-0.056,0.344v2.327h-0.688V151.322z"/>
</g>
<g>
	<path fill="#FFFFFF" d="M381.745,152.449l-0.56,1.695h-0.72l1.839-5.389h0.831l1.839,5.389h-0.743l-0.575-1.695H381.745z
		 M383.52,151.906l-0.535-1.552c-0.12-0.352-0.2-0.672-0.28-0.983h-0.016c-0.08,0.312-0.16,0.647-0.272,0.976l-0.527,1.56H383.52z"
		/>
	<path fill="#FFFFFF" d="M388.392,154.009c-0.184,0.088-0.591,0.224-1.111,0.224c-1.167,0-1.927-0.791-1.927-1.975
		c0-1.191,0.815-2.063,2.079-2.063c0.416,0,0.783,0.104,0.976,0.208l-0.16,0.536c-0.168-0.088-0.432-0.185-0.815-0.185
		c-0.888,0-1.367,0.664-1.367,1.464c0,0.896,0.575,1.447,1.343,1.447c0.4,0,0.664-0.097,0.864-0.185L388.392,154.009z"/>
	<path fill="#FFFFFF" d="M390.146,149.348v0.927h1.007v0.536h-1.007v2.087c0,0.479,0.136,0.751,0.527,0.751
		c0.191,0,0.304-0.016,0.407-0.048l0.032,0.536c-0.136,0.048-0.352,0.096-0.623,0.096c-0.328,0-0.592-0.112-0.76-0.296
		c-0.192-0.216-0.272-0.56-0.272-1.016v-2.11h-0.6v-0.536h0.6v-0.72L390.146,149.348z"/>
	<path fill="#FFFFFF" d="M392.801,149.188c0,0.239-0.168,0.432-0.447,0.432c-0.256,0-0.424-0.192-0.424-0.432
		c0-0.24,0.176-0.44,0.439-0.44C392.625,148.747,392.801,148.939,392.801,149.188z M392.018,154.145v-3.87h0.703v3.87H392.018z"/>
	<path fill="#FFFFFF" d="M397.472,152.178c0,1.431-1,2.055-1.927,2.055c-1.04,0-1.855-0.768-1.855-1.991
		c0-1.287,0.855-2.047,1.919-2.047C396.72,150.194,397.472,151.002,397.472,152.178z M394.409,152.218
		c0,0.848,0.479,1.487,1.167,1.487c0.672,0,1.176-0.632,1.176-1.504c0-0.655-0.328-1.479-1.159-1.479
		C394.769,150.723,394.409,151.49,394.409,152.218z"/>
	<path fill="#FFFFFF" d="M398.441,151.322c0-0.408-0.008-0.728-0.032-1.048h0.624l0.039,0.64h0.017
		c0.191-0.359,0.64-0.72,1.279-0.72c0.535,0,1.367,0.32,1.367,1.647v2.303h-0.704v-2.23c0-0.624-0.231-1.144-0.896-1.144
		c-0.455,0-0.815,0.328-0.943,0.72c-0.031,0.088-0.048,0.208-0.048,0.327v2.327h-0.703V151.322z"/>
	<path fill="#FFFFFF" d="M404.761,148.819c0.336-0.056,0.775-0.104,1.336-0.104c0.688,0,1.19,0.159,1.511,0.447
		c0.288,0.256,0.472,0.647,0.472,1.128c0,0.487-0.144,0.871-0.416,1.151c-0.376,0.392-0.967,0.591-1.646,0.591
		c-0.208,0-0.4-0.008-0.56-0.048v2.159h-0.696V148.819z M405.457,151.418c0.151,0.04,0.344,0.056,0.575,0.056
		c0.84,0,1.352-0.415,1.352-1.143c0-0.72-0.512-1.063-1.271-1.063c-0.304,0-0.536,0.023-0.655,0.056V151.418z"/>
	<path fill="#FFFFFF" d="M409.065,148.468h0.703v5.677h-0.703V148.468z"/>
	<path fill="#FFFFFF" d="M413.751,153.217c0,0.336,0.017,0.664,0.057,0.928h-0.632l-0.056-0.487h-0.024
		c-0.216,0.304-0.632,0.575-1.184,0.575c-0.783,0-1.183-0.552-1.183-1.111c0-0.936,0.831-1.447,2.326-1.439v-0.08
		c0-0.312-0.088-0.896-0.88-0.887c-0.367,0-0.743,0.104-1.015,0.287l-0.16-0.472c0.319-0.199,0.792-0.336,1.279-0.336
		c1.184,0,1.471,0.808,1.471,1.575V153.217z M413.072,152.17c-0.768-0.017-1.64,0.119-1.64,0.871c0,0.464,0.304,0.672,0.655,0.672
		c0.512,0,0.84-0.32,0.952-0.647c0.023-0.08,0.032-0.16,0.032-0.225V152.17z"/>
	<path fill="#FFFFFF" d="M414.961,151.322c0-0.408-0.008-0.728-0.032-1.048h0.624l0.039,0.64h0.017
		c0.191-0.359,0.64-0.72,1.279-0.72c0.535,0,1.367,0.32,1.367,1.647v2.303h-0.704v-2.23c0-0.624-0.231-1.144-0.896-1.144
		c-0.455,0-0.815,0.328-0.943,0.72c-0.031,0.088-0.048,0.208-0.048,0.327v2.327h-0.703V151.322z"/>
</g>
<g>
	<path fill="#FFFFFF" d="M244.058,145.5c0.304-0.072,0.792-0.12,1.271-0.12c0.696,0,1.144,0.12,1.471,0.392
		c0.28,0.208,0.456,0.527,0.456,0.951c0,0.528-0.352,0.983-0.912,1.184v0.023c0.512,0.12,1.111,0.544,1.111,1.344
		c0,0.464-0.184,0.823-0.464,1.079c-0.368,0.344-0.976,0.504-1.855,0.504c-0.479,0-0.848-0.032-1.079-0.063V145.5z M244.753,147.706
		h0.632c0.728,0,1.159-0.392,1.159-0.911c0-0.624-0.472-0.88-1.175-0.88c-0.32,0-0.504,0.024-0.616,0.048V147.706z M244.753,150.281
		c0.144,0.023,0.336,0.031,0.584,0.031c0.719,0,1.383-0.264,1.383-1.047c0-0.728-0.631-1.04-1.391-1.04h-0.576V150.281z"/>
	<path fill="#FFFFFF" d="M248.449,148.146c0-0.456-0.008-0.848-0.032-1.208h0.616l0.032,0.768h0.024
		c0.176-0.52,0.608-0.848,1.08-0.848c0.072,0,0.128,0.009,0.192,0.017v0.663c-0.072-0.016-0.144-0.016-0.24-0.016
		c-0.496,0-0.848,0.368-0.944,0.896c-0.016,0.096-0.024,0.216-0.024,0.328v2.063h-0.704V148.146z"/>
	<path fill="#FFFFFF" d="M253.672,149.881c0,0.336,0.016,0.664,0.056,0.928h-0.632l-0.056-0.487h-0.023
		c-0.216,0.304-0.632,0.575-1.184,0.575c-0.784,0-1.184-0.552-1.184-1.111c0-0.936,0.832-1.447,2.327-1.439v-0.08
		c0-0.312-0.088-0.896-0.88-0.887c-0.368,0-0.743,0.104-1.016,0.287l-0.16-0.472c0.32-0.199,0.792-0.336,1.279-0.336
		c1.184,0,1.472,0.808,1.472,1.575V149.881z M252.992,148.834c-0.768-0.017-1.639,0.119-1.639,0.871
		c0,0.464,0.304,0.672,0.655,0.672c0.512,0,0.84-0.32,0.951-0.647c0.024-0.08,0.032-0.16,0.032-0.225V148.834z"/>
	<path fill="#FFFFFF" d="M254.89,147.986c0-0.408-0.009-0.728-0.032-1.048h0.624l0.04,0.64h0.016c0.191-0.359,0.64-0.72,1.279-0.72
		c0.535,0,1.367,0.32,1.367,1.647v2.303h-0.704v-2.23c0-0.624-0.231-1.144-0.896-1.144c-0.455,0-0.815,0.328-0.943,0.72
		c-0.031,0.088-0.048,0.208-0.048,0.327v2.327h-0.703V147.986z"/>
	<path fill="#FFFFFF" d="M262.743,145.132v4.678c0,0.344,0.016,0.735,0.032,0.999h-0.624l-0.032-0.672h-0.023
		c-0.208,0.432-0.672,0.76-1.304,0.76c-0.936,0-1.663-0.791-1.663-1.967c-0.008-1.287,0.8-2.071,1.735-2.071
		c0.6,0,0.991,0.28,1.167,0.584h0.017v-2.311H262.743z M262.048,148.514c0-0.088-0.009-0.208-0.032-0.296
		c-0.104-0.439-0.488-0.808-1.016-0.808c-0.728,0-1.159,0.64-1.159,1.487c0,0.784,0.392,1.432,1.144,1.432
		c0.472,0,0.903-0.32,1.031-0.84c0.023-0.096,0.032-0.191,0.032-0.304V148.514z"/>
</g>
<g>
	<path fill="#FFFFFF" d="M238.593,157.961c0.312,0.2,0.76,0.352,1.24,0.352c0.711,0,1.127-0.375,1.127-0.919
		c0-0.496-0.288-0.792-1.015-1.063c-0.879-0.32-1.423-0.783-1.423-1.535c0-0.84,0.696-1.463,1.743-1.463
		c0.543,0,0.951,0.128,1.183,0.264l-0.192,0.567c-0.168-0.104-0.527-0.256-1.015-0.256c-0.736,0-1.016,0.439-1.016,0.808
		c0,0.504,0.328,0.752,1.071,1.039c0.912,0.353,1.367,0.792,1.367,1.584c0,0.831-0.607,1.559-1.879,1.559
		c-0.52,0-1.087-0.16-1.375-0.352L238.593,157.961z"/>
	<path fill="#FFFFFF" d="M243.489,154.012v0.927h1.007v0.536h-1.007v2.087c0,0.479,0.136,0.751,0.528,0.751
		c0.192,0,0.304-0.016,0.408-0.048l0.032,0.536c-0.136,0.048-0.352,0.096-0.624,0.096c-0.328,0-0.591-0.112-0.759-0.296
		c-0.192-0.216-0.272-0.56-0.272-1.016v-2.11h-0.6v-0.536h0.6v-0.72L243.489,154.012z"/>
	<path fill="#FFFFFF" d="M245.369,156.146c0-0.456-0.008-0.848-0.032-1.208h0.616l0.032,0.768h0.024
		c0.176-0.52,0.608-0.848,1.08-0.848c0.072,0,0.128,0.009,0.192,0.017v0.663c-0.072-0.016-0.144-0.016-0.24-0.016
		c-0.496,0-0.848,0.368-0.944,0.896c-0.016,0.096-0.024,0.216-0.024,0.328v2.063h-0.704V156.146z"/>
	<path fill="#FFFFFF" d="M250.592,157.881c0,0.336,0.016,0.664,0.056,0.928h-0.631l-0.056-0.487h-0.024
		c-0.216,0.304-0.631,0.575-1.183,0.575c-0.784,0-1.184-0.552-1.184-1.111c0-0.936,0.832-1.447,2.327-1.439v-0.08
		c0-0.312-0.088-0.896-0.879-0.887c-0.368,0-0.744,0.104-1.016,0.287l-0.16-0.472c0.32-0.199,0.792-0.336,1.279-0.336
		c1.183,0,1.471,0.808,1.471,1.575V157.881z M249.912,156.834c-0.768-0.017-1.639,0.119-1.639,0.871
		c0,0.464,0.304,0.672,0.656,0.672c0.512,0,0.839-0.32,0.951-0.647c0.024-0.08,0.032-0.16,0.032-0.225V156.834z"/>
	<path fill="#FFFFFF" d="M252.609,154.012v0.927h1.007v0.536h-1.007v2.087c0,0.479,0.136,0.751,0.527,0.751
		c0.191,0,0.304-0.016,0.408-0.048l0.031,0.536c-0.136,0.048-0.352,0.096-0.623,0.096c-0.328,0-0.592-0.112-0.76-0.296
		c-0.192-0.216-0.272-0.56-0.272-1.016v-2.11h-0.6v-0.536h0.6v-0.72L252.609,154.012z"/>
	<path fill="#FFFFFF" d="M254.77,157.002c0.016,0.951,0.615,1.343,1.327,1.343c0.504,0,0.815-0.088,1.071-0.2l0.128,0.504
		c-0.248,0.112-0.68,0.248-1.295,0.248c-1.191,0-1.903-0.791-1.903-1.959c0-1.167,0.688-2.079,1.815-2.079
		c1.271,0,1.599,1.104,1.599,1.815c0,0.144-0.008,0.248-0.023,0.328H254.77z M256.832,156.498c0.008-0.439-0.184-1.136-0.976-1.136
		c-0.72,0-1.023,0.647-1.079,1.136H256.832z"/>
	<path fill="#FFFFFF" d="M261.775,158.241c0,0.896-0.184,1.431-0.552,1.774c-0.384,0.344-0.927,0.464-1.415,0.464
		c-0.464,0-0.976-0.111-1.287-0.319l0.176-0.544c0.256,0.168,0.656,0.312,1.136,0.312c0.72,0,1.247-0.376,1.247-1.359v-0.424h-0.016
		c-0.208,0.36-0.632,0.648-1.231,0.648c-0.96,0-1.647-0.816-1.647-1.888c0-1.311,0.855-2.047,1.751-2.047
		c0.672,0,1.031,0.344,1.208,0.664h0.016l0.023-0.584h0.624c-0.024,0.272-0.032,0.592-0.032,1.056V158.241z M261.072,156.466
		c0-0.12-0.008-0.224-0.04-0.312c-0.128-0.416-0.464-0.752-0.983-0.752c-0.672,0-1.151,0.567-1.151,1.463
		c0,0.76,0.392,1.392,1.144,1.392c0.439,0,0.831-0.271,0.975-0.72c0.04-0.12,0.057-0.256,0.057-0.376V156.466z"/>
	<path fill="#FFFFFF" d="M263.273,154.938l0.839,2.287c0.097,0.256,0.192,0.56,0.256,0.791h0.017
		c0.071-0.231,0.151-0.527,0.248-0.808l0.768-2.271h0.743l-1.056,2.759c-0.504,1.327-0.848,1.999-1.327,2.423
		c-0.352,0.296-0.688,0.415-0.863,0.447l-0.176-0.583c0.176-0.057,0.407-0.168,0.615-0.344c0.192-0.152,0.424-0.424,0.592-0.784
		c0.032-0.072,0.056-0.128,0.056-0.168s-0.016-0.096-0.056-0.184l-1.423-3.566H263.273z"/>
</g>
<g>
	<path fill="#808285" d="M65.097-17.221v5.389h-0.704v-5.389H65.097z"/>
	<path fill="#808285" d="M69.704-17.508v4.677c0,0.344,0.016,0.736,0.032,1h-0.624l-0.032-0.671h-0.024
		c-0.208,0.432-0.671,0.759-1.303,0.759c-0.936,0-1.663-0.792-1.663-1.967c-0.008-1.288,0.8-2.071,1.735-2.071
		c0.6,0,0.991,0.28,1.167,0.583h0.016v-2.311H69.704z M69.008-14.126c0-0.088-0.008-0.208-0.032-0.295
		c-0.104-0.44-0.488-0.808-1.016-0.808c-0.728,0-1.159,0.64-1.159,1.487c0,0.784,0.392,1.431,1.143,1.431
		c0.472,0,0.904-0.319,1.032-0.839c0.024-0.096,0.032-0.192,0.032-0.304V-14.126z"/>
	<path fill="#808285" d="M71.354-13.639c0.016,0.952,0.616,1.343,1.327,1.343c0.504,0,0.815-0.088,1.071-0.2l0.128,0.504
		c-0.248,0.112-0.68,0.248-1.295,0.248c-1.191,0-1.903-0.792-1.903-1.959s0.688-2.079,1.815-2.079c1.271,0,1.599,1.104,1.599,1.815
		c0,0.144-0.008,0.248-0.024,0.328H71.354z M73.416-14.142c0.008-0.44-0.184-1.136-0.975-1.136c-0.72,0-1.023,0.648-1.08,1.136
		H73.416z"/>
	<path fill="#808285" d="M77.76-12.759c0,0.335,0.016,0.664,0.056,0.927h-0.632l-0.056-0.488h-0.024
		c-0.216,0.304-0.632,0.576-1.183,0.576c-0.784,0-1.184-0.552-1.184-1.111c0-0.936,0.832-1.447,2.327-1.439v-0.08
		c0-0.312-0.088-0.896-0.879-0.888c-0.368,0-0.744,0.104-1.016,0.288l-0.16-0.472c0.32-0.2,0.792-0.336,1.279-0.336
		c1.183,0,1.471,0.808,1.471,1.575V-12.759z M77.081-13.807c-0.768-0.016-1.639,0.12-1.639,0.872c0,0.464,0.304,0.672,0.656,0.672
		c0.512,0,0.839-0.32,0.952-0.648c0.024-0.08,0.032-0.16,0.032-0.224V-13.807z"/>
	<path fill="#808285" d="M82.057-16.373h-0.016l-0.904,0.488l-0.136-0.536l1.135-0.608h0.6v5.197h-0.68V-16.373z"/>
	<path fill="#808285" d="M84.777-15.062c0-0.296,0.2-0.504,0.472-0.504c0.288,0,0.472,0.208,0.472,0.504
		c0,0.28-0.184,0.496-0.479,0.496C84.969-14.566,84.777-14.782,84.777-15.062z M84.777-12.239c0-0.296,0.2-0.504,0.472-0.504
		c0.288,0,0.472,0.208,0.472,0.504c0,0.28-0.184,0.496-0.479,0.496C84.969-11.744,84.777-11.959,84.777-12.239z"/>
</g>
<g>
	<path fill="#808285" d="M65.097,114.028v5.389h-0.704v-5.389H65.097z"/>
	<path fill="#808285" d="M69.704,113.74v4.678c0,0.344,0.016,0.735,0.032,0.999h-0.624l-0.032-0.672h-0.024
		c-0.208,0.432-0.671,0.76-1.303,0.76c-0.936,0-1.663-0.792-1.663-1.967c-0.008-1.287,0.8-2.071,1.735-2.071
		c0.6,0,0.991,0.28,1.167,0.584h0.016v-2.311H69.704z M69.008,117.122c0-0.088-0.008-0.208-0.032-0.296
		c-0.104-0.439-0.488-0.808-1.016-0.808c-0.728,0-1.159,0.64-1.159,1.487c0,0.784,0.392,1.432,1.143,1.432
		c0.472,0,0.904-0.32,1.032-0.84c0.024-0.096,0.032-0.191,0.032-0.304V117.122z"/>
	<path fill="#808285" d="M71.354,117.61c0.016,0.951,0.616,1.343,1.327,1.343c0.504,0,0.815-0.088,1.071-0.2l0.128,0.504
		c-0.248,0.112-0.68,0.248-1.295,0.248c-1.191,0-1.903-0.792-1.903-1.959s0.688-2.079,1.815-2.079c1.271,0,1.599,1.104,1.599,1.815
		c0,0.144-0.008,0.248-0.024,0.328H71.354z M73.416,117.106c0.008-0.44-0.184-1.136-0.975-1.136c-0.72,0-1.023,0.647-1.08,1.136
		H73.416z"/>
	<path fill="#808285" d="M77.76,118.489c0,0.336,0.016,0.664,0.056,0.928h-0.632l-0.056-0.487h-0.024
		c-0.216,0.304-0.632,0.575-1.183,0.575c-0.784,0-1.184-0.552-1.184-1.111c0-0.936,0.832-1.447,2.327-1.439v-0.08
		c0-0.312-0.088-0.896-0.879-0.887c-0.368,0-0.744,0.104-1.016,0.287l-0.16-0.472c0.32-0.199,0.792-0.336,1.279-0.336
		c1.183,0,1.471,0.808,1.471,1.575V118.489z M77.081,117.442c-0.768-0.017-1.639,0.12-1.639,0.871c0,0.464,0.304,0.672,0.656,0.672
		c0.512,0,0.839-0.32,0.952-0.647c0.024-0.08,0.032-0.16,0.032-0.225V117.442z"/>
	<path fill="#808285" d="M80.53,119.417v-0.432l0.552-0.536c1.327-1.263,1.935-1.935,1.935-2.718c0-0.528-0.248-1.016-1.023-1.016
		c-0.472,0-0.864,0.239-1.104,0.439l-0.224-0.496c0.352-0.296,0.872-0.527,1.463-0.527c1.119,0,1.591,0.768,1.591,1.511
		c0,0.96-0.695,1.735-1.791,2.791l-0.408,0.384v0.016h2.327v0.584H80.53z"/>
	<path fill="#808285" d="M84.77,116.187c0-0.296,0.2-0.504,0.472-0.504c0.288,0,0.472,0.208,0.472,0.504
		c0,0.28-0.184,0.496-0.479,0.496C84.961,116.683,84.77,116.467,84.77,116.187z M84.77,119.009c0-0.296,0.2-0.503,0.472-0.503
		c0.288,0,0.472,0.207,0.472,0.503c0,0.28-0.184,0.496-0.479,0.496C84.961,119.505,84.77,119.289,84.77,119.009z"/>
</g>
</svg>
