<?xml version="1.0" encoding="utf-8"?>
<!-- Generator: Adobe Illustrator 15.1.0, SVG Export Plug-In . SVG Version: 6.00 Build 0)  -->
<!DOCTYPE svg PUBLIC "-//W3C//DTD SVG 1.1//EN" "http://www.w3.org/Graphics/SVG/1.1/DTD/svg11.dtd">
<svg version="1.1" id="Layer_1" xmlns="http://www.w3.org/2000/svg" xmlns:xlink="http://www.w3.org/1999/xlink" x="0px" y="0px"
	 width="432.238px" height="243.165px" viewBox="0 0 432.238 243.165" enable-background="new 0 0 432.238 243.165"
	 xml:space="preserve">
<g>
	<defs>
		<rect id="SVGID_1_" width="432.238" height="243.165"/>
	</defs>
	<clipPath id="SVGID_2_">
		<use xlink:href="#SVGID_1_"  overflow="visible"/>
	</clipPath>
	<g clip-path="url(#SVGID_2_)">
		<path fill="#878787" d="M-18.85-133.799h-2.208v-0.797h5.375v0.797h-2.219v6.463h-0.948V-133.799z"/>
	</g>
	<g clip-path="url(#SVGID_2_)">
		<path fill="#878787" d="M-13.175-130.923c0-0.614-0.011-1.142-0.043-1.626h0.83l0.043,1.034h0.033
			c0.237-0.7,0.818-1.142,1.454-1.142c0.097,0,0.172,0.011,0.259,0.021v0.894c-0.097-0.021-0.194-0.021-0.323-0.021
			c-0.668,0-1.142,0.496-1.271,1.207c-0.021,0.129-0.032,0.291-0.032,0.442v2.779h-0.948V-130.923z"/>
	</g>
	<g clip-path="url(#SVGID_2_)">
		<path fill="#878787" d="M-7.662-134.015c0,0.323-0.227,0.582-0.604,0.582c-0.345,0-0.571-0.259-0.571-0.582
			s0.237-0.592,0.592-0.592C-7.899-134.607-7.662-134.349-7.662-134.015z M-8.717-127.336v-5.214h0.948v5.214H-8.717z"/>
		<path fill="#878787" d="M-2.427-128.585c0,0.452,0.021,0.894,0.075,1.25h-0.851l-0.075-0.657h-0.032
			c-0.291,0.41-0.851,0.776-1.595,0.776c-1.056,0-1.594-0.744-1.594-1.498c0-1.26,1.121-1.95,3.135-1.939v-0.108
			c0-0.42-0.118-1.207-1.185-1.196c-0.495,0-1.001,0.14-1.368,0.388l-0.216-0.635c0.431-0.27,1.067-0.453,1.724-0.453
			c1.595,0,1.982,1.088,1.982,2.122V-128.585z M-3.343-129.997c-1.034-0.022-2.208,0.161-2.208,1.174
			c0,0.625,0.409,0.905,0.883,0.905c0.689,0,1.131-0.431,1.282-0.873c0.032-0.108,0.043-0.216,0.043-0.302V-129.997z"/>
		<path fill="#878787" d="M-0.792-131.139c0-0.549-0.011-0.98-0.043-1.411h0.84l0.054,0.862h0.022
			c0.258-0.485,0.862-0.97,1.724-0.97c0.722,0,1.842,0.431,1.842,2.219v3.103H2.698v-3.005c0-0.84-0.313-1.541-1.207-1.541
			c-0.614,0-1.099,0.441-1.271,0.969c-0.043,0.119-0.064,0.28-0.064,0.442v3.135h-0.948V-131.139z"/>
		<path fill="#878787" d="M9.752-128.101c0,1.207-0.248,1.928-0.743,2.391c-0.517,0.463-1.25,0.625-1.907,0.625
			c-0.625,0-1.314-0.151-1.734-0.431l0.237-0.733c0.345,0.227,0.884,0.42,1.53,0.42c0.97,0,1.681-0.506,1.681-1.832v-0.571H8.793
			c-0.28,0.485-0.851,0.873-1.659,0.873c-1.292,0-2.219-1.099-2.219-2.542c0-1.767,1.153-2.758,2.359-2.758
			c0.905,0,1.39,0.463,1.627,0.894h0.021l0.032-0.786h0.84c-0.033,0.366-0.043,0.797-0.043,1.422V-128.101z M8.804-130.492
			c0-0.162-0.011-0.302-0.054-0.42c-0.172-0.56-0.625-1.013-1.325-1.013c-0.905,0-1.551,0.765-1.551,1.972
			c0,1.023,0.528,1.875,1.541,1.875c0.592,0,1.12-0.366,1.314-0.97c0.054-0.162,0.076-0.345,0.076-0.506V-130.492z"/>
		<path fill="#878787" d="M15.782-128.769c0,0.549,0.011,1.023,0.043,1.433h-0.84l-0.054-0.851H14.91
			c-0.237,0.42-0.797,0.97-1.724,0.97c-0.819,0-1.799-0.463-1.799-2.284v-3.048h0.948v2.876c0,0.991,0.313,1.67,1.164,1.67
			c0.635,0,1.077-0.441,1.25-0.873c0.054-0.129,0.086-0.302,0.086-0.485v-3.188h0.948V-128.769z"/>
		<path fill="#878787" d="M17.45-134.984h0.948v7.648H17.45V-134.984z"/>
		<path fill="#878787" d="M23.761-128.585c0,0.452,0.021,0.894,0.075,1.25h-0.851l-0.075-0.657h-0.032
			c-0.291,0.41-0.851,0.776-1.595,0.776c-1.056,0-1.594-0.744-1.594-1.498c0-1.26,1.121-1.95,3.135-1.939v-0.108
			c0-0.42-0.118-1.207-1.185-1.196c-0.495,0-1.001,0.14-1.368,0.388l-0.216-0.635c0.431-0.27,1.067-0.453,1.724-0.453
			c1.595,0,1.982,1.088,1.982,2.122V-128.585z M22.846-129.997c-1.034-0.022-2.208,0.161-2.208,1.174
			c0,0.625,0.409,0.905,0.883,0.905c0.689,0,1.131-0.431,1.282-0.873c0.032-0.108,0.043-0.216,0.043-0.302V-129.997z"/>
		<path fill="#878787" d="M26.539-133.799v1.25h1.357v0.722h-1.357v2.812c0,0.646,0.183,1.013,0.711,1.013
			c0.259,0,0.41-0.021,0.549-0.064l0.043,0.722c-0.183,0.064-0.474,0.129-0.84,0.129c-0.442,0-0.797-0.151-1.023-0.399
			c-0.259-0.291-0.366-0.754-0.366-1.368v-2.844h-0.808v-0.722h0.808v-0.97L26.539-133.799z"/>
		<path fill="#878787" d="M30.125-134.015c0,0.323-0.227,0.582-0.604,0.582c-0.345,0-0.571-0.259-0.571-0.582
			s0.237-0.592,0.592-0.592C29.887-134.607,30.125-134.349,30.125-134.015z M29.069-127.336v-5.214h0.948v5.214H29.069z"/>
		<path fill="#878787" d="M36.415-129.986c0,1.928-1.347,2.769-2.596,2.769c-1.4,0-2.5-1.034-2.5-2.683
			c0-1.734,1.153-2.758,2.585-2.758C35.402-132.658,36.415-131.57,36.415-129.986z M32.289-129.932c0,1.142,0.646,2.004,1.573,2.004
			c0.905,0,1.583-0.851,1.583-2.025c0-0.883-0.441-1.993-1.562-1.993C32.773-131.947,32.289-130.913,32.289-129.932z"/>
		<path fill="#878787" d="M37.716-131.139c0-0.549-0.011-0.98-0.043-1.411h0.84l0.054,0.862h0.022
			c0.258-0.485,0.862-0.97,1.724-0.97c0.722,0,1.842,0.431,1.842,2.219v3.103h-0.948v-3.005c0-0.84-0.313-1.541-1.207-1.541
			c-0.614,0-1.099,0.441-1.271,0.969c-0.043,0.119-0.064,0.28-0.064,0.442v3.135h-0.948V-131.139z"/>
		<path fill="#878787" d="M52.341-130.525c-0.054-1.012-0.118-2.24-0.118-3.135h-0.022c-0.258,0.84-0.549,1.756-0.916,2.758
			l-1.282,3.523h-0.711l-1.185-3.458c-0.345-1.034-0.625-1.961-0.83-2.823h-0.021c-0.021,0.905-0.076,2.112-0.14,3.21l-0.194,3.113
			h-0.894l0.506-7.261h1.195l1.239,3.512c0.301,0.894,0.539,1.691,0.732,2.445h0.021c0.194-0.732,0.453-1.529,0.776-2.445
			l1.292-3.512h1.196l0.453,7.261h-0.927L52.341-130.525z"/>
		<path fill="#878787" d="M59.674-129.986c0,1.928-1.347,2.769-2.596,2.769c-1.4,0-2.5-1.034-2.5-2.683
			c0-1.734,1.153-2.758,2.585-2.758C58.661-132.658,59.674-131.57,59.674-129.986z M55.548-129.932c0,1.142,0.646,2.004,1.573,2.004
			c0.905,0,1.583-0.851,1.583-2.025c0-0.883-0.441-1.993-1.562-1.993C56.033-131.947,55.548-130.913,55.548-129.932z"/>
		<path fill="#878787" d="M65.467-134.984v6.302c0,0.463,0.021,0.991,0.043,1.347h-0.84l-0.043-0.905h-0.032
			c-0.28,0.582-0.905,1.023-1.756,1.023c-1.26,0-2.241-1.066-2.241-2.65c-0.011-1.734,1.078-2.79,2.338-2.79
			c0.808,0,1.336,0.377,1.573,0.787h0.021v-3.113H65.467z M64.53-130.428c0-0.119-0.011-0.28-0.043-0.398
			c-0.14-0.593-0.657-1.088-1.368-1.088c-0.98,0-1.562,0.862-1.562,2.004c0,1.056,0.528,1.928,1.541,1.928
			c0.636,0,1.217-0.431,1.39-1.131c0.032-0.129,0.043-0.259,0.043-0.41V-130.428z"/>
		<path fill="#878787" d="M67.684-129.771c0.021,1.282,0.829,1.81,1.788,1.81c0.679,0,1.099-0.118,1.443-0.269l0.172,0.679
			c-0.334,0.151-0.916,0.334-1.745,0.334c-1.605,0-2.564-1.066-2.564-2.64c0-1.573,0.927-2.801,2.446-2.801
			c1.713,0,2.154,1.487,2.154,2.445c0,0.194-0.011,0.334-0.032,0.442H67.684z M70.463-130.449c0.011-0.592-0.248-1.53-1.314-1.53
			c-0.969,0-1.379,0.873-1.454,1.53H70.463z"/>
	</g>
	<g clip-path="url(#SVGID_2_)">
		<path fill="#878787" d="M85.388-134.984h0.948v7.648h-0.948V-134.984z"/>
	</g>
</g>
<line fill="none" stroke="#F39200" stroke-width="3.029" stroke-miterlimit="10" x1="198.646" y1="204.129" x2="256.637" y2="204.129"/>
<polygon fill="#F39200" points="200.412,210.135 189.953,204.095 200.412,198.055 "/>
<polygon fill="#F39200" points="254.87,210.135 265.33,204.095 254.87,198.055 "/>
<line fill="none" stroke="#F39200" stroke-width="3.029" stroke-miterlimit="10" x1="135.175" y1="146.525" x2="173.386" y2="102.9"/>
<polygon fill="#F39200" points="140.859,149.154 129.423,153.044 131.771,141.195 "/>
<polygon fill="#F39200" points="176.74,108.188 179.09,96.34 167.652,100.23 "/>
<line fill="none" stroke="#F39200" stroke-width="3.029" stroke-miterlimit="10" x1="318.762" y1="146.525" x2="280.553" y2="102.9"/>
<polygon fill="#F39200" points="322.116,141.239 324.465,153.087 313.029,149.199 "/>
<polygon fill="#F39200" points="286.234,100.273 274.799,96.38 277.147,108.234 "/>
<g>
	<defs>
		<rect id="SVGID_3_" width="432.238" height="243.165"/>
	</defs>
	<clipPath id="SVGID_4_">
		<use xlink:href="#SVGID_3_"  overflow="visible"/>
	</clipPath>
	<path clip-path="url(#SVGID_4_)" fill="#F39200" d="M304.375,74.103c0,2.676-2.168,4.846-4.845,4.846H155.769
		c-2.677,0-4.846-2.17-4.846-4.846V9.761c0-2.676,2.168-4.845,4.846-4.845H299.53c2.677,0,4.845,2.169,4.845,4.845V74.103z"/>
	<path clip-path="url(#SVGID_4_)" fill="#C2C2C2" d="M176.282,238.319c0,2.676-2.168,4.846-4.846,4.846H27.675
		c-2.677,0-4.845-2.17-4.845-4.846v-64.342c0-2.677,2.168-4.847,4.845-4.847h143.761c2.678,0,4.846,2.17,4.846,4.847V238.319z"/>
	<path clip-path="url(#SVGID_4_)" fill="#575756" d="M432.238,238.319c0,2.676-2.168,4.846-4.845,4.846H283.632
		c-2.677,0-4.845-2.17-4.845-4.846v-64.342c0-2.677,2.168-4.847,4.845-4.847h143.762c2.677,0,4.845,2.17,4.845,4.847V238.319z"/>
</g>
<g>
	<path fill="#FCFEFF" d="M205.889,27.941h-2.484v-0.897h6.045v0.897h-2.496v7.269h-1.066V27.941z"/>
	<path fill="#FCFEFF" d="M214.441,33.805c0,0.509,0.024,1.005,0.085,1.405h-0.957l-0.085-0.739h-0.037
		c-0.326,0.46-0.957,0.873-1.793,0.873c-1.187,0-1.793-0.836-1.793-1.684c0-1.417,1.26-2.193,3.525-2.181v-0.121
		c0-0.473-0.133-1.357-1.332-1.345c-0.558,0-1.127,0.158-1.539,0.437l-0.242-0.715c0.484-0.303,1.199-0.509,1.938-0.509
		c1.793,0,2.229,1.224,2.229,2.387V33.805z M213.411,32.217c-1.163-0.024-2.483,0.182-2.483,1.321c0,0.703,0.46,1.018,0.993,1.018
		c0.775,0,1.272-0.484,1.442-0.981c0.036-0.121,0.048-0.242,0.048-0.339V32.217z"/>
	<path fill="#FCFEFF" d="M216.162,31.175c0-0.69-0.013-1.284-0.049-1.829h0.933l0.049,1.163h0.036
		c0.267-0.788,0.921-1.284,1.636-1.284c0.109,0,0.194,0.012,0.291,0.024v1.006c-0.109-0.024-0.219-0.024-0.363-0.024
		c-0.752,0-1.284,0.557-1.43,1.357c-0.024,0.146-0.037,0.327-0.037,0.497v3.126h-1.065V31.175z"/>
	<path fill="#FCFEFF" d="M225.139,34.35c0,1.357-0.279,2.169-0.836,2.69c-0.582,0.521-1.405,0.703-2.145,0.703
		c-0.703,0-1.479-0.17-1.951-0.485l0.267-0.824c0.388,0.254,0.994,0.473,1.721,0.473c1.091,0,1.89-0.569,1.89-2.06v-0.642h-0.023
		c-0.315,0.545-0.957,0.981-1.866,0.981c-1.454,0-2.496-1.236-2.496-2.859c0-1.987,1.297-3.102,2.653-3.102
		c1.019,0,1.563,0.521,1.83,1.005h0.024l0.036-0.884h0.944c-0.036,0.412-0.048,0.896-0.048,1.599V34.35z M224.072,31.66
		c0-0.182-0.012-0.339-0.061-0.473c-0.193-0.63-0.703-1.139-1.49-1.139c-1.018,0-1.744,0.86-1.744,2.217
		c0,1.151,0.594,2.108,1.732,2.108c0.666,0,1.26-0.412,1.478-1.09c0.061-0.182,0.085-0.388,0.085-0.569V31.66z"/>
	<path fill="#FCFEFF" d="M227.489,32.472c0.023,1.442,0.933,2.036,2.011,2.036c0.764,0,1.235-0.133,1.623-0.303l0.194,0.763
		c-0.376,0.169-1.03,0.375-1.963,0.375c-1.805,0-2.884-1.199-2.884-2.968s1.042-3.15,2.751-3.15c1.926,0,2.423,1.672,2.423,2.75
		c0,0.218-0.012,0.375-0.036,0.497H227.489z M230.614,31.708c0.013-0.666-0.278-1.72-1.478-1.72c-1.091,0-1.551,0.981-1.636,1.72
		H230.614z"/>
	<path fill="#FCFEFF" d="M234.249,27.941v1.405h1.526v0.812h-1.526v3.162c0,0.727,0.206,1.139,0.8,1.139
		c0.29,0,0.46-0.024,0.617-0.073l0.049,0.812c-0.206,0.073-0.533,0.146-0.945,0.146c-0.496,0-0.896-0.169-1.15-0.448
		c-0.291-0.327-0.412-0.848-0.412-1.539v-3.199h-0.909v-0.812h0.909v-1.09L234.249,27.941z"/>
	<path fill="#FCFEFF" d="M236.732,30.315c0-0.448,0.303-0.763,0.715-0.763c0.436,0,0.714,0.315,0.714,0.763
		c0,0.424-0.278,0.751-0.727,0.751C237.022,31.066,236.732,30.739,236.732,30.315z M236.732,34.592c0-0.448,0.303-0.764,0.715-0.764
		c0.436,0,0.714,0.315,0.714,0.764c0,0.424-0.278,0.751-0.727,0.751C237.022,35.343,236.732,35.016,236.732,34.592z"/>
</g>
<g>
	<path fill="#FCFEFF" d="M181.175,48.79l-0.848,2.568h-1.09l2.787-8.166h1.26l2.787,8.166h-1.127l-0.873-2.568H181.175z
		 M183.865,47.966l-0.812-2.351c-0.182-0.533-0.303-1.018-0.424-1.49h-0.024c-0.121,0.473-0.242,0.981-0.412,1.478l-0.8,2.363
		H183.865z"/>
	<path fill="#FCFEFF" d="M192.139,49.747c0,0.618,0.012,1.151,0.049,1.611h-0.945l-0.061-0.957h-0.024
		c-0.267,0.472-0.897,1.09-1.938,1.09c-0.921,0-2.023-0.521-2.023-2.568v-3.429h1.066v3.235c0,1.114,0.352,1.878,1.309,1.878
		c0.715,0,1.211-0.497,1.405-0.981c0.061-0.146,0.097-0.339,0.097-0.545v-3.586h1.066V49.747z"/>
	<path fill="#FCFEFF" d="M198.959,42.756v7.087c0,0.521,0.024,1.115,0.048,1.515h-0.945l-0.048-1.018h-0.037
		c-0.315,0.654-1.018,1.151-1.975,1.151c-1.417,0-2.52-1.199-2.52-2.98c-0.012-1.951,1.211-3.138,2.629-3.138
		c0.909,0,1.502,0.424,1.769,0.884h0.024v-3.501H198.959z M197.905,47.881c0-0.133-0.012-0.315-0.048-0.448
		c-0.157-0.667-0.739-1.224-1.539-1.224c-1.103,0-1.757,0.969-1.757,2.253c0,1.187,0.594,2.168,1.732,2.168
		c0.715,0,1.369-0.484,1.563-1.272c0.037-0.146,0.048-0.291,0.048-0.46V47.881z"/>
	<path fill="#FCFEFF" d="M201.927,43.847c0,0.364-0.254,0.654-0.679,0.654c-0.388,0-0.642-0.291-0.642-0.654
		c0-0.363,0.267-0.666,0.667-0.666C201.661,43.181,201.927,43.471,201.927,43.847z M200.74,51.358v-5.864h1.066v5.864H200.74z"/>
	<path fill="#FCFEFF" d="M204.168,48.62c0.024,1.442,0.933,2.036,2.011,2.036c0.763,0,1.236-0.133,1.624-0.303l0.194,0.763
		c-0.375,0.169-1.03,0.375-1.963,0.375c-1.805,0-2.883-1.199-2.883-2.968s1.042-3.15,2.75-3.15c1.927,0,2.423,1.672,2.423,2.75
		c0,0.218-0.012,0.375-0.037,0.497H204.168z M207.294,47.857c0.012-0.666-0.279-1.72-1.478-1.72c-1.09,0-1.551,0.981-1.636,1.72
		H207.294z"/>
	<path fill="#FCFEFF" d="M209.645,47.082c0-0.618-0.013-1.103-0.049-1.587h0.945l0.061,0.969h0.024
		c0.29-0.545,0.969-1.09,1.938-1.09c0.812,0,2.071,0.484,2.071,2.496v3.489h-1.066v-3.38c0-0.945-0.351-1.732-1.356-1.732
		c-0.69,0-1.236,0.497-1.43,1.09c-0.049,0.133-0.073,0.315-0.073,0.497v3.525h-1.065V47.082z"/>
	<path fill="#FCFEFF" d="M220.548,51.152c-0.279,0.133-0.896,0.339-1.685,0.339c-1.769,0-2.92-1.199-2.92-2.993
		c0-1.805,1.236-3.125,3.15-3.125c0.63,0,1.188,0.157,1.479,0.315L220.33,46.5c-0.255-0.133-0.654-0.279-1.236-0.279
		c-1.345,0-2.071,1.006-2.071,2.217c0,1.357,0.872,2.193,2.035,2.193c0.605,0,1.006-0.146,1.309-0.278L220.548,51.152z"/>
	<path fill="#FCFEFF" d="M222.389,48.62c0.023,1.442,0.933,2.036,2.011,2.036c0.764,0,1.235-0.133,1.623-0.303l0.194,0.763
		c-0.376,0.169-1.03,0.375-1.963,0.375c-1.805,0-2.884-1.199-2.884-2.968s1.042-3.15,2.751-3.15c1.926,0,2.423,1.672,2.423,2.75
		c0,0.218-0.013,0.375-0.036,0.497H222.389z M225.514,47.857c0.013-0.666-0.278-1.72-1.478-1.72c-1.091,0-1.551,0.981-1.636,1.72
		H225.514z"/>
	<path fill="#FCFEFF" d="M230.469,51.358v-8.166h1.163l2.604,4.131c0.594,0.958,1.078,1.817,1.454,2.653l0.036-0.012
		c-0.097-1.091-0.121-2.084-0.121-3.356v-3.417h0.993v8.166h-1.065l-2.593-4.144c-0.569-0.909-1.115-1.841-1.515-2.726l-0.036,0.012
		c0.061,1.03,0.072,2.011,0.072,3.368v3.489H230.469z"/>
	<path fill="#FCFEFF" d="M238.998,48.62c0.023,1.442,0.933,2.036,2.011,2.036c0.764,0,1.235-0.133,1.623-0.303l0.194,0.763
		c-0.376,0.169-1.03,0.375-1.963,0.375c-1.805,0-2.884-1.199-2.884-2.968s1.042-3.15,2.751-3.15c1.926,0,2.423,1.672,2.423,2.75
		c0,0.218-0.013,0.375-0.036,0.497H238.998z M242.123,47.857c0.013-0.666-0.278-1.72-1.478-1.72c-1.091,0-1.551,0.981-1.636,1.72
		H242.123z"/>
	<path fill="#FCFEFF" d="M245.067,48.62c0.023,1.442,0.933,2.036,2.011,2.036c0.764,0,1.235-0.133,1.623-0.303l0.194,0.763
		c-0.376,0.169-1.03,0.375-1.963,0.375c-1.805,0-2.884-1.199-2.884-2.968s1.042-3.15,2.751-3.15c1.926,0,2.423,1.672,2.423,2.75
		c0,0.218-0.012,0.375-0.036,0.497H245.067z M248.192,47.857c0.013-0.666-0.278-1.72-1.478-1.72c-1.091,0-1.551,0.981-1.636,1.72
		H248.192z"/>
	<path fill="#FCFEFF" d="M255.595,42.756v7.087c0,0.521,0.024,1.115,0.049,1.515h-0.945l-0.049-1.018h-0.036
		c-0.314,0.654-1.018,1.151-1.975,1.151c-1.418,0-2.521-1.199-2.521-2.98c-0.012-1.951,1.212-3.138,2.63-3.138
		c0.908,0,1.502,0.424,1.769,0.884h0.024v-3.501H255.595z M254.541,47.881c0-0.133-0.013-0.315-0.049-0.448
		c-0.157-0.667-0.739-1.224-1.539-1.224c-1.102,0-1.756,0.969-1.756,2.253c0,1.187,0.594,2.168,1.732,2.168
		c0.715,0,1.369-0.484,1.563-1.272c0.036-0.146,0.049-0.291,0.049-0.46V47.881z"/>
</g>
<g>
	<path fill="#FCFEFF" d="M55.522,203.01v-3.465l-2.593-4.701h1.211l1.151,2.254c0.303,0.617,0.558,1.114,0.812,1.684h0.024
		c0.218-0.533,0.509-1.066,0.824-1.684l1.175-2.254h1.188l-2.726,4.688v3.478H55.522z"/>
	<path fill="#FCFEFF" d="M65.529,200.03c0,2.169-1.514,3.113-2.92,3.113c-1.575,0-2.811-1.163-2.811-3.017
		c0-1.95,1.296-3.102,2.908-3.102C64.39,197.025,65.529,198.249,65.529,200.03z M60.889,200.09c0,1.284,0.727,2.254,1.769,2.254
		c1.018,0,1.781-0.957,1.781-2.278c0-0.993-0.497-2.241-1.757-2.241C61.434,197.825,60.889,198.988,60.889,200.09z"/>
	<path fill="#FCFEFF" d="M71.78,201.399c0,0.618,0.012,1.151,0.049,1.611h-0.945l-0.061-0.957h-0.024
		c-0.267,0.473-0.897,1.09-1.938,1.09c-0.921,0-2.023-0.521-2.023-2.568v-3.429h1.066v3.235c0,1.114,0.352,1.878,1.309,1.878
		c0.715,0,1.211-0.497,1.405-0.981c0.061-0.146,0.097-0.339,0.097-0.545v-3.587h1.066V201.399z"/>
	<path fill="#FCFEFF" d="M73.548,198.976c0-0.69-0.012-1.284-0.048-1.83h0.933l0.048,1.163h0.036
		c0.267-0.787,0.921-1.284,1.636-1.284c0.109,0,0.194,0.013,0.291,0.024v1.006c-0.109-0.024-0.218-0.024-0.364-0.024
		c-0.751,0-1.284,0.558-1.43,1.357c-0.024,0.145-0.036,0.327-0.036,0.496v3.126h-1.066V198.976z"/>
	<path fill="#FCFEFF" d="M79.981,201.726c0.472,0.303,1.151,0.533,1.878,0.533c1.078,0,1.708-0.569,1.708-1.394
		c0-0.751-0.436-1.199-1.539-1.611c-1.333-0.484-2.156-1.188-2.156-2.326c0-1.272,1.054-2.217,2.641-2.217
		c0.824,0,1.441,0.193,1.793,0.399l-0.291,0.86c-0.254-0.157-0.799-0.388-1.539-0.388c-1.115,0-1.539,0.666-1.539,1.224
		c0,0.764,0.497,1.139,1.624,1.575c1.381,0.533,2.072,1.199,2.072,2.398c0,1.261-0.921,2.362-2.847,2.362
		c-0.788,0-1.648-0.242-2.084-0.532L79.981,201.726z"/>
	<path fill="#FCFEFF" d="M87.334,195.741v1.405h1.527v0.813h-1.527v3.162c0,0.727,0.206,1.139,0.8,1.139
		c0.291,0,0.46-0.024,0.618-0.073l0.049,0.813c-0.206,0.072-0.533,0.145-0.945,0.145c-0.497,0-0.896-0.169-1.151-0.448
		c-0.291-0.327-0.412-0.848-0.412-1.538v-3.198h-0.909v-0.813h0.909v-1.09L87.334,195.741z"/>
	<path fill="#FCFEFF" d="M90.06,198.976c0-0.69-0.012-1.284-0.048-1.83h0.933l0.048,1.163h0.036
		c0.267-0.787,0.921-1.284,1.636-1.284c0.109,0,0.194,0.013,0.291,0.024v1.006c-0.109-0.024-0.218-0.024-0.364-0.024
		c-0.751,0-1.284,0.558-1.43,1.357c-0.024,0.145-0.036,0.327-0.036,0.496v3.126H90.06V198.976z"/>
	<path fill="#FCFEFF" d="M94.615,200.272c0.024,1.442,0.933,2.035,2.011,2.035c0.763,0,1.236-0.133,1.624-0.303l0.194,0.764
		c-0.375,0.17-1.03,0.375-1.963,0.375c-1.805,0-2.883-1.199-2.883-2.968s1.042-3.15,2.75-3.15c1.927,0,2.423,1.672,2.423,2.751
		c0,0.218-0.012,0.375-0.037,0.496H94.615z M97.741,199.509c0.012-0.667-0.279-1.721-1.478-1.721c-1.09,0-1.551,0.981-1.636,1.721
		H97.741z"/>
	<path fill="#FCFEFF" d="M100.091,198.734c0-0.618-0.012-1.103-0.048-1.588h0.945l0.061,0.97h0.024
		c0.291-0.545,0.969-1.091,1.938-1.091c0.812,0,2.072,0.485,2.072,2.496v3.489h-1.066v-3.38c0-0.945-0.352-1.732-1.357-1.732
		c-0.691,0-1.236,0.496-1.43,1.09c-0.049,0.134-0.073,0.315-0.073,0.497v3.525h-1.066V198.734z"/>
	<path fill="#FCFEFF" d="M111.831,202.15c0,1.357-0.279,2.169-0.836,2.689c-0.582,0.521-1.406,0.703-2.145,0.703
		c-0.703,0-1.478-0.17-1.951-0.484l0.267-0.824c0.388,0.255,0.993,0.473,1.72,0.473c1.09,0,1.89-0.569,1.89-2.06v-0.643h-0.024
		c-0.315,0.546-0.957,0.981-1.866,0.981c-1.454,0-2.496-1.235-2.496-2.859c0-1.986,1.296-3.102,2.653-3.102
		c1.018,0,1.563,0.521,1.829,1.006h0.024l0.037-0.885h0.945c-0.036,0.412-0.048,0.896-0.048,1.6V202.15z M110.764,199.46
		c0-0.182-0.012-0.339-0.061-0.473c-0.194-0.63-0.703-1.139-1.49-1.139c-1.018,0-1.745,0.86-1.745,2.217
		c0,1.151,0.594,2.108,1.732,2.108c0.667,0,1.26-0.412,1.479-1.091c0.061-0.182,0.084-0.388,0.084-0.569V199.46z"/>
	<path fill="#FCFEFF" d="M114.871,195.741v1.405h1.527v0.813h-1.527v3.162c0,0.727,0.206,1.139,0.8,1.139
		c0.291,0,0.46-0.024,0.618-0.073l0.049,0.813c-0.206,0.072-0.533,0.145-0.945,0.145c-0.497,0-0.896-0.169-1.151-0.448
		c-0.291-0.327-0.412-0.848-0.412-1.538v-3.198h-0.909v-0.813h0.909v-1.09L114.871,195.741z"/>
	<path fill="#FCFEFF" d="M117.596,194.409h1.066v3.671h0.024c0.17-0.304,0.437-0.582,0.764-0.764c0.315-0.182,0.69-0.291,1.09-0.291
		c0.788,0,2.047,0.485,2.047,2.496v3.489h-1.066v-3.368c0-0.945-0.352-1.732-1.357-1.732c-0.691,0-1.224,0.484-1.43,1.054
		c-0.061,0.158-0.073,0.315-0.073,0.509v3.538h-1.066V194.409z"/>
	<path fill="#FCFEFF" d="M124.175,201.932c0.327,0.193,0.884,0.412,1.417,0.412c0.763,0,1.126-0.376,1.126-0.873
		c0-0.509-0.303-0.775-1.078-1.065c-1.066-0.388-1.563-0.957-1.563-1.66c0-0.945,0.775-1.721,2.023-1.721
		c0.594,0,1.115,0.158,1.43,0.364l-0.254,0.775c-0.23-0.146-0.654-0.352-1.2-0.352c-0.63,0-0.969,0.363-0.969,0.8
		c0,0.484,0.339,0.702,1.103,1.005c1.006,0.376,1.539,0.885,1.539,1.757c0,1.042-0.812,1.769-2.181,1.769
		c-0.642,0-1.236-0.169-1.648-0.411L124.175,201.932z"/>
</g>
<g>
	<path fill="#FCFEFF" d="M77.098,219.159c-0.23-0.23-0.448-0.473-0.764-0.787c-0.703,0.642-1.478,0.92-2.387,0.92
		c-1.587,0-2.508-1.065-2.508-2.289c0-1.115,0.667-1.878,1.599-2.387v-0.037c-0.424-0.532-0.678-1.139-0.678-1.708
		c0-1.006,0.715-2.023,2.072-2.023c1.018,0,1.805,0.667,1.805,1.732c0,0.86-0.497,1.539-1.793,2.182v0.048
		c0.69,0.8,1.466,1.685,1.987,2.266c0.375-0.569,0.63-1.356,0.788-2.387h0.969c-0.218,1.284-0.569,2.302-1.175,3.017
		c0.436,0.473,0.86,0.934,1.345,1.454H77.098z M75.813,217.753c-0.484-0.533-1.393-1.526-2.302-2.581
		c-0.448,0.291-1.054,0.8-1.054,1.672c0,0.934,0.691,1.648,1.684,1.648C74.833,218.493,75.426,218.177,75.813,217.753z
		 M73.33,212.762c0,0.593,0.279,1.041,0.618,1.478c0.824-0.473,1.357-0.908,1.357-1.611c0-0.497-0.278-1.054-0.957-1.054
		C73.682,211.575,73.33,212.131,73.33,212.762z"/>
	<path fill="#FCFEFF" d="M83.676,219.159l-2.678-8.166h1.151l1.272,4.022c0.339,1.103,0.642,2.096,0.872,3.053h0.024
		c0.23-0.944,0.557-1.975,0.933-3.041l1.381-4.034h1.127l-2.92,8.166H83.676z"/>
	<path fill="#FCFEFF" d="M92.726,217.753c0,0.509,0.024,1.006,0.084,1.405h-0.957l-0.085-0.739h-0.036
		c-0.327,0.461-0.957,0.872-1.793,0.872c-1.188,0-1.793-0.836-1.793-1.684c0-1.418,1.26-2.193,3.526-2.181v-0.121
		c0-0.473-0.133-1.357-1.333-1.345c-0.558,0-1.127,0.157-1.539,0.436l-0.242-0.715c0.485-0.303,1.199-0.509,1.938-0.509
		c1.793,0,2.229,1.224,2.229,2.387V217.753z M91.695,216.167c-1.163-0.024-2.483,0.182-2.483,1.32c0,0.703,0.46,1.018,0.994,1.018
		c0.775,0,1.272-0.484,1.441-0.981c0.037-0.121,0.048-0.242,0.048-0.339V216.167z"/>
	<path fill="#FCFEFF" d="M94.445,210.557h1.066v8.602h-1.066V210.557z"/>
	<path fill="#FCFEFF" d="M102.211,217.547c0,0.618,0.012,1.151,0.049,1.611h-0.945l-0.061-0.957h-0.024
		c-0.267,0.473-0.897,1.09-1.938,1.09c-0.921,0-2.023-0.521-2.023-2.568v-3.429h1.066v3.235c0,1.114,0.352,1.878,1.309,1.878
		c0.715,0,1.211-0.497,1.405-0.981c0.061-0.146,0.097-0.339,0.097-0.545v-3.587h1.066V217.547z"/>
	<path fill="#FCFEFF" d="M104.573,216.42c0.024,1.442,0.933,2.035,2.011,2.035c0.763,0,1.236-0.133,1.624-0.303l0.194,0.764
		c-0.375,0.17-1.03,0.375-1.963,0.375c-1.805,0-2.883-1.199-2.883-2.968s1.042-3.15,2.75-3.15c1.927,0,2.423,1.672,2.423,2.751
		c0,0.218-0.012,0.375-0.037,0.496H104.573z M107.699,215.658c0.012-0.667-0.279-1.721-1.478-1.721c-1.09,0-1.551,0.981-1.636,1.721
		H107.699z"/>
</g>
<g>
	<path fill="#FCFEFF" d="M323.825,210.812c-0.376,0.194-1.163,0.388-2.157,0.388c-2.302,0-4.021-1.453-4.021-4.143
		c0-2.569,1.732-4.289,4.265-4.289c1.005,0,1.659,0.218,1.938,0.363l-0.267,0.86c-0.388-0.194-0.957-0.34-1.636-0.34
		c-1.914,0-3.187,1.224-3.187,3.368c0,2.012,1.151,3.283,3.126,3.283c0.654,0,1.309-0.133,1.732-0.339L323.825,210.812z"/>
	<path fill="#FCFEFF" d="M330.428,208.086c0,2.169-1.515,3.113-2.92,3.113c-1.575,0-2.812-1.163-2.812-3.017
		c0-1.95,1.297-3.102,2.908-3.102C329.288,205.082,330.428,206.305,330.428,208.086z M325.787,208.147
		c0,1.284,0.727,2.254,1.769,2.254c1.018,0,1.781-0.957,1.781-2.278c0-0.993-0.497-2.241-1.757-2.241
		C326.332,205.881,325.787,207.044,325.787,208.147z"/>
	<path fill="#FCFEFF" d="M331.771,206.791c0-0.618-0.024-1.103-0.049-1.588h0.933l0.049,0.957h0.036
		c0.327-0.557,0.872-1.078,1.854-1.078c0.788,0,1.394,0.485,1.648,1.176h0.023c0.182-0.34,0.425-0.582,0.667-0.764
		c0.351-0.267,0.727-0.412,1.284-0.412c0.787,0,1.938,0.509,1.938,2.545v3.44h-1.042v-3.308c0-1.139-0.424-1.805-1.272-1.805
		c-0.618,0-1.078,0.448-1.271,0.957c-0.049,0.157-0.085,0.339-0.085,0.533v3.622h-1.042v-3.514c0-0.933-0.412-1.599-1.224-1.599
		c-0.654,0-1.151,0.532-1.321,1.065c-0.061,0.146-0.084,0.34-0.084,0.521v3.525h-1.042V206.791z"/>
	<path fill="#FCFEFF" d="M341.876,207.118c0-0.752-0.024-1.357-0.049-1.915h0.945l0.061,1.006h0.024
		c0.424-0.715,1.126-1.127,2.083-1.127c1.43,0,2.496,1.2,2.496,2.969c0,2.108-1.296,3.149-2.678,3.149
		c-0.775,0-1.453-0.339-1.805-0.92h-0.024v3.186h-1.054V207.118z M342.93,208.68c0,0.157,0.012,0.303,0.049,0.437
		c0.193,0.738,0.836,1.247,1.599,1.247c1.127,0,1.781-0.92,1.781-2.266c0-1.163-0.618-2.168-1.745-2.168
		c-0.727,0-1.417,0.509-1.611,1.309c-0.036,0.133-0.072,0.29-0.072,0.424V208.68z"/>
	<path fill="#FCFEFF" d="M349.362,208.329c0.023,1.442,0.933,2.035,2.011,2.035c0.764,0,1.235-0.133,1.623-0.303l0.194,0.764
		c-0.376,0.17-1.03,0.375-1.963,0.375c-1.805,0-2.884-1.199-2.884-2.968s1.042-3.15,2.751-3.15c1.926,0,2.423,1.672,2.423,2.751
		c0,0.218-0.012,0.375-0.036,0.496H349.362z M352.487,207.566c0.013-0.667-0.278-1.721-1.478-1.721
		c-1.091,0-1.551,0.981-1.636,1.721H352.487z"/>
	<path fill="#FCFEFF" d="M356.122,203.797v1.405h1.526v0.813h-1.526v3.162c0,0.727,0.206,1.139,0.8,1.139
		c0.29,0,0.46-0.024,0.617-0.073l0.049,0.813c-0.206,0.072-0.533,0.145-0.945,0.145c-0.496,0-0.896-0.169-1.15-0.448
		c-0.291-0.327-0.412-0.848-0.412-1.538v-3.198h-0.909v-0.813h0.909v-1.09L356.122,203.797z"/>
	<path fill="#FCFEFF" d="M360.034,203.555c0,0.363-0.254,0.654-0.678,0.654c-0.388,0-0.643-0.291-0.643-0.654
		s0.267-0.666,0.667-0.666C359.769,202.889,360.034,203.18,360.034,203.555z M358.848,211.067v-5.864h1.065v5.864H358.848z"/>
	<path fill="#FCFEFF" d="M362.967,203.797v1.405h1.526v0.813h-1.526v3.162c0,0.727,0.206,1.139,0.8,1.139
		c0.29,0,0.46-0.024,0.617-0.073l0.049,0.813c-0.206,0.072-0.533,0.145-0.945,0.145c-0.496,0-0.896-0.169-1.15-0.448
		c-0.291-0.327-0.412-0.848-0.412-1.538v-3.198h-0.909v-0.813h0.909v-1.09L362.967,203.797z"/>
	<path fill="#FCFEFF" d="M366.879,203.555c0,0.363-0.254,0.654-0.678,0.654c-0.388,0-0.643-0.291-0.643-0.654
		s0.267-0.666,0.667-0.666C366.613,202.889,366.879,203.18,366.879,203.555z M365.692,211.067v-5.864h1.065v5.864H365.692z"/>
	<path fill="#FCFEFF" d="M373.834,208.086c0,2.169-1.515,3.113-2.92,3.113c-1.575,0-2.812-1.163-2.812-3.017
		c0-1.95,1.297-3.102,2.908-3.102C372.694,205.082,373.834,206.305,373.834,208.086z M369.193,208.147
		c0,1.284,0.727,2.254,1.769,2.254c1.018,0,1.781-0.957,1.781-2.278c0-0.993-0.497-2.241-1.757-2.241
		C369.738,205.881,369.193,207.044,369.193,208.147z"/>
	<path fill="#FCFEFF" d="M375.178,206.791c0-0.618-0.013-1.103-0.049-1.588h0.945l0.061,0.97h0.024
		c0.29-0.545,0.969-1.091,1.938-1.091c0.812,0,2.071,0.485,2.071,2.496v3.489h-1.066v-3.38c0-0.945-0.351-1.732-1.356-1.732
		c-0.69,0-1.236,0.496-1.43,1.09c-0.049,0.134-0.073,0.315-0.073,0.497v3.525h-1.065V206.791z"/>
</g>
</svg>
