<?xml version="1.0" encoding="utf-8"?>
<!-- Generator: Adobe Illustrator 15.1.0, SVG Export Plug-In . SVG Version: 6.00 Build 0)  -->
<!DOCTYPE svg PUBLIC "-//W3C//DTD SVG 1.1//EN" "http://www.w3.org/Graphics/SVG/1.1/DTD/svg11.dtd">
<svg version="1.1" id="Layer_1" xmlns="http://www.w3.org/2000/svg" xmlns:xlink="http://www.w3.org/1999/xlink" x="0px" y="0px"
	 width="405.534px" height="235.994px" viewBox="0 0 405.534 235.994" enable-background="new 0 0 405.534 235.994"
	 xml:space="preserve">
<g>
	<path fill="#808285" d="M15.834-54.694h-1.639v-0.592h3.99v0.592h-1.647v4.797h-0.704V-54.694z"/>
	<path fill="#808285" d="M18.843-52.56c0-0.456-0.008-0.848-0.032-1.208h0.616L19.458-53h0.024c0.176-0.52,0.608-0.847,1.08-0.847
		c0.072,0,0.128,0.008,0.192,0.016v0.664c-0.072-0.016-0.144-0.016-0.24-0.016c-0.496,0-0.848,0.368-0.944,0.896
		c-0.016,0.096-0.024,0.216-0.024,0.328v2.063h-0.704V-52.56z"/>
	<path fill="#808285" d="M22.314-54.854c0,0.24-0.168,0.432-0.448,0.432c-0.256,0-0.424-0.192-0.424-0.432
		c0-0.24,0.176-0.44,0.44-0.44C22.139-55.294,22.314-55.102,22.314-54.854z M21.531-49.897v-3.87h0.704v3.87H21.531z"/>
	<path fill="#808285" d="M26.201-50.825c0,0.336,0.016,0.664,0.056,0.928h-0.631l-0.056-0.488h-0.024
		c-0.216,0.304-0.631,0.576-1.183,0.576c-0.784,0-1.184-0.552-1.184-1.111c0-0.936,0.832-1.447,2.327-1.439v-0.08
		c0-0.312-0.088-0.896-0.879-0.888c-0.368,0-0.744,0.104-1.016,0.288l-0.16-0.472c0.32-0.2,0.792-0.335,1.279-0.335
		c1.183,0,1.471,0.808,1.471,1.575V-50.825z M25.521-51.872c-0.768-0.016-1.639,0.12-1.639,0.872c0,0.464,0.304,0.672,0.656,0.672
		c0.512,0,0.839-0.32,0.951-0.648c0.024-0.08,0.032-0.16,0.032-0.224V-51.872z"/>
	<path fill="#808285" d="M27.418-52.719c0-0.408-0.008-0.728-0.032-1.048h0.624l0.04,0.64h0.016c0.192-0.359,0.64-0.719,1.279-0.719
		c0.536,0,1.367,0.32,1.367,1.647v2.303h-0.704v-2.231c0-0.624-0.232-1.143-0.896-1.143c-0.456,0-0.815,0.328-0.943,0.72
		c-0.032,0.088-0.048,0.208-0.048,0.328v2.327h-0.704V-52.719z"/>
	<path fill="#808285" d="M35.249-50.465c0,0.896-0.184,1.431-0.552,1.775c-0.384,0.344-0.928,0.463-1.416,0.463
		c-0.463,0-0.975-0.112-1.287-0.32l0.176-0.543c0.256,0.168,0.656,0.312,1.135,0.312c0.72,0,1.248-0.375,1.248-1.359v-0.424h-0.016
		c-0.208,0.36-0.631,0.647-1.231,0.647c-0.959,0-1.647-0.815-1.647-1.887c0-1.312,0.855-2.047,1.751-2.047
		c0.672,0,1.032,0.344,1.208,0.664h0.016l0.024-0.584h0.624c-0.024,0.272-0.032,0.592-0.032,1.056V-50.465z M34.545-52.24
		c0-0.12-0.008-0.224-0.04-0.312c-0.128-0.416-0.464-0.752-0.983-0.752c-0.672,0-1.151,0.568-1.151,1.463
		c0,0.759,0.392,1.391,1.143,1.391c0.44,0,0.832-0.272,0.976-0.72c0.04-0.12,0.056-0.256,0.056-0.375V-52.24z"/>
	<path fill="#808285" d="M39.729-50.96c0,0.408,0.008,0.76,0.032,1.063h-0.624l-0.04-0.632h-0.016
		c-0.176,0.312-0.592,0.72-1.279,0.72c-0.608,0-1.335-0.344-1.335-1.695v-2.263h0.704v2.135c0,0.735,0.232,1.239,0.864,1.239
		c0.472,0,0.799-0.328,0.927-0.648c0.04-0.096,0.064-0.224,0.064-0.359v-2.367h0.704V-50.96z"/>
	<path fill="#808285" d="M40.978-55.574h0.704v5.677h-0.704V-55.574z"/>
	<path fill="#808285" d="M45.665-50.825c0,0.336,0.016,0.664,0.056,0.928h-0.631l-0.056-0.488h-0.024
		c-0.216,0.304-0.631,0.576-1.183,0.576c-0.784,0-1.184-0.552-1.184-1.111c0-0.936,0.832-1.447,2.327-1.439v-0.08
		c0-0.312-0.088-0.896-0.879-0.888c-0.368,0-0.744,0.104-1.016,0.288l-0.16-0.472c0.32-0.2,0.792-0.335,1.279-0.335
		c1.183,0,1.471,0.808,1.471,1.575V-50.825z M44.985-51.872c-0.768-0.016-1.639,0.12-1.639,0.872c0,0.464,0.304,0.672,0.656,0.672
		c0.512,0,0.839-0.32,0.951-0.648c0.024-0.08,0.032-0.16,0.032-0.224V-51.872z"/>
	<path fill="#808285" d="M47.73-54.694v0.927h1.007v0.536H47.73v2.087c0,0.479,0.136,0.751,0.528,0.751
		c0.192,0,0.304-0.016,0.408-0.048l0.032,0.536c-0.136,0.048-0.352,0.096-0.624,0.096c-0.328,0-0.591-0.112-0.759-0.296
		c-0.192-0.216-0.272-0.56-0.272-1.015v-2.111h-0.6v-0.536h0.6v-0.719L47.73-54.694z"/>
	<path fill="#808285" d="M50.394-54.854c0,0.24-0.168,0.432-0.448,0.432c-0.256,0-0.424-0.192-0.424-0.432
		c0-0.24,0.176-0.44,0.44-0.44C50.218-55.294,50.394-55.102,50.394-54.854z M49.61-49.897v-3.87h0.704v3.87H49.61z"/>
	<path fill="#808285" d="M55.064-51.864c0,1.431-1,2.055-1.927,2.055c-1.04,0-1.855-0.768-1.855-1.991
		c0-1.288,0.855-2.047,1.919-2.047C54.313-53.847,55.064-53.039,55.064-51.864z M52.002-51.824c0,0.847,0.479,1.487,1.167,1.487
		c0.671,0,1.175-0.631,1.175-1.503c0-0.656-0.328-1.479-1.159-1.479C52.362-53.319,52.002-52.551,52.002-51.824z"/>
	<path fill="#808285" d="M56.034-52.719c0-0.408-0.008-0.728-0.032-1.048h0.624l0.04,0.64h0.016c0.192-0.359,0.64-0.719,1.279-0.719
		c0.536,0,1.367,0.32,1.367,1.647v2.303h-0.704v-2.231c0-0.624-0.232-1.143-0.896-1.143c-0.456,0-0.815,0.328-0.943,0.72
		c-0.032,0.088-0.048,0.208-0.048,0.328v2.327h-0.704V-52.719z"/>
	<path fill="#808285" d="M66.896-52.264c-0.04-0.751-0.088-1.663-0.088-2.327h-0.016c-0.192,0.624-0.408,1.303-0.68,2.047
		l-0.952,2.614h-0.528l-0.879-2.566c-0.256-0.768-0.464-1.455-0.616-2.095h-0.016c-0.016,0.671-0.056,1.567-0.104,2.383
		l-0.144,2.311H62.21l0.375-5.389h0.888l0.919,2.607c0.224,0.664,0.4,1.255,0.544,1.815h0.016c0.144-0.544,0.336-1.136,0.576-1.815
		l0.959-2.607h0.888l0.336,5.389h-0.688L66.896-52.264z"/>
	<path fill="#808285" d="M72.344-51.864c0,1.431-1,2.055-1.927,2.055c-1.039,0-1.855-0.768-1.855-1.991
		c0-1.288,0.855-2.047,1.919-2.047C71.592-53.847,72.344-53.039,72.344-51.864z M69.282-51.824c0,0.847,0.48,1.487,1.167,1.487
		c0.671,0,1.175-0.631,1.175-1.503c0-0.656-0.328-1.479-1.16-1.479C69.642-53.319,69.282-52.551,69.282-51.824z"/>
	<path fill="#808285" d="M76.648-55.574v4.677c0,0.344,0.016,0.736,0.032,1h-0.624l-0.032-0.672H76
		c-0.208,0.432-0.671,0.76-1.303,0.76c-0.936,0-1.663-0.792-1.663-1.967c-0.008-1.287,0.8-2.071,1.735-2.071
		c0.6,0,0.991,0.28,1.167,0.583h0.016v-2.311H76.648z M75.953-52.192c0-0.088-0.008-0.208-0.032-0.296
		c-0.104-0.439-0.488-0.807-1.016-0.807c-0.728,0-1.159,0.64-1.159,1.487c0,0.784,0.392,1.432,1.143,1.432
		c0.472,0,0.904-0.32,1.032-0.84c0.024-0.096,0.032-0.192,0.032-0.304V-52.192z"/>
	<path fill="#808285" d="M78.298-51.704c0.016,0.952,0.616,1.343,1.327,1.343c0.504,0,0.815-0.088,1.071-0.2l0.128,0.503
		c-0.248,0.112-0.68,0.248-1.295,0.248c-1.191,0-1.903-0.792-1.903-1.959c0-1.167,0.688-2.079,1.815-2.079
		c1.271,0,1.599,1.103,1.599,1.815c0,0.144-0.008,0.248-0.024,0.328H78.298z M80.36-52.208c0.008-0.44-0.184-1.136-0.975-1.136
		c-0.72,0-1.023,0.648-1.08,1.136H80.36z"/>
	<path fill="#808285" d="M81.994-55.574h0.704v5.677h-0.704V-55.574z"/>
</g>
<line fill="none" stroke="#F79421" stroke-width="3" stroke-miterlimit="10" x1="174.152" y1="197.328" x2="231.595" y2="197.328"/>
<polygon fill="#F79421" points="175.902,203.278 165.541,197.293 175.902,191.312 "/>
<polygon fill="#F79421" points="229.845,203.278 240.205,197.293 229.845,191.312 "/>
<line fill="none" stroke="#F79421" stroke-width="3" stroke-miterlimit="10" x1="111.282" y1="140.27" x2="149.131" y2="97.058"/>
<polygon fill="#F79421" points="116.913,142.873 105.584,146.726 107.911,134.988 "/>
<polygon fill="#F79421" points="152.454,102.294 154.781,90.558 143.453,94.411 "/>
<line fill="none" stroke="#F79421" stroke-width="3" stroke-miterlimit="10" x1="293.132" y1="140.27" x2="255.283" y2="97.058"/>
<polygon fill="#F79421" points="296.454,135.033 298.78,146.771 287.452,142.917 "/>
<polygon fill="#F79421" points="260.912,94.455 249.584,90.6 251.911,102.339 "/>
<g>
	<defs>
		<rect id="SVGID_1_" x="-100.799" y="-238.585" width="575.998" height="863.998"/>
	</defs>
	<clipPath id="SVGID_2_">
		<use xlink:href="#SVGID_1_"  overflow="visible"/>
	</clipPath>
	<path clip-path="url(#SVGID_2_)" fill="#F79421" d="M278.881,68.533c0,2.65-2.148,4.8-4.8,4.8H131.682c-2.652,0-4.8-2.15-4.8-4.8
		V4.8c0-2.651,2.148-4.8,4.8-4.8h142.399c2.651,0,4.8,2.149,4.8,4.8V68.533z"/>
	<path clip-path="url(#SVGID_2_)" fill="#B8BABC" d="M152,231.195c0,2.65-2.148,4.799-4.8,4.799H4.8c-2.652,0-4.8-2.148-4.8-4.799
		v-63.733c0-2.652,2.148-4.802,4.8-4.802H147.2c2.652,0,4.8,2.149,4.8,4.802V231.195z"/>
	<path clip-path="url(#SVGID_2_)" fill="#58595B" d="M405.534,231.195c0,2.65-2.148,4.799-4.8,4.799h-142.4
		c-2.651,0-4.8-2.148-4.8-4.799v-63.733c0-2.652,2.148-4.802,4.8-4.802h142.4c2.651,0,4.8,2.149,4.8,4.802V231.195z"/>
</g>
<g>
	<path fill="#F9FDFE" d="M167.791,30.007v-8.083h1.151l2.579,4.09c0.587,0.947,1.067,1.799,1.439,2.626l0.036-0.012
		c-0.096-1.079-0.12-2.063-0.12-3.322v-3.382h0.983v8.083h-1.055l-2.566-4.102c-0.564-0.9-1.104-1.823-1.5-2.699l-0.036,0.012
		c0.06,1.019,0.072,1.991,0.072,3.334v3.454H167.791z"/>
	<path fill="#F9FDFE" d="M176.238,27.297c0.024,1.427,0.923,2.015,1.991,2.015c0.755,0,1.223-0.132,1.607-0.3l0.192,0.756
		c-0.372,0.168-1.019,0.372-1.943,0.372c-1.787,0-2.854-1.188-2.854-2.938s1.032-3.118,2.723-3.118c1.907,0,2.399,1.655,2.399,2.723
		c0,0.216-0.012,0.372-0.036,0.492H176.238z M179.333,26.541c0.012-0.66-0.276-1.703-1.463-1.703c-1.079,0-1.535,0.971-1.619,1.703
		H179.333z"/>
	<path fill="#F9FDFE" d="M182.25,27.297c0.024,1.427,0.923,2.015,1.991,2.015c0.755,0,1.223-0.132,1.607-0.3l0.192,0.756
		c-0.372,0.168-1.019,0.372-1.943,0.372c-1.787,0-2.854-1.188-2.854-2.938s1.032-3.118,2.723-3.118c1.907,0,2.399,1.655,2.399,2.723
		c0,0.216-0.012,0.372-0.036,0.492H182.25z M185.344,26.541c0.012-0.66-0.276-1.703-1.463-1.703c-1.079,0-1.535,0.971-1.619,1.703
		H185.344z"/>
	<path fill="#F9FDFE" d="M192.675,21.492v7.016c0,0.516,0.024,1.103,0.048,1.499h-0.935L191.739,29h-0.035
		c-0.313,0.647-1.008,1.139-1.955,1.139c-1.403,0-2.495-1.188-2.495-2.95c-0.012-1.931,1.199-3.106,2.603-3.106
		c0.899,0,1.487,0.42,1.751,0.875h0.024v-3.466H192.675z M191.632,26.565c0-0.132-0.012-0.312-0.048-0.444
		c-0.156-0.66-0.731-1.211-1.523-1.211c-1.092,0-1.739,0.959-1.739,2.231c0,1.175,0.588,2.146,1.715,2.146
		c0.708,0,1.355-0.479,1.548-1.259c0.036-0.144,0.048-0.288,0.048-0.456V26.565z"/>
	<path fill="#F9FDFE" d="M194.202,25.162c0-0.444,0.3-0.756,0.707-0.756c0.433,0,0.708,0.312,0.708,0.756
		c0,0.419-0.275,0.744-0.72,0.744C194.49,25.906,194.202,25.582,194.202,25.162z M194.202,29.396c0-0.444,0.3-0.755,0.707-0.755
		c0.433,0,0.708,0.312,0.708,0.755c0,0.42-0.275,0.744-0.72,0.744C194.49,30.139,194.202,29.815,194.202,29.396z"/>
	<path fill="#F9FDFE" d="M199.505,30.007v-8.083h1.151l2.579,4.09c0.588,0.947,1.067,1.799,1.439,2.626l0.035-0.012
		c-0.096-1.079-0.119-2.063-0.119-3.322v-3.382h0.983v8.083h-1.056l-2.566-4.102c-0.563-0.9-1.104-1.823-1.499-2.699l-0.036,0.012
		c0.06,1.019,0.071,1.991,0.071,3.334v3.454H199.505z"/>
	<path fill="#F9FDFE" d="M207.953,27.297c0.024,1.427,0.924,2.015,1.991,2.015c0.756,0,1.224-0.132,1.607-0.3l0.191,0.756
		c-0.372,0.168-1.02,0.372-1.942,0.372c-1.787,0-2.854-1.188-2.854-2.938s1.031-3.118,2.723-3.118c1.906,0,2.398,1.655,2.398,2.723
		c0,0.216-0.012,0.372-0.036,0.492H207.953z M211.048,26.541c0.012-0.66-0.276-1.703-1.463-1.703c-1.08,0-1.535,0.971-1.619,1.703
		H211.048z"/>
	<path fill="#F9FDFE" d="M213.797,24.203l0.78,2.95c0.155,0.647,0.312,1.248,0.42,1.847h0.035c0.132-0.588,0.324-1.211,0.516-1.835
		l0.948-2.962h0.887l0.9,2.902c0.216,0.695,0.384,1.307,0.516,1.895h0.036c0.096-0.588,0.251-1.2,0.443-1.883l0.827-2.914h1.044
		l-1.871,5.805h-0.96l-0.887-2.771c-0.204-0.647-0.372-1.223-0.517-1.907h-0.023c-0.144,0.695-0.324,1.295-0.527,1.919l-0.936,2.758
		h-0.96l-1.751-5.805H213.797z"/>
</g>
<g>
	<path fill="#F9FDFE" d="M138.198,37.92h1.056v7.208h3.454v0.875h-4.51V37.92z"/>
	<path fill="#F9FDFE" d="M144.426,43.293c0.024,1.427,0.923,2.015,1.991,2.015c0.755,0,1.223-0.132,1.607-0.3l0.192,0.756
		c-0.372,0.168-1.019,0.372-1.943,0.372c-1.787,0-2.854-1.188-2.854-2.938s1.032-3.118,2.723-3.118c1.907,0,2.399,1.655,2.399,2.723
		c0,0.216-0.012,0.372-0.036,0.492H144.426z M147.52,42.537c0.012-0.66-0.276-1.703-1.463-1.703c-1.079,0-1.535,0.971-1.619,1.703
		H147.52z"/>
	<path fill="#F9FDFE" d="M153.928,44.612c0,0.503,0.024,0.995,0.084,1.391h-0.947l-0.084-0.731h-0.036
		c-0.324,0.456-0.947,0.863-1.775,0.863c-1.175,0-1.775-0.828-1.775-1.667c0-1.403,1.247-2.171,3.49-2.159v-0.12
		c0-0.468-0.132-1.343-1.319-1.331c-0.552,0-1.116,0.156-1.523,0.432l-0.24-0.708c0.479-0.3,1.187-0.504,1.919-0.504
		c1.775,0,2.207,1.211,2.207,2.363V44.612z M152.908,43.041c-1.151-0.024-2.458,0.18-2.458,1.307c0,0.696,0.456,1.008,0.983,1.008
		c0.768,0,1.259-0.48,1.427-0.972c0.036-0.12,0.048-0.24,0.048-0.336V43.041z"/>
	<path fill="#F9FDFE" d="M160.635,37.488v7.016c0,0.516,0.024,1.103,0.048,1.499h-0.936l-0.048-1.007h-0.036
		c-0.312,0.647-1.007,1.139-1.955,1.139c-1.403,0-2.495-1.188-2.495-2.95c-0.012-1.931,1.2-3.106,2.603-3.106
		c0.9,0,1.487,0.42,1.751,0.875h0.024v-3.466H160.635z M159.592,42.562c0-0.132-0.012-0.312-0.048-0.444
		c-0.156-0.66-0.731-1.211-1.523-1.211c-1.091,0-1.739,0.959-1.739,2.231c0,1.175,0.588,2.146,1.715,2.146
		c0.708,0,1.355-0.479,1.547-1.259c0.036-0.144,0.048-0.288,0.048-0.456V42.562z"/>
	<path fill="#F9FDFE" d="M162.99,43.293c0.024,1.427,0.923,2.015,1.991,2.015c0.755,0,1.223-0.132,1.607-0.3l0.192,0.756
		c-0.372,0.168-1.019,0.372-1.943,0.372c-1.787,0-2.854-1.188-2.854-2.938s1.032-3.118,2.723-3.118c1.907,0,2.399,1.655,2.399,2.723
		c0,0.216-0.012,0.372-0.036,0.492H162.99z M166.084,42.537c0.012-0.66-0.276-1.703-1.463-1.703c-1.08,0-1.535,0.971-1.619,1.703
		H166.084z"/>
	<path fill="#F9FDFE" d="M168.414,42.01c0-0.684-0.012-1.271-0.048-1.811h0.923l0.048,1.151h0.036
		c0.264-0.78,0.912-1.271,1.619-1.271c0.108,0,0.192,0.012,0.288,0.024v0.996c-0.108-0.024-0.216-0.024-0.36-0.024
		c-0.744,0-1.271,0.552-1.416,1.343c-0.024,0.144-0.036,0.324-0.036,0.492v3.094h-1.056V42.01z"/>
	<path fill="#F9FDFE" d="M172.193,44.936c0.324,0.192,0.875,0.408,1.403,0.408c0.756,0,1.115-0.372,1.115-0.863
		c0-0.504-0.3-0.768-1.067-1.056c-1.055-0.384-1.547-0.947-1.547-1.643c0-0.936,0.768-1.703,2.003-1.703
		c0.587,0,1.104,0.156,1.415,0.36l-0.252,0.768c-0.228-0.144-0.647-0.348-1.187-0.348c-0.624,0-0.959,0.36-0.959,0.792
		c0,0.479,0.335,0.695,1.091,0.995c0.996,0.372,1.523,0.876,1.523,1.739c0,1.031-0.803,1.751-2.159,1.751
		c-0.636,0-1.223-0.168-1.631-0.408L172.193,44.936z"/>
	<path fill="#F9FDFE" d="M177.089,37.488h1.056v3.634h0.024c0.168-0.3,0.432-0.576,0.755-0.755c0.312-0.18,0.684-0.288,1.08-0.288
		c0.779,0,2.027,0.48,2.027,2.471v3.454h-1.056v-3.334c0-0.936-0.348-1.715-1.343-1.715c-0.684,0-1.211,0.48-1.415,1.043
		c-0.06,0.156-0.072,0.312-0.072,0.504v3.502h-1.056V37.488z"/>
	<path fill="#F9FDFE" d="M184.925,38.567c0,0.36-0.252,0.648-0.671,0.648c-0.384,0-0.636-0.288-0.636-0.648s0.264-0.66,0.66-0.66
		C184.661,37.908,184.925,38.196,184.925,38.567z M183.75,46.003v-5.805h1.056v5.805H183.75z"/>
	<path fill="#F9FDFE" d="M186.557,42.094c0-0.744-0.024-1.343-0.048-1.895h0.935l0.061,0.995h0.023
		c0.42-0.708,1.115-1.115,2.063-1.115c1.415,0,2.471,1.188,2.471,2.938c0,2.087-1.283,3.118-2.651,3.118
		c-0.768,0-1.438-0.336-1.786-0.912h-0.024v3.154h-1.043V42.094z M187.601,43.641c0,0.156,0.012,0.3,0.048,0.432
		c0.192,0.732,0.828,1.235,1.583,1.235c1.115,0,1.764-0.911,1.764-2.243c0-1.151-0.612-2.146-1.728-2.146
		c-0.72,0-1.403,0.503-1.595,1.295c-0.036,0.132-0.072,0.288-0.072,0.42V43.641z"/>
	<path fill="#F9FDFE" d="M201.026,46.003c-0.228-0.228-0.443-0.468-0.756-0.78c-0.695,0.636-1.463,0.912-2.362,0.912
		c-1.571,0-2.482-1.055-2.482-2.267c0-1.104,0.659-1.859,1.583-2.363V41.47c-0.42-0.527-0.672-1.127-0.672-1.691
		c0-0.996,0.708-2.003,2.051-2.003c1.008,0,1.787,0.66,1.787,1.715c0,0.851-0.491,1.523-1.775,2.159v0.048
		c0.684,0.792,1.451,1.667,1.968,2.243c0.371-0.563,0.623-1.343,0.779-2.363h0.959c-0.216,1.271-0.563,2.279-1.163,2.986
		c0.432,0.468,0.852,0.924,1.331,1.439H201.026z M199.755,44.612c-0.479-0.528-1.379-1.511-2.278-2.555
		c-0.444,0.288-1.044,0.792-1.044,1.655c0,0.923,0.684,1.631,1.667,1.631C198.783,45.344,199.371,45.032,199.755,44.612z
		 M197.297,39.671c0,0.588,0.275,1.031,0.611,1.463c0.815-0.468,1.343-0.9,1.343-1.595c0-0.492-0.275-1.043-0.947-1.043
		C197.645,38.496,197.297,39.047,197.297,39.671z"/>
	<path fill="#F9FDFE" d="M205.769,38.016c0.504-0.084,1.164-0.156,2.003-0.156c1.032,0,1.787,0.24,2.267,0.672
		c0.433,0.384,0.708,0.971,0.708,1.691c0,0.731-0.216,1.307-0.624,1.727c-0.563,0.587-1.451,0.888-2.47,0.888
		c-0.313,0-0.601-0.012-0.84-0.072v3.238h-1.044V38.016z M206.813,41.914c0.228,0.06,0.516,0.084,0.863,0.084
		c1.26,0,2.027-0.624,2.027-1.715c0-1.08-0.768-1.595-1.907-1.595c-0.456,0-0.804,0.036-0.983,0.084V41.914z"/>
	<path fill="#F9FDFE" d="M216.194,44.612c0,0.503,0.024,0.995,0.084,1.391h-0.947l-0.084-0.731h-0.036
		c-0.323,0.456-0.947,0.863-1.775,0.863c-1.175,0-1.774-0.828-1.774-1.667c0-1.403,1.247-2.171,3.49-2.159v-0.12
		c0-0.468-0.132-1.343-1.319-1.331c-0.552,0-1.115,0.156-1.523,0.432l-0.24-0.708c0.48-0.3,1.188-0.504,1.919-0.504
		c1.775,0,2.207,1.211,2.207,2.363V44.612z M215.175,43.041c-1.151-0.024-2.458,0.18-2.458,1.307c0,0.696,0.455,1.008,0.983,1.008
		c0.768,0,1.259-0.48,1.427-0.972c0.036-0.12,0.048-0.24,0.048-0.336V43.041z"/>
	<path fill="#F9FDFE" d="M217.757,44.936c0.324,0.192,0.876,0.408,1.403,0.408c0.756,0,1.115-0.372,1.115-0.863
		c0-0.504-0.3-0.768-1.067-1.056c-1.056-0.384-1.547-0.947-1.547-1.643c0-0.936,0.768-1.703,2.003-1.703
		c0.588,0,1.104,0.156,1.415,0.36l-0.252,0.768c-0.228-0.144-0.647-0.348-1.188-0.348c-0.623,0-0.959,0.36-0.959,0.792
		c0,0.479,0.336,0.695,1.091,0.995c0.996,0.372,1.523,0.876,1.523,1.739c0,1.031-0.804,1.751-2.159,1.751
		c-0.635,0-1.223-0.168-1.631-0.408L217.757,44.936z"/>
	<path fill="#F9FDFE" d="M222.509,44.936c0.324,0.192,0.876,0.408,1.403,0.408c0.756,0,1.115-0.372,1.115-0.863
		c0-0.504-0.3-0.768-1.067-1.056c-1.056-0.384-1.547-0.947-1.547-1.643c0-0.936,0.768-1.703,2.003-1.703
		c0.588,0,1.104,0.156,1.415,0.36l-0.252,0.768c-0.228-0.144-0.647-0.348-1.188-0.348c-0.623,0-0.959,0.36-0.959,0.792
		c0,0.479,0.336,0.695,1.091,0.995c0.996,0.372,1.523,0.876,1.523,1.739c0,1.031-0.804,1.751-2.159,1.751
		c-0.635,0-1.223-0.168-1.631-0.408L222.509,44.936z"/>
	<path fill="#F9FDFE" d="M228.58,38.567c0,0.36-0.252,0.648-0.672,0.648c-0.384,0-0.636-0.288-0.636-0.648s0.265-0.66,0.66-0.66
		C228.316,37.908,228.58,38.196,228.58,38.567z M227.405,46.003v-5.805h1.055v5.805H227.405z"/>
	<path fill="#F9FDFE" d="M235.466,43.053c0,2.146-1.499,3.082-2.891,3.082c-1.56,0-2.782-1.151-2.782-2.986
		c0-1.931,1.283-3.07,2.878-3.07C234.338,40.079,235.466,41.29,235.466,43.053z M230.872,43.113c0,1.271,0.72,2.231,1.751,2.231
		c1.008,0,1.763-0.947,1.763-2.255c0-0.983-0.491-2.219-1.738-2.219C231.412,40.87,230.872,42.021,230.872,43.113z"/>
	<path fill="#F9FDFE" d="M236.801,41.77c0-0.611-0.013-1.091-0.049-1.571h0.936l0.061,0.959h0.023c0.288-0.54,0.96-1.08,1.919-1.08
		c0.804,0,2.051,0.48,2.051,2.471v3.454h-1.055v-3.346c0-0.936-0.348-1.715-1.344-1.715c-0.684,0-1.224,0.492-1.415,1.079
		c-0.048,0.132-0.072,0.312-0.072,0.492v3.49h-1.055V41.77z"/>
</g>
<g>
	<path fill="#F9FDFE" d="M23.634,180.132v3.382h3.91v-3.382h1.056v8.083h-1.056v-3.79h-3.91v3.79h-1.056v-8.083H23.634z"/>
	<path fill="#F9FDFE" d="M31.553,180.779c0,0.36-0.252,0.648-0.671,0.648c-0.384,0-0.636-0.288-0.636-0.648s0.264-0.66,0.66-0.66
		C31.29,180.12,31.553,180.408,31.553,180.779z M30.378,188.215v-5.805h1.056v5.805H30.378z"/>
	<path fill="#F9FDFE" d="M33.186,179.7h1.056v8.515h-1.056V179.7z"/>
	<path fill="#F9FDFE" d="M36.018,179.7h1.056v8.515h-1.056V179.7z"/>
	<path fill="#F9FDFE" d="M42.927,186.824c0,0.503,0.024,0.995,0.084,1.391h-0.947l-0.084-0.731h-0.036
		c-0.324,0.456-0.947,0.863-1.775,0.863c-1.175,0-1.775-0.828-1.775-1.667c0-1.403,1.247-2.171,3.49-2.159v-0.12
		c0-0.468-0.132-1.343-1.319-1.331c-0.551,0-1.115,0.156-1.523,0.432l-0.24-0.708c0.479-0.3,1.188-0.504,1.919-0.504
		c1.775,0,2.207,1.211,2.207,2.363V186.824z M41.908,185.253c-1.151-0.024-2.459,0.18-2.459,1.307c0,0.696,0.456,1.008,0.983,1.008
		c0.768,0,1.259-0.48,1.427-0.972c0.036-0.12,0.048-0.24,0.048-0.336V185.253z"/>
	<path fill="#F9FDFE" d="M44.634,184.222c0-0.684-0.012-1.271-0.048-1.811h0.923l0.048,1.151h0.036
		c0.264-0.78,0.912-1.271,1.619-1.271c0.108,0,0.192,0.012,0.288,0.024v0.996c-0.108-0.024-0.216-0.024-0.359-0.024
		c-0.744,0-1.271,0.552-1.416,1.343c-0.024,0.144-0.036,0.324-0.036,0.492v3.094h-1.056V184.222z"/>
	<path fill="#F9FDFE" d="M48.941,182.411l1.259,3.43c0.144,0.384,0.288,0.839,0.384,1.187h0.024
		c0.108-0.348,0.228-0.792,0.372-1.211l1.151-3.406h1.115l-1.583,4.138c-0.756,1.991-1.271,2.998-1.991,3.634
		c-0.527,0.444-1.031,0.624-1.295,0.672l-0.264-0.875c0.264-0.084,0.612-0.252,0.924-0.516c0.288-0.228,0.635-0.635,0.887-1.175
		c0.048-0.108,0.084-0.192,0.084-0.251c0-0.06-0.024-0.144-0.084-0.276l-2.135-5.349H48.941z"/>
	<path fill="#F9FDFE" d="M55.529,179.916c-0.276,1.007-0.792,2.303-1.115,2.854l-0.672,0.072c0.252-0.708,0.576-1.943,0.708-2.807
		L55.529,179.916z"/>
	<path fill="#F9FDFE" d="M56.549,187.148c0.324,0.192,0.875,0.408,1.403,0.408c0.756,0,1.115-0.372,1.115-0.863
		c0-0.504-0.3-0.768-1.067-1.056c-1.055-0.384-1.547-0.947-1.547-1.643c0-0.936,0.768-1.703,2.003-1.703
		c0.587,0,1.103,0.156,1.415,0.36l-0.252,0.768c-0.228-0.144-0.647-0.348-1.187-0.348c-0.624,0-0.959,0.36-0.959,0.792
		c0,0.479,0.335,0.695,1.091,0.995c0.995,0.372,1.523,0.876,1.523,1.739c0,1.031-0.803,1.751-2.159,1.751
		c-0.636,0-1.223-0.168-1.631-0.408L56.549,187.148z"/>
	<path fill="#F9FDFE" d="M64.025,180.251c0.456-0.108,1.187-0.18,1.907-0.18c1.043,0,1.715,0.18,2.207,0.588
		c0.419,0.312,0.684,0.792,0.684,1.427c0,0.792-0.528,1.475-1.367,1.775v0.036c0.768,0.18,1.667,0.815,1.667,2.015
		c0,0.696-0.276,1.235-0.696,1.619c-0.552,0.516-1.463,0.755-2.782,0.755c-0.72,0-1.271-0.048-1.619-0.096V180.251z M65.069,183.562
		h0.947c1.091,0,1.739-0.588,1.739-1.367c0-0.936-0.708-1.319-1.763-1.319c-0.479,0-0.755,0.036-0.923,0.072V183.562z
		 M65.069,187.424c0.216,0.036,0.503,0.048,0.875,0.048c1.079,0,2.075-0.396,2.075-1.571c0-1.091-0.947-1.559-2.087-1.559h-0.863
		V187.424z"/>
	<path fill="#F9FDFE" d="M75.351,186.62c0,0.612,0.012,1.14,0.048,1.595h-0.936l-0.06-0.947h-0.024
		c-0.264,0.468-0.887,1.079-1.919,1.079c-0.911,0-2.003-0.516-2.003-2.542v-3.394h1.056v3.202c0,1.104,0.348,1.859,1.295,1.859
		c0.708,0,1.199-0.492,1.391-0.971c0.06-0.144,0.096-0.336,0.096-0.54v-3.55h1.056V186.62z"/>
	<path fill="#F9FDFE" d="M76.961,187.148c0.324,0.192,0.875,0.408,1.403,0.408c0.756,0,1.115-0.372,1.115-0.863
		c0-0.504-0.3-0.768-1.067-1.056c-1.055-0.384-1.547-0.947-1.547-1.643c0-0.936,0.768-1.703,2.003-1.703
		c0.587,0,1.104,0.156,1.415,0.36l-0.252,0.768c-0.228-0.144-0.647-0.348-1.187-0.348c-0.624,0-0.959,0.36-0.959,0.792
		c0,0.479,0.335,0.695,1.091,0.995c0.996,0.372,1.523,0.876,1.523,1.739c0,1.031-0.803,1.751-2.159,1.751
		c-0.636,0-1.223-0.168-1.631-0.408L76.961,187.148z"/>
	<path fill="#F9FDFE" d="M83.032,180.779c0,0.36-0.252,0.648-0.671,0.648c-0.384,0-0.636-0.288-0.636-0.648s0.264-0.66,0.66-0.66
		C82.769,180.12,83.032,180.408,83.032,180.779z M81.857,188.215v-5.805h1.056v5.805H81.857z"/>
	<path fill="#F9FDFE" d="M84.665,183.981c0-0.611-0.012-1.091-0.048-1.571h0.936l0.06,0.959h0.024c0.288-0.54,0.959-1.08,1.919-1.08
		c0.803,0,2.051,0.48,2.051,2.471v3.454H88.55v-3.346c0-0.936-0.348-1.715-1.343-1.715c-0.684,0-1.223,0.492-1.415,1.079
		c-0.048,0.132-0.072,0.312-0.072,0.492v3.49h-1.056V183.981z"/>
	<path fill="#F9FDFE" d="M91.913,185.505c0.024,1.427,0.923,2.015,1.991,2.015c0.755,0,1.223-0.132,1.607-0.3l0.192,0.756
		c-0.372,0.168-1.019,0.372-1.943,0.372c-1.787,0-2.854-1.188-2.854-2.938s1.032-3.118,2.723-3.118c1.907,0,2.399,1.655,2.399,2.723
		c0,0.216-0.012,0.372-0.036,0.492H91.913z M95.007,184.749c0.012-0.66-0.276-1.703-1.463-1.703c-1.08,0-1.535,0.971-1.619,1.703
		H95.007z"/>
	<path fill="#F9FDFE" d="M97.192,187.148c0.324,0.192,0.875,0.408,1.403,0.408c0.756,0,1.115-0.372,1.115-0.863
		c0-0.504-0.3-0.768-1.067-1.056c-1.055-0.384-1.547-0.947-1.547-1.643c0-0.936,0.768-1.703,2.003-1.703
		c0.587,0,1.104,0.156,1.415,0.36l-0.252,0.768c-0.228-0.144-0.647-0.348-1.187-0.348c-0.624,0-0.959,0.36-0.959,0.792
		c0,0.479,0.335,0.695,1.091,0.995c0.996,0.372,1.523,0.876,1.523,1.739c0,1.031-0.803,1.751-2.159,1.751
		c-0.636,0-1.223-0.168-1.631-0.408L97.192,187.148z"/>
	<path fill="#F9FDFE" d="M101.944,187.148c0.324,0.192,0.875,0.408,1.403,0.408c0.756,0,1.115-0.372,1.115-0.863
		c0-0.504-0.3-0.768-1.067-1.056c-1.055-0.384-1.547-0.947-1.547-1.643c0-0.936,0.768-1.703,2.003-1.703
		c0.587,0,1.104,0.156,1.415,0.36l-0.252,0.768c-0.228-0.144-0.647-0.348-1.187-0.348c-0.624,0-0.959,0.36-0.959,0.792
		c0,0.479,0.335,0.695,1.091,0.995c0.996,0.372,1.523,0.876,1.523,1.739c0,1.031-0.803,1.751-2.159,1.751
		c-0.636,0-1.223-0.168-1.631-0.408L101.944,187.148z"/>
</g>
<g>
	<path fill="#F9FDFE" d="M39.544,200.421h-3.13v2.914h3.502v0.876h-4.558v-8.084h4.378v0.876h-3.322v2.555h3.13V200.421z"/>
	<path fill="#F9FDFE" d="M41.73,198.407l0.828,1.247c0.228,0.324,0.408,0.611,0.6,0.936h0.024c0.192-0.336,0.384-0.636,0.588-0.947
		l0.803-1.235h1.151l-1.979,2.807l2.027,2.998h-1.188l-0.864-1.308c-0.228-0.336-0.419-0.659-0.624-1.007h-0.024
		c-0.192,0.348-0.384,0.659-0.612,1.007l-0.839,1.308h-1.163l2.063-2.962l-1.967-2.843H41.73z"/>
	<path fill="#F9FDFE" d="M46.794,200.301c0-0.743-0.024-1.343-0.048-1.895h0.936l0.06,0.995h0.024
		c0.419-0.707,1.115-1.115,2.063-1.115c1.416,0,2.471,1.188,2.471,2.938c0,2.087-1.283,3.118-2.65,3.118
		c-0.768,0-1.439-0.336-1.787-0.911h-0.024v3.154h-1.043V200.301z M47.838,201.849c0,0.155,0.012,0.3,0.048,0.432
		c0.192,0.731,0.828,1.235,1.583,1.235c1.116,0,1.763-0.912,1.763-2.243c0-1.151-0.612-2.146-1.727-2.146
		c-0.72,0-1.403,0.504-1.595,1.295c-0.036,0.132-0.072,0.288-0.072,0.42V201.849z"/>
	<path fill="#F9FDFE" d="M54.21,201.5c0.024,1.428,0.923,2.016,1.991,2.016c0.755,0,1.223-0.132,1.607-0.3L58,203.971
		c-0.372,0.168-1.019,0.372-1.943,0.372c-1.787,0-2.854-1.188-2.854-2.938s1.032-3.118,2.723-3.118c1.907,0,2.399,1.655,2.399,2.723
		c0,0.216-0.012,0.372-0.036,0.491H54.21z M57.304,200.746c0.012-0.66-0.276-1.703-1.463-1.703c-1.079,0-1.535,0.972-1.619,1.703
		H57.304z"/>
	<path fill="#F9FDFE" d="M59.634,200.217c0-0.684-0.012-1.271-0.048-1.811h0.923l0.048,1.151h0.036
		c0.264-0.779,0.912-1.271,1.619-1.271c0.108,0,0.192,0.012,0.288,0.024v0.995c-0.108-0.024-0.216-0.024-0.359-0.024
		c-0.744,0-1.271,0.552-1.416,1.344c-0.024,0.144-0.036,0.323-0.036,0.491v3.095h-1.056V200.217z"/>
	<path fill="#F9FDFE" d="M64.733,196.776c0,0.359-0.252,0.647-0.671,0.647c-0.384,0-0.636-0.288-0.636-0.647
		c0-0.36,0.264-0.66,0.66-0.66C64.47,196.116,64.733,196.404,64.733,196.776z M63.558,204.211v-5.805h1.056v5.805H63.558z"/>
	<path fill="#F9FDFE" d="M66.954,201.5c0.024,1.428,0.923,2.016,1.991,2.016c0.755,0,1.223-0.132,1.607-0.3l0.192,0.755
		c-0.372,0.168-1.019,0.372-1.943,0.372c-1.787,0-2.854-1.188-2.854-2.938s1.032-3.118,2.723-3.118c1.907,0,2.399,1.655,2.399,2.723
		c0,0.216-0.012,0.372-0.036,0.491H66.954z M70.048,200.746c0.012-0.66-0.276-1.703-1.463-1.703c-1.08,0-1.535,0.972-1.619,1.703
		H70.048z"/>
	<path fill="#F9FDFE" d="M72.377,199.978c0-0.612-0.012-1.092-0.048-1.571h0.936l0.06,0.959h0.024
		c0.288-0.539,0.959-1.079,1.919-1.079c0.803,0,2.051,0.479,2.051,2.471v3.454h-1.056v-3.346c0-0.936-0.348-1.716-1.343-1.716
		c-0.684,0-1.223,0.492-1.415,1.08c-0.048,0.132-0.072,0.312-0.072,0.491v3.49h-1.056V199.978z"/>
	<path fill="#F9FDFE" d="M83.175,204.007c-0.276,0.132-0.887,0.336-1.667,0.336c-1.751,0-2.891-1.188-2.891-2.962
		c0-1.787,1.224-3.095,3.119-3.095c0.624,0,1.175,0.156,1.463,0.312l-0.24,0.804c-0.252-0.132-0.647-0.275-1.223-0.275
		c-1.332,0-2.051,0.995-2.051,2.194c0,1.344,0.864,2.171,2.015,2.171c0.6,0,0.996-0.144,1.295-0.275L83.175,204.007z"/>
	<path fill="#F9FDFE" d="M85.001,201.5c0.024,1.428,0.923,2.016,1.991,2.016c0.755,0,1.223-0.132,1.607-0.3l0.192,0.755
		c-0.372,0.168-1.019,0.372-1.943,0.372c-1.787,0-2.854-1.188-2.854-2.938s1.032-3.118,2.723-3.118c1.907,0,2.399,1.655,2.399,2.723
		c0,0.216-0.012,0.372-0.036,0.491H85.001z M88.096,200.746c0.012-0.66-0.276-1.703-1.463-1.703c-1.08,0-1.535,0.972-1.619,1.703
		H88.096z"/>
	<path fill="#F9FDFE" d="M96.052,197.831v2.818h2.71v0.72h-2.71v2.843h-0.768v-2.843h-2.711v-0.72h2.711v-2.818H96.052z"/>
</g>
<g>
	<path fill="#F9FDFE" d="M25.263,219.956c-0.372,0.192-1.151,0.384-2.135,0.384c-2.279,0-3.982-1.439-3.982-4.102
		c0-2.543,1.715-4.246,4.222-4.246c0.996,0,1.643,0.216,1.919,0.36l-0.264,0.852c-0.384-0.192-0.948-0.336-1.619-0.336
		c-1.895,0-3.154,1.211-3.154,3.334c0,1.991,1.139,3.25,3.094,3.25c0.648,0,1.295-0.132,1.715-0.336L25.263,219.956z"/>
	<path fill="#F9FDFE" d="M31.803,217.257c0,2.146-1.499,3.082-2.89,3.082c-1.559,0-2.783-1.151-2.783-2.986
		c0-1.931,1.284-3.07,2.878-3.07C30.676,214.283,31.803,215.494,31.803,217.257z M27.21,217.317c0,1.271,0.72,2.231,1.751,2.231
		c1.007,0,1.763-0.948,1.763-2.255c0-0.983-0.492-2.219-1.739-2.219C27.75,215.075,27.21,216.226,27.21,217.317z"/>
	<path fill="#F9FDFE" d="M33.138,215.974c0-0.612-0.024-1.092-0.048-1.571h0.923l0.048,0.947h0.036
		c0.324-0.552,0.864-1.067,1.835-1.067c0.78,0,1.379,0.479,1.631,1.163h0.024c0.18-0.336,0.419-0.575,0.66-0.755
		c0.348-0.265,0.719-0.408,1.271-0.408c0.78,0,1.919,0.504,1.919,2.519v3.406h-1.031v-3.274c0-1.127-0.42-1.787-1.259-1.787
		c-0.612,0-1.067,0.444-1.259,0.948c-0.048,0.155-0.084,0.335-0.084,0.527v3.586h-1.031v-3.479c0-0.923-0.408-1.583-1.211-1.583
		c-0.648,0-1.14,0.528-1.308,1.056c-0.06,0.144-0.084,0.336-0.084,0.516v3.49h-1.031V215.974z"/>
	<path fill="#F9FDFE" d="M43.146,215.974c0-0.612-0.024-1.092-0.048-1.571h0.923l0.048,0.947h0.036
		c0.324-0.552,0.864-1.067,1.835-1.067c0.78,0,1.379,0.479,1.631,1.163h0.024c0.18-0.336,0.419-0.575,0.66-0.755
		c0.348-0.265,0.719-0.408,1.271-0.408c0.78,0,1.919,0.504,1.919,2.519v3.406h-1.031v-3.274c0-1.127-0.42-1.787-1.259-1.787
		c-0.612,0-1.067,0.444-1.259,0.948c-0.048,0.155-0.084,0.335-0.084,0.527v3.586H46.78v-3.479c0-0.923-0.408-1.583-1.211-1.583
		c-0.648,0-1.14,0.528-1.308,1.056c-0.06,0.144-0.084,0.336-0.084,0.516v3.49h-1.031V215.974z"/>
	<path fill="#F9FDFE" d="M58.011,218.613c0,0.611,0.012,1.139,0.048,1.595h-0.936l-0.06-0.947H57.04
		c-0.264,0.468-0.887,1.079-1.919,1.079c-0.911,0-2.003-0.516-2.003-2.543v-3.394h1.056v3.202c0,1.104,0.348,1.859,1.295,1.859
		c0.708,0,1.199-0.492,1.391-0.972c0.06-0.145,0.096-0.336,0.096-0.54v-3.55h1.056V218.613z"/>
	<path fill="#F9FDFE" d="M59.766,215.974c0-0.612-0.012-1.092-0.048-1.571h0.936l0.06,0.959h0.024
		c0.288-0.539,0.959-1.079,1.919-1.079c0.803,0,2.051,0.479,2.051,2.471v3.454h-1.056v-3.346c0-0.936-0.348-1.716-1.343-1.716
		c-0.684,0-1.223,0.492-1.415,1.08c-0.048,0.132-0.072,0.312-0.072,0.491v3.49h-1.056V215.974z"/>
	<path fill="#F9FDFE" d="M67.601,212.772c0,0.359-0.252,0.647-0.671,0.647c-0.384,0-0.636-0.288-0.636-0.647
		c0-0.36,0.264-0.66,0.66-0.66C67.337,212.112,67.601,212.4,67.601,212.772z M66.426,220.208v-5.805h1.056v5.805H66.426z"/>
	<path fill="#F9FDFE" d="M70.505,213.011v1.392h1.511v0.804h-1.511v3.13c0,0.72,0.204,1.128,0.792,1.128
		c0.288,0,0.456-0.024,0.611-0.072l0.048,0.804c-0.204,0.071-0.528,0.144-0.936,0.144c-0.492,0-0.888-0.168-1.14-0.443
		c-0.288-0.324-0.408-0.84-0.408-1.523v-3.166h-0.899v-0.804h0.899v-1.079L70.505,213.011z"/>
	<path fill="#F9FDFE" d="M73.589,214.403l1.259,3.43c0.144,0.384,0.288,0.84,0.384,1.188h0.024c0.108-0.348,0.228-0.791,0.372-1.211
		l1.151-3.406h1.115l-1.583,4.138c-0.756,1.991-1.271,2.998-1.991,3.634c-0.527,0.444-1.031,0.624-1.295,0.672l-0.264-0.876
		c0.264-0.084,0.612-0.252,0.924-0.516c0.288-0.228,0.635-0.636,0.887-1.175c0.048-0.108,0.084-0.192,0.084-0.252
		c0-0.061-0.024-0.145-0.084-0.276l-2.135-5.349H73.589z"/>
	<path fill="#F9FDFE" d="M83.212,220.208l-2.65-8.084h1.139l1.259,3.982c0.336,1.091,0.636,2.074,0.864,3.022h0.024
		c0.228-0.936,0.552-1.955,0.923-3.011l1.367-3.994h1.116l-2.891,8.084H83.212z"/>
	<path fill="#F9FDFE" d="M92.175,218.816c0,0.504,0.024,0.996,0.084,1.392h-0.947l-0.084-0.731h-0.036
		c-0.324,0.456-0.947,0.863-1.775,0.863c-1.175,0-1.775-0.827-1.775-1.667c0-1.403,1.247-2.171,3.49-2.159v-0.119
		c0-0.468-0.132-1.344-1.319-1.332c-0.552,0-1.116,0.156-1.523,0.432l-0.24-0.707c0.479-0.3,1.187-0.504,1.919-0.504
		c1.775,0,2.207,1.211,2.207,2.362V218.816z M91.155,217.246c-1.151-0.024-2.458,0.18-2.458,1.307c0,0.695,0.456,1.008,0.983,1.008
		c0.768,0,1.259-0.479,1.427-0.972c0.036-0.12,0.048-0.24,0.048-0.336V217.246z"/>
	<path fill="#F9FDFE" d="M93.881,211.692h1.056v8.516h-1.056V211.692z"/>
	<path fill="#F9FDFE" d="M101.571,218.613c0,0.611,0.012,1.139,0.048,1.595h-0.936l-0.06-0.947h-0.024
		c-0.264,0.468-0.887,1.079-1.919,1.079c-0.911,0-2.003-0.516-2.003-2.543v-3.394h1.056v3.202c0,1.104,0.348,1.859,1.295,1.859
		c0.708,0,1.199-0.492,1.391-0.972c0.06-0.145,0.096-0.336,0.096-0.54v-3.55h1.056V218.613z"/>
	<path fill="#F9FDFE" d="M103.913,217.497c0.024,1.428,0.923,2.016,1.991,2.016c0.755,0,1.223-0.132,1.607-0.3l0.192,0.755
		c-0.372,0.168-1.019,0.372-1.943,0.372c-1.787,0-2.854-1.188-2.854-2.938s1.032-3.118,2.723-3.118c1.907,0,2.399,1.655,2.399,2.723
		c0,0.216-0.012,0.372-0.036,0.491H103.913z M107.007,216.742c0.012-0.66-0.276-1.703-1.463-1.703c-1.079,0-1.535,0.972-1.619,1.703
		H107.007z"/>
	<path fill="#F9FDFE" d="M109.193,219.14c0.324,0.191,0.875,0.408,1.403,0.408c0.756,0,1.115-0.372,1.115-0.864
		c0-0.504-0.3-0.768-1.067-1.055c-1.055-0.384-1.547-0.948-1.547-1.644c0-0.936,0.768-1.703,2.003-1.703
		c0.587,0,1.103,0.156,1.415,0.359l-0.252,0.768c-0.228-0.144-0.647-0.348-1.187-0.348c-0.624,0-0.959,0.36-0.959,0.792
		c0,0.479,0.335,0.695,1.091,0.995c0.995,0.372,1.523,0.876,1.523,1.739c0,1.031-0.803,1.751-2.159,1.751
		c-0.636,0-1.223-0.168-1.631-0.407L109.193,219.14z"/>
</g>
<g>
	<path fill="#F9FDFE" d="M276.702,180.119h4.354v0.875h-3.298v2.687h3.046v0.863h-3.046v3.658h-1.056V180.119z"/>
	<path fill="#F9FDFE" d="M283.109,185.492c0.024,1.427,0.924,2.015,1.991,2.015c0.756,0,1.224-0.132,1.607-0.3l0.191,0.756
		c-0.372,0.168-1.02,0.372-1.942,0.372c-1.787,0-2.854-1.188-2.854-2.938s1.031-3.118,2.723-3.118c1.906,0,2.398,1.655,2.398,2.723
		c0,0.216-0.012,0.372-0.036,0.492H283.109z M286.204,184.736c0.012-0.66-0.276-1.703-1.463-1.703c-1.08,0-1.535,0.971-1.619,1.703
		H286.204z"/>
	<path fill="#F9FDFE" d="M288.953,182.398l0.78,2.95c0.155,0.647,0.312,1.248,0.42,1.847h0.035c0.132-0.588,0.324-1.211,0.516-1.835
		l0.948-2.962h0.887l0.9,2.902c0.216,0.695,0.384,1.307,0.516,1.895h0.036c0.096-0.588,0.251-1.2,0.443-1.883l0.827-2.914h1.044
		l-1.871,5.805h-0.96l-0.887-2.771c-0.204-0.647-0.372-1.223-0.517-1.907h-0.023c-0.144,0.695-0.324,1.295-0.527,1.919l-0.936,2.758
		h-0.96l-1.751-5.805H288.953z"/>
	<path fill="#F9FDFE" d="M304.048,187.999c-0.276,0.132-0.888,0.336-1.668,0.336c-1.751,0-2.89-1.188-2.89-2.962
		c0-1.787,1.223-3.094,3.118-3.094c0.623,0,1.175,0.156,1.463,0.312l-0.24,0.803c-0.251-0.132-0.647-0.275-1.223-0.275
		c-1.331,0-2.051,0.995-2.051,2.194c0,1.343,0.863,2.171,2.015,2.171c0.6,0,0.995-0.144,1.295-0.276L304.048,187.999z"/>
	<path fill="#F9FDFE" d="M310.539,185.252c0,2.146-1.499,3.082-2.891,3.082c-1.56,0-2.782-1.151-2.782-2.986
		c0-1.931,1.283-3.07,2.878-3.07C309.411,182.278,310.539,183.489,310.539,185.252z M305.945,185.312
		c0,1.271,0.72,2.231,1.751,2.231c1.008,0,1.763-0.947,1.763-2.255c0-0.983-0.491-2.219-1.738-2.219
		C306.485,183.069,305.945,184.221,305.945,185.312z"/>
	<path fill="#F9FDFE" d="M311.874,183.969c0-0.611-0.024-1.091-0.049-1.571h0.924l0.048,0.947h0.036
		c0.324-0.552,0.863-1.067,1.835-1.067c0.779,0,1.379,0.48,1.631,1.164h0.024c0.18-0.336,0.42-0.576,0.659-0.756
		c0.349-0.264,0.72-0.408,1.271-0.408c0.779,0,1.919,0.504,1.919,2.519v3.406h-1.031v-3.274c0-1.127-0.42-1.787-1.26-1.787
		c-0.611,0-1.067,0.443-1.259,0.947c-0.048,0.156-0.084,0.336-0.084,0.528v3.586h-1.031v-3.478c0-0.923-0.408-1.583-1.212-1.583
		c-0.647,0-1.139,0.527-1.307,1.055c-0.061,0.144-0.084,0.336-0.084,0.516v3.49h-1.031V183.969z"/>
	<path fill="#F9FDFE" d="M321.882,184.293c0-0.744-0.024-1.343-0.049-1.895h0.936l0.061,0.995h0.023
		c0.42-0.708,1.115-1.115,2.063-1.115c1.415,0,2.471,1.188,2.471,2.938c0,2.087-1.283,3.118-2.651,3.118
		c-0.768,0-1.438-0.336-1.786-0.912h-0.024v3.154h-1.043V184.293z M322.925,185.84c0,0.156,0.012,0.3,0.048,0.432
		c0.192,0.732,0.828,1.235,1.583,1.235c1.115,0,1.764-0.911,1.764-2.243c0-1.151-0.612-2.146-1.728-2.146
		c-0.72,0-1.403,0.503-1.595,1.295c-0.036,0.132-0.072,0.288-0.072,0.42V185.84z"/>
	<path fill="#F9FDFE" d="M329.297,185.492c0.024,1.427,0.924,2.015,1.991,2.015c0.756,0,1.224-0.132,1.607-0.3l0.191,0.756
		c-0.372,0.168-1.02,0.372-1.942,0.372c-1.787,0-2.854-1.188-2.854-2.938s1.031-3.118,2.723-3.118c1.906,0,2.398,1.655,2.398,2.723
		c0,0.216-0.012,0.372-0.036,0.492H329.297z M332.392,184.736c0.012-0.66-0.276-1.703-1.463-1.703c-1.08,0-1.535,0.971-1.619,1.703
		H332.392z"/>
	<path fill="#F9FDFE" d="M335.992,181.006v1.392h1.512v0.803h-1.512v3.13c0,0.72,0.204,1.127,0.792,1.127
		c0.288,0,0.456-0.024,0.611-0.072l0.048,0.803c-0.203,0.072-0.527,0.144-0.936,0.144c-0.491,0-0.887-0.168-1.139-0.444
		c-0.288-0.324-0.408-0.839-0.408-1.523v-3.167h-0.899v-0.803h0.899v-1.08L335.992,181.006z"/>
	<path fill="#F9FDFE" d="M339.868,180.767c0,0.36-0.252,0.648-0.672,0.648c-0.384,0-0.636-0.288-0.636-0.648s0.265-0.66,0.66-0.66
		C339.604,180.107,339.868,180.395,339.868,180.767z M338.693,188.203v-5.805h1.055v5.805H338.693z"/>
	<path fill="#F9FDFE" d="M342.772,181.006v1.392h1.512v0.803h-1.512v3.13c0,0.72,0.204,1.127,0.792,1.127
		c0.288,0,0.456-0.024,0.611-0.072l0.048,0.803c-0.203,0.072-0.527,0.144-0.936,0.144c-0.491,0-0.887-0.168-1.139-0.444
		c-0.288-0.324-0.408-0.839-0.408-1.523v-3.167h-0.899v-0.803h0.899v-1.08L342.772,181.006z"/>
	<path fill="#F9FDFE" d="M350.727,185.252c0,2.146-1.499,3.082-2.891,3.082c-1.56,0-2.782-1.151-2.782-2.986
		c0-1.931,1.283-3.07,2.878-3.07C349.599,182.278,350.727,183.489,350.727,185.252z M346.133,185.312
		c0,1.271,0.72,2.231,1.751,2.231c1.008,0,1.763-0.947,1.763-2.255c0-0.983-0.491-2.219-1.738-2.219
		C346.673,183.069,346.133,184.221,346.133,185.312z"/>
	<path fill="#F9FDFE" d="M352.062,184.209c0-0.684-0.013-1.271-0.049-1.811h0.924l0.048,1.151h0.036
		c0.264-0.78,0.911-1.271,1.619-1.271c0.108,0,0.191,0.012,0.288,0.024v0.996c-0.108-0.024-0.216-0.024-0.36-0.024
		c-0.743,0-1.271,0.552-1.415,1.343c-0.023,0.144-0.036,0.324-0.036,0.492v3.094h-1.055V184.209z"/>
	<path fill="#F9FDFE" d="M355.841,187.135c0.324,0.192,0.876,0.408,1.403,0.408c0.756,0,1.115-0.372,1.115-0.863
		c0-0.504-0.3-0.768-1.067-1.056c-1.056-0.384-1.547-0.947-1.547-1.643c0-0.936,0.768-1.703,2.003-1.703
		c0.588,0,1.104,0.156,1.415,0.36l-0.252,0.768c-0.228-0.144-0.647-0.348-1.188-0.348c-0.623,0-0.959,0.36-0.959,0.792
		c0,0.479,0.336,0.695,1.091,0.995c0.996,0.372,1.523,0.876,1.523,1.739c0,1.031-0.804,1.751-2.159,1.751
		c-0.635,0-1.223-0.168-1.631-0.408L355.841,187.135z"/>
</g>
<g>
	<path fill="#F9FDFE" d="M272.897,198.395l0.78,2.95c0.155,0.647,0.312,1.247,0.419,1.847h0.036
		c0.132-0.587,0.324-1.211,0.516-1.835l0.948-2.962h0.887l0.9,2.902c0.216,0.695,0.384,1.308,0.516,1.895h0.035
		c0.097-0.587,0.252-1.199,0.444-1.883l0.827-2.914h1.044l-1.871,5.805h-0.96l-0.887-2.771c-0.204-0.647-0.372-1.224-0.516-1.907
		h-0.024c-0.144,0.696-0.324,1.296-0.527,1.919l-0.936,2.759h-0.96l-1.751-5.805H272.897z"/>
	<path fill="#F9FDFE" d="M282.485,196.764c0,0.359-0.252,0.647-0.672,0.647c-0.384,0-0.636-0.288-0.636-0.647
		c0-0.36,0.265-0.66,0.66-0.66C282.222,196.104,282.485,196.392,282.485,196.764z M281.311,204.2v-5.805h1.055v5.805H281.311z"/>
	<path fill="#F9FDFE" d="M285.389,197.003v1.392h1.512v0.804h-1.512v3.13c0,0.72,0.204,1.128,0.792,1.128
		c0.288,0,0.456-0.024,0.611-0.072l0.048,0.804c-0.203,0.071-0.527,0.144-0.936,0.144c-0.491,0-0.887-0.168-1.139-0.443
		c-0.288-0.324-0.408-0.84-0.408-1.523v-3.166h-0.899v-0.804h0.899v-1.079L285.389,197.003z"/>
	<path fill="#F9FDFE" d="M288.09,195.684h1.055v3.635h0.024c0.168-0.3,0.432-0.576,0.756-0.756c0.312-0.18,0.684-0.288,1.079-0.288
		c0.779,0,2.026,0.479,2.026,2.471v3.454h-1.055v-3.334c0-0.936-0.348-1.715-1.344-1.715c-0.684,0-1.211,0.479-1.415,1.043
		c-0.06,0.156-0.072,0.312-0.072,0.504v3.502h-1.055V195.684z"/>
	<path fill="#F9FDFE" d="M297.149,203.132c0.324,0.191,0.876,0.408,1.403,0.408c0.756,0,1.115-0.372,1.115-0.864
		c0-0.504-0.3-0.768-1.067-1.055c-1.056-0.384-1.547-0.948-1.547-1.644c0-0.936,0.768-1.703,2.003-1.703
		c0.588,0,1.104,0.156,1.415,0.359l-0.252,0.768c-0.228-0.144-0.647-0.348-1.188-0.348c-0.623,0-0.959,0.36-0.959,0.792
		c0,0.479,0.336,0.695,1.091,0.995c0.996,0.372,1.523,0.876,1.523,1.739c0,1.031-0.804,1.751-2.159,1.751
		c-0.635,0-1.223-0.168-1.631-0.407L297.149,203.132z"/>
	<path fill="#F9FDFE" d="M306.123,202.808c0,0.504,0.024,0.996,0.084,1.392h-0.947l-0.084-0.731h-0.036
		c-0.324,0.456-0.947,0.863-1.775,0.863c-1.175,0-1.774-0.827-1.774-1.667c0-1.403,1.247-2.171,3.49-2.159v-0.119
		c0-0.468-0.132-1.344-1.319-1.332c-0.552,0-1.115,0.156-1.523,0.432l-0.24-0.707c0.48-0.3,1.188-0.504,1.919-0.504
		c1.775,0,2.207,1.211,2.207,2.362V202.808z M305.104,201.238c-1.151-0.024-2.458,0.18-2.458,1.307c0,0.695,0.455,1.008,0.983,1.008
		c0.768,0,1.259-0.479,1.427-0.972c0.036-0.12,0.048-0.24,0.048-0.336V201.238z"/>
	<path fill="#F9FDFE" d="M307.83,199.966c0-0.612-0.024-1.092-0.049-1.571h0.924l0.048,0.947h0.036
		c0.324-0.552,0.863-1.067,1.835-1.067c0.779,0,1.379,0.479,1.631,1.163h0.024c0.18-0.336,0.42-0.575,0.659-0.755
		c0.348-0.265,0.72-0.408,1.271-0.408c0.779,0,1.919,0.504,1.919,2.519v3.406h-1.031v-3.274c0-1.127-0.42-1.787-1.26-1.787
		c-0.611,0-1.067,0.444-1.259,0.948c-0.048,0.155-0.084,0.335-0.084,0.527v3.586h-1.031v-3.479c0-0.923-0.408-1.583-1.212-1.583
		c-0.647,0-1.139,0.528-1.307,1.056c-0.061,0.144-0.084,0.336-0.084,0.516v3.49h-1.031V199.966z"/>
	<path fill="#F9FDFE" d="M318.425,201.489c0.024,1.428,0.924,2.016,1.991,2.016c0.756,0,1.224-0.132,1.607-0.3l0.191,0.755
		c-0.372,0.168-1.02,0.372-1.942,0.372c-1.787,0-2.854-1.188-2.854-2.938s1.031-3.118,2.723-3.118c1.906,0,2.398,1.655,2.398,2.723
		c0,0.216-0.013,0.372-0.036,0.491H318.425z M321.52,200.734c0.012-0.66-0.276-1.703-1.463-1.703c-1.08,0-1.535,0.972-1.619,1.703
		H321.52z"/>
	<path fill="#F9FDFE" d="M326.394,200.29c0-0.743-0.024-1.343-0.049-1.895h0.936l0.061,0.995h0.023
		c0.42-0.707,1.115-1.115,2.063-1.115c1.415,0,2.471,1.188,2.471,2.938c0,2.087-1.283,3.118-2.651,3.118
		c-0.768,0-1.438-0.336-1.786-0.911h-0.024v3.154h-1.043V200.29z M327.437,201.837c0,0.155,0.012,0.3,0.048,0.432
		c0.192,0.731,0.828,1.235,1.583,1.235c1.115,0,1.764-0.912,1.764-2.243c0-1.151-0.612-2.146-1.728-2.146
		c-0.72,0-1.403,0.504-1.595,1.295c-0.036,0.132-0.072,0.288-0.072,0.42V201.837z"/>
	<path fill="#F9FDFE" d="M337.299,202.808c0,0.504,0.024,0.996,0.084,1.392h-0.947l-0.084-0.731h-0.036
		c-0.324,0.456-0.947,0.863-1.775,0.863c-1.175,0-1.774-0.827-1.774-1.667c0-1.403,1.247-2.171,3.49-2.159v-0.119
		c0-0.468-0.132-1.344-1.319-1.332c-0.552,0-1.115,0.156-1.523,0.432l-0.24-0.707c0.48-0.3,1.188-0.504,1.919-0.504
		c1.775,0,2.207,1.211,2.207,2.362V202.808z M336.279,201.238c-1.151-0.024-2.458,0.18-2.458,1.307c0,0.695,0.455,1.008,0.983,1.008
		c0.768,0,1.259-0.479,1.427-0.972c0.036-0.12,0.048-0.24,0.048-0.336V201.238z"/>
	<path fill="#F9FDFE" d="M338.86,203.132c0.324,0.191,0.876,0.408,1.403,0.408c0.756,0,1.115-0.372,1.115-0.864
		c0-0.504-0.3-0.768-1.067-1.055c-1.056-0.384-1.547-0.948-1.547-1.644c0-0.936,0.768-1.703,2.003-1.703
		c0.588,0,1.104,0.156,1.415,0.359l-0.252,0.768c-0.228-0.144-0.647-0.348-1.188-0.348c-0.623,0-0.959,0.36-0.959,0.792
		c0,0.479,0.336,0.695,1.091,0.995c0.996,0.372,1.523,0.876,1.523,1.739c0,1.031-0.804,1.751-2.159,1.751
		c-0.635,0-1.223-0.168-1.631-0.407L338.86,203.132z"/>
	<path fill="#F9FDFE" d="M343.612,203.132c0.324,0.191,0.876,0.408,1.403,0.408c0.756,0,1.115-0.372,1.115-0.864
		c0-0.504-0.3-0.768-1.067-1.055c-1.056-0.384-1.547-0.948-1.547-1.644c0-0.936,0.768-1.703,2.003-1.703
		c0.588,0,1.104,0.156,1.415,0.359l-0.252,0.768c-0.228-0.144-0.647-0.348-1.188-0.348c-0.623,0-0.959,0.36-0.959,0.792
		c0,0.479,0.336,0.695,1.091,0.995c0.996,0.372,1.523,0.876,1.523,1.739c0,1.031-0.804,1.751-2.159,1.751
		c-0.635,0-1.223-0.168-1.631-0.407L343.612,203.132z"/>
	<path fill="#F9FDFE" d="M349.684,196.764c0,0.359-0.252,0.647-0.672,0.647c-0.384,0-0.636-0.288-0.636-0.647
		c0-0.36,0.265-0.66,0.66-0.66C349.42,196.104,349.684,196.392,349.684,196.764z M348.509,204.2v-5.805h1.055v5.805H348.509z"/>
	<path fill="#F9FDFE" d="M356.57,201.25c0,2.146-1.499,3.082-2.891,3.082c-1.56,0-2.782-1.151-2.782-2.986
		c0-1.931,1.283-3.07,2.878-3.07C355.442,198.275,356.57,199.486,356.57,201.25z M351.977,201.309c0,1.271,0.72,2.231,1.751,2.231
		c1.008,0,1.763-0.948,1.763-2.255c0-0.983-0.491-2.219-1.738-2.219C352.517,199.067,351.977,200.218,351.977,201.309z"/>
	<path fill="#F9FDFE" d="M357.905,199.966c0-0.612-0.013-1.092-0.049-1.571h0.936l0.061,0.959h0.023
		c0.288-0.539,0.96-1.079,1.919-1.079c0.804,0,2.051,0.479,2.051,2.471v3.454h-1.055v-3.346c0-0.936-0.349-1.716-1.344-1.716
		c-0.684,0-1.224,0.492-1.415,1.08c-0.048,0.132-0.072,0.312-0.072,0.491v3.49h-1.055V199.966z"/>
</g>
<g>
	<path fill="#F9FDFE" d="M300.317,220.195v-5.001h-0.804v-0.804h0.804v-0.276c0-0.815,0.192-1.559,0.672-2.026
		c0.396-0.384,0.923-0.54,1.415-0.54c0.384,0,0.695,0.084,0.899,0.168l-0.144,0.815c-0.156-0.071-0.36-0.132-0.672-0.132
		c-0.899,0-1.127,0.779-1.127,1.68v0.312h1.402v0.804h-1.402v5.001H300.317z"/>
	<path fill="#F9FDFE" d="M308.967,217.245c0,2.146-1.499,3.082-2.891,3.082c-1.56,0-2.782-1.151-2.782-2.986
		c0-1.931,1.283-3.07,2.878-3.07C307.839,214.27,308.967,215.481,308.967,217.245z M304.373,217.304c0,1.271,0.72,2.231,1.751,2.231
		c1.008,0,1.763-0.948,1.763-2.255c0-0.983-0.491-2.219-1.738-2.219C304.913,215.062,304.373,216.213,304.373,217.304z"/>
	<path fill="#F9FDFE" d="M310.302,216.201c0-0.684-0.013-1.271-0.049-1.811h0.924l0.048,1.151h0.036
		c0.264-0.779,0.911-1.271,1.619-1.271c0.108,0,0.191,0.012,0.288,0.024v0.995c-0.108-0.024-0.216-0.024-0.36-0.024
		c-0.743,0-1.271,0.552-1.415,1.344c-0.023,0.144-0.036,0.324-0.036,0.491v3.095h-1.055V216.201z"/>
	<path fill="#F9FDFE" d="M317.177,214.39l1.14,3.25c0.191,0.54,0.348,1.02,0.468,1.499h0.036c0.132-0.479,0.3-0.959,0.491-1.499
		l1.128-3.25h1.103l-2.278,5.805h-1.008l-2.206-5.805H317.177z"/>
	<path fill="#F9FDFE" d="M326.618,218.803c0,0.504,0.024,0.996,0.084,1.392h-0.947l-0.084-0.731h-0.036
		c-0.323,0.456-0.947,0.863-1.775,0.863c-1.175,0-1.774-0.827-1.774-1.667c0-1.403,1.247-2.171,3.49-2.159v-0.119
		c0-0.468-0.132-1.344-1.319-1.332c-0.552,0-1.115,0.156-1.523,0.432l-0.24-0.707c0.48-0.3,1.188-0.504,1.919-0.504
		c1.775,0,2.207,1.211,2.207,2.362V218.803z M325.599,217.233c-1.151-0.024-2.458,0.18-2.458,1.307c0,0.696,0.455,1.008,0.983,1.008
		c0.768,0,1.259-0.479,1.427-0.972c0.036-0.12,0.048-0.24,0.048-0.336V217.233z"/>
	<path fill="#F9FDFE" d="M328.325,211.679h1.055v8.516h-1.055V211.679z"/>
	<path fill="#F9FDFE" d="M336.014,218.6c0,0.611,0.013,1.139,0.049,1.595h-0.936l-0.061-0.947h-0.023
		c-0.265,0.468-0.888,1.079-1.919,1.079c-0.912,0-2.003-0.516-2.003-2.543v-3.394h1.055v3.202c0,1.104,0.349,1.859,1.296,1.859
		c0.707,0,1.199-0.492,1.391-0.972c0.061-0.145,0.097-0.336,0.097-0.54v-3.55h1.055V218.6z"/>
	<path fill="#F9FDFE" d="M338.356,217.484c0.024,1.428,0.924,2.016,1.991,2.016c0.756,0,1.224-0.132,1.607-0.3l0.191,0.755
		c-0.372,0.168-1.02,0.372-1.942,0.372c-1.787,0-2.854-1.188-2.854-2.938s1.031-3.118,2.723-3.118c1.906,0,2.398,1.655,2.398,2.723
		c0,0.216-0.013,0.372-0.036,0.491H338.356z M341.451,216.729c0.012-0.66-0.276-1.703-1.463-1.703c-1.08,0-1.535,0.972-1.619,1.703
		H341.451z"/>
	<path fill="#F9FDFE" d="M343.637,219.127c0.324,0.191,0.876,0.408,1.403,0.408c0.756,0,1.115-0.372,1.115-0.864
		c0-0.504-0.3-0.768-1.067-1.055c-1.056-0.384-1.547-0.948-1.547-1.644c0-0.936,0.768-1.703,2.003-1.703
		c0.588,0,1.104,0.156,1.415,0.36l-0.252,0.768c-0.228-0.145-0.647-0.349-1.188-0.349c-0.623,0-0.959,0.36-0.959,0.792
		c0,0.479,0.336,0.695,1.091,0.995c0.996,0.372,1.523,0.876,1.523,1.739c0,1.031-0.804,1.751-2.158,1.751
		c-0.636,0-1.224-0.168-1.632-0.407L343.637,219.127z"/>
</g>
</svg>
