<?xml version="1.0" encoding="utf-8"?>
<!-- Generator: Adobe Illustrator 15.1.0, SVG Export Plug-In . SVG Version: 6.00 Build 0)  -->
<!DOCTYPE svg PUBLIC "-//W3C//DTD SVG 1.1//EN" "http://www.w3.org/Graphics/SVG/1.1/DTD/svg11.dtd">
<svg version="1.1" id="Layer_1" xmlns="http://www.w3.org/2000/svg" xmlns:xlink="http://www.w3.org/1999/xlink" x="0px" y="0px"
	 width="467.455px" height="374.874px" viewBox="0 0 467.455 374.874" enable-background="new 0 0 467.455 374.874"
	 xml:space="preserve">
<rect x="116.779" fill="#EBEBEB" width="350.675" height="71.328"/>
<rect x="116.779" y="151.511" fill="#EBEBEB" width="350.675" height="71.328"/>
<rect x="116.779" y="303.546" fill="#EBEBEB" width="350.675" height="71.327"/>
<rect x="116.779" y="75.755" fill="#D0D0D0" width="350.675" height="71.328"/>
<rect x="116.779" y="227.372" fill="#D0D0D0" width="350.675" height="71.328"/>
<rect fill="#F49712" width="112.529" height="71.328"/>
<rect y="75.847" fill="#F49712" width="112.531" height="71.328"/>
<rect y="151.695" fill="#F49712" width="112.531" height="71.33"/>
<rect y="227.546" fill="#F49712" width="112.529" height="71.328"/>
<rect y="303.392" fill="#F49712" width="112.636" height="71.328"/>
<polygon fill="#FFFFFF" points="16.778,17.366 16.778,24.368 14.845,24.368 14.845,17.366 12.172,17.366 12.172,15.584 
	19.451,15.584 19.451,17.366 "/>
<path fill="#FFFFFF" d="M24.839,21.658c-0.327-0.151-0.753-0.251-1.219-0.251c-0.814,0-1.317,0.326-1.317,0.928v0.025
	c0,0.515,0.428,0.816,1.041,0.816c0.892,0,1.495-0.489,1.495-1.18V21.658z M24.802,24.368v-0.728
	c-0.465,0.515-1.105,0.854-2.033,0.854c-1.268,0-2.311-0.729-2.311-2.058v-0.025c0-1.469,1.117-2.147,2.712-2.147
	c0.677,0,1.167,0.114,1.644,0.276v-0.112c0-0.792-0.489-1.23-1.442-1.23c-0.729,0-1.243,0.139-1.859,0.364l-0.476-1.456
	c0.74-0.326,1.468-0.539,2.611-0.539c2.083,0,2.999,1.079,2.999,2.899v3.902H24.802z"/>
<path fill="#FFFFFF" d="M32.372,19.512c-1.268,0-2.045,0.765-2.045,2.372v2.484h-1.908v-6.727h1.908v1.355
	c0.389-0.929,1.017-1.53,2.145-1.481v1.996H32.372z"/>
<path fill="#FFFFFF" d="M38.675,20.653c0-0.916-0.715-1.556-1.644-1.556c-0.928,0-1.631,0.64-1.631,1.556v0.025
	c0,0.929,0.703,1.556,1.631,1.556c0.929,0,1.644-0.64,1.644-1.556V20.653z M36.805,26.401c-1.092,0-2.12-0.25-2.974-0.702
	l0.652-1.431c0.691,0.389,1.38,0.615,2.271,0.615c1.307,0,1.92-0.626,1.92-1.832v-0.326c-0.564,0.677-1.179,1.092-2.196,1.092
	c-1.568,0-2.987-1.142-2.987-3.138v-0.025c0-2.008,1.443-3.137,2.987-3.137c1.042,0,1.657,0.439,2.172,1.004v-0.878h1.906v5.208
	C40.557,25.385,39.302,26.401,36.805,26.401"/>
<path fill="#FFFFFF" d="M45.394,19.047c-0.791,0-1.305,0.564-1.456,1.431h2.873C46.699,19.625,46.196,19.047,45.394,19.047
	 M48.644,21.67h-4.682c0.188,0.867,0.791,1.317,1.645,1.317c0.64,0,1.105-0.2,1.63-0.689l1.094,0.967
	c-0.628,0.777-1.532,1.255-2.75,1.255c-2.02,0-3.514-1.419-3.514-3.476v-0.025c0-1.92,1.367-3.501,3.326-3.501
	c2.247,0,3.275,1.744,3.275,3.651v0.025C48.668,21.381,48.656,21.495,48.644,21.67"/>
<path fill="#FFFFFF" d="M52.489,24.481c-1.167,0-1.958-0.464-1.958-2.02v-3.188h-0.803v-1.631h0.803v-1.72h1.907v1.72h1.583v1.631
	h-1.583v2.874c0,0.439,0.189,0.653,0.616,0.653c0.351,0,0.664-0.088,0.94-0.239v1.531C53.593,24.331,53.128,24.481,52.489,24.481"/>
<path fill="#FFFFFF" d="M16.677,32.911l-1.167,2.848h2.334L16.677,32.911z M19.338,39.436l-0.803-1.971h-3.716l-0.803,1.971h-1.969
	l3.764-8.846h1.781l3.766,8.846H19.338z"/>
<path fill="#FFFFFF" d="M26.847,39.436v-0.955c-0.438,0.565-1.002,1.08-1.969,1.08c-1.443,0-2.284-0.954-2.284-2.497v-4.355h1.907
	v3.752c0,0.904,0.427,1.368,1.154,1.368c0.728,0,1.192-0.463,1.192-1.368v-3.752h1.908v6.727H26.847z"/>
<path fill="#FFFFFF" d="M35.473,36.061c0-1.118-0.74-1.857-1.63-1.857c-0.892,0-1.644,0.728-1.644,1.857v0.025
	c0,1.117,0.752,1.856,1.644,1.856c0.891,0,1.63-0.739,1.63-1.856V36.061z M35.45,39.436v-0.967
	c-0.466,0.628-1.105,1.092-2.098,1.092c-1.568,0-3.062-1.229-3.062-3.476v-0.025c0-2.247,1.47-3.477,3.062-3.477
	c1.018,0,1.645,0.464,2.098,1.004v-3.314h1.906v9.162H35.45z"/>
<path fill="#FFFFFF" d="M39.281,32.71h1.907v6.727h-1.907V32.71z M39.23,30.276h2.007v1.694H39.23V30.276z"/>
<path fill="#FFFFFF" d="M46.11,34.115c-0.791,0-1.306,0.563-1.456,1.43h2.873C47.415,34.692,46.913,34.115,46.11,34.115
	 M49.36,36.737h-4.682c0.188,0.867,0.791,1.318,1.645,1.318c0.64,0,1.105-0.2,1.63-0.689l1.094,0.967
	c-0.628,0.777-1.532,1.254-2.75,1.254c-2.02,0-3.514-1.418-3.514-3.476v-0.025c0-1.92,1.367-3.501,3.326-3.501
	c2.247,0,3.274,1.744,3.274,3.65v0.025C49.384,36.448,49.372,36.563,49.36,36.737"/>
<path fill="#FFFFFF" d="M55.186,39.436v-3.752c0-0.904-0.427-1.368-1.154-1.368c-0.729,0-1.192,0.463-1.192,1.368v3.752h-1.908
	v-6.727h1.908v0.953c0.438-0.564,1.003-1.079,1.969-1.079c1.443,0,2.285,0.954,2.285,2.497v4.355H55.186z"/>
<path fill="#FFFFFF" d="M62.055,39.587c-2.021,0-3.5-1.556-3.5-3.477v-0.024c0-1.921,1.467-3.502,3.526-3.502
	c1.265,0,2.058,0.427,2.685,1.129l-1.167,1.254c-0.427-0.452-0.854-0.739-1.532-0.739c-0.952,0-1.63,0.841-1.63,1.832v0.025
	c0,1.029,0.666,1.856,1.707,1.856c0.64,0,1.08-0.276,1.544-0.714l1.117,1.129C64.151,39.072,63.397,39.587,62.055,39.587"/>
<path fill="#FFFFFF" d="M69.174,34.115c-0.791,0-1.306,0.563-1.456,1.43h2.874C70.479,34.692,69.977,34.115,69.174,34.115
	 M72.425,36.737h-4.682c0.188,0.867,0.791,1.318,1.644,1.318c0.64,0,1.105-0.2,1.631-0.689l1.093,0.967
	c-0.628,0.777-1.532,1.254-2.75,1.254c-2.02,0-3.513-1.418-3.513-3.476v-0.025c0-1.92,1.367-3.501,3.325-3.501
	c2.247,0,3.274,1.744,3.274,3.65v0.025C72.449,36.448,72.437,36.563,72.425,36.737"/>
<path fill="#FFFFFF" d="M17.794,95.253c0-0.866-0.602-1.331-1.569-1.331h-1.494v2.686h1.531c0.965,0,1.532-0.578,1.532-1.329V95.253
	z M16.2,98.329h-1.468v2.634h-1.931v-8.784h3.589c2.094,0,3.363,1.242,3.363,3.037v0.025C19.752,97.274,18.171,98.329,16.2,98.329"
	/>
<path fill="#FFFFFF" d="M25.065,96.108c-1.268,0-2.045,0.764-2.045,2.371v2.484h-1.908v-6.726h1.908v1.354
	c0.389-0.927,1.018-1.53,2.146-1.48v1.996H25.065z"/>
<path fill="#FFFFFF" d="M31.556,97.613c0-0.992-0.716-1.856-1.769-1.856c-1.092,0-1.745,0.841-1.745,1.832v0.024
	c0,0.991,0.715,1.857,1.769,1.857c1.093,0,1.746-0.841,1.746-1.832V97.613z M29.787,101.114c-2.084,0-3.627-1.544-3.627-3.477
	v-0.025c0-1.932,1.556-3.501,3.65-3.501c2.084,0,3.628,1.544,3.628,3.477v0.024C33.438,99.545,31.882,101.114,29.787,101.114"/>
<path fill="#FFFFFF" d="M40.106,97.588c0-1.117-0.752-1.858-1.643-1.858c-0.892,0-1.632,0.741-1.632,1.858v0.024
	c0,1.117,0.74,1.858,1.632,1.858c0.891,0,1.643-0.728,1.643-1.858V97.588z M38.953,101.089c-1.016,0-1.645-0.466-2.096-1.004v0.879
	h-1.908v-9.161h1.908v3.401c0.464-0.627,1.104-1.092,2.096-1.092c1.568,0,3.062,1.229,3.062,3.477v0.024
	C42.014,99.86,40.546,101.089,38.953,101.089"/>
<rect x="43.638" y="91.802" fill="#FFFFFF" width="1.907" height="9.162"/>
<path fill="#FFFFFF" d="M50.466,95.643c-0.79,0-1.305,0.563-1.456,1.431h2.873C51.772,96.22,51.269,95.643,50.466,95.643
	 M53.717,98.265h-4.681c0.188,0.867,0.791,1.318,1.644,1.318c0.64,0,1.104-0.201,1.63-0.69l1.093,0.966
	c-0.627,0.779-1.531,1.255-2.748,1.255c-2.021,0-3.514-1.418-3.514-3.475v-0.026c0-1.92,1.366-3.501,3.325-3.501
	c2.247,0,3.275,1.745,3.275,3.651v0.025C53.741,97.976,53.729,98.089,53.717,98.265"/>
<path fill="#FFFFFF" d="M63.647,100.963v-3.751c0-0.905-0.401-1.369-1.117-1.369c-0.715,0-1.154,0.464-1.154,1.369v3.751h-1.908
	v-3.751c0-0.905-0.403-1.369-1.118-1.369c-0.714,0-1.153,0.464-1.153,1.369v3.751H55.29v-6.727h1.908v0.953
	c0.438-0.564,1.016-1.078,1.982-1.078c0.877,0,1.543,0.389,1.895,1.066c0.589-0.69,1.292-1.066,2.208-1.066
	c1.419,0,2.272,0.853,2.272,2.471v4.38H63.647z"/>
<path fill="#FFFFFF" d="M15.924,116.157c-1.331,0-2.673-0.466-3.728-1.406l1.144-1.367c0.791,0.651,1.617,1.066,2.622,1.066
	c0.791,0,1.267-0.315,1.267-0.828v-0.025c0-0.489-0.301-0.742-1.77-1.118c-1.77-0.452-2.911-0.941-2.911-2.685v-0.025
	c0-1.594,1.28-2.648,3.074-2.648c1.28,0,2.373,0.401,3.263,1.117l-1.002,1.456c-0.779-0.539-1.544-0.866-2.286-0.866
	c-0.739,0-1.129,0.34-1.129,0.766v0.025c0,0.577,0.377,0.766,1.895,1.155c1.784,0.464,2.787,1.104,2.787,2.636v0.024
	C19.149,115.178,17.819,116.157,15.924,116.157"/>
<path fill="#FFFFFF" d="M23.032,116.144c-1.167,0-1.958-0.465-1.958-2.021v-3.188h-0.803v-1.63h0.803v-1.72h1.907v1.72h1.583v1.63
	h-1.583v2.875c0,0.438,0.189,0.652,0.616,0.652c0.351,0,0.664-0.089,0.94-0.24v1.531C24.136,115.993,23.671,116.144,23.032,116.144"
	/>
<path fill="#FFFFFF" d="M30.075,113.32c-0.327-0.149-0.753-0.25-1.217-0.25c-0.816,0-1.317,0.327-1.317,0.929v0.024
	c0,0.515,0.427,0.816,1.04,0.816c0.892,0,1.495-0.489,1.495-1.181V113.32z M30.038,116.031v-0.728
	c-0.464,0.514-1.105,0.853-2.034,0.853c-1.268,0-2.31-0.728-2.31-2.057v-0.025c0-1.47,1.117-2.147,2.711-2.147
	c0.679,0,1.168,0.113,1.644,0.276v-0.112c0-0.791-0.49-1.23-1.443-1.23c-0.728,0-1.243,0.139-1.858,0.365l-0.476-1.457
	c0.74-0.324,1.469-0.538,2.611-0.538c2.083,0,2.999,1.078,2.999,2.898v3.902H30.038z"/>
<path fill="#FFFFFF" d="M35.926,116.144c-1.167,0-1.958-0.465-1.958-2.021v-3.188h-0.802v-1.63h0.802v-1.72h1.907v1.72h1.583v1.63
	h-1.583v2.875c0,0.438,0.189,0.652,0.616,0.652c0.351,0,0.664-0.089,0.94-0.24v1.531C37.032,115.993,36.566,116.144,35.926,116.144"
	/>
<path fill="#FFFFFF" d="M41.991,110.71c-0.791,0-1.306,0.564-1.456,1.43h2.874C43.296,111.288,42.793,110.71,41.991,110.71
	 M45.242,113.333H40.56c0.188,0.866,0.791,1.318,1.644,1.318c0.64,0,1.105-0.201,1.631-0.69l1.093,0.968
	c-0.628,0.777-1.532,1.254-2.75,1.254c-2.02,0-3.513-1.418-3.513-3.476v-0.026c0-1.919,1.367-3.501,3.325-3.501
	c2.247,0,3.274,1.745,3.274,3.651v0.024C45.265,113.044,45.253,113.157,45.242,113.333"/>
<path fill="#FFFFFF" d="M55.172,116.031v-3.751c0-0.905-0.401-1.369-1.117-1.369c-0.715,0-1.153,0.463-1.153,1.369v3.751h-1.908
	v-3.751c0-0.905-0.403-1.369-1.117-1.369c-0.715,0-1.153,0.463-1.153,1.369v3.751h-1.908v-6.727h1.908v0.953
	c0.438-0.563,1.016-1.078,1.983-1.078c0.877,0,1.542,0.39,1.895,1.066c0.589-0.69,1.292-1.066,2.208-1.066
	c1.419,0,2.272,0.853,2.272,2.472v4.38H55.172z"/>
<path fill="#FFFFFF" d="M61.868,110.71c-0.791,0-1.306,0.564-1.456,1.43h2.873C63.173,111.288,62.67,110.71,61.868,110.71
	 M65.118,113.333h-4.681c0.188,0.866,0.791,1.318,1.644,1.318c0.64,0,1.105-0.201,1.63-0.69l1.094,0.968
	c-0.628,0.777-1.532,1.254-2.75,1.254c-2.02,0-3.514-1.418-3.514-3.476v-0.026c0-1.919,1.367-3.501,3.326-3.501
	c2.247,0,3.274,1.745,3.274,3.651v0.024C65.142,113.044,65.13,113.157,65.118,113.333"/>
<path fill="#FFFFFF" d="M70.945,116.031v-3.751c0-0.905-0.426-1.369-1.153-1.369c-0.729,0-1.191,0.463-1.191,1.369v3.751h-1.908
	v-6.727H68.6v0.953c0.438-0.563,1.002-1.078,1.969-1.078c1.442,0,2.284,0.953,2.284,2.498v4.354H70.945z"/>
<path fill="#FFFFFF" d="M76.91,116.144c-1.167,0-1.958-0.465-1.958-2.021v-3.188h-0.803v-1.63h0.803v-1.72h1.907v1.72h1.582v1.63
	h-1.582v2.875c0,0.438,0.189,0.652,0.616,0.652c0.351,0,0.664-0.089,0.94-0.24v1.531C78.013,115.993,77.55,116.144,76.91,116.144"/>
<path fill="#FFFFFF" d="M16.917,177.291c-2.587,0-4.506-1.996-4.506-4.518v-0.025c0-2.497,1.884-4.544,4.581-4.544
	c1.657,0,2.648,0.553,3.463,1.355l-1.229,1.419c-0.678-0.616-1.369-0.992-2.247-0.992c-1.481,0-2.548,1.23-2.548,2.736v0.026
	c0,1.505,1.041,2.761,2.548,2.761c1.002,0,1.619-0.402,2.309-1.029l1.23,1.241C19.614,176.688,18.61,177.291,16.917,177.291"/>
<path fill="#FFFFFF" d="M25.968,174.429c-0.326-0.151-0.753-0.251-1.217-0.251c-0.816,0-1.317,0.327-1.317,0.929v0.026
	c0,0.514,0.426,0.815,1.04,0.815c0.893,0,1.495-0.488,1.495-1.18V174.429z M25.931,177.14v-0.728
	c-0.465,0.515-1.105,0.853-2.033,0.853c-1.268,0-2.309-0.728-2.309-2.057v-0.025c0-1.47,1.116-2.147,2.71-2.147
	c0.678,0,1.167,0.113,1.644,0.276V173.2c0-0.791-0.489-1.23-1.442-1.23c-0.729,0-1.242,0.138-1.858,0.363l-0.477-1.456
	c0.74-0.325,1.47-0.539,2.611-0.539c2.083,0,2.999,1.08,2.999,2.9v3.902H25.931z"/>
<path fill="#FFFFFF" d="M31.821,177.252c-1.167,0-1.958-0.463-1.958-2.02v-3.188h-0.802v-1.631h0.802v-1.72h1.907v1.72h1.583v1.631
	H31.77v2.873c0,0.44,0.189,0.654,0.616,0.654c0.351,0,0.664-0.087,0.94-0.238v1.53C32.926,177.103,32.46,177.252,31.821,177.252"/>
<path fill="#FFFFFF" d="M37.885,171.818c-0.791,0-1.306,0.564-1.456,1.431h2.874C39.19,172.396,38.689,171.818,37.885,171.818
	 M41.136,174.442h-4.682c0.188,0.866,0.791,1.316,1.644,1.316c0.64,0,1.105-0.199,1.631-0.689l1.093,0.966
	c-0.628,0.777-1.532,1.255-2.75,1.255c-2.02,0-3.513-1.419-3.513-3.477v-0.024c0-1.921,1.368-3.501,3.325-3.501
	c2.247,0,3.276,1.744,3.276,3.65v0.026C41.161,174.152,41.148,174.265,41.136,174.442"/>
<path fill="#FFFFFF" d="M47.59,173.425c0-0.917-0.714-1.556-1.644-1.556c-0.928,0-1.631,0.64-1.631,1.556v0.025
	c0,0.93,0.703,1.556,1.631,1.556c0.93,0,1.644-0.639,1.644-1.556V173.425z M45.721,179.173c-1.092,0-2.12-0.25-2.974-0.703
	l0.652-1.43c0.691,0.389,1.381,0.614,2.271,0.614c1.307,0,1.92-0.627,1.92-1.832v-0.327c-0.564,0.678-1.179,1.092-2.196,1.092
	c-1.567,0-2.986-1.142-2.986-3.138v-0.025c0-2.008,1.443-3.138,2.986-3.138c1.043,0,1.658,0.439,2.172,1.004v-0.879h1.907v5.208
	C49.473,178.157,48.218,179.173,45.721,179.173"/>
<path fill="#FFFFFF" d="M56.38,173.79c0-0.992-0.716-1.858-1.77-1.858c-1.093,0-1.745,0.841-1.745,1.832v0.026
	c0,0.989,0.715,1.856,1.77,1.856c1.092,0,1.745-0.841,1.745-1.832V173.79z M54.611,177.291c-2.084,0-3.627-1.544-3.627-3.477v-0.024
	c0-1.933,1.556-3.501,3.651-3.501c2.084,0,3.627,1.543,3.627,3.475v0.026C58.263,175.721,56.707,177.291,54.611,177.291"/>
<path fill="#FFFFFF" d="M63.726,172.283c-1.268,0-2.045,0.766-2.045,2.373v2.483h-1.908v-6.725h1.908v1.355
	c0.389-0.928,1.018-1.531,2.145-1.482v1.996H63.726z"/>
<path fill="#FFFFFF" d="M68.961,177.303c-0.513,1.369-1.066,1.883-2.208,1.883c-0.69,0-1.206-0.176-1.694-0.463l0.64-1.38
	c0.251,0.148,0.565,0.262,0.814,0.262c0.328,0,0.503-0.099,0.667-0.438l-2.636-6.752h2.02l1.532,4.58l1.467-4.58h1.982
	L68.961,177.303z"/>
<polygon fill="#FFFFFF" points="17.305,252.751 15.599,252.751 12.047,243.906 14.179,243.906 16.476,250.091 18.773,243.906 
	20.856,243.906 "/>
<path fill="#FFFFFF" d="M26.12,249.978c-0.327-0.149-0.753-0.25-1.218-0.25c-0.815,0-1.317,0.327-1.317,0.929v0.024
	c0,0.515,0.426,0.816,1.04,0.816c0.892,0,1.495-0.489,1.495-1.181V249.978z M26.083,252.689v-0.728
	c-0.464,0.515-1.105,0.853-2.034,0.853c-1.268,0-2.309-0.728-2.309-2.057v-0.025c0-1.47,1.117-2.146,2.711-2.146
	c0.678,0,1.168,0.113,1.644,0.275v-0.111c0-0.791-0.49-1.23-1.443-1.23c-0.728,0-1.243,0.139-1.859,0.364l-0.476-1.457
	c0.74-0.324,1.469-0.538,2.61-0.538c2.083,0,2.999,1.078,2.999,2.898v3.902H26.083z"/>
<rect x="29.789" y="243.528" fill="#FFFFFF" width="1.907" height="9.161"/>
<path fill="#FFFFFF" d="M37.822,252.689v-0.953c-0.438,0.564-1.003,1.078-1.969,1.078c-1.443,0-2.285-0.953-2.285-2.497v-4.354
	h1.908v3.753c0,0.903,0.427,1.367,1.154,1.367c0.729,0,1.192-0.464,1.192-1.367v-3.753h1.908v6.727H37.822z"/>
<path fill="#FFFFFF" d="M44.565,247.369c-0.791,0-1.306,0.564-1.456,1.43h2.873C45.87,247.946,45.368,247.369,44.565,247.369
	 M47.815,249.992h-4.682c0.188,0.865,0.791,1.317,1.645,1.317c0.64,0,1.105-0.2,1.63-0.69l1.092,0.968
	c-0.627,0.777-1.531,1.254-2.748,1.254c-2.02,0-3.514-1.418-3.514-3.476v-0.025c0-1.92,1.367-3.502,3.326-3.502
	c2.247,0,3.274,1.744,3.274,3.651v0.024C47.839,249.703,47.827,249.816,47.815,249.992"/>
<path fill="#FFFFFF" d="M17.794,262.047c0-0.867-0.602-1.331-1.569-1.331h-1.494v2.686h1.531c0.965,0,1.532-0.577,1.532-1.33
	V262.047z M16.2,265.122h-1.468v2.636h-1.931v-8.784h3.589c2.094,0,3.363,1.242,3.363,3.035v0.026
	C19.752,264.067,18.171,265.122,16.2,265.122"/>
<path fill="#FFFFFF" d="M25.065,262.9c-1.268,0-2.045,0.766-2.045,2.373v2.484h-1.908v-6.726h1.908v1.354
	c0.389-0.929,1.018-1.531,2.146-1.482v1.996H25.065z"/>
<path fill="#FFFFFF" d="M31.556,264.407c0-0.992-0.716-1.858-1.769-1.858c-1.092,0-1.745,0.843-1.745,1.832v0.026
	c0,0.991,0.715,1.856,1.769,1.856c1.093,0,1.746-0.841,1.746-1.832V264.407z M29.787,267.908c-2.084,0-3.627-1.544-3.627-3.477
	v-0.024c0-1.933,1.556-3.501,3.65-3.501c2.084,0,3.628,1.544,3.628,3.475v0.026C33.438,266.339,31.882,267.908,29.787,267.908"/>
<path fill="#FFFFFF" d="M40.106,264.38c0-1.117-0.752-1.856-1.643-1.856c-0.892,0-1.632,0.739-1.632,1.856v0.026
	c0,1.117,0.74,1.856,1.632,1.856c0.891,0,1.643-0.728,1.643-1.856V264.38z M38.953,267.882c-1.016,0-1.645-0.465-2.096-1.004v2.887
	h-1.908v-8.734h1.908v0.967c0.464-0.629,1.104-1.092,2.096-1.092c1.568,0,3.062,1.229,3.062,3.475v0.026
	C42.014,266.653,40.546,267.882,38.953,267.882"/>
<path fill="#FFFFFF" d="M48.62,264.407c0-0.992-0.716-1.858-1.77-1.858c-1.092,0-1.745,0.843-1.745,1.832v0.026
	c0,0.991,0.716,1.856,1.769,1.856c1.092,0,1.746-0.841,1.746-1.832V264.407z M46.85,267.908c-2.084,0-3.626-1.544-3.626-3.477
	v-0.024c0-1.933,1.556-3.501,3.65-3.501c2.084,0,3.628,1.544,3.628,3.475v0.026C50.502,266.339,48.946,267.908,46.85,267.908"/>
<path fill="#FFFFFF" d="M54.372,267.882c-0.941,0-1.995-0.313-2.887-1.016l0.816-1.256c0.728,0.527,1.493,0.804,2.121,0.804
	c0.552,0,0.803-0.202,0.803-0.503v-0.024c0-0.414-0.652-0.552-1.394-0.777c-0.941-0.276-2.008-0.716-2.008-2.021v-0.025
	c0-1.368,1.104-2.134,2.46-2.134c0.854,0,1.783,0.289,2.51,0.777l-0.727,1.317c-0.666-0.388-1.331-0.626-1.82-0.626
	c-0.464,0-0.703,0.199-0.703,0.464v0.025c0,0.375,0.639,0.553,1.368,0.803c0.941,0.314,2.032,0.766,2.032,1.996v0.024
	C56.944,267.204,55.828,267.882,54.372,267.882"/>
<path fill="#FFFFFF" d="M58.53,261.031h1.907v6.727H58.53V261.031z M58.479,258.597h2.008v1.692h-2.008V258.597z"/>
<path fill="#FFFFFF" d="M64.63,267.871c-1.167,0-1.957-0.465-1.957-2.021v-3.188H61.87v-1.63h0.803v-1.72h1.907v1.72h1.583v1.63
	H64.58v2.874c0,0.44,0.189,0.652,0.616,0.652c0.35,0,0.664-0.087,0.94-0.238v1.531C65.735,267.719,65.271,267.871,64.63,267.871"/>
<path fill="#FFFFFF" d="M67.782,261.031h1.907v6.727h-1.907V261.031z M67.733,258.597h2.008v1.692h-2.008V258.597z"/>
<path fill="#FFFFFF" d="M76.683,264.407c0-0.992-0.716-1.858-1.77-1.858c-1.092,0-1.746,0.843-1.746,1.832v0.026
	c0,0.991,0.716,1.856,1.77,1.856c1.092,0,1.746-0.841,1.746-1.832V264.407z M74.913,267.908c-2.084,0-3.626-1.544-3.626-3.477
	v-0.024c0-1.933,1.556-3.501,3.65-3.501c2.084,0,3.628,1.544,3.628,3.475v0.026C78.565,266.339,77.009,267.908,74.913,267.908"/>
<path fill="#FFFFFF" d="M84.329,267.757v-3.753c0-0.903-0.427-1.367-1.153-1.367c-0.729,0-1.192,0.464-1.192,1.367v3.753h-1.908
	v-6.727h1.908v0.953c0.438-0.564,1.002-1.078,1.969-1.078c1.442,0,2.284,0.953,2.284,2.497v4.354H84.329z"/>
<path fill="#FFFFFF" d="M16.917,329.856c-2.587,0-4.506-1.996-4.506-4.519v-0.024c0-2.499,1.884-4.544,4.581-4.544
	c1.657,0,2.648,0.552,3.463,1.356l-1.229,1.418c-0.678-0.616-1.369-0.991-2.247-0.991c-1.481,0-2.548,1.229-2.548,2.733v0.027
	c0,1.505,1.041,2.761,2.548,2.761c1.002,0,1.619-0.402,2.309-1.029l1.23,1.241C19.614,329.253,18.61,329.856,16.917,329.856"/>
<path fill="#FFFFFF" d="M27.061,326.353c0-0.99-0.716-1.856-1.77-1.856c-1.093,0-1.746,0.841-1.746,1.832v0.024
	c0,0.991,0.715,1.858,1.77,1.858c1.092,0,1.746-0.84,1.746-1.832V326.353z M25.292,329.856c-2.084,0-3.626-1.544-3.626-3.477v-0.026
	c0-1.932,1.556-3.5,3.65-3.5c2.084,0,3.628,1.543,3.628,3.476v0.024C28.944,328.286,27.388,329.856,25.292,329.856"/>
<path fill="#FFFFFF" d="M38.811,329.705v-3.752c0-0.904-0.401-1.367-1.117-1.367c-0.715,0-1.153,0.463-1.153,1.367v3.752h-1.908
	v-3.752c0-0.904-0.403-1.367-1.117-1.367c-0.715,0-1.153,0.463-1.153,1.367v3.752h-1.908v-6.725h1.908v0.951
	c0.438-0.564,1.016-1.079,1.983-1.079c0.877,0,1.542,0.39,1.895,1.067c0.589-0.691,1.292-1.067,2.208-1.067
	c1.419,0,2.272,0.854,2.272,2.473v4.38H38.811z"/>
<path fill="#FFFFFF" d="M47.665,326.329c0-1.116-0.753-1.856-1.644-1.856c-0.892,0-1.631,0.74-1.631,1.856v0.024
	c0,1.119,0.74,1.858,1.631,1.858c0.891,0,1.644-0.727,1.644-1.858V326.329z M46.511,329.832c-1.016,0-1.644-0.467-2.096-1.006v2.887
	h-1.908v-8.734h1.908v0.968c0.463-0.628,1.104-1.094,2.096-1.094c1.568,0,3.061,1.23,3.061,3.477v0.024
	C49.572,328.601,48.104,329.832,46.511,329.832"/>
<path fill="#FFFFFF" d="M54.108,324.384c-0.791,0-1.305,0.564-1.456,1.43h2.874C55.413,324.96,54.912,324.384,54.108,324.384
	 M57.359,327.005h-4.682c0.188,0.867,0.791,1.319,1.644,1.319c0.64,0,1.105-0.2,1.631-0.691l1.093,0.968
	c-0.628,0.778-1.532,1.254-2.75,1.254c-2.02,0-3.513-1.417-3.513-3.476v-0.026c0-1.919,1.368-3.501,3.325-3.501
	c2.247,0,3.276,1.746,3.276,3.652v0.026C57.384,326.718,57.371,326.832,57.359,327.005"/>
<path fill="#FFFFFF" d="M61.202,329.817c-1.167,0-1.957-0.465-1.957-2.02v-3.188h-0.803v-1.632h0.803v-1.719h1.907v1.719h1.583
	v1.632h-1.583v2.874c0,0.438,0.189,0.652,0.616,0.652c0.351,0,0.664-0.088,0.94-0.238v1.529
	C62.307,329.667,61.842,329.817,61.202,329.817"/>
<path fill="#FFFFFF" d="M64.356,322.978h1.906v6.726h-1.906V322.978z M64.305,320.544h2.006v1.694h-2.006V320.544z"/>
<path fill="#FFFFFF" d="M70.456,329.817c-1.167,0-1.957-0.465-1.957-2.02v-3.188h-0.803v-1.632h0.803v-1.719h1.907v1.719h1.583
	v1.632h-1.583v2.874c0,0.438,0.189,0.652,0.616,0.652c0.351,0,0.666-0.088,0.94-0.238v1.529
	C71.561,329.667,71.095,329.817,70.456,329.817"/>
<path fill="#FFFFFF" d="M73.61,322.978h1.907v6.726H73.61V322.978z M73.56,320.544h2.008v1.694H73.56V320.544z"/>
<polygon fill="#FFFFFF" points="81.214,329.754 79.482,329.754 76.835,322.978 78.855,322.978 80.362,327.485 81.88,322.978 
	83.863,322.978 "/>
<path fill="#FFFFFF" d="M88.097,324.384c-0.791,0-1.305,0.564-1.457,1.43h2.874C89.402,324.96,88.9,324.384,88.097,324.384
	 M91.348,327.005h-4.682c0.188,0.867,0.791,1.319,1.645,1.319c0.64,0,1.105-0.2,1.63-0.691l1.092,0.968
	c-0.627,0.778-1.531,1.254-2.748,1.254c-2.02,0-3.514-1.417-3.514-3.476v-0.026c0-1.919,1.367-3.501,3.326-3.501
	c2.247,0,3.275,1.746,3.275,3.652v0.026C91.372,326.718,91.359,326.832,91.348,327.005"/>
<path fill="#FFFFFF" d="M18.874,340.38c0-1.556-1.067-2.648-2.648-2.648h-1.493v5.295h1.493c1.581,0,2.648-1.066,2.648-2.621V340.38
	z M16.226,344.773h-3.427v-8.784h3.427c2.76,0,4.668,1.894,4.668,4.364v0.027C20.894,342.852,18.986,344.773,16.226,344.773"/>
<path fill="#FFFFFF" d="M22.506,338.047h1.907v6.726h-1.907V338.047z M22.457,335.611h2.007v1.694h-2.007V335.611z"/>
<path fill="#FFFFFF" d="M29.108,337.129c-0.439,0-0.691,0.226-0.691,0.728v0.265h1.544v1.556h-1.519v5.094h-1.907v-5.094h-0.792
	v-1.568h0.792v-0.428c0-1.48,0.74-2.158,2.083-2.158c0.602,0,1.004,0.075,1.355,0.188v1.582
	C29.698,337.193,29.435,337.129,29.108,337.129"/>
<path fill="#FFFFFF" d="M33.905,337.129c-0.439,0-0.691,0.226-0.691,0.728v0.265h1.544v1.556H33.24v5.094h-1.907v-5.094h-0.792
	v-1.568h0.792v-0.428c0-1.48,0.74-2.158,2.083-2.158c0.603,0,1.005,0.075,1.355,0.188v1.582
	C34.495,337.193,34.232,337.129,33.905,337.129"/>
<path fill="#FFFFFF" d="M38.801,339.453c-0.791,0-1.306,0.563-1.456,1.428h2.873C40.106,340.028,39.604,339.453,38.801,339.453
	 M42.052,342.074h-4.681c0.188,0.867,0.791,1.318,1.644,1.318c0.64,0,1.105-0.2,1.631-0.691l1.093,0.968
	c-0.628,0.778-1.532,1.254-2.75,1.254c-2.02,0-3.513-1.417-3.513-3.476v-0.025c0-1.92,1.367-3.502,3.325-3.502
	c2.247,0,3.276,1.746,3.276,3.652v0.025C42.077,341.786,42.064,341.899,42.052,342.074"/>
<path fill="#FFFFFF" d="M47.453,339.915c-1.268,0-2.045,0.766-2.045,2.372v2.486h-1.908v-6.727h1.908v1.354
	c0.389-0.928,1.016-1.529,2.145-1.479v1.993H47.453z"/>
<path fill="#FFFFFF" d="M51.747,339.453c-0.791,0-1.306,0.563-1.457,1.428h2.874C53.052,340.028,52.55,339.453,51.747,339.453
	 M54.997,342.074h-4.682c0.188,0.867,0.791,1.318,1.645,1.318c0.64,0,1.105-0.2,1.63-0.691l1.094,0.968
	c-0.628,0.778-1.533,1.254-2.75,1.254c-2.02,0-3.514-1.417-3.514-3.476v-0.025c0-1.92,1.367-3.502,3.326-3.502
	c2.247,0,3.276,1.746,3.276,3.652v0.025C55.022,341.786,55.009,341.899,54.997,342.074"/>
<path fill="#FFFFFF" d="M60.698,344.773v-3.753c0-0.903-0.427-1.367-1.154-1.367c-0.729,0-1.193,0.464-1.193,1.367v3.753h-1.907
	v-6.726h1.907V339c0.44-0.565,1.004-1.08,1.971-1.08c1.443,0,2.284,0.955,2.284,2.498v4.355H60.698z"/>
<path fill="#FFFFFF" d="M66.538,344.884c-1.167,0-1.957-0.465-1.957-2.02v-3.188h-0.803v-1.631h0.803v-1.719h1.906v1.719h1.583
	v1.631h-1.583v2.874c0,0.438,0.189,0.652,0.616,0.652c0.351,0,0.664-0.089,0.94-0.238v1.53
	C67.644,344.735,67.178,344.884,66.538,344.884"/>
<path fill="#FFFFFF" d="M69.566,338.047h1.907v6.726h-1.907V338.047z M69.516,335.611h2.008v1.694h-2.008V335.611z"/>
<path fill="#FFFFFF" d="M77.248,342.062c-0.327-0.151-0.753-0.252-1.217-0.252c-0.815,0-1.317,0.327-1.317,0.929v0.027
	c0,0.513,0.427,0.813,1.04,0.813c0.892,0,1.495-0.488,1.495-1.18V342.062z M77.21,344.773v-0.727
	c-0.463,0.513-1.104,0.853-2.033,0.853c-1.268,0-2.309-0.728-2.309-2.059v-0.027c0-1.468,1.117-2.145,2.711-2.145
	c0.678,0,1.168,0.113,1.644,0.277v-0.113c0-0.792-0.489-1.23-1.442-1.23c-0.728,0-1.243,0.138-1.859,0.363l-0.476-1.456
	c0.739-0.325,1.469-0.539,2.61-0.539c2.083,0,2.999,1.08,2.999,2.898v3.904H77.21z"/>
<path fill="#FFFFFF" d="M82.974,344.884c-1.167,0-1.957-0.465-1.957-2.02v-3.188h-0.803v-1.631h0.803v-1.719h1.906v1.719h1.582
	v1.631h-1.582v2.874c0,0.438,0.189,0.652,0.616,0.652c0.351,0,0.664-0.089,0.94-0.238v1.53
	C84.08,344.735,83.614,344.884,82.974,344.884"/>
<path fill="#FFFFFF" d="M86.001,338.047h1.907v6.726h-1.907V338.047z M85.951,335.611h2.007v1.694h-2.007V335.611z"/>
<path fill="#FFFFFF" d="M94.776,341.419c0-0.989-0.716-1.855-1.77-1.855c-1.092,0-1.746,0.842-1.746,1.832v0.023
	c0,0.992,0.716,1.859,1.771,1.859c1.09,0,1.744-0.84,1.744-1.832V341.419z M93.007,344.922c-2.084,0-3.627-1.543-3.627-3.476v-0.027
	c0-1.931,1.557-3.5,3.652-3.5c2.083,0,3.627,1.545,3.627,3.477v0.023C96.659,343.353,95.103,344.922,93.007,344.922"/>
<path fill="#FFFFFF" d="M102.296,344.773v-3.753c0-0.903-0.426-1.367-1.153-1.367c-0.73,0-1.192,0.464-1.192,1.367v3.753h-1.908
	v-6.726h1.908V339c0.438-0.565,1.003-1.08,1.97-1.08c1.442,0,2.284,0.955,2.284,2.498v4.355H102.296z"/>
<g>
	<path d="M133.033,23.971h4.104v0.825h-3.109v2.533h2.872v0.814h-2.872v3.449h-0.995V23.971z"/>
	<path d="M143.466,28.811c0,2.024-1.414,2.906-2.725,2.906c-1.47,0-2.623-1.085-2.623-2.815c0-1.82,1.21-2.895,2.713-2.895
		C142.403,26.006,143.466,27.148,143.466,28.811z M139.135,28.867c0,1.199,0.678,2.103,1.651,2.103c0.95,0,1.662-0.893,1.662-2.125
		c0-0.927-0.464-2.092-1.64-2.092C139.644,26.752,139.135,27.838,139.135,28.867z"/>
	<path d="M144.717,27.827c0-0.645-0.011-1.199-0.045-1.708h0.871l0.045,1.085h0.034c0.249-0.735,0.859-1.198,1.526-1.198
		c0.102,0,0.181,0.011,0.271,0.022v0.938c-0.102-0.022-0.204-0.022-0.339-0.022c-0.701,0-1.198,0.52-1.334,1.266
		c-0.023,0.136-0.034,0.305-0.034,0.464v2.917h-0.995V27.827z"/>
</g>
<g>
	<path d="M153.024,31.004c0-0.407,0.283-0.712,0.678-0.712c0.396,0,0.667,0.294,0.667,0.712c0,0.407-0.271,0.712-0.689,0.712
		C153.295,31.716,153.024,31.411,153.024,31.004z M156.79,31.004c0-0.407,0.283-0.712,0.678-0.712c0.396,0,0.667,0.294,0.667,0.712
		c0,0.407-0.271,0.712-0.689,0.712C157.061,31.716,156.79,31.411,156.79,31.004z M160.555,31.004c0-0.407,0.283-0.712,0.678-0.712
		c0.396,0,0.667,0.294,0.667,0.712c0,0.407-0.271,0.712-0.689,0.712C160.826,31.716,160.555,31.411,160.555,31.004z"/>
</g>
<g>
	<path d="M134.288,107.556l-1.934-7.621h1.041l0.904,3.855c0.226,0.95,0.43,1.899,0.565,2.634h0.022
		c0.125-0.757,0.362-1.662,0.622-2.646l1.018-3.844h1.029l0.927,3.867c0.215,0.905,0.418,1.809,0.531,2.612h0.023
		c0.158-0.836,0.373-1.685,0.61-2.634l1.006-3.844h1.006l-2.16,7.621h-1.029l-0.961-3.969c-0.238-0.972-0.396-1.719-0.498-2.487
		h-0.023c-0.124,0.757-0.305,1.504-0.588,2.487l-1.085,3.969H134.288z"/>
	<path d="M142.57,99.528h0.995v3.426h0.022c0.159-0.282,0.407-0.542,0.712-0.712c0.294-0.17,0.645-0.271,1.018-0.271
		c0.735,0,1.911,0.452,1.911,2.329v3.256h-0.995v-3.143c0-0.882-0.328-1.617-1.266-1.617c-0.645,0-1.142,0.452-1.334,0.984
		c-0.057,0.147-0.068,0.294-0.068,0.475v3.302h-0.995V99.528z"/>
	<path d="M153.794,104.774c0,2.024-1.414,2.906-2.725,2.906c-1.47,0-2.623-1.085-2.623-2.815c0-1.82,1.21-2.895,2.713-2.895
		C152.731,101.97,153.794,103.112,153.794,104.774z M149.464,104.831c0,1.199,0.678,2.103,1.651,2.103
		c0.95,0,1.662-0.893,1.662-2.125c0-0.927-0.464-2.092-1.64-2.092C149.973,102.716,149.464,103.802,149.464,104.831z"/>
	<path d="M157.441,103.564c0-0.577-0.011-1.029-0.045-1.481h0.882l0.057,0.905h0.022c0.271-0.509,0.905-1.018,1.809-1.018
		c0.758,0,1.934,0.452,1.934,2.329v3.256h-0.995v-3.155c0-0.882-0.328-1.617-1.266-1.617c-0.645,0-1.153,0.463-1.334,1.018
		c-0.045,0.125-0.068,0.294-0.068,0.464v3.29h-0.995V103.564z"/>
	<path d="M164.268,105c0.022,1.345,0.871,1.899,1.877,1.899c0.712,0,1.153-0.125,1.515-0.283l0.181,0.712
		c-0.35,0.158-0.961,0.351-1.832,0.351c-1.685,0-2.691-1.12-2.691-2.771c0-1.65,0.972-2.939,2.566-2.939
		c1.798,0,2.262,1.56,2.262,2.566c0,0.204-0.012,0.351-0.034,0.464H164.268z M167.185,104.288c0.012-0.622-0.26-1.605-1.379-1.605
		c-1.018,0-1.447,0.916-1.526,1.605H167.185z"/>
	<path d="M169.929,105c0.022,1.345,0.871,1.899,1.877,1.899c0.712,0,1.153-0.125,1.515-0.283l0.181,0.712
		c-0.35,0.158-0.961,0.351-1.832,0.351c-1.685,0-2.691-1.12-2.691-2.771c0-1.65,0.972-2.939,2.566-2.939
		c1.798,0,2.262,1.56,2.262,2.566c0,0.204-0.012,0.351-0.034,0.464H169.929z M172.846,104.288c0.012-0.622-0.26-1.605-1.379-1.605
		c-1.018,0-1.447,0.916-1.526,1.605H172.846z"/>
	<path d="M179.751,99.528v6.614c0,0.486,0.022,1.041,0.045,1.414h-0.882l-0.045-0.95h-0.034c-0.294,0.61-0.95,1.074-1.843,1.074
		c-1.323,0-2.352-1.12-2.352-2.782c-0.011-1.82,1.131-2.928,2.454-2.928c0.848,0,1.402,0.396,1.651,0.825h0.022v-3.268H179.751z
		 M178.768,104.311c0-0.125-0.011-0.294-0.045-0.418c-0.147-0.622-0.689-1.142-1.436-1.142c-1.029,0-1.64,0.904-1.64,2.103
		c0,1.108,0.554,2.024,1.617,2.024c0.667,0,1.278-0.453,1.458-1.188c0.034-0.136,0.045-0.271,0.045-0.43V104.311z"/>
	<path d="M181.274,106.549c0.305,0.181,0.825,0.384,1.323,0.384c0.712,0,1.051-0.35,1.051-0.814c0-0.475-0.283-0.724-1.006-0.995
		c-0.995-0.362-1.458-0.893-1.458-1.549c0-0.882,0.724-1.605,1.888-1.605c0.554,0,1.041,0.147,1.334,0.339l-0.237,0.724
		c-0.215-0.135-0.611-0.328-1.12-0.328c-0.588,0-0.904,0.339-0.904,0.746c0,0.453,0.316,0.656,1.029,0.938
		c0.938,0.351,1.436,0.826,1.436,1.64c0,0.972-0.758,1.651-2.035,1.651c-0.6,0-1.153-0.158-1.538-0.385L181.274,106.549z"/>
	<path d="M193.233,104.774c0,2.024-1.414,2.906-2.725,2.906c-1.47,0-2.623-1.085-2.623-2.815c0-1.82,1.21-2.895,2.713-2.895
		C192.17,101.97,193.233,103.112,193.233,104.774z M188.902,104.831c0,1.199,0.678,2.103,1.651,2.103
		c0.95,0,1.662-0.893,1.662-2.125c0-0.927-0.464-2.092-1.64-2.092C189.411,102.716,188.902,103.802,188.902,104.831z"/>
	<path d="M194.484,103.791c0-0.645-0.011-1.199-0.045-1.708h0.871l0.045,1.085h0.034c0.249-0.735,0.859-1.198,1.526-1.198
		c0.102,0,0.181,0.011,0.271,0.022v0.938c-0.102-0.022-0.204-0.022-0.339-0.022c-0.701,0-1.199,0.52-1.334,1.266
		c-0.023,0.136-0.034,0.305-0.034,0.464v2.917h-0.995V103.791z"/>
	<path d="M200.971,102.083l0.735,2.782c0.147,0.61,0.294,1.176,0.396,1.741h0.034c0.125-0.554,0.305-1.142,0.486-1.73l0.893-2.793
		h0.837l0.848,2.736c0.204,0.656,0.362,1.232,0.486,1.787h0.034c0.09-0.554,0.237-1.131,0.418-1.775l0.78-2.748h0.984l-1.764,5.473
		h-0.904l-0.837-2.612c-0.192-0.611-0.351-1.153-0.486-1.798h-0.022c-0.136,0.656-0.305,1.221-0.498,1.809l-0.882,2.601h-0.904
		l-1.651-5.473H200.971z"/>
	<path d="M212.737,106.244c0,0.475,0.022,0.938,0.079,1.312h-0.894l-0.079-0.69h-0.034c-0.306,0.43-0.894,0.814-1.673,0.814
		c-1.108,0-1.674-0.78-1.674-1.572c0-1.323,1.176-2.046,3.291-2.035v-0.113c0-0.441-0.125-1.266-1.244-1.255
		c-0.52,0-1.052,0.147-1.436,0.407l-0.226-0.667c0.452-0.283,1.119-0.475,1.809-0.475c1.673,0,2.081,1.142,2.081,2.228V106.244z
		 M211.776,104.763c-1.085-0.022-2.318,0.17-2.318,1.232c0,0.656,0.43,0.95,0.927,0.95c0.724,0,1.187-0.453,1.346-0.916
		c0.034-0.113,0.045-0.226,0.045-0.316V104.763z"/>
	<path d="M214.339,103.564c0-0.577-0.011-1.029-0.045-1.481h0.882l0.057,0.905h0.022c0.271-0.509,0.905-1.018,1.809-1.018
		c0.758,0,1.934,0.452,1.934,2.329v3.256h-0.995v-3.155c0-0.882-0.328-1.617-1.266-1.617c-0.645,0-1.153,0.463-1.334,1.018
		c-0.045,0.125-0.068,0.294-0.068,0.464v3.29h-0.995V103.564z"/>
	<path d="M221.81,100.771v1.312h1.425v0.758h-1.425v2.951c0,0.678,0.192,1.063,0.746,1.063c0.271,0,0.43-0.022,0.577-0.068
		l0.045,0.758c-0.192,0.068-0.498,0.136-0.882,0.136c-0.464,0-0.837-0.158-1.074-0.418c-0.271-0.305-0.384-0.792-0.384-1.436v-2.985
		h-0.848v-0.758h0.848v-1.018L221.81,100.771z"/>
	<path d="M224.216,106.549c0.305,0.181,0.825,0.384,1.323,0.384c0.712,0,1.051-0.35,1.051-0.814c0-0.475-0.283-0.724-1.006-0.995
		c-0.995-0.362-1.458-0.893-1.458-1.549c0-0.882,0.724-1.605,1.888-1.605c0.554,0,1.041,0.147,1.334,0.339l-0.237,0.724
		c-0.215-0.135-0.611-0.328-1.12-0.328c-0.588,0-0.904,0.339-0.904,0.746c0,0.453,0.316,0.656,1.029,0.938
		c0.938,0.351,1.436,0.826,1.436,1.64c0,0.972-0.758,1.651-2.036,1.651c-0.599,0-1.153-0.158-1.538-0.385L224.216,106.549z"/>
	<path d="M229.211,106.968c0-0.407,0.283-0.712,0.678-0.712c0.396,0,0.667,0.294,0.667,0.712c0,0.407-0.271,0.712-0.689,0.712
		C229.482,107.68,229.211,107.375,229.211,106.968z M232.977,106.968c0-0.407,0.283-0.712,0.678-0.712
		c0.396,0,0.667,0.294,0.667,0.712c0,0.407-0.271,0.712-0.689,0.712C233.248,107.68,232.977,107.375,232.977,106.968z
		 M236.742,106.968c0-0.407,0.282-0.712,0.679-0.712c0.396,0,0.667,0.294,0.667,0.712c0,0.407-0.271,0.712-0.69,0.712
		C237.013,107.68,236.742,107.375,236.742,106.968z"/>
</g>
<g>
	<path d="M134.027,175.897v7.621h-0.995v-7.621H134.027z"/>
	<path d="M141.951,182.206c0,0.475,0.022,0.938,0.079,1.312h-0.894l-0.079-0.69h-0.034c-0.305,0.43-0.894,0.814-1.673,0.814
		c-1.108,0-1.674-0.78-1.674-1.572c0-1.323,1.176-2.046,3.291-2.035v-0.113c0-0.441-0.125-1.266-1.244-1.255
		c-0.52,0-1.052,0.147-1.436,0.407l-0.226-0.667c0.452-0.283,1.119-0.475,1.809-0.475c1.673,0,2.081,1.142,2.081,2.228V182.206z
		 M140.989,180.725c-1.085-0.022-2.318,0.17-2.318,1.232c0,0.656,0.43,0.95,0.927,0.95c0.724,0,1.187-0.453,1.346-0.916
		c0.034-0.113,0.045-0.226,0.045-0.316V180.725z"/>
	<path d="M143.553,179.526c0-0.577-0.022-1.029-0.045-1.481h0.871l0.045,0.894h0.034c0.305-0.52,0.814-1.006,1.73-1.006
		c0.735,0,1.3,0.452,1.538,1.097h0.022c0.17-0.316,0.396-0.543,0.622-0.712c0.328-0.249,0.678-0.384,1.199-0.384
		c0.735,0,1.809,0.475,1.809,2.375v3.211h-0.973v-3.087c0-1.063-0.396-1.685-1.187-1.685c-0.577,0-1.006,0.418-1.188,0.893
		c-0.045,0.147-0.079,0.317-0.079,0.498v3.381h-0.972v-3.279c0-0.871-0.385-1.493-1.142-1.493c-0.61,0-1.074,0.498-1.232,0.995
		c-0.057,0.136-0.079,0.316-0.079,0.486v3.29h-0.973V179.526z"/>
</g>
<g>
	<path d="M157.827,182.93c0-0.407,0.283-0.712,0.678-0.712c0.396,0,0.667,0.294,0.667,0.712c0,0.407-0.271,0.712-0.689,0.712
		C158.098,183.642,157.827,183.336,157.827,182.93z M161.592,182.93c0-0.407,0.283-0.712,0.678-0.712
		c0.396,0,0.667,0.294,0.667,0.712c0,0.407-0.271,0.712-0.689,0.712C161.864,183.642,161.592,183.336,161.592,182.93z
		 M165.357,182.93c0-0.407,0.283-0.712,0.678-0.712c0.396,0,0.667,0.294,0.667,0.712c0,0.407-0.271,0.712-0.689,0.712
		C165.629,183.642,165.357,183.336,165.357,182.93z"/>
</g>
<g>
	<path d="M134.288,258.858l-1.934-7.621h1.041l0.904,3.855c0.226,0.95,0.43,1.9,0.565,2.635h0.022
		c0.125-0.758,0.362-1.662,0.622-2.646l1.018-3.845h1.029l0.927,3.867c0.215,0.904,0.418,1.81,0.531,2.612h0.023
		c0.158-0.837,0.373-1.686,0.61-2.635l1.006-3.845h1.006l-2.16,7.621h-1.029l-0.961-3.969c-0.238-0.973-0.396-1.719-0.498-2.487
		h-0.023c-0.124,0.758-0.305,1.504-0.588,2.487l-1.085,3.969H134.288z"/>
	<path d="M142.57,250.831h0.995v3.426h0.022c0.159-0.283,0.407-0.543,0.712-0.713c0.294-0.169,0.645-0.271,1.018-0.271
		c0.735,0,1.911,0.453,1.911,2.33v3.256h-0.995v-3.144c0-0.882-0.328-1.616-1.266-1.616c-0.645,0-1.142,0.452-1.334,0.983
		c-0.057,0.146-0.068,0.294-0.068,0.475v3.302h-0.995V250.831z"/>
	<path d="M153.794,256.077c0,2.023-1.414,2.905-2.725,2.905c-1.47,0-2.623-1.085-2.623-2.815c0-1.82,1.21-2.895,2.713-2.895
		C152.731,253.272,153.794,254.415,153.794,256.077z M149.464,256.133c0,1.198,0.678,2.103,1.651,2.103
		c0.95,0,1.662-0.893,1.662-2.125c0-0.928-0.464-2.092-1.64-2.092C149.973,254.019,149.464,255.104,149.464,256.133z"/>
	<path d="M157.441,255.172c0-0.701-0.022-1.267-0.045-1.787h0.882l0.057,0.938h0.022c0.396-0.667,1.052-1.052,1.945-1.052
		c1.334,0,2.329,1.12,2.329,2.771c0,1.968-1.21,2.939-2.499,2.939c-0.724,0-1.357-0.316-1.685-0.859h-0.022v2.974h-0.984V255.172z
		 M158.425,256.63c0,0.147,0.011,0.283,0.045,0.407c0.181,0.689,0.78,1.164,1.492,1.164c1.052,0,1.662-0.858,1.662-2.114
		c0-1.085-0.577-2.023-1.628-2.023c-0.679,0-1.323,0.475-1.504,1.221c-0.034,0.125-0.068,0.271-0.068,0.396V256.63z"/>
	<path d="M163.871,255.092c0-0.644-0.011-1.198-0.045-1.707h0.871l0.045,1.086h0.034c0.249-0.735,0.859-1.199,1.526-1.199
		c0.102,0,0.181,0.012,0.271,0.023v0.938c-0.102-0.023-0.204-0.023-0.339-0.023c-0.701,0-1.199,0.521-1.334,1.267
		c-0.023,0.136-0.034,0.306-0.034,0.464v2.917h-0.995V255.092z"/>
	<path d="M172.519,256.077c0,2.023-1.414,2.905-2.725,2.905c-1.47,0-2.623-1.085-2.623-2.815c0-1.82,1.21-2.895,2.713-2.895
		C171.456,253.272,172.519,254.415,172.519,256.077z M168.188,256.133c0,1.198,0.678,2.103,1.651,2.103
		c0.95,0,1.662-0.893,1.662-2.125c0-0.928-0.464-2.092-1.64-2.092C168.697,254.019,168.188,255.104,168.188,256.133z"/>
	<path d="M174.155,253.385l1.074,3.064c0.181,0.509,0.328,0.961,0.441,1.413h0.034c0.125-0.452,0.283-0.904,0.464-1.413l1.063-3.064
		h1.041l-2.148,5.473h-0.95l-2.081-5.473H174.155z"/>
	<path d="M180.314,251.848c0,0.339-0.238,0.61-0.633,0.61c-0.362,0-0.599-0.271-0.599-0.61c0-0.34,0.249-0.622,0.622-0.622
		C180.065,251.226,180.314,251.498,180.314,251.848z M179.206,258.858v-5.473h0.995v5.473H179.206z"/>
	<path d="M186.565,250.831v6.614c0,0.486,0.022,1.04,0.045,1.413h-0.882l-0.045-0.95h-0.034c-0.294,0.611-0.95,1.074-1.843,1.074
		c-1.323,0-2.352-1.119-2.352-2.781c-0.011-1.82,1.131-2.929,2.454-2.929c0.848,0,1.402,0.396,1.651,0.826h0.022v-3.268H186.565z
		 M185.582,255.613c0-0.124-0.011-0.294-0.045-0.418c-0.147-0.622-0.689-1.143-1.436-1.143c-1.029,0-1.639,0.905-1.639,2.104
		c0,1.107,0.554,2.023,1.617,2.023c0.667,0,1.278-0.452,1.458-1.187c0.034-0.136,0.045-0.271,0.045-0.43V255.613z"/>
	<path d="M188.778,256.302c0.022,1.346,0.871,1.899,1.877,1.899c0.712,0,1.153-0.124,1.515-0.282l0.181,0.712
		c-0.35,0.159-0.961,0.351-1.832,0.351c-1.685,0-2.691-1.119-2.691-2.77c0-1.651,0.972-2.94,2.566-2.94
		c1.798,0,2.262,1.561,2.262,2.567c0,0.203-0.011,0.351-0.034,0.463H188.778z M191.695,255.59c0.012-0.622-0.26-1.605-1.379-1.605
		c-1.018,0-1.447,0.916-1.526,1.605H191.695z"/>
	<path d="M193.75,257.852c0.305,0.181,0.825,0.384,1.323,0.384c0.712,0,1.051-0.351,1.051-0.813c0-0.476-0.283-0.724-1.006-0.995
		c-0.995-0.362-1.458-0.894-1.458-1.55c0-0.882,0.724-1.605,1.888-1.605c0.554,0,1.041,0.147,1.334,0.34l-0.237,0.724
		c-0.215-0.136-0.611-0.328-1.12-0.328c-0.588,0-0.904,0.339-0.904,0.746c0,0.452,0.316,0.656,1.029,0.938
		c0.938,0.351,1.436,0.825,1.436,1.64c0,0.973-0.758,1.65-2.035,1.65c-0.6,0-1.153-0.158-1.538-0.384L193.75,257.852z"/>
	<path d="M198.745,258.27c0-0.407,0.283-0.712,0.678-0.712c0.396,0,0.667,0.294,0.667,0.712c0,0.407-0.271,0.712-0.689,0.712
		C199.016,258.982,198.745,258.677,198.745,258.27z M202.51,258.27c0-0.407,0.283-0.712,0.678-0.712
		c0.396,0,0.667,0.294,0.667,0.712c0,0.407-0.271,0.712-0.689,0.712C202.782,258.982,202.51,258.677,202.51,258.27z M206.275,258.27
		c0-0.407,0.283-0.712,0.678-0.712c0.396,0,0.667,0.294,0.667,0.712c0,0.407-0.271,0.712-0.689,0.712
		C206.547,258.982,206.275,258.677,206.275,258.27z"/>
</g>
<g>
	<path d="M134.027,327.202v4.523c0,1.695,0.758,2.419,1.775,2.419c1.119,0,1.854-0.746,1.854-2.419v-4.523h0.995v4.455
		c0,2.341-1.232,3.29-2.883,3.29c-1.561,0-2.736-0.882-2.736-3.256v-4.489H134.027z"/>
	<path d="M140.321,330.832c0-0.577-0.011-1.029-0.045-1.481h0.882l0.057,0.904h0.022c0.271-0.509,0.905-1.018,1.809-1.018
		c0.758,0,1.934,0.453,1.934,2.33v3.256h-0.995v-3.154c0-0.882-0.328-1.617-1.266-1.617c-0.645,0-1.153,0.464-1.334,1.018
		c-0.045,0.124-0.068,0.294-0.068,0.464v3.29h-0.995V330.832z"/>
	<path d="M146.593,326.795h0.995v8.027h-0.995V326.795z"/>
	<path d="M150.368,327.813c0,0.339-0.238,0.61-0.633,0.61c-0.362,0-0.599-0.271-0.599-0.61c0-0.34,0.249-0.622,0.622-0.622
		C150.119,327.191,150.368,327.462,150.368,327.813z M149.26,334.823v-5.473h0.995v5.473H149.26z"/>
	<path d="M152.888,331.861h0.022c0.136-0.192,0.317-0.43,0.475-0.622l1.617-1.889h1.188l-2.103,2.25l2.408,3.223h-1.221
		l-1.877-2.623l-0.509,0.565v2.058h-0.984v-8.027h0.984V331.861z"/>
	<path d="M157.758,332.267c0.022,1.346,0.871,1.899,1.877,1.899c0.712,0,1.153-0.124,1.515-0.282l0.181,0.712
		c-0.35,0.159-0.961,0.351-1.832,0.351c-1.685,0-2.691-1.119-2.691-2.77c0-1.651,0.972-2.94,2.566-2.94
		c1.798,0,2.262,1.561,2.262,2.567c0,0.203-0.011,0.351-0.034,0.463H157.758z M160.675,331.555c0.012-0.622-0.26-1.605-1.379-1.605
		c-1.018,0-1.447,0.916-1.526,1.605H160.675z"/>
	<path d="M163.25,334.235c0-0.407,0.283-0.712,0.678-0.712c0.396,0,0.667,0.294,0.667,0.712c0,0.407-0.271,0.712-0.689,0.712
		C163.521,334.947,163.25,334.642,163.25,334.235z M167.016,334.235c0-0.407,0.283-0.712,0.678-0.712
		c0.396,0,0.667,0.294,0.667,0.712c0,0.407-0.271,0.712-0.689,0.712C167.287,334.947,167.016,334.642,167.016,334.235z
		 M170.781,334.235c0-0.407,0.283-0.712,0.678-0.712c0.396,0,0.667,0.294,0.667,0.712c0,0.407-0.271,0.712-0.689,0.712
		C171.052,334.947,170.781,334.642,170.781,334.235z"/>
</g>
</svg>
