<?xml version="1.0" encoding="utf-8"?>
<!-- Generator: Adobe Illustrator 15.1.0, SVG Export Plug-In . SVG Version: 6.00 Build 0)  -->
<!DOCTYPE svg PUBLIC "-//W3C//DTD SVG 1.1//EN" "http://www.w3.org/Graphics/SVG/1.1/DTD/svg11.dtd">
<svg version="1.1" id="Layer_1" xmlns="http://www.w3.org/2000/svg" xmlns:xlink="http://www.w3.org/1999/xlink" x="0px" y="0px"
	 width="456.617px" height="220.897px" viewBox="0 0 456.617 220.897" enable-background="new 0 0 456.617 220.897"
	 xml:space="preserve">
<rect x="116.778" fill="#EBEBEB" width="339.838" height="71.237"/>
<rect fill="#F49712" width="112.531" height="71.328"/>
<g>
	<path fill="#FFFFFF" d="M14.23,32.165l-2.051-8.083h1.104l0.959,4.09c0.24,1.007,0.456,2.015,0.6,2.794h0.024
		c0.132-0.804,0.384-1.763,0.66-2.807l1.08-4.078h1.091l0.983,4.102c0.228,0.959,0.444,1.919,0.564,2.771h0.024
		c0.168-0.887,0.396-1.787,0.647-2.794l1.067-4.078h1.067l-2.291,8.083h-1.091l-1.02-4.209c-0.252-1.032-0.42-1.823-0.528-2.639
		h-0.024c-0.132,0.803-0.324,1.595-0.624,2.639l-1.151,4.209H14.23z"/>
	<path fill="#FFFFFF" d="M23.183,23.649h1.056v3.634h0.024c0.168-0.3,0.432-0.576,0.755-0.755c0.312-0.18,0.684-0.288,1.08-0.288
		c0.779,0,2.027,0.48,2.027,2.471v3.454h-1.056v-3.334c0-0.936-0.348-1.715-1.343-1.715c-0.684,0-1.211,0.48-1.415,1.043
		c-0.06,0.156-0.072,0.312-0.072,0.504v3.502h-1.056V23.649z"/>
	<path fill="#FFFFFF" d="M34.136,30.773c0,0.503,0.024,0.995,0.084,1.391h-0.947l-0.084-0.731h-0.036
		c-0.324,0.456-0.947,0.863-1.775,0.863c-1.175,0-1.775-0.828-1.775-1.667c0-1.403,1.247-2.171,3.49-2.159v-0.12
		c0-0.468-0.132-1.343-1.319-1.331c-0.552,0-1.116,0.156-1.523,0.432l-0.24-0.708c0.479-0.3,1.187-0.504,1.919-0.504
		c1.775,0,2.207,1.211,2.207,2.363V30.773z M33.117,29.202c-1.151-0.024-2.458,0.18-2.458,1.307c0,0.696,0.456,1.008,0.983,1.008
		c0.768,0,1.259-0.48,1.427-0.972c0.036-0.12,0.048-0.24,0.048-0.336V29.202z"/>
	<path fill="#FFFFFF" d="M37.27,24.968v1.392h1.511v0.803H37.27v3.13c0,0.72,0.204,1.127,0.792,1.127
		c0.288,0,0.456-0.024,0.612-0.072l0.048,0.803c-0.204,0.072-0.528,0.144-0.936,0.144c-0.492,0-0.888-0.168-1.14-0.444
		c-0.288-0.324-0.408-0.839-0.408-1.523v-3.167h-0.899V26.36h0.899v-1.08L37.27,24.968z"/>
</g>
<g>
	<path fill="#FFFFFF" d="M51.106,24.081v8.083H50.05v-8.083H51.106z"/>
</g>
<g>
	<path fill="#FFFFFF" d="M56.638,24.201c0.636-0.108,1.391-0.18,2.219-0.18c1.499,0,2.566,0.36,3.274,1.007
		c0.732,0.66,1.151,1.595,1.151,2.902c0,1.319-0.419,2.399-1.163,3.143c-0.768,0.755-2.015,1.163-3.586,1.163
		c-0.756,0-1.367-0.036-1.895-0.096V24.201z M57.681,31.349c0.264,0.036,0.647,0.048,1.055,0.048c2.243,0,3.442-1.247,3.442-3.43
		c0.012-1.907-1.067-3.118-3.274-3.118c-0.54,0-0.947,0.048-1.223,0.108V31.349z"/>
	<path fill="#FFFFFF" d="M70.026,29.214c0,2.146-1.499,3.082-2.89,3.082c-1.559,0-2.783-1.151-2.783-2.986
		c0-1.931,1.284-3.07,2.878-3.07C68.899,26.24,70.026,27.451,70.026,29.214z M65.433,29.274c0,1.271,0.72,2.231,1.751,2.231
		c1.007,0,1.763-0.947,1.763-2.255c0-0.983-0.492-2.219-1.739-2.219C65.973,27.031,65.433,28.183,65.433,29.274z"/>
</g>
<g>
</g>
<g>
	<path fill="#FFFFFF" d="M15.154,39.837c-0.875,1.187-1.499,2.734-1.499,4.917c0,2.135,0.66,3.658,1.499,4.857h-0.815
		c-0.756-0.996-1.571-2.531-1.571-4.869c0.012-2.351,0.815-3.898,1.571-4.905H15.154z"/>
	<path fill="#FFFFFF" d="M20.672,45.21c0,2.146-1.499,3.082-2.89,3.082c-1.559,0-2.783-1.151-2.783-2.986
		c0-1.931,1.284-3.07,2.878-3.07C19.545,42.236,20.672,43.447,20.672,45.21z M16.079,45.27c0,1.271,0.72,2.231,1.751,2.231
		c1.007,0,1.763-0.947,1.763-2.255c0-0.983-0.492-2.219-1.739-2.219C16.618,43.027,16.079,44.179,16.079,45.27z"/>
	<path fill="#FFFFFF" d="M21.863,44.167c0-0.684-0.012-1.271-0.048-1.811h0.923l0.048,1.151h0.036
		c0.264-0.78,0.912-1.271,1.619-1.271c0.108,0,0.192,0.012,0.288,0.024v0.996c-0.108-0.024-0.216-0.024-0.359-0.024
		c-0.744,0-1.271,0.552-1.416,1.343c-0.024,0.144-0.036,0.324-0.036,0.492v3.094h-1.056V44.167z"/>
	<path fill="#FFFFFF" d="M28.99,48.161l-2.051-8.083h1.104l0.959,4.09c0.24,1.007,0.456,2.015,0.6,2.794h0.024
		c0.132-0.804,0.384-1.763,0.66-2.807l1.08-4.078h1.091l0.983,4.102c0.228,0.959,0.444,1.919,0.564,2.771h0.024
		c0.168-0.887,0.396-1.787,0.647-2.794l1.067-4.078h1.067l-2.291,8.083h-1.091l-1.02-4.209c-0.252-1.032-0.42-1.823-0.528-2.639
		h-0.024c-0.132,0.803-0.324,1.595-0.624,2.639l-1.151,4.209H28.99z"/>
	<path fill="#FFFFFF" d="M41.228,46.77c0,0.503,0.024,0.995,0.084,1.391h-0.947l-0.084-0.731h-0.036
		c-0.324,0.456-0.947,0.863-1.775,0.863c-1.175,0-1.775-0.828-1.775-1.667c0-1.403,1.247-2.171,3.49-2.159v-0.12
		c0-0.468-0.132-1.343-1.319-1.331c-0.552,0-1.116,0.156-1.523,0.432l-0.24-0.708c0.479-0.3,1.187-0.504,1.919-0.504
		c1.775,0,2.207,1.211,2.207,2.363V46.77z M40.208,45.198c-1.151-0.024-2.458,0.18-2.458,1.307c0,0.696,0.456,1.008,0.983,1.008
		c0.768,0,1.259-0.48,1.427-0.972c0.036-0.12,0.048-0.24,0.048-0.336V45.198z"/>
	<path fill="#FFFFFF" d="M42.827,43.927c0-0.611-0.012-1.091-0.048-1.571h0.936l0.06,0.959h0.024c0.288-0.54,0.959-1.08,1.919-1.08
		c0.803,0,2.051,0.48,2.051,2.471v3.454h-1.056v-3.346c0-0.936-0.348-1.715-1.343-1.715c-0.684,0-1.223,0.492-1.415,1.079
		c-0.048,0.132-0.072,0.312-0.072,0.492v3.49h-1.056V43.927z"/>
	<path fill="#FFFFFF" d="M50.59,40.964v1.392h1.511v0.803H50.59v3.13c0,0.72,0.204,1.127,0.792,1.127
		c0.288,0,0.456-0.024,0.611-0.072l0.048,0.803c-0.204,0.072-0.528,0.144-0.936,0.144c-0.492,0-0.888-0.168-1.14-0.444
		c-0.288-0.324-0.408-0.839-0.408-1.523v-3.167h-0.899v-0.803h0.899v-1.08L50.59,40.964z"/>
	<path fill="#FFFFFF" d="M56.397,40.964v1.392h1.511v0.803h-1.511v3.13c0,0.72,0.204,1.127,0.792,1.127
		c0.288,0,0.456-0.024,0.611-0.072l0.048,0.803c-0.204,0.072-0.528,0.144-0.936,0.144c-0.492,0-0.888-0.168-1.14-0.444
		c-0.288-0.324-0.408-0.839-0.408-1.523v-3.167h-0.899v-0.803h0.899v-1.08L56.397,40.964z"/>
	<path fill="#FFFFFF" d="M64.099,45.21c0,2.146-1.499,3.082-2.89,3.082c-1.559,0-2.783-1.151-2.783-2.986
		c0-1.931,1.284-3.07,2.878-3.07C62.972,42.236,64.099,43.447,64.099,45.21z M59.506,45.27c0,1.271,0.72,2.231,1.751,2.231
		c1.007,0,1.763-0.947,1.763-2.255c0-0.983-0.492-2.219-1.739-2.219C60.045,43.027,59.506,44.179,59.506,45.27z"/>
	<path fill="#FFFFFF" d="M67.318,40.197c0.636-0.108,1.391-0.18,2.219-0.18c1.499,0,2.566,0.36,3.274,1.007
		c0.732,0.66,1.151,1.595,1.151,2.902c0,1.319-0.419,2.399-1.163,3.143c-0.768,0.755-2.015,1.163-3.586,1.163
		c-0.756,0-1.368-0.036-1.895-0.096V40.197z M68.361,47.345c0.264,0.036,0.647,0.048,1.055,0.048c2.243,0,3.442-1.247,3.442-3.43
		c0.012-1.907-1.067-3.118-3.274-3.118c-0.54,0-0.947,0.048-1.223,0.108V47.345z"/>
	<path fill="#FFFFFF" d="M80.358,45.21c0,2.146-1.499,3.082-2.89,3.082c-1.559,0-2.783-1.151-2.783-2.986
		c0-1.931,1.284-3.07,2.878-3.07C79.231,42.236,80.358,43.447,80.358,45.21z M75.765,45.27c0,1.271,0.72,2.231,1.751,2.231
		c1.007,0,1.763-0.947,1.763-2.255c0-0.983-0.492-2.219-1.739-2.219C76.305,43.027,75.765,44.179,75.765,45.27z"/>
	<path fill="#FFFFFF" d="M80.206,49.612c0.84-1.188,1.5-2.734,1.5-4.893c0-2.159-0.648-3.682-1.5-4.881h0.816
		c0.755,0.983,1.571,2.53,1.571,4.881c-0.012,2.351-0.815,3.886-1.571,4.893H80.206z"/>
</g>
<rect x="116.778" y="74.688" fill="#D0D0D0" width="339.838" height="71.237"/>
<rect y="74.688" fill="#F49712" width="112.531" height="71.328"/>
<g>
	<path fill="#FFFFFF" d="M18.548,106.6c-0.372,0.192-1.151,0.384-2.135,0.384c-2.279,0-3.982-1.439-3.982-4.102
		c0-2.542,1.715-4.246,4.222-4.246c0.996,0,1.643,0.216,1.919,0.36l-0.264,0.852c-0.384-0.192-0.948-0.336-1.619-0.336
		c-1.895,0-3.154,1.211-3.154,3.334c0,1.991,1.139,3.25,3.094,3.25c0.648,0,1.295-0.132,1.715-0.336L18.548,106.6z"/>
	<path fill="#FFFFFF" d="M25.112,103.902c0,2.146-1.499,3.082-2.89,3.082c-1.559,0-2.783-1.151-2.783-2.986
		c0-1.931,1.284-3.07,2.878-3.07C23.985,100.927,25.112,102.139,25.112,103.902z M20.519,103.961c0,1.271,0.72,2.231,1.751,2.231
		c1.007,0,1.763-0.947,1.763-2.255c0-0.983-0.492-2.219-1.739-2.219C21.058,101.719,20.519,102.87,20.519,103.961z"/>
	<path fill="#FFFFFF" d="M26.651,102.618c0-0.611-0.012-1.091-0.048-1.571h0.936l0.06,0.959h0.024c0.288-0.54,0.959-1.08,1.919-1.08
		c0.803,0,2.051,0.48,2.051,2.471v3.454h-1.056v-3.346c0-0.936-0.348-1.715-1.343-1.715c-0.684,0-1.223,0.492-1.415,1.079
		c-0.048,0.132-0.072,0.312-0.072,0.492v3.49h-1.056V102.618z"/>
	<path fill="#FFFFFF" d="M34.762,99.656v1.392h1.511v0.803h-1.511v3.13c0,0.72,0.204,1.127,0.792,1.127
		c0.288,0,0.456-0.024,0.612-0.072l0.048,0.803c-0.204,0.072-0.528,0.144-0.936,0.144c-0.492,0-0.888-0.168-1.14-0.444
		c-0.288-0.324-0.408-0.839-0.408-1.523v-3.167h-0.899v-0.803h0.899v-1.08L34.762,99.656z"/>
	<path fill="#FFFFFF" d="M38.17,104.142c0.024,1.427,0.923,2.015,1.991,2.015c0.755,0,1.223-0.132,1.607-0.3l0.192,0.756
		c-0.372,0.168-1.019,0.372-1.943,0.372c-1.787,0-2.854-1.188-2.854-2.938s1.032-3.118,2.723-3.118c1.907,0,2.399,1.655,2.399,2.723
		c0,0.216-0.012,0.372-0.036,0.492H38.17z M41.265,103.386c0.012-0.66-0.276-1.703-1.463-1.703c-1.079,0-1.535,0.971-1.619,1.703
		H41.265z"/>
	<path fill="#FFFFFF" d="M43.99,101.047l0.828,1.247c0.228,0.324,0.408,0.612,0.6,0.936h0.024c0.192-0.336,0.384-0.636,0.588-0.947
		l0.803-1.235h1.151l-1.979,2.806l2.027,2.999h-1.188l-0.864-1.307c-0.228-0.336-0.419-0.66-0.624-1.008h-0.024
		c-0.192,0.348-0.384,0.66-0.612,1.008l-0.839,1.307h-1.163l2.063-2.962l-1.967-2.842H43.99z"/>
	<path fill="#FFFFFF" d="M50.602,99.656v1.392h1.511v0.803h-1.511v3.13c0,0.72,0.204,1.127,0.792,1.127
		c0.288,0,0.456-0.024,0.612-0.072l0.048,0.803c-0.204,0.072-0.528,0.144-0.936,0.144c-0.492,0-0.888-0.168-1.14-0.444
		c-0.288-0.324-0.408-0.839-0.408-1.523v-3.167h-0.899v-0.803h0.899v-1.08L50.602,99.656z"/>
	<path fill="#FFFFFF" d="M59.924,105.461c0,0.503,0.024,0.995,0.084,1.391h-0.947l-0.084-0.731H58.94
		c-0.324,0.456-0.947,0.863-1.775,0.863c-1.175,0-1.775-0.828-1.775-1.667c0-1.403,1.247-2.171,3.49-2.159v-0.12
		c0-0.468-0.132-1.343-1.319-1.331c-0.551,0-1.115,0.156-1.523,0.432l-0.24-0.708c0.479-0.3,1.188-0.504,1.919-0.504
		c1.775,0,2.207,1.211,2.207,2.363V105.461z M58.905,103.89c-1.151-0.024-2.459,0.18-2.459,1.307c0,0.696,0.456,1.008,0.983,1.008
		c0.768,0,1.259-0.48,1.427-0.972c0.036-0.12,0.048-0.24,0.048-0.336V103.89z"/>
	<path fill="#FFFFFF" d="M61.87,102.618c0-0.611-0.012-1.091-0.048-1.571h0.936l0.06,0.959h0.024c0.288-0.54,0.959-1.08,1.919-1.08
		c0.803,0,2.051,0.48,2.051,2.471v3.454h-1.056v-3.346c0-0.936-0.348-1.715-1.343-1.715c-0.684,0-1.223,0.492-1.415,1.079
		c-0.048,0.132-0.072,0.312-0.072,0.492v3.49H61.87V102.618z"/>
	<path fill="#FFFFFF" d="M73.759,98.337v7.016c0,0.516,0.024,1.103,0.048,1.499h-0.936l-0.048-1.007h-0.036
		c-0.312,0.647-1.007,1.139-1.955,1.139c-1.403,0-2.495-1.188-2.495-2.95c-0.012-1.931,1.2-3.106,2.603-3.106
		c0.9,0,1.487,0.42,1.751,0.875h0.024v-3.466H73.759z M72.716,103.41c0-0.132-0.012-0.312-0.048-0.444
		c-0.156-0.66-0.731-1.211-1.523-1.211c-1.091,0-1.739,0.959-1.739,2.231c0,1.175,0.588,2.146,1.715,2.146
		c0.708,0,1.355-0.479,1.547-1.259c0.036-0.144,0.048-0.288,0.048-0.456V103.41z"/>
</g>
<g>
	<path fill="#FFFFFF" d="M14.686,122.848l-2.65-8.084h1.139l1.259,3.982c0.336,1.091,0.636,2.074,0.864,3.022h0.024
		c0.228-0.936,0.552-1.955,0.923-3.011l1.367-3.994h1.116l-2.891,8.084H14.686z"/>
	<path fill="#FFFFFF" d="M23.325,121.457c0,0.504,0.024,0.996,0.084,1.392h-0.947l-0.084-0.731h-0.036
		c-0.324,0.456-0.947,0.863-1.775,0.863c-1.175,0-1.775-0.827-1.775-1.667c0-1.403,1.247-2.171,3.49-2.159v-0.119
		c0-0.468-0.132-1.344-1.319-1.332c-0.552,0-1.116,0.156-1.523,0.432l-0.24-0.707c0.479-0.3,1.187-0.504,1.919-0.504
		c1.775,0,2.207,1.211,2.207,2.362V121.457z M22.305,119.886c-1.151-0.024-2.458,0.18-2.458,1.307c0,0.695,0.456,1.008,0.983,1.008
		c0.768,0,1.259-0.479,1.427-0.972c0.036-0.12,0.048-0.24,0.048-0.336V119.886z"/>
	<path fill="#FFFFFF" d="M25.247,114.333h1.056v8.516h-1.056V114.333z"/>
	<path fill="#FFFFFF" d="M33.128,121.253c0,0.611,0.012,1.139,0.048,1.595h-0.936l-0.06-0.947h-0.024
		c-0.264,0.468-0.887,1.079-1.919,1.079c-0.911,0-2.003-0.516-2.003-2.543v-3.394h1.056v3.202c0,1.104,0.348,1.859,1.295,1.859
		c0.708,0,1.199-0.492,1.391-0.972c0.06-0.145,0.096-0.336,0.096-0.54v-3.55h1.056V121.253z"/>
	<path fill="#FFFFFF" d="M35.687,120.137c0.024,1.428,0.923,2.016,1.991,2.016c0.755,0,1.223-0.132,1.607-0.3l0.192,0.755
		c-0.372,0.168-1.019,0.372-1.943,0.372c-1.787,0-2.854-1.188-2.854-2.938s1.032-3.118,2.723-3.118c1.907,0,2.399,1.655,2.399,2.723
		c0,0.216-0.012,0.372-0.036,0.491H35.687z M38.781,119.382c0.012-0.66-0.276-1.703-1.463-1.703c-1.08,0-1.535,0.972-1.619,1.703
		H38.781z"/>
</g>
<rect x="116.778" y="149.569" fill="#EBEBEB" width="339.838" height="71.236"/>
<rect y="149.569" fill="#F49712" width="112.531" height="71.328"/>
<g>
	<path fill="#FFFFFF" d="M17.084,185.942h-3.13v2.914h3.502v0.876h-4.558v-8.084h4.378v0.876h-3.322v2.555h3.13V185.942z"/>
	<path fill="#FFFFFF" d="M19.271,183.927l1.14,3.25c0.192,0.54,0.348,1.02,0.468,1.499h0.036c0.132-0.479,0.3-0.959,0.492-1.499
		l1.127-3.25h1.104l-2.279,5.805H20.35l-2.207-5.805H19.271z"/>
	<path fill="#FFFFFF" d="M25.894,182.296c0,0.359-0.252,0.647-0.671,0.647c-0.384,0-0.636-0.288-0.636-0.647
		c0-0.36,0.264-0.66,0.66-0.66C25.63,181.636,25.894,181.924,25.894,182.296z M24.719,189.732v-5.805h1.056v5.805H24.719z"/>
	<path fill="#FFFFFF" d="M32.684,181.216v7.017c0,0.516,0.024,1.104,0.048,1.499h-0.936l-0.048-1.008h-0.036
		c-0.312,0.648-1.007,1.14-1.955,1.14c-1.403,0-2.495-1.188-2.495-2.95c-0.012-1.931,1.2-3.106,2.603-3.106
		c0.9,0,1.487,0.42,1.751,0.876h0.024v-3.467H32.684z M31.641,186.29c0-0.132-0.012-0.312-0.048-0.443
		c-0.156-0.66-0.731-1.212-1.523-1.212c-1.091,0-1.739,0.96-1.739,2.231c0,1.175,0.588,2.146,1.715,2.146
		c0.708,0,1.355-0.479,1.547-1.259c0.036-0.145,0.048-0.288,0.048-0.456V186.29z"/>
	<path fill="#FFFFFF" d="M35.254,187.021c0.024,1.428,0.923,2.016,1.991,2.016c0.755,0,1.223-0.132,1.607-0.3l0.192,0.755
		c-0.372,0.168-1.019,0.372-1.943,0.372c-1.787,0-2.854-1.188-2.854-2.938s1.032-3.118,2.723-3.118c1.907,0,2.399,1.655,2.399,2.723
		c0,0.216-0.012,0.372-0.036,0.491H35.254z M38.349,186.266c0.012-0.66-0.276-1.703-1.463-1.703c-1.079,0-1.535,0.972-1.619,1.703
		H38.349z"/>
	<path fill="#FFFFFF" d="M40.858,185.499c0-0.612-0.012-1.092-0.048-1.571h0.936l0.06,0.959h0.024
		c0.288-0.539,0.959-1.079,1.919-1.079c0.803,0,2.051,0.479,2.051,2.471v3.454h-1.056v-3.346c0-0.936-0.348-1.716-1.343-1.716
		c-0.684,0-1.223,0.492-1.415,1.08c-0.048,0.132-0.072,0.312-0.072,0.491v3.49h-1.056V185.499z"/>
	<path fill="#FFFFFF" d="M51.86,189.528c-0.276,0.132-0.888,0.336-1.667,0.336c-1.751,0-2.891-1.188-2.891-2.962
		c0-1.787,1.224-3.095,3.119-3.095c0.624,0,1.175,0.156,1.463,0.312l-0.24,0.804c-0.252-0.132-0.647-0.275-1.223-0.275
		c-1.332,0-2.051,0.995-2.051,2.194c0,1.344,0.864,2.171,2.015,2.171c0.6,0,0.996-0.144,1.295-0.275L51.86,189.528z"/>
	<path fill="#FFFFFF" d="M53.698,187.021c0.024,1.428,0.923,2.016,1.991,2.016c0.755,0,1.223-0.132,1.607-0.3l0.192,0.755
		c-0.372,0.168-1.019,0.372-1.943,0.372c-1.787,0-2.854-1.188-2.854-2.938s1.032-3.118,2.723-3.118c1.907,0,2.399,1.655,2.399,2.723
		c0,0.216-0.012,0.372-0.036,0.491H53.698z M56.792,186.266c0.012-0.66-0.276-1.703-1.463-1.703c-1.08,0-1.535,0.972-1.619,1.703
		H56.792z"/>
</g>
</svg>
