<?xml version="1.0" encoding="utf-8"?>
<!-- Generator: Adobe Illustrator 15.1.0, SVG Export Plug-In . SVG Version: 6.00 Build 0)  -->
<!DOCTYPE svg PUBLIC "-//W3C//DTD SVG 1.1//EN" "http://www.w3.org/Graphics/SVG/1.1/DTD/svg11.dtd">
<svg version="1.1" id="Layer_1" xmlns="http://www.w3.org/2000/svg" xmlns:xlink="http://www.w3.org/1999/xlink" x="0px" y="0px"
	 width="489.999px" height="415.33px" viewBox="0 0 489.999 415.33" enable-background="new 0 0 489.999 415.33"
	 xml:space="preserve">
<rect y="31.333" fill="#F39200" width="118.898" height="124.974"/>
<g opacity="0.11">
	<g>
		<defs>
			<rect id="SVGID_1_" x="123.701" y="31.333" width="118.899" height="124.974"/>
		</defs>
		<clipPath id="SVGID_2_">
			<use xlink:href="#SVGID_1_"  overflow="visible"/>
		</clipPath>
		<rect x="123.701" y="31.333" clip-path="url(#SVGID_2_)" width="118.9" height="124.974"/>
	</g>
</g>
<g opacity="0.11">
	<g>
		<defs>
			<rect id="SVGID_3_" x="247.399" y="31.333" width="118.899" height="124.974"/>
		</defs>
		<clipPath id="SVGID_4_">
			<use xlink:href="#SVGID_3_"  overflow="visible"/>
		</clipPath>
		<rect x="247.399" y="31.333" clip-path="url(#SVGID_4_)" width="118.899" height="124.974"/>
	</g>
</g>
<g opacity="0.11">
	<g>
		<defs>
			<rect id="SVGID_5_" x="371.098" y="31.333" width="118.9" height="124.974"/>
		</defs>
		<clipPath id="SVGID_6_">
			<use xlink:href="#SVGID_5_"  overflow="visible"/>
		</clipPath>
		<rect x="371.098" y="31.333" clip-path="url(#SVGID_6_)" width="118.9" height="124.974"/>
	</g>
</g>
<rect fill="#575756" width="118.898" height="27.777"/>
<rect x="123.701" fill="#575756" width="118.9" height="27.777"/>
<rect x="247.399" fill="#575756" width="118.899" height="27.777"/>
<rect x="371.098" fill="#575756" width="118.9" height="27.777"/>
<g>
	<path fill="#FFFFFF" d="M16.077,54.506l-0.934,2.827h-1.2l3.067-8.989h1.387l3.067,8.989h-1.24l-0.96-2.827H16.077z M19.037,53.599
		l-0.894-2.587c-0.2-0.587-0.333-1.12-0.467-1.641H17.65c-0.133,0.521-0.267,1.081-0.454,1.627l-0.88,2.6H19.037z"/>
	<path fill="#FFFFFF" d="M28.264,55.559c0,0.68,0.014,1.267,0.054,1.774h-1.041l-0.066-1.054h-0.027
		c-0.293,0.521-0.987,1.2-2.134,1.2c-1.014,0-2.227-0.573-2.227-2.827v-3.774h1.173v3.561c0,1.227,0.387,2.067,1.44,2.067
		c0.787,0,1.333-0.547,1.547-1.081c0.067-0.16,0.107-0.373,0.107-0.6v-3.947h1.173V55.559z"/>
	<path fill="#FFFFFF" d="M35.904,47.864v7.802c0,0.573,0.027,1.227,0.053,1.667h-1.04l-0.053-1.12h-0.04
		c-0.347,0.72-1.12,1.267-2.174,1.267c-1.561,0-2.774-1.32-2.774-3.28c-0.013-2.147,1.333-3.454,2.894-3.454
		c1,0,1.653,0.467,1.947,0.973h0.027v-3.854H35.904z M34.744,53.505c0-0.146-0.013-0.347-0.053-0.493
		c-0.173-0.733-0.813-1.347-1.694-1.347c-1.213,0-1.934,1.067-1.934,2.48c0,1.307,0.653,2.387,1.907,2.387
		c0.787,0,1.507-0.533,1.721-1.4c0.04-0.16,0.053-0.32,0.053-0.506V53.505z"/>
	<path fill="#FFFFFF" d="M39.303,49.064c0,0.4-0.28,0.72-0.747,0.72c-0.427,0-0.707-0.32-0.707-0.72c0-0.4,0.293-0.733,0.734-0.733
		C39.01,48.331,39.303,48.651,39.303,49.064z M37.996,57.333v-6.455h1.173v6.455H37.996z"/>
	<path fill="#FFFFFF" d="M41.903,54.319c0.027,1.587,1.027,2.241,2.214,2.241c0.84,0,1.36-0.147,1.787-0.333l0.213,0.84
		c-0.414,0.187-1.134,0.413-2.161,0.413c-1.987,0-3.174-1.32-3.174-3.267c0-1.947,1.147-3.467,3.027-3.467
		c2.12,0,2.667,1.84,2.667,3.027c0,0.24-0.013,0.413-0.04,0.546H41.903z M45.344,53.479c0.013-0.734-0.307-1.894-1.627-1.894
		c-1.201,0-1.707,1.081-1.801,1.894H45.344z"/>
	<path fill="#FFFFFF" d="M48.063,52.625c0-0.68-0.013-1.214-0.053-1.747h1.04l0.066,1.067h0.027c0.32-0.6,1.067-1.2,2.134-1.2
		c0.894,0,2.281,0.533,2.281,2.747v3.841h-1.174v-3.721c0-1.041-0.387-1.907-1.494-1.907c-0.76,0-1.36,0.547-1.574,1.2
		c-0.053,0.147-0.08,0.347-0.08,0.547v3.881h-1.173V52.625z"/>
	<path fill="#FFFFFF" d="M60.197,57.106c-0.307,0.146-0.987,0.373-1.854,0.373c-1.947,0-3.214-1.32-3.214-3.294
		c0-1.987,1.36-3.44,3.467-3.44c0.693,0,1.307,0.173,1.627,0.347l-0.267,0.894c-0.28-0.147-0.72-0.307-1.36-0.307
		c-1.48,0-2.28,1.106-2.28,2.44c0,1.494,0.96,2.414,2.24,2.414c0.667,0,1.107-0.16,1.44-0.307L60.197,57.106z"/>
	<path fill="#FFFFFF" d="M62.355,54.319c0.027,1.587,1.027,2.241,2.214,2.241c0.84,0,1.36-0.147,1.787-0.333l0.213,0.84
		c-0.414,0.187-1.134,0.413-2.161,0.413c-1.987,0-3.174-1.32-3.174-3.267c0-1.947,1.147-3.467,3.027-3.467
		c2.121,0,2.667,1.84,2.667,3.027c0,0.24-0.013,0.413-0.04,0.546H62.355z M65.796,53.479c0.013-0.734-0.307-1.894-1.627-1.894
		c-1.2,0-1.707,1.081-1.801,1.894H65.796z"/>
</g>
<g>
	<path fill="#FFFFFF" d="M14.623,73.333v-8.989h1.28l2.867,4.548c0.653,1.054,1.187,2,1.6,2.92l0.04-0.013
		c-0.106-1.2-0.133-2.294-0.133-3.694v-3.761h1.094v8.989h-1.174l-2.854-4.561c-0.626-1-1.227-2.027-1.667-3l-0.04,0.013
		c0.067,1.134,0.08,2.214,0.08,3.708v3.841H14.623z"/>
	<path fill="#FFFFFF" d="M24.129,70.319c0.027,1.587,1.027,2.241,2.214,2.241c0.84,0,1.36-0.147,1.787-0.333l0.213,0.84
		c-0.414,0.187-1.134,0.413-2.161,0.413c-1.987,0-3.174-1.32-3.174-3.267c0-1.947,1.147-3.467,3.027-3.467
		c2.12,0,2.667,1.84,2.667,3.027c0,0.24-0.013,0.413-0.04,0.546H24.129z M27.57,69.479c0.013-0.734-0.307-1.894-1.627-1.894
		c-1.201,0-1.707,1.081-1.801,1.894H27.57z"/>
	<path fill="#FFFFFF" d="M30.943,70.319c0.027,1.587,1.027,2.241,2.214,2.241c0.84,0,1.36-0.147,1.787-0.333l0.213,0.84
		c-0.414,0.187-1.134,0.413-2.161,0.413c-1.987,0-3.174-1.32-3.174-3.267c0-1.947,1.147-3.467,3.027-3.467
		c2.12,0,2.667,1.84,2.667,3.027c0,0.24-0.013,0.413-0.04,0.546H30.943z M34.384,69.479c0.013-0.734-0.307-1.894-1.627-1.894
		c-1.201,0-1.707,1.081-1.801,1.894H34.384z"/>
	<path fill="#FFFFFF" d="M42.664,63.864v7.802c0,0.573,0.027,1.227,0.053,1.667h-1.04l-0.053-1.12h-0.04
		c-0.347,0.72-1.12,1.267-2.174,1.267c-1.561,0-2.774-1.32-2.774-3.28c-0.013-2.147,1.333-3.454,2.894-3.454
		c1,0,1.653,0.467,1.947,0.973h0.027v-3.854H42.664z M41.503,69.505c0-0.146-0.013-0.347-0.053-0.493
		c-0.173-0.733-0.813-1.347-1.694-1.347c-1.213,0-1.934,1.067-1.934,2.48c0,1.307,0.653,2.387,1.907,2.387
		c0.787,0,1.507-0.533,1.721-1.4c0.04-0.16,0.053-0.32,0.053-0.506V69.505z"/>
	<path fill="#FFFFFF" d="M44.596,72.146c0.36,0.213,0.974,0.454,1.561,0.454c0.84,0,1.24-0.414,1.24-0.96
		c0-0.56-0.333-0.854-1.187-1.173c-1.174-0.427-1.72-1.054-1.72-1.827c0-1.04,0.854-1.894,2.227-1.894
		c0.653,0,1.227,0.173,1.574,0.4l-0.28,0.854c-0.253-0.16-0.72-0.387-1.32-0.387c-0.693,0-1.067,0.4-1.067,0.88
		c0,0.533,0.374,0.773,1.214,1.106c1.106,0.414,1.693,0.974,1.693,1.934c0,1.147-0.894,1.947-2.4,1.947
		c-0.707,0-1.36-0.187-1.813-0.453L44.596,72.146z"/>
	<path fill="#FFFFFF" d="M49.182,73.853l3.708-9.668h0.92l-3.734,9.668H49.182z"/>
	<path fill="#FFFFFF" d="M56.369,73.333l-2.28-8.989h1.227l1.067,4.548c0.267,1.12,0.507,2.24,0.667,3.107h0.027
		c0.146-0.894,0.427-1.96,0.733-3.121l1.2-4.535h1.213l1.094,4.561c0.253,1.067,0.494,2.134,0.627,3.081h0.026
		c0.187-0.987,0.44-1.987,0.72-3.107l1.187-4.535h1.187l-2.547,8.989h-1.213l-1.134-4.681c-0.28-1.147-0.467-2.027-0.587-2.934
		h-0.026c-0.147,0.893-0.36,1.773-0.693,2.934l-1.28,4.681H56.369z"/>
	<path fill="#FFFFFF" d="M70.81,71.786c0,0.56,0.027,1.107,0.093,1.547H69.85l-0.094-0.813h-0.04c-0.36,0.507-1.053,0.96-1.974,0.96
		c-1.307,0-1.974-0.92-1.974-1.854c0-1.561,1.387-2.414,3.881-2.4v-0.133c0-0.521-0.147-1.494-1.467-1.48
		c-0.613,0-1.24,0.173-1.693,0.48l-0.267-0.787c0.533-0.333,1.32-0.56,2.134-0.56c1.974,0,2.454,1.347,2.454,2.627V71.786z
		 M69.676,70.039c-1.28-0.027-2.734,0.2-2.734,1.454c0,0.773,0.507,1.12,1.094,1.12c0.854,0,1.4-0.533,1.587-1.08
		c0.04-0.133,0.054-0.267,0.054-0.374V70.039z"/>
	<path fill="#FFFFFF" d="M72.822,68.625c0-0.68-0.014-1.214-0.053-1.747h1.04l0.067,1.067h0.026c0.32-0.6,1.067-1.2,2.134-1.2
		c0.894,0,2.281,0.533,2.281,2.747v3.841h-1.174v-3.721c0-1.041-0.387-1.907-1.494-1.907c-0.76,0-1.36,0.547-1.574,1.2
		c-0.053,0.147-0.08,0.347-0.08,0.547v3.881h-1.173V68.625z"/>
	<path fill="#FFFFFF" d="M81.769,65.331v1.547h1.68v0.894h-1.68v3.48c0,0.8,0.227,1.254,0.88,1.254c0.32,0,0.506-0.027,0.68-0.08
		l0.054,0.894c-0.227,0.08-0.587,0.16-1.041,0.16c-0.546,0-0.987-0.187-1.267-0.493c-0.32-0.36-0.454-0.934-0.454-1.694v-3.521h-1
		v-0.894h1v-1.2L81.769,65.331z"/>
	<path fill="#FFFFFF" d="M84.742,72.146c0.36,0.213,0.974,0.454,1.561,0.454c0.84,0,1.24-0.414,1.24-0.96
		c0-0.56-0.333-0.854-1.187-1.173c-1.174-0.427-1.72-1.054-1.72-1.827c0-1.04,0.854-1.894,2.227-1.894
		c0.653,0,1.227,0.173,1.574,0.4l-0.28,0.854c-0.253-0.16-0.72-0.387-1.32-0.387c-0.693,0-1.067,0.4-1.067,0.88
		c0,0.533,0.374,0.773,1.214,1.106c1.107,0.414,1.693,0.974,1.693,1.934c0,1.147-0.894,1.947-2.4,1.947
		c-0.707,0-1.36-0.187-1.814-0.453L84.742,72.146z"/>
</g>
<rect y="160.845" fill="#F39200" width="118.898" height="124.975"/>
<g opacity="0.11">
	<g>
		<defs>
			<rect id="SVGID_7_" x="123.701" y="160.845" width="118.899" height="124.975"/>
		</defs>
		<clipPath id="SVGID_8_">
			<use xlink:href="#SVGID_7_"  overflow="visible"/>
		</clipPath>
		<rect x="123.701" y="160.845" clip-path="url(#SVGID_8_)" width="118.9" height="124.975"/>
	</g>
</g>
<g opacity="0.11">
	<g>
		<defs>
			<rect id="SVGID_9_" x="247.399" y="160.845" width="118.899" height="124.975"/>
		</defs>
		<clipPath id="SVGID_10_">
			<use xlink:href="#SVGID_9_"  overflow="visible"/>
		</clipPath>
		<rect x="247.399" y="160.845" clip-path="url(#SVGID_10_)" width="118.899" height="124.975"/>
	</g>
</g>
<g opacity="0.11">
	<g>
		<defs>
			<rect id="SVGID_11_" x="371.098" y="160.845" width="118.9" height="124.975"/>
		</defs>
		<clipPath id="SVGID_12_">
			<use xlink:href="#SVGID_11_"  overflow="visible"/>
		</clipPath>
		<rect x="371.098" y="160.845" clip-path="url(#SVGID_12_)" width="118.9" height="124.975"/>
	</g>
</g>
<g>
	<path fill="#FFFFFF" d="M16.077,183.839l-0.934,2.827h-1.2l3.067-8.989h1.387l3.067,8.989h-1.24l-0.96-2.827H16.077z
		 M19.037,182.932l-0.894-2.587c-0.2-0.587-0.333-1.12-0.467-1.641H17.65c-0.133,0.521-0.267,1.081-0.454,1.627l-0.88,2.6H19.037z"
		/>
	<path fill="#FFFFFF" d="M28.264,184.892c0,0.68,0.014,1.267,0.054,1.774h-1.041l-0.066-1.054h-0.027
		c-0.293,0.521-0.987,1.2-2.134,1.2c-1.014,0-2.227-0.573-2.227-2.827v-3.774h1.173v3.561c0,1.227,0.387,2.067,1.44,2.067
		c0.787,0,1.333-0.547,1.547-1.081c0.067-0.16,0.107-0.373,0.107-0.6v-3.947h1.173V184.892z"/>
	<path fill="#FFFFFF" d="M35.904,177.197v7.802c0,0.573,0.027,1.227,0.053,1.667h-1.04l-0.053-1.12h-0.04
		c-0.347,0.72-1.12,1.267-2.174,1.267c-1.561,0-2.774-1.32-2.774-3.28c-0.013-2.147,1.333-3.454,2.894-3.454
		c1,0,1.653,0.467,1.947,0.973h0.027v-3.854H35.904z M34.744,182.838c0-0.146-0.013-0.347-0.053-0.493
		c-0.173-0.733-0.813-1.347-1.694-1.347c-1.213,0-1.934,1.067-1.934,2.48c0,1.307,0.653,2.387,1.907,2.387
		c0.787,0,1.507-0.533,1.721-1.4c0.04-0.16,0.053-0.32,0.053-0.506V182.838z"/>
	<path fill="#FFFFFF" d="M39.303,178.397c0,0.4-0.28,0.72-0.747,0.72c-0.427,0-0.707-0.32-0.707-0.72c0-0.4,0.293-0.733,0.734-0.733
		C39.01,177.664,39.303,177.984,39.303,178.397z M37.996,186.666v-6.455h1.173v6.455H37.996z"/>
	<path fill="#FFFFFF" d="M41.903,183.652c0.027,1.587,1.027,2.241,2.214,2.241c0.84,0,1.36-0.147,1.787-0.333l0.213,0.84
		c-0.414,0.187-1.134,0.413-2.161,0.413c-1.987,0-3.174-1.32-3.174-3.267c0-1.947,1.147-3.467,3.027-3.467
		c2.12,0,2.667,1.84,2.667,3.027c0,0.24-0.013,0.413-0.04,0.546H41.903z M45.344,182.812c0.013-0.734-0.307-1.894-1.627-1.894
		c-1.201,0-1.707,1.081-1.801,1.894H45.344z"/>
	<path fill="#FFFFFF" d="M48.063,181.958c0-0.68-0.013-1.214-0.053-1.747h1.04l0.066,1.067h0.027c0.32-0.6,1.067-1.2,2.134-1.2
		c0.894,0,2.281,0.533,2.281,2.747v3.841h-1.174v-3.721c0-1.041-0.387-1.907-1.494-1.907c-0.76,0-1.36,0.547-1.574,1.2
		c-0.053,0.147-0.08,0.347-0.08,0.547v3.881h-1.173V181.958z"/>
	<path fill="#FFFFFF" d="M60.197,186.439c-0.307,0.146-0.987,0.373-1.854,0.373c-1.947,0-3.214-1.32-3.214-3.294
		c0-1.987,1.36-3.44,3.467-3.44c0.693,0,1.307,0.173,1.627,0.347l-0.267,0.894c-0.28-0.147-0.72-0.307-1.36-0.307
		c-1.48,0-2.28,1.106-2.28,2.44c0,1.494,0.96,2.414,2.24,2.414c0.667,0,1.107-0.16,1.44-0.307L60.197,186.439z"/>
	<path fill="#FFFFFF" d="M62.355,183.652c0.027,1.587,1.027,2.241,2.214,2.241c0.84,0,1.36-0.147,1.787-0.333l0.213,0.84
		c-0.414,0.187-1.134,0.413-2.161,0.413c-1.987,0-3.174-1.32-3.174-3.267c0-1.947,1.147-3.467,3.027-3.467
		c2.121,0,2.667,1.84,2.667,3.027c0,0.24-0.013,0.413-0.04,0.546H62.355z M65.796,182.812c0.013-0.734-0.307-1.894-1.627-1.894
		c-1.2,0-1.707,1.081-1.801,1.894H65.796z"/>
</g>
<g>
	<path fill="#FFFFFF" d="M20.891,202.386c-0.414,0.213-1.28,0.427-2.374,0.427c-2.534,0-4.428-1.6-4.428-4.561
		c0-2.828,1.907-4.721,4.694-4.721c1.107,0,1.827,0.24,2.134,0.4l-0.293,0.947c-0.427-0.214-1.053-0.374-1.8-0.374
		c-2.107,0-3.507,1.347-3.507,3.708c0,2.214,1.267,3.614,3.441,3.614c0.72,0,1.44-0.146,1.907-0.373L20.891,202.386z"/>
	<path fill="#FFFFFF" d="M22.45,193.197h1.173v4.041h0.027c0.187-0.333,0.48-0.64,0.84-0.84c0.347-0.2,0.76-0.32,1.2-0.32
		c0.867,0,2.254,0.533,2.254,2.747v3.841h-1.174v-3.708c0-1.04-0.387-1.907-1.494-1.907c-0.76,0-1.347,0.534-1.574,1.161
		c-0.066,0.173-0.08,0.347-0.08,0.56v3.894H22.45V193.197z"/>
	<path fill="#FFFFFF" d="M34.517,201.119c0,0.56,0.027,1.107,0.093,1.547h-1.053l-0.094-0.813h-0.04
		c-0.36,0.507-1.053,0.96-1.974,0.96c-1.307,0-1.974-0.92-1.974-1.854c0-1.561,1.387-2.414,3.881-2.4v-0.133
		c0-0.521-0.147-1.494-1.467-1.48c-0.614,0-1.241,0.173-1.694,0.48l-0.267-0.787c0.533-0.333,1.32-0.56,2.134-0.56
		c1.974,0,2.454,1.347,2.454,2.627V201.119z M33.383,199.372c-1.28-0.027-2.734,0.2-2.734,1.454c0,0.773,0.507,1.12,1.094,1.12
		c0.854,0,1.4-0.533,1.587-1.08c0.04-0.133,0.053-0.267,0.053-0.374V199.372z"/>
	<path fill="#FFFFFF" d="M36.529,193.197h1.173v9.469h-1.173V193.197z"/>
	<path fill="#FFFFFF" d="M39.809,193.197h1.173v9.469h-1.173V193.197z"/>
	<path fill="#FFFFFF" d="M43.742,199.652c0.027,1.587,1.027,2.241,2.214,2.241c0.84,0,1.36-0.147,1.787-0.333l0.213,0.84
		c-0.414,0.187-1.134,0.413-2.161,0.413c-1.987,0-3.174-1.32-3.174-3.267c0-1.947,1.147-3.467,3.027-3.467
		c2.121,0,2.667,1.84,2.667,3.027c0,0.24-0.013,0.413-0.04,0.546H43.742z M47.183,198.812c0.013-0.734-0.307-1.894-1.627-1.894
		c-1.2,0-1.707,1.081-1.801,1.894H47.183z"/>
	<path fill="#FFFFFF" d="M49.902,197.958c0-0.68-0.013-1.214-0.053-1.747h1.04l0.066,1.067h0.027c0.32-0.6,1.067-1.2,2.134-1.2
		c0.894,0,2.281,0.533,2.281,2.747v3.841h-1.174v-3.721c0-1.041-0.387-1.907-1.494-1.907c-0.76,0-1.36,0.547-1.574,1.2
		c-0.053,0.147-0.08,0.347-0.08,0.547v3.881h-1.173V197.958z"/>
	<path fill="#FFFFFF" d="M62.957,201.719c0,1.494-0.307,2.387-0.92,2.96c-0.64,0.574-1.547,0.773-2.361,0.773
		c-0.773,0-1.627-0.187-2.147-0.533l0.293-0.907c0.427,0.28,1.093,0.52,1.894,0.52c1.2,0,2.081-0.627,2.081-2.267v-0.707H61.77
		c-0.347,0.6-1.053,1.08-2.054,1.08c-1.6,0-2.747-1.36-2.747-3.147c0-2.188,1.427-3.414,2.92-3.414c1.121,0,1.721,0.573,2.014,1.107
		h0.027l0.04-0.974h1.04c-0.04,0.453-0.053,0.987-0.053,1.76V201.719z M61.783,198.758c0-0.2-0.014-0.373-0.067-0.52
		c-0.213-0.693-0.773-1.253-1.64-1.253c-1.121,0-1.92,0.947-1.92,2.44c0,1.267,0.653,2.32,1.907,2.32c0.734,0,1.387-0.453,1.627-1.2
		c0.066-0.2,0.093-0.427,0.093-0.626V198.758z"/>
	<path fill="#FFFFFF" d="M65.675,199.652c0.027,1.587,1.027,2.241,2.214,2.241c0.84,0,1.36-0.147,1.787-0.333l0.213,0.84
		c-0.414,0.187-1.134,0.413-2.161,0.413c-1.987,0-3.174-1.32-3.174-3.267c0-1.947,1.147-3.467,3.027-3.467
		c2.12,0,2.667,1.84,2.667,3.027c0,0.24-0.013,0.413-0.04,0.546H65.675z M69.116,198.812c0.013-0.734-0.307-1.894-1.627-1.894
		c-1.201,0-1.707,1.081-1.801,1.894H69.116z"/>
</g>
<rect y="290.356" fill="#F39200" width="118.898" height="124.974"/>
<g opacity="0.11">
	<g>
		<defs>
			<rect id="SVGID_13_" x="123.701" y="290.356" width="118.899" height="124.974"/>
		</defs>
		<clipPath id="SVGID_14_">
			<use xlink:href="#SVGID_13_"  overflow="visible"/>
		</clipPath>
		<rect x="123.701" y="290.356" clip-path="url(#SVGID_14_)" width="118.9" height="124.974"/>
	</g>
</g>
<g opacity="0.11">
	<g>
		<defs>
			<rect id="SVGID_15_" x="247.399" y="290.356" width="118.899" height="124.974"/>
		</defs>
		<clipPath id="SVGID_16_">
			<use xlink:href="#SVGID_15_"  overflow="visible"/>
		</clipPath>
		<rect x="247.399" y="290.356" clip-path="url(#SVGID_16_)" width="118.899" height="124.974"/>
	</g>
</g>
<g opacity="0.11">
	<g>
		<defs>
			<rect id="SVGID_17_" x="371.098" y="290.356" width="118.9" height="124.974"/>
		</defs>
		<clipPath id="SVGID_18_">
			<use xlink:href="#SVGID_17_"  overflow="visible"/>
		</clipPath>
		<rect x="371.098" y="290.356" clip-path="url(#SVGID_18_)" width="118.9" height="124.974"/>
	</g>
</g>
<g>
	<path fill="#FFFFFF" d="M16.597,315.997l-2.947-8.988h1.267l1.4,4.428c0.374,1.213,0.707,2.307,0.96,3.36h0.027
		c0.253-1.04,0.613-2.174,1.027-3.348l1.52-4.44h1.24l-3.214,8.988H16.597z"/>
	<path fill="#FFFFFF" d="M26.677,314.45c0,0.56,0.027,1.106,0.093,1.547h-1.053l-0.094-0.813h-0.04
		c-0.36,0.507-1.053,0.96-1.974,0.96c-1.307,0-1.974-0.92-1.974-1.854c0-1.561,1.387-2.414,3.881-2.4v-0.134
		c0-0.52-0.147-1.493-1.467-1.48c-0.614,0-1.241,0.174-1.694,0.48l-0.267-0.787c0.533-0.333,1.32-0.56,2.134-0.56
		c1.974,0,2.454,1.347,2.454,2.627V314.45z M25.543,312.703c-1.28-0.026-2.734,0.2-2.734,1.453c0,0.773,0.507,1.121,1.094,1.121
		c0.854,0,1.4-0.534,1.587-1.081c0.04-0.133,0.053-0.267,0.053-0.373V312.703z"/>
	<path fill="#FFFFFF" d="M28.703,306.528h1.173v9.469h-1.173V306.528z"/>
	<path fill="#FFFFFF" d="M37.384,314.224c0,0.68,0.014,1.267,0.054,1.773h-1.041l-0.066-1.054h-0.027
		c-0.293,0.521-0.987,1.2-2.134,1.2c-1.014,0-2.227-0.573-2.227-2.827v-3.774h1.173v3.562c0,1.227,0.387,2.066,1.44,2.066
		c0.787,0,1.333-0.547,1.547-1.08c0.067-0.16,0.107-0.373,0.107-0.6v-3.948h1.173V314.224z"/>
	<path fill="#FFFFFF" d="M40.116,312.983c0.027,1.587,1.027,2.24,2.214,2.24c0.84,0,1.36-0.146,1.787-0.333l0.213,0.84
		c-0.414,0.187-1.134,0.413-2.161,0.413c-1.987,0-3.174-1.32-3.174-3.268c0-1.946,1.147-3.467,3.027-3.467
		c2.121,0,2.667,1.84,2.667,3.027c0,0.24-0.013,0.413-0.04,0.547H40.116z M43.557,312.143c0.013-0.733-0.307-1.894-1.627-1.894
		c-1.2,0-1.707,1.08-1.801,1.894H43.557z"/>
</g>
<g>
	<path fill="#FFFFFF" d="M22.198,328.05c-0.066-1.254-0.146-2.774-0.146-3.881h-0.027c-0.32,1.04-0.68,2.174-1.133,3.414
		l-1.587,4.36h-0.88l-1.467-4.28c-0.427-1.28-0.773-2.428-1.027-3.494h-0.026c-0.027,1.12-0.093,2.613-0.173,3.974l-0.24,3.854
		h-1.107l0.627-8.988h1.48l1.534,4.348c0.374,1.106,0.667,2.094,0.907,3.027h0.026c0.24-0.907,0.56-1.895,0.96-3.027l1.6-4.348h1.48
		l0.56,8.988h-1.147L22.198,328.05z"/>
	<path fill="#FFFFFF" d="M26.089,328.983c0.027,1.587,1.027,2.24,2.214,2.24c0.84,0,1.36-0.146,1.787-0.333l0.213,0.84
		c-0.414,0.187-1.134,0.413-2.161,0.413c-1.987,0-3.174-1.32-3.174-3.268c0-1.946,1.147-3.467,3.027-3.467
		c2.12,0,2.667,1.84,2.667,3.027c0,0.24-0.013,0.413-0.04,0.547H26.089z M29.53,328.143c0.013-0.733-0.307-1.894-1.627-1.894
		c-1.201,0-1.707,1.08-1.801,1.894H29.53z"/>
	<path fill="#FFFFFF" d="M32.089,330.811c0.36,0.213,0.974,0.453,1.561,0.453c0.84,0,1.24-0.413,1.24-0.96
		c0-0.561-0.333-0.854-1.187-1.174c-1.174-0.427-1.72-1.054-1.72-1.827c0-1.04,0.854-1.894,2.227-1.894
		c0.653,0,1.227,0.173,1.574,0.399l-0.28,0.854c-0.253-0.159-0.72-0.387-1.32-0.387c-0.693,0-1.067,0.4-1.067,0.881
		c0,0.533,0.374,0.773,1.214,1.106c1.107,0.414,1.693,0.974,1.693,1.934c0,1.147-0.894,1.947-2.4,1.947
		c-0.707,0-1.36-0.187-1.814-0.453L32.089,330.811z"/>
	<path fill="#FFFFFF" d="M37.489,330.811c0.36,0.213,0.974,0.453,1.561,0.453c0.84,0,1.24-0.413,1.24-0.96
		c0-0.561-0.333-0.854-1.187-1.174c-1.174-0.427-1.72-1.054-1.72-1.827c0-1.04,0.854-1.894,2.227-1.894
		c0.653,0,1.227,0.173,1.574,0.399l-0.28,0.854c-0.253-0.159-0.72-0.387-1.32-0.387c-0.693,0-1.067,0.4-1.067,0.881
		c0,0.533,0.374,0.773,1.214,1.106c1.106,0.414,1.693,0.974,1.693,1.934c0,1.147-0.894,1.947-2.4,1.947
		c-0.707,0-1.36-0.187-1.813-0.453L37.489,330.811z"/>
	<path fill="#FFFFFF" d="M47.583,330.45c0,0.56,0.027,1.106,0.093,1.547h-1.053l-0.094-0.813h-0.04
		c-0.36,0.507-1.053,0.96-1.974,0.96c-1.307,0-1.974-0.92-1.974-1.854c0-1.561,1.387-2.414,3.881-2.4v-0.134
		c0-0.52-0.147-1.493-1.467-1.48c-0.614,0-1.241,0.174-1.694,0.48l-0.267-0.787c0.533-0.333,1.32-0.56,2.134-0.56
		c1.974,0,2.454,1.347,2.454,2.627V330.45z M46.45,328.703c-1.28-0.026-2.734,0.2-2.734,1.453c0,0.773,0.507,1.121,1.094,1.121
		c0.854,0,1.4-0.534,1.587-1.081c0.04-0.133,0.053-0.267,0.053-0.373V328.703z"/>
	<path fill="#FFFFFF" d="M55.13,331.05c0,1.494-0.307,2.388-0.92,2.961c-0.64,0.573-1.547,0.773-2.361,0.773
		c-0.773,0-1.627-0.187-2.147-0.533l0.293-0.907c0.427,0.28,1.094,0.521,1.894,0.521c1.2,0,2.081-0.627,2.081-2.268v-0.706h-0.027
		c-0.347,0.6-1.053,1.08-2.054,1.08c-1.6,0-2.747-1.36-2.747-3.147c0-2.188,1.427-3.414,2.92-3.414c1.121,0,1.721,0.573,2.014,1.106
		h0.026l0.04-0.974h1.04c-0.04,0.454-0.053,0.987-0.053,1.761V331.05z M53.957,328.09c0-0.2-0.014-0.374-0.067-0.521
		c-0.213-0.693-0.773-1.254-1.64-1.254c-1.121,0-1.92,0.947-1.92,2.441c0,1.267,0.653,2.32,1.907,2.32
		c0.734,0,1.387-0.454,1.627-1.2c0.067-0.2,0.094-0.427,0.094-0.627V328.09z"/>
	<path fill="#FFFFFF" d="M57.849,328.983c0.027,1.587,1.027,2.24,2.214,2.24c0.84,0,1.36-0.146,1.787-0.333l0.213,0.84
		c-0.414,0.187-1.134,0.413-2.161,0.413c-1.987,0-3.174-1.32-3.174-3.268c0-1.946,1.147-3.467,3.027-3.467
		c2.12,0,2.667,1.84,2.667,3.027c0,0.24-0.013,0.413-0.04,0.547H57.849z M61.29,328.143c0.013-0.733-0.307-1.894-1.627-1.894
		c-1.201,0-1.707,1.08-1.801,1.894H61.29z"/>
</g>
<g>
	<path fill="#FFFFFF" d="M134.497,14.791l-0.839,2.542h-1.08l2.758-8.083h1.248l2.758,8.083h-1.115l-0.863-2.542H134.497z
		 M137.16,13.975l-0.804-2.327c-0.18-0.527-0.3-1.007-0.419-1.475h-0.024c-0.12,0.468-0.24,0.972-0.408,1.463l-0.792,2.338H137.16z"
		/>
	<path fill="#FFFFFF" d="M145.463,15.738c0,0.612,0.012,1.14,0.048,1.595h-0.936l-0.06-0.947h-0.024
		c-0.264,0.468-0.887,1.079-1.919,1.079c-0.911,0-2.003-0.516-2.003-2.542v-3.394h1.056v3.202c0,1.104,0.348,1.859,1.295,1.859
		c0.708,0,1.199-0.492,1.391-0.971c0.06-0.144,0.096-0.336,0.096-0.54v-3.55h1.056V15.738z"/>
	<path fill="#FFFFFF" d="M152.339,8.818v7.016c0,0.516,0.024,1.103,0.048,1.499h-0.936l-0.048-1.007h-0.036
		c-0.312,0.647-1.007,1.139-1.955,1.139c-1.403,0-2.495-1.188-2.495-2.95c-0.012-1.931,1.2-3.106,2.603-3.106
		c0.9,0,1.487,0.42,1.751,0.875h0.024V8.818H152.339z M151.296,13.891c0-0.132-0.012-0.312-0.048-0.444
		c-0.156-0.66-0.731-1.211-1.523-1.211c-1.091,0-1.739,0.959-1.739,2.231c0,1.175,0.588,2.146,1.715,2.146
		c0.708,0,1.355-0.479,1.547-1.259c0.036-0.144,0.048-0.288,0.048-0.456V13.891z"/>
	<path fill="#FFFFFF" d="M155.401,9.897c0,0.36-0.252,0.648-0.671,0.648c-0.384,0-0.636-0.288-0.636-0.648s0.264-0.66,0.66-0.66
		C155.137,9.237,155.401,9.525,155.401,9.897z M154.226,17.333v-5.805h1.056v5.805H154.226z"/>
	<path fill="#FFFFFF" d="M157.741,14.623c0.024,1.427,0.923,2.015,1.991,2.015c0.755,0,1.223-0.132,1.607-0.3l0.192,0.756
		c-0.372,0.168-1.019,0.372-1.943,0.372c-1.787,0-2.854-1.188-2.854-2.938s1.032-3.118,2.723-3.118c1.907,0,2.399,1.655,2.399,2.723
		c0,0.216-0.012,0.372-0.036,0.492H157.741z M160.835,13.867c0.012-0.66-0.276-1.703-1.463-1.703c-1.08,0-1.535,0.971-1.619,1.703
		H160.835z"/>
	<path fill="#FFFFFF" d="M163.285,13.099c0-0.611-0.012-1.091-0.048-1.571h0.936l0.06,0.959h0.024c0.288-0.54,0.959-1.08,1.919-1.08
		c0.803,0,2.051,0.48,2.051,2.471v3.454h-1.056v-3.346c0-0.936-0.348-1.715-1.343-1.715c-0.684,0-1.223,0.492-1.415,1.079
		c-0.048,0.132-0.072,0.312-0.072,0.492v3.49h-1.056V13.099z"/>
	<path fill="#FFFFFF" d="M174.203,17.129c-0.276,0.132-0.887,0.336-1.667,0.336c-1.751,0-2.891-1.188-2.891-2.962
		c0-1.787,1.224-3.094,3.119-3.094c0.624,0,1.175,0.156,1.463,0.312l-0.24,0.803c-0.252-0.132-0.647-0.275-1.223-0.275
		c-1.332,0-2.051,0.995-2.051,2.194c0,1.343,0.864,2.171,2.015,2.171c0.6,0,0.996-0.144,1.295-0.276L174.203,17.129z"/>
	<path fill="#FFFFFF" d="M176.149,14.623c0.024,1.427,0.923,2.015,1.991,2.015c0.755,0,1.223-0.132,1.607-0.3l0.192,0.756
		c-0.372,0.168-1.019,0.372-1.943,0.372c-1.787,0-2.854-1.188-2.854-2.938s1.032-3.118,2.723-3.118c1.907,0,2.399,1.655,2.399,2.723
		c0,0.216-0.012,0.372-0.036,0.492H176.149z M179.243,13.867c0.012-0.66-0.276-1.703-1.463-1.703c-1.079,0-1.535,0.971-1.619,1.703
		H179.243z"/>
	<path fill="#FFFFFF" d="M186.312,10.521h-0.024l-1.355,0.732l-0.204-0.804l1.703-0.912h0.9v7.796h-1.02V10.521z"/>
</g>
<g>
	<path fill="#FFFFFF" d="M258.494,14.791l-0.84,2.542h-1.079l2.759-8.083h1.247l2.759,8.083h-1.115l-0.864-2.542H258.494z
		 M261.156,13.975l-0.803-2.327c-0.181-0.527-0.3-1.007-0.42-1.475h-0.024c-0.12,0.468-0.239,0.972-0.407,1.463l-0.792,2.338
		H261.156z"/>
	<path fill="#FFFFFF" d="M269.459,15.738c0,0.612,0.013,1.14,0.049,1.595h-0.936l-0.061-0.947h-0.023
		c-0.265,0.468-0.888,1.079-1.919,1.079c-0.912,0-2.003-0.516-2.003-2.542v-3.394h1.055v3.202c0,1.104,0.349,1.859,1.296,1.859
		c0.707,0,1.199-0.492,1.391-0.971c0.061-0.144,0.097-0.336,0.097-0.54v-3.55h1.055V15.738z"/>
	<path fill="#FFFFFF" d="M276.335,8.818v7.016c0,0.516,0.023,1.103,0.048,1.499h-0.936l-0.048-1.007h-0.036
		c-0.312,0.647-1.008,1.139-1.955,1.139c-1.403,0-2.494-1.188-2.494-2.95c-0.013-1.931,1.199-3.106,2.603-3.106
		c0.899,0,1.487,0.42,1.751,0.875h0.023V8.818H276.335z M275.292,13.891c0-0.132-0.012-0.312-0.048-0.444
		c-0.155-0.66-0.731-1.211-1.523-1.211c-1.091,0-1.738,0.959-1.738,2.231c0,1.175,0.588,2.146,1.715,2.146
		c0.708,0,1.355-0.479,1.547-1.259c0.036-0.144,0.048-0.288,0.048-0.456V13.891z"/>
	<path fill="#FFFFFF" d="M279.398,9.897c0,0.36-0.252,0.648-0.672,0.648c-0.384,0-0.636-0.288-0.636-0.648s0.265-0.66,0.66-0.66
		C279.134,9.237,279.398,9.525,279.398,9.897z M278.223,17.333v-5.805h1.055v5.805H278.223z"/>
	<path fill="#FFFFFF" d="M281.738,14.623c0.024,1.427,0.924,2.015,1.991,2.015c0.756,0,1.224-0.132,1.607-0.3l0.191,0.756
		c-0.372,0.168-1.02,0.372-1.942,0.372c-1.787,0-2.854-1.188-2.854-2.938s1.031-3.118,2.723-3.118c1.906,0,2.398,1.655,2.398,2.723
		c0,0.216-0.013,0.372-0.036,0.492H281.738z M284.833,13.867c0.012-0.66-0.276-1.703-1.463-1.703c-1.08,0-1.535,0.971-1.619,1.703
		H284.833z"/>
	<path fill="#FFFFFF" d="M287.283,13.099c0-0.611-0.013-1.091-0.049-1.571h0.936l0.061,0.959h0.023c0.288-0.54,0.96-1.08,1.919-1.08
		c0.804,0,2.051,0.48,2.051,2.471v3.454h-1.055v-3.346c0-0.936-0.349-1.715-1.344-1.715c-0.684,0-1.224,0.492-1.415,1.079
		c-0.048,0.132-0.072,0.312-0.072,0.492v3.49h-1.055V13.099z"/>
	<path fill="#FFFFFF" d="M298.2,17.129c-0.276,0.132-0.888,0.336-1.668,0.336c-1.751,0-2.89-1.188-2.89-2.962
		c0-1.787,1.223-3.094,3.118-3.094c0.623,0,1.175,0.156,1.463,0.312l-0.239,0.803c-0.252-0.132-0.648-0.275-1.224-0.275
		c-1.331,0-2.051,0.995-2.051,2.194c0,1.343,0.863,2.171,2.015,2.171c0.6,0,0.995-0.144,1.295-0.276L298.2,17.129z"/>
	<path fill="#FFFFFF" d="M300.133,14.623c0.024,1.427,0.924,2.015,1.991,2.015c0.756,0,1.224-0.132,1.607-0.3l0.191,0.756
		c-0.372,0.168-1.02,0.372-1.942,0.372c-1.787,0-2.854-1.188-2.854-2.938s1.031-3.118,2.723-3.118c1.906,0,2.398,1.655,2.398,2.723
		c0,0.216-0.012,0.372-0.036,0.492H300.133z M303.228,13.867c0.012-0.66-0.276-1.703-1.463-1.703c-1.08,0-1.535,0.971-1.619,1.703
		H303.228z"/>
	<path fill="#FFFFFF" d="M308.006,17.333v-0.647l0.827-0.804c1.991-1.895,2.902-2.902,2.902-4.078c0-0.792-0.372-1.523-1.535-1.523
		c-0.707,0-1.295,0.36-1.655,0.66l-0.336-0.744c0.528-0.444,1.308-0.792,2.195-0.792c1.679,0,2.387,1.151,2.387,2.267
		c0,1.439-1.044,2.603-2.687,4.186l-0.611,0.576v0.024h3.489v0.875H308.006z"/>
</g>
<g>
	<path fill="#FFFFFF" d="M381.83,14.791l-0.84,2.542h-1.079l2.759-8.083h1.247l2.759,8.083h-1.115l-0.864-2.542H381.83z
		 M384.492,13.975l-0.803-2.327c-0.181-0.527-0.3-1.007-0.42-1.475h-0.024c-0.12,0.468-0.239,0.972-0.407,1.463l-0.792,2.338
		H384.492z"/>
	<path fill="#FFFFFF" d="M392.807,15.738c0,0.612,0.013,1.14,0.049,1.595h-0.936l-0.061-0.947h-0.023
		c-0.265,0.468-0.888,1.079-1.919,1.079c-0.912,0-2.003-0.516-2.003-2.542v-3.394h1.055v3.202c0,1.104,0.349,1.859,1.296,1.859
		c0.707,0,1.199-0.492,1.391-0.971c0.061-0.144,0.097-0.336,0.097-0.54v-3.55h1.055V15.738z"/>
	<path fill="#FFFFFF" d="M399.684,8.818v7.016c0,0.516,0.023,1.103,0.048,1.499h-0.936l-0.048-1.007h-0.036
		c-0.312,0.647-1.008,1.139-1.955,1.139c-1.403,0-2.494-1.188-2.494-2.95c-0.013-1.931,1.199-3.106,2.603-3.106
		c0.899,0,1.487,0.42,1.751,0.875h0.023V8.818H399.684z M398.64,13.891c0-0.132-0.012-0.312-0.048-0.444
		c-0.155-0.66-0.731-1.211-1.522-1.211c-1.092,0-1.739,0.959-1.739,2.231c0,1.175,0.587,2.146,1.715,2.146
		c0.708,0,1.355-0.479,1.547-1.259c0.036-0.144,0.048-0.288,0.048-0.456V13.891z"/>
	<path fill="#FFFFFF" d="M402.746,9.897c0,0.36-0.252,0.648-0.672,0.648c-0.384,0-0.636-0.288-0.636-0.648s0.265-0.66,0.66-0.66
		C402.482,9.237,402.746,9.525,402.746,9.897z M401.571,17.333v-5.805h1.055v5.805H401.571z"/>
	<path fill="#FFFFFF" d="M405.085,14.623c0.024,1.427,0.924,2.015,1.991,2.015c0.756,0,1.224-0.132,1.607-0.3l0.191,0.756
		c-0.372,0.168-1.02,0.372-1.942,0.372c-1.787,0-2.854-1.188-2.854-2.938s1.031-3.118,2.723-3.118c1.906,0,2.398,1.655,2.398,2.723
		c0,0.216-0.013,0.372-0.036,0.492H405.085z M408.18,13.867c0.012-0.66-0.276-1.703-1.463-1.703c-1.08,0-1.535,0.971-1.619,1.703
		H408.18z"/>
	<path fill="#FFFFFF" d="M410.63,13.099c0-0.611-0.013-1.091-0.049-1.571h0.936l0.061,0.959h0.023c0.288-0.54,0.96-1.08,1.919-1.08
		c0.804,0,2.051,0.48,2.051,2.471v3.454h-1.055v-3.346c0-0.936-0.349-1.715-1.344-1.715c-0.684,0-1.224,0.492-1.415,1.079
		c-0.048,0.132-0.072,0.312-0.072,0.492v3.49h-1.055V13.099z"/>
	<path fill="#FFFFFF" d="M421.548,17.129c-0.276,0.132-0.888,0.336-1.668,0.336c-1.751,0-2.89-1.188-2.89-2.962
		c0-1.787,1.223-3.094,3.118-3.094c0.623,0,1.175,0.156,1.463,0.312l-0.24,0.803c-0.251-0.132-0.647-0.275-1.223-0.275
		c-1.331,0-2.051,0.995-2.051,2.194c0,1.343,0.863,2.171,2.015,2.171c0.6,0,0.995-0.144,1.295-0.276L421.548,17.129z"/>
	<path fill="#FFFFFF" d="M423.481,14.623c0.024,1.427,0.924,2.015,1.991,2.015c0.756,0,1.224-0.132,1.607-0.3l0.191,0.756
		c-0.372,0.168-1.02,0.372-1.942,0.372c-1.787,0-2.854-1.188-2.854-2.938s1.031-3.118,2.723-3.118c1.906,0,2.398,1.655,2.398,2.723
		c0,0.216-0.012,0.372-0.036,0.492H423.481z M426.576,13.867c0.012-0.66-0.276-1.703-1.463-1.703c-1.08,0-1.535,0.971-1.619,1.703
		H426.576z"/>
	<path fill="#FFFFFF" d="M431.606,16.134c0.3,0.18,0.983,0.479,1.727,0.479c1.344,0,1.775-0.852,1.763-1.511
		c-0.012-1.091-0.995-1.559-2.015-1.559h-0.588v-0.792h0.588c0.768,0,1.739-0.396,1.739-1.319c0-0.624-0.396-1.175-1.367-1.175
		c-0.624,0-1.224,0.276-1.56,0.516l-0.287-0.768c0.419-0.3,1.211-0.6,2.051-0.6c1.535,0,2.23,0.912,2.23,1.859
		c0,0.816-0.492,1.5-1.439,1.847v0.024c0.96,0.18,1.728,0.899,1.739,1.991c0,1.248-0.983,2.339-2.843,2.339
		c-0.875,0-1.643-0.276-2.026-0.528L431.606,16.134z"/>
</g>
</svg>
